<svg width="15" height="14" viewBox="0 0 15 14" fill="none" xmlns="http://www.w3.org/2000/svg">
<path fill-rule="evenodd" clip-rule="evenodd" d="M8.49372 0.256284C8.15201 -0.0854237 7.59799 -0.0854238 7.25628 0.256284C6.91457 0.597992 6.91457 1.15201 7.25628 1.49372L11.8876 6.12499L0.874997 6.12499C0.391749 6.12499 -1.13942e-06 6.51674 -1.22392e-06 6.99999C-1.30841e-06 7.48324 0.391749 7.87499 0.874997 7.87499L11.8876 7.87499L7.25628 12.5063C6.91457 12.848 6.91457 13.402 7.25628 13.7437C7.59799 14.0854 8.152 14.0854 8.49371 13.7437L14.6187 7.61871C14.9604 7.277 14.9604 6.72298 14.6187 6.38127L8.49372 0.256284Z" fill="white"/>
</svg>
