<svg width="201" height="105" viewBox="0 0 201 105" fill="none" xmlns="http://www.w3.org/2000/svg">
<path d="M195.864 18.4002C190.83 0.346638 174.94 -0.498973 155.3 0.139127C143.472 0.523024 91.9692 3.50082 82.0314 3.75502C67.3819 4.12854 38.2661 4.21674 23.7344 5.91834C5.45211 8.05052 -1.05303 13.6719 0.135979 29.9171C0.135932 43.2031 1.32504 68.9063 6.56976 78.4818C15.2527 88.2361 32.6492 86.4878 49.2897 85.9459C51.8902 85.8612 54.1511 87.841 53.9673 90.4363C53.6994 94.2184 52.6167 96.7174 51.7282 98.09C49.0624 102.219 46.8802 106.209 54.9891 104.658C64.8534 102.766 68.5595 97.149 71.2578 89.6477C72.1372 87.2032 74.3768 85.485 76.9741 85.4264C97.1009 84.9727 121.595 83.5199 141.1 82.4808C159.841 81.4847 187.154 80.8822 195.864 71.0938C205.11 60.7031 199.819 32.5629 195.87 18.4002" fill="#F98F00"/>
</svg>
