<svg width="173" height="105" viewBox="0 0 173 105" fill="none" xmlns="http://www.w3.org/2000/svg">
<path d="M168.579 18.4002C164.247 0.346639 150.571 -0.498973 133.666 0.139127C123.486 0.523024 79.1575 3.50082 70.6041 3.75502C57.9954 4.12854 32.9355 4.21674 20.4281 5.91834C4.69261 8.05052 -0.906338 13.6719 0.117036 29.9171C0.116996 43.2031 1.14046 68.9062 5.65457 78.4818C13.0042 88.0747 27.6075 86.5425 41.7119 85.9737C44.341 85.8677 46.6119 87.8827 46.4449 90.5085C46.207 94.2502 45.2821 96.7261 44.5223 98.09C42.2279 102.219 40.3496 106.209 47.329 104.658C55.7368 102.784 58.9466 97.2576 61.2635 89.8655C62.0652 87.3077 64.3501 85.4797 67.0296 85.4054C84.2029 84.9294 104.907 83.5044 121.444 82.4808C137.575 81.4847 161.083 80.8822 168.579 71.0938C176.537 60.7031 171.984 32.5629 168.585 18.4002" fill="#F98F00"/>
</svg>
