<svg width="185" height="116" viewBox="0 0 185 116" fill="none" xmlns="http://www.w3.org/2000/svg">
<path d="M181.392 20.3278C176.73 0.382954 156.508 -0.551246 138.319 0.153702C127.364 0.577817 87.3732 3.86757 78.1694 4.14841C64.6019 4.56106 50.8507 4.65849 37.3924 6.53835C20.4603 8.89391 6.84121 16.6598 2.32255 33.0513C-1.57601 47.1846 -0.955914 69.0839 7.17996 81.8703C16.6249 96.7201 35.4919 95.081 52.1082 94.8288C52.6766 101.936 51.2239 106.303 50.1043 108.366C47.6354 112.928 45.6144 117.336 53.1244 115.622C63.8727 113.163 72.2325 105.008 74.9598 94.4677C94.2804 94.1124 113.486 93.5622 132.876 92.3299C150.232 91.2295 172.022 90.794 180.313 73.7434C187.656 58.6414 185.055 35.9742 181.398 20.3278" fill="#F98F00"/>
</svg>
