<svg width="22" height="22" viewBox="0 0 22 22" fill="none" xmlns="http://www.w3.org/2000/svg">
<path fill-rule="evenodd" clip-rule="evenodd" d="M0.925812 2.44241C1.5186 1.84963 2.32259 1.5166 3.16092 1.5166H10.2414C10.8698 1.5166 11.3793 2.02607 11.3793 2.65453C11.3793 3.28299 10.8698 3.79246 10.2414 3.79246H3.16092C2.92619 3.79246 2.70107 3.88571 2.53509 4.05169C2.36911 4.21767 2.27586 4.44279 2.27586 4.67752V18.8384C2.27586 19.0732 2.36911 19.2983 2.53509 19.4643C2.70107 19.6303 2.92619 19.7235 3.16092 19.7235H17.3218C17.5566 19.7235 17.7817 19.6303 17.9477 19.4643C18.1137 19.2983 18.2069 19.0732 18.2069 18.8384V11.758C18.2069 11.1295 18.7164 10.6201 19.3448 10.6201C19.9733 10.6201 20.4828 11.1295 20.4828 11.758V18.8384C20.4828 19.6768 20.1497 20.4808 19.5569 21.0735C18.9642 21.6663 18.1602 21.9994 17.3218 21.9994H3.16092C2.32259 21.9994 1.5186 21.6663 0.925812 21.0735C0.333024 20.4808 0 19.6768 0 18.8384V4.67752C0 3.83919 0.333024 3.0352 0.925812 2.44241Z" fill="#1377B0" fill-opacity="0.75"/>
<path fill-rule="evenodd" clip-rule="evenodd" d="M18.8109 2.27586C18.5687 2.27586 18.3364 2.37209 18.1651 2.54338L9.20155 11.5069L8.77098 13.2292L10.4932 12.7986L19.4568 3.83507C19.6281 3.66378 19.7243 3.43146 19.7243 3.18923C19.7243 2.94699 19.6281 2.71467 19.4568 2.54338C19.2855 2.37209 19.0532 2.27586 18.8109 2.27586ZM16.5558 0.934103C17.1539 0.336007 17.9651 0 18.8109 0C19.6568 0 20.468 0.336007 21.066 0.934103C21.6641 1.5322 22.0002 2.34339 22.0002 3.18923C22.0002 4.03506 21.6641 4.84625 21.066 5.44435L11.8796 14.6308C11.7338 14.7766 11.5511 14.88 11.351 14.9301L7.48304 15.8971C7.09526 15.994 6.68505 15.8804 6.40241 15.5977C6.11977 15.3151 6.00615 14.9049 6.10309 14.5171L7.07008 10.6492C7.1201 10.4491 7.22356 10.2663 7.3694 10.1205L16.5558 0.934103Z" fill="#1377B0" fill-opacity="0.75"/>
</svg>
