<svg width="15" height="15" viewBox="0 0 15 15" fill="none" xmlns="http://www.w3.org/2000/svg">
<path fill-rule="evenodd" clip-rule="evenodd" d="M0.860194 1.86019C1.2509 1.46949 1.7808 1.25 2.33333 1.25H7C7.41421 1.25 7.75 1.58579 7.75 2C7.75 2.41421 7.41421 2.75 7 2.75H2.33333C2.17862 2.75 2.03025 2.81146 1.92085 2.92085C1.81146 3.03025 1.75 3.17862 1.75 3.33333V12.6667C1.75 12.8214 1.81146 12.9697 1.92085 13.0791C2.03025 13.1885 2.17862 13.25 2.33333 13.25H11.6667C11.8214 13.25 11.9697 13.1885 12.0791 13.0791C12.1885 12.9697 12.25 12.8214 12.25 12.6667V8C12.25 7.58579 12.5858 7.25 13 7.25C13.4142 7.25 13.75 7.58579 13.75 8V12.6667C13.75 13.2192 13.5305 13.7491 13.1398 14.1398C12.7491 14.5305 12.2192 14.75 11.6667 14.75H2.33333C1.7808 14.75 1.25089 14.5305 0.860194 14.1398C0.469493 13.7491 0.25 13.2192 0.25 12.6667V3.33333C0.25 2.7808 0.469493 2.2509 0.860194 1.86019Z" fill="#1377B0" fill-opacity="0.75"/>
<path fill-rule="evenodd" clip-rule="evenodd" d="M12.648 1.75C12.4883 1.75 12.3352 1.81342 12.2223 1.92632L6.31454 7.8341L6.03076 8.96922L7.16588 8.68544L13.0737 2.77766C13.1866 2.66477 13.25 2.51165 13.25 2.35199C13.25 2.19233 13.1866 2.03921 13.0737 1.92632C12.9608 1.81342 12.8077 1.75 12.648 1.75ZM11.1617 0.865659C11.5559 0.471459 12.0905 0.25 12.648 0.25C13.2055 0.25 13.7401 0.471459 14.1343 0.865659C14.5285 1.25986 14.75 1.79451 14.75 2.35199C14.75 2.90947 14.5285 3.44412 14.1343 3.83832L8.07965 9.893C7.98353 9.98911 7.8631 10.0573 7.73122 10.0903L5.18189 10.7276C4.92631 10.7915 4.65594 10.7166 4.46966 10.5303C4.28337 10.344 4.20848 10.0737 4.27238 9.8181L4.90971 7.26876C4.94268 7.13689 5.01087 7.01645 5.10699 6.92033L11.1617 0.865659Z" fill="#1377B0" fill-opacity="0.75"/>
</svg>
