<svg width="16" height="10" viewBox="0 0 16 10" fill="none" xmlns="http://www.w3.org/2000/svg">
<path fill-rule="evenodd" clip-rule="evenodd" d="M2.00875 0C1.75264 0 1.54501 0.207621 1.54501 0.463734C1.54501 0.719847 1.75264 0.927468 2.00875 0.927468H9.46765V7.80728H7.40096C7.38008 7.80728 7.35953 7.80866 7.33939 7.81133C7.13807 7.07961 6.46792 6.5421 5.67223 6.5421C4.87801 6.5421 4.20887 7.07762 4.00619 7.80728H3.14159V5.7723H3.90983C4.16594 5.7723 4.37356 5.56468 4.37356 5.30857C4.37356 5.05245 4.16594 4.84483 3.90983 4.84483H1.34606C1.08994 4.84483 0.882323 5.05245 0.882323 5.30857C0.882323 5.56468 1.08994 5.7723 1.34606 5.7723H2.21412V8.27101C2.21412 8.52712 2.42174 8.73474 2.67786 8.73474H4.00617C4.20883 9.46443 4.87799 9.99999 5.67223 9.99999C6.46795 9.99999 7.13811 9.46245 7.33941 8.7307C7.35955 8.73337 7.38009 8.73474 7.40096 8.73474H10.7958C10.9985 9.46443 11.6676 9.99999 12.4619 9.99999C13.2561 9.99999 13.9253 9.46443 14.1279 8.73474H14.9922C15.1243 8.73474 15.2502 8.67839 15.3382 8.57982C15.4262 8.48126 15.4679 8.34984 15.453 8.21857L15.021 4.42293C14.9943 4.18863 14.796 4.01164 14.5602 4.01164H13.8667L13.1103 1.19218C13.0559 0.989518 12.8722 0.848617 12.6624 0.848617H10.3951V0.463734C10.3951 0.207621 10.1875 0 9.93138 0H2.00875ZM13.2633 8.26365C13.2633 8.2661 13.2633 8.26855 13.2633 8.27101C13.2633 8.27348 13.2633 8.27594 13.2633 8.2784C13.2594 8.71765 12.9021 9.07252 12.4619 9.07252C12.0192 9.07252 11.6604 8.71369 11.6604 8.27104C11.6604 7.8284 12.0192 7.46957 12.4619 7.46957C12.9021 7.46957 13.2594 7.82441 13.2633 8.26365ZM14.1279 7.80728H14.4727L14.1463 4.93911H10.3951V7.80728H10.7959C10.9985 7.07762 11.6677 6.5421 12.4619 6.5421C13.2561 6.5421 13.9253 7.07762 14.1279 7.80728ZM12.9065 4.01164H10.3951V1.77608H12.3067L12.9065 4.01164ZM0.463734 2.43013C0.207621 2.43013 0 2.63775 0 2.89386C0 3.14998 0.207621 3.3576 0.463734 3.3576H5.64923C5.90535 3.3576 6.11297 3.14998 6.11297 2.89386C6.11297 2.63775 5.90535 2.43013 5.64923 2.43013H0.463734ZM5.67223 7.46957C5.22959 7.46957 4.87076 7.8284 4.87076 8.27104C4.87076 8.71369 5.22959 9.07252 5.67223 9.07252C6.11488 9.07252 6.47371 8.71369 6.47371 8.27104C6.47371 7.8284 6.11488 7.46957 5.67223 7.46957Z" fill="#50B78D"/>
</svg>
