<svg width="208" height="130" viewBox="0 0 208 130" fill="none" xmlns="http://www.w3.org/2000/svg">
<path d="M203.944 22.7812C198.702 0.429173 175.966 -0.617776 155.515 0.172252C143.198 0.647553 98.2358 4.33435 87.8877 4.64908C72.6335 5.11153 57.1727 5.22072 42.0412 7.32746C23.0041 9.96731 7.69174 18.6705 2.6113 37.0402C-1.77195 52.8793 -1.07476 77.4216 8.07261 91.7513C18.6918 108.393 39.9044 106.556 58.5865 106.274C59.2256 114.238 57.5923 119.132 56.3335 121.445C53.5577 126.557 51.2854 131.497 59.7291 129.576C71.8137 126.821 81.2128 117.681 84.2791 105.869C106.002 105.471 127.595 104.854 149.395 103.473C168.91 102.24 193.408 101.752 202.73 82.6434C210.987 65.7189 208.062 40.3159 203.95 22.7812" fill="#F98F00"/>
</svg>
