<svg width="27" height="20" viewBox="0 0 27 20" fill="none" xmlns="http://www.w3.org/2000/svg">
<path fill-rule="evenodd" clip-rule="evenodd" d="M0.927469 0C1.01713 0 1.10382 0.0127226 1.18583 0.0364609C1.26784 0.0127226 1.35453 0 1.44419 0H15.4345C15.9468 0 16.362 0.415242 16.362 0.927469V1.69724H20.8966C21.3162 1.69724 21.6836 1.97904 21.7923 2.38437L23.3052 8.0233H24.6922C25.1638 8.0233 25.5604 8.37727 25.6137 8.84588L26.4778 16.4372C26.5077 16.6997 26.4241 16.9625 26.2482 17.1597C26.0722 17.3568 25.8205 17.4695 25.5562 17.4695H23.7799C23.3424 18.8777 22.0292 19.9004 20.477 19.9004C18.9249 19.9004 17.6117 18.8777 17.1742 17.4695H10.3737C10.3318 17.4695 10.2905 17.4667 10.2501 17.4614C9.84754 18.9249 8.5072 20 6.91575 20C5.32727 20 3.98895 18.9289 3.58364 17.4695H0.927469C0.415242 17.4695 0 17.0543 0 16.5421V0.927469C0 0.415242 0.415242 0 0.927469 0ZM5.31281 16.549C5.31283 16.5467 5.31284 16.5444 5.31284 16.5421C5.31284 16.5397 5.31283 16.5374 5.31281 16.5351C5.31656 15.653 6.03279 14.9391 6.91575 14.9391C7.80104 14.9391 8.51871 15.6568 8.51871 16.5421C8.51871 17.4274 7.80104 18.1451 6.91575 18.1451C6.03277 18.1451 5.31653 17.4311 5.31281 16.549ZM3.58366 15.6146H1.85494V1.85494H14.5071V15.6146H10.3737C10.3318 15.6146 10.2905 15.6174 10.2501 15.6227C9.84748 14.1593 8.50717 13.0842 6.91575 13.0842C5.3273 13.0842 3.989 14.1553 3.58366 15.6146ZM18.8868 16.6451C18.8905 16.6113 18.8924 16.5769 18.8924 16.5421C18.8924 16.4821 18.8867 16.4234 18.8759 16.3666C18.9155 15.5165 19.6172 14.8395 20.477 14.8395C21.3623 14.8395 22.08 15.5572 22.08 16.4425C22.08 17.3278 21.3623 18.0454 20.477 18.0454C19.6604 18.0454 18.9864 17.4347 18.8868 16.6451ZM17.1189 15.6146H16.362V9.87824H23.8643L24.5172 15.6146H23.8352C23.4642 14.1046 22.1014 12.9846 20.477 12.9846C18.8527 12.9846 17.4899 14.1046 17.1189 15.6146ZM16.362 8.0233V3.55218H20.1851L21.3847 8.0233H16.362Z" fill="#003E52" fill-opacity="0.75"/>
</svg>
