<svg width="31" height="20" viewBox="0 0 31 20" fill="none" xmlns="http://www.w3.org/2000/svg">
<path fill-rule="evenodd" clip-rule="evenodd" d="M4.01751 0C3.50528 0 3.09004 0.415242 3.09004 0.92747C3.09004 1.4397 3.50528 1.85494 4.01751 1.85494H18.9353V15.6146H14.8019C14.7601 15.6146 14.7189 15.6174 14.6784 15.6227C14.2758 14.1593 12.9355 13.0842 11.3441 13.0842C9.75565 13.0842 8.41736 14.1553 8.01201 15.6146H6.2832V11.5446H7.81967C8.3319 11.5446 8.74714 11.1294 8.74714 10.6172C8.74714 10.1049 8.3319 9.68969 7.81967 9.68969H2.69212C2.17989 9.68969 1.76465 10.1049 1.76465 10.6172C1.76465 11.1294 2.17989 11.5446 2.69212 11.5446H4.42826V16.5421C4.42826 17.0543 4.8435 17.4695 5.35573 17.4695H8.01199C8.4173 18.9289 9.75562 20 11.3441 20C12.9355 20 14.2759 18.9249 14.6785 17.4614C14.7189 17.4668 14.7601 17.4695 14.8019 17.4695H21.5916C21.9969 18.9289 23.3353 20 24.9237 20C26.5122 20 27.8506 18.9289 28.2559 17.4695H29.9845C30.2488 17.4695 30.5005 17.3568 30.6764 17.1597C30.8524 16.9625 30.9359 16.6997 30.906 16.4372L30.042 8.84589C29.9886 8.37727 29.5921 8.02331 29.1205 8.02331H27.7335L26.2206 2.38437C26.1119 1.97904 25.7445 1.69724 25.3248 1.69724H20.7903V0.92747C20.7903 0.415242 20.375 0 19.8628 0H4.01751ZM26.5267 16.5319C26.5266 16.5353 26.5266 16.5387 26.5266 16.5421C26.5266 16.5455 26.5266 16.5488 26.5267 16.5522C26.5212 17.4329 25.8057 18.1451 24.9237 18.1451C24.0385 18.1451 23.3208 17.4274 23.3208 16.5421C23.3208 15.6568 24.0385 14.9391 24.9237 14.9391C25.8056 14.9391 26.5212 15.6513 26.5267 16.5319ZM28.2558 15.6146H28.9455L28.2926 9.87825H20.7903V15.6146H21.5917C21.997 14.1553 23.3353 13.0842 24.9237 13.0842C26.5122 13.0842 27.8505 14.1553 28.2558 15.6146ZM25.813 8.02331H20.7903V3.55218H24.6134L25.813 8.02331ZM0.92747 4.86027C0.415242 4.86027 0 5.27551 0 5.78774C0 6.29997 0.415242 6.71521 0.92747 6.71521H11.2985C11.8107 6.71521 12.226 6.29997 12.226 5.78774C12.226 5.27551 11.8107 4.86027 11.2985 4.86027H0.92747ZM11.3441 14.9391C10.4588 14.9391 9.74115 15.6568 9.74115 16.5421C9.74115 17.4274 10.4588 18.1451 11.3441 18.1451C12.2294 18.1451 12.9471 17.4274 12.9471 16.5421C12.9471 15.6568 12.2294 14.9391 11.3441 14.9391Z" fill="#50B78D"/>
</svg>
