<svg width="26" height="28" viewBox="0 0 26 28" fill="none" xmlns="http://www.w3.org/2000/svg">
<path d="M19.5 10.5L7 4" stroke="#1377B0" stroke-width="2" stroke-linecap="round" stroke-linejoin="round"/>
<path d="M25 19.2011V8.79893C24.9995 8.3429 24.8761 7.895 24.6421 7.50018C24.408 7.10536 24.0717 6.77749 23.6667 6.54947L14.3333 1.34841C13.9279 1.12016 13.4681 1 13 1C12.5319 1 12.0721 1.12016 11.6667 1.34841L2.33333 6.54947C1.92835 6.77749 1.59197 7.10536 1.35795 7.50018C1.12392 7.895 1.00048 8.3429 1 8.79893V19.2011C1.00048 19.6571 1.12392 20.105 1.35795 20.4998C1.59197 20.8946 1.92835 21.2225 2.33333 21.4505L11.6667 26.6516C12.0721 26.8798 12.5319 27 13 27C13.4681 27 13.9279 26.8798 14.3333 26.6516L23.6667 21.4505C24.0717 21.2225 24.408 20.8946 24.6421 20.4998C24.8761 20.105 24.9995 19.6571 25 19.2011Z" stroke="#1377B0" stroke-width="2" stroke-linecap="round" stroke-linejoin="round"/>
<path d="M1.5 7.5L13 14L24.5 8" stroke="#1377B0" stroke-width="2" stroke-linecap="round" stroke-linejoin="round"/>
<path d="M13 27V14" stroke="#1377B0" stroke-width="2" stroke-linecap="round" stroke-linejoin="round"/>
</svg>
