<svg width="17" height="18" viewBox="0 0 17 18" fill="none" xmlns="http://www.w3.org/2000/svg">
<path d="M12.6 18H3.6C3.12261 18 2.66477 17.8104 2.32721 17.4728C1.98964 17.1352 1.8 16.6774 1.8 16.2V4.5H0.9C0.402944 4.5 0 4.09706 0 3.6C0 3.10294 0.402944 2.7 0.9 2.7H3.6V1.8C3.6 1.32261 3.78964 0.864773 4.12721 0.527208C4.46477 0.189642 4.92261 0 5.4 0H10.8C11.2774 0 11.7352 0.189642 12.0728 0.527208C12.4104 0.864773 12.6 1.32261 12.6 1.8V2.7H15.3C15.7971 2.7 16.2 3.10294 16.2 3.6C16.2 4.09706 15.7971 4.5 15.3 4.5H14.4V16.2C14.4 16.6774 14.2104 17.1352 13.8728 17.4728C13.5352 17.8104 13.0774 18 12.6 18ZM3.6 4.5V15.2C3.6 15.7523 4.04772 16.2 4.6 16.2H11.6C12.1523 16.2 12.6 15.7523 12.6 15.2V4.5H3.6ZM5.4 1.8V2.7H10.8V1.8H5.4ZM10.8 13.5C10.8 13.9971 10.3971 14.4 9.9 14.4C9.40294 14.4 9 13.9971 9 13.5V7.2C9 6.70294 9.40294 6.3 9.9 6.3C10.3971 6.3 10.8 6.70294 10.8 7.2V13.5ZM7.2 13.5C7.2 13.9971 6.79706 14.4 6.3 14.4C5.80294 14.4 5.4 13.9971 5.4 13.5V7.2C5.4 6.70294 5.80294 6.3 6.3 6.3C6.79706 6.3 7.2 6.70294 7.2 7.2V13.5Z" fill="#D96161"/>
</svg>
