<svg width="29" height="22" viewBox="0 0 29 22" fill="none" xmlns="http://www.w3.org/2000/svg">
<path fill-rule="evenodd" clip-rule="evenodd" d="M1 0C1.09667 0 1.19014 0.0137175 1.27856 0.0393122C1.36699 0.0137175 1.46045 0 1.55713 0H16.6416C17.1939 0 17.6416 0.447715 17.6416 1V1.82997H22.5307C22.9832 1.82997 23.3793 2.13381 23.4966 2.57084L25.1278 8.65075H26.6232C27.1317 8.65075 27.5593 9.03239 27.6168 9.53766L28.5484 17.7226C28.5806 18.0057 28.4906 18.2891 28.3008 18.5016C28.1111 18.7142 27.8397 18.8357 27.5548 18.8357H25.6394C25.1678 20.354 23.7518 21.4566 22.0783 21.4566C20.4048 21.4566 18.9888 20.354 18.5172 18.8357H11.1849C11.1398 18.8357 11.0953 18.8327 11.0517 18.8269C10.6176 20.4049 9.17249 21.564 7.45658 21.564C5.74387 21.564 4.3009 20.4092 3.86389 18.8357H1C0.447715 18.8357 0 18.388 0 17.8357V1C0 0.447715 0.447715 0 1 0ZM5.72829 17.8432C5.72831 17.8407 5.72831 17.8382 5.72831 17.8357C5.72831 17.8332 5.72831 17.8307 5.72829 17.8283C5.73232 16.8772 6.50456 16.1074 7.45658 16.1074C8.4111 16.1074 9.1849 16.8812 9.1849 17.8357C9.1849 18.7903 8.4111 19.564 7.45658 19.564C6.50454 19.564 5.73229 18.7943 5.72829 17.8432ZM3.86391 16.8357H2V2H15.6416V16.8357H11.1849C11.1398 16.8357 11.0953 16.8387 11.0517 16.8445C10.6176 15.2665 9.17245 14.1074 7.45658 14.1074C5.74391 14.1074 4.30096 15.2622 3.86391 16.8357ZM20.3637 17.9473C20.3678 17.9107 20.3699 17.8734 20.3699 17.8357C20.3699 17.7708 20.3637 17.7074 20.3519 17.646C20.3949 16.7297 21.1514 16 22.0783 16C23.0328 16 23.8066 16.7738 23.8066 17.7283C23.8066 18.6828 23.0328 19.4566 22.0783 19.4566C21.198 19.4566 20.4713 18.7984 20.3637 17.9473ZM18.4575 16.8357H17.6416V10.6507H25.7306L26.4345 16.8357H25.6991C25.2991 15.2077 23.8297 14 22.0783 14C20.3269 14 18.8575 15.2077 18.4575 16.8357ZM17.6416 8.65075V3.82997H21.7637L23.057 8.65075H17.6416Z" fill="#1377B0"/>
</svg>
