<svg width="24" height="26" viewBox="0 0 24 26" fill="none" xmlns="http://www.w3.org/2000/svg">
<path d="M4.6 1L1 5.8V22.6C1 23.2365 1.25286 23.847 1.70294 24.2971C2.15303 24.7471 2.76348 25 3.4 25H20.2C20.8365 25 21.447 24.7471 21.8971 24.2971C22.3471 23.847 22.6 23.2365 22.6 22.6V5.8L19 1H4.6Z" stroke="#1377B0" stroke-width="2" stroke-linecap="round" stroke-linejoin="round"/>
<path d="M1 5.79999H22.6" stroke="#1377B0" stroke-width="2" stroke-linecap="round" stroke-linejoin="round"/>
<path d="M16.6 10.5994C16.6 11.8725 16.0943 13.0934 15.1941 13.9935C14.2939 14.8937 13.073 15.3994 11.8 15.3994C10.527 15.3994 9.30606 14.8937 8.40589 13.9935C7.50571 13.0934 7 11.8725 7 10.5994" stroke="#1377B0" stroke-width="2" stroke-linecap="round" stroke-linejoin="round"/>
</svg>
