<svg width="34" height="22" viewBox="0 0 34 22" fill="none" xmlns="http://www.w3.org/2000/svg">
<path fill-rule="evenodd" clip-rule="evenodd" d="M4.33169 0C3.7794 0 3.33168 0.447715 3.33168 1C3.33168 1.55228 3.7794 2 4.33169 2H20.4161V16.8357H15.9595C15.9143 16.8357 15.8699 16.8387 15.8263 16.8445C15.3922 15.2665 13.947 14.1074 12.2312 14.1074C10.5185 14.1074 9.07555 15.2622 8.63851 16.8357H6.77456V12.4474H8.43119C8.98347 12.4474 9.43119 11.9997 9.43119 11.4474C9.43119 10.8952 8.98347 10.4474 8.43119 10.4474H2.90265C2.35037 10.4474 1.90265 10.8952 1.90265 11.4474C1.90265 11.9997 2.35037 12.4474 2.90265 12.4474H4.77456V17.8357C4.77456 18.388 5.22227 18.8357 5.77456 18.8357H8.63848C9.07549 20.4092 10.5185 21.564 12.2312 21.564C13.9471 21.564 15.3922 20.4049 15.8263 18.8269C15.8699 18.8327 15.9143 18.8357 15.9595 18.8357H23.28C23.717 20.4092 25.16 21.564 26.8727 21.564C28.5854 21.564 30.0284 20.4092 30.4654 18.8357H32.3294C32.6143 18.8357 32.8857 18.7142 33.0754 18.5016C33.2651 18.2891 33.3552 18.0057 33.323 17.7226L32.3913 9.53766C32.3338 9.03239 31.9063 8.65075 31.3978 8.65075H29.9023L28.2711 2.57084C28.1539 2.13381 27.7578 1.82997 27.3053 1.82997H22.4161V1C22.4161 0.447715 21.9684 0 21.4161 0H4.33169ZM30.4654 16.8357H31.2091L30.5051 10.6507H22.4161V16.8357H23.2801C23.7171 15.2622 25.16 14.1074 26.8727 14.1074C28.5854 14.1074 30.0284 15.2622 30.4654 16.8357ZM25.1444 17.8416C25.1444 17.8396 25.1444 17.8377 25.1444 17.8357C25.1444 17.8337 25.1444 17.8318 25.1444 17.8298C25.1476 16.878 25.9202 16.1074 26.8727 16.1074C27.8272 16.1074 28.601 16.8812 28.601 17.8357C28.601 18.7903 27.8272 19.564 26.8727 19.564C25.9202 19.564 25.1476 18.7934 25.1444 17.8416ZM10.5029 17.8379C10.5041 18.7914 11.2774 19.564 12.2312 19.564C13.1857 19.564 13.9595 18.7903 13.9595 17.8357C13.9595 16.8812 13.1857 16.1074 12.2312 16.1074C11.2774 16.1074 10.5041 16.88 10.5029 17.8335C10.5029 17.8342 10.5029 17.835 10.5029 17.8357C10.5029 17.8364 10.5029 17.8372 10.5029 17.8379ZM27.8316 8.65075H22.4161V3.82997H26.5382L27.8316 8.65075ZM1 5.24036C0.447715 5.24036 0 5.68807 0 6.24036C0 6.79264 0.447715 7.24036 1 7.24036H12.1821C12.7343 7.24036 13.1821 6.79264 13.1821 6.24036C13.1821 5.68807 12.7343 5.24036 12.1821 5.24036H1Z" fill="#6FA088"/>
</svg>
