<svg width="16" height="17" viewBox="0 0 16 17" fill="none" xmlns="http://www.w3.org/2000/svg">
<path fill-rule="evenodd" clip-rule="evenodd" d="M9 1.31705C9 0.751299 8.55229 0.292664 8 0.292664C7.44772 0.292664 7 0.751299 7 1.31705V7.4634H1C0.447715 7.4634 0 7.92203 0 8.48779C0 9.05354 0.447715 9.51218 1 9.51218H7V15.6585C7 16.2243 7.44772 16.6829 8 16.6829C8.55229 16.6829 9 16.2243 9 15.6585V9.51218H15C15.5523 9.51218 16 9.05354 16 8.48779C16 7.92203 15.5523 7.4634 15 7.4634H9V1.31705Z" fill="#003E52"/>
</svg>
