<svg width="27" height="20" viewBox="0 0 27 20" fill="none" xmlns="http://www.w3.org/2000/svg">
<path fill-rule="evenodd" clip-rule="evenodd" d="M0.927469 0C1.01713 0 1.10382 0.0127226 1.18583 0.0364609C1.26784 0.0127226 1.35453 0 1.44419 0H15.4345C15.9468 0 16.362 0.415242 16.362 0.927469V1.69724H20.8966C21.3162 1.69724 21.6836 1.97904 21.7924 2.38437L23.3052 8.0233H24.6922C25.1638 8.0233 25.5604 8.37727 25.6137 8.84588L26.4778 16.4372C26.5077 16.6997 26.4241 16.9625 26.2482 17.1597C26.0722 17.3568 25.8205 17.4695 25.5562 17.4695H23.7798C23.3423 18.8777 22.0291 19.9004 20.4769 19.9004C18.9248 19.9004 17.6116 18.8777 17.1741 17.4695H10.3737C10.3318 17.4695 10.2905 17.4667 10.2501 17.4614C9.84753 18.9249 8.50719 20 6.91574 20C5.32725 20 3.98893 18.9289 3.58362 17.4695H0.927469C0.415242 17.4695 0 17.0543 0 16.5421V0.927469C0 0.415242 0.415242 0 0.927469 0ZM5.3128 16.55C5.31282 16.5473 5.31284 16.5447 5.31284 16.5421C5.31284 16.5394 5.31282 16.5368 5.3128 16.5342C5.31708 15.6525 6.0331 14.9391 6.91574 14.9391C7.80103 14.9391 8.5187 15.6568 8.5187 16.5421C8.5187 17.4274 7.80103 18.1451 6.91574 18.1451C6.03308 18.1451 5.31704 17.4316 5.3128 16.55ZM3.58365 15.6146H1.85494V1.85494H14.5071V15.6146H10.3737C10.3318 15.6146 10.2905 15.6174 10.2501 15.6227C9.84747 14.1593 8.50715 13.0842 6.91574 13.0842C5.32729 13.0842 3.989 14.1553 3.58365 15.6146ZM18.8867 16.6455C18.8905 16.6116 18.8924 16.577 18.8924 16.5421C18.8924 16.4819 18.8867 16.4231 18.8758 16.3661C18.9156 15.5163 19.6173 14.8395 20.4769 14.8395C21.3622 14.8395 22.0799 15.5572 22.0799 16.4425C22.0799 17.3278 21.3622 18.0454 20.4769 18.0454C19.6604 18.0454 18.9865 17.435 18.8867 16.6455ZM17.1188 15.6146H16.362V9.87824H23.8643L24.5172 15.6146H23.8351C23.4641 14.1046 22.1013 12.9846 20.4769 12.9846C18.8525 12.9846 17.4898 14.1046 17.1188 15.6146ZM16.362 8.0233V3.55218H20.1851L21.3847 8.0233H16.362Z" fill="#1377B0"/>
</svg>
