<svg width="77" height="73" viewBox="0 0 77 73" fill="none" xmlns="http://www.w3.org/2000/svg">
<path d="M37.8397 0L43.0521 5.47442L49.5724 1.77927L52.8023 8.49709L60.2356 6.94292L61.167 14.2465L68.7856 14.9855L67.3273 22.16L74.3855 25.1197L70.6802 31.4628L76.4871 36.3536L70.8975 41.2444L74.8847 47.5875L67.958 50.5472L69.7351 57.7217L62.1493 58.4607L61.5424 65.7643L54.0401 64.2101L51.1086 70.9279L44.4241 67.2328L39.4551 72.7072L34.2427 67.2328L27.7224 70.9279L24.4924 64.2101L17.0592 65.7643L16.1278 58.4607L8.50915 57.7217L9.96745 50.5472L2.90927 47.5875L6.61454 41.2444L0.807672 36.3536L6.39722 31.4628L2.4101 25.1197L9.33677 22.16L7.55968 14.9855L15.1455 14.2465L15.7523 6.94292L23.2547 8.49709L26.1861 1.77927L32.8706 5.47442L37.8397 0Z" fill="#50B78D"/>
</svg>
