<svg width="62" height="60" viewBox="0 0 62 60" fill="none" xmlns="http://www.w3.org/2000/svg">
<path d="M28.6655 1.37312C29.7191 0.561137 31.2002 0.561137 32.2899 1.37312L33.6375 2.37735C34.4562 2.98742 35.518 3.15141 36.4626 2.81367L38.0554 2.24415C39.3203 1.79189 40.7504 2.24858 41.5471 3.35917L42.4621 4.63468C43.0646 5.4746 44.0471 5.95916 45.0686 5.9202L46.7257 5.85699C48.0979 5.80464 49.351 6.69194 49.7669 8.01048L50.1953 9.36862C50.5113 10.3705 51.3223 11.1476 52.3364 11.4202L53.8381 11.8239C55.199 12.1898 56.1461 13.4432 56.1193 14.8431L56.0945 16.1418C56.0742 17.2068 56.6212 18.2151 57.5314 18.7905L58.7313 19.549C59.9467 20.3174 60.4734 21.8219 59.992 23.1504L59.5685 24.319C59.2033 25.3267 59.4127 26.4649 60.1166 27.2992L60.9591 28.2977C61.8927 29.4042 61.9281 30.9987 61.0437 32.1052L60.2455 33.1037C59.5787 33.938 59.4199 35.0762 59.8299 36.0839L60.3053 37.2526C60.8458 38.581 60.3859 40.0855 59.2046 40.8539L58.0384 41.6124C57.1538 42.1878 56.6516 43.1961 56.7192 44.2611L56.8018 45.5598C56.8907 46.9597 55.9993 48.2131 54.6547 48.579L53.171 48.9827C52.169 49.2553 51.3925 50.0324 51.121 51.0343L50.7529 52.3924C50.3956 53.711 49.182 54.5983 47.8075 54.5459L46.1475 54.4827C45.1243 54.4437 44.1633 54.9283 43.5981 55.7682L42.7398 57.0437C41.9925 58.1543 40.5827 58.611 39.2977 58.1588L37.6796 57.5892C36.72 57.2515 35.6654 57.4155 34.8738 58.0256L33.5708 59.0298C32.5172 59.8418 31.0361 59.8418 29.9465 59.0298L28.5988 58.0256C27.7801 57.4155 26.7183 57.2515 25.7737 57.5892L24.1809 58.1588C22.916 58.611 21.4859 58.1543 20.6892 57.0437L19.7742 55.7682C19.1717 54.9283 18.1892 54.4437 17.1677 54.4827L15.5106 54.5459C14.1384 54.5983 12.8854 53.711 12.4694 52.3924L12.041 51.0343C11.725 50.0324 10.914 49.2553 9.89987 48.9827L8.39825 48.579C7.03733 48.2131 6.09025 46.9597 6.11699 45.5598L6.1418 44.2611C6.16214 43.1961 5.61516 42.1878 4.70496 41.6124L3.505 40.8539C2.28958 40.0855 1.7629 38.581 2.24431 37.2526L2.6678 36.0839C3.03298 35.0762 2.82366 33.938 2.11973 33.1037L1.27722 32.1052C0.343656 30.9987 0.308232 29.4042 1.19263 28.2977L1.99077 27.2992C2.65763 26.4649 2.81637 25.3267 2.40642 24.319L1.931 23.1504C1.39056 21.8219 1.85039 20.3174 3.03167 19.549L4.19792 18.7905C5.08255 18.2151 5.58474 17.2068 5.51707 16.1418L5.43455 14.8431C5.34561 13.4432 6.23699 12.1898 7.58166 11.8239L9.06534 11.4202C10.0674 11.1476 10.8438 10.3705 11.1153 9.36862L11.4834 8.01048C11.8407 6.69194 13.0543 5.80464 14.4289 5.85699L16.0888 5.9202C17.112 5.95916 18.073 5.4746 18.6382 4.63469L19.4965 3.35917C20.2439 2.24858 21.6537 1.79189 22.9386 2.24414L24.5568 2.81367C25.5164 3.15141 26.5709 2.98742 27.3625 2.37735L28.6655 1.37312Z" fill="#50B78D"/>
</svg>
