<svg id="Layer_1" data-name="Layer 1" xmlns="http://www.w3.org/2000/svg" viewBox="0 0 18 26.01"><title>Untitled-1</title><path d="M12.54,10.83a6,6,0,1,0-7.08,0A10.48,10.48,0,0,0,0,20.33a5.66,5.66,0,0,0,1.39,4.22C2.91,26.05,5.24,26,8,26H11c2.28,0,4.23-.15,5.56-1.46A5.66,5.66,0,0,0,18,20.33,10.48,10.48,0,0,0,12.54,10.83ZM5,6a4,4,0,1,1,4,4A4,4,0,0,1,5,6ZM15.2,23.13C14.27,24,12.32,24,10.07,24H7.93c-2.26,0-4.21,0-5.13-.88a3.84,3.84,0,0,1-.8-2.8C2,15.74,5.14,12,9,12s7,3.74,7,8.33A3.84,3.84,0,0,1,15.2,23.13Z"/></svg>