<svg id="Layer_1" data-name="Layer 1" xmlns="http://www.w3.org/2000/svg" viewBox="0 0 21 23"><title>Untitled-1</title><path d="M15.71,11.71a1,1,0,0,0,.17-0.25l0-.07A1,1,0,0,0,16,11h0a1,1,0,0,0-.08-0.39l0-.06a1,1,0,0,0-.17-0.26h0L11.47,6.05a1,1,0,0,0-1.41,1.41L12.59,10H1a1,1,0,0,0,0,2H12.59l-2.53,2.53a1,1,0,0,0,1.41,1.41l4.24-4.24h0Z"/><path d="M18,0H14a1,1,0,0,0,0,2h4a1,1,0,0,1,1,1V20a1.31,1.31,0,0,1-.3.77A0.89,0.89,0,0,1,18,21H14a1,1,0,0,0,0,2h4a2.89,2.89,0,0,0,2.12-.81A3.29,3.29,0,0,0,21,20V3A3,3,0,0,0,18,0Z"/></svg>