<svg id="Layer_1" data-name="Layer 1" xmlns="http://www.w3.org/2000/svg" viewBox="0 0 24.31 23.22"><title>Untitled-1</title><path d="M18.25,23.22a2.36,2.36,0,0,1-1.4-.47l-4.48-3.28a0.37,0.37,0,0,0-.43,0L7.46,22.72a2.37,2.37,0,0,1-3.63-2.66L5.51,15a0.37,0.37,0,0,0-.14-0.41L1,11.49a2.37,2.37,0,0,1,1.36-4.3H7.84a0.37,0.37,0,0,0,.35-0.25l1.72-5.3A2.33,2.33,0,0,1,12.16,0h0a2.33,2.33,0,0,1,2.25,1.63l1.72,5.3a0.37,0.37,0,0,0,.35.25h5.46a2.37,2.37,0,0,1,1.36,4.3l-4.36,3.07a0.36,0.36,0,0,0-.14.41l1.69,5.14a2.33,2.33,0,0,1-.86,2.65A2.36,2.36,0,0,1,18.25,23.22ZM12.16,17.4a2.37,2.37,0,0,1,1.4.46L18,21.14a0.35,0.35,0,0,0,.43,0,0.34,0.34,0,0,0,.13-0.41l-1.69-5.14a2.35,2.35,0,0,1,.89-2.67l4.36-3.07a0.37,0.37,0,0,0-.21-0.67H16.48a2.36,2.36,0,0,1-2.25-1.63l-1.72-5.3A0.34,0.34,0,0,0,12.16,2h0a0.35,0.35,0,0,0-.35.25l-1.72,5.3A2.36,2.36,0,0,1,7.84,9.19H2.37A0.35,0.35,0,0,0,2,9.44a0.34,0.34,0,0,0,.14.41l4.36,3.08a2.35,2.35,0,0,1,.88,2.68L5.73,20.68a0.37,0.37,0,0,0,.56.41l4.48-3.24A2.36,2.36,0,0,1,12.16,17.4Z"/></svg>