<svg id="Layer_1" data-name="Layer 1" xmlns="http://www.w3.org/2000/svg" viewBox="0 0 22 22"><title>Untitled-1</title><path d="M7,0H3A3,3,0,0,0,0,3V7a3,3,0,0,0,3,3H7a3,3,0,0,0,3-3V3A3,3,0,0,0,7,0ZM8,7A1,1,0,0,1,7,8H3A1,1,0,0,1,2,7V3A1,1,0,0,1,3,2H7A1,1,0,0,1,8,3V7Z"/><path d="M19,0H15a3,3,0,0,0-3,3V7a3,3,0,0,0,3,3h4a3,3,0,0,0,3-3V3A3,3,0,0,0,19,0Zm1,7a1,1,0,0,1-1,1H15a1,1,0,0,1-1-1V3a1,1,0,0,1,1-1h4a1,1,0,0,1,1,1V7Z"/><path d="M7,12H3a3,3,0,0,0-3,3v4a3,3,0,0,0,3,3H7a3,3,0,0,0,3-3V15A3,3,0,0,0,7,12Zm1,7a1,1,0,0,1-1,1H3a1,1,0,0,1-1-1V15a1,1,0,0,1,1-1H7a1,1,0,0,1,1,1v4Z"/><path d="M19,12H15a3,3,0,0,0-3,3v4a3,3,0,0,0,3,3h4a3,3,0,0,0,3-3V15A3,3,0,0,0,19,12Zm1,7a1,1,0,0,1-1,1H15a1,1,0,0,1-1-1V15a1,1,0,0,1,1-1h4a1,1,0,0,1,1,1v4Z"/></svg>