<?xml version="1.0" encoding="utf-8"?>
<svg width="470px" height="470px" viewBox="0 0 470 470" version="1.1" xmlns:xlink="http://www.w3.org/1999/xlink" xmlns="http://www.w3.org/2000/svg">
  <desc>Created with Lunacy</desc>
  <defs>
    <path d="M195.833 391.667C303.989 391.667 391.667 303.989 391.667 195.833C391.667 87.6776 303.989 0 195.833 0C87.6776 0 0 87.6776 0 195.833C0 303.989 87.6776 391.667 195.833 391.667Z" transform="translate(33.29167 0)" id="path_1" />
    <clipPath id="clip_1">
      <use xlink:href="#path_1" />
    </clipPath>
  </defs>
  <g id="Symbols/240x240/Jackpot">
    <path d="M0 0L470 0L470 470L0 470L0 0Z" id="Rectangle" fill="none" stroke="none" />
    <g id="symbol_jackpot" transform="translate(11.75 39.16667)">
      <g id="Oval">
        <g clip-path="url(#clip_1)">
          <use xlink:href="#path_1" fill="none" stroke="#003E52" stroke-width="36" />
        </g>
      </g>
      <path d="M178.012 356.024C276.325 356.024 356.024 276.325 356.024 178.012C356.024 79.6987 276.325 0 178.012 0C79.6987 0 0 79.6987 0 178.012C0 276.325 79.6987 356.024 178.012 356.024Z" transform="translate(51.02465 17.48301)" id="Oval" fill="#FFFFFF" stroke="none" />
      <path d="M165.916 331.833C257.549 331.833 331.833 257.549 331.833 165.916C331.833 74.2832 257.549 0 165.916 0C74.2832 0 0 74.2832 0 165.916C0 257.549 74.2832 331.833 165.916 331.833Z" transform="translate(62.66667 29.375)" id="Oval" fill="#004673" stroke="none" />
      <path d="M10.8206 0L14.0714 6.75428L21.4804 7.91445L16.0586 13.095L17.2418 20.5041L10.6368 16.9431L3.96297 20.3662L5.30693 12.9802L0 7.68472L7.432 6.68536L10.8206 0Z" transform="translate(143.4709 126.0454)" id="Path" fill="#60AFE2" stroke="#50C2E6" stroke-width="2" />
      <path d="M10.8321 0L14.0714 6.75427L21.4919 7.91444L16.0586 13.095L17.2533 20.504L10.6483 16.9431L3.96297 20.3547L5.31842 12.9801L0 7.6847L7.432 6.68535L10.8321 0Z" transform="translate(269.7001 268.069)" id="Path" fill="#60AFE2" stroke="#50C2E6" stroke-width="2" />
      <path d="M10.8321 0L14.0829 6.76576L21.4919 7.92593L16.0701 13.1065L17.2533 20.5155L10.6483 16.9431L3.97445 20.3662L5.31842 12.9916L0 7.6962L7.44348 6.69684L10.8321 0Z" transform="translate(359.6882 152.58)" id="Path" fill="#60AFE2" stroke="none" />
      <path d="M6.01912 0L12.0382 4.47987L19.1371 2.06763L16.7364 9.16651L21.2277 15.1741L13.7268 15.0937L9.40774 21.2162L7.1678 14.0599L0 11.8429L6.1225 7.50092L6.01912 0Z" transform="translate(222.6614 288.8027)" id="Path" fill="#60AFE2" stroke="#50C2E6" stroke-width="2" />
      <path d="M10.8321 0L14.0829 6.75428L21.4919 7.91445L16.0586 13.095L17.2533 20.5041L10.6483 16.9431L3.97446 20.3662L5.31842 12.9802L0 7.68471L7.44349 6.68535L10.8321 0Z" transform="translate(188.3042 91.65369)" id="Path" fill="#60AFE2" stroke="#50C2E6" stroke-width="2" />
      <path d="M10.8206 0L14.0714 6.76576L21.4919 7.92594L16.0586 13.1065L17.2418 20.5041L10.6483 16.9431L3.96297 20.3662L5.31842 12.9802L0 7.6962L7.432 6.69684L10.8206 0Z" transform="translate(278.6713 104.6683)" id="Path" fill="#60AFE2" stroke="#50C2E6" stroke-width="2" />
      <path d="M7.15632 0L9.30436 4.46839L14.1978 5.23801L10.6139 8.6611L11.395 13.5545L7.02996 11.1997L2.61901 13.4511L3.51498 8.58069L0 5.08868L4.91638 4.42244L7.15632 0Z" transform="translate(182.4459 129.6063)" id="Path" fill="#60AFE2" stroke="#50C2E6" stroke-width="2" />
      <path d="M7.15632 0L9.30436 4.46839L14.1978 5.23801L10.6139 8.64961L11.395 13.543L7.02996 11.1882L2.61901 13.4511L3.51498 8.58069L0 5.07719L4.91638 4.42244L7.15632 0Z" transform="translate(240.4545 111.7098)" id="Path" fill="#60AFE2" stroke="#50C2E6" stroke-width="2" />
      <path d="M5.80085 0L7.54685 3.62985L11.5213 4.25014L8.61513 7.01848L9.24691 10.9929L5.70896 9.08611L2.12507 10.9125L2.84874 6.96104L0 4.12379L3.98593 3.5839L5.80085 0Z" transform="translate(245.6351 168.4778)" id="Path" fill="#60AFE2" stroke="none" />
      <path d="M7.15632 0L9.30436 4.4569L14.1978 5.22652L10.6139 8.64961L11.395 13.543L7.04145 11.1882L2.63049 13.4511L3.51498 8.5692L0 5.07719L4.91638 4.41096L7.15632 0Z" transform="translate(79.68438 198.6538)" id="Path" fill="#60AFE2" stroke="none" />
      <path d="M7.15632 0L9.29288 4.46839L14.1978 5.23801L10.6139 8.6611L11.395 13.5545L7.02996 11.1997L2.61901 13.4511L3.51498 8.58069L0 5.08868L4.91638 4.42244L7.15632 0Z" transform="translate(191.9455 274.6279)" id="Path" fill="#60AFE2" stroke="#50C2E6" stroke-width="2" />
      <path d="M7.15631 0L9.29287 4.46839L14.1978 5.22652L10.6024 8.64961L11.395 13.543L7.02996 11.1882L2.619 13.4511L3.51498 8.58069L0 5.07719L4.91637 4.42244L7.15631 0Z" transform="translate(368.4872 188.6603)" id="Path" fill="#60AFE2" stroke="none" />
      <path d="M7.14483 0L9.29287 4.46839L14.1863 5.22652L10.6024 8.64961L11.395 13.543L7.02996 11.1882L2.61901 13.4511L3.50349 8.5692L0 5.07719L4.90489 4.41096L7.14483 0Z" transform="translate(289.7906 146.2508)" id="Path" fill="#60AFE2" stroke="none" />
      <path d="M5.06571 0L6.58198 3.15889L10.051 3.69877L7.51241 6.13399L8.06378 9.59154L4.97381 7.92594L1.84939 9.52262L2.48116 6.07655L0 3.59539L3.46903 3.12443L5.06571 0Z" transform="translate(74.57273 164.2966)" id="Path" fill="#60AFE2" stroke="none" />
      <path d="M5.06571 0L6.59346 3.17037L10.0625 3.71026L7.51241 6.13398L8.07527 9.59153L4.9853 7.92593L1.86087 9.5341L2.49265 6.07655L0 3.59539L3.48052 3.13591L5.06571 0Z" transform="translate(231.8164 78.54718)" id="Path" fill="#60AFE2" stroke="#50C2E6" stroke-width="2" />
      <path d="M5.06571 0L6.58198 3.15889L10.051 3.69877L7.51241 6.1225L8.06378 9.59154L4.97381 7.92594L1.86087 9.52262L2.48116 6.07655L0 3.59539L3.48052 3.12443L5.06571 0Z" transform="translate(125.9535 177.0241)" id="Path" fill="#60AFE2" stroke="none" />
      <path d="M5.07718 0L6.59344 3.15889L10.0625 3.69877L7.52388 6.1225L8.07525 9.59154L4.98529 7.92594L1.86087 9.52262L2.49264 6.07655L0 3.59539L3.48051 3.12443L5.07718 0Z" transform="translate(356.9773 215.3213)" id="Path" fill="#60AFE2" stroke="#50C2E6" stroke-width="2" />
      <path d="M5.0657 0L6.58197 3.15889L10.051 3.71026L7.5124 6.13399L8.06377 9.59154L4.97381 7.92594L1.84938 9.52262L2.48116 6.07655L0 3.59539L3.48052 3.13592L5.0657 0Z" transform="translate(311.4549 244.7736)" id="Path" fill="#60AFE2" stroke="#50C2E6" stroke-width="2" />
      <path d="M5.06572 0L6.58199 3.17037L10.051 3.71025L7.51242 6.13398L8.07528 9.59152L4.98531 7.92593L1.86088 9.53409L2.48117 6.07655L0 3.59539L3.48053 3.13591L5.06572 0Z" transform="translate(232.7469 263.7155)" id="Path" fill="#60AFE2" stroke="#50C2E6" stroke-width="2" />
      <path d="M57.7819 100.257C76.1954 91.3206 81.6287 82.671 86.4187 69.6678C84.7983 67.4805 82.2134 66.2202 79.4921 66.2907C76.1724 74.9403 70.3026 81.0628 60.6422 86.1055L74.4264 21.894C76.4596 12.2335 82.3179 8.84489 82.3179 8.84489L77.5278 0C70.429 1.25207 65.0646 6.06507 61.8598 11.8085C57.8702 14.6543 53.5574 17.4726 49.1924 20.325C29.314 33.315 8.35254 47.0128 11.9034 67.2441C14.2352 81.2236 25.9748 88.7245 40.4253 86.186L37.9786 72.2179C33.5217 72.999 27.2958 71.4942 26.0552 64.3839C24.156 53.5848 37.36 44.6158 50.4002 35.7581C52.1877 34.5439 53.9722 33.3317 55.7143 32.1173L42.7226 93.595C20.0016 102.061 -3.3282 113.41 0.393542 134.534C2.3578 145.734 12.9372 151.569 23.172 149.766C42.3091 146.412 51.4297 131.904 57.7819 100.257ZM14.6832 130.41C13.0176 120.899 25.2396 114.168 39.5293 107.931C35.3366 125.046 29.9722 134.086 22.1497 135.43C18.1293 136.154 15.3609 134.27 14.6832 130.41Z" transform="translate(0.5713542 156.5315)" id="Shape" fill="#0078C0" fill-rule="evenodd" stroke="#0078C0" stroke-width="29" stroke-linecap="round" stroke-linejoin="round" />
      <path d="M47.5168 67.9103C61.4733 65.4981 70.3412 49.5314 76.7508 31.6693C75.1307 29.4754 72.5389 28.2139 69.8128 28.2921C63.943 44.3393 56.9475 55.3782 51.6406 56.3086C49.2398 56.7221 46.9309 54.8957 49.929 40.8473L58.4982 0L39.5908 11.7626C36.8726 6.07524 30.5976 3.00672 24.4397 4.35352C2.2815 8.2246 -1.72741 47.7624 0.569959 60.6392C2.02879 68.9442 7.66884 74.9058 16.2151 73.4011C26.5647 71.5861 32.7791 60.3175 32.7791 60.3175C32.7791 60.3175 35.4671 70.0239 47.5168 67.9103ZM37.1097 24.2603L32.2622 46.809C32.2622 46.809 28.0006 57.2276 21.0281 58.4567C18.7307 58.8817 17.0077 57.8134 16.4333 54.5626C14.9745 46.2576 19.9942 19.6885 30.2176 17.8965C35.8117 16.9202 37.1097 24.2603 37.1097 24.2603Z" transform="translate(78.72387 182.5033)" id="Shape" fill="#0078C0" fill-rule="evenodd" stroke="#0078C0" stroke-width="29" stroke-linecap="round" stroke-linejoin="round" />
      <path d="M65.9926 30.4532C60.341 46.328 48.7623 64.6151 26.9947 68.4402C11.832 71.1052 2.79184 64.8793 0.57488 52.2323C-2.31981 35.7486 5.49126 4.55032 29.1542 0.426539C44.6844 -2.29585 53.9543 8.11125 47.5332 28.845L30.6819 31.7972C35.0699 16.5081 34.6449 13.3607 30.7853 14.0385C19.9532 15.9338 15.0368 41.6069 16.5186 50.0498C17.7822 57.275 24.9615 57.8723 29.7745 57.0223C41.4566 54.9776 53.0124 43.7665 59.0086 27.0761C61.7507 26.9825 64.363 28.2457 65.9926 30.4532L65.9926 30.4532Z" transform="translate(147.7435 173.4961)" id="Path" fill="#0078C0" stroke="#0078C0" stroke-width="29" stroke-linecap="round" stroke-linejoin="round" />
      <path d="M78.7999 52.0929C73.895 65.8772 61.1101 86.3468 46.4299 88.9198C34.943 90.93 26.4887 81.373 25.4089 68.9097C24.8001 62.569 26.4083 61.1676 29.1766 60.6736C32.9099 60.0189 39.3655 58.6404 41.7203 47.3029C41.8926 46.1542 42.869 41.5595 42.421 39.2621C42.0534 37.206 40.8243 36.5627 38.906 36.8958C35.6552 37.4702 30.8652 41.0426 26.4428 47.8887L16.9776 92.4693L0 95.4559L19.8034 2.9751L36.7695 0L29.8773 32.347C29.8773 32.347 37.1485 22.8818 47.0157 21.1473C53.9998 19.9182 58.7898 23.169 59.8006 28.9469C60.9493 35.4485 57.8479 46.0508 57.3769 47.6245C54.5396 56.9289 48.7043 63.2926 40.8932 65.4062C41.7433 73.068 43.9832 78.7654 49.3361 77.4445C56.0329 76.0201 66.2792 64.4183 71.8274 48.7273C74.5635 48.6349 77.1702 49.8932 78.7999 52.0929L78.7999 52.0929Z" transform="translate(198.9755 140.6107)" id="Path" fill="#0078C0" stroke="#0078C0" stroke-width="29" stroke-linecap="round" stroke-linejoin="round" />
      <path d="M84.2447 30.5478C77.9269 48.2835 65.8657 64.928 45.8441 68.4544C31.2787 71.016 25.8799 64.2732 25.8799 64.2732L30.624 58.1048C30.624 58.1048 32.9214 60.3102 34.9201 59.9541C42.1453 58.6791 50.0483 30.8694 48.0725 19.6697C47.4867 16.3041 45.9819 14.8223 43.4778 15.2702C39.1472 16.0284 34.6329 21.4157 31.6578 27.7679L16.9661 96.4135L0 99.4L19.7574 6.95375L35.4714 9.53829C35.4714 9.53829 40.181 1.76169 48.8536 0.233933C57.8823 -1.35125 63.0169 5.32261 64.5562 14.1101C67.313 29.7552 58.6979 52.1086 54.6315 57.9095C64.1656 52.166 71.4598 42.8043 77.2721 27.1362C80.0149 27.0624 82.6197 28.337 84.2447 30.5478L84.2447 30.5478Z" transform="translate(257.57 150.9447)" id="Path" fill="#0078C0" stroke="#0078C0" stroke-width="29" stroke-linecap="round" stroke-linejoin="round" />
      <path d="M46.8865 52.2854C59.3382 51.8374 68.7804 41.9932 73.4786 29.1279C71.8605 26.9349 69.2766 25.6665 66.552 25.7278C62.7613 35.9511 56.926 41.6026 50.9299 42.7513C53.4493 34.5778 54.1356 25.9493 52.9401 17.4802C50.6312 4.35073 41.7404 -1.77177 29.1048 0.445199C4.66076 4.7298 -2.20838 35.595 0.582927 51.4813C2.86881 64.4845 11.9664 71.1124 24.8547 68.815C35.078 67.0231 42.2343 60.4296 46.8865 52.2854ZM27.9934 39.1037C26.9777 42.7094 28.276 46.569 31.2643 48.8279C29.1163 53.549 26.1642 57.0525 23.1431 57.5809C20.1221 58.1093 17.7558 55.9153 17.0206 51.6996C15.3206 42.0736 20.8458 13.4368 30.713 11.7023C33.2401 11.2543 35.7327 12.6787 36.5483 17.3768C37.1686 20.8688 36.9389 26.6123 35.8591 32.5165C32.1311 32.8835 29.0091 35.498 27.9934 39.1037Z" transform="translate(334.1788 140.7628)" id="Shape" fill="#0078C0" fill-rule="evenodd" stroke="#0078C0" stroke-width="29" stroke-linecap="round" stroke-linejoin="round" />
      <path d="M47.5786 56.8715C41.3183 74.2281 31.8186 90.7922 17.2533 93.3423C5.76641 95.3525 -2.48116 88.3799 2.40076 65.3028L10.3382 28.5449L0 30.3598L1.98723 21.1703L12.222 19.3669L15.7944 2.98658L32.772 0L29.1996 16.3918L39.1932 14.6343L37.1945 23.8238L27.2583 25.5468L18.5513 66.4056C15.4154 81.0973 18.3675 82.3264 21.0095 81.8554C27.3962 80.7067 34.6099 69.5415 40.6061 53.4714C43.3476 53.391 45.9538 54.6619 47.5786 56.8715L47.5786 56.8715Z" transform="translate(396.963 106.5522)" id="Path" fill="#0078C0" stroke="#0078C0" stroke-width="29" stroke-linecap="round" stroke-linejoin="round" />
      <path d="M57.7819 100.257C76.1954 91.3206 81.6287 82.671 86.4187 69.6678C84.7912 67.4703 82.191 66.2088 79.4576 66.2907C76.1379 74.9403 70.2681 81.0628 60.6077 86.1055L74.3919 21.894C76.4251 12.2335 82.2834 8.84489 82.2834 8.84489L77.4934 0C70.3945 1.25207 65.0301 6.06507 61.8253 11.8085C57.8358 14.6543 53.523 17.4726 49.158 20.325C29.2796 33.315 8.31808 47.0128 11.8689 67.2441C14.2008 81.2236 25.9403 88.7245 40.3908 86.186L37.9441 72.2179C33.4872 72.999 27.2613 71.4942 26.0207 64.3839C24.1282 53.6224 37.2338 44.7136 50.2527 35.8637C52.0891 34.6154 53.9237 33.3683 55.7143 32.1173L42.7226 93.595C20.0016 102.061 -3.3282 113.352 0.393542 134.534C2.3578 145.734 12.9372 151.569 23.172 149.766C42.3091 146.412 51.4297 131.904 57.7819 100.257ZM14.6832 130.41C13.0176 120.876 25.2396 114.168 39.5293 107.931C35.3366 125.046 29.9722 134.052 22.1497 135.43C18.1293 136.154 15.3609 134.27 14.6832 130.41Z" transform="translate(0.5713542 153.6598)" id="Shape" fill="#D2E9F7" fill-rule="evenodd" stroke="none" />
      <path d="M47.5168 68.0137C61.4733 65.5556 70.3412 49.6118 76.7508 31.7267C75.1432 29.5112 72.5494 28.2272 69.8128 28.2922C63.943 44.3393 56.9475 55.3782 51.6406 56.3086C49.2398 56.7222 46.9309 54.8957 49.929 40.8473L58.4982 0L39.5908 11.7626C36.8387 6.11552 30.572 3.09383 24.4397 4.4569C2.2815 8.32798 -1.72741 47.8658 0.569959 60.7426C2.02879 69.0476 7.66884 75.0092 16.2151 73.5045C26.5647 71.6895 32.7791 60.4209 32.7791 60.4209C32.7791 60.4209 35.4671 70.1273 47.5168 68.0137ZM37.1097 24.2947L32.2622 46.8664L32.2622 46.809C32.2622 46.809 28.0006 57.2276 21.0281 58.4911C18.7307 58.9161 17.0077 57.8479 16.4333 54.5971C14.9745 46.2921 19.9942 19.723 30.2176 17.931C35.8117 16.9546 37.1097 24.2947 37.1097 24.2947Z" transform="translate(78.72387 179.6316)" id="Shape" fill="#D2E9F7" fill-rule="evenodd" stroke="none" />
      <path d="M65.9925 30.4532C60.3409 46.328 48.7622 64.6151 26.9946 68.4403C11.8319 71.1052 2.79174 64.8793 0.574776 52.2323C-2.31991 35.7486 5.49115 4.59627 29.2 0.42654C44.7303 -2.29585 54.0002 8.11125 47.579 28.845L30.7278 31.7972C35.1158 16.5081 34.6908 13.3607 30.8312 14.0385C19.9991 15.9338 15.0827 41.6069 16.5645 50.0498C17.828 57.275 25.0073 57.8723 29.8203 57.0223C41.5025 54.9777 53.0583 43.7665 59.0544 27.0761C61.7805 26.9978 64.3723 28.2593 65.9925 30.4532L65.9925 30.4532Z" transform="translate(147.7436 170.6244)" id="Path" fill="#D2E9F7" stroke="none" />
      <path d="M78.754 52.07C73.8491 65.8542 61.0642 86.3238 46.384 88.8969C34.8971 90.907 26.4428 81.35 25.363 68.8867C24.7542 62.546 26.3624 61.1446 29.1307 60.6506C32.8639 59.9959 39.3195 58.6175 41.6744 47.2799C41.8467 46.1312 42.823 41.5365 42.3751 39.2391C42.0075 37.183 40.7784 36.5397 38.8601 36.8728C35.6093 37.4472 30.8193 41.0196 26.3968 47.8658L16.9316 92.4463L0 95.4214L19.7574 2.9751L36.7235 0L29.8314 32.347C29.8314 32.347 37.1026 22.8818 46.9698 21.1473C53.9538 19.9182 58.7438 23.169 59.7547 28.9469C60.9034 35.4485 57.8019 46.0508 57.331 47.6245C54.4937 56.9289 48.6584 63.2926 40.8473 65.4062C41.6973 73.0679 43.9373 78.7654 49.2902 77.4444C55.987 76.0201 66.2333 64.4183 71.7814 48.7273C74.5134 48.6296 77.1193 49.8789 78.754 52.07L78.754 52.07Z" transform="translate(199.0214 137.762)" id="Path" fill="#D2E9F7" stroke="none" />
      <path d="M84.2447 30.4674C77.9269 48.2031 65.8657 64.8476 45.8441 68.374C31.2787 70.9356 25.8799 64.1928 25.8799 64.1928L30.624 58.0244C30.624 58.0244 32.9214 60.2298 34.9201 59.8737C42.1453 58.5987 50.0483 30.789 48.0725 19.5893C47.4867 16.2236 45.9819 14.7418 43.4778 15.1898C39.1472 15.948 34.6329 21.3353 31.6578 27.6875L16.9661 96.3675L0 99.3541L19.8034 6.95375L35.5174 9.53829C35.5174 9.53829 40.227 1.76169 48.8996 0.233933C57.9283 -1.35125 63.0629 5.32261 64.6021 14.1101C67.359 29.7552 58.7438 52.1086 54.6775 57.9095C64.2116 52.166 71.5057 42.8043 77.3181 27.1362C80.0303 27.0588 82.6118 28.3004 84.2447 30.4674L84.2447 30.4674Z" transform="translate(257.57 148.1189)" id="Path" fill="#D2E9F7" stroke="none" />
      <path d="M46.8854 52.2854C59.3371 51.8374 68.7793 41.9932 73.4775 29.1279C71.8594 26.9349 69.2755 25.6665 66.5509 25.7278C62.7602 35.9511 56.9249 41.6026 50.9287 42.7513C53.4482 34.5778 54.1345 25.9493 52.9389 17.4802C50.6301 4.35073 41.7393 -1.77177 29.1037 0.445199C4.68263 4.7298 -2.20949 35.5605 0.581815 51.4813C2.8677 64.4845 11.9653 71.1124 24.8536 68.815C35.0769 67.0231 42.2332 60.4296 46.8854 52.2854ZM27.9923 39.1037C26.9766 42.7094 28.2749 46.569 31.2632 48.8279C29.1152 53.549 26.1631 57.0525 23.142 57.5809C20.121 58.1093 17.7547 55.9153 17.0195 51.6996C15.3195 42.0736 20.8446 13.4368 30.7119 11.7023C33.239 11.2543 35.7316 12.6787 36.5472 17.3768C37.1675 20.8688 36.9377 26.6123 35.858 32.5165C32.13 32.8835 29.008 35.498 27.9923 39.1037Z" transform="translate(334.1799 137.8911)" id="Shape" fill="#D2E9F7" fill-rule="evenodd" stroke="none" />
      <path d="M47.5786 56.8715C41.3183 74.2281 31.8186 90.7922 17.2533 93.3423C5.76641 95.3525 -2.48116 88.38 2.40076 65.3028L10.3382 28.5449L0 30.3598L1.98723 21.1703L12.222 19.3669L15.7944 2.98659L32.772 0L29.1996 16.3918L39.1932 14.6343L37.1945 23.8238L27.3273 25.5583L18.6202 66.4171C15.4843 81.1088 18.4364 82.3379 21.0784 81.8669C27.4651 80.7182 34.6789 69.553 40.675 53.4828C43.3903 53.4226 45.9654 54.6865 47.5786 56.8715L47.5786 56.8715Z" transform="translate(396.963 103.6804)" id="Path" fill="#D2E9F7" stroke="none" />
      <g id="Group" transform="translate(103.3818 52.83958)">
        <path d="M4.8781 11.7129L9.65664 16.6752C9.74812 16.7423 9.80217 16.849 9.80217 16.9624C9.80217 17.0758 9.74812 17.1825 9.65664 17.2496L7.81874 19.0185C7.75224 19.1147 7.64276 19.1721 7.52582 19.1721C7.40889 19.1721 7.2994 19.1147 7.23291 19.0185L0.145509 11.667C0.0538463 11.5975 0 11.4891 0 11.374C0 11.259 0.0538463 11.1506 0.145509 11.0811L11.4945 0.145626C11.5664 0.053714 11.6765 0 11.7932 0C11.9099 0 12.02 0.053714 12.0919 0.145626L18.9151 7.23302C19.0113 7.30207 19.0683 7.41325 19.0683 7.53168C19.0683 7.65012 19.0113 7.7613 18.9151 7.83034L17.0772 9.59932C17.0074 9.68662 16.9017 9.73745 16.79 9.73745C16.6782 9.73745 16.5726 9.68662 16.5028 9.59932L11.977 4.90119L9.67961 7.10667L13.6656 11.2534C13.757 11.3205 13.8111 11.4272 13.8111 11.5406C13.8111 11.654 13.757 11.7607 13.6656 11.8278L11.8851 13.5393C11.8153 13.6266 11.7097 13.6774 11.5979 13.6774C11.4862 13.6774 11.3805 13.6266 11.3107 13.5393L7.29034 9.35809L4.8781 11.7129Z" transform="translate(21.42682 228.2477)" id="Path" fill="#FFFFFF" stroke="none" />
        <path d="M11.1253 20.9906C11.1253 21.2892 10.8726 21.4156 10.5969 21.1973L7.93193 19.0723C7.76862 18.9502 7.69965 18.7387 7.75962 18.5439L8.83939 12.6856L3.38313 15.0404C3.19853 15.1315 2.97742 15.1045 2.82027 14.9714L0.143831 12.8464C0.039047 12.7798 -0.01594 12.6572 0.00406392 12.5346C0.0240678 12.4121 0.115208 12.3133 0.235726 12.2835L8.75898 9.05572L10.2752 0.314231C10.2752 -0.00740114 10.5394 -0.0992959 10.8151 0.118954L13.3652 2.16361C13.5309 2.27877 13.6048 2.48664 13.549 2.68052L12.251 8.42394L17.5349 5.89684C17.7006 5.78147 17.9206 5.78147 18.0863 5.89684L20.6594 7.95298C20.9006 8.14826 20.8891 8.41246 20.5905 8.52733L12.4003 11.9734L11.1253 20.9906Z" transform="translate(33.237 238.8194)" id="Path" fill="#FFFFFF" stroke="none" />
        <path d="M15.2748 6.44958C15.3779 6.497 15.4522 6.59071 15.4749 6.70189C15.4976 6.81308 15.4659 6.92842 15.3897 7.01244L14.0227 9.30982C13.9795 9.4103 13.8912 9.48431 13.7847 9.50924C13.6782 9.53416 13.5662 9.50705 13.4829 9.43617L9.853 7.19623L3.27103 18.0858C3.22357 18.1878 3.13328 18.2634 3.02456 18.2922C2.91585 18.3211 2.79994 18.3002 2.70817 18.2351L0.215519 16.7189C0.110599 16.6738 0.033665 16.5811 0.00865177 16.4697C-0.0163615 16.3583 0.0135808 16.2416 0.0891634 16.156L6.67114 5.27792L3.04129 3.07244C2.93795 3.02992 2.85956 2.94271 2.82828 2.83543C2.79699 2.72816 2.8162 2.61248 2.88047 2.52107L4.24741 0.223694C4.29299 0.116544 4.38665 0.0373285 4.49987 0.010154C4.6131 -0.0170204 4.73251 0.0110607 4.82175 0.0858517L15.2748 6.44958Z" transform="translate(52.37135 248.9609)" id="Path" fill="#FFFFFF" stroke="none" />
        <path d="M7.74115 18.1996C7.7483 18.3966 7.86938 18.5715 8.0513 18.6476L11.1528 20.0145C11.4744 20.1523 11.6122 19.9915 11.6122 19.6814L10.4635 13.042C12.6601 13.2766 14.7394 12.0035 15.5292 9.94053C16.8732 6.79313 15.713 3.9329 12.0832 2.34771L6.9141 0.0503401C6.81399 -0.00714055 6.69315 -0.0158763 6.58582 0.0266086C6.47849 0.0690934 6.39637 0.158169 6.36273 0.26859L0.0564404 14.7076C-0.00593007 14.8067 -0.0173093 14.9297 0.0258028 15.0386C0.0689149 15.1475 0.161356 15.2293 0.274691 15.2589L2.92816 16.4076C3.02731 16.47 3.15025 16.4814 3.25916 16.4383C3.36808 16.3952 3.44992 16.3027 3.47953 16.1894L5.53567 11.4913L6.89112 12.0886L7.74115 18.1996ZM6.83369 8.51615L8.57969 4.51873L10.6014 5.40322C12.1981 6.09243 12.5886 7.01138 11.9798 8.3898C11.371 9.76822 10.4521 10.1013 8.85538 9.40064L6.83369 8.51615Z" transform="translate(65.34978 257.7034)" id="Shape" fill="#FFFFFF" fill-rule="evenodd" stroke="none" />
        <path d="M0.10944 13.9928C-0.085837 14.2455 -0.0169158 14.4408 0.29323 14.5212L3.2913 15.3942C3.49765 15.4714 3.7292 15.3828 3.83118 15.1875L5.43934 12.6948L10.9186 14.1651L10.9875 17.1287C10.984 17.3542 11.1446 17.5488 11.3666 17.5882L14.3417 18.4153C14.6748 18.5072 14.7782 18.3808 14.7782 18.0592L13.8133 1.39173C13.8109 1.18858 13.6755 1.01108 13.4801 0.955227L10.0341 0.0133031C9.83809 -0.0330852 9.63355 0.0441838 9.51718 0.20858L0.10944 13.9928ZM7.25427 9.80012C8.40296 7.99668 9.7584 5.72228 10.6314 4.37831L10.7233 4.40129C10.7348 6.02094 10.7463 8.6744 10.8497 10.7995L7.25427 9.80012Z" transform="translate(81.99868 265.2874)" id="Shape" fill="#FFFFFF" fill-rule="evenodd" stroke="none" />
        <path d="M4.54748 17.0029C4.33967 16.9945 4.16663 16.8407 4.13396 16.6353L0.0331446 0.438802C-0.0587503 0.128656 0.0331446 -0.0206729 0.400724 0.00230079L3.53664 0.266499C3.74818 0.275829 3.92251 0.435635 3.95017 0.645565L5.7536 8.34177C6.09821 9.85803 6.40835 11.6385 6.64958 12.9365L6.76445 12.9365C7.22392 11.673 7.82124 9.99587 8.40707 8.56002L11.4396 1.24288C11.5009 1.02853 11.7138 0.894814 11.9335 0.932737L15.058 1.19693C15.4026 1.19693 15.483 1.39221 15.3451 1.67938L8.61383 16.9799C8.54248 17.1679 8.35461 17.2853 8.15436 17.2671L4.54748 17.0029Z" transform="translate(108.8968 269.2498)" id="Path" fill="#FFFFFF" stroke="none" />
        <path d="M4.12682 16.1765C4.15073 16.2908 4.11717 16.4094 4.03698 16.4942C3.95679 16.579 3.84015 16.6191 3.72478 16.6016L0.818599 16.6705C0.704383 16.6944 0.5857 16.6608 0.500928 16.5806C0.416155 16.5004 0.376051 16.3838 0.393584 16.2684L0.00302948 0.508452C-0.0115283 0.393941 0.026885 0.279036 0.107383 0.196302C0.187881 0.113568 0.30169 0.072022 0.416558 0.0834376L3.32274 0.00302948C3.43725 -0.0115282 3.55216 0.026885 3.63489 0.107383C3.71763 0.18788 3.75917 0.30169 3.74776 0.416557L4.12682 16.1765Z" transform="translate(128.2363 270.214)" id="Path" fill="#FFFFFF" stroke="none" />
        <path d="M2.58455 18.058C2.47327 18.0858 2.35536 18.0618 2.26385 17.9926C2.17235 17.9234 2.1171 17.8165 2.11358 17.7019L0 2.07976C0 1.80407 0.0804081 1.65474 0.356093 1.60879L3.4116 1.19527C3.60802 1.16479 3.80453 1.24964 3.91702 1.41352L7.74215 6.49071C8.98273 8.19077 10.1774 9.93677 10.8666 11.0855L10.9355 11.0855C10.4875 9.01782 10.1084 6.91572 9.78681 4.98593L9.23544 0.862148C9.23544 0.586464 9.31585 0.437134 9.59153 0.391187L12.4403 0.0121205C12.5493 -0.0170613 12.6656 0.00713339 12.754 0.0773387C12.8423 0.147544 12.8921 0.255453 12.8883 0.368213L15.0133 15.9903C15.0457 16.097 15.0263 16.2126 14.9609 16.3028C14.8955 16.393 14.7916 16.4474 14.6802 16.4498L11.6132 16.8748C11.414 16.9017 11.216 16.8181 11.0963 16.6566L7.432 12.0618C6.17249 10.4755 5.0212 8.80609 3.98594 7.06505C4.47988 9.15566 4.96233 11.5449 5.23801 13.5666L5.73195 17.185C5.76432 17.2916 5.74492 17.4072 5.67951 17.4975C5.61411 17.5877 5.51024 17.6421 5.39883 17.6445L2.58455 18.058Z" transform="translate(137.6356 268.3555)" id="Path" fill="#FFFFFF" stroke="none" />
        <path d="M9.36101 16.9824C7.20855 17.6321 4.88994 17.4434 2.87093 16.454C2.7643 16.4301 2.67455 16.3585 2.62749 16.2599C2.58041 16.1613 2.58124 16.0465 2.62971 15.9485L3.53717 13.3525C3.56149 13.2438 3.63683 13.1536 3.73942 13.1103C3.84202 13.0669 3.95923 13.0759 4.05408 13.1343C5.51161 13.7269 7.1174 13.8513 8.64883 13.4903C10.1077 13.0883 10.9462 12.3417 10.7165 11.3193C10.4867 10.297 8.936 10.1706 7.2704 10.3315C4.88114 10.5038 1.22831 10.3315 0.194495 6.72457C-0.689994 3.62311 1.53846 1.34871 4.92708 0.38381C6.86071 -0.184639 8.9254 -0.120243 10.8198 0.5676C11.107 0.648008 11.1874 0.831799 11.084 1.07302L10.2685 3.62311C10.2373 3.73087 10.1624 3.82069 10.0621 3.87086C9.96176 3.92104 9.84501 3.927 9.74008 3.88731C8.43208 3.49003 7.03849 3.47012 5.71968 3.82988C4.11152 4.27786 3.66353 4.97856 3.89327 5.79413C4.123 6.6097 5.17979 6.77052 7.20148 6.67862C10.5442 6.57524 13.3814 6.86241 14.3119 10.1247C15.2423 13.387 13.2665 15.8681 9.36101 16.9824L9.36101 16.9824Z" transform="translate(156.7391 264.7675)" id="Path" fill="#FFFFFF" stroke="none" />
        <path d="M11.4798 0.0492813C11.578 -0.00857703 11.698 -0.0159193 11.8025 0.0295312C11.907 0.0749818 11.9835 0.167731 12.0082 0.279018L13.0535 2.70274C13.1119 2.796 13.1223 2.91156 13.0814 3.01374C13.0406 3.11592 12.9533 3.19243 12.8467 3.21965L8.95266 4.90822L13.9839 16.5904C14.0418 16.6872 14.0521 16.8052 14.0117 16.9105C13.9714 17.0159 13.8849 17.0969 13.7771 17.1302L11.0892 18.2789C10.9944 18.3373 10.8772 18.3462 10.7746 18.3029C10.672 18.2596 10.5966 18.1694 10.5723 18.0607L5.54106 6.36705L1.63553 8.05562C1.53872 8.11354 1.42068 8.12381 1.31533 8.08346C1.20998 8.04311 1.12899 7.95662 1.09564 7.84886L0.0503401 5.42513C-0.00714055 5.32503 -0.0158763 5.20419 0.0266086 5.09686C0.0690934 4.98953 0.158169 4.9074 0.26859 4.87376L11.4798 0.0492813Z" transform="translate(171.0121 257.5896)" id="Path" fill="#FFFFFF" stroke="none" />
        <path d="M12.4396 16.0502C8.92466 18.1294 5.54752 17.6354 3.45692 14.1549L0.98724 9.98516C-1.05742 6.53909 0.194647 3.28831 3.62922 1.25513C5.14347 0.345278 6.89681 -0.0870517 8.66046 0.014549C8.93615 0.014549 9.0625 0.152392 9.03953 0.41659L8.90169 3.07006C8.90585 3.1841 8.85992 3.29425 8.77598 3.37156C8.69205 3.44887 8.5785 3.4856 8.46519 3.4721C7.4161 3.44719 6.38116 3.71787 5.4786 4.25321C4.75386 4.56882 4.20664 5.1899 3.9848 5.94861C3.76295 6.70733 3.88938 7.52537 4.32992 8.18172L6.62729 12.0987C6.98577 12.8156 7.64909 13.3321 8.43201 13.5038C9.21492 13.6756 10.0335 13.4842 10.6592 12.9832C11.6607 12.4106 12.4625 11.5446 12.9566 10.5021C13.0714 10.2494 13.2437 10.1689 13.4849 10.2953L15.8972 11.444C16.1384 11.5359 16.2188 11.7082 16.1384 11.892C15.3929 13.6449 14.0937 15.1054 12.4396 16.0502L12.4396 16.0502Z" transform="translate(187.9372 250.939)" id="Path" fill="#FFFFFF" stroke="none" />
        <path d="M7.14521 2.516C7.06062 2.43402 7.01896 2.31738 7.03246 2.20036C7.04596 2.08334 7.1131 1.97925 7.21413 1.91869L9.5115 0.115248C9.59348 0.0306641 9.71013 -0.0110006 9.82714 0.00250137C9.94416 0.0160034 10.0483 0.0831376 10.1088 0.184169L19.9071 12.5211C19.9976 12.5966 20.0448 12.7119 20.0333 12.8292C20.0218 12.9464 19.9531 13.0504 19.8497 13.1069L17.5523 14.9103C17.4725 14.9948 17.3575 15.0366 17.2421 15.0231C17.1267 15.0095 17.0245 14.9421 16.9665 14.8414L13.0954 9.98247L9.00608 13.2218L12.8772 18.0922C12.9617 18.172 13.0035 18.287 12.9899 18.4024C12.9763 18.5178 12.9089 18.62 12.8082 18.678L10.5109 20.4815C10.4354 20.5719 10.32 20.6192 10.2028 20.6077C10.0855 20.5962 9.98153 20.5274 9.92503 20.424L0.115244 8.08714C0.030742 8.00736 -0.0110574 7.89232 0.00252083 7.77691C0.0160991 7.66149 0.0834555 7.55929 0.184165 7.50131L2.48154 5.68638C2.56132 5.60188 2.67635 5.56008 2.79177 5.57366C2.90718 5.58723 3.00938 5.65459 3.06737 5.7553L6.85803 10.5224L10.9359 7.27157L7.14521 2.516Z" transform="translate(200.2961 239.34)" id="Path" fill="#FFFFFF" stroke="none" />
        <path d="M7.90607 18.0058C8.04391 18.2929 8.23919 18.3274 8.46893 18.0862L10.594 15.8807C10.7567 15.7272 10.7813 15.4771 10.6514 15.2949L9.1926 12.7218L13.0522 8.6095L15.7057 9.919C15.9026 10.0301 16.1511 9.98134 16.2915 9.80413L18.4051 7.50676C18.6463 7.25405 18.5889 7.07026 18.2902 6.9439L3.08159 0.0517786C2.8998 -0.045631 2.67464 -0.00251573 2.5417 0.15516L0.129462 2.72822C-0.0127256 2.872 -0.0409653 3.09321 0.0605406 3.2681L7.90607 18.0058ZM7.49254 9.75818C6.43575 7.9088 5.04584 5.65737 4.26473 4.24449L4.29919 4.18705C5.75803 4.92221 8.11283 6.13982 10.0426 7.0358L7.49254 9.75818Z" transform="translate(217.225 229.3524)" id="Shape" fill="#FFFFFF" fill-rule="evenodd" stroke="none" />
        <path d="M13.7266 19.7232C13.6751 19.829 13.576 19.9038 13.4601 19.9242C13.3441 19.9447 13.2255 19.9084 13.1408 19.8266L0.20659 10.8324C0.100778 10.7808 0.0260526 10.6817 0.00559779 10.5658C-0.0148571 10.4499 0.0214329 10.3312 0.103208 10.2466L1.87218 7.71945C1.96879 7.543 2.16894 7.44991 2.36612 7.48971L8.68389 8.11C10.786 8.35123 12.9111 8.67286 14.1861 8.9026L14.1861 8.83367C12.3597 7.7654 10.5563 6.61671 8.94809 5.50249L5.50203 3.13619C5.40326 3.07827 5.33488 2.97992 5.31498 2.86716C5.29508 2.7544 5.32567 2.63859 5.39865 2.55036L7.04127 0.184068C7.09785 0.0858728 7.19657 0.0192664 7.3088 0.00355343C7.42104 -0.0121595 7.53425 0.0247779 7.61562 0.10366L20.5498 9.10936C20.6526 9.1539 20.7273 9.24561 20.7502 9.35527C20.773 9.46493 20.7411 9.57885 20.6647 9.66073L18.9072 12.1993C18.7931 12.3695 18.594 12.4624 18.3903 12.4405L12.555 12.05C10.5461 11.8975 8.55026 11.6058 6.5818 11.177L6.5818 11.2459C8.45416 12.2912 10.5448 13.5433 12.2218 14.692L15.2199 16.7711C15.323 16.8185 15.3973 16.9122 15.42 17.0234C15.4427 17.1346 15.4111 17.2499 15.3348 17.334L13.7266 19.7232Z" transform="translate(226.5441 211.2662)" id="Path" fill="#FFFFFF" stroke="none" />
        <path d="M16.2065 12.2696C15.2334 14.2999 13.5253 15.8848 11.4279 16.7035C11.3372 16.7634 11.2247 16.7801 11.1205 16.749C11.0163 16.718 10.9312 16.6425 10.8881 16.5427L9.59004 14.119C9.53126 14.027 9.51788 13.9132 9.55373 13.8102C9.58957 13.7071 9.67069 13.6262 9.77383 13.5906C11.1956 12.9223 12.3725 11.8257 13.1395 10.4546C13.8172 9.11068 13.8517 7.92754 12.9327 7.46806C12.0138 7.00859 10.8995 8.00794 9.91167 9.29447C8.41838 11.1668 5.84532 13.7744 2.46818 12.0743C-0.415024 10.627 -0.587327 7.47955 0.99786 4.29768C1.88744 2.49231 3.32743 1.01612 5.11016 0.0820025C5.37436 -0.0673269 5.54666 -0.00989251 5.66153 0.231332L6.98252 2.52871C7.04775 2.62233 7.06878 2.73981 7.04006 2.85025C7.01135 2.96069 6.93577 3.05305 6.83319 3.10305C5.65326 3.79449 4.6934 4.80612 4.06485 6.02072C3.31821 7.51401 3.53646 8.31809 4.27162 8.69716C5.19057 9.15663 5.87978 8.40998 7.17779 6.85926C9.3603 4.32066 11.4739 2.42532 14.5524 3.96457C17.4471 5.44637 18.0214 8.62823 16.2065 12.2696Z" transform="translate(238.1357 196.4812)" id="Path" fill="#FFFFFF" stroke="none" />
        <path d="M13.1569 12.2954L16.4536 6.24181C16.4937 6.13651 16.5799 6.05543 16.6875 6.02182C16.795 5.98821 16.912 6.00578 17.005 6.06951L19.3023 7.28711C19.4118 7.32921 19.4957 7.41964 19.5294 7.53201C19.5631 7.64438 19.5429 7.76603 19.4746 7.86146L14.5812 16.8212C14.5384 16.9271 14.45 17.008 14.3408 17.0414C14.2316 17.0748 14.1132 17.0572 14.0184 16.9935L0.234139 9.44664C0.126577 9.40214 0.0454284 9.31068 0.014042 9.19859C-0.0173445 9.08649 0.00451214 8.96619 0.0733228 8.8723L4.78294 0.234179C4.82464 0.127116 4.914 0.0457105 5.02447 0.0141461C5.13495 -0.0174183 5.25383 0.00449012 5.34579 0.0733625L7.64317 1.29097C7.7483 1.33508 7.82702 1.42547 7.85626 1.53567C7.8855 1.64587 7.86194 1.7634 7.7925 1.85383L4.66807 7.59726L7.45938 9.11352L10.2162 4.07079C10.2538 3.96351 10.339 3.87968 10.4469 3.84372C10.5547 3.80777 10.6731 3.82375 10.7676 3.887L12.9616 5.03569C13.0663 5.07696 13.1453 5.16527 13.1747 5.27388C13.2041 5.38248 13.1805 5.4986 13.1109 5.58706L10.3541 10.6413L13.1569 12.2954Z" transform="translate(0.1679014 70.77762)" id="Path" fill="#FFFFFF" stroke="none" />
        <path d="M20.8817 9.16798C21.1804 9.16798 21.3182 9.39772 21.1114 9.68489L19.0898 12.4532C18.9734 12.6176 18.7689 12.6949 18.5729 12.6485L12.6801 11.7985L15.2531 17.1514C15.3705 17.3206 15.3705 17.5449 15.2531 17.7142L13.2315 20.4711C13.1727 20.5787 13.054 20.6394 12.9323 20.6242C12.8106 20.609 12.7106 20.5209 12.6801 20.4021L9.10767 12.0167L0.320223 10.868C-0.00140963 10.868 -0.0933045 10.6153 0.101972 10.3282L2.04325 7.69766C2.15962 7.53326 2.36416 7.456 2.56016 7.50238L8.30359 8.57066L5.56972 3.39009C5.45435 3.2244 5.45435 3.0044 5.56972 2.83872L7.52249 0.185251C7.70628 -0.0559734 7.97047 -0.0674603 8.09683 0.185251L11.8301 8.22606L20.8817 9.16798Z" transform="translate(8.857783 54.1706)" id="Path" fill="#FFFFFF" stroke="none" />
        <path d="M8.58847 0.145535C8.65555 0.0540505 8.7622 0 8.87564 0C8.98909 0 9.09574 0.0540505 9.16282 0.145535L11.0696 1.98343C11.1528 2.05328 11.2008 2.15629 11.2008 2.26486C11.2008 2.37343 11.1528 2.47645 11.0696 2.54629L8.18643 5.59031L17.3759 14.4237C17.4674 14.4908 17.5215 14.5974 17.5215 14.7109C17.5215 14.8243 17.4674 14.931 17.3759 14.9981L15.2853 17.0772C15.2158 17.1688 15.1074 17.2227 14.9924 17.2227C14.8774 17.2227 14.769 17.1688 14.6995 17.0772L5.50999 8.24377L2.60382 11.3337C2.53406 11.421 2.42839 11.4719 2.31664 11.4719C2.2049 11.4719 2.09922 11.421 2.02947 11.3337L0.145626 9.51882C0.053714 9.44698 0 9.33682 0 9.22016C0 9.1035 0.053714 8.99334 0.145626 8.9215L8.58847 0.145535Z" transform="translate(20.53073 40.35715)" id="Path" fill="#FFFFFF" stroke="none" />
        <path d="M16.6104 12.9355C16.7825 13.0311 16.9969 13.0032 17.1388 12.8666L19.8037 10.7989C20.0794 10.5807 20.022 10.3624 19.7233 10.2475L13.3251 8.14545C14.538 6.30614 14.3685 3.88241 12.9116 2.22972C10.7865 -0.469695 7.71955 -0.791328 4.60661 1.66686L0.184165 5.11292C0.0834555 5.17091 0.0160991 5.27311 0.00252083 5.38852C-0.0110574 5.50393 0.030742 5.61897 0.115244 5.69875L9.87908 18.0701C9.93707 18.1708 10.0393 18.2382 10.1547 18.2517C10.2701 18.2653 10.3851 18.2235 10.4649 18.139L12.7623 16.3356C12.863 16.2776 12.9303 16.1754 12.9439 16.06C12.9575 15.9446 12.9157 15.8295 12.8312 15.7498L9.66083 11.7294L10.8095 10.8104L16.6104 12.9355ZM7.62765 9.20224L4.92824 5.75618L6.65127 4.41222C8.01821 3.33246 9.00607 3.41286 9.93651 4.59601C10.8669 5.77916 10.7291 6.75554 9.36217 7.83531L7.62765 9.20224Z" transform="translate(34.74739 30.18622)" id="Shape" fill="#FFFFFF" fill-rule="evenodd" stroke="none" />
        <path d="M3.3293 18.7451C3.38674 19.0668 3.57053 19.1472 3.84621 18.9864L6.53414 17.4586C6.7326 17.3652 6.83093 17.139 6.76388 16.9302L6.09764 14.0355L10.9681 11.1868L13.1391 13.2085C13.3091 13.3606 13.5663 13.3606 13.7364 13.2085L16.4588 11.6003C16.7115 11.428 16.7115 11.2327 16.4588 11.0374L3.82324 0.0904619C3.66349 -0.030154 3.44311 -0.030154 3.28336 0.0904619L0.22785 1.87093C0.0566815 1.97728 -0.0303485 2.17883 0.00959977 2.37635L3.3293 18.7451ZM5.29356 10.7043C4.79962 8.61372 4.11041 6.06363 3.7658 4.48993L3.84621 4.44398C5.00638 5.5697 6.9132 7.40759 8.52137 8.80899L5.29356 10.7043Z" transform="translate(54.0361 19.63249)" id="Shape" fill="#FFFFFF" fill-rule="evenodd" stroke="none" />
        <path d="M10.9197 18.6635C10.7274 18.7335 10.512 18.668 10.3913 18.5027L0.122058 5.31573C-0.0847052 5.0745 -0.0272708 4.87923 0.282874 4.77585L3.26946 3.75352C3.46686 3.67902 3.68929 3.75639 3.79786 3.9373L8.54193 10.2551C9.46088 11.5071 10.4717 13.0004 11.2184 14.1262L11.3332 14.1262C11.2413 12.7822 11.115 11.0132 11.0805 9.451L10.9082 1.53655C10.8777 1.31747 11.0159 1.1102 11.2299 1.0541L14.1935 0.0432569C14.5266 -0.0716117 14.6644 0.0432569 14.6529 0.376376L14.6529 17.0438C14.6627 17.2461 14.5355 17.4297 14.3428 17.4918L10.9197 18.6635Z" transform="translate(74.25539 6.458309)" id="Path" fill="#FFFFFF" stroke="none" />
        <path d="M7.12156 15.7255C7.1617 15.8345 7.14802 15.9559 7.08468 16.0532C7.02134 16.1505 6.91577 16.2121 6.79993 16.2195L3.97416 16.8513C3.86388 16.8908 3.7415 16.8772 3.64265 16.8143C3.54381 16.7514 3.47961 16.6463 3.46873 16.5296L0.0226724 1.14871C-0.0174628 1.03979 -0.0037911 0.918313 0.0595502 0.821038C0.122891 0.723764 0.228459 0.662126 0.344305 0.654775L3.17008 0.0229972C3.2772 -0.0167874 3.39674 -0.00448632 3.49352 0.0562814C3.59029 0.117049 3.65331 0.219371 3.66401 0.333143L7.12156 15.7255Z" transform="translate(95.11155 4.158222)" id="Path" fill="#FFFFFF" stroke="none" />
        <path d="M2.04183 17.7453C1.92974 17.7743 1.81053 17.7488 1.72012 17.6764C1.62971 17.6041 1.57866 17.4934 1.58235 17.3777L0.00865137 1.69812C-0.0160243 1.58458 0.0127299 1.466 0.0866684 1.37638C0.160607 1.28676 0.271563 1.23599 0.387718 1.23864L3.45471 0.917012C3.65052 0.887672 3.84493 0.978094 3.94865 1.14675L7.60147 6.3503C8.75016 8.0963 9.89884 9.92272 10.5881 11.0369L10.657 11.0369C10.2779 8.94633 9.96776 6.83275 9.761 4.89147L9.33599 0.756196C9.31131 0.642661 9.34007 0.52408 9.414 0.434458C9.48794 0.344835 9.5989 0.294071 9.71505 0.296721L12.5753 0.00954985C12.6868 -0.0168005 12.8042 0.0121106 12.8907 0.0872354C12.9772 0.16236 13.0222 0.274521 13.0118 0.388616L14.5855 15.9993C14.6141 16.1063 14.5912 16.2205 14.5237 16.3083C14.4562 16.3961 14.3516 16.4474 14.2409 16.4473L11.1624 16.7689C10.964 16.7941 10.7684 16.7052 10.657 16.5391L7.14199 11.864C5.94935 10.2543 4.8671 8.56572 3.9027 6.80977C4.32771 8.91187 4.74124 11.3126 4.948 13.3458L5.31558 16.9757C5.34852 17.0842 5.32777 17.202 5.25971 17.2927C5.19164 17.3835 5.08441 17.4364 4.97098 17.4351L2.04183 17.7453Z" transform="translate(106.8192 1.231032)" id="Path" fill="#FFFFFF" stroke="none" />
        <path d="M6.17143 17.1143C3.92107 17.0529 1.77631 16.1466 0.163795 14.5757C0.0745824 14.5142 0.0159858 14.4174 0.00281232 14.3098C-0.0103612 14.2022 0.0231486 14.0941 0.0948742 14.0129L1.77196 11.8304C1.8394 11.7434 1.9433 11.6925 2.05338 11.6925C2.16347 11.6925 2.26736 11.7434 2.33481 11.8304C3.52831 12.8518 5.00923 13.4779 6.57347 13.6223C8.07825 13.6223 9.1695 13.2203 9.21544 12.1979C9.26139 11.1756 7.89446 10.5668 6.29778 10.1992C4.00041 9.60192 0.554349 8.31539 0.715165 4.53621C0.853007 1.31989 3.67878 -0.138944 7.20524 0.0103848C9.21817 0.0817741 11.1566 0.789588 12.7419 2.03207C12.9946 2.20438 13.0061 2.39965 12.8338 2.59493L11.2486 4.76595C11.1887 4.86294 11.0895 4.92893 10.9768 4.94659C10.8642 4.96426 10.7495 4.93184 10.6628 4.85784C9.54938 4.0683 8.23509 3.61029 6.87212 3.53685C5.19504 3.46793 4.57475 3.99633 4.57475 4.83487C4.57475 5.8572 5.4937 6.16734 7.43498 6.71871C10.6513 7.67212 13.2473 8.8323 13.098 12.2554C12.9487 15.6785 10.2493 17.2866 6.17143 17.1143L6.17143 17.1143Z" transform="translate(126.8465 0.9774856)" id="Path" fill="#FFFFFF" stroke="none" />
        <path d="M12.8806 2.15498C12.9915 2.16662 13.0912 2.22797 13.1515 2.32178C13.2118 2.41559 13.2262 2.5317 13.1908 2.63743L12.7313 5.24495C12.7255 5.3543 12.6696 5.4549 12.5799 5.5177C12.4902 5.5805 12.3766 5.59853 12.2718 5.56658L8.09061 4.81993L5.98851 17.3406C5.98851 17.6163 5.77026 17.7312 5.51755 17.6852L2.64584 17.1683C2.53369 17.1635 2.43039 17.1061 2.36709 17.0134C2.30379 16.9207 2.28789 16.8036 2.32421 16.6974L4.54117 4.16518L0.359953 3.43002C0.246518 3.43125 0.139286 3.37836 0.0712216 3.2876C0.00315706 3.19685 -0.0175944 3.0791 0.0153467 2.97055L0.474821 0.363027C0.476272 0.245932 0.53343 0.136536 0.628721 0.0684704C0.724013 0.000405098 0.846033 -0.0181829 0.957269 0.0184211L12.8806 2.15498Z" transform="translate(145.6381 2.187057)" id="Path" fill="#FFFFFF" stroke="none" />
        <path d="M4.96831 16.914C1.06278 15.7653 -0.867016 12.8477 0.373566 8.98808L1.79794 4.34739C2.94662 0.487802 6.20889 -0.752779 10.0225 0.430368C11.7189 0.935627 13.2214 1.94527 14.3301 3.32506C14.4216 3.38434 14.4769 3.48596 14.4769 3.595C14.4769 3.70404 14.4216 3.80566 14.3301 3.86494L12.274 5.565C12.1903 5.6412 12.0777 5.67737 11.9653 5.66415C11.8529 5.65093 11.7518 5.58961 11.6881 5.49608C10.9923 4.71035 10.0944 4.13032 9.09209 3.81899C8.37352 3.4919 7.5466 3.50178 6.83605 3.84595C6.12549 4.19013 5.60511 4.83285 5.4163 5.59946L4.06085 9.94149C3.7653 10.679 3.81578 11.5101 4.19842 12.2064C4.58106 12.9028 5.25558 13.391 6.03659 13.5369C7.13117 13.8869 8.30766 13.8869 9.40224 13.5369C9.67792 13.4565 9.85023 13.5369 9.90766 13.7896L10.6658 16.3627C10.7692 16.6039 10.6658 16.7762 10.4935 16.8451C8.70839 17.469 6.76842 17.4932 4.96831 16.914L4.96831 16.914Z" transform="translate(161.3156 7.139476)" id="Path" fill="#FFFFFF" stroke="none" />
        <path d="M14.8875 4.05748C14.9182 3.94495 15.0022 3.85461 15.1121 3.81567C15.2221 3.77672 15.3442 3.79411 15.4389 3.86221L18.0579 5.0913C18.1697 5.12669 18.2589 5.21188 18.2994 5.322C18.3398 5.43213 18.327 5.55477 18.2646 5.65416L11.5448 19.9208C11.5125 20.0321 11.4295 20.1217 11.3209 20.1624C11.2124 20.2031 11.091 20.1902 10.9935 20.1276L8.36296 18.887C8.25043 18.8563 8.1601 18.7724 8.12115 18.6624C8.0822 18.5524 8.09959 18.4304 8.16769 18.3357L10.8212 12.7071L6.08856 10.4786L3.44658 16.1072C3.41262 16.2202 3.3265 16.31 3.21505 16.3487C3.1036 16.3873 2.98036 16.3701 2.88373 16.3025L0.264723 15.0734C0.152868 15.038 0.0637033 14.9528 0.0232495 14.8427C-0.0172043 14.7326 -0.00438752 14.6099 0.0579595 14.5105L6.77778 0.25533C6.81282 0.146047 6.8969 0.0594047 7.00508 0.0210907C7.11326 -0.0172233 7.23313 -0.0028115 7.32915 0.0600533L9.95964 1.30063C10.0722 1.33138 10.1625 1.41529 10.2015 1.52526C10.2404 1.63522 10.223 1.75729 10.1549 1.852L7.60483 7.28529L12.2915 9.58266L14.8875 4.05748Z" transform="translate(176.185 12.24238)" id="Path" fill="#FFFFFF" stroke="none" />
        <path d="M0.202479 10.2449C-0.0732059 10.4286 -0.061719 10.6239 0.202479 10.8077L2.81 12.4963C2.97449 12.64 3.21986 12.64 3.38434 12.4963L5.68172 10.6239L10.3798 13.7483L9.51833 16.5856C9.44033 16.8014 9.53349 17.0417 9.73658 17.1485L12.3096 18.86C12.5968 19.0438 12.7576 18.9634 12.838 18.6532L17.0652 2.56014C17.1289 2.36608 17.0534 2.15349 16.8814 2.04323L13.9408 0.090462C13.781 -0.030154 13.5606 -0.030154 13.4009 0.090462L0.202479 10.2449ZM8.25478 8.46439C9.90889 7.10894 11.9076 5.37442 13.1597 4.37506L13.2401 4.42101C12.7461 5.94876 11.9306 8.48736 11.3677 10.5435L8.25478 8.46439Z" transform="translate(191.6282 24.03196)" id="Shape" fill="#FFFFFF" fill-rule="evenodd" stroke="none" />
        <path d="M0.145626 12.4135C0.0537141 12.3416 0 12.2315 0 12.1148C0 11.9982 0.0537141 11.888 0.145626 11.8162L10.725 0.145509C10.7945 0.0538463 10.9029 0 11.018 0C11.133 0 11.2414 0.0538463 11.3109 0.145509L13.6082 2.22463C13.7654 2.34583 13.8297 2.55256 13.7691 2.74154L12.3562 8.93296C11.8508 10.9776 11.2649 13.0453 10.8629 14.2858L10.9318 14.2858C12.2298 12.6202 13.5853 10.9661 14.8948 9.53028L17.6401 6.41734C17.7096 6.32568 17.818 6.27183 17.9331 6.27183C18.0481 6.27183 18.1565 6.32568 18.226 6.41734L20.3625 8.34713C20.4498 8.41688 20.5007 8.52256 20.5007 8.6343C20.5007 8.74605 20.4498 8.85172 20.3625 8.92147L9.78311 20.6036C9.71567 20.6906 9.61177 20.7415 9.50169 20.7415C9.3916 20.7415 9.28771 20.6906 9.22026 20.6036L6.92288 18.5245C6.77439 18.3923 6.70855 18.1904 6.75058 17.9961L7.89927 12.2527C8.31423 10.2802 8.86304 8.33823 9.54189 6.44031L9.47297 6.44031C8.19793 8.16334 6.68166 10.0816 5.30323 11.5979L2.85653 14.2973C2.78908 14.3843 2.68518 14.4352 2.5751 14.4352C2.46502 14.4352 2.36112 14.3843 2.29367 14.2973L0.145626 12.4135Z" transform="translate(207.8585 33.78669)" id="Path" fill="#FFFFFF" stroke="none" />
        <path d="M2.1413 13.4411C0.694113 11.7451 -0.0678112 9.56991 0.0047436 7.34157C-0.0121888 7.23458 0.0189257 7.12558 0.0897803 7.04365C0.160635 6.96172 0.264016 6.91522 0.372323 6.91655L3.11768 6.6983C3.22698 6.68425 3.33682 6.71998 3.41694 6.79565C3.49705 6.87131 3.539 6.97893 3.53121 7.08885C3.56717 8.65969 4.09777 10.1791 5.04748 11.4309C6.00089 12.5796 7.08065 13.0965 7.86176 12.4417C8.64286 11.787 8.19488 10.3626 7.40228 8.99567C6.2536 6.88209 4.94409 3.47049 7.86176 1.05825C10.3429 -0.997898 13.318 0.127814 15.5694 2.83871C16.8666 4.38085 17.639 6.29592 17.7749 8.30646C17.7749 8.60512 17.683 8.74296 17.4188 8.75445L14.7539 9.03014C14.6416 9.04646 14.5277 9.0146 14.4401 8.9424C14.3526 8.87021 14.2997 8.76439 14.2944 8.65107C14.1311 7.29596 13.5898 6.01416 12.7322 4.9523C11.6639 3.66577 10.8369 3.52793 10.1936 4.06781C9.55033 4.60769 9.81452 5.64151 10.7105 7.51387C12.1578 10.5349 13.0079 13.2573 10.4004 15.4283C7.79284 17.5993 4.7603 16.5885 2.1413 13.4411L2.1413 13.4411Z" transform="translate(222.6796 50.09276)" id="Path" fill="#FFFFFF" stroke="none" />
      </g>
    </g>
  </g>
</svg>