<?xml version="1.0" encoding="utf-8"?>
<svg width="470px" height="470px" viewBox="0 0 470 470" version="1.1" xmlns:xlink="http://www.w3.org/1999/xlink" xmlns="http://www.w3.org/2000/svg">
  <desc>Created with Lunacy</desc>
  <defs>
    <path d="M195.833 391.667C303.989 391.667 391.667 303.989 391.667 195.833C391.667 87.6776 303.989 0 195.833 0C87.6776 0 0 87.6776 0 195.833C0 303.989 87.6776 391.667 195.833 391.667Z" id="path_1" />
    <clipPath id="clip_1">
      <use xlink:href="#path_1" />
    </clipPath>
  </defs>
  <g id="Symbols/240x240/Jackpot">
    <g id="symbol_nitlott" transform="translate(39.16667 39.16667)">
      <path d="M178.519 357.039C277.113 357.039 357.039 277.113 357.039 178.519C357.039 79.9258 277.113 0 178.519 0C79.9258 0 0 79.9258 0 178.519C0 277.113 79.9258 357.039 178.519 357.039Z" transform="translate(17.23333 17.53284)" id="Oval" fill="#FFFFFF" stroke="none" />
      <path d="M164.166 328.332C254.832 328.332 328.332 254.832 328.332 164.166C328.332 73.4996 254.832 0 164.166 0C73.4996 0 0 73.4996 0 164.166C0 254.832 73.4996 328.332 164.166 328.332Z" transform="translate(31.58677 31.88627)" id="Oval" fill="#004673" stroke="none" />
      <path d="M0.037585 12.4027C-0.0302513 12.5927 -0.00534674 12.8034 0.104896 12.9723L4.47083 21.9C7.22401 27.7174 11.8895 30.9774 19.4463 27.3372L25.2061 24.5495C32.6823 20.8978 33.1892 15.1956 30.3784 9.37818L26.0701 0.450485C26.0092 0.25819 25.862 0.105421 25.672 0.037585C25.4821 -0.0302513 25.2713 -0.00534674 25.1024 0.104896L0.450485 12.0046C0.25819 12.0655 0.105421 12.2128 0.037585 12.4027ZM9.93112 19.3311L8.0995 15.5181L23.1326 8.29534L24.9066 12.0853C26.3235 14.873 25.6554 16.9466 22.6027 18.4096L16.2899 21.4622C13.2372 22.9368 11.2789 22.1304 9.93112 19.3311Z" transform="translate(57.95393 234.7684)" id="Shape" fill="#FFFFFF" fill-rule="evenodd" stroke="none" />
      <path d="M9.69045 29.3726C9.55063 29.6876 9.61427 30.0558 9.85172 30.3056L13.6993 34.7752C14.1025 35.236 14.4826 35.1208 14.6669 34.5909L17.8463 23.3363C21.1266 25.299 25.3141 24.8275 28.0757 22.1843C32.6029 18.2907 32.9485 12.9456 28.4444 7.7157L22.051 0.297076C21.942 0.127032 21.7597 0.0178245 21.5584 0.00198929C21.3571 -0.0138459 21.1599 0.0655188 21.0257 0.216439L0.290446 18.0833C0.121954 18.1942 0.0150312 18.3776 0.0014635 18.5788C-0.0121042 18.7801 0.0692453 18.9761 0.221329 19.1086L3.50442 22.9216C3.61337 23.0916 3.79567 23.2008 3.997 23.2167C4.19833 23.2325 4.39546 23.1531 4.52966 23.0022L11.2802 17.2424L12.962 19.1547L9.69045 29.3726ZM15.5424 13.5216L21.3022 8.56815L23.7789 11.425C25.7603 13.7289 25.6797 15.4799 23.6983 17.1848C21.7169 18.8897 20.012 18.7169 18.0422 16.413L15.5424 13.5216Z" transform="translate(77.19044 262.6841)" id="Shape" fill="#FFFFFF" fill-rule="evenodd" stroke="none" />
      <path d="M0.349921 17.5117C-0.122383 17.8342 -0.110863 18.1798 0.349921 18.5024L4.80801 21.509C5.10037 21.7571 5.52937 21.7571 5.82174 21.509L9.86512 18.3181L17.9288 23.859L16.3852 28.7663C16.2438 29.1361 16.396 29.5536 16.7423 29.7455L21.1659 32.7752C21.6612 33.1208 21.9492 32.971 22.0874 32.4296L29.9208 4.50605C30.0358 4.17065 29.9075 3.80003 29.6097 3.60752L24.5526 0.151637C24.266 -0.0505456 23.8831 -0.0505456 23.5965 0.151637L0.349921 17.5117ZM14.3923 14.6318C17.2492 12.3279 20.8087 9.34428 23.009 7.62786L23.2394 7.72002C22.2833 10.381 20.8087 14.747 19.7835 18.3065L14.3923 14.6318Z" transform="translate(101.1724 288.691)" id="Shape" fill="#FFFFFF" fill-rule="evenodd" stroke="none" />
      <path d="M8.13722 29.1007C1.65168 26.7968 -1.58533 21.6706 0.76467 15.0583L3.58697 7.12129C5.89089 0.543594 11.6507 -1.36866 18.1132 0.935261C21.3232 2.08644 24.1669 4.07506 26.3497 6.69506C26.4944 6.83697 26.5625 7.03954 26.5329 7.24005C26.5033 7.44056 26.3795 7.6148 26.2 7.70879L22.3524 10.4505C22.2138 10.584 22.0195 10.6429 21.8301 10.6087C21.6407 10.5744 21.4793 10.4513 21.3963 10.2777C19.9437 8.64806 18.0886 7.42854 16.0166 6.74114C13.1252 5.7159 10.7522 6.62595 9.7154 9.55193L7.03133 17.0742C5.94849 20.1154 7.31932 22.2696 10.2107 23.3063C11.6812 23.8569 13.2721 24.0041 14.8186 23.7326L16.3507 19.3782L12.2958 17.9382C12.1015 17.8954 11.9394 17.7623 11.8597 17.58C11.7799 17.3978 11.7922 17.1884 11.8926 17.0166L13.2058 13.2958C13.2498 13.1128 13.3743 12.9596 13.5444 12.879C13.7145 12.7984 13.9119 12.7992 14.0813 12.8811L23.297 16.1642C23.48 16.2082 23.6332 16.3326 23.7138 16.5027C23.7944 16.6728 23.7936 16.8702 23.7117 17.0397L19.8181 27.9833C19.7453 28.2688 19.5518 28.5084 19.2882 28.6399C15.7849 30.2889 11.7646 30.455 8.13722 29.1007L8.13722 29.1007Z" transform="translate(138.012 303.1709)" id="Path" fill="#FFFFFF" stroke="none" />
      <path d="M0.692585 28.7686C0.491178 28.7835 0.294433 28.7032 0.160965 28.5516C0.0274969 28.4001 -0.0272895 28.1947 0.0129279 27.9968L1.91366 0.683858C1.89767 0.482971 1.9782 0.286458 2.13057 0.154562C2.28293 0.0226651 2.48895 -0.0288823 2.68548 0.0157216L8.0421 0.384349C8.38484 0.393189 8.68893 0.606506 8.81391 0.92577L13.537 10.9133C15.0345 14.2424 16.4514 17.6983 17.2347 19.8179L17.3615 19.8179C17.3615 16.1432 17.4306 12.4223 17.661 9.04708L18.1678 1.84734C18.1518 1.64645 18.2324 1.44994 18.3847 1.31804C18.5371 1.18614 18.7431 1.1346 18.9397 1.1792L23.9276 1.52479C24.3654 1.52479 24.5958 1.81278 24.5612 2.2966L22.6605 29.6096C22.6785 29.8044 22.6038 29.9964 22.4588 30.1278C22.3138 30.2593 22.1154 30.3148 21.9232 30.2777L16.5781 29.9091C16.2292 29.8937 15.918 29.6848 15.7718 29.3677L11.1639 20.3132C9.61271 17.1732 8.27344 13.9327 7.15509 10.6137L7.02837 10.6137C7.13205 14.3461 7.12053 18.5853 6.87862 22.1333L6.44087 28.4461C6.44087 28.9299 6.14136 29.1603 5.70362 29.1257L0.692585 28.7686Z" transform="translate(173.576 310.2188)" id="Path" fill="#FFFFFF" stroke="none" />
      <path d="M10.1462 27.7628C10.2003 27.9571 10.1603 28.1655 10.0382 28.3261C9.91605 28.4866 9.72587 28.5808 9.52416 28.5807L4.52466 29.2603C4.33032 29.3144 4.12189 29.2744 3.96134 29.1523C3.80079 29.0302 3.7066 28.84 3.70676 28.6383L0.0204916 1.50961C-0.0292783 1.31686 0.0127319 1.11192 0.134327 0.9543C0.255921 0.796677 0.443478 0.704023 0.64255 0.703235L5.64206 0.0235785C5.8364 -0.0304512 6.04482 0.00953141 6.20537 0.13164C6.36592 0.253749 6.46012 0.443927 6.45995 0.645637L10.1462 27.7628Z" transform="translate(208.1964 309.7617)" id="Path" fill="#FFFFFF" stroke="none" />
      <path d="M10.2122 34.3808C10.0347 34.476 9.82264 34.4812 9.64077 34.3948C9.45889 34.3084 9.32891 34.1407 9.2906 33.943L0.0749143 8.16216C-0.0198538 7.98307 -0.0249788 7.76987 0.061075 7.58644C0.147129 7.40301 0.314362 7.27067 0.512659 7.22907L5.55825 5.43201C5.87397 5.29669 6.24043 5.36998 6.47982 5.61632L14.82 12.8622C17.5386 15.3158 20.2227 17.9077 21.7894 19.532L21.8931 19.4629C20.384 16.0992 18.9786 12.6548 17.8382 9.46387L15.4075 2.67882C15.3127 2.49974 15.3076 2.28654 15.3937 2.10311C15.4797 1.91967 15.647 1.78733 15.8453 1.74573L20.5568 0.0638714C20.7322 -0.0224198 20.938 -0.0212161 21.1124 0.0671214C21.2868 0.155459 21.4096 0.320651 21.4438 0.513136L30.6595 26.294C30.7551 26.4649 30.7647 26.6708 30.6854 26.8499C30.6061 27.0289 30.4471 27.1601 30.2563 27.2041L25.2107 29.0127C24.885 29.1414 24.5146 29.0744 24.2546 28.8399L16.3752 22.4119C13.6972 20.1559 11.1691 17.7278 8.80678 15.143L8.71462 15.2122C10.3043 18.5874 11.9977 22.481 13.1842 25.8217L15.3269 31.7774C15.4222 31.9499 15.4318 32.157 15.3527 32.3377C15.2737 32.5183 15.1151 32.6518 14.9237 32.6989L10.2122 34.3808Z" transform="translate(224.6726 300.69)" id="Path" fill="#FFFFFF" stroke="none" />
      <path d="M22.7964 27.8544C17.1749 31.8402 11.1271 31.5176 7.07216 25.7924L2.19937 18.8806C-1.82097 13.1899 -0.104554 7.43014 5.51701 3.45588C8.28968 1.48488 11.5392 0.291662 14.9285 0C15.4239 0 15.6658 0.218872 15.6773 0.702696L15.6773 5.42573C15.6773 5.88652 15.4469 6.13995 14.9861 6.11691C12.816 6.36159 10.7492 7.17636 8.99593 8.47843C6.49618 10.2524 5.87412 12.7176 7.65966 15.252L12.2675 21.7951C14.1222 24.4331 16.6795 24.5483 19.1793 22.7858C20.4727 21.899 21.5096 20.6872 22.1859 19.2723L19.5018 15.4939L16.0459 17.9821C15.898 18.1093 15.6998 18.1612 15.5086 18.123C15.3173 18.0847 15.1544 17.9605 15.0668 17.7863L12.7628 14.5608C12.6341 14.4202 12.5784 14.2275 12.6123 14.0399C12.6462 13.8523 12.7658 13.6913 12.9356 13.6046L20.9302 7.94852C21.0693 7.81891 21.2607 7.76144 21.4481 7.79305C21.6356 7.82466 21.7976 7.94176 21.8864 8.1098L28.6253 17.625C28.817 17.8517 28.9047 18.1484 28.8673 18.4429C28.1978 22.2712 26.0081 25.6659 22.7964 27.8544Z" transform="translate(258.2129 285.3407)" id="Path" fill="#FFFFFF" stroke="none" />
      <path d="M21.4206 23.8431L29.2079 14.7426C29.3083 14.5743 29.4823 14.4632 29.6773 14.4428C29.8722 14.4224 30.0654 14.4951 30.1986 14.639L33.5738 17.5189C33.7438 17.6278 33.8531 17.8101 33.8689 18.0115C33.8847 18.2128 33.8054 18.4099 33.6544 18.5441L22.1348 32.0336C22.0239 32.2021 21.8406 32.309 21.6394 32.3225C21.4381 32.3361 21.2421 32.2548 21.1096 32.1027L0.30515 14.3164C0.131087 14.2134 0.0180024 14.0321 0.00196243 13.8305C-0.0140775 13.6288 0.0689308 13.432 0.224513 13.3027L11.3294 0.297075C11.4384 0.127032 11.6207 0.0178244 11.822 0.00198929C12.0233 -0.0138459 12.2205 0.0655187 12.3547 0.216438L15.7184 3.10786C15.8732 3.22548 15.9642 3.40875 15.9642 3.6032C15.9642 3.79765 15.8732 3.98092 15.7184 4.09854L8.40344 12.6691L12.5966 16.2517L19.0936 8.64878C19.1941 8.48046 19.3681 8.36934 19.563 8.34894C19.758 8.32854 19.9512 8.40123 20.0843 8.5451L23.402 11.3789C23.5568 11.4966 23.6478 11.6798 23.6478 11.8743C23.6478 12.0687 23.5568 12.252 23.402 12.3696L16.9049 19.9725L21.4206 23.8431Z" transform="translate(279.8172 262.6495)" id="Path" fill="#FFFFFF" stroke="none" />
      <path d="M26.0816 32.0807C26.0222 32.2742 25.874 32.4276 25.6827 32.4937C25.4914 32.5597 25.2801 32.5304 25.114 32.4148L0.450485 20.5611C0.25819 20.5002 0.105421 20.353 0.037585 20.163C-0.0302514 19.9731 -0.00534675 19.7623 0.104897 19.5934L2.40882 14.7667C2.54903 14.4529 2.85993 14.2501 3.20367 14.2483L14.2279 13.5572C17.8797 13.3959 21.612 13.3613 23.8699 13.4074L23.8699 13.2922C20.414 11.9559 17.0387 10.4814 13.986 9.01845L7.47745 5.88511C7.28399 5.82572 7.13053 5.67748 7.06449 5.48619C6.99845 5.2949 7.02776 5.08356 7.14338 4.91746L9.30907 0.413297C9.37436 0.230049 9.52161 0.087893 9.70704 0.0290974C9.89247 -0.0296981 10.0947 0.00163765 10.2537 0.113787L34.9287 11.979C35.1153 12.0361 35.2652 12.1761 35.335 12.3584C35.4048 12.5407 35.3866 12.7449 35.2858 12.9121L32.9819 17.7503C32.8328 18.0669 32.5245 18.2783 32.1755 18.3033L22.0613 19.2479C18.5703 19.5306 15.0642 19.5768 11.5669 19.3861L11.5669 19.5128C15.0228 20.7915 19.0086 22.3812 22.1995 23.9133L27.9593 26.6665C28.1432 26.7273 28.2899 26.8675 28.3592 27.0483C28.4284 27.2292 28.4127 27.4316 28.3164 27.5996L26.0816 32.0807Z" transform="translate(297.4351 234.0222)" id="Path" fill="#FFFFFF" stroke="none" />
      <path d="M23.0761 34.7398C22.9779 34.916 22.8016 35.0349 22.6014 35.0599C22.4012 35.0849 22.201 35.0131 22.0624 34.8665L0.324915 18.2091C0.148415 18.1082 0.0298157 17.93 0.00487717 17.7282C-0.0200613 17.5265 0.0515801 17.3247 0.198199 17.1839L3.45825 12.9332C3.65224 12.6501 3.99873 12.5134 4.33374 12.5876L15.3004 14.1658C18.9176 14.7533 22.5808 15.479 24.7695 15.9974L24.7695 15.8707C21.6823 13.8662 18.6411 11.7351 15.957 9.6731L10.1972 5.28413C10.0232 5.18462 9.90541 5.00991 9.87833 4.81133C9.85125 4.61275 9.91801 4.41286 10.059 4.27041L13.1002 0.29614C13.2062 0.131298 13.3814 0.0235958 13.5763 0.00342827C13.7713 -0.0167392 13.9648 0.0528159 14.1024 0.192463L35.8168 16.8613C35.9894 16.9521 36.1094 17.1185 36.1411 17.3108C36.1727 17.5031 36.1124 17.6992 35.9781 17.8405L32.718 22.1028C32.5128 22.3863 32.1647 22.5291 31.8195 22.4714L21.7168 21.3194C18.2419 20.8892 14.8009 20.2195 11.4183 19.315L11.4183 19.4302C14.5862 21.4001 18.1112 23.7616 20.9335 25.9158L25.956 29.7748C26.1249 29.8688 26.2417 30.0348 26.2731 30.2255C26.3045 30.4162 26.2471 30.6108 26.1173 30.754L23.0761 34.7398Z" transform="translate(79.16038 101.9749)" id="Path" fill="#FFFFFF" stroke="none" />
      <path d="M22.3548 21.7327C22.5024 21.8697 22.5761 22.0686 22.5534 22.2687C22.5306 22.4687 22.4141 22.6461 22.2396 22.7464L18.2999 25.8913C18.1629 26.0389 17.964 26.1126 17.7639 26.0899C17.5638 26.0671 17.3865 25.9507 17.2861 25.7761L0.202562 4.37266C0.0549223 4.23346 -0.0186178 4.03291 0.00403903 3.83126C0.0266958 3.62961 0.142909 3.45038 0.317758 3.34741L4.25747 0.202562C4.39667 0.0549222 4.59722 -0.0186178 4.79887 0.00403903C5.00051 0.0266958 5.17975 0.142909 5.28271 0.317758L22.3548 21.7327Z" transform="translate(106.5496 85.48029)" id="Path" fill="#FFFFFF" stroke="none" />
      <path d="M19.5961 0.0910574C19.7632 -0.00975923 19.9675 -0.0279106 20.1498 0.0418566C20.3321 0.111624 20.472 0.261521 20.5292 0.448165L22.5105 4.59522C22.6127 4.75411 22.6355 4.95132 22.5724 5.12935C22.5093 5.30738 22.3674 5.44618 22.188 5.50527L15.5412 8.70772L25.1025 28.6251C25.2197 28.7827 25.254 28.987 25.1946 29.1741C25.1353 29.3613 24.9895 29.5085 24.8029 29.5697L20.1951 31.77C20.028 31.8708 19.8237 31.889 19.6414 31.8192C19.4591 31.7494 19.3191 31.5995 19.262 31.4129L9.70073 11.4955L3.05392 14.6864C2.89308 14.7984 2.68945 14.8297 2.50241 14.7711C2.31536 14.7125 2.16597 14.5707 2.09779 14.3869L0.104896 10.2398C-0.00534674 10.0709 -0.0302513 9.8602 0.037585 9.67026C0.105421 9.48032 0.25819 9.33303 0.450485 9.27219L19.5961 0.0910574Z" transform="translate(124.5257 66.43468)" id="Path" fill="#FFFFFF" stroke="none" />
      <path d="M5.99019 29.2724C5.80025 29.3383 5.59029 29.3102 5.42441 29.1966C5.25853 29.083 5.15642 28.8974 5.14926 28.6964L0.0345517 1.82119C-0.0306889 1.62994 -0.00254863 1.41918 0.11058 1.25175C0.223709 1.08432 0.408755 0.979567 0.610532 0.968738L5.59852 0.0241308C5.7859 -0.0291112 5.98735 0.00679733 6.14478 0.121502C6.30222 0.236207 6.39815 0.416956 6.40489 0.611631L10.552 22.3606L21.3689 20.3217C21.5478 20.2646 21.743 20.293 21.8982 20.3987C22.0534 20.5044 22.1513 20.6757 22.1637 20.8631L23.0162 25.3788C23.086 25.5632 23.0642 25.7699 22.9574 25.9357C22.8506 26.1015 22.6716 26.2069 22.4747 26.2197L5.99019 29.2724Z" transform="translate(160.088 60.58052)" id="Path" fill="#FFFFFF" stroke="none" />
      <path d="M10.8078 29.7217C18.2495 30.3323 22.8919 26.5078 23.4794 19.2734L24.0899 12.4078C24.6774 5.208 20.7262 0.71535 13.2961 0.0702515C5.86592 -0.574847 1.22352 3.24966 0.624497 10.4379L0.0600364 17.3497C-0.538983 24.584 3.36616 29.1112 10.8078 29.7217ZM11.2571 23.6163C7.89337 23.3283 6.36126 21.3815 6.64925 17.7644L7.19068 11.106C7.49019 7.52344 9.3794 5.91069 12.7431 6.14108C16.1069 6.37148 17.6505 8.31829 17.351 11.9009L16.798 18.6053C16.51 22.2225 14.6208 23.9043 11.2571 23.6163Z" transform="translate(190.7853 57.83882)" id="Shape" fill="#FFFFFF" fill-rule="evenodd" stroke="none" />
      <path d="M22.9874 7.57112C23.1776 7.6197 23.3336 7.75518 23.4085 7.93661C23.4833 8.11805 23.4682 8.32417 23.3675 8.49269L21.7433 12.7895C21.6986 12.9742 21.5704 13.1276 21.3965 13.2044C21.2226 13.2812 21.0229 13.2726 20.8563 13.1812L13.9445 10.5777L6.1342 31.2324C6.10211 31.4342 5.97463 31.6082 5.79183 31.6996C5.60903 31.791 5.39336 31.7886 5.21263 31.6932L0.46655 29.8961C0.27988 29.8424 0.127377 29.7073 0.0513948 29.5285C-0.0245879 29.3498 -0.0159597 29.1463 0.0748831 28.9746L7.8967 8.30838L0.984933 5.70495C0.793331 5.66578 0.631303 5.53879 0.547487 5.3621C0.463672 5.1854 0.467827 4.97958 0.558707 4.80642L2.18297 0.498085C2.22609 0.301149 2.36035 0.136485 2.54457 0.0546077C2.7288 -0.0272698 2.94099 -0.0165871 3.11606 0.0833787L22.9874 7.57112Z" transform="translate(227.4834 62.7676)" id="Path" fill="#FFFFFF" stroke="none" />
      <path d="M27.9185 12.6848C28.0862 12.7844 28.1988 12.9558 28.2235 13.1493C28.2483 13.3428 28.1825 13.5369 28.0452 13.6755L25.3381 17.3964C25.244 17.5591 25.0815 17.6705 24.8958 17.6996C24.7101 17.7287 24.5213 17.6723 24.382 17.5461L18.4148 13.1917L5.39765 31.0471C5.30788 31.2196 5.14391 31.3412 4.95286 31.3772C4.7618 31.4132 4.56481 31.3594 4.41848 31.2314L0.317504 28.2363C0.145891 28.14 0.0300035 27.9681 0.00503269 27.7728C-0.0199381 27.5776 0.0489539 27.3821 0.190789 27.2456L13.1964 9.39023L7.24079 5.03582C7.06471 4.94946 6.93968 4.78513 6.9034 4.5924C6.86712 4.39967 6.92385 4.20112 7.05647 4.05666L9.76358 0.347341C9.85539 0.166054 10.0286 0.0398035 10.2293 0.00787634C10.4299 -0.0240508 10.6338 0.0422197 10.7773 0.186066L27.9185 12.6848Z" transform="translate(252.8144 77.23722)" id="Path" fill="#FFFFFF" stroke="none" />
      <path d="M3.48631 23.2658C1.02013 20.2382 -0.213905 16.3922 0.030426 12.4949C0.00685373 12.3083 0.0658891 12.1207 0.192074 11.9813C0.318259 11.8418 0.499027 11.7644 0.687044 11.7692L5.45616 11.4927C5.64611 11.4622 5.83935 11.5229 5.97764 11.6567C6.11593 11.7904 6.18308 11.9815 6.15886 12.1724C6.16752 14.9053 7.02936 17.5674 8.62406 19.7868C10.2483 21.8373 12.0799 22.7474 13.4853 21.653C15.0635 20.3974 14.1304 18.0474 12.8172 15.5476C10.9625 11.8268 8.76229 5.84811 13.9692 1.72409C18.3581 -1.73179 23.4844 0.307182 27.2858 5.17998C29.4801 7.90437 30.7473 11.2581 30.903 14.7528C30.9606 15.2827 30.7302 15.5131 30.2694 15.5131L25.6616 15.8932C25.4668 15.9195 25.2702 15.8616 25.1207 15.7341C24.9712 15.6066 24.883 15.4215 24.8782 15.2251C24.6582 12.8589 23.7669 10.6048 22.3094 8.72802C20.5123 6.42409 19.0839 6.1937 17.9434 7.09223C16.5495 8.24419 17.2177 9.82238 18.7152 13.0133C21.0998 18.3123 22.5282 23.0469 17.8513 26.7447C13.3125 30.2467 7.86376 28.8297 3.48631 23.2658Z" transform="translate(272.0627 103.9338)" id="Path" fill="#FFFFFF" stroke="none" />
      <path d="M0.101518 2.71002C-0.00852695 2.53981 -0.0304953 2.32722 0.042417 2.1381C0.115329 1.94899 0.27432 1.80617 0.470145 1.75389L4.1449 0.0950628C4.31619 -0.00989935 4.52659 -0.0290776 4.71403 0.0431875C4.90147 0.115453 5.04454 0.270912 5.10103 0.46369L9.30569 9.8061C9.41066 9.97738 9.42983 10.1878 9.35757 10.3752C9.2853 10.5627 9.12985 10.7057 8.93707 10.7622L5.26231 12.4211C5.09102 12.526 4.88062 12.5452 4.69318 12.4729C4.50574 12.4007 4.36267 12.2452 4.30618 12.0524L0.101518 2.71002Z" transform="translate(295.8372 138.0596)" id="Path" fill="#FFFFFF" stroke="none" />
      <path d="M10.863 0L14.1115 6.78505L21.5532 7.94853L16.1044 13.1439L17.3025 20.5625L10.6787 16.9914L3.98579 20.4243L5.33358 13.0287L0 7.71814L7.45319 6.71593L10.863 0L10.863 0Z" transform="translate(76.63995 144.5365)" id="Path" fill="#50C2E6" stroke="none" />
      <path d="M10.863 0L14.123 6.77353L21.5532 7.93701L16.1044 13.1324L17.3025 20.5625L10.6787 16.9914L3.98579 20.4127L5.33358 13.0172L0 7.70662L7.46471 6.70441L10.863 0L10.863 0Z" transform="translate(315.6257 191.0872)" id="Path" fill="#50C2E6" stroke="none" />
      <path d="M7.16519 0L9.31936 4.48113L14.2267 5.25294L10.6326 8.68579L11.4274 13.5931L7.05 11.2316L2.62647 13.4895L3.51348 8.60515L0 5.10319L4.91887 4.43505L7.16519 0L7.16519 0Z" transform="translate(50.54804 164.4539)" id="Path" fill="#50C2E6" stroke="none" />
      <path d="M7.17671 0L9.31936 4.46961L14.2267 5.24142L10.6326 8.67427L11.4275 13.5816L7.05 11.2201L2.62647 13.4895L3.525 8.59363L0 5.09167L4.93039 4.42353L7.17671 0L7.17671 0Z" transform="translate(318.114 158.3485)" id="Path" fill="#50C2E6" stroke="none" />
      <path d="M7.1652 0L9.31936 4.48113L14.2267 5.25294L10.6326 8.68579L11.4159 13.5931L7.05 11.2316L2.62647 13.4895L3.51348 8.60515L0 5.10319L4.91887 4.43505L7.1652 0L7.1652 0Z" transform="translate(84.55392 182.8392)" id="Path" fill="#50C2E6" stroke="none" />
      <path d="M7.17671 0L9.31935 4.48113L14.2382 5.24142L10.6326 8.67427L11.4274 13.5816L7.04999 11.2201L2.62647 13.4895L3.525 8.60515L0 5.09167L4.93039 4.43505L7.17671 0L7.17671 0Z" transform="translate(295.8005 177.2522)" id="Path" fill="#50C2E6" stroke="none" />
      <path d="M5.08015 0L6.60073 3.1679L10.0797 3.70932L7.53382 6.13996L8.08676 9.61888L4.98799 7.94854L1.85466 9.54976L2.48823 6.09388L0 3.60564L3.49044 3.13334L5.08015 0L5.08015 0Z" transform="translate(41.21716 194.3358)" id="Path" fill="#50C2E6" stroke="none" />
      <path d="M5.08015 0L6.60074 3.1679L10.0797 3.72084L7.53382 6.15148L8.09829 9.61888L4.99951 7.94854L1.86618 9.56128L2.49976 6.09388L0 3.60564L3.49044 3.14486L5.08015 0L5.08015 0Z" transform="translate(94.42622 213.7348)" id="Path" fill="#50C2E6" stroke="none" />
      <path d="M5.08014 0L6.60073 3.1679L10.0797 3.70932L7.53382 6.13996L8.08676 9.61888L4.98799 7.94854L1.85466 9.54976L2.48823 6.09388L0 3.60564L3.49044 3.13334L5.08014 0L5.08014 0Z" transform="translate(343.123 177.5402)" id="Path" fill="#50C2E6" stroke="none" />
      <path d="M25.9767 134.031L0.138187 20.9772C-0.216767 19.3039 0.118685 17.5581 1.06853 16.1355C2.01838 14.7129 3.50221 13.7339 5.18378 13.4203L69.0255 0L97.6978 125.425L33.8676 138.846C30.368 139.638 26.8723 137.505 25.9767 134.031L25.9767 134.031Z" transform="translate(110.3118 131.0816)" id="Path" fill="#7CADDF" stroke="none" />
      <path d="M25.4768 132.771L0.133651 21.9528C-0.638163 18.5891 2.01135 15.1793 6.05473 14.3268L73.6518 0.11165C76.1398 -0.438184 78.6128 1.09468 79.2273 3.56753L105.331 117.738C105.588 118.924 105.355 120.163 104.685 121.174C104.014 122.185 102.963 122.882 101.771 123.107L34.1741 137.322C30.1422 138.163 26.3062 136.124 25.4768 132.771Z" transform="translate(111.9291 132.433)" id="Path" fill="#D1EFF8" stroke="none" />
      <path d="M69.7331 7.01544L8.89807 19.8598C7.02815 20.236 5.81654 22.056 6.19097 23.9262L32.0294 136.945C32.5009 138.82 34.383 139.976 36.2687 139.549L84.4091 129.423L85.7223 135.183L37.5819 145.308C32.4595 146.442 27.3619 143.307 26.0623 138.224L0.20077 25.1243C-0.316488 22.6757 0.175358 20.1219 1.56507 18.0406C2.95479 15.9593 5.12498 14.5262 7.58484 14.0654L74.3986 0" transform="translate(107.2541 127.5912)" id="Path" fill="#0078C0" stroke="none" />
      <path d="M36.7172 147.785C31.6971 147.84 27.2988 144.434 26.0961 139.56L0.257626 26.5412C-0.356645 23.878 0.138181 21.0795 1.62846 18.7885C3.19712 16.3403 5.69073 14.6322 8.54023 14.0539L75.354 0L75.8493 2.30392L9.03557 16.4039C6.80746 16.8594 4.85625 18.192 3.62135 20.1017C2.47934 21.8585 2.09705 24.0027 2.56155 26.0458L28.4116 139.076C29.5518 143.542 34.0432 146.286 38.5373 145.262L85.5027 135.39L84.7194 131.934L37.7194 141.818C35.2164 142.377 32.7218 140.847 32.0863 138.362L6.24782 25.2855C5.96416 24.1002 6.18079 22.8504 6.84684 21.8297C7.52558 20.7556 8.61768 20.0095 9.86498 19.7676L70.7 6.96936L71.1954 9.27328L10.3027 22.1637C9.68318 22.2907 9.13997 22.6598 8.79366 23.189C8.48291 23.6652 8.37897 24.2473 8.50567 24.8017L34.3557 137.821C34.4971 138.425 34.8764 138.947 35.4077 139.268C35.9389 139.588 36.5772 139.681 37.178 139.525L86.4589 129.158L88.302 137.222L38.9866 147.589C38.2384 147.729 37.4783 147.795 36.7172 147.785L36.7172 147.785Z" transform="translate(106.0453 126.4392)" id="Path" fill="#0078C0" stroke="none" />
      <path d="M1.31324 82.4343L0 76.6745L20.862 72.2971C21.801 72.1196 22.6286 71.5709 23.1577 70.7751C23.6868 69.9794 23.8725 69.0038 23.6728 68.0694L8.40931 1.25564L14.3995 0L29.663 66.8137C30.1904 69.2977 29.693 71.8894 28.2834 74.0016C26.8738 76.1138 24.6714 77.5677 22.1752 78.0338L1.31324 82.4343Z" transform="translate(191.0642 180.4892)" id="Path" fill="#0078C0" stroke="none" />
      <path d="M0 77.1238L1.84314 85.1875L23.8456 80.6142C26.7391 80.0244 29.2725 78.2925 30.8726 75.8105C32.3706 73.4883 32.869 70.6601 32.2549 67.9657L16.7265 0L8.40932 1.75098L23.9493 69.7167C24.0893 70.3019 23.9809 70.9191 23.6498 71.4216C23.2832 71.9851 22.7068 72.3791 22.0485 72.5159L0 77.1238ZM3.6402 82.3998L2.85686 78.9439L22.5439 74.8083C23.8267 74.549 24.9492 73.7799 25.6542 72.6772C26.3095 71.6525 26.5331 70.4102 26.2762 69.2213L11.3007 3.55956L14.964 2.78774L29.9395 68.4495C30.4119 70.5237 30.0255 72.7008 28.8681 74.4858C27.6158 76.4327 25.6301 77.7911 23.3618 78.2527L3.6402 82.3998Z" transform="translate(189.6012 179.1414)" id="Shape" fill="#0078C0" fill-rule="evenodd" stroke="none" />
      <path d="M6.91177 30.9186L0 1.25564L5.9902 0L12.902 29.6515L6.91177 30.9186L6.91177 30.9186Z" transform="translate(191.525 146.6676)" id="Path" fill="#0078C0" stroke="none" />
      <path d="M0 2.07353L7.59142 35.9066L15.8971 34.1672L8.19044 0L0 2.07353ZM9.3424 33.1073L2.98358 5.7598L6.64681 4.98799L13.0172 32.3355L9.3424 33.1073Z" transform="translate(189.9468 143.0735)" id="Shape" fill="#0078C0" fill-rule="evenodd" stroke="none" />
      <path d="M0 10.5303L48.8892 0.243262C54.0944 -0.931306 59.2869 2.25782 60.5931 7.4315L62.4478 15.4952L56.4576 16.7509L54.6029 8.68714C54.109 6.74364 52.1599 5.54458 50.2025 5.98003L7.28039 15.0114" transform="translate(134.2725 127.129)" id="Path" fill="#0078C0" stroke="none" />
      <path d="M55.8816 19.3429L53.762 10.1272C53.417 8.80811 52.0824 8.00532 50.7554 8.31864L7.83333 17.35L7.34951 15.0461L50.3292 5.95712C52.9029 5.41321 55.4464 7.00036 56.089 9.55124L57.6787 16.5436L61.3534 15.7718L59.7637 8.86006C58.6011 4.28628 53.9914 1.4846 49.3961 2.55883L0.483824 12.8574L0 10.5534L48.9123 0.266431C54.7436 -1.03249 60.551 2.53975 62.0216 8.33016L64.1412 17.6265L55.8816 19.3429Z" transform="translate(133.9846 126)" id="Path" fill="#0078C0" stroke="none" />
      <path d="M5.875 21.6669L0 17.6696C5.99865 8.90477 15.2135 2.86089 25.6426 0.851013C36.133 -1.30338 47.05 0.668791 56.1235 6.35739L52.3451 12.3821C44.8287 7.65848 35.7827 6.00851 27.0826 7.7743C18.4587 9.42921 10.837 14.422 5.875 21.6669L5.875 21.6669Z" transform="translate(139.7098 202.8502)" id="Path" fill="#0078C0" stroke="none" />
      <path d="M8.05221 16.1044C12.4993 16.1044 16.1044 12.4993 16.1044 8.05222C16.1044 3.6051 12.4993 0 8.05221 0C3.6051 0 0 3.6051 0 8.05222C0 12.4993 3.6051 16.1044 8.05221 16.1044Z" transform="translate(132.9478 165.3985)" id="Oval" fill="#0078C0" stroke="none" />
      <path d="M8.0522 16.1044C12.4993 16.1044 16.1044 12.4993 16.1044 8.05222C16.1044 3.6051 12.4993 0 8.0522 0C3.60509 0 0 3.6051 0 8.05222C0 12.4993 3.60509 16.1044 8.0522 16.1044Z" transform="translate(163.7973 159.5696)" id="Oval" fill="#0078C0" stroke="none" />
      <path d="M0.0944181 118.8L21.9817 5.15903C22.7416 1.65146 26.185 -0.589374 29.6998 0.136485L93.9677 12.0938L69.6153 138.199L5.39344 126.242C3.69994 125.965 2.18715 125.024 1.19187 123.626C0.196589 122.228 -0.198553 120.491 0.0944181 118.8Z" transform="translate(175.5911 134.3204)" id="Path" fill="#7CADDF" stroke="none" />
      <path d="M0.093466 116.326L21.6121 4.89647C22.2572 1.52123 26.0817 -0.598378 30.1481 0.150397L98.1138 12.822C100.595 13.2671 102.258 15.6228 101.846 18.1095L79.6824 132.902C79.1633 135.393 76.7243 136.991 74.2337 136.473L6.21038 123.802C2.21307 123.053 -0.551632 119.701 0.093466 116.326Z" transform="translate(177.2279 136.8638)" id="Path" fill="#85BEE1" stroke="none" />
      <path d="M93.4324 17.3841L32.2172 5.99117C30.3297 5.60743 28.4851 6.81489 28.0817 8.69828L6.19441 122.328C6.03451 123.237 6.24536 124.173 6.77993 124.926C7.3145 125.679 8.1283 126.187 9.03976 126.337L57.4221 135.345L56.2702 141.105L7.8878 132.085C5.41185 131.673 3.20193 130.292 1.74697 128.247C0.292 126.202 -0.288068 123.661 0.135099 121.187L22.08 7.54632C23.1912 2.42077 28.2198 -0.856329 33.3577 0.196811L100.598 12.7071" transform="translate(172.5553 131.3456)" id="Path" fill="#0078C0" stroke="none" />
      <path d="M58.4842 143.682L8.89233 134.466C6.00487 133.943 3.4482 132.283 1.79625 129.858C0.249012 127.613 -0.332028 124.841 0.183507 122.163L22.1284 8.52211C23.3621 2.7486 29.0136 -0.955726 34.7999 0.216472L102.04 12.7383L101.602 15.0422L34.3622 2.52039C29.8617 1.58039 25.4448 4.44438 24.4668 8.93682L2.57959 122.578C2.18777 124.635 2.63582 126.763 3.8237 128.487C5.12083 130.384 7.12581 131.679 9.38767 132.081L56.6757 140.882L57.3323 137.427L10.1019 128.626C8.84879 128.398 7.74009 127.676 7.02615 126.621C6.3392 125.636 6.08148 124.413 6.31194 123.234L28.1992 9.59343C28.7358 7.07682 31.1923 5.45625 33.7171 5.95324L94.9323 17.3461L94.4945 19.6501L33.2793 8.24564C32.6803 8.11215 32.0529 8.22314 31.536 8.55401C31.0192 8.88488 30.6557 9.40828 30.5262 10.0081L8.5813 123.649C8.47459 124.208 8.59932 124.786 8.92689 125.25C9.28248 125.787 9.8464 126.15 10.482 126.253L60.097 135.468L58.4842 143.682Z" transform="translate(171.3204 130.174)" id="Path" fill="#0078C0" stroke="none" />
      <path d="M0 71.8132L1.15196 66.0534L22.1407 69.9586C24.1038 70.3572 26.023 69.1051 26.449 67.1478L39.4086 0L45.4449 1.15196L32.4738 68.3113C31.3399 73.5107 26.2367 76.8324 21.0233 75.7645L0 71.8132Z" transform="translate(228.1919 200.6255)" id="Path" fill="#0078C0" stroke="none" />
      <path d="M22.1637 78.2181C22.8546 78.3507 23.5568 78.4163 24.2603 78.414C29.4181 78.4857 33.9105 74.9091 34.9966 69.8664L47.9676 2.70711L48.1865 1.55515L39.8348 0L26.6448 68.2882C26.3359 69.6 25.0386 70.4274 23.7189 70.1544L1.56667 66.0304L0 74.0941L22.1637 78.2181ZM22.6015 75.8912L2.78774 72.2049L3.42132 68.749L23.2466 72.4468C25.8481 72.9652 28.3835 71.2972 28.9373 68.7029L41.7125 2.69559L45.4103 3.38676L32.6696 69.3711C31.6634 73.9335 27.1763 76.8394 22.6015 75.8912Z" transform="translate(226.798 199.2892)" id="Shape" fill="#0078C0" fill-rule="evenodd" stroke="none" />
      <path d="M0 33.2341L6.54314 0L12.1417 1.46299L6.02475 34.363L0 33.2341L0 33.2341Z" transform="translate(268.0613 165.2603)" id="Path" fill="#0078C0" stroke="none" />
      <path d="M0 36.4596L8.27109 38.1529L15.252 1.7049L6.91177 0L0 36.4596ZM6.80809 33.0728L3.1103 32.3931L8.55908 4.30833L12.2569 4.99951L6.80809 33.0728Z" transform="translate(266.6674 162.9909)" id="Shape" fill="#0078C0" fill-rule="evenodd" stroke="none" />
      <path d="M0 0L49.2118 9.21569C51.7253 9.63299 53.9692 11.034 55.4477 13.109C56.9262 15.1841 57.5176 17.7625 57.0912 20.2745L55.513 28.4419L49.4882 27.2899L51.0664 19.0765C51.2296 18.1319 51.0086 17.1612 50.4527 16.3803C49.8967 15.5994 49.0519 15.0729 48.1059 14.9179L4.90735 6.85417" transform="translate(225.4042 135.2863)" id="Path" fill="#0078C0" stroke="none" />
      <path d="M56.6765 30.9647L48.3132 29.4096L50.1218 20.0672C50.2271 19.4725 50.0948 18.8603 49.7532 18.3623C49.3665 17.8044 48.7739 17.4231 48.1059 17.3025L4.90735 9.23873L5.3451 6.9348L48.5321 14.9985C49.8248 15.2259 50.9711 15.9652 51.7115 17.049C52.4068 18.0572 52.6721 19.3007 52.4488 20.5049L51.0895 27.4973L54.7873 28.1885L56.1466 21.1846C56.5488 19.0913 56.0921 16.9243 54.8794 15.1713C53.5635 13.2413 51.5239 11.9245 49.2233 11.5196L0 2.30392L0.437745 0L49.6495 9.15809C52.5644 9.67349 55.1524 11.3325 56.8378 13.7659C58.4001 16.0438 58.989 18.851 58.4735 21.5647L56.6765 30.9647Z" transform="translate(225.1853 134.0882)" id="Path" fill="#0078C0" stroke="none" />
      <path d="M34.0174 21.5417C31.2757 21.54 28.5406 21.2738 25.85 20.7468C15.3893 18.7667 6.11449 12.7819 0 4.06642L5.82892 0C10.8946 7.1942 18.5636 12.132 27.2093 13.7659C35.8901 15.5099 44.909 13.8299 52.3797 9.07745L56.2042 15.0676C49.58 19.3033 41.88 21.5502 34.0174 21.5417Z" transform="translate(197.9299 204.2427)" id="Path" fill="#0078C0" stroke="none" />
      <path d="M8.0522 16.1044C12.4993 16.1044 16.1044 12.4993 16.1044 8.05221C16.1044 3.6051 12.4993 0 8.0522 0C3.60509 0 0 3.6051 0 8.05221C0 12.4993 3.60509 16.1044 8.0522 16.1044Z" transform="translate(210.0601 160.1571)" id="Oval" fill="#0078C0" stroke="none" />
      <path d="M8.0522 16.1044C12.4993 16.1044 16.1044 12.4993 16.1044 8.05222C16.1044 3.6051 12.4993 0 8.0522 0C3.60509 0 0 3.6051 0 8.05222C0 12.4993 3.60509 16.1044 8.0522 16.1044Z" transform="translate(240.8865 166.1243)" id="Oval" fill="#0078C0" stroke="none" />
      <g id="Oval">
        <g clip-path="url(#clip_1)">
          <use xlink:href="#path_1" fill="none" stroke="#003E52" stroke-width="36" />
        </g>
      </g>
    </g>
    <path d="M0 0L470 0L470 470L0 470L0 0Z" id="Rectangle" fill="none" stroke="none" />
  </g>
</svg>