<?xml version="1.0" encoding="UTF-8"?>
<svg width="76px" height="24px" viewBox="0 0 76 24" version="1.1" xmlns="http://www.w3.org/2000/svg" xmlns:xlink="http://www.w3.org/1999/xlink">
    <title>Swish_Logo_Secondary_Light-BG_SVG</title>
    <defs>
        <linearGradient x1="80.8150544%" y1="59.6365716%" x2="59.8678229%" y2="8.14952521%" id="linearGradient-1">
            <stop stop-color="#EF2131" offset="0%"></stop>
            <stop stop-color="#FECF2C" offset="100%"></stop>
        </linearGradient>
        <linearGradient x1="58.8181173%" y1="0%" x2="9.24395007%" y2="94.0712606%" id="linearGradient-2">
            <stop stop-color="#FBC52C" offset="0%"></stop>
            <stop stop-color="#F87130" offset="26.3921199%"></stop>
            <stop stop-color="#EF52E2" offset="56.079734%"></stop>
            <stop stop-color="#661EEC" offset="100%"></stop>
        </linearGradient>
        <linearGradient x1="20.5690473%" y1="41.0176198%" x2="40.5972643%" y2="91.2765373%" id="linearGradient-3">
            <stop stop-color="#78F6D8" offset="0%"></stop>
            <stop stop-color="#77D1F6" offset="26.5705044%"></stop>
            <stop stop-color="#70A4F3" offset="55.447147%"></stop>
            <stop stop-color="#661EEC" offset="100%"></stop>
        </linearGradient>
        <linearGradient x1="42.4403836%" y1="100%" x2="91.6136906%" y2="6.27757791%" id="linearGradient-4">
            <stop stop-color="#536EED" offset="0%"></stop>
            <stop stop-color="#54C3EC" offset="24.6657524%"></stop>
            <stop stop-color="#64D769" offset="56.4199509%"></stop>
            <stop stop-color="#FECF2C" offset="100%"></stop>
        </linearGradient>
    </defs>
    <g id="Desktop" stroke="none" stroke-width="1" fill="none" fill-rule="evenodd">
        <g id="D---Delbetalning" transform="translate(-1013.000000, -817.000000)" fill-rule="nonzero">
            <g id="Swish_Logo_Secondary_Light-BG_SVG" transform="translate(1013.000000, 817.000000)">
                <g id="Wordmark/Swish" transform="translate(29.000000, 4.000000)" fill="#4A4A49">
                    <path d="M43.179079,2.13137135 C43.179079,1.85935619 43.2283696,1.60434579 43.3269525,1.36633251 C43.4255354,1.12831924 43.5593245,0.920731834 43.7283237,0.74356406 C43.8973229,0.566396286 44.0953658,0.42681165 44.3224585,0.324805961 C44.5495511,0.222800274 44.793364,0.171798195 45.0539044,0.171798195 C45.3179657,0.171798195 45.5652994,0.222800274 45.7959128,0.324805961 C46.0265264,0.42681165 46.2272099,0.566396286 46.3979695,0.74356406 C46.5687291,0.920731834 46.7033983,1.12831924 46.8019812,1.36633251 C46.900564,1.60434579 46.9498547,1.85935619 46.9498547,2.13137135 C46.9498547,2.40338651 46.900564,2.65839691 46.8019812,2.89641019 C46.7033983,3.13442346 46.5687291,3.34201086 46.3979695,3.51917864 C46.2272099,3.69634641 46.0265264,3.83593105 45.7959128,3.93793673 C45.5652994,4.03994243 45.3179657,4.09094451 45.0539044,4.09094451 C44.793364,4.09094451 44.5495511,4.03994243 44.3224585,3.93793673 C44.0953658,3.83593105 43.8973229,3.69634641 43.7283237,3.51917864 C43.5593245,3.34201086 43.4255354,3.13442346 43.3269525,2.89641019 C43.2283696,2.65839691 43.179079,2.40338651 43.179079,2.13137135 Z M43.5646064,2.13137135 C43.5646064,2.35685761 43.6024546,2.56623456 43.6781522,2.7595085 C43.7538498,2.95278147 43.8585925,3.12099982 43.9923835,3.2641657 C44.1261746,3.40733158 44.2837287,3.520073 44.4650508,3.60239339 C44.6463728,3.68471377 44.8426555,3.72587334 45.0539044,3.72587334 C45.2686742,3.72587334 45.4675975,3.68471377 45.6506799,3.60239339 C45.8337623,3.520073 45.9930769,3.40733158 46.1286283,3.2641657 C46.2641798,3.12099982 46.3706829,2.95278147 46.4481408,2.7595085 C46.5255988,2.56623456 46.5643272,2.35685761 46.5643272,2.13137135 C46.5643272,1.90588509 46.5255988,1.69650814 46.4481408,1.5032342 C46.3706829,1.30996027 46.2641798,1.14174288 46.1286283,0.998577005 C45.9930769,0.855411126 45.8337623,0.742669689 45.6506799,0.660349309 C45.4675975,0.57802893 45.2686742,0.536869358 45.0539044,0.536869358 C44.8426555,0.536869358 44.6463728,0.57802893 44.4650508,0.660349309 C44.2837287,0.742669689 44.1261746,0.855411126 43.9923835,0.998577005 C43.8585925,1.14174288 43.7538498,1.30996027 43.6781522,1.5032342 C43.6024546,1.69650814 43.5646064,1.90588509 43.5646064,2.13137135 Z M44.4095982,1.28848646 C44.4095982,1.17037461 44.4676908,1.11131957 44.5838777,1.11131957 L45.1806532,1.11131957 C45.3707773,1.11131957 45.5221702,1.16679552 45.6348363,1.27774907 C45.7475024,1.38870263 45.8038347,1.53902454 45.8038347,1.72871933 C45.8038347,1.80746056 45.7923922,1.87725288 45.7695069,1.93809838 C45.7466216,1.99894387 45.7175753,2.05173551 45.682367,2.09647485 C45.6471589,2.14121417 45.6084305,2.17789988 45.5661806,2.20653306 C45.5239309,2.23516623 45.4816818,2.25485125 45.4394319,2.26558868 L45.4394319,2.27632608 C45.4429527,2.27990522 45.4482339,2.28706341 45.4552756,2.29780085 C45.4623171,2.30495914 45.4693587,2.31659119 45.4764003,2.33269736 C45.483442,2.34880352 45.4940042,2.36759376 45.5080876,2.38906863 L45.7827099,2.93130669 C45.8143971,2.99215218 45.8214387,3.04136472 45.8038347,3.07894576 C45.7862305,3.1165268 45.7475021,3.13531704 45.6876483,3.13531704 L45.6242738,3.13531704 C45.5256911,3.13531704 45.4570361,3.09236792 45.4183072,3.0064684 L45.1119976,2.35148779 L44.7845634,2.35148779 L44.7845634,2.96351885 C44.7845634,3.07805156 44.7299915,3.13531704 44.6208461,3.13531704 L44.5733154,3.13531704 C44.4641701,3.13531704 44.4095982,3.07805156 44.4095982,2.96351885 L44.4095982,1.28848646 Z M45.1014353,2.07231571 C45.2035389,2.07231571 45.2827561,2.04189342 45.3390892,1.98104793 C45.3954222,1.92020243 45.4235883,1.83609375 45.4235883,1.72871933 C45.4235883,1.62492406 45.3954222,1.54439446 45.3390892,1.48712812 C45.2827561,1.42986177 45.2052993,1.40122902 45.1067164,1.40122902 L44.7845634,1.40122902 L44.7845634,2.07231571 L45.1014353,2.07231571 Z M29.7071276,3.35597036 C30.3041701,3.35597036 30.810478,3.43332351 31.2260664,3.58803214 C31.6416547,3.74274076 31.9665112,3.88554659 32.2006454,4.01645388 C32.3996597,4.12355985 32.516725,4.26636568 32.5518451,4.44487563 C32.5869653,4.62338558 32.557699,4.81379335 32.4640453,5.01610463 L32.2884454,5.33742094 C32.183085,5.55163289 32.0484598,5.67658797 31.8845658,5.71228997 C31.7206718,5.74799195 31.5275138,5.71824074 31.3050863,5.62303544 C31.1060721,5.52783013 30.8660881,5.42965112 30.5851268,5.32849548 C30.3041657,5.22733984 29.9763826,5.17676278 29.6017677,5.17676278 C29.2154461,5.17676278 28.9169293,5.25411593 28.7062085,5.40882456 C28.4954875,5.56353318 28.3901287,5.78369216 28.3901287,6.06930808 C28.3901287,6.31922203 28.4984142,6.52153026 28.7149885,6.6762389 C28.9315627,6.83094753 29.2066663,6.9678031 29.5403077,7.08680973 C29.8739491,7.20581637 30.2309986,7.33374658 30.6114669,7.47060422 C30.9919351,7.60746185 31.3489846,7.782994 31.6826259,7.99720595 C32.0162673,8.21141789 32.291371,8.48512906 32.5079453,8.81834763 C32.7245194,9.15156622 32.8328049,9.57403343 32.8328049,10.085762 C32.8328049,10.4903845 32.7537858,10.8622747 32.5957451,11.2014436 C32.4377044,11.5406125 32.209427,11.8351495 31.9109057,12.0850635 C31.6123844,12.3349774 31.2524084,12.5313354 30.8309667,12.6741434 C30.4095249,12.8169513 29.9412633,12.8883542 29.4261678,12.8883542 C28.7003514,12.8883542 28.0886849,12.7812499 27.5911495,12.5670379 C27.0936141,12.352826 26.7102249,12.1505177 26.4409703,11.9601071 C26.2419562,11.8411005 26.1307441,11.6923444 26.1073307,11.5138345 C26.0839173,11.3353245 26.1365966,11.1449167 26.2653706,10.9426055 L26.4760903,10.6212891 C26.6048642,10.4308785 26.7482693,10.3237742 26.9063099,10.2999728 C27.0643506,10.2761715 27.2545819,10.3237735 27.4770096,10.4427801 C27.6877304,10.5617867 27.9599074,10.6956672 28.2935487,10.8444255 C28.6271901,10.9931838 29.0222859,11.0675618 29.4788478,11.0675618 C29.8651693,11.0675618 30.1695395,10.9842584 30.391967,10.8176491 C30.6143946,10.6510398 30.7256068,10.4249306 30.7256068,10.1393147 C30.7256068,9.88940076 30.6173213,9.69006763 30.400747,9.54130932 C30.1841727,9.39255104 29.9090691,9.25569545 29.5754277,9.13073849 C29.2417863,9.00578152 28.8847369,8.87190106 28.5042686,8.7290931 C28.1238003,8.58628514 27.766751,8.40777786 27.4331096,8.19356591 C27.0994682,7.97935398 26.8243645,7.70564281 26.6077902,7.37242424 C26.391216,7.03920565 26.2829305,6.61078818 26.2829305,6.08715899 C26.2829305,5.64683445 26.3736562,5.25411844 26.5551102,4.90899918 C26.7365644,4.56387994 26.9824018,4.2782683 27.2926296,4.0521557 C27.6028576,3.82604308 27.9657603,3.65348605 28.3813487,3.53447942 C28.7969371,3.41547278 29.238859,3.35597036 29.7071276,3.35597036 Z M3.60520009,3.35597036 C4.20224255,3.35597036 4.7085504,3.43332351 5.12413879,3.58803214 C5.53972718,3.74274076 5.86458365,3.88554659 6.09871795,4.01645388 C6.29773211,4.12355985 6.41479751,4.26636568 6.44991765,4.44487563 C6.48503781,4.62338558 6.45577145,4.81379335 6.36211773,5.01610463 L6.18651787,5.33742094 C6.08115745,5.55163289 5.94653223,5.67658797 5.78263823,5.71228997 C5.61874421,5.74799195 5.4255863,5.71824074 5.20315872,5.62303544 C5.00414456,5.52783013 4.76416049,5.42965112 4.48319934,5.32849548 C4.20223817,5.22733984 3.87445506,5.17676278 3.49984017,5.17676278 C3.11351856,5.17676278 2.81500181,5.25411593 2.60428093,5.40882456 C2.39356006,5.56353318 2.28820121,5.78369216 2.28820121,6.06930808 C2.28820121,6.31922203 2.3964867,6.52153026 2.61306093,6.6762389 C2.82963516,6.83094753 3.10473883,6.9678031 3.43838023,7.08680973 C3.77202161,7.20581637 4.12907106,7.33374658 4.50953931,7.47060422 C4.89000756,7.60746185 5.24705701,7.782994 5.5806984,7.99720595 C5.91433978,8.21141789 6.18944347,8.48512906 6.4060177,8.81834763 C6.62259193,9.15156622 6.73087742,9.57403343 6.73087742,10.085762 C6.73087742,10.4903845 6.65185827,10.8622747 6.49381762,11.2014436 C6.33577696,11.5406125 6.10749944,11.8351495 5.8089782,12.0850635 C5.51045696,12.3349774 5.15048087,12.5313354 4.72903912,12.6741434 C4.30759737,12.8169513 3.83933579,12.8883542 3.32424032,12.8883542 C2.59842398,12.8883542 1.98675728,12.7812499 1.48922188,12.5670379 C0.991686487,12.352826 0.608297315,12.1505177 0.339042865,11.9601071 C0.140028707,11.8411005 0.0288165801,11.6923444 0.00540314969,11.5138345 C-0.0180102808,11.3353245 0.0346691476,11.1449167 0.163443015,10.9426055 L0.374162835,10.6212891 C0.502936702,10.4308785 0.646341814,10.3237742 0.804382469,10.2999728 C0.962423124,10.2761715 1.15265439,10.3237735 1.37508198,10.4427801 C1.58580285,10.5617867 1.85797991,10.6956672 2.19162129,10.8444255 C2.52526267,10.9931838 2.92035839,11.0675618 3.37692028,11.0675618 C3.76324188,11.0675618 4.06761191,10.9842584 4.2900395,10.8176491 C4.51246708,10.6510398 4.62367921,10.4249306 4.62367921,10.1393147 C4.62367921,9.88940076 4.51539372,9.69006763 4.29881949,9.54130932 C4.08224526,9.39255104 3.80714158,9.25569545 3.4735002,9.13073849 C3.1398588,9.00578152 2.78280935,8.87190106 2.4023411,8.7290931 C2.02187287,8.58628514 1.6648234,8.40777786 1.33118202,8.19356591 C0.997540636,7.97935398 0.722436955,7.70564281 0.505862723,7.37242424 C0.289288492,7.03920565 0.181003,6.61078818 0.181003,6.08715899 C0.181003,5.64683445 0.271728682,5.25411844 0.453182768,4.90899918 C0.634636853,4.56387994 0.880474186,4.2782683 1.19070214,4.0521557 C1.50093009,3.82604308 1.86383282,3.65348605 2.27942121,3.53447942 C2.6950096,3.41547278 3.13693147,3.35597036 3.60520009,3.35597036 Z M35.6239184,0 C36.1156005,0 36.3614378,0.249910187 36.3614378,0.749738057 L36.3614378,4.42702472 C36.3614378,4.54603135 36.3585111,4.6501606 36.3526578,4.73941558 C36.3468044,4.82867056 36.3380245,4.90899883 36.3263177,4.98040281 C36.314611,5.06370745 36.3087578,5.13511037 36.3087578,5.19461368 L36.3438777,5.19461368 C36.4492381,4.98040174 36.5984965,4.76321789 36.7916573,4.54305561 C36.9848182,4.32289334 37.2130957,4.12356021 37.4764968,3.94505025 C37.7398979,3.7665403 38.0384147,3.62373448 38.3720561,3.51662851 C38.7056974,3.40952253 39.0656735,3.35597036 39.4519951,3.35597036 C40.4470659,3.35597036 41.2167708,3.62968151 41.7611331,4.17711203 C42.3054954,4.72454256 42.5776724,5.60517845 42.5776724,6.81904615 L42.5776724,11.9244053 C42.5776724,12.4242332 42.3318351,12.6741434 41.8401531,12.6741434 L41.0850736,12.6741434 C40.5933917,12.6741434 40.3475544,12.4242332 40.3475544,11.9244053 L40.3475544,7.28316971 C40.3475544,6.72383852 40.253902,6.2745952 40.0665946,5.93542628 C39.8792872,5.59625738 39.5046779,5.42667546 38.9427555,5.42667546 C38.5564339,5.42667546 38.2023111,5.50402861 37.8803764,5.65873725 C37.5584417,5.81344588 37.2862647,6.02467949 37.0638371,6.29244441 C36.8414096,6.56020934 36.668738,6.87854732 36.5458176,7.24746789 C36.422897,7.61638846 36.3614378,8.01505471 36.3614378,8.4434786 L36.3614378,11.9244053 C36.3614378,12.4242332 36.1156005,12.6741434 35.6239184,12.6741434 L34.868839,12.6741434 C34.3771569,12.6741434 34.1313196,12.4242332 34.1313196,11.9244053 L34.1313196,0.749738057 C34.1313196,0.249910187 34.3771569,0 34.868839,0 L35.6239184,0 Z M23.9568267,3.57018122 C24.436802,3.57018122 24.676786,3.82009141 24.676786,4.31991929 L24.676786,11.9244053 C24.676786,12.4242332 24.436802,12.6741434 23.9568267,12.6741434 L23.1841873,12.6741434 C22.704212,12.6741434 22.4642279,12.4242332 22.4642279,11.9244053 L22.4642279,4.31991929 C22.4642279,3.82009141 22.704212,3.57018122 23.1841873,3.57018122 L23.9568267,3.57018122 Z M9.05737739,3.57018122 C9.50223256,3.57018122 9.7656297,3.7903402 9.84757671,4.23066476 L11.2874955,9.55023478 C11.3109089,9.68114208 11.3313954,9.80014694 11.3489554,9.90725291 C11.3665155,10.0143589 11.387002,10.115513 11.4104154,10.2107183 C11.4338288,10.3178243 11.4513886,10.4189784 11.4630953,10.5141837 L11.4982153,10.5141837 C11.509922,10.4189784 11.5274818,10.3178243 11.5508953,10.2107183 C11.5743087,10.115513 11.5947951,10.0143589 11.6123552,9.90725291 C11.6299153,9.80014694 11.656255,9.68114208 11.6913751,9.55023478 L13.2015339,4.23066476 C13.2834809,3.80224087 13.5527312,3.58803214 14.0092932,3.58803214 L14.6765726,3.58803214 C15.1097211,3.58803214 15.3789715,3.80224087 15.4843319,4.23066476 L16.9769306,9.55023478 C17.0120508,9.68114208 17.0383905,9.80014694 17.0559505,9.90725291 C17.0735106,10.0143589 17.093997,10.115513 17.1174106,10.2107183 C17.140824,10.3178243 17.1583837,10.4189784 17.1700904,10.5141837 L17.2052104,10.5141837 C17.2169172,10.4189784 17.234477,10.3178243 17.2578904,10.2107183 C17.2813038,10.115513 17.3017902,10.0143589 17.3193503,9.90725291 C17.3369105,9.80014694 17.3632501,9.68114208 17.3983702,9.55023478 L18.8207291,4.23066476 C18.9260895,3.7903402 19.19534,3.57018122 19.6284884,3.57018122 L20.4362477,3.57018122 C20.7055021,3.57018122 20.8928068,3.64753438 20.9981672,3.802243 C21.1035277,3.95695163 21.1210875,4.15925988 21.0508472,4.40917381 L18.7504891,12.0493616 C18.633422,12.4658849 18.3583183,12.6741434 17.9251699,12.6741434 L16.7486508,12.6741434 C16.3037957,12.6741434 16.028692,12.4599346 15.9233316,12.0315107 L14.5712126,7.47952967 C14.5360925,7.36052303 14.5068262,7.24151818 14.4834128,7.12251155 C14.4599993,7.00350492 14.4365863,6.89640054 14.4131729,6.80119523 C14.3897594,6.69408926 14.3721996,6.59293514 14.3604929,6.49772984 L14.3253729,6.49772984 C14.3019595,6.59293514 14.2785464,6.69408926 14.255133,6.80119523 C14.2317195,6.89640054 14.2083065,7.00350492 14.184893,7.12251155 C14.1614796,7.24151818 14.1322132,7.36052303 14.0970931,7.47952967 L12.7449742,12.0315107 C12.6396138,12.4599346 12.3703634,12.6741434 11.9372149,12.6741434 L10.725576,12.6741434 C10.3041342,12.6741434 10.0348838,12.4658849 9.91781665,12.0493616 L7.59989863,4.40917381 C7.52965834,4.15925988 7.55014478,3.95695163 7.66135857,3.802243 C7.77257238,3.64753438 7.95695037,3.57018122 8.2144981,3.57018122 L9.05737739,3.57018122 Z" id="swish®"></path>
                </g>
                <g id="Symbol/Colour">
                    <g id="Right-Swirl" transform="translate(6.497938, 2.674392)">
                        <path d="M0,19.0607975 C4.58971913,21.2558767 10.2540632,20.1695379 13.676093,16.0921527 C17.7321254,11.2593862 17.102139,4.05467136 12.2689709,-7.38643296e-15 L9.05596225,3.82835821 C12.8318421,6.996073 13.324028,12.6247397 10.1552645,16.4003518 C7.62860298,19.4108768 3.46857318,20.4160659 0,19.0607975" id="Base-Shape" fill="url(#linearGradient-1)"></path>
                        <path d="M1.4772866e-14,19.0607975 C4.58971913,21.2558767 10.2540632,20.1695379 13.676093,16.0921527 C14.0951839,15.5928045 14.4640947,15.0680873 14.7836731,14.5241816 C15.3240758,11.1660318 14.1356584,7.61655437 11.3401119,5.27131375 C10.6298461,4.67544279 9.86096593,4.19539472 9.05645313,3.82880445 C12.8318867,6.99658619 13.3238718,12.6249182 10.1552645,16.4003518 C7.62860298,19.4108768 3.46857318,20.4160659 1.4772866e-14,19.0607975" id="Light-Cast" fill="url(#linearGradient-2)"></path>
                    </g>
                    <g id="Left-Swirl">
                        <path d="M16.3496373,1.11240547 C11.7599406,-1.08267371 6.09559654,0.00364282076 2.67356671,4.08102805 C-1.38246569,8.91381683 -0.752479305,16.1185316 4.08066647,20.1732031 L7.29369745,16.3448449 C3.51779533,13.17713 3.02563172,7.5484633 6.19439519,3.77282894 C8.72105671,0.762303954 12.8810865,-0.242885232 16.3496373,1.11240547" id="Base-shape" fill="url(#linearGradient-3)"></path>
                        <path d="M16.3496373,1.11240547 C11.7599406,-1.08267371 6.09559654,0.00364282076 2.67356671,4.08102805 C2.25445341,4.58039853 1.88554266,5.10511572 1.56598662,5.64902144 C1.0255616,9.00717129 2.2140013,12.5566264 5.00954776,14.9018893 C5.71981362,15.497738 6.48869377,15.9778083 7.29318426,16.3443763 C3.51777302,13.1766168 3.02576558,7.54828481 6.19439519,3.77282894 C8.72105671,0.762303954 12.8810865,-0.242885232 16.3496373,1.11240547" id="Shadow" fill="url(#linearGradient-4)"></path>
                    </g>
                </g>
            </g>
        </g>
    </g>
</svg>