<?xml version="1.0" standalone="no"?>
<!DOCTYPE svg PUBLIC "-//W3C//DTD SVG 1.1//EN" "http://www.w3.org/Graphics/SVG/1.1/DTD/svg11.dtd" >
<svg xmlns="http://www.w3.org/2000/svg" xmlns:xlink="http://www.w3.org/1999/xlink" version="1.1">
<metadata>
Created by FontForge 20170731 at Fri Nov  4 14:06:11 2022
 By Aleksey,,,
Copyright (c) 2017 by Svet Simov. All rights reserved.
</metadata>
<defs>
<font id="ZingRustDemo-Base" horiz-adv-x="0" >
  <font-face 
    font-family="Zing Rust Demo Base"
    font-weight="400"
    font-style="italic"
    font-stretch="normal"
    units-per-em="2048"
    panose-1="0 0 5 0 0 0 0 0 0 0"
    ascent="1638"
    descent="-410"
    x-height="1432"
    cap-height="1442"
    bbox="-1010 -471 1661 1903"
    underline-thickness="102"
    underline-position="-307"
    slope="-10"
    unicode-range="U+0020-2260"
  />
<missing-glyph horiz-adv-x="1024" 
d="M840 1638v-2048h-650v2048h650zM682 1501h-338v-67h133v-76h-135v-68h340v68h-135v76h135v67zM547 1237h-205v-213h340v70h-135v143zM477 1167v-73h-67v73h67zM682 969h-340v-68h135v-76h-135v-67h205v143h135v68zM682 846h-68v-135h-272v-70h340v205zM682 596h-205v-115
h70v47h67v-96h-204v164h-68v-231h340v231zM682 242h-340v-232h340v232zM614 174v-96h-204v96h204zM682 -37h-340v-67h143l-143 -97v-67h340v67h-209l143 97h66v67z" />
    <glyph glyph-name=".notdef" horiz-adv-x="1024" 
d="M840 1638v-2048h-650v2048h650zM682 1501h-338v-67h133v-76h-135v-68h340v68h-135v76h135v67zM547 1237h-205v-213h340v70h-135v143zM477 1167v-73h-67v73h67zM682 969h-340v-68h135v-76h-135v-67h205v143h135v68zM682 846h-68v-135h-272v-70h340v205zM682 596h-205v-115
h70v47h67v-96h-204v164h-68v-231h340v231zM682 242h-340v-232h340v232zM614 174v-96h-204v96h204zM682 -37h-340v-67h143l-143 -97v-67h340v67h-209l143 97h66v67z" />
    <glyph glyph-name=".null" 
 />
    <glyph glyph-name="nonmarkingreturn" horiz-adv-x="682" 
 />
    <glyph glyph-name="space" unicode=" " horiz-adv-x="458" 
 />
    <glyph glyph-name="exclam" unicode="!" horiz-adv-x="493" 
d="M344 453l-18 2l-25 2h-16l-15 2h-16l-16 -2l-21 2l-16 2h-37l-17 2l-16 16l-2 31l12 31v32l4 17l2 16l3 15l4 43l8 30l2 15l12 51l2 14l6 29l-2 12l11 39l6 23l6 79l10 17l4 28l-2 15l2 14l8 27v12l9 29v12l8 31l2 14v16l12 64l4 25l4 26l4 23l9 24l6 33l2 12l2 15l16 22
l14 6l13 6l16 5l4 2l19 -2h22l17 2h131l24 -4l10 -21l-2 -14v-27l-4 -6l-6 -25l2 -12l-6 -8l2 -21l-6 -12l-4 -29l-8 -18l-13 -80l-6 -22l-4 -15v-24l-4 -17l-2 -24v-17l-16 -53l-6 -29v-10l-15 -80l-8 -30v-17l-6 -31l-4 -28l-10 -62l2 -14l-11 -25l-6 -38l-4 -27l-2 -12
l-18 -86v-17l-9 -20l-43 -6h-14zM276 -2l-8 2h-67l-47 2l-37 2l-21 2l-26 4l-13 4l-4 13v53l6 22l-2 17l4 12l5 31l10 86l6 33l4 10l14 12l25 2l37 -2l55 -4h16l19 4l12 -2h33l31 -2h14l18 -10l17 -17l2 -28l-6 -31l-4 -25l-4 -28l-9 -37v-23l-4 -24l-2 -27l-6 -16l-18 -23
l-31 -12h-19z" />
    <glyph glyph-name="quotedbl" unicode="&#x22;" horiz-adv-x="811" 
d="M287 924l-43 2l-27 2l-20 2l-41 6l-9 12l-4 17l7 32v17l12 22l8 17l8 12l25 70l8 22l10 21l4 14l11 20l6 23l6 16l8 19l8 35l29 73l16 29l6 10l15 17h71l17 -2h20l21 2l33 -2l34 -7l19 -10l10 -16l-2 -29l-16 -31l-11 -24l-14 -29l-16 -31l-15 -28l-10 -23l-10 -20
l-15 -23l-12 -26l-12 -25l-16 -27l-19 -34l-16 -27l-11 -25l-18 -24l-8 -17l-21 -22zM696 924l-43 2l-26 2l-21 2l-41 6l-8 12l-4 17l6 32v17l12 22l9 17l8 12l24 70l9 22l10 21l4 14l10 20l6 23l6 16l9 19l8 35l28 73l17 29l6 10l14 17h72l16 -2h21l20 2l33 -2l35 -7
l18 -10l11 -16l-2 -29l-17 -31l-10 -24l-14 -29l-17 -31l-14 -28l-10 -23l-11 -20l-14 -23l-12 -26l-13 -25l-16 -27l-18 -34l-17 -27l-10 -25l-18 -24l-9 -17l-20 -22z" />
    <glyph glyph-name="numbersign" unicode="#" horiz-adv-x="1122" 
d="M1249 1061l4 -21v-14l-10 -10v-15l-8 -12l-8 -20l-6 -21l-9 -18l-12 -27l-2 -12l-10 -19l-12 -24l-9 -8l-16 -4h-25l-22 -2l-113 2l-2 -11l-8 -26l-8 -21l-12 -37l-7 -24l-8 -15l-6 -14l-4 -16l-6 -15l-21 -53l-6 -24l-12 -29l18 -2l23 -2l12 2l33 -2h76l12 -4h12l6 -11
l-8 -30l-4 -10l-4 -19l-6 -10l-6 -23l-6 -14l-7 -20l-12 -23l-2 -12l-6 -13l-4 -14l-12 -12l-19 -10h-59l-27 -3l-47 5h-35l-8 -19l-4 -16l-21 -58l-8 -26l-4 -15l-4 -22l-4 -12l-10 -25l-4 -12l-11 -27l-6 -29l-12 -26l-4 -17l-10 -18l-19 -6h-43l-10 2h-47l-12 2l-11 2
h-14l-10 -2l-19 2l-12 2l-12 -2l-11 4l-12 14l6 31l13 29l8 31l6 14l8 29l6 16l11 31l4 14l6 16l4 15l12 26l2 13l6 24l4 13l5 10h-33l-10 -2l-13 2h-26l-17 -2h-43l-26 -2l-19 2l-8 -21l-4 -20l-21 -58l-8 -26l-4 -15l-6 -22l-4 -12l-10 -25l-4 -12l-11 -27l-6 -29l-12 -26
l-4 -17l-10 -18l-19 -6h-43l-10 2h-47l-13 2l-10 2h-14l-10 -2l-19 2l-12 2l-12 -2l-11 4l-12 14l6 31l13 29l8 31l6 14l8 29l6 16l10 31l5 14l6 16l4 15l12 26l2 13l6 24l4 13l7 16h-93l-12 -2l-10 4h-41l-12 2l-7 18v15l7 10l4 14l8 11l6 20l8 21l8 18l11 25l4 14l10 14
l12 27l4 6l19 4h24l25 2l106 -2l2 10l3 13l6 14l4 14l6 13l8 28l6 29l13 29v14l8 29l12 16l4 27l8 24l11 27v2h-5l-22 2l-12 -2l-33 2l-76 2l-12 2h-12l-3 8l5 35l4 8l6 19l6 14l4 20l10 15l6 20l9 27l4 10l6 12l4 17l10 12l19 10h59l29 2l45 -4h28l7 15l12 26v15l4 16l6 27
l6 10l8 29l11 26l4 12l6 13l6 24l8 23l10 22l9 31l6 12l4 15l18 20l6 12l17 3l12 2l25 2l14 -2h23l12 2h86l12 2l19 -6v-21l-4 -12l-3 -27l-6 -6l-6 -23v-12l-8 -8l-2 -18l-8 -11l-8 -28l-11 -19l-4 -16l-4 -12l-2 -15l-4 -12l-18 -53l-9 -23l-6 -12l-6 -25l-2 -6h43l8 2
l15 -2l20 -2l4 2l17 2h43l26 2l12 -2l2 6l7 15l12 26v15l8 16l6 27l2 10l8 29l11 26l4 12l6 13l6 24l8 23l11 22l8 31l6 12l4 15l18 20l11 6l12 9l12 2l25 2l14 -2h23l12 2h86l12 2l19 -6v-21l-4 -12l-2 -27l-7 -6l-6 -23v-12l-8 -8l-2 -18l-8 -11l-4 -22l-6 -15l-7 -20
l-8 -18l-4 -15l-4 -12l-18 -53l-9 -23l-6 -12l-6 -25l-4 -12l105 -2l8 2l14 -2h41zM485 555l105 -2l22 2h47l5 14l2 13l6 14l4 14l6 13l8 28l6 29l13 29v14l8 29l12 16l4 27l8 24l9 23h-9l-104 2l-23 -2h-51l-2 -2l-2 -15l-6 -26l-10 -21l-21 -61l-12 -29l-8 -14l-2 -17
l-21 -53l-6 -24l-10 -25h22z" />
    <glyph glyph-name="dollar" unicode="$" horiz-adv-x="860" 
d="M932 1169l2 -41v-34l-2 -25l-4 -45l-27 -12l-35 -2h-121l-32 2h-29l-14 14l-2 27v94l-4 24l-7 13l-18 18l-21 17l-26 4l-25 -9l-20 -10l-10 -14l-5 -14l-6 -21l-2 -14l-6 -21l2 -28v-27l-2 -14l6 -41l8 -31l3 -16l10 -25l18 -29l19 -32l8 -13l10 -10l6 -14l8 -13l13 -8
l12 -14l6 -12l10 -7l7 -10l18 -20l10 -19l19 -24l14 -35l18 -23l2 -10l17 -41l12 -26l12 -43l2 -15l2 -16l3 -15l10 -34l4 -13l-2 -28l-2 -13l2 -14l-2 -14v-58l-6 -28l-2 -13v-30l-9 -27l-4 -16l-4 -19l-10 -28l-18 -35l-13 -8l-10 -21l-10 -8l-17 -19l-10 -8l-16 -14
l-21 -12l-18 -15l-25 -6l-12 -8l-31 -10l-16 -2l-27 -8l-14 -3l-19 3l-14 -3h-6v-2l-2 -12l-4 -29l-6 -32l-6 -29l-2 -18l-3 -25l-16 -10l-33 -4l-8 -4l-51 4h-21l-8 12l2 27v16l6 31l9 32l2 17v16l2 13l-41 8l-19 4l-32 14l-23 8l-20 15l-25 16l-20 27l-21 24l-18 29
l-15 35l-4 16l-14 37l-2 12l-6 29l-2 12l-5 33v57l3 35l-3 15l5 30l4 17l2 14l6 33l29 14l49 4l24 -2h119l27 -2l16 -29l2 -32l-2 -43v-15l-2 -43l4 -41l6 -20l15 -31l20 -20l27 -7h18l17 5l22 6l10 10l11 18l8 15l8 24l4 25l2 20v15l-2 28v33l-8 37v12l-6 31l-15 29l-16 24
l-14 29l-9 12l-4 10l-6 11l-14 14l-10 16l-17 27l-10 10l-8 13l-17 26l-36 53l-11 23l-8 16l-10 15l-12 20l-11 33l-6 16l-10 15l-4 14l-4 16l-2 27l-6 27l-2 16l2 14l-2 31l2 29l4 41l6 14l2 29l6 14l12 41l11 27l8 16l6 14l6 11l16 18l7 8l12 21l10 12l25 20l37 27l32 12
l23 13l39 8l35 10h2l4 21v16l12 61l4 17l4 10l10 16l25 2h41l12 2l21 -4h8l12 -4v-22l2 -13l-2 -26l-8 -33v-14l-2 -10l-6 -19v-4l8 -2l31 -2l41 -10l14 -2l8 -7l25 -12l14 -12l16 -6l23 -21l6 -8l21 -22l6 -11l14 -22l8 -13l4 -22l7 -14l12 -50v-45z" />
    <glyph glyph-name="ampersand" unicode="&#x26;" horiz-adv-x="1214" 
d="M549 -53l-66 6l-30 4l-37 12l-23 6l-35 15l-59 33l-47 45l-23 18l-12 18l-18 21l-17 16l-26 45l-21 39l-12 35l-8 33l-13 45l-2 16l-4 74l2 47l2 25l4 22l21 64l25 41l10 22l12 23l21 22l12 21l22 22l39 31l17 14l36 31l25 12l14 11l13 10l-11 18l-18 45l-20 72l-9 49v21
l-2 22v57l2 17v20l4 17v22l7 23l4 14l10 27l6 16l8 21l21 28l33 39l20 17l20 20l13 10l20 11l17 10l41 18l18 6l39 13l51 4h68l32 -2l19 -4l16 -2l13 -5l34 -6l15 -6l12 -4l16 -6l15 -8l30 -19l23 -14l12 -14l8 -11l15 -18l8 -10l6 -15l8 -12l9 -16l10 -33l6 -23l2 -12
l4 -43l2 -14l2 -21l2 -32v-70l-2 -12v-7q0 -9 -10 -16h-41q-2 0 -23.5 -2.5t-23.5 0.5q-12 3 -33 -2q-20 2 -59 2l-31 2q0 1 -6 29l2 8v39l-2 18l-4 25l-4 18l-11 23l-8 16l-14 19l-17 14l-16 8l-16 4l-17 2h-20l-21 -2l-18 -6l-27 -14l-16 -19l-12 -16l-13 -18l-6 -25
l-4 -33l-2 -26v-23l4 -27l4 -30l10 -29l15 -39l16 -37l15 -28l20 -37l27 -47l14 -25l18 -31l19 -24l14 -35l17 -25l14 -24l22 -35l15 -25l4 -12l33 -49l12 -25l24 -45q30 53 39 117l11 39q3 2 20 2h-6h2q32 -1 37 -2q12 -4 41 2q8 1 25 0t38 0l17 -2h28q5 1 7.5 -2.5
t2 -14.5t-2 -21t-5.5 -32l-14 -55l-10 -33l-14 -39l-15 -41l-22 -47l-13 -26l-20 -35l-16 -31l-7 -6l17 -25l22 -36l6 -15l9 -12l8 -16l10 -11l23 -37l14 -20l18 -39l-14 -14h-76l-24 -2h-43l-19 -2h-35l-24 -2l-12 14l-13 24l-16 19l-37 -27l-63 -30l-35 -13l-25 -8l-76 -8
zM543 188q41 -11 110 13q37 11 64 41l10 6l-10 14l-6 17l-19 28l-24 39l-11 21l-28 49l-6 10l-15 25l-8 18l-14 20l-8 17l-33 51l-10 21l-23 30l-18 29l-9 16l-28 -22l-29 -27l-16 -20l-13 -19l-12 -24l-10 -17l-4 -14l-8 -27l-7 -28v-45l7 -35l4 -29l24 -53l23 -33l26 -31
l31 -18l27 -16z" />
    <glyph glyph-name="quotesingle" unicode="'" horiz-adv-x="452" 
d="M297 924l-43 2l-27 2l-20 2l-41 6l-8 12l-4 17l6 32v17l12 22l8 17l8 12l25 70l8 22l10 21l5 14l10 20l6 23l6 16l8 19l8 35l29 73l16 29l7 10l14 17h72l16 -2h21l20 2l33 -2l35 -7l18 -10l10 -16l-2 -29l-16 -31l-10 -24l-15 -29l-16 -31l-14 -28l-11 -23l-10 -20
l-14 -23l-13 -26l-12 -25l-16 -27l-19 -34l-16 -27l-10 -25l-19 -24l-8 -17l-20 -22z" />
    <glyph glyph-name="parenleft" unicode="(" horiz-adv-x="501" 
d="M346 -8l-51 12l-12 2l-17 4l-28 8l-11 11l-43 26l-24 21l-10 10l-9 10l-18 25l-23 53l-2 12l-6 27l-2 14l-8 25l4 14l-4 17l2 18l-2 14l2 15l4 16l-4 23l6 43v16l-2 29l4 28v15l2 12l4 43l8 29v34l3 23l2 10l4 37l6 12l2 29l4 6l2 8l8 45l2 21v25l6 24l7 29l12 41l2 14
l4 23l4 20l6 12l2 15v14l6 12v15l7 14l6 27l24 82l8 28l17 31l8 25l10 28l11 23l14 12l12 20l17 21l14 12l26 27l27 12l33 12l22 7l21 4l14 2l10 -2l39 2h31l25 -2l14 -4h14l13 -13l-2 -18v-12l-5 -19v-14l-6 -25l-2 -14l-2 -25l-8 -26l-2 -15l-2 -12l-6 -16l-10 -19h-27
l-18 -2h-11l-24 -6l-21 -16l-16 -27l-8 -14l-6 -15l-7 -30l-10 -19l-12 -35l2 -12l-2 -24l-19 -56l-4 -18l-2 -14l-2 -13v-14l-4 -29l-10 -31l-6 -30l-13 -51v-17l-8 -33v-14l-4 -27l-4 -16l-4 -31l-2 -28l2 -15l-6 -14v-14l-2 -17v-14l-4 -14l2 -15l-6 -43l2 -16l-7 -29
l-2 -28v-7l2 -14l3 -12l-3 -15l11 -53l28 -22l33 -6l33 -5l8 -10v-41l-6 -33l-4 -14l-2 -24l-6 -27l-2 -14l-4 -13l-5 -16l-14 -35l-24 -10l-17 -2h-2z" />
    <glyph glyph-name="parenright" unicode=")" horiz-adv-x="485" 
d="M45 -8l-25 2l-14 4h-14l-12 12l2 19l2 12l2 18l2 15l4 24l2 15l2 24l8 27l2 14l2 12l6 17l11 18h26l21 2h10l22 6l21 17l18 26l7 15l8 14l6 31l8 18l12 35l-2 12l4 25l9 31l10 24l2 19l2 14l2 12l4 15l2 28l10 31l4 31l13 51v16l8 33l2 14l2 27l6 16l4 31v43l8 29l-2 16
l4 29v14l3 43l2 17l6 28l2 29l-2 6v17l-2 18l2 14l-4 39l-19 27l-24 12l-27 4l-31 4l-12 11l2 28l6 37l4 14l2 25l4 27l5 14l4 12l4 27l12 24l27 11l24 -2l21 -2l16 -2l43 -11l35 -18l16 -10l25 -17l31 -30l8 -11l18 -24l25 -54l2 -12l8 -26l2 -15l6 -24l-2 -15l4 -16
l-2 -19v-14l-2 -14l-2 -17l4 -22l-4 -43l-2 -16l2 -29l-4 -29v-26l-8 -43l-6 -29l2 -19v-16l-2 -22l-2 -11l-4 -37l-9 -12l-2 -29l-4 -6l2 -8l-12 -45l-2 -20l2 -25l-8 -25l-6 -28l-13 -41v-15l-4 -22l-4 -21l-6 -12l-4 -14v-14l-4 -13l-2 -14l-4 -14l-9 -27l-24 -82l-2 -14
l-4 -15l-17 -30l-10 -25l-10 -29l-10 -22l-13 -12l-12 -21l-18 -20l-15 -13l-16 -16l-33 -16l-39 -19l-49 -10l-53 -2h-33z" />
    <glyph glyph-name="asterisk" unicode="*" horiz-adv-x="903" 
d="M868 1024l-80 -37l19 -14l12 -8l21 -19l12 -6l45 -35l12 -10l21 -16l12 -9l12 -12l23 -18v-13l-14 -24l-11 -6l-12 -13l-2 -10l-10 -4l-6 -6l-9 -14l-24 -25l-10 -8l-11 -10l-16 -15l-16 -10l-31 18l-37 21l-29 22l-24 17l-43 35l-29 22l-2 -2l-6 -27v-22l-4 -10l-2 -25
l-4 -26l-4 -13v-12l-5 -12l2 -13l-6 -28l-2 -13l-6 -18l-20 -4l-43 2h-17l-24 2h-17l-12 -2l-39 2l-14 2l-15 -2l-14 4l-14 14l-2 27l6 29l4 12v14l2 15l12 55l2 22v7l-24 -11l-8 -8l-13 -4l-106 -53l-21 -12l-12 -2l-18 -9l-13 -6l-18 12l-8 13l-17 20l-4 15l-10 8l-8 16
l-4 10l-6 15l-9 22l-4 15l-8 16l-10 25l2 20l18 10l31 17l49 22l101 55l75 37l-24 17l-21 16l-24 16l-25 21l-20 12l-13 13l-30 22l-11 6l-14 15l-12 10v22l8 11l18 18l7 8l8 12l8 11l10 8l12 16l13 15l39 39h16l16 -7l47 -34l21 -17l25 -16l77 -55v24l2 10l11 54v10l6 14
v10l8 27l4 10l-2 15l4 10l8 24l27 9l12 2l41 2h41l43 -4l17 -2l30 2l13 -4l6 -17l-2 -14l-2 -23l-4 -10l-3 -14l-2 -21l-8 -26v-13l-4 -24l-6 -15v-10l-4 -14l-2 -8l24 8l11 8l34 14l68 33l10 4l25 12l10 5l19 8l22 4l14 -4l15 -25l6 -10l6 -18l8 -15l6 -16l4 -10l7 -11
l8 -20l4 -12l6 -15l6 -12l12 -23l3 -20l-33 -14l-39 -17l-78 -39z" />
    <glyph glyph-name="plus" unicode="+" horiz-adv-x="788" 
d="M809 827l4 -34l-2 -13l-4 -18v-12l-2 -25l-4 -25l-4 -14l-2 -12l-2 -17l-13 -32l-22 -11l-21 -2l-73 2l-29 -2l-68 2l-4 -24l-6 -29l-2 -12l-4 -21l-8 -16l2 -14l-2 -13l-8 -45l-3 -14l-6 -31l-14 -10l-23 -8l-14 -2l-26 2h-27l-29 -2h-12l-23 4l-8 -2l-16 -2l-41 2
l-12 12l8 45l8 43l4 31l21 104l-72 2h-76l-24 4l-17 3l-8 20l-4 14l6 29l2 14l4 25v12l6 21v24l6 19l9 28l14 17l59 -2l99 2h39l6 28l4 23l2 14l4 15l6 30l2 17l2 6l6 33l9 16l2 10l12 11h22l25 2h70l24 -2h17l20 -3l29 3l16 -5v-20l-6 -41l-10 -49l-2 -12l-11 -52l-4 -24
l64 -2h94l16 -4h15z" />
    <glyph glyph-name="comma" unicode="," horiz-adv-x="423" 
d="M78 -268l-64 2l-37 6l-20 2l-41 6l-10 12l-2 17l6 33v16l10 22l10 17l7 12l14 35l12 35l8 22l9 21l6 14l2 16l12 35l14 33l6 23l9 16l6 18l10 35l27 74l16 29l6 10l17 12h102l16 -2h21l20 2l33 -2l37 -6l16 -10l13 -17l-2 -28l-11 -31l-10 -25l-14 -28l-13 -31l-14 -29
l-10 -22l-19 -33l-16 -27l-12 -24l-8 -23l-15 -26l-12 -25l-16 -27l-19 -34l-16 -27l-10 -25l-21 -24l-6 -17l-21 -22z" />
    <glyph glyph-name="hyphen" unicode="-" horiz-adv-x="770" 
d="M639 575l-143 3l-54 2h-200l-15 -2l-14 2h-29l-22 2l-17 2l-10 20l-2 14l6 29v15l4 12l2 12v12l7 29l2 16l6 19l8 29l8 8l19 6h30l27 2h133l16 -2h82l13 4l41 -4h186l16 -4h15l10 -10v-48l-4 -18l-2 -14v-23l-6 -26l-2 -15l-5 -12v-17l-8 -30l-24 -10l-21 -3h-53z" />
    <glyph glyph-name="period" unicode="." horiz-adv-x="464" 
d="M266 -2l-8 2h-68l-47 2l-37 2l-20 2l-27 4l-12 4l-4 13v53l6 22l-2 17l4 12l4 31l11 86l6 33l4 10l14 12l25 2l37 -2l55 -4h16l19 4l12 -2h33l30 -2h15l18 -10l17 -17l2 -28l-7 -31l-4 -25l-4 -28l-8 -37v-23l-4 -24l-2 -27l-6 -16l-19 -23l-30 -12h-19z" />
    <glyph glyph-name="slash" unicode="/" horiz-adv-x="567" 
d="M139 -4l-8 2h-37l-10 2l-8 2h-10l-11 -2l-14 2l-8 2l-37 -4l-43 4l-8 16l10 31l16 29l11 31l8 14l12 29l6 16l15 31l8 14l6 16l8 15l14 26l2 13l11 24l6 13l10 22l21 37l8 18l12 25l4 14l8 15l4 12l9 14l4 15l24 45l13 30l4 13l8 14l6 14l4 13l14 28l9 29l16 29l4 14
l12 29l11 16l10 27l10 24l12 27l17 28l18 44l10 28l9 15l12 28l6 12l4 15l19 37l12 26l8 15l14 26l2 15l9 16l10 27l4 10l12 29l15 26l12 25l10 24l10 23l13 22l12 31l8 12l6 15l17 20l10 6l10 9l72 2l20 2l13 -2h18l10 2h70l10 2l12 -6l-2 -21l-4 -12l-10 -27l-4 -6
l-10 -23l-2 -12l-6 -8l-7 -18l-8 -11l-12 -28l-12 -19l-4 -16l-7 -12l-4 -15l-6 -12l-24 -53l-11 -23l-18 -37l-6 -14l-8 -25l-7 -14l-12 -27l-12 -24l-12 -27l-7 -10l-12 -29l-10 -18l-8 -19l-4 -14l-9 -16l-4 -15l-12 -26l-23 -45l-4 -13l-12 -24l-6 -15l-16 -28l-7 -17
l-24 -53l-10 -24l-17 -29l-4 -16l-16 -29l-6 -17l-13 -28l-4 -10l-8 -29l-14 -21l-6 -22l-15 -31l-6 -16l-14 -27l-6 -16l-15 -29l-12 -29l-12 -26l-4 -15l-13 -22l-4 -12l-12 -25l-4 -12l-15 -27l-12 -29l-12 -26l-8 -17l-8 -18l-19 -6h-35z" />
    <glyph glyph-name="zero" unicode="0" horiz-adv-x="954" 
d="M510 -23l-57 3l-29 2l-33 4l-12 6l-35 6l-12 4l-29 12l-31 9l-30 18l-27 18l-18 21l-9 12l-12 10l-14 25l-10 12l-13 25l-6 24l-12 15l-2 14l-8 14l-7 15l-2 28v29l4 25l-2 28l-8 21l6 20l2 17v24l7 29l4 22l-4 25l8 25l2 30l6 33l6 35l2 16l6 33l4 35l7 29l2 12l2 24
l2 15l6 28l2 15l4 14v16l8 29l4 29l6 24l2 25l3 14l8 17l4 20l-2 15l4 14l6 29v12l4 18l4 6l8 23v16l7 27l10 25l8 12l6 14l14 23l5 12l10 10l8 10l20 25l9 12l20 27l14 8l13 8l14 8l25 17l26 14l17 8l16 7l16 2l15 8l18 4l17 4l14 2l22 4h35l39 -2l84 -12l12 -6l25 -9
l27 -12l20 -12l12 -6l19 -13l22 -16l25 -20l6 -11l16 -26l19 -29l12 -31l4 -12v-16l13 -27l4 -12l2 -27l6 -10v-17l2 -20l4 -16l-2 -25l-2 -16l4 -15l-2 -10l-2 -20l-2 -17l4 -20l-4 -27l-4 -14l-4 -17l-2 -14l-4 -27v-18l-5 -23l-6 -22l-4 -16v-23l-2 -14v-15l-6 -14
l-6 -31v-14l-6 -29l-4 -26l-4 -21v-49l-5 -14l-2 -13l-2 -28l-6 -15l-2 -16l-4 -14l-2 -23l-2 -20l-2 -19l-2 -14l-4 -14l-6 -27l2 -14l-9 -31l-4 -16l-4 -27l-10 -23v-12l-6 -12l-14 -23l-7 -12l-6 -23l-8 -10l-14 -16l-8 -19l-13 -16l-16 -18l-10 -7l-15 -8l-12 -6
l-16 -16l-13 -6l-28 -9l-11 -6l-28 -12l-17 -4l-14 -4l-18 -4l-19 -6zM469 229h33l43 15l18 20l8 12l19 37l4 23l2 22l6 21l6 12l-2 19l2 16l4 14l2 29l4 12l5 29v18l2 17l4 18l2 25l6 30l4 27l6 27v28l4 13l6 14l7 16v15l4 30l4 17l-2 20l8 19l2 35l4 30v17l8 28l4 29l2 29
l2 12l-2 16l2 15v14l5 25l-5 24l-8 23l-2 12l-8 12l-16 19l-15 8l-12 6l-16 4h-27l-18 -4l-15 -8l-31 -16l-12 -11l-8 -10l-12 -31l-11 -22l3 -19l-7 -22l-4 -25l-8 -26l-6 -25l-4 -29l-2 -28l-2 -11l-8 -26l-7 -15l-2 -24l-4 -25l-2 -14l4 -12l-2 -19l-6 -18l-6 -33l-4 -31
l2 -16l-4 -14v-17l-4 -18l-2 -17l-4 -16l-9 -29v-39l-4 -16l-4 -20v-52l-2 -14l-6 -18v-15l2 -12l-2 -18l6 -43l2 -17l2 -12l8 -14l5 -15l6 -10l22 -14l13 -4z" />
    <glyph glyph-name="one" unicode="1" horiz-adv-x="688" 
d="M739 1434l13 -13l-2 -18l-5 -31v-26l-4 -21l-2 -25l-2 -14l-4 -24l-2 -15l-6 -22v-13l-6 -28l-6 -17l-4 -32l-2 -33l-11 -29v-12l-4 -14l-4 -31l-4 -27l-2 -22l-6 -15l-6 -43l-2 -26l-9 -13l-2 -16l-2 -12l-2 -15l-2 -12l-2 -24l-4 -13l-4 -35l-8 -34l-12 -41l2 -21
l-2 -26l-9 -29l-2 -17l-10 -26v-27l-6 -26l-2 -15l-4 -14l-4 -27v-14l-6 -25l2 -18l-7 -21l-6 -22l-6 -27v-14l-2 -20l-6 -19v-12l-4 -15l-6 -36l-6 -25l2 -12l-9 -15l2 -8l-4 -20v-17l-2 -32v-13l-4 -14l-6 -10l-10 -21l-10 -6l-23 -2h-67l-23 -2h-45l-14 2h-50l-16 2
l-14 8l-11 21l5 20l4 17l2 12l2 16l4 15l2 24l6 31l8 16v17l4 14v14l4 29l5 12v15l2 14v14l2 13l6 28l2 15l6 28l4 17l-2 14l6 29l4 14v14l8 31l2 14l-2 17l5 14l6 27l4 12l8 23v22l4 27l8 43l6 41l4 14v14l5 27l2 18l6 21v22l4 27l4 31l8 16l2 19l8 57l7 29l2 18l6 29v16
l-10 6l-13 -4l-123 -59l-32 -13l-29 -14l-16 2l-7 12v25l-6 21l-6 22l-2 16l-4 15v14l-2 14l-4 13l-6 24l-9 29l5 14l45 25l24 12l15 10l18 11l31 8l30 20l45 25l31 16l25 13l20 8l15 10l12 6l20 6l17 11l28 6l56 -4h6l31 2l28 -2l31 2l29 -2h30z" />
    <glyph glyph-name="two" unicode="2" horiz-adv-x="856" 
d="M125 -6l-70 16l-14 29l8 37v24l6 43v13l4 28l11 31l10 12l6 13l6 16l12 16l9 17l16 20l12 17l9 14l6 8l18 21l14 18l11 19l20 22l25 27l14 18l35 35l6 14l14 21l17 22l14 21l16 16l11 14l10 23l31 31l18 16l4 12l10 13l33 49l17 22l10 13l8 12l10 10l10 12l11 15l12 20
l8 15l21 28l10 19l10 22l6 13l6 20l7 12l6 23l6 37l4 28v31l-2 23l-8 24l-13 15l-10 10l-20 4l-17 4h-22l-17 -2l-14 -4l-12 -8l-15 -9l-12 -16l-10 -12l-8 -15l-10 -26l-5 -17l-4 -20l-8 -35l-4 -31l-4 -28l-4 -15v-14l-8 -18l-21 -7h-76l-16 3l-27 -3l-16 3l-23 -3l-34 3
l-13 4l-12 10l-2 29l2 30l2 25l2 14v23l4 26l2 23l4 18l7 27v14l6 15l2 14l6 14l2 15l10 30l12 25l13 22l14 27l29 37l8 12l25 23l28 16l19 6l14 10l23 9l22 6l25 4l34 4h21l24 2h19l22 2l21 -2l29 2l51 -6l47 -10l31 -8l28 -13l19 -6l14 -6l6 -8l12 -6l11 -11l18 -20
l17 -19l8 -18l10 -25l10 -26l2 -12l4 -17l7 -29l2 -28v-47l-2 -25v-31l-5 -30l-2 -17l-4 -26l-4 -21l-4 -16l-4 -27l-4 -10l-8 -16l-6 -17l-5 -12l-12 -27l-6 -14l-8 -19l-10 -18l-9 -22l-12 -15l-2 -12l-20 -25l-9 -12l-8 -16l-14 -23l-21 -22l-10 -13l-16 -22l-23 -29
l-6 -12l-12 -12l-8 -17l-21 -24l-16 -19l-13 -20l-12 -11l-20 -20l-17 -23l-12 -16l-16 -12l-15 -21l-18 -20l-12 -17l-9 -8l-14 -20l-20 -19l-11 -12l-18 -23l4 -10l16 -4l41 2h90l37 2h105l24 -2l29 4l16 2l15 -2l8 -14l2 -47l-4 -31v-24l-4 -15v-16l-2 -17l-4 -16l-4 -22
v-23l-11 -23l-20 -16l-33 -4l-37 4l-76 -4h-55l-16 -2h-90l-17 4l-16 -4h-68l-14 4h-14l-35 -2h-66l-14 2l-27 -2l-16 -2z" />
    <glyph glyph-name="three" unicode="3" horiz-adv-x="854" 
d="M897 1430l16 -11v-20l-6 -31l-10 -22l-8 -23l-4 -12l-11 -15l-8 -12l-2 -14l-10 -13l-12 -28l-8 -19l-15 -14l-16 -29l-12 -24l-15 -27l-16 -29l-8 -12l-7 -16l-18 -29l-10 -14l-6 -15l-23 -36l-8 -15l-12 -14l-23 -35l-12 -18l20 -6l33 -23l31 -20l16 -19l19 -20l16 -25
l25 -29l16 -30l6 -29l4 -14l8 -25l7 -25v-16l2 -27v-30l2 -27v-37l-2 -35l-5 -43l-4 -34l-2 -23l-4 -22l-10 -27l-6 -14l-2 -21l-4 -16l-8 -17l-5 -12l-6 -12l-4 -15l-10 -14l-10 -20l-11 -19l-12 -18l-14 -21l-12 -12l-21 -16l-16 -15l-13 -16l-20 -14l-23 -11l-26 -8
l-27 -10l-16 -2l-31 -6l-37 -2l-22 -4l-43 -2h-27l-39 2l-24 4l-37 8l-33 6l-14 6l-29 14l-14 7l-19 12l-29 20l-28 33l-8 8l-9 19l-12 14l-8 12l-2 13l-10 22l-4 21l-9 20v17l-4 30l-2 29l-4 22v74l2 37l6 23v26l4 17l2 22l2 10l11 13h28l15 2l39 -2h90l47 -4l22 -9l2 -18
l-2 -21l-4 -20v-27l-4 -30l-2 -13v-14l-4 -14l2 -17l-4 -26v-17l8 -20l10 -15l9 -12l8 -10l22 -12l19 -2l16 -2h19l14 2l22 4l31 20l15 8l10 17l8 10l4 14l12 19l4 12l5 14l6 19l6 14v17l6 24l2 29l4 41l4 45l-2 41l-8 30l-2 11l-8 18l-19 21l-18 18l-33 10l-41 2l-24 2h-54
l-26 5l-4 16v12l2 27l6 28l2 15l2 12l4 12l-2 17l2 16l2 14l14 33l9 13l8 10l14 16l12 25l17 24l14 23l12 16l9 19l12 12l4 12l10 17l15 16l10 18l10 21l14 25l-2 6h-82l-32 -2h-45l-39 2h-27l-16 2l-13 -2l-32 -2l-25 2l-10 10l-2 14l2 27l4 18l6 23l2 33l10 26v49l4 13
l13 34l30 7l17 -2h18l19 2h82l55 2l100 -4l27 2l22 -4l13 2h86l6 -2l26 4h86l35 2z" />
    <glyph glyph-name="four" unicode="4" horiz-adv-x="876" 
d="M901 584l2 -15l-10 -22l-2 -23l-2 -24l-4 -25v-29l-8 -30l-9 -29l-4 -18l-4 -15l-18 -8h-35l-16 2l-15 2l-20 -2l-8 2h-15l-4 -22l-4 -33l-6 -31l-4 -26l-8 -27l-2 -23l-7 -28l-8 -33l-6 -29l-4 -24l-10 -54l-11 -18l-20 -2h-100l-37 -2l-21 4l-10 -4l-14 4l-33 -2l-10 6
l-11 19l9 32l-2 29l2 12l8 23v12l8 27l4 14l4 43l2 12l6 29l7 31l4 24l2 31v2h-21l-28 4l-23 -2l-8 2l-25 -2l-14 2l-35 -2h-74l-39 2h-114l-25 10l-12 19l-8 37l6 30v37l4 25l6 20l2 9l12 34l7 17l4 12l8 29l8 26l4 15l8 14l4 14l13 31l2 10l10 23l4 12l10 21l7 18l18 33
l6 22l4 15l19 37l2 14l20 41l10 29l11 24l4 14l18 56l2 10l8 14l7 17l4 10l8 27l2 2l8 30l6 9l12 26l15 37l6 10l4 25l8 20l15 21l14 33l4 14l8 8l13 16l18 5l22 4l9 -2l26 -2l27 2l35 2l43 -4l14 2l29 -4l20 -13v-18l-16 -45l-4 -27l-6 -4l-7 -23l-2 -12l-6 -6l-2 -18
l-10 -11l-8 -24l-10 -17l-7 -16l-2 -10l-6 -15l-4 -12l-14 -49l-8 -18l-7 -11l-4 -8l-2 -14l-10 -15l-2 -14l-10 -24l-8 -27l-11 -23l-14 -26l-4 -15l-14 -26l-5 -17l-6 -26l-6 -8l-6 -29l-14 -18l-2 -21l-11 -27l-8 -16l-10 -27l-4 -14l-31 -63l-8 -23l12 2l39 -4l33 2
l25 -2l47 2h16l20 100l9 29l8 33l2 16l6 17l8 41l6 22l9 27l2 18l2 12l2 17l6 22l22 41l13 19l8 22l14 21l19 14l43 -6l37 4l24 -4h27l22 -4l21 -2l18 -4l6 -13v-51l-4 -18l-6 -23l-4 -26v-13l-8 -14v-12l-4 -13v-22l-6 -12l-3 -15l-4 -24l2 -27l-8 -12l-4 -29l-6 -26
l-2 -15l-10 -26l-2 -25l-2 -12l-9 -27h86l23 -4z" />
    <glyph glyph-name="five" unicode="5" horiz-adv-x="886" 
d="M424 -20l-27 4h-22l-31 6l-20 6l-31 10l-19 8l-12 4l-22 13l-9 6l-26 14l-29 33l-6 10l-18 19l-17 26l-2 13l-12 30l-6 13l-6 26l-5 17v18l-4 14v15l-4 26l-2 33v21l2 16l-2 25l2 26l8 12l11 5l28 2l15 -2l14 4l16 -2h45l17 -2h14l33 2h12l17 -2l10 -9l-2 -20v-19l4 -30
v-25l8 -33l12 -22l15 -25l22 -18l25 -10h37l22 2l17 4l20 12l19 12l18 19l10 16l10 23l11 20l4 21l6 26l6 21l2 16l2 14v15l4 16l2 17l4 22v21l4 49v49l-4 29l-10 30l-16 25l-25 18l-26 8l-15 5l-22 2l-31 -2l-20 -7l-21 -12l-20 -16l-17 -19l-12 -22l-8 -21l-23 -6h-186
l-15 4l-8 10l-4 13l4 20l4 17v14l4 14l5 17l8 28v15l6 26v15l4 26l6 27l6 16v21l6 14l7 29l2 14l6 27l4 12l4 27l6 26l6 15v14l2 14l6 29l2 14l3 29l6 14l4 29l6 25l2 12l6 26l6 29l4 27l4 16l7 27l6 24l28 11l99 2h26l19 -7h14l19 5l22 -2l12 -5l19 2l20 3l23 -3h18l12 -2
h74l29 2h49l29 3l24 -7l17 7h20l23 -5h32l17 -14l-6 -37l-4 -26l-9 -27l-4 -25l-6 -18l-2 -23l-4 -22l-8 -25l-8 -32l-19 -7l-43 5l-18 -3l-25 3l-47 -3l-31 -2l-32 2l-43 -2l-23 2h-41l-20 -2l-11 -2l-14 2l-14 -2l-8 -8l-7 -20l-8 -27l-4 -12l2 -6l-4 -15l-2 -24l-12 -56
l-2 -24l-4 -19l-7 -20l7 -6l14 6l18 10l15 4l16 4l21 7l22 2h64l16 -2l43 -5l22 -6l19 -4l18 -12l17 -8l20 -15l23 -20l28 -29l19 -33l8 -26l10 -21l6 -26l9 -27l4 -24v-33l2 -17v-20l2 -29v-45l-4 -47l-4 -27v-12l-7 -33l-6 -30l-8 -33v-27l-6 -14l-2 -19l-2 -16l-8 -18
l-11 -29l-6 -27l-6 -18l-14 -27l-17 -24l-14 -21l-8 -16l-19 -19l-10 -16l-16 -18l-25 -19l-24 -20l-29 -15l-33 -12l-33 -10l-63 -10l-31 -4h-57z" />
    <glyph glyph-name="six" unicode="6" horiz-adv-x="946" 
d="M498 -16l-35 4l-31 2l-22 -4l-31 10l-17 2l-16 6l-10 4l-25 8l-18 4l-17 11l-20 12l-25 14l-14 13l-10 10l-14 10l-11 14l-8 19l-16 14l-15 27v10l-2 12l-8 19l2 10l-12 35l4 16l-6 25l-2 24l-2 21l-2 37l2 16v29l4 16v12l-2 29l2 17v28l4 15l2 14l2 24l6 27v14l4 17
l-4 14l6 21v14l6 31l3 16v25l4 12l4 33l4 14l6 27v20l8 27l4 24l4 27l4 16l5 33l8 37l6 29l8 32l6 21l6 14v15l6 18v12l9 15l10 28l6 17l14 32l7 25l14 27l12 16l10 16l21 23l12 10l14 14l15 13l18 8l17 10l10 2l20 13l27 10l25 4h14l33 6h16l51 4l41 -2l10 2l13 -2l20 -2
l23 -4l35 -8l12 -6l29 -9l34 -18l9 -8l12 -8l22 -19l17 -12l18 -37l8 -18l13 -29l8 -29l4 -12v-31l2 -18v-51l4 -25l-4 -31l-6 -30l-25 -11h-43l-59 2h-29l-37 2l-28 2l-15 7l-6 16v20l2 19l2 29l-4 24l-4 23l-14 24l-23 13l-18 2h-41l-29 -9l-16 -16l-17 -18l-10 -23
l-4 -14l-4 -17l-8 -14l-2 -12l-6 -19l-11 -28l-2 -17l-4 -20l-8 -45l-4 -27l-2 -18l-2 -13l10 -4l25 15l14 2l12 8l25 4l22 4l21 4h20l21 2h33l12 -2l22 -6l25 -10l25 -8l14 -7l24 -14l27 -16l21 -23l16 -24l16 -21l4 -16l9 -17l8 -14l4 -16l6 -15v-14l8 -18v-19l4 -14
l4 -27l2 -14l-2 -21l2 -12l3 -29l-7 -20v-60l-8 -28l2 -19l-6 -28v-29l-6 -18l-4 -15l-4 -22l-4 -27l-9 -14l-2 -21l-10 -18l-4 -12l-16 -31l-13 -23l-14 -30l-25 -31l-10 -17l-10 -10l-18 -22l-19 -15l-24 -16l-35 -20l-10 -7l-35 -18h-17l-20 -8l-12 -4h-31l-6 -2h-43z
M467 238h22l31 4l21 6l20 12l14 19l13 22l8 18l16 46l11 24v19l8 30l2 21l4 26v25l6 22v50l2 16v20l-6 33l-14 31l-17 18l-14 9l-19 8l-20 4l-20 2h-11l-16 -2l-27 -10l-12 -6l-25 -21l-16 -27l-12 -30l-10 -31l-7 -29l-6 -32l-6 -31l-2 -15v-16l-2 -18l-4 -33v-33l2 -31
l-4 -20l6 -19l4 -26l8 -14l6 -13l23 -18l14 -6z" />
    <glyph glyph-name="seven" unicode="7" horiz-adv-x="737" 
d="M203 -4l-17 2l-16 4l-41 -4l-20 12l-7 27l2 12l7 12l8 23l8 20l4 13l6 12l10 23l5 12l2 12l10 25l4 12l2 10l14 25l4 14l7 12l2 15l6 12l10 27l4 12l6 12l6 25l9 24l20 50l12 26l4 15l5 12l10 26l4 13l4 14l6 16l10 19l4 14l9 15l6 14l8 29l2 12l10 12l10 27l13 37l16 39
l4 10l6 26l9 15l12 28l8 13l8 28l6 17l17 39l12 43l14 26l2 13l7 20l4 14l8 19l6 14l21 49l-3 6h-71l-23 -2h-35l-41 2h-26l-17 3l-12 -3l-47 -2h-84l-24 2l-11 11l-2 14l2 27l4 14l7 35l2 33l10 26v49l4 13l12 34l31 7l16 -2h70l29 2h84l131 -2l26 2l23 -4l12 2h86l27 -2
l26 4h86l35 2l23 -6l6 -21v-20l-10 -21l-4 -22l-11 -25l-4 -12l-8 -29l-2 -14l-8 -15l-8 -26l2 -13l-9 -16l-6 -10l-2 -19l-4 -12l-8 -12l-4 -29l-8 -14l-6 -17l-11 -28l-6 -15l-4 -16l-10 -31l-4 -14l-6 -14l-23 -54l-4 -12v-14l-6 -15l-6 -12l-13 -22l-8 -23l-4 -14
l-4 -17l-16 -45l-7 -14l-8 -29l-4 -16l-6 -14l-12 -27l-11 -27l-26 -71l-10 -19l-2 -18l-11 -15l-8 -26l-6 -17l-27 -51l-4 -14l-10 -29l-6 -12l-2 -14l-6 -15l-6 -12l-7 -14l-10 -29l-14 -23l-2 -26l-15 -27l-6 -12l-8 -25l-2 -12l-10 -25l-8 -14l-2 -16l-13 -25l-8 -22
l-16 -25l-17 -6h-104l-25 2h-14z" />
    <glyph glyph-name="eight" unicode="8" horiz-adv-x="937" 
d="M453 -18l-43 4l-29 6h-41l-57 16l-29 12l-14 17l-11 6l-20 10l-14 13l-19 12l-8 10l-16 14l-15 19l-16 18l-8 23l-7 14l-4 12l-10 21l-2 22l-6 21l-4 27l-4 20v12l-2 15v12l4 14l-4 15l2 22l4 29l4 26l2 21l6 24l8 23l6 23l7 30l14 43l8 23l12 24l21 25l16 25l27 22l18 8
l29 19l35 14l24 6l2 10l-16 15l-14 12l-10 12l-13 19l-6 16l-8 16l-10 17l-9 18l-6 15l-6 20l-4 21l-4 28l2 21l2 16l-2 23v18l6 21l2 18l4 16l2 21l4 16l7 23l8 22l4 15l6 22l10 25l11 20l10 19l10 12l8 12l23 23l14 18l18 17l13 10l20 8l19 10l26 11l19 6l24 6l49 6l25 2
h23l30 2l74 -6l29 -2l20 -8l19 -2l32 -7l27 -8l29 -14l34 -29l15 -12l10 -10l19 -25l16 -33l8 -22l10 -19l2 -18l4 -20v-21l5 -20l2 -25l-2 -23l2 -16v-14l-4 -21v-20l-3 -19l-6 -18l-2 -16l-2 -15l-4 -12l-2 -14l-4 -15l-6 -12l-6 -21l-13 -28l-10 -23l-12 -18l-8 -10
l-13 -13l-14 -20l-22 -12l-17 -11l-29 -12l-4 -10l7 -8l10 -11l12 -8l12 -10l17 -21l20 -26l15 -35l6 -31l12 -55v-39l4 -14l-2 -21l-4 -24v-37l-2 -21l-2 -14l-2 -21l-4 -20l-4 -14l-7 -19l-2 -18l-6 -12l-2 -15l-4 -22l-10 -19l-4 -12l-4 -14l-11 -25l-18 -37l-18 -26
l-15 -19l-16 -14l-12 -17l-17 -8l-16 -14l-25 -12l-10 -9l-25 -8l-34 -12l-25 -4l-82 -8l-27 2l-20 -2zM551 860h24l17 4l16 8l19 15l10 14l8 14l10 19l7 12l4 23l2 24l12 37l2 23l6 18v98l-2 15l-8 18l-23 17l-14 6l-12 4l-13 2l-22 2l-21 -4l-16 -6l-12 -6l-15 -19l-6 -14
l-6 -17l-14 -37l-6 -24l-9 -39l-2 -23l-4 -20l-4 -29l-2 -30l4 -21l-2 -14l6 -21l15 -16l8 -10l12 -15l17 -6zM453 211h20l25 4l28 10l13 15l18 18l8 29l10 22l3 19l8 10l2 16l4 15l2 14v18l6 17l6 31l-2 16l4 16l2 15v12l-2 16l2 13l-2 14l2 12v15l-2 16l-6 16l-8 11
l-12 12l-17 10l-24 10l-17 2h-26l-21 -4l-16 -10l-17 -8l-14 -10l-14 -17l-10 -22l-11 -15l-4 -18l-6 -12v-13l-4 -12v-16l-6 -21l-2 -10l-2 -14l-4 -11l-2 -14l-5 -18l2 -23l-6 -22v-21l2 -16v-29l-2 -18l9 -19l12 -18l22 -19l21 -4l12 -6z" />
    <glyph glyph-name="nine" unicode="9" horiz-adv-x="915" 
d="M446 -25l-22 2h-14l-27 3l-25 4h-14l-31 6l-47 10l-18 10l-35 17l-27 16l-24 23l-25 28l-16 23l-17 39l-10 24l-8 15l-2 14l-2 16l-4 21l2 24l-2 29v35l6 35l4 30l10 15l13 6h22l37 -2l29 -2h26l47 -2l43 -4l17 -4l14 -19l-4 -41l-2 -45l10 -35l6 -12l23 -14l29 -15
l41 -4l30 8l17 7l10 10l8 12l14 21l7 22l8 16l8 37l4 11l4 24v12l6 13l6 26l2 15l5 24l6 19l4 32l2 11l2 20l-6 4l-21 -18l-20 -15l-23 -14l-20 -4l-31 -4l-55 4h-23l-22 8l-23 6l-20 7l-41 16l-8 8l-23 19l-29 24l-8 23l-10 12l-8 12l-6 15l-11 28l-10 25v31l-2 24l-6 14
v23l4 22l-2 15l4 14l-2 14v29l4 31l4 29l2 16l4 18l-2 19l2 14l4 14l7 15l6 26l2 27l8 25l6 28l6 27l15 29l8 26l10 25l16 26l21 29l12 14l12 19l9 8l24 21l10 8l19 12l14 14l23 9l16 10l31 6l29 4l30 6l19 2h37l18 -2h55l21 -4l26 -2l17 -6l16 -4l14 -4l21 -4l45 -17
l25 -16l34 -25l21 -22l12 -21l15 -28l10 -17l10 -35l4 -14l2 -22l4 -15l4 -26l-2 -15l-2 -26l2 -31l-4 -43v-31l2 -29l-4 -16l-2 -14v-17l-6 -28v-17l-4 -28l-4 -11l-4 -28l-4 -31v-16l-5 -29l-2 -12l-4 -29l-6 -23v-20l-2 -14l-4 -15l-6 -26l-4 -25l-2 -27l-11 -28l3 -12
l-5 -15l-4 -26l-4 -29l-6 -29l-6 -35l-10 -30l-8 -29l-3 -25l-10 -28l-2 -13l-4 -12l-10 -37l-8 -12l-6 -12l-5 -15l-12 -26l-6 -12l-6 -15l-17 -26l-20 -21l-10 -12l-17 -19l-18 -16l-21 -12l-30 -21l-37 -12l-37 -10l-31 -6zM528 737h15l28 8l23 17l20 31l11 24l6 10
l10 39l6 17l2 16l4 16v15l9 45l4 18l2 15l-2 12l6 14v15l2 12l-2 29v10l2 14l-4 62l-11 24l-20 21l-27 8h-30l-17 -2l-30 -19l-13 -12l-16 -25l-8 -24l-6 -23l-5 -12l-10 -12v-13l-4 -12l-6 -24l-2 -15l-4 -10l-2 -20l-4 -17l-2 -28l-11 -37l-4 -27l2 -14l-2 -21l-2 -33
l4 -26l11 -25l12 -12l20 -14l17 -9z" />
    <glyph glyph-name="colon" unicode=":" horiz-adv-x="454" 
d="M410 864l-9 2h-67l-47 2l-37 2l-21 2l-26 5l-13 4l-2 12l-2 37l2 16l5 23l-3 16l5 12l6 31l8 86l8 33l2 10l14 12l25 2l37 -2l55 -4h17l18 4l12 -2h33l31 -2h14l21 -10l14 -16l2 -29l-6 -31v-12l-4 -12l-4 -29l-9 -37v-22l-2 -25l-2 -27l-8 -16l-18 -22l-31 -13h-18z
M254 0l-8 2h-68l-47 2l-37 2l-20 2l-27 4l-14 4l-2 13v53l6 22v17l2 12l6 31l10 86l8 33l5 10l14 12l24 2l37 -2l56 -4h16l18 4l13 -2h33l30 -2h15l18 -10l16 -17l2 -28l-6 -31l-8 -25l-4 -28l-6 -37v-23l-6 -24l-2 -27l-6 -16l-19 -23l-31 -12h-18z" />
    <glyph glyph-name="semicolon" unicode=";" horiz-adv-x="475" 
d="M344 866l-47 2l-37 2l-20 2l-27 5l-12 4l-2 12l-2 37l2 16l4 23l-2 16l4 12l6 31l8 86l8 33l2 10l15 12l24 2l37 -2h90l13 -2h32l31 -2h14l21 -10l14 -16l2 -29l-6 -31v-12l-4 -12l-4 -29l-8 -37v-22l-2 -25l-2 -27l-9 -16l-18 -22l-31 -9h-18l-25 -2h-51zM109 -268
l-64 2l-37 6l-20 2l-41 6l-10 12l-3 17l7 33v16l10 22l10 17l6 12l15 35l12 35l8 22l8 21l6 14l2 16l13 35l14 33l6 23l8 16l7 18l10 35l26 74l17 29l6 10l16 12h103l16 -2h21l20 2l33 -2l37 -6l16 -10l12 -17l-2 -28l-10 -31l-10 -25l-15 -28l-12 -31l-14 -29l-10 -22
l-19 -33l-16 -27l-12 -24l-9 -23l-14 -26l-12 -25l-17 -27l-18 -34l-16 -27l-11 -25l-20 -24l-6 -17l-21 -22z" />
    <glyph glyph-name="less" unicode="&#x3c;" horiz-adv-x="786" 
d="M684 240l-35 14l-37 25l-43 22l-22 14l-41 23l-35 16l-31 19l-32 20l-37 21l-35 20l-47 31l-31 20l-35 21l-39 26l-73 46l-9 30l2 27l5 27l6 38l4 21l4 16l2 19l14 20l31 25l45 24l43 27l29 16l30 19l50 24l22 15l31 16l22 14l33 19l31 14l35 25l28 12l25 12l51 25l70 39
l53 31l88 38l18 -14l-4 -45l-4 -27l-16 -75l-4 -25l-4 -33l-6 -22l-7 -12l-34 -25l-35 -19l-66 -32l-116 -64l-70 -35l-39 -20l-80 -45l-2 -14l55 -37l62 -35l94 -55l45 -23l66 -39l16 -14l16 -17l-2 -26l-2 -12l-8 -37l-4 -25l-6 -51l-14 -47z" />
    <glyph glyph-name="equal" unicode="=" horiz-adv-x="800" 
d="M373 815l-92 2h-70l-25 4l-16 2l-8 21l-4 14l6 29l2 14l4 25v12l6 20v25l6 18l8 29l15 12l53 2h109l28 3l84 -3h76l47 3l29 -3l16 3l72 -3h94l16 -4h15l10 -10v-29l-2 -12l-6 -24v-13l-2 -24l-4 -25l-4 -14l-2 -12l-3 -21l-2 -27l-22 -10l-21 -2l-73 2l-33 -4l-72 2h-69
l-54 -2h-67l-17 2h-14zM305 397l-92 2h-70l-24 4l-17 3l-8 20l-4 14l6 29l2 14l4 25v12l7 21v24l6 19l8 28l14 13l53 2h109l29 2l84 -2h75l48 2l28 -2l17 2l71 -2h94l17 -4h14l10 -11v-28l-2 -13l-6 -24v-12l-2 -25l-4 -25l-4 -14l-2 -12l-2 -21l-2 -26l-23 -11l-20 -2
l-74 2l-33 -4l-71 2h-70l-53 -2h-68l-16 2h-15z" />
    <glyph glyph-name="greater" unicode="&#x3e;" horiz-adv-x="821" 
d="M80 248l-12 10l-7 18l15 74l8 41l8 33l12 47l15 21l16 14l23 14l45 23l35 12l168 70l38 20l66 29l45 22v13l-53 34l-27 19l-33 26l-24 15l-33 20l-59 45l-31 17l-39 30l-25 15l-6 8l-26 25l-6 18l2 23l8 36l10 62l14 67l9 13l12 4l80 -56l59 -38l35 -25l37 -27l28 -16
l31 -25l53 -36l19 -15l22 -16l19 -14l35 -23l22 -16l21 -19l39 -29l36 -28l39 -31l8 -20l-10 -64l-4 -26l-12 -60l-10 -14l-27 -21l-43 -22l-41 -25l-61 -31l-52 -22l-39 -18l-32 -15l-31 -12l-29 -12l-32 -17l-48 -20l-24 -8l-35 -19l-37 -16l-35 -15l-71 -34z" />
    <glyph glyph-name="question" unicode="?" horiz-adv-x="739" 
d="M528 453l-114 6h-41l-37 2h-14l-31 2l-10 16l-2 25l4 16l6 29l4 18l8 19l18 43l3 14l28 47l21 25l6 16l10 12l19 25l14 23l14 8l8 16l11 10l6 13l8 10l16 24l15 27l6 10l8 27l10 12l10 23l5 16l12 29l4 28l4 13l4 41l-2 32l-4 23l-6 23l-17 18l-24 10l-39 -4l-20 -10
l-25 -23l-12 -30l-4 -17l-2 -35l-5 -14l-4 -47l-4 -29l-16 -10l-12 -4l-35 2l-35 -4h-119l-29 10l-8 25l8 55l5 29l2 16l6 27v18l10 27l6 16l2 15l6 14l15 39l2 12l14 27l8 12l17 22l8 13l20 20l13 6l16 13l12 10l31 10l12 12l29 11l33 2l16 6l14 -4l27 8h33l26 2l13 2
l51 -6l39 -14l26 -9l17 -4l26 -14l17 -4l14 -6l15 -13l12 -16l33 -33l6 -14l4 -12l20 -39l2 -21l15 -39l6 -24l-2 -49l-8 -43l-2 -31l-5 -12l-2 -15l-10 -28l-4 -15l-4 -18l-6 -14l-10 -29v-12l-17 -25l-12 -21l-10 -22l-13 -14l-12 -23l-6 -14l-18 -23l-13 -24l-18 -19
l-15 -28l-10 -13l-28 -51l-7 -12l-14 -25l-4 -12l-12 -33l-6 -24l-9 -17l-4 -12l-6 -16l-2 -25l-10 -14h-19zM436 -2l-8 2h-68l-47 2l-37 2l-20 2l-27 4l-12 4l-4 13v53l6 22l-2 17l4 12l4 31l11 86l6 33l4 10l14 12l25 2l37 -2l53 -2h16l21 2l12 -2h33l30 -2h15l18 -10
l17 -17l2 -28l-7 -31l-4 -25l-4 -28l-8 -37v-23l-4 -24l-2 -27l-6 -16l-19 -23l-30 -12h-19z" />
    <glyph glyph-name="at" unicode="@" horiz-adv-x="1636" 
d="M834 -193l-99 11l-59 10l-88 18l-29 13l-55 10l-23 14l-53 23l-25 18l-47 29l-49 45l-18 14l-15 11l-14 20l-22 14l-19 31l-14 25l-4 18l-11 19l-6 10l-12 18l-12 33l-8 37l-7 14l-10 51l-2 35v33l6 29l-4 20l-2 47l2 31l4 33l2 24l4 37l-2 16l11 35l-9 15l2 34l5 19
l6 47l12 27v34l2 31l6 17l8 18l-2 16l4 17l2 18l-4 17l13 8l4 18l4 17v34l4 31l8 19l10 49l13 63l14 23l6 30l19 31l6 19l16 30l10 39l23 31l10 16l29 31l8 18l10 17l23 31l14 12l19 16l18 13l12 14l53 35l41 22l25 6l29 13l35 18l47 10l51 9h20l54 10l32 -4l43 6l21 4
l51 -4h23l71 -6l119 -15l35 -14l31 -6l22 -6l45 -19l49 -28l31 -19l41 -31l37 -28l33 -35l16 -16l16 -19l35 -53l14 -17l7 -16l14 -41l10 -51l8 -18v-21l11 -33l4 -24v-25l8 -45l-4 -18l-6 -13l4 -20l-2 -41l2 -45l6 -17l-8 -40l-4 -19l-4 -45l4 -23l-17 -36l4 -31l-12 -64
l-10 -34v-33l-6 -31l-4 -16l-11 -37l4 -12l-2 -25l-8 -16l-8 -31l-6 -21l-4 -16l-4 -18l-4 -17l-11 -35l-2 -16l-14 -29l-10 -43l-4 -8l-21 -49q-16 -34 -63 -92q-55 -52 -144 -72q-139 -15 -223 21l-51 32l-37 39l-29 54l-24 47l-6 22l-9 23l-4 32h-6l-24 -40l-31 -33
l-33 -19l-20 -8l-23 -4h-33l-18 2l-27 6l-24 13l-17 6l-26 16l-17 18l-16 15l-6 10l-10 14l-7 17l-8 20l-10 23l-4 20l-4 15l-4 20l-6 29v24l2 45v37l4 27l2 26l8 29l14 62l13 41l18 36l20 35l17 23l14 18l23 19l12 12l25 12l24 10l25 5l14 6h29l22 2h66l33 -2l45 -6l2 4
l8 22v15l6 14v18l6 31l2 27l2 28v19l-6 26l-16 19l-21 10h-18l-17 -6l-20 -6l-16 -21l-11 -30l-14 -9l-29 2l-63 -2l-76 4l-8 9l-2 36l6 35l10 37l8 23l17 28l10 21l18 18l7 8l12 13l26 14l15 8l26 4l33 7l51 4h21l31 -2l45 -5l30 -6l35 -8l21 -8l16 -10l25 -13l12 -10
l20 -16l15 -19l6 -22l10 -21l2 -16v-18l2 -17v-18l2 -31l-4 -14v-15l-4 -57l-2 -14l-6 -37l-2 -15v-12l-4 -28l-8 -23v-27l-5 -20v-8l-8 -43l-4 -19v-12l-4 -29l-2 -20l-4 -15v-20l-6 -23l-2 -12l-2 -22v-13l-4 -22l-2 -8l-5 -23v-16l-2 -17l-2 -22l-2 -12l-4 -41l-2 -27
l-4 -16v-23l-4 -14v-31l6 -27l12 -32l23 -25l22 -14l17 -4h29l34 12q26 10 52 65l24 45l8 35l11 27v10l6 31l4 16l6 13l4 14l10 41l8 35l2 8l7 43l8 24l4 27l6 29l8 51v27l13 28l-2 19l4 32l2 15l6 33l-4 14l8 47l-4 49l4 10l2 17v41l-8 28l2 13l-6 59l-13 41l-8 35l-6 12
l-10 12l-17 45l-12 17l-12 14l-23 21l-14 24l-37 25l-20 8l-35 23l-43 16l-8 4l-21 2l-24 10l-89 13l-49 6h-18l-35 2l-16 -2l-31 -6l-25 2l-36 -9l-15 2l-39 -8l-32 -8l-37 -20l-17 -7l-32 -16l-39 -29l-9 -12l-16 -10l-20 -23l-19 -26l-8 -13l-6 -14l-19 -27l-10 -12
l-14 -24l-10 -31l-11 -27l-6 -14l-14 -25l-4 -26l-13 -17l-10 -51l-6 -43l-8 -12l-4 -53l-6 -29l-11 -8l2 -13l-4 -28v-15l-4 -12l-6 -14l-4 -53l-6 -23l-6 -39l-2 -16l-2 -27l4 -12l-9 -27v-14l-4 -31l-2 -16l-2 -31l-2 -22v-39l4 -17l-8 -22v-27l2 -14l-2 -15l8 -43l4 -12
l11 -43l4 -14l8 -13l4 -10l4 -14l8 -16l-2 -13l23 -30l16 -13l8 -14l11 -10l14 -13l33 -37l35 -22l20 -14l35 -19l18 -12l39 -10l19 -2l65 -19l41 -8l35 -4l72 -6l34 -4h33l33 -11v-38l-16 -78l-15 -43l-37 -6zM829 430l29 8l19 17l20 22l10 23l11 28l4 21l6 33l4 28l6 39
l2 27l4 24l-2 29l-8 10l-21 4l-34 5l-27 -5l-21 -6l-24 -12l-27 -41l-12 -33l-6 -28l-8 -43l-4 -39v-39l8 -31l16 -22l21 -17z" />
    <glyph glyph-name="A" unicode="A" horiz-adv-x="913" 
d="M166 -4l-31 2l-14 2l-150 2l-18 4l-4 17l4 14l2 12l12 25l17 26l20 62l12 24l11 25l22 49l8 27l17 37l4 12l10 14l10 25l4 12l2 14l7 13l10 26l6 15l14 28l4 15l5 18l10 16l12 25l4 14l12 29l2 12l7 15l6 12l10 29l6 12l17 57l6 17l14 26l10 35l13 23l6 12l6 27l10 14
l6 27l4 10l13 26l6 29l10 14l8 13l17 43l10 26l6 13l12 18l6 20l7 15l18 37l4 14l6 12l4 13l4 14l13 22l8 13l4 10l12 37l15 26l18 37l6 15l6 12l8 23l15 2h20l39 -2l21 2h32l39 2h19l14 -4l19 2h32l11 -5l14 -10l6 -88v-45l4 -12v-37l2 -74v-28l2 -27l4 -41v-29l2 -30
l-2 -15v-45l4 -28v-41l2 -29l-2 -12l2 -27v-12l3 -33l4 -23v-79l2 -25l2 -16v-62l2 -94v-14l2 -31l-2 -31l2 -29l-2 -14l4 -78v-12l2 -27l2 -14v-31l-2 -28l2 -17v-18l2 -45v-43q6 -26 -6 -33h-23l-14 -2l-16 2h-29l-45 -2h-16l-25 2l-14 -2l-21 -2l-27 2h-30l-8 6l-5 21
l-2 36l-2 21l2 20v97l-2 16l-45 2l-32 4l-91 2h-55l-10 -22l-14 -27l-5 -14l-6 -15l-8 -24l-20 -39l-13 -31l-6 -22l-6 -11l-8 -14l-12 -8l-58 2zM504 489h61l13 11l2 28l-2 17l2 16v53l2 15v35l4 16l-2 49l2 78l2 74l-2 47l-17 -6l-8 -27l-10 -33l-6 -20l-10 -33l-9 -16
l-8 -21l-2 -14l-8 -15l-6 -18l-6 -14l-7 -19l-12 -45l-2 -14l-10 -31l-8 -14l-11 -35l-4 -14l-4 -19l-6 -14l14 -12h17l22 -2z" />
    <glyph glyph-name="B" unicode="B" horiz-adv-x="985" 
d="M319 -2l-32 4h-17l-32 -2h-84l-13 2h-16l-31 2l-18 2l-15 12l2 17l5 20v31l6 16l4 19l4 29l4 24l2 14l8 27l4 29l2 28l4 13l3 14l4 14l2 17l6 16l2 12l4 31l4 33l8 20l-2 21l6 29l7 16l4 16l2 13v14l6 27l4 26l2 14l6 25v12l2 9l4 20l8 29l2 28l5 11l8 26l2 17l8 28l4 29
v16l2 15l4 14l6 18l2 19l2 24l5 15l2 12l6 16l2 19l2 12v15l4 12l2 12l4 31l8 28l4 66l7 31l6 26l12 50l6 26v17l2 14l2 31l4 18l6 10l19 17l29 2h51l12 -2l23 2h43l100 -4l82 2l29 -2h61l22 -4l21 -3l31 -8l24 -6l21 -10l18 -8l23 -19l26 -28l19 -17l8 -12l6 -10l8 -25
l13 -29l2 -16v-14l4 -17l4 -24l-2 -31l-2 -12v-15l-2 -12l-4 -14v-13l-5 -26l-2 -14l-8 -27l2 -12l-4 -15l-2 -6l-2 -14l-4 -12l-4 -15l-6 -12l-8 -19l-15 -22l-14 -21l-16 -24l-27 -27l-10 -8l-11 -12l-10 -8l-14 -9l-25 -14l-24 -10l-19 -8v-13l21 -8l22 -12l19 -8l24 -17
l13 -14l12 -12l12 -21l8 -14l11 -23l4 -20l6 -12l4 -27l8 -27l-2 -26l4 -21l-2 -18v-27l-2 -14l-4 -31l-6 -31l-6 -26l-2 -15l-7 -28l-4 -13l-4 -14l-4 -12l-4 -15l-33 -65l-18 -25l-12 -22l-11 -10l-14 -13l-8 -10l-17 -10l-12 -6l-10 -11l-14 -8l-11 -8l-10 -6l-14 -6
l-17 -8l-22 -7l-17 -6l-12 -2l-18 -2l-27 -6l-12 2l-31 -6l-31 2l-14 2l-14 -2l-56 -2l-26 2l-17 2h-28l-17 -2h-6zM551 889l29 2l24 4l17 10l22 15l25 20l10 18l16 21l11 29l6 24l4 12l2 17l8 20l-2 23l-2 14l-2 25l-12 24l-7 11l-16 14l-12 2l-19 4l-37 4h-51l-16 -4v-14
l-6 -19l-2 -18l-2 -14l-7 -25v-14l-6 -27l-2 -14l-4 -13l-14 -100l-4 -16l-2 -21v-12h26zM420 262l18 6l51 -6h39l15 6h14l14 6l19 15l14 12l12 18l2 17l11 22l4 15l2 16l10 27l4 37l-2 34l2 27l-18 49l-23 21l-39 14l-20 4l-17 4h-28l-23 2h-28l-7 -18l-4 -37l-4 -16l-4 -9
l-4 -30l-4 -15v-14l-4 -12l-2 -17l-4 -28l-4 -15l-6 -30v-15l-5 -28l-4 -17l-2 -16l-8 -27z" />
    <glyph glyph-name="C" unicode="C" horiz-adv-x="892" 
d="M449 -25l-19 2h-14l-15 3l-22 2l-17 2l-12 2l-20 2l-15 4l-12 2l-27 10l-24 8l-12 11l-21 12l-10 8l-12 8l-27 21l-8 10l-10 10l-15 29l-18 26l-6 27l-4 12l-5 27l-4 14v39l-2 17v18l2 14v54l2 43l2 16l2 29l5 28v15l2 12l4 43l8 29l-2 18l4 16l6 23l-2 10l6 37l8 12v29
l2 6v8l7 23l4 22l6 21l2 25v12l6 12v29l10 41l4 14l4 23l3 20l6 12l2 15l4 14l2 12l2 15l6 14l6 27l15 41l12 41l8 28l12 35l11 25l12 28l8 23l14 12l15 21l16 20l29 29l12 10l27 12l12 6l43 19l35 6l26 6l15 2h30l39 2h33l51 -6l19 -6h20l29 -4l12 -2l15 -4l14 -2l8 -6
l23 -5l28 -10l27 -20l22 -21l5 -10l10 -18l6 -11l4 -14l10 -21l4 -22l2 -25l2 -26l2 -19l3 -30v-45l-3 -21l-4 -16l-4 -31l-4 -33l-12 -80l-4 -16l-10 -53l-9 -9l-24 -2l-29 -2l-129 2l-59 9l-15 22v29l4 14l9 37l4 29l12 45l2 26l4 29v31l-12 37l-23 12l-28 8h-23l-24 -4
l-23 -8l-18 -23l-7 -12l-6 -14l-8 -35l-10 -27l-12 -35v-12l-9 -24l-6 -31l-6 -25l-6 -18l-2 -14l-2 -13l-4 -14l-4 -29l-11 -31l-16 -81l-2 -17l-8 -33l-2 -14l-4 -27l-4 -16l-7 -31v-43l-6 -14l-2 -14v-17l-2 -14l-4 -14l2 -15l-6 -43v-16l-6 -29l-2 -28v-21l2 -12v-15
l8 -30l16 -15l31 -10l33 4h31l28 19l9 10l16 37l10 28l8 27l2 12l2 11l7 24l6 31l4 18l2 15l10 26l4 21l15 16l16 2l53 -2h43l101 -6l24 -2l14 -14l9 -15v-22l-4 -13v-14l-5 -26l-2 -23l-4 -10l-2 -15l-2 -8l-6 -43l-4 -12l-12 -51l-6 -25l-3 -14l-4 -15l-6 -12l-12 -33
l-10 -24l-6 -14l-9 -13l-10 -12l-6 -12l-4 -13l-31 -37l-31 -26l-32 -21l-15 -6l-53 -12l-24 -6l-25 -4l-27 -6h-30l-27 -2z" />
    <glyph glyph-name="D" unicode="D" horiz-adv-x="995" 
d="M434 -4l-47 2l-27 2l-26 -2l-31 4l-24 -2l-17 2h-18l-29 4l-12 2h-17l-14 -2h-61l-29 4l-16 4v47l2 19l10 24l4 29l2 12l6 29l4 21l4 16v16l4 29l2 16l5 23l8 16l4 21v16l6 29l4 16l2 27l2 12l8 14v46l7 28l2 17l6 28l2 15l4 26l4 15l6 24l2 12l8 25v41l4 14l5 13l6 28
l4 13l10 57l6 14l4 15l2 14v12l2 15l4 24l2 14l7 25v12l4 25l8 24v29l2 16l4 43l4 25l10 37l4 14v13l3 14l6 27l4 28l4 25l6 12l2 14l2 25l4 14l6 21l4 6l7 22l20 7h14l25 -2l14 -2l33 4h16l46 -2l40 2h52l22 -2l12 2h33l17 -2l18 -2l31 -5h14l17 -6l28 -8h4l13 -4l34 -10
l11 -6l8 -5l20 -12l15 -10l12 -10l31 -41l16 -25l8 -10l10 -18l9 -29l12 -31l8 -14l6 -35v-14l11 -29l-3 -14l5 -41l2 -27l-7 -12l7 -29l2 -12l-2 -15l4 -14l-2 -14v-12l-6 -33v-15l-5 -34l-2 -15v-57l-10 -33v-14l-8 -39l-4 -31l-4 -47l-4 -16l-6 -17l-3 -20l-12 -43
l-2 -27l-4 -24l-6 -15l-14 -26l-5 -13l-2 -22l-12 -27l-2 -12l-8 -29l-14 -28l-15 -41l-10 -21l-16 -16l-2 -13l-11 -14l-10 -12l-14 -25l-29 -35l-29 -22l-18 -16l-12 -9l-27 -12l-22 -6l-21 -14l-29 -9l-20 -4l-33 -4l-22 -8h-64l-14 -2h-10zM426 274h61l21 7l16 8l23 12
l10 8l16 17l15 16l6 12l8 15l8 20l11 21l10 26l12 39l6 23l6 28l9 27l2 12l4 10l4 13l6 24l2 15l4 26l4 29l4 31l2 14l4 16l11 29v29l6 43l2 12l4 43l-2 43l2 59l-4 56l-2 16l-12 35l-15 27l-12 10l-10 8l-35 10l-33 4l-27 2l-18 -2l-6 -16l-6 -14v-13l-4 -14l-7 -31l-8 -28
l-4 -27l-4 -29l-4 -45l-2 -12l-4 -14v-15l-2 -16l-6 -12v-13l-6 -28l-5 -33v-14l-6 -29l-4 -12l-6 -29v-12l-6 -29l-4 -14l2 -13l-4 -14l-8 -53v-27l-2 -12l-11 -29v-12l-6 -31l-8 -37l-2 -14l-8 -29l-4 -30l-2 -31l-7 -35l-4 -18z" />
    <glyph glyph-name="E" unicode="E" horiz-adv-x="772" 
d="M301 -2l-39 2h-53l-14 2h-109l-18 4l-7 19l7 18l4 18l4 31l4 33l8 31l2 32l6 17v18l4 15v14l4 16l2 15l3 28l4 27l8 16l4 33v14l4 17l4 26v11l8 24l-2 13l6 26l7 14l2 15l6 31l4 14l8 43v31l8 28l4 31l6 14l3 17l2 14v14l8 13l12 61l6 16l4 15l-2 12l6 29l9 31l2 57l6 14
l2 43l8 12l4 17l2 14l-2 12l2 15l8 26l4 29l7 12v15l6 14l-2 12l4 15l2 26l4 13l2 12l2 27l2 12l-4 14l6 25l6 12l2 12l17 13h34l13 2l14 -2l25 2h14l16 -2h21l45 2l154 2l47 -2l16 -2l59 2h45l19 2l20 -2l19 -2l10 -15l-6 -22v-13l-4 -51v-12l-6 -14l-2 -15l-2 -12l-7 -31
v-16l-8 -29l-2 -12l-6 -27l-20 -2h-86l-25 -2h-133l-49 -2l-6 -24l-2 -15v-28l-7 -13v-16l-6 -39l-4 -29l-6 -28l-4 -15l2 -16l-6 -21l-4 -36h37l71 -2l39 4h53l17 -4l12 -17l-4 -24v-17l-4 -22l-6 -29l-4 -14l-6 -31v-14l-7 -17l-4 -28l-6 -33l-4 -29l-4 -4h-21l-30 -2h-19
l-51 -2l-35 2h-22l-27 -2h-18l-8 -23l-7 -26l-8 -58l-6 -20l-4 -18l-2 -21l-4 -14l-6 -37l-9 -53v-17l9 -8l28 -4h121l29 -2l45 -2l57 2l15 -6l-2 -17l-3 -8l-4 -22l-2 -17l-8 -45v-26l-4 -15l-4 -12l-2 -14l-6 -31l-2 -35l-4 -18l-7 -23h-194l-33 -2l-26 2l-13 -2h-43
l-33 -2z" />
    <glyph glyph-name="F" unicode="F" horiz-adv-x="747" 
d="M119 -2l-21 2l-24 4l-8 21v22l8 16l-2 29l2 12l2 15l4 22l8 17l2 12l2 14l2 27l2 16l8 29l9 20v19l4 12l2 29l6 18v17l4 12v14l8 25v29l4 26l11 29l6 33l-2 14l4 31l6 14v29l8 57l8 27v14l6 29l2 26l9 27l8 24l4 15l6 24v25l4 29l6 14l4 29l5 14l4 27l-2 12l2 14v15l2 14
l10 33v14l6 12l2 29l6 27l4 12l2 16l2 27l2 22l9 15v16l8 37l4 27l4 10l-2 24l2 15l4 24l25 11l100 4l74 -2l53 -2h240l32 -2h25l27 -9l6 -16l-4 -14v-23l-4 -27v-10l-7 -35l-6 -26l-2 -12v-15l-8 -37l-6 -43l-19 -10l-18 2l-33 -4l-39 4l-28 2l-54 -2l-84 -2h-20l-4 -16
l-2 -23l-2 -14l-6 -31l-6 -29v-10l-9 -49l-8 -16v-17l-4 -14l-2 -12v-15l-4 -24l-6 -21l22 -2l90 -2l25 2l29 2h22l29 -2l6 -22l-2 -17l-6 -16v-16l-8 -29v-10l-7 -25l-2 -12l-2 -15l-6 -26v-25l-8 -26l-6 -29l-12 -25h-21l-22 2h-74l-47 -4l-49 4l-7 -32l-4 -21l-4 -26
l-6 -29l-2 -10l-8 -23l2 -12l-6 -27l-6 -31l-6 -24l-9 -27l2 -14l-4 -14l-2 -29v-12l-4 -29l-4 -25l-2 -14l-12 -25l-2 -14v-12l-2 -15l2 -14l-7 -24l-4 -25l-8 -27l-20 -14l-15 2l-14 -2l-49 -4l-41 2l-12 -2h-80z" />
    <glyph glyph-name="G" unicode="G" horiz-adv-x="946" 
d="M444 -20l-26 2h-15l-32 4h-13l-34 8l-21 6l-35 8l-28 15l-29 22l-16 8l-21 23l-8 10l-6 10l-15 25l-14 14l-6 19l-6 20l-2 16l-8 21l-7 14v13l-8 43l2 36l4 21v29l2 8v26l2 15l2 12l3 27l2 14l4 27l-4 14l8 27v26l6 29l2 31l8 28l2 33l2 16l8 29l5 29l10 43l6 26l-2 19
l6 20l2 15l8 28l6 23l5 26l2 17l8 18l2 23l4 14l2 12l6 13l2 14l6 12l4 15l7 12l10 25l2 10l8 24l8 29l6 12l6 17l13 26l6 13l4 14l10 18l10 23l9 10l6 12l8 11l23 24l26 21l27 12l26 14l27 11l27 8l32 4l29 6h62l55 2l26 -2l27 -4l16 -4h27l35 -6l14 -6l35 -15l29 -10
l24 -21l29 -28l6 -12l6 -9l4 -18l9 -23l2 -22l2 -27v-80l-2 -26v-23l-2 -24v-15l-5 -24l-2 -25l-2 -18l-4 -31l-12 -27l-18 -12l-41 -2l-35 2l-33 -2l-20 2h-58l-22 2l-21 8l-2 17l2 22l4 33l4 27l4 14l-2 18l7 37l-2 15l-3 22l-2 12l-10 15l-12 12l-21 8h-45l-14 -4
l-18 -10l-17 -16l-6 -13l-8 -14l-6 -14l-2 -13l-13 -22l-12 -27l-6 -24l-2 -17l-6 -14v-15l-8 -18l-2 -12l-5 -15l-4 -24l-8 -17l-2 -14l-4 -27l-6 -14l-4 -20l-2 -19l-6 -18l-7 -27l-2 -22l-8 -39l-6 -27l-4 -14l-2 -27l-4 -12l-2 -29v-14l-6 -21l-7 -22v-23l-2 -28l-2 -27
l-2 -14l-2 -13l-2 -26l-2 -29v-31l2 -20v-21l13 -18l8 -14l6 -6l20 -11l39 -6h39l25 8l22 15l15 18l8 19l10 24l6 19l6 20l13 47l10 80l-4 10l-15 2h-47l-12 13v24l10 55l6 50l4 20l3 16l10 46l2 8l10 12l49 2l17 -2l32 2l33 -2h74l14 2l29 -2h43l24 -10v-51l-4 -27v-16
l-4 -25l-2 -16l-2 -13l-2 -14v-12l-6 -27l-4 -12l2 -15l-4 -12l-4 -26l-2 -15l-6 -24l-3 -15l-4 -24l-4 -23l-4 -33l-8 -28l-6 -15l-4 -39l-6 -10l-4 -16l-7 -19l-10 -26l-8 -15l-4 -12l-4 -14l-15 -31l-8 -14l-18 -27l-25 -31l-24 -16l-13 -6l-16 -12l-27 -13l-30 -12
l-43 -6l-11 -2l-28 -6l-33 -6h-45z" />
    <glyph glyph-name="H" unicode="H" horiz-adv-x="1030" 
d="M696 -4l-16 4h-55l-23 2h-14l-15 2l-12 19l2 16l2 18l4 19l9 14v29l8 43l2 14v14l2 15l2 26l4 11l2 28l6 31l4 39l13 61l8 23l4 20v25l6 29l4 14l4 29v14l4 25l-18 -2h-15l-18 4l-65 -7l-31 7l-35 2l-2 -11l-2 -16l-8 -29l-4 -26l-9 -15v-34l-4 -15l-10 -47l-12 -45
l2 -12l-10 -25l-2 -10l-9 -27l-4 -30l-12 -58l-2 -16l-6 -29v-14l-4 -29l-4 -16l-2 -14l-5 -31l-10 -21l-16 -8l-19 -2l-24 -2l-31 -4h-16l-15 6l-14 -2l-14 -4l-25 4h-65l-41 4l-9 23v16l9 18l10 27l2 21l4 18v14l4 13l-4 14l12 23l4 14l-2 16l9 29l-3 29l9 14l8 18l2 15
v16l6 29l4 16l10 72l5 12l2 12l4 17l-2 14l8 29l2 26l6 21l4 24v15l4 31l6 14l6 16v17l9 28l10 60l2 12l4 29l2 28l12 29l2 14l2 29l9 43l4 27l4 16l6 43l2 10v29l8 16l2 17l2 12l6 27v43l15 26l-2 29l4 14l2 15l6 14l-2 16l4 15l6 26l2 25l2 22l19 11h51l84 2l29 -2h45
l20 6l25 -4l20 -4l4 -19v-12l2 -15l-6 -24l-2 -12l-2 -29l-6 -18l-2 -19l-8 -39l-4 -28l-2 -25l-7 -14v-33l-4 -15l-4 -16l-2 -27l-4 -10l-2 -24v-13l-4 -10l-4 -16l-2 -15l-6 -12l2 -14l-6 -27l-5 -14l3 -12l-5 -17l-2 -12l-4 -17l15 -2h16l59 -2l17 2l24 -2l17 2l43 -2
l2 11l4 22l8 19v14l2 14l10 31l-4 12l11 27l2 12l2 15l2 16l2 14l4 13v14l6 26l2 27l8 19v24l-2 17l2 14l8 29v16l7 27l4 12l4 26l2 13l8 18l4 14l-2 15l2 12l16 19l13 2l18 2h74l41 -2h57l33 -4l14 -7l15 -18l-2 -12l2 -15l-9 -12l2 -8l-2 -12v-15l-8 -24l-2 -29v-16
l-2 -15l-4 -14l-4 -16l-2 -27v-14l-4 -27l-2 -14l-6 -27l-2 -14l-5 -15l-2 -16l-4 -27l-2 -12l-10 -25l-2 -12l-4 -26l-4 -33l-2 -31l-10 -29l-3 -30l-2 -13l-6 -28l-2 -15l-8 -12v-16l4 -15l-6 -12l-2 -14v-27l-2 -14l-10 -27l-2 -14l-9 -37v-12l-4 -23l-6 -29l-4 -14
l2 -12l-12 -43l2 -12l-4 -15l-4 -12l-2 -14l-6 -29v-17l-3 -14l-6 -29l-6 -22l-4 -12l-2 -29l-2 -33l-6 -28l-2 -15l-4 -26l-4 -15l-2 -22l-5 -25l-6 -10l-2 -16l-4 -15v-16l-4 -15l-8 -12l-25 -6h-30l-13 -2l-26 -2h-41z" />
    <glyph glyph-name="I" unicode="I" horiz-adv-x="538" 
d="M283 -4l-15 2h-59l-29 4h-16l-14 -2l-23 2l-14 2l-17 -2l-16 4l-17 14l-2 31l11 29l2 31l4 14l4 29l2 16l6 31l2 14l4 16l2 15l8 26l-2 13l7 37l6 22l4 18l6 19l4 18l4 25v14l4 15l2 12l4 14l-2 15l15 45l4 30v13l4 14l2 14l2 13l4 28v29l8 29v14l4 29l9 16v27l4 24l6 27
l10 28l6 44v28l6 15l4 28l2 12l-2 15l9 24l2 13l6 26l2 15l8 26l-2 15l2 16l2 27l4 10l4 29l6 26l2 12l5 13l2 24l4 23l8 22l4 31l4 12l2 15l14 20l15 6l12 9l14 2l31 2l19 -2h28l15 2h108l14 2l23 -6l8 -21l-2 -12v-27l-4 -6l-2 -23l2 -12l-6 -8v-18l-6 -11l-4 -28l-9 -19
v-16l-2 -12v-15l-2 -12l-10 -53l-4 -23l-4 -12l-4 -25l-2 -14l-2 -25l-2 -14l-4 -27l-7 -24l-6 -27l-2 -10l-6 -29l-6 -18v-19l-2 -14l-2 -16v-15l-4 -26l-6 -21l-11 -61l-8 -29l-6 -14v-17l-6 -26l-4 -27l-4 -24l-8 -29v-16l-9 -29v-17l-4 -28l-2 -10v-29l-10 -21l2 -22
l-6 -31l-2 -16l-8 -27v-16l-6 -29l-5 -29l-4 -26v-15l-6 -22l-8 -49l-6 -27l-4 -29l-6 -26l-2 -17l-7 -18l-22 -6h-53z" />
    <glyph glyph-name="J" unicode="J" horiz-adv-x="886" 
d="M360 -12l-14 2l-20 2l-23 4l-18 6l-21 8l-8 4l-27 11l-26 14l-29 18l-10 15l-19 20l-16 21l-23 34l-4 13l-4 24l-8 17l-4 20v12l-4 13l-6 53l-2 27v41l2 16l2 74l2 32l2 37l12 43l2 41l2 23l11 14l18 6l10 9h15l43 4l18 -2l31 -2l6 2h31l73 -2l2 -3l19 -4l4 -24v-21
l-6 -67l-6 -35l-5 -35l-4 -47l-6 -55v-35l2 -27l6 -20l17 -19l18 -10h23l26 2l23 17l12 16l13 27l6 28l8 29l10 51l4 19l4 24l6 29v12l5 14l4 27l8 37l-2 14l4 12l8 39l4 31l6 37l4 29l2 16l5 14l2 27l2 29v12l4 20l4 13l2 14l4 25l6 14v20l2 15v12l4 14l6 29v12l4 15l3 26
l4 13l4 30l6 31v12l-49 2h-242l-22 2l-17 3l-10 20l-2 14l6 45l2 15l4 24v13l6 14l4 14l2 37l2 16l7 19l8 14l6 8l22 7h31l29 2l29 -2l45 8l53 -6l14 -2h135l19 2h84l24 -2h95l8 -2h2l14 -2l21 -9l4 -22l2 -13l-4 -14v-12l-2 -14v-15l-2 -12l-2 -14l-5 -13l-6 -57l-2 -12
l-8 -29v-14l-18 -74l-7 -27v-14l-2 -27l-4 -28l-8 -15v-18l-4 -14v-15l-6 -14v-41l-8 -12l-4 -29l-2 -12v-15l-5 -26l-2 -27l-8 -22l-2 -25l-8 -25l-4 -47l-10 -30l-4 -15v-14l-3 -12l-4 -15l-2 -26l-6 -13l-8 -36l-2 -23v-20l-6 -17l-2 -20l-8 -15l4 -14l-6 -14l-3 -19v-16
l-6 -15v-14l-8 -14v-15l-8 -18l-10 -29l-6 -20l-9 -21l-10 -14l-8 -16l-14 -21l-9 -18l-14 -21l-31 -22l-30 -27l-33 -18l-17 -6l-18 -11l-16 -4l-19 -6l-33 -8l-40 -6l-33 -2h-56z" />
    <glyph glyph-name="K" unicode="K" horiz-adv-x="1011" 
d="M90 0l-16 12l2 31v14l6 15l-2 14l6 27l2 12l8 27v14l2 16v15l6 26v10l5 37l6 15l2 28l4 13v12l8 27v14l10 43l6 29l5 30l8 58l6 28l4 17l6 30l8 31l2 29l2 14l4 31l9 41l6 28l2 17l2 14l6 33l6 29l2 22l2 29l6 12v12l5 15l2 26l6 13l4 28l-2 15l6 24l4 15v12l4 14v12
l2 29l4 12l2 17l8 53l9 27v26l6 23v26l4 25l6 39l6 18l8 7h19l14 4l29 -2h51l29 -2l39 2h14l31 -2h30l17 -9l6 -14l-4 -20l-4 -35l-2 -29l-6 -35l-7 -30l-2 -15l-4 -41l-4 -16l-4 -19l-2 -20l-4 -14v-15l-4 -12l-10 -55l-7 -25l-6 -37l4 -14l21 20l12 25l23 27l12 18l12 16
l17 15l10 20l4 10l16 21l15 20l16 19l10 18l21 31l18 23l4 14l13 16l22 31l19 27l22 30l12 13l7 16l16 23l20 6l37 -2h64l20 -2l10 2h39l29 4l41 -4l18 2l25 -6l6 -15l-16 -24l-6 -15l-17 -20l-18 -23l-10 -14l-11 -10l-2 -13l-8 -10l-14 -20l-8 -15l-11 -20l-16 -19l-8 -12
l-13 -12l-8 -17l-16 -18l-8 -20l-13 -15l-10 -14l-20 -25l-13 -18l-12 -17l-31 -45l-14 -20l-18 -25l-23 -34l-14 -19l-10 -18l-15 -23l-37 -49l-20 -41l4 -20l10 -33l4 -21l11 -24l6 -25l16 -57l4 -17l8 -26l11 -23l8 -18l2 -17l6 -16l2 -12l8 -19l2 -14l10 -22l9 -25
l4 -14l16 -25l2 -14v-13l8 -14l9 -27v-12l16 -24l2 -19l2 -14l6 -12v-17l6 -14l7 -10l2 -17l6 -22l14 -25l8 -22l13 -35l4 -11l-2 -18l-48 -2h-51l-63 2l-19 -2h-43l-14 2l-45 -2l-25 4l-8 12l-6 27l-18 49l-17 58l-8 24l-8 16l-6 27l-4 14l-5 13l-10 28l-8 29l-8 25l-12 26
l-5 27l-2 12l-6 15l-10 22v14l-10 23l-2 16l-6 19l-7 16l-18 53l-12 31h-6l-2 -12l-5 -17l-2 -14l-4 -12l-4 -43l-4 -27l-4 -24l-2 -15v-12l-6 -29l-4 -16l-2 -29l-2 -16l-2 -27l-7 -14l-4 -12l-4 -43l-6 -33l-6 -25l-4 -12l-2 -14l-2 -27l-8 -29l-9 -22v-25l-10 -41l-22 -8
h-54l-18 -2l-25 2l-28 -2h-13l-6 2l-14 -2h-39l-18 2z" />
    <glyph glyph-name="L" unicode="L" horiz-adv-x="720" 
d="M90 -2l-16 10l-8 12l-3 15l-2 12l2 12l9 21l6 20l2 15l2 12l8 27v30l8 27v14l2 13l4 26l5 19v24l10 29l4 12l6 14l-2 13l6 26l6 15v12l2 12l4 29l5 12v29l2 12l2 15v12l8 29v14l10 29l8 61l8 29v10l13 57l4 27l4 24l10 27l2 16v29l10 27v14l5 25l6 43l-2 16l6 16l8 29
l4 16l-4 15l4 16l2 27l4 22l8 13v14l2 14v13l9 14l2 33l6 32l8 25l2 25v14l4 12l10 41l7 13l32 4h49l76 -2h80l41 -2l6 -25l-2 -14v-15l-12 -49v-14l-4 -13l-6 -43l-4 -22l-5 -21l-16 -71l-6 -29v-16l-8 -29l-4 -29l-9 -14l5 -16l-5 -17l-2 -14l-4 -14l-6 -29l-6 -27l-8 -14
l2 -16l-4 -15v-16l-6 -43l-4 -14v-29l-5 -14l-6 -31l-2 -15l-8 -32l-2 -31l-6 -29l-2 -16l-2 -14l-8 -33v-15l-5 -16l-2 -29l-8 -26l-2 -27l-4 -18v-21l-2 -14l-2 -12l-4 -15l-2 -22l-4 -21v-20l10 -10h20l19 -2h106l45 2h54l12 -7l-2 -30l-4 -15l2 -14l-6 -16l-10 -72
l-7 -14v-15l-2 -12l-4 -31l-8 -32l-16 -15h-39l-27 -4l-45 -6l-37 2l-31 -2l-28 4l-41 -2h-168l-21 -2h-57l-14 2z" />
    <glyph glyph-name="M" unicode="M" horiz-adv-x="1323" 
d="M238 -4l-56 4h-55l-29 2l-8 6l-10 12v15l2 31l2 12l-4 18l6 19l2 14l2 27l6 22l4 25l4 14l7 29l2 16v14l6 15l2 16l2 29l6 29l4 16l2 16l2 13l2 28l4 13l4 30l3 33l8 31v16l4 29l10 41v18l2 13l6 24l-2 12l6 19l4 16l5 25l2 24v15l4 12l2 14l4 27l2 12l6 15l6 24l2 27
l4 26l4 13l4 28l3 13l4 28l2 17l6 26l4 15l4 12v14l2 13l12 61v12l2 27l4 24l7 23l2 14l6 27l-2 16l4 15l2 22l8 19v14l12 25l21 2h29l38 2l35 -2h35l37 2l41 -2h27l12 -19l6 -57l4 -15l4 -28l2 -12l6 -29l2 -35l7 -33l4 -26l2 -29l4 -14v-17l8 -43l2 -12l4 -29v-14l2 -14
l6 -13l2 -26v-13l2 -26l7 -29v-14l6 -29l8 -70l8 -28v-12l2 -15v-14l4 -12l4 -27l9 -39h6l26 51l6 10l9 13l16 33l6 14l14 29l13 20l14 18v13l14 30l13 19l8 20l14 27l13 12l8 25l18 26l8 13l2 12l21 31l41 82l8 12l29 57l12 27l16 29l15 22l12 25l8 12l6 10l4 8l2 13l9 12
l10 25l14 20l10 21l50 4l49 -2l33 2l69 -4l41 2l19 -13l4 -14l-6 -27l-5 -12l-2 -29l-2 -8l-2 -14l-2 -12l-2 -15l-2 -6v-29l-4 -12l-2 -14l-10 -27v-16l-6 -29l-4 -12l-3 -25l3 -12l-9 -14v-35l-6 -12l-10 -27l-2 -12l-4 -29l-2 -33l-8 -16l-2 -19v-12l-3 -14l-4 -13
l-6 -26l-4 -29l-6 -24l-2 -13l-2 -14l-6 -25l-2 -22l-2 -31l-9 -14v-15l3 -14l-3 -12l-2 -15l-2 -12l-6 -26l-10 -15l6 -16l-4 -31l-6 -29v-12l-4 -26l-10 -31l-2 -14l-7 -31l-2 -15l-2 -16l-4 -29l-4 -12l-4 -29l-2 -16l-6 -27l-2 -14l-4 -12l-2 -27l-2 -14v-14l-7 -27
l-2 -17l-6 -28l-6 -27l-4 -26l-6 -19l-29 -8h-22l-62 2h-90l-29 -2l-10 2h-14l-15 10l-4 23l-2 14l2 12l7 29l2 14l4 31l4 17l4 28l4 31l6 29l8 26l2 27l9 24l6 27v29l4 26l6 15l2 24l2 13l2 14l6 22l2 15v12l4 14l17 80l6 37l6 29l2 12l4 14l8 50h-6l-61 -121l-47 -105
l-27 -61l-45 -84l-55 -121l-15 -25l-10 -20l-22 -4h-13l-18 4l-45 -4l-39 6l-19 2l-24 12l-2 15l-10 34l-2 17l-5 14l-2 17l-2 14l-4 14l-4 35l-4 43l-4 12l-6 29l-4 27l-13 86l-4 43l-4 30l-2 15l-2 12l-8 94h-8l-10 -84v-24l-9 -33l-8 -76l-2 -14l-4 -12v-39l-2 -15
l-4 -26l-2 -13l-4 -14l-4 -29l-4 -24v-15l-2 -28l-5 -29v-12l-8 -25l-2 -16l-2 -19l-4 -32l-4 -29l-2 -12l-6 -25v-27l-2 -26l-6 -14l-3 -13l-2 -20l-12 -23l-24 -10h-62l-10 -2z" />
    <glyph glyph-name="N" unicode="N" horiz-adv-x="1103" 
d="M104 -4l-30 4l-11 25l5 16v33l4 32l8 29l2 15l6 28l4 10l6 29l4 19l7 32v15l4 16v27l8 14l2 25l2 14l6 24l2 13l-2 14l4 27l8 32l4 25l5 18l6 23l4 25l2 14l4 12l2 27l2 12v12l10 25l2 12l2 15l2 28l2 21l11 24l4 17l4 20v29l2 16l6 17v16l6 14v15l4 14l4 27l7 22l6 19
v24l2 15l4 12l10 57v14l8 19l4 18l2 27l2 14l3 13l2 14l4 12l2 15l4 26l4 25l6 26v17l6 26l4 13l6 10l13 22l20 5l29 2l35 -2h18l27 2l39 -2l24 2l31 -2h29l22 -7l12 -18l2 -14l9 -21l4 -24l2 -23l8 -29l8 -49l6 -33l7 -34l6 -29l8 -41l4 -16l2 -15l4 -30l6 -27v-12l6 -23
v-14l2 -23l7 -30l4 -35l6 -35l2 -33l4 -29l4 -16l6 -55l8 -47l4 -45v-15l5 -14l4 -25l6 -55l6 -45h6l2 41l4 49v29l6 98l7 43v70l6 28l2 13l2 14l2 16l2 29l4 12l4 29v12l8 27v25l2 24v14l13 25l-2 14l6 37v13l6 26l2 15l4 12l4 28l2 17l6 29l4 14l6 16v19l3 12l6 33l8 43
l16 28l8 7l39 8l43 -4l15 2h20l47 -2h21l28 2l29 -6l12 -7l2 -16v-16l-6 -29l2 -16l-6 -45l-4 -29l-12 -49l-6 -23l-6 -37l-5 -16l-6 -43l-8 -33l-4 -33l-6 -18l-4 -16l-4 -15v-26l-4 -15l-9 -61l-6 -19l-2 -22l-2 -14l-4 -17l-6 -26l-4 -15l-6 -26l-4 -29l-5 -16l3 -19
l-5 -12l-2 -15l-4 -12l-2 -14l-2 -12v-27l-6 -12l-6 -29l-4 -18l-2 -19l-2 -12l-2 -15l-2 -12v-12l-9 -29l-4 -28l-4 -21l-8 -18l-8 -25l-2 -22l-2 -27l-4 -27l-6 -16l-9 -29v-33l-10 -26v-12l-4 -15l-6 -26l-10 -66l-19 -25l-20 -14l-29 -2l-23 -4h-8l-39 2l-14 -2l-20 2
l-13 -2h-41l-26 2h-35l-17 14l-16 33l-10 29l-2 10l-2 25l-2 12l-4 43l-2 12l-9 43l-2 13l-4 28l-2 31l-6 22l-6 31v12l-6 29l-2 12l-6 29l-2 12v31l-9 41l-4 39l-8 57l-10 66l-6 57l-13 74l-12 78h-6l-2 -58l-2 -41l-2 -22l-4 -35l-2 -51l-15 -98l-8 -80l-4 -13l-6 -26
l4 -15l-6 -24l-4 -14l2 -15l-2 -12l-4 -29l-9 -30l-8 -41l-4 -29l-2 -12l-4 -15l-8 -59l-6 -27l-2 -14v-27l-4 -12l-7 -37l-8 -24l-6 -21l-22 -8h-218z" />
    <glyph glyph-name="O" unicode="O" horiz-adv-x="993" 
d="M496 -33l-54 6l-26 -2l-15 2l-18 2l-47 15l-17 2l-30 8l-15 8l-28 19l-37 30l-29 33l-6 10l-10 11l-6 12l-11 14l-16 27v12l-6 14l-2 13l-4 10l-4 12l-2 15l-4 12l-3 29l-2 12l-6 41l4 14v39l7 21l-3 16v14l5 45l8 29v16l4 29v14l8 29l-4 10l4 27l4 14l6 37l6 25v26l7 25
v14l6 13l4 14v12l4 14l-2 13l12 20l4 15v28l4 25l7 14l2 12l4 29l8 51l10 15l4 26l12 27l7 14l8 25l10 29l12 24l9 14l18 27l2 14l8 13l17 26l16 25l14 10l11 12l28 31l27 19l16 6l15 10l24 14l25 13l30 8l13 2l30 8l21 2l37 6l28 2l25 2l37 -2l12 -2l23 -2l32 -4l17 -6
l16 -2l13 -4l30 -15l37 -24l17 -10l10 -13l22 -18l23 -21l10 -12l6 -14l12 -27l7 -12l4 -12l4 -15l6 -30l4 -39l2 -17v-14l-2 -27l-2 -12l2 -27v-14l-2 -27l-4 -14l-2 -12l2 -15v-20l-2 -12l-4 -29l-2 -31l-2 -33l-4 -14l-5 -33l3 -20l-11 -23l2 -24l-8 -27l-4 -26l-6 -27
l-2 -25l-6 -26l-6 -13l-7 -36v-19l-4 -14l-4 -29l-6 -12l-20 -72l2 -12l-11 -25l-6 -12l-2 -23l-10 -22l-6 -25v-14l-6 -22l-11 -15l-2 -20l-14 -29l-16 -37l-11 -14l-18 -27l-8 -12l-10 -12l-5 -13l-24 -24l-12 -10l-11 -13l-24 -18l-25 -17l-8 -6l-47 -18l-14 -2l-17 -4
l-28 -6l-15 -2l-22 -7zM479 246h27l29 8l18 8l29 21l14 28l12 29l4 14v17l6 30l5 15l4 28l6 17l2 28l6 15l6 26l2 17l6 12v16l-2 7l6 18l7 31l4 47l6 18l6 17l4 39l6 12l-2 35l8 30l4 25l5 16l4 15l-2 14l2 27l4 16l6 29l4 18v27l4 37l2 26l4 29l-8 41l-8 12l-14 19l-33 14
l-39 -2l-17 -4l-32 -12l-21 -19l-14 -22l-8 -25l-9 -14l-12 -27l-4 -14l-4 -17l-12 -43v-4l-2 -16l-6 -29l-3 -12l-8 -29l-6 -28l-6 -33l-2 -15l-4 -14l-4 -31l-6 -16l-9 -33l-4 -14l-4 -29v-14l-2 -14l2 -17l-6 -14l-10 -29l2 -16l-4 -15l2 -8l-4 -18v-17l-4 -14v-16
l-6 -31v-14l-7 -15l7 -14l-3 -25l-8 -20l6 -14v-58l7 -14l4 -8l12 -19l10 -10l17 -6l16 -4z" />
    <glyph glyph-name="P" unicode="P" horiz-adv-x="937" 
d="M160 -2l-33 2l-14 2l-37 -2l-13 10v39l7 12l-2 15l6 28v13l6 28l6 31l6 27l2 14l6 25l2 14l2 12l9 47l6 13l2 26l2 15l4 12l8 27l2 12l2 24v11l11 20v23l4 12v14l6 13l2 30l6 43l6 15l2 16l2 29l4 14l2 12l4 15l2 12l7 29l2 16l4 31l6 32l6 27v25l2 26l4 15l6 14l2 27
l2 12l9 33l2 22l-2 8l6 27l2 12l2 37l4 17l6 28l6 19l2 24l4 15v16l4 14l3 15v12l4 14l8 33l2 14l2 17l6 28l2 17l8 26l17 9h106l27 2l26 -2l13 2h137l14 -2l31 2h29l30 -4h17l26 -5l43 -6l33 -6l14 -4l15 -10l14 -6l27 -15l18 -16l8 -10l13 -17l12 -14l6 -16l12 -27l5 -14
l8 -23l2 -22l2 -15l6 -22l-2 -21l2 -30v-15l2 -22l-2 -23l-4 -22l-2 -15l-4 -45l-4 -28l-7 -15l-2 -16l-6 -14l-2 -13l-4 -12l-6 -29l-6 -16l-10 -29l-17 -39l-10 -22l-14 -25l-19 -31l-12 -12l-14 -24l-19 -17l-14 -20l-10 -15l-27 -20l-10 -12l-29 -15l-20 -6l-27 -12
l-33 -10l-24 -4l-27 -3l-29 -4l-57 -4l-39 2h-45l-31 2v-4l-2 -14l-6 -16l-2 -27l-4 -10l-2 -27l-2 -12l-2 -15l-4 -12l-2 -14v-12l-6 -29l-7 -19l-4 -24l-4 -14l-6 -25l-2 -14l-6 -15v-20l-6 -31v-29l-9 -12v-16l-2 -15l-4 -12l-2 -14l-6 -17l-2 -18l-2 -16l-6 -25l-14 -2
h-164zM481 786h54l22 5l39 4l14 6l33 24l23 21l14 22l8 13l10 28l4 19l9 18l8 35l8 57l4 54v34l-8 25l-12 18l-23 17l-18 4l-56 2l-47 -2l-14 -4l-10 -25l-4 -10l-2 -21l-5 -34l-4 -15l-6 -24l-6 -41l-4 -21l-6 -32l-2 -25v-16l-4 -19l-11 -51v-18l-6 -29z" />
    <glyph glyph-name="Q" unicode="Q" horiz-adv-x="999" 
d="M778 -125l-28 8l-25 23l-12 8l-25 27l-18 18l-6 10l-9 15l-12 20l-4 8l-4 6l-23 -8l-28 -8l-39 -14l-45 -8l-47 2l-27 -2l-18 4h-21l-25 4l-32 8l-27 6l-12 6l-15 6l-22 11l-14 12l-13 10l-22 21l-10 8l-7 12l-6 8l-30 43l-7 15l-16 57l-10 31v28l-6 43l-4 27v53l2 27
l-5 12l5 12l4 25v45l6 21l2 28l6 25v8l6 57l6 27v27l6 28l7 31l2 16l4 15l2 12l6 12l2 25l6 12v14l4 25l8 25l5 14l2 16l4 15l4 12v12l4 15v12l6 26l16 46l2 12l15 45l4 12l12 29l19 47l6 8l24 47l19 23l22 22l13 11l10 10l22 20l23 15l12 8l19 8l20 14l14 6l25 9l22 4l21 4
l16 6l21 2l14 2l27 4h47l12 -2l31 -2h12l33 -6l12 -4l31 -8l16 -9l21 -8l18 -6l15 -6l14 -10l14 -8l13 -11l12 -12l12 -10l12 -21l15 -24l14 -27l2 -16l4 -15l10 -22v-27l5 -12l-2 -29l4 -14l-2 -57v-13l-2 -102l-3 -12l-2 -15l-2 -12l-6 -43l2 -33l-4 -12l-4 -29l-2 -12
v-14l-4 -27l-4 -14v-15l-2 -14l-4 -35l-6 -35l-2 -18l-5 -19l-6 -28l-4 -15l-6 -26l2 -14l-4 -13v-12l-14 -61l-15 -56l-6 -12v-12l-14 -37l-12 -43l-19 -37l-12 -27l-23 -26l-10 -11l12 -20l29 -39l18 -25l15 -16l14 -18l6 -4l17 -21l16 -22l18 -11l7 -14l2 -21l-29 -20
l-14 -8l-23 -15l-22 -10l-39 -24l-35 -11zM473 240h35l29 8l20 14l10 8l13 13l16 20l4 14l10 25l8 35l9 14l6 31l6 33l4 32l8 35l11 41l8 25l-2 18l10 45l4 35l6 31v12l6 14l4 27l-2 16l2 13l9 30l2 31l2 17l6 16l2 47l-2 12l2 17l4 30l-2 15v30l2 37v31l2 14l-10 23l-4 12
l-9 17l-26 20l-14 6l-35 4l-37 -8l-31 -31l-6 -18l-8 -6l-8 -31l-5 -12l-4 -17l-10 -26l-12 -49l-8 -21l-4 -26l-7 -27l-6 -43l-4 -10l-4 -23l-16 -65l-6 -37l-9 -39l-6 -27l-2 -33l-6 -26v-10l-4 -37l-8 -31l-2 -16l-4 -15l-2 -16l-5 -25v-14l3 -20l-5 -25l-4 -27l-2 -18
l2 -12l4 -31l7 -33l14 -33l14 -10l21 -12z" />
    <glyph glyph-name="R" unicode="R" horiz-adv-x="962" 
d="M270 -4l-73 2h-27l-64 4l-18 4l-4 12v19l6 20l2 21l2 22v15l4 12v14l6 15v12l2 14l7 29v14l6 17l-2 14l6 16l2 29l4 16l2 15l-2 16l8 17v30l10 37v19l5 20l2 31v16l8 29l2 14l2 17v18l10 14l4 13l-2 12l2 24l4 15l6 12v12l5 15l4 22l2 13l4 26l4 29v16l10 43v15l2 12
l2 14l4 27l2 12v14l2 13l9 24l2 29l2 12l6 29l6 33l6 28l2 13v12l2 27v12l4 14l6 25l7 33l8 57l2 16l2 15v16l8 16l-2 23l8 10l15 17l20 4h29l123 -2h88l14 2l20 2l17 -4l31 -5h18l27 -4l30 -2l23 -4h33l16 -4l23 -10l18 -8l14 -4l19 -13l12 -6l10 -6l25 -14l8 -9l10 -12
l9 -10l14 -25l14 -28l6 -33l4 -39v-14l7 -39v-17l-7 -28l-2 -15l2 -30v-15l-6 -32l-4 -33l-6 -21l-8 -24l-4 -15l-4 -12l-6 -14l-11 -25l-18 -26l-6 -15l-8 -18l-17 -27l-6 -12l-23 -27l-10 -10l-28 -31l-41 -26l-29 -15l-14 -2v-18l6 -17l10 -30v-19l4 -26l8 -13l2 -16
l4 -27l7 -12l6 -26l4 -13l4 -28l6 -15l4 -16l8 -27v-12l11 -31l4 -26l22 -74l4 -29l15 -35l2 -24l2 -15l4 -18l14 -39l-6 -27l-10 -2l-23 -4h-26l-43 -6l-54 -6h-26l-23 -2h-16l-19 -2l-12 2l-18 18l-4 11l-7 24l-4 10l-6 23l-12 31v16l-6 17l-4 6l-4 26l-7 15v14l-6 12
l-2 15l-6 22l-8 21v24l-12 37l-2 14l-9 25l-4 14l-4 27l-8 27l-2 28l-4 10l-6 29l-4 21l-9 16l-4 16l-8 17l-8 8l-14 2l-2 -8l-5 -13l-6 -28l-2 -17l-6 -43v-34l-10 -27l-4 -29v-12l-4 -29l-9 -16v-43l-4 -16l-8 -43l-2 -17l-4 -12v-16l-6 -29l2 -12l-4 -15v-12l-2 -27
l-2 -14v-12l-2 -15l-2 -24l-7 -15l-6 -18l-20 2l-19 -2l-30 -2zM537 840h32l25 6l12 8l21 12l14 8l14 17l9 12l14 12l10 27l4 16l2 13l15 28v17l6 16l2 33l-2 45l-6 43l-11 18l-14 15l-18 10l-45 6l-50 2l-18 -6l-6 -22l-6 -15l-4 -33l-2 -30l-3 -27l-4 -16l-6 -33v-14
l-4 -31l-6 -19l2 -18l-4 -18l-6 -33l-2 -15l2 -14l-2 -16z" />
    <glyph glyph-name="S" unicode="S" horiz-adv-x="815" 
d="M406 -27l-50 4l-14 3h-20l-23 4l-20 4l-15 4l-33 14l-22 8l-21 15l-24 16l-21 27l-20 24l-19 29l-14 35l-4 16l-14 37l-2 12l-7 29l-2 12l-4 33v61l2 35l-2 15l4 30l2 17l5 14l6 33l28 14l50 4l24 -2h115l26 -2l17 -29v-75l-2 -15v-43l4 -45l6 -20l14 -31l21 -20l26 -7
h19l16 5l23 6l10 10l10 18l8 15l9 24l4 25l2 20v15l-2 28v33l-8 37v12l-7 31l-16 29l-16 24l-15 29l-8 12l-4 10l-6 11l-14 14l-11 16l-22 27l-10 10l-9 13l-22 26l-25 27l-18 26l-21 23l-20 16l-10 15l-13 20l-12 31l-8 18l-10 15l-7 14l-4 16l-8 27l-2 27l-2 16l2 14v60
l4 41l6 14l2 29l9 14l6 21l2 20l12 27l8 16l6 14l7 11l16 18l6 8l12 21l13 12l24 20l37 27l33 12l22 13l39 8l35 10h64l51 -2h14l19 -4l30 -2l35 -10l14 -2l9 -7l24 -12l15 -12l16 -6l22 -21l7 -8l20 -22l6 -11l15 -22l8 -13l4 -22l6 -14l12 -50v-45l2 -41l-2 -34l-8 -58
l-8 -45l-25 -12l-37 -2h-114l-29 2h-29l-16 14l-2 27l4 16l6 64v47l-4 24l-6 13l-18 18l-21 17l-27 4l-24 -9l-23 -10l-10 -14l-6 -14l-8 -21l-2 -14l-6 -21l-2 -28v-27l2 -14l14 -39l16 -29l9 -16l14 -27l22 -29l27 -32l8 -13l10 -10l9 -16l8 -11l12 -8l21 -16l6 -12l10 -7
l6 -10l19 -20l10 -19l24 -24l15 -35l18 -23l2 -10l17 -41l12 -26l12 -43l2 -15l2 -16l2 -15l11 -34l4 -13l-2 -28l-2 -13l2 -14l-2 -14v-58l-7 -28l-2 -13v-30l-8 -27l-4 -16l-4 -19l-10 -28l-19 -35l-12 -8l-10 -21l-10 -8l-17 -19l-10 -8l-16 -14l-21 -12l-18 -15l-25 -6
l-12 -8l-31 -10l-16 -2l-27 -8l-14 -3l-19 3l-14 -3h-23l-14 -2z" />
    <glyph glyph-name="T" unicode="T" horiz-adv-x="798" 
d="M254 -6l-18 6h-15l-18 16l4 31l2 43l14 43l4 14l2 31l4 12l3 29v14l10 29l2 14l-2 17l10 43v16l6 25l6 31l4 14l2 14l5 27l4 12l2 29l10 20l-4 21l2 14l4 14l10 29l8 31l4 14l-4 15l11 24l4 12v29l6 21v18l4 14l8 13v14l4 12l6 31l-2 14l11 23v20l4 11v16l2 14l4 15
l10 32l2 13v12l2 14v13l6 26l4 14l5 31l2 33h-111l-29 2l-14 -2h-18l-21 2h-16l-19 6l-6 19l4 24l6 17v16l-2 14l8 29l5 12l2 29l8 27l6 12v28l2 13l10 22l19 15l14 2h53l10 -2h15l14 2h152l14 -2h45l131 2l31 -2l43 2l18 -2h127l29 -2l18 -4l5 -17v-12l-3 -15l-4 -16v-14
l-2 -13l-4 -14v-12l-4 -25l-4 -14l-2 -12l-2 -25l-8 -27l-4 -14l-2 -29l-9 -18l-20 -2l-19 2h-24l-19 -2h-20l-86 2l-18 -2l-5 -14l3 -13l-7 -14v-12l-4 -13l-4 -26l-2 -15l-8 -36l-8 -17l4 -10l-10 -29l-9 -26v-13l-2 -24l-2 -12v-15l-10 -24l-4 -31l-4 -14l-6 -29l-6 -12
v-15l-2 -26l-7 -25l-8 -14l-2 -29l-4 -12v-13l-6 -28l-6 -31l-4 -18v-21l-2 -12l-4 -12l-3 -15l-8 -24l-2 -15l-2 -12l2 -14l-6 -29l-6 -33l-8 -26l-2 -15l-6 -26l-11 -43l-4 -17l-6 -28l2 -17l-10 -45l-12 -57l-4 -29l-7 -28l-4 -13l-24 -10h-178z" />
    <glyph glyph-name="U" unicode="U" horiz-adv-x="1040" 
d="M444 -12l-84 10l-14 4l-8 4l-35 12l-14 7l-13 6l-40 24l-21 21l-12 14l-10 12l-11 17l-2 6l-16 33l-17 28l-8 33l-2 29l-8 69l2 13l2 69l4 19l8 55l2 27l3 30l4 25l4 20v27l8 25l2 14l2 12l6 25l-2 14l2 15l6 24l4 14v27l9 27l2 28l6 27l8 29v16l2 29l6 12l6 57l4 13
l4 26v15l3 12l10 27l2 14l2 16l6 29l2 16v17l6 28v15l4 12l6 57l11 27l4 10l4 21l4 28l8 29l4 16l13 5l34 2h11l18 2l86 -2l49 4l19 -2l32 -2l19 -15l2 -31v-28l-4 -12l-4 -15l2 -28l-4 -15l-4 -18l-5 -17l-2 -14l-4 -12v-15l-8 -24l-4 -27l-2 -16v-21l-2 -14l-10 -29
l-2 -16l-7 -31l-4 -30l-2 -13l-6 -14l-2 -21l-2 -14l-4 -16v-15l-10 -28l-2 -13l4 -26l-8 -19l-2 -18l-2 -16l-5 -15l-4 -12l-6 -25v-26l-8 -27l-4 -24l-10 -74l-6 -41l-3 -29l-6 -26l-6 -50l-2 -18l-2 -12l-2 -15l2 -32v-23l2 -25l23 -26l22 -6l43 -6l47 6l21 16l12 16
l6 13l15 32l10 21l4 18l4 13l10 41l6 28l4 15l3 20l4 12l4 19l2 18l4 15l4 16l2 14l4 27l4 20l8 37l2 25l5 14l10 29v16l4 27l6 27l4 24l8 29l2 16l9 29v16l4 29l2 10v29l12 20l-2 23l8 28l2 17l4 29l2 16l6 29l5 28l4 27l-2 14l10 23l2 12l2 25l2 12l6 27l6 28l6 27l2 16
l7 15l61 2h14l15 -2l59 2h14l15 -2h16l14 2l21 -2l14 2l19 2l16 -2l16 -17l3 -31l-13 -28l-2 -31l-4 -16l-4 -29l-2 -16l-8 -29l-2 -14l-4 -17l-2 -14l-9 -27l2 -12l-8 -25v-12l-6 -22l-4 -19l-6 -18l-4 -19l-6 -24v-15l-4 -14l-3 -12l-4 -15l2 -14l-14 -45l-6 -31v-12
l-6 -29l-2 -12l-4 -29l-2 -28l-9 -29v-14l-4 -29l-8 -16l-2 -27l-4 -25l-6 -26l-8 -29l-2 -14l-7 -29v-4l-8 -24l-6 -27v-12l-4 -15l-6 -22l-4 -19v-14l-4 -12l-4 -15l-9 -24l-8 -27l-6 -35l-10 -12l-6 -27l-15 -26l-8 -12l-12 -29l-8 -14l-11 -15l-8 -18l-12 -19l-18 -14
l-17 -21l-18 -10l-17 -10l-24 -10l-10 -8l-33 -13l-13 -4l-24 -6l-19 -4l-12 -4l-41 -4h-47l-31 -2h-41z" />
    <glyph glyph-name="V" unicode="V" horiz-adv-x="974" 
d="M414 0l-23 2h-45l-16 2h-45l-21 -2h-4l-24 10l-7 23l-4 20l2 23l-2 12l-2 14v15l-4 26v31l2 14v31l-2 17v36l2 15v14l-4 14v29l2 14v29l-2 14l2 17l-4 14v29l2 14v17l2 14v29l-4 12l2 14v15l2 14l-6 12l2 14v27l-2 14v27l4 29v16l2 14l-4 15v43l-2 16v27l2 12l2 27l-4 14
v27l6 26l-4 21v65l-2 17l-2 14l2 14v88l2 13l2 28l-2 15l2 14l-2 29l-2 12l2 14v15l2 12l-2 14l2 15l-2 14l2 12v21l6 16l6 8l25 9l25 -2l14 2l33 2l24 -2h125l14 -2l15 -11l6 -14l-2 -27v-4l2 -24v-41l-4 -17v-30l-4 -15l2 -14v-29l-2 -14v-14l-2 -15v-14l-2 -17v-14l4 -14
v-15l-2 -14v-43l-6 -37v-28l-2 -19v-16l-3 -12l7 -13l-2 -26v-11l-2 -14v-43l-3 -16v-15l3 -14v-14l-3 -23v-16l-2 -15l-2 -8l2 -12l-2 -31v-14l-2 -17l-4 -24l2 -23v-22l-2 -19l2 -10l6 2l9 8l6 13l4 12l2 12l14 27l6 16l4 13l7 26l10 15l4 12l10 20l4 15l2 12l9 20l6 15
l4 14l8 27l4 14l6 8l6 15l9 22l4 12l2 13l4 6l4 14l2 12l12 25l4 10l9 10l8 19l6 27l4 14l18 43l2 12l7 14l6 29l2 12l6 15l6 12l4 12l17 27l2 14l4 13l2 14l8 29l6 14l12 27l31 84l14 26l23 12l18 5l23 -7l16 5l13 -5h14l14 -2l13 2h49l14 2l8 -2h29l22 -2h27l20 -6v-20
l-2 -13l-12 -22l-6 -16l-2 -15l-6 -12l-6 -14l-2 -19l-7 -12l-8 -12l-6 -15l-10 -26l-4 -13l-6 -22l-11 -12l-6 -13l-4 -10l-6 -12l-4 -21l-6 -10l-2 -12l-6 -13l-11 -22l-10 -14l-4 -15l-6 -26l-6 -11l-6 -12l-4 -12l-11 -27l-6 -14l-2 -17l-14 -26l-6 -10l-11 -25l-4 -14
l-10 -27l-4 -14l-12 -23l-15 -22l-10 -25l-4 -12l-8 -13l-6 -24l-7 -12l-2 -13l-10 -22l-6 -13l-8 -12l-6 -10l-2 -12l-13 -37l-6 -12l-8 -13v-12l-16 -27l-6 -14l-5 -14l-18 -27l-8 -29l-10 -24l-17 -37l-8 -14l-2 -15l-14 -26l-21 -37l-6 -13l-6 -14l-4 -14l-6 -15
l-11 -12l-10 -31l-6 -14l-4 -12l-6 -12l-4 -13l-9 -12l-12 -23l-8 -14l-12 -22l-6 -19l-11 -6h-16l-19 4l-14 -2l-16 -2h-45z" />
    <glyph glyph-name="W" unicode="W" horiz-adv-x="1335" 
d="M948 -4l-30 2h-146l-10 8l-6 23l-2 28l2 13l-4 28l-4 33l-7 16l2 27l2 12l-2 29l-2 14v41l-6 15l4 12l-2 14l2 29l-6 25l4 22l4 31l-4 26l-4 19l-4 37v14l8 51l-2 35l-2 37l2 37l-4 37h-10l-12 -21l-4 -14l-9 -12l-10 -37l-14 -35l-13 -27l-49 -119l-8 -14l-37 -82
l-2 -14l-12 -25l-2 -12l-6 -23l-13 -26l-12 -25l-4 -12l-6 -25l-6 -14l-8 -12l-7 -29l-6 -14l-8 -21l-6 -18l-4 -23l-14 -22l-7 -12l-4 -11l-28 -10h-13l-18 6l-10 -4l-47 2l-25 -6l-21 8l-12 -2h-20l-15 -2h-20l-14 2l-13 19l2 16l-4 14l2 21v18l-2 15l2 24l-2 12l2 15
l-2 18l2 15l2 22v21l2 12l2 28l-2 15l2 14l-2 29v41l2 12l2 29v112l3 29v16l4 37l-4 27l2 18l4 27v14l4 17l-2 14v35l2 14l2 25l-2 14l2 27l-2 12l2 29l-2 16l4 14l-2 31l-2 14l2 60l2 29l-2 26l4 39l2 14l2 21v24l2 31l-2 43v15l4 40v13l2 14l-2 25v14l2 12v19l4 28l25 7
h53l23 2l20 -2h10l17 2h41l26 -4l23 2h14l23 -13l4 -35v-18l2 -14l-8 -64v-12l2 -14l-2 -76l-4 -12l-3 -48v-36l-2 -15l-6 -28v-27l4 -29l-2 -14l-2 -12l-2 -29l-2 -14v-13l-4 -14v-12l-2 -15l2 -12l-2 -45l-4 -29l2 -14l-2 -16v-29l-4 -27l2 -20h8l12 22l7 13l12 26l4 15
l12 26l6 25l15 26l2 13l28 49l4 24l15 37l4 15l18 37l9 24l6 10l10 25l6 12l6 23l13 28l20 52l4 14l14 41l13 27l4 16l12 37l6 12l15 27l20 10h66l24 -2l21 2h16l14 -2h15l10 -14l2 -52v-61l2 -33l-2 -43v-12l2 -29l-2 -12l2 -76v-14l-4 -27l2 -22v-41l2 -17l-4 -12l2 -16
l-2 -15l-2 -16l4 -41l-2 -74l4 -28v-35h10l6 22l11 25l8 26l16 58l2 14l4 12l19 47l6 25l6 12l4 15l4 12l6 14l7 13l8 26l4 17l8 24l2 15l4 12l4 14l15 25l2 14l6 25l10 53l14 27l9 26l6 23l10 22l10 29l6 12l4 14l7 15l2 14l4 12l12 27l6 10l25 11h14l14 4l64 -2h41l43 2
l29 -2l14 2l14 -2h21l12 -13l-4 -35l-4 -12l-8 -22l-7 -13l-20 -49l-8 -24l-6 -29l-9 -27l-6 -14l-2 -12l-16 -27l-4 -14l-15 -39l-4 -14l-10 -25l-2 -14l-16 -37l-4 -19l-5 -10l-12 -27l-4 -12l-10 -33l-8 -12l-11 -27l-6 -14l-4 -14l-6 -29l-4 -12l-8 -14l-8 -23l-15 -25
l-10 -28l-6 -23l-14 -18l-5 -12l-2 -13l-12 -49l-10 -27l-6 -12l-8 -24l-17 -33l-6 -29l-16 -29l-7 -28l-8 -15l-2 -14l-16 -43l-4 -12l-11 -29l-4 -12l-8 -14l-4 -27l-4 -14l-12 -25l-8 -27l-7 -16l-10 -29l-2 -12l-6 -27l-29 -49l-14 -51z" />
    <glyph glyph-name="X" unicode="X" horiz-adv-x="927" 
d="M594 -6l-12 4l-7 14l-2 11l-6 10l-4 16l-2 25l-2 16l-6 14l-6 35l-8 31l-7 29l-6 26l-12 43l-4 27l-4 12l-6 25l-2 18l-6 15l-7 28l-4 19l-8 24l-6 -2l-8 -12l-17 -33l-14 -24l-8 -13l-2 -10l-8 -12l-7 -11l-30 -49l-6 -14l-7 -12l-14 -25l-6 -14l-14 -25l-7 -14l-12 -25
l-4 -12l-12 -25l-6 -10l-6 -16l-13 -27l-8 -12l-8 -19l-12 -18l-23 -2l-29 -2h-47l-20 2h-33l-31 2l-32 -2h-37l-23 8l4 37l17 27l10 24l24 45l7 13l12 22l6 12l8 13l6 12l15 25l4 12l6 12l8 23l8 12l4 10l13 12l18 35l6 13l11 24l4 15l10 12l4 12l6 12l8 11l15 24l16 25
l8 10l8 14l13 27l6 12l8 13l6 14l19 37l6 10l8 12l4 13l16 22l7 10l6 13l6 10l10 26l18 29l-10 31l-6 14l-2 15l-10 30l-6 15l-4 30l-11 29l-2 12l-6 29l-6 14l-8 17l-8 28l-4 17l-7 14l-8 29l-4 16l-6 14l-4 17l-12 29l-5 12l-6 26l-4 13l-8 26l-8 29l-12 29l-5 14l-8 31
l-6 14l-6 16l-2 15v12l16 19l17 2h92l24 2h29l21 -4l18 2h29l14 -2h25l10 -7l4 -18l4 -25l6 -14l8 -31l2 -12l5 -14v-13l8 -30l2 -13l8 -16l4 -31l2 -14l4 -16l8 -15l4 -22l5 -21l4 -22l6 -17l4 -30l6 -19l4 -31h6l4 7l11 24l12 29l16 22l4 13l9 10l8 20l51 103l8 12l4 10
l8 13l7 12l10 26l8 13l4 14l8 12l6 13l3 14l10 14l10 25l6 10l8 10l29 9h57l17 -4l22 4l23 -4h14l39 4l14 -4l11 4h43l12 -9l2 -14l-12 -22l-4 -15l-5 -12l-8 -14l-4 -13l-6 -12l-12 -14l-6 -11l-11 -24l-14 -25l-6 -8l-6 -12l-6 -19l-15 -10l-6 -14l-8 -21l-12 -20l-11 -21
l-12 -16l-8 -10l-8 -15l-15 -22l-4 -19l-14 -22l-10 -23l-23 -36l-14 -23l-6 -10l-11 -23l-12 -20l-24 -37l-23 -39l-8 -12l-16 -33l-19 -25l-2 -16l4 -23l8 -34l6 -31l3 -14l8 -27l2 -16l2 -15l6 -16l4 -17l6 -26l6 -17l6 -28l9 -29l4 -18l4 -13l12 -43l8 -30l4 -15l5 -12
l8 -27l4 -14v-12l12 -27l2 -12l2 -23l4 -18l6 -12l9 -29l4 -33l4 -14l10 -15l4 -14l8 -35l-14 -10l-27 -4h-26l-15 -2l-34 2l-78 -2h-47z" />
    <glyph glyph-name="Y" unicode="Y" horiz-adv-x="872" 
d="M283 0l-15 2h-30l-23 12l-2 27l4 25l4 26l-2 12l4 15l2 12l2 14l4 13v22l7 19l10 45l2 22l4 27l6 14l4 31l6 29l6 16v20l7 33l8 27l2 12v14l8 23l2 25l10 34l-2 25l-6 20l-2 19l2 16l-4 15l-4 30l-6 31v16l-6 15l-4 28l2 13l-7 30l-6 37l-2 15l-6 24l-8 27l-4 26v15
l-6 33l-11 30l-2 17l-4 51l-4 16l2 25l-6 14l-4 31v14l-8 29l-8 61l-2 27l-2 12l-5 29l-2 27v20l7 16l10 5l16 2l53 2l29 -2l21 2l14 -2l22 4l56 -2h30l23 -25l6 -20v-48l6 -16v-20l8 -17l5 -57l-2 -12l6 -29l4 -14l8 -21l-2 -20l2 -27l6 -21v-18l4 -25l8 -53l2 -30l9 -3
l6 11l4 12l4 10l12 25l8 14l2 12l17 25l10 25l12 22l21 49l12 27l8 12l2 15l17 26l4 12l4 15l18 41l13 28l10 27l6 12l12 21l21 26l14 9l68 4l30 -4l33 2h54l22 -4l41 2l23 -13v-26l-7 -27l-4 -10l-16 -23l-4 -12l-12 -25l-9 -12l-2 -14l-12 -25l-8 -10l-8 -25l-17 -22
l-4 -14l-8 -13l-4 -12l-19 -39l-12 -12l-12 -29l-17 -24l-2 -13l-8 -12l-4 -12l-20 -35l-11 -27l-6 -14l-4 -12l-14 -25l-4 -10l-11 -13l-2 -12l-20 -26l-8 -13l-8 -14l-13 -27l-12 -20l-16 -37l-17 -25l-12 -26l-12 -12l-6 -11l-7 -12l-14 -25l-8 -24l-8 -10l-4 -17l-7 -10
l-10 -10l-4 -21v-14l-8 -27l-6 -22l-4 -21l-4 -24l-5 -13l2 -12l-6 -27l-6 -28l-8 -31l-8 -29l-2 -14l-6 -20l-4 -15v-12l-5 -29l-6 -30l-4 -15l-8 -30l-6 -29l-6 -37l-11 -43h-73l-17 2l-12 -2h-18l-31 2l-12 -2h-43z" />
    <glyph glyph-name="Z" unicode="Z" horiz-adv-x="806" 
d="M446 -4l-18 6h-258l-25 6l-26 -6h-15l-14 -2l-14 2h-29l-22 2l-17 2l-10 21l-6 18l6 43l2 12v47l6 23l6 27l29 43l12 20l8 12l5 11l8 10l12 20l20 35l11 21l10 24l8 17l8 12l7 14l14 25l8 10l4 12l43 66l14 26l17 23l4 10l10 29l10 18l21 35l59 105l13 24l6 10l10 25
l6 12l19 21l4 12l18 35l12 20l7 13l12 22l8 12l12 25l6 10l9 19l12 14l6 12l16 25l19 31v18l-17 4l-24 -2h-137l-33 2h-16l-33 2l-39 -2l-17 2l-16 -2l-29 2l-6 15l4 10v26l2 15l5 12v12l2 15l6 26l2 13l4 14l2 12v15l8 26l8 33l13 20l12 7h86l35 -5h200l19 -4h96l66 4
l16 -2l31 -2l14 2h12l29 -4l16 -2l13 -6l12 -8l4 -35l2 -16l-6 -19l-2 -18v-27l-4 -26l-2 -17l-4 -20v-21l-2 -14l-13 -25l-24 -51l-6 -24l-7 -15l-6 -10l-16 -25l-4 -12l-12 -22l-7 -13l-2 -14l-10 -16l-4 -13l-31 -61l-16 -25l-4 -12l-8 -10l-21 -37l-6 -12l-8 -13l-4 -12
l-13 -27l-8 -14l-4 -12l-8 -12l-6 -13l-6 -18l-11 -17l-8 -12l-10 -10l-6 -12l-8 -13l-6 -12l-9 -12l-6 -13l-4 -12l-10 -12l-4 -12l-21 -37l-18 -37l-14 -25l-9 -12l-16 -23l-4 -12l-14 -24l-7 -13l-6 -14l-12 -25l-8 -12l-8 -18l14 -6l45 -5l14 -2h43l15 4l14 -4h14l29 -2
h16l31 2h14l15 -2l30 -2l15 -2h39l18 -10v-27l-6 -36v-15l-4 -12v-12l-4 -15l-2 -24l-4 -27l-4 -14l-2 -13l-5 -12l-2 -14l-4 -17l-2 -14l-20 -2h-254z" />
    <glyph glyph-name="bracketleft" unicode="[" horiz-adv-x="501" 
d="M616 1427l13 -10v-35l-2 -12l-2 -18l-4 -15v-12l-3 -12l-2 -15l-2 -24l-6 -27l-2 -14l-4 -12v-17l-8 -20l-31 -2h-12l-33 -2l-65 2l-13 -68l-4 -12l-4 -25l-2 -14l-2 -25l-2 -14l-4 -27l-6 -24l-6 -27l-2 -10l-7 -29l-6 -18v-19l-2 -14l-2 -16v-15l-4 -26l-6 -21l-10 -61
l-9 -29l-6 -14v-17l-6 -26l-4 -27l-4 -24l-8 -29v-16l-8 -29v-17l-4 -28l-3 -10v-29l-10 -21l2 -22l-6 -31l-2 -16l-8 -27v-16l-6 -29v-6l8 -2l41 2h53l17 -4h14l12 -10v-31l-4 -19l-2 -14l-2 -12v-12l-4 -15l-2 -24l-4 -27l-2 -14l-4 -13v-16l-7 -35l-24 -10l-21 -2h-12
l-35 2l-92 -2h-53l-14 2h-31l-35 4l-14 2l-17 -2l-16 4l-16 14l-3 31l11 29l2 31l4 14l4 29l2 16l6 31l2 14l4 16l2 15l9 26l-3 13l7 37l6 22l4 18l6 19l4 18l4 25v14l4 15l6 26l-2 15l15 45l4 30v13l4 14l2 14l2 13l4 28v29l8 29v14l4 29l9 16v27l4 24l6 27l10 28l6 44v28
l6 15l4 28l3 12l-3 15l9 24l2 13l6 26l2 15l8 26l-2 15l2 16l2 27l4 10l4 29l6 26l3 12l4 13l2 24l4 23l8 22l4 31l4 12l2 15l8 26l9 9l18 4l20 -2l48 2h88l28 -2h103l16 -5h14z" />
    <glyph glyph-name="bracketright" unicode="]" horiz-adv-x="473" 
d="M569 1430l9 -21l-3 -12v-27l-4 -6l-2 -23l2 -12l-6 -8v-18l-6 -11l-4 -28l-8 -19v-16l-2 -12v-15l-2 -12l-11 -53l-4 -23l-4 -12l-4 -25l-2 -14l-2 -25l-2 -14l-4 -27l-6 -24l-6 -27l-2 -10l-7 -29l-6 -18v-19l-2 -14l-2 -16v-15l-4 -26l-6 -21l-10 -61l-8 -29l-7 -14
v-17l-6 -26l-4 -27l-4 -24l-8 -29v-16l-8 -29v-17l-4 -28l-2 -10v-29l-11 -21l2 -22l-6 -31l-2 -16l-8 -27v-16l-6 -29l-4 -29l-4 -26v-15l-7 -22l-8 -49l-6 -27l-4 -29l-6 -26l-2 -17l-6 -18l-23 -6h-33l-14 2h-100l-29 2l-16 -2l-41 2h-54l-16 4h-14l-10 10l-3 15l3 12
l2 18l2 15l4 24l2 15l2 24l4 27l4 14l2 12l2 17l6 35l23 10l20 2h13l34 -2l58 2l6 18l-2 13l6 37l6 22l4 18l6 19l4 18l5 25v14l4 15l6 26l-2 15l14 45l4 30v13l4 14l2 14l2 13l4 28v29l9 29v14l4 29l8 16v27l4 24l6 27l10 28l7 44v28l6 15l4 28l2 12l-2 15l8 24l2 13l6 26
l2 15l8 26l-2 15l2 16l2 27l2 6h-102l-18 4h-15l-10 10v47l4 19l2 14l4 25l2 14l2 24l5 27l4 14l2 13l2 16l2 10l6 11l31 2h12l33 2l153 -2h94l17 -2z" />
    <glyph glyph-name="grave" unicode="`" horiz-adv-x="1228" 
d="M797 1526l-19 6l-16 4l-10 8l-15 17l-18 14l-14 16l-21 23l-10 10l-25 27l-28 24l-15 15l-12 16l-14 16l-23 23l-12 14l-10 19l-5 8l5 16l10 4l22 4l27 2h156l14 -8l6 -6l18 -16l23 -33l8 -14l15 -15l18 -24l10 -8l10 -21l15 -16l8 -19l23 -20l10 -21l8 -10l6 -16l21 -17
l-2 -14l-46 -6l-24 -2h-94z" />
    <glyph glyph-name="a" unicode="a" horiz-adv-x="913" 
d="M166 -4l-31 2l-14 2l-150 2l-18 4l-4 17l4 14l2 12l12 25l17 26l20 62l12 24l11 25l22 49l8 27l17 37l4 12l10 14l10 25l4 12l2 14l7 13l10 26l6 15l14 28l4 15l5 18l10 16l12 25l4 14l12 29l2 12l7 15l6 12l10 29l6 12l17 57l6 17l14 26l10 35l13 23l6 12l6 27l10 14
l6 27l4 10l13 26l6 29l10 14l8 13l17 43l10 26l6 13l12 18l6 20l7 15l18 37l4 14l6 12l4 13l4 14l13 22l8 13l4 10l12 37l15 26l18 37l6 15l6 12l8 23l15 2h20l39 -2l21 2h32l39 2h19l14 -4l19 2h32l11 -5l14 -10l6 -88v-45l4 -12v-37l2 -74v-28l2 -27l4 -41v-29l2 -30
l-2 -15v-45l4 -28v-41l2 -29l-2 -12l2 -27v-12l3 -33l4 -23v-79l2 -25l2 -16v-62l2 -94v-14l2 -31l-2 -31l2 -29l-2 -14l4 -78v-12l2 -27l2 -14v-31l-2 -28l2 -17v-18l2 -45v-43q6 -26 -6 -33h-23l-14 -2l-16 2h-29l-45 -2h-16l-25 2l-14 -2l-21 -2l-27 2h-30l-8 6l-5 21
l-2 36l-2 21l2 20v97l-2 16l-45 2l-32 4l-91 2h-55l-10 -22l-14 -27l-5 -14l-6 -15l-8 -24l-20 -39l-13 -31l-6 -22l-6 -11l-8 -14l-12 -8l-58 2zM504 489h61l13 11l2 28l-2 17l2 16v53l2 15v35l4 16l-2 49l2 78l2 74l-2 47l-17 -6l-8 -27l-10 -33l-6 -20l-10 -33l-9 -16
l-8 -21l-2 -14l-8 -15l-6 -18l-6 -14l-7 -19l-12 -45l-2 -14l-10 -31l-8 -14l-11 -35l-4 -14l-4 -19l-6 -14l14 -12h17l22 -2z" />
    <glyph glyph-name="b" unicode="b" horiz-adv-x="985" 
d="M319 -2l-32 4h-17l-32 -2h-84l-13 2h-16l-31 2l-18 2l-15 12l2 17l5 20v31l6 16l4 19l4 29l4 24l2 14l8 27l4 29l2 28l4 13l3 14l4 14l2 17l6 16l2 12l4 31l4 33l8 20l-2 21l6 29l7 16l4 16l2 13v14l6 27l4 26l2 14l6 25v12l2 9l4 20l8 29l2 28l5 11l8 26l2 17l8 28l4 29
v16l2 15l4 14l6 18l2 19l2 24l5 15l2 12l6 16l2 19l2 12v15l4 12l2 12l4 31l8 28l4 66l7 31l6 26l12 50l6 26v17l2 14l2 31l4 18l6 10l19 17l29 2h51l12 -2l23 2h43l100 -4l82 2l29 -2h61l22 -4l21 -3l31 -8l24 -6l21 -10l18 -8l23 -19l26 -28l19 -17l8 -12l6 -10l8 -25
l13 -29l2 -16v-14l4 -17l4 -24l-2 -31l-2 -12v-15l-2 -12l-4 -14v-13l-5 -26l-2 -14l-8 -27l2 -12l-4 -15l-2 -6l-2 -14l-4 -12l-4 -15l-6 -12l-8 -19l-15 -22l-14 -21l-16 -24l-27 -27l-10 -8l-11 -12l-10 -8l-14 -9l-25 -14l-24 -10l-19 -8v-13l21 -8l22 -12l19 -8l24 -17
l13 -14l12 -12l12 -21l8 -14l11 -23l4 -20l6 -12l4 -27l8 -27l-2 -26l4 -21l-2 -18v-27l-2 -14l-4 -31l-6 -31l-6 -26l-2 -15l-7 -28l-4 -13l-4 -14l-4 -12l-4 -15l-33 -65l-18 -25l-12 -22l-11 -10l-14 -13l-8 -10l-17 -10l-12 -6l-10 -11l-14 -8l-11 -8l-10 -6l-14 -6
l-17 -8l-22 -7l-17 -6l-12 -2l-18 -2l-27 -6l-12 2l-31 -6l-31 2l-14 2l-14 -2l-56 -2l-26 2l-17 2h-28l-17 -2h-6zM551 889l29 2l24 4l17 10l22 15l25 20l10 18l16 21l11 29l6 24l4 12l2 17l8 20l-2 23l-2 14l-2 25l-12 24l-7 11l-16 14l-12 2l-19 4l-37 4h-51l-16 -4v-14
l-6 -19l-2 -18l-2 -14l-7 -25v-14l-6 -27l-2 -14l-4 -13l-14 -100l-4 -16l-2 -21v-12h26zM420 262l18 6l51 -6h39l15 6h14l14 6l19 15l14 12l12 18l2 17l11 22l4 15l2 16l10 27l4 37l-2 34l2 27l-18 49l-23 21l-39 14l-20 4l-17 4h-28l-23 2h-28l-7 -18l-4 -37l-4 -16l-4 -9
l-4 -30l-4 -15v-14l-4 -12l-2 -17l-4 -28l-4 -15l-6 -30v-15l-5 -28l-4 -17l-2 -16l-8 -27z" />
    <glyph glyph-name="c" unicode="c" horiz-adv-x="892" 
d="M449 -25l-19 2h-14l-15 3l-22 2l-17 2l-12 2l-20 2l-15 4l-12 2l-27 10l-24 8l-12 11l-21 12l-10 8l-12 8l-27 21l-8 10l-10 10l-15 29l-18 26l-6 27l-4 12l-5 27l-4 14v39l-2 17v18l2 14v54l2 43l2 16l2 29l5 28v15l2 12l4 43l8 29l-2 18l4 16l6 23l-2 10l6 37l8 12v29
l2 6v8l7 23l4 22l6 21l2 25v12l6 12v29l10 41l4 14l4 23l3 20l6 12l2 15l4 14l2 12l2 15l6 14l6 27l15 41l12 41l8 28l12 35l11 25l12 28l8 23l14 12l15 21l16 20l29 29l12 10l27 12l12 6l43 19l35 6l26 6l15 2h30l39 2h33l51 -6l19 -6h20l29 -4l12 -2l15 -4l14 -2l8 -6
l23 -5l28 -10l27 -20l22 -21l5 -10l10 -18l6 -11l4 -14l10 -21l4 -22l2 -25l2 -26l2 -19l3 -30v-45l-3 -21l-4 -16l-4 -31l-4 -33l-12 -80l-4 -16l-10 -53l-9 -9l-24 -2l-29 -2l-129 2l-59 9l-15 22v29l4 14l9 37l4 29l12 45l2 26l4 29v31l-12 37l-23 12l-28 8h-23l-24 -4
l-23 -8l-18 -23l-7 -12l-6 -14l-8 -35l-10 -27l-12 -35v-12l-9 -24l-6 -31l-6 -25l-6 -18l-2 -14l-2 -13l-4 -14l-4 -29l-11 -31l-16 -81l-2 -17l-8 -33l-2 -14l-4 -27l-4 -16l-7 -31v-43l-6 -14l-2 -14v-17l-2 -14l-4 -14l2 -15l-6 -43v-16l-6 -29l-2 -28v-21l2 -12v-15
l8 -30l16 -15l31 -10l33 4h31l28 19l9 10l16 37l10 28l8 27l2 12l2 11l7 24l6 31l4 18l2 15l10 26l4 21l15 16l16 2l53 -2h43l101 -6l24 -2l14 -14l9 -15v-22l-4 -13v-14l-5 -26l-2 -23l-4 -10l-2 -15l-2 -8l-6 -43l-4 -12l-12 -51l-6 -25l-3 -14l-4 -15l-6 -12l-12 -33
l-10 -24l-6 -14l-9 -13l-10 -12l-6 -12l-4 -13l-31 -37l-31 -26l-32 -21l-15 -6l-53 -12l-24 -6l-25 -4l-27 -6h-30l-27 -2z" />
    <glyph glyph-name="d" unicode="d" horiz-adv-x="995" 
d="M434 -4l-47 2l-27 2l-26 -2l-31 4l-24 -2l-17 2h-18l-29 4l-12 2h-17l-14 -2h-61l-29 4l-16 4v47l2 19l10 24l4 29l2 12l6 29l4 21l4 16v16l4 29l2 16l5 23l8 16l4 21v16l6 29l4 16l2 27l2 12l8 14v46l7 28l2 17l6 28l2 15l4 26l4 15l6 24l2 12l8 25v41l4 14l5 13l6 28
l4 13l10 57l6 14l4 15l2 14v12l2 15l4 24l2 14l7 25v12l4 25l8 24v29l2 16l4 43l4 25l10 37l4 14v13l3 14l6 27l4 28l4 25l6 12l2 14l2 25l4 14l6 21l4 6l7 22l20 7h14l25 -2l14 -2l33 4h16l46 -2l40 2h52l22 -2l12 2h33l17 -2l18 -2l31 -5h14l17 -6l28 -8h4l13 -4l34 -10
l11 -6l8 -5l20 -12l15 -10l12 -10l31 -41l16 -25l8 -10l10 -18l9 -29l12 -31l8 -14l6 -35v-14l11 -29l-3 -14l5 -41l2 -27l-7 -12l7 -29l2 -12l-2 -15l4 -14l-2 -14v-12l-6 -33v-15l-5 -34l-2 -15v-57l-10 -33v-14l-8 -39l-4 -31l-4 -47l-4 -16l-6 -17l-3 -20l-12 -43
l-2 -27l-4 -24l-6 -15l-14 -26l-5 -13l-2 -22l-12 -27l-2 -12l-8 -29l-14 -28l-15 -41l-10 -21l-16 -16l-2 -13l-11 -14l-10 -12l-14 -25l-29 -35l-29 -22l-18 -16l-12 -9l-27 -12l-22 -6l-21 -14l-29 -9l-20 -4l-33 -4l-22 -8h-64l-14 -2h-10zM426 274h61l21 7l16 8l23 12
l10 8l16 17l15 16l6 12l8 15l8 20l11 21l10 26l12 39l6 23l6 28l9 27l2 12l4 10l4 13l6 24l2 15l4 26l4 29l4 31l2 14l4 16l11 29v29l6 43l2 12l4 43l-2 43l2 59l-4 56l-2 16l-12 35l-15 27l-12 10l-10 8l-35 10l-33 4l-27 2l-18 -2l-6 -16l-6 -14v-13l-4 -14l-7 -31l-8 -28
l-4 -27l-4 -29l-4 -45l-2 -12l-4 -14v-15l-2 -16l-6 -12v-13l-6 -28l-5 -33v-14l-6 -29l-4 -12l-6 -29v-12l-6 -29l-4 -14l2 -13l-4 -14l-8 -53v-27l-2 -12l-11 -29v-12l-6 -31l-8 -37l-2 -14l-8 -29l-4 -30l-2 -31l-7 -35l-4 -18z" />
    <glyph glyph-name="e" unicode="e" horiz-adv-x="772" 
d="M301 -2l-39 2h-53l-14 2h-109l-18 4l-7 19l7 18l4 18l4 31l4 33l8 31l2 32l6 17v18l4 15v14l4 16l2 15l3 28l4 27l8 16l4 33v14l4 17l4 26v11l8 24l-2 13l6 26l7 14l2 15l6 31l4 14l8 43v31l8 28l4 31l6 14l3 17l2 14v14l8 13l12 61l6 16l4 15l-2 12l6 29l9 31l2 57l6 14
l2 43l8 12l4 17l2 14l-2 12l2 15l8 26l4 29l7 12v15l6 14l-2 12l4 15l2 26l4 13l2 12l2 27l2 12l-4 14l6 25l6 12l2 12l17 13h34l13 2l14 -2l25 2h14l16 -2h21l45 2l154 2l47 -2l16 -2l59 2h45l19 2l20 -2l19 -2l10 -15l-6 -22v-13l-4 -51v-12l-6 -14l-2 -15l-2 -12l-7 -31
v-16l-8 -29l-2 -12l-6 -27l-20 -2h-86l-25 -2h-133l-49 -2l-6 -24l-2 -15v-28l-7 -13v-16l-6 -39l-4 -29l-6 -28l-4 -15l2 -16l-6 -21l-4 -36h37l71 -2l39 4h53l17 -4l12 -17l-4 -24v-17l-4 -22l-6 -29l-4 -14l-6 -31v-14l-7 -17l-4 -28l-6 -33l-4 -29l-4 -4h-21l-30 -2h-19
l-51 -2l-35 2h-22l-27 -2h-18l-8 -23l-7 -26l-8 -58l-6 -20l-4 -18l-2 -21l-4 -14l-6 -37l-9 -53v-17l9 -8l28 -4h121l29 -2l45 -2l57 2l15 -6l-2 -17l-3 -8l-4 -22l-2 -17l-8 -45v-26l-4 -15l-4 -12l-2 -14l-6 -31l-2 -35l-4 -18l-7 -23h-194l-33 -2l-26 2l-13 -2h-43
l-33 -2z" />
    <glyph glyph-name="f" unicode="f" horiz-adv-x="747" 
d="M119 -2l-21 2l-24 4l-8 21v22l8 16l-2 29l2 12l2 15l4 22l8 17l2 12l2 14l2 27l2 16l8 29l9 20v19l4 12l2 29l6 18v17l4 12v14l8 25v29l4 26l11 29l6 33l-2 14l4 31l6 14v29l8 57l8 27v14l6 29l2 26l9 27l8 24l4 15l6 24v25l4 29l6 14l4 29l5 14l4 27l-2 12l2 14v15l2 14
l10 33v14l6 12l2 29l6 27l4 12l2 16l2 27l2 22l9 15v16l8 37l4 27l4 10l-2 24l2 15l4 24l25 11l100 4l74 -2l53 -2h240l32 -2h25l27 -9l6 -16l-4 -14v-23l-4 -27v-10l-7 -35l-6 -26l-2 -12v-15l-8 -37l-6 -43l-19 -10l-18 2l-33 -4l-39 4l-28 2l-54 -2l-84 -2h-20l-4 -16
l-2 -23l-2 -14l-6 -31l-6 -29v-10l-9 -49l-8 -16v-17l-4 -14l-2 -12v-15l-4 -24l-6 -21l22 -2l90 -2l25 2l29 2h22l29 -2l6 -22l-2 -17l-6 -16v-16l-8 -29v-10l-7 -25l-2 -12l-2 -15l-6 -26v-25l-8 -26l-6 -29l-12 -25h-21l-22 2h-74l-47 -4l-49 4l-7 -32l-4 -21l-4 -26
l-6 -29l-2 -10l-8 -23l2 -12l-6 -27l-6 -31l-6 -24l-9 -27l2 -14l-4 -14l-2 -29v-12l-4 -29l-4 -25l-2 -14l-12 -25l-2 -14v-12l-2 -15l2 -14l-7 -24l-4 -25l-8 -27l-20 -14l-15 2l-14 -2l-49 -4l-41 2l-12 -2h-80z" />
    <glyph glyph-name="g" unicode="g" horiz-adv-x="946" 
d="M444 -20l-26 2h-15l-32 4h-13l-34 8l-21 6l-35 8l-28 15l-29 22l-16 8l-21 23l-8 10l-6 10l-15 25l-14 14l-6 19l-6 20l-2 16l-8 21l-7 14v13l-8 43l2 36l4 21v29l2 8v26l2 15l2 12l3 27l2 14l4 27l-4 14l8 27v26l6 29l2 31l8 28l2 33l2 16l8 29l5 29l10 43l6 26l-2 19
l6 20l2 15l8 28l6 23l5 26l2 17l8 18l2 23l4 14l2 12l6 13l2 14l6 12l4 15l7 12l10 25l2 10l8 24l8 29l6 12l6 17l13 26l6 13l4 14l10 18l10 23l9 10l6 12l8 11l23 24l26 21l27 12l26 14l27 11l27 8l32 4l29 6h62l55 2l26 -2l27 -4l16 -4h27l35 -6l14 -6l35 -15l29 -10
l24 -21l29 -28l6 -12l6 -9l4 -18l9 -23l2 -22l2 -27v-80l-2 -26v-23l-2 -24v-15l-5 -24l-2 -25l-2 -18l-4 -31l-12 -27l-18 -12l-41 -2l-35 2l-33 -2l-20 2h-58l-22 2l-21 8l-2 17l2 22l4 33l4 27l4 14l-2 18l7 37l-2 15l-3 22l-2 12l-10 15l-12 12l-21 8h-45l-14 -4
l-18 -10l-17 -16l-6 -13l-8 -14l-6 -14l-2 -13l-13 -22l-12 -27l-6 -24l-2 -17l-6 -14v-15l-8 -18l-2 -12l-5 -15l-4 -24l-8 -17l-2 -14l-4 -27l-6 -14l-4 -20l-2 -19l-6 -18l-7 -27l-2 -22l-8 -39l-6 -27l-4 -14l-2 -27l-4 -12l-2 -29v-14l-6 -21l-7 -22v-23l-2 -28l-2 -27
l-2 -14l-2 -13l-2 -26l-2 -29v-31l2 -20v-21l13 -18l8 -14l6 -6l20 -11l39 -6h39l25 8l22 15l15 18l8 19l10 24l6 19l6 20l13 47l10 80l-4 10l-15 2h-47l-12 13v24l10 55l6 50l4 20l3 16l10 46l2 8l10 12l49 2l17 -2l32 2l33 -2h74l14 2l29 -2h43l24 -10v-51l-4 -27v-16
l-4 -25l-2 -16l-2 -13l-2 -14v-12l-6 -27l-4 -12l2 -15l-4 -12l-4 -26l-2 -15l-6 -24l-3 -15l-4 -24l-4 -23l-4 -33l-8 -28l-6 -15l-4 -39l-6 -10l-4 -16l-7 -19l-10 -26l-8 -15l-4 -12l-4 -14l-15 -31l-8 -14l-18 -27l-25 -31l-24 -16l-13 -6l-16 -12l-27 -13l-30 -12
l-43 -6l-11 -2l-28 -6l-33 -6h-45z" />
    <glyph glyph-name="h" unicode="h" horiz-adv-x="1030" 
d="M696 -4l-16 4h-55l-23 2h-14l-15 2l-12 19l2 16l2 18l4 19l9 14v29l8 43l2 14v14l2 15l2 26l4 11l2 28l6 31l4 39l13 61l8 23l4 20v25l6 29l4 14l4 29v14l4 25l-18 -2h-15l-18 4l-65 -7l-31 7l-35 2l-2 -11l-2 -16l-8 -29l-4 -26l-9 -15v-34l-4 -15l-10 -47l-12 -45
l2 -12l-10 -25l-2 -10l-9 -27l-4 -30l-12 -58l-2 -16l-6 -29v-14l-4 -29l-4 -16l-2 -14l-5 -31l-10 -21l-16 -8l-19 -2l-24 -2l-31 -4h-16l-15 6l-14 -2l-14 -4l-25 4h-65l-41 4l-9 23v16l9 18l10 27l2 21l4 18v14l4 13l-4 14l12 23l4 14l-2 16l9 29l-3 29l9 14l8 18l2 15
v16l6 29l4 16l10 72l5 12l2 12l4 17l-2 14l8 29l2 26l6 21l4 24v15l4 31l6 14l6 16v17l9 28l10 60l2 12l4 29l2 28l12 29l2 14l2 29l9 43l4 27l4 16l6 43l2 10v29l8 16l2 17l2 12l6 27v43l15 26l-2 29l4 14l2 15l6 14l-2 16l4 15l6 26l2 25l2 22l19 11h51l84 2l29 -2h45
l20 6l25 -4l20 -4l4 -19v-12l2 -15l-6 -24l-2 -12l-2 -29l-6 -18l-2 -19l-8 -39l-4 -28l-2 -25l-7 -14v-33l-4 -15l-4 -16l-2 -27l-4 -10l-2 -24v-13l-4 -10l-4 -16l-2 -15l-6 -12l2 -14l-6 -27l-5 -14l3 -12l-5 -17l-2 -12l-4 -17l15 -2h16l59 -2l17 2l24 -2l17 2l43 -2
l2 11l4 22l8 19v14l2 14l10 31l-4 12l11 27l2 12l2 15l2 16l2 14l4 13v14l6 26l2 27l8 19v24l-2 17l2 14l8 29v16l7 27l4 12l4 26l2 13l8 18l4 14l-2 15l2 12l16 19l13 2l18 2h74l41 -2h57l33 -4l14 -7l15 -18l-2 -12l2 -15l-9 -12l2 -8l-2 -12v-15l-8 -24l-2 -29v-16
l-2 -15l-4 -14l-4 -16l-2 -27v-14l-4 -27l-2 -14l-6 -27l-2 -14l-5 -15l-2 -16l-4 -27l-2 -12l-10 -25l-2 -12l-4 -26l-4 -33l-2 -31l-10 -29l-3 -30l-2 -13l-6 -28l-2 -15l-8 -12v-16l4 -15l-6 -12l-2 -14v-27l-2 -14l-10 -27l-2 -14l-9 -37v-12l-4 -23l-6 -29l-4 -14
l2 -12l-12 -43l2 -12l-4 -15l-4 -12l-2 -14l-6 -29v-17l-3 -14l-6 -29l-6 -22l-4 -12l-2 -29l-2 -33l-6 -28l-2 -15l-4 -26l-4 -15l-2 -22l-5 -25l-6 -10l-2 -16l-4 -15v-16l-4 -15l-8 -12l-25 -6h-30l-13 -2l-26 -2h-41z" />
    <glyph glyph-name="i" unicode="i" horiz-adv-x="538" 
d="M283 -4l-15 2h-59l-29 4h-16l-14 -2l-23 2l-14 2l-17 -2l-16 4l-17 14l-2 31l11 29l2 31l4 14l4 29l2 16l6 31l2 14l4 16l2 15l8 26l-2 13l7 37l6 22l4 18l6 19l4 18l4 25v14l4 15l2 12l4 14l-2 15l15 45l4 30v13l4 14l2 14l2 13l4 28v29l8 29v14l4 29l9 16v27l4 24l6 27
l10 28l6 44v28l6 15l4 28l2 12l-2 15l9 24l2 13l6 26l2 15l8 26l-2 15l2 16l2 27l4 10l4 29l6 26l2 12l5 13l2 24l4 23l8 22l4 31l4 12l2 15l14 20l15 6l12 9l14 2l31 2l19 -2h28l15 2h108l14 2l23 -6l8 -21l-2 -12v-27l-4 -6l-2 -23l2 -12l-6 -8v-18l-6 -11l-4 -28l-9 -19
v-16l-2 -12v-15l-2 -12l-10 -53l-4 -23l-4 -12l-4 -25l-2 -14l-2 -25l-2 -14l-4 -27l-7 -24l-6 -27l-2 -10l-6 -29l-6 -18v-19l-2 -14l-2 -16v-15l-4 -26l-6 -21l-11 -61l-8 -29l-6 -14v-17l-6 -26l-4 -27l-4 -24l-8 -29v-16l-9 -29v-17l-4 -28l-2 -10v-29l-10 -21l2 -22
l-6 -31l-2 -16l-8 -27v-16l-6 -29l-5 -29l-4 -26v-15l-6 -22l-8 -49l-6 -27l-4 -29l-6 -26l-2 -17l-7 -18l-22 -6h-53z" />
    <glyph glyph-name="j" unicode="j" horiz-adv-x="886" 
d="M360 -12l-14 2l-20 2l-23 4l-18 6l-21 8l-8 4l-27 11l-26 14l-29 18l-10 15l-19 20l-16 21l-23 34l-4 13l-4 24l-8 17l-4 20v12l-4 13l-6 53l-2 27v41l2 16l2 74l2 32l2 37l12 43l2 41l2 23l11 14l18 6l10 9h15l43 4l18 -2l31 -2l6 2h31l73 -2l2 -3l19 -4l4 -24v-21
l-6 -67l-6 -35l-5 -35l-4 -47l-6 -55v-35l2 -27l6 -20l17 -19l18 -10h23l26 2l23 17l12 16l13 27l6 28l8 29l10 51l4 19l4 24l6 29v12l5 14l4 27l8 37l-2 14l4 12l8 39l4 31l6 37l4 29l2 16l5 14l2 27l2 29v12l4 20l4 13l2 14l4 25l6 14v20l2 15v12l4 14l6 29v12l4 15l3 26
l4 13l4 30l6 31v12l-49 2h-242l-22 2l-17 3l-10 20l-2 14l6 45l2 15l4 24v13l6 14l4 14l2 37l2 16l7 19l8 14l6 8l22 7h31l29 2l29 -2l45 8l53 -6l14 -2h135l19 2h84l24 -2h95l8 -2h2l14 -2l21 -9l4 -22l2 -13l-4 -14v-12l-2 -14v-15l-2 -12l-2 -14l-5 -13l-6 -57l-2 -12
l-8 -29v-14l-18 -74l-7 -27v-14l-2 -27l-4 -28l-8 -15v-18l-4 -14v-15l-6 -14v-41l-8 -12l-4 -29l-2 -12v-15l-5 -26l-2 -27l-8 -22l-2 -25l-8 -25l-4 -47l-10 -30l-4 -15v-14l-3 -12l-4 -15l-2 -26l-6 -13l-8 -36l-2 -23v-20l-6 -17l-2 -20l-8 -15l4 -14l-6 -14l-3 -19v-16
l-6 -15v-14l-8 -14v-15l-8 -18l-10 -29l-6 -20l-9 -21l-10 -14l-8 -16l-14 -21l-9 -18l-14 -21l-31 -22l-30 -27l-33 -18l-17 -6l-18 -11l-16 -4l-19 -6l-33 -8l-40 -6l-33 -2h-56z" />
    <glyph glyph-name="k" unicode="k" horiz-adv-x="1011" 
d="M90 0l-16 12l2 31v14l6 15l-2 14l6 27l2 12l8 27v14l2 16v15l6 26v10l5 37l6 15l2 28l4 13v12l8 27v14l10 43l6 29l5 30l8 58l6 28l4 17l6 30l8 31l2 29l2 14l4 31l9 41l6 28l2 17l2 14l6 33l6 29l2 22l2 29l6 12v12l5 15l2 26l6 13l4 28l-2 15l6 24l4 15v12l4 14v12
l2 29l4 12l2 17l8 53l9 27v26l6 23v26l4 25l6 39l6 18l8 7h19l14 4l29 -2h51l29 -2l39 2h14l31 -2h30l17 -9l6 -14l-4 -20l-4 -35l-2 -29l-6 -35l-7 -30l-2 -15l-4 -41l-4 -16l-4 -19l-2 -20l-4 -14v-15l-4 -12l-10 -55l-7 -25l-6 -37l4 -14l21 20l12 25l23 27l12 18l12 16
l17 15l10 20l4 10l16 21l15 20l16 19l10 18l21 31l18 23l4 14l13 16l22 31l19 27l22 30l12 13l7 16l16 23l20 6l37 -2h64l20 -2l10 2h39l29 4l41 -4l18 2l25 -6l6 -15l-16 -24l-6 -15l-17 -20l-18 -23l-10 -14l-11 -10l-2 -13l-8 -10l-14 -20l-8 -15l-11 -20l-16 -19l-8 -12
l-13 -12l-8 -17l-16 -18l-8 -20l-13 -15l-10 -14l-20 -25l-13 -18l-12 -17l-31 -45l-14 -20l-18 -25l-23 -34l-14 -19l-10 -18l-15 -23l-37 -49l-20 -41l4 -20l10 -33l4 -21l11 -24l6 -25l16 -57l4 -17l8 -26l11 -23l8 -18l2 -17l6 -16l2 -12l8 -19l2 -14l10 -22l9 -25
l4 -14l16 -25l2 -14v-13l8 -14l9 -27v-12l16 -24l2 -19l2 -14l6 -12v-17l6 -14l7 -10l2 -17l6 -22l14 -25l8 -22l13 -35l4 -11l-2 -18l-48 -2h-51l-63 2l-19 -2h-43l-14 2l-45 -2l-25 4l-8 12l-6 27l-18 49l-17 58l-8 24l-8 16l-6 27l-4 14l-5 13l-10 28l-8 29l-8 25l-12 26
l-5 27l-2 12l-6 15l-10 22v14l-10 23l-2 16l-6 19l-7 16l-18 53l-12 31h-6l-2 -12l-5 -17l-2 -14l-4 -12l-4 -43l-4 -27l-4 -24l-2 -15v-12l-6 -29l-4 -16l-2 -29l-2 -16l-2 -27l-7 -14l-4 -12l-4 -43l-6 -33l-6 -25l-4 -12l-2 -14l-2 -27l-8 -29l-9 -22v-25l-10 -41l-22 -8
h-54l-18 -2l-25 2l-28 -2h-13l-6 2l-14 -2h-39l-18 2z" />
    <glyph glyph-name="l" unicode="l" horiz-adv-x="720" 
d="M90 -2l-16 10l-8 12l-3 15l-2 12l2 12l9 21l6 20l2 15l2 12l8 27v30l8 27v14l2 13l4 26l5 19v24l10 29l4 12l6 14l-2 13l6 26l6 15v12l2 12l4 29l5 12v29l2 12l2 15v12l8 29v14l10 29l8 61l8 29v10l13 57l4 27l4 24l10 27l2 16v29l10 27v14l5 25l6 43l-2 16l6 16l8 29
l4 16l-4 15l4 16l2 27l4 22l8 13v14l2 14v13l9 14l2 33l6 32l8 25l2 25v14l4 12l10 41l7 13l32 4h49l76 -2h80l41 -2l6 -25l-2 -14v-15l-12 -49v-14l-4 -13l-6 -43l-4 -22l-5 -21l-16 -71l-6 -29v-16l-8 -29l-4 -29l-9 -14l5 -16l-5 -17l-2 -14l-4 -14l-6 -29l-6 -27l-8 -14
l2 -16l-4 -15v-16l-6 -43l-4 -14v-29l-5 -14l-6 -31l-2 -15l-8 -32l-2 -31l-6 -29l-2 -16l-2 -14l-8 -33v-15l-5 -16l-2 -29l-8 -26l-2 -27l-4 -18v-21l-2 -14l-2 -12l-4 -15l-2 -22l-4 -21v-20l10 -10h20l19 -2h106l45 2h54l12 -7l-2 -30l-4 -15l2 -14l-6 -16l-10 -72
l-7 -14v-15l-2 -12l-4 -31l-8 -32l-16 -15h-39l-27 -4l-45 -6l-37 2l-31 -2l-28 4l-41 -2h-168l-21 -2h-57l-14 2z" />
    <glyph glyph-name="m" unicode="m" horiz-adv-x="1323" 
d="M238 -4l-56 4h-55l-29 2l-8 6l-10 12v15l2 31l2 12l-4 18l6 19l2 14l2 27l6 22l4 25l4 14l7 29l2 16v14l6 15l2 16l2 29l6 29l4 16l2 16l2 13l2 28l4 13l4 30l3 33l8 31v16l4 29l10 41v18l2 13l6 24l-2 12l6 19l4 16l5 25l2 24v15l4 12l2 14l4 27l2 12l6 15l6 24l2 27
l4 26l4 13l4 28l3 13l4 28l2 17l6 26l4 15l4 12v14l2 13l12 61v12l2 27l4 24l7 23l2 14l6 27l-2 16l4 15l2 22l8 19v14l12 25l21 2h29l38 2l35 -2h35l37 2l41 -2h27l12 -19l6 -57l4 -15l4 -28l2 -12l6 -29l2 -35l7 -33l4 -26l2 -29l4 -14v-17l8 -43l2 -12l4 -29v-14l2 -14
l6 -13l2 -26v-13l2 -26l7 -29v-14l6 -29l8 -70l8 -28v-12l2 -15v-14l4 -12l4 -27l9 -39h6l26 51l6 10l9 13l16 33l6 14l14 29l13 20l14 18v13l14 30l13 19l8 20l14 27l13 12l8 25l18 26l8 13l2 12l21 31l41 82l8 12l29 57l12 27l16 29l15 22l12 25l8 12l6 10l4 8l2 13l9 12
l10 25l14 20l10 21l50 4l49 -2l33 2l69 -4l41 2l19 -13l4 -14l-6 -27l-5 -12l-2 -29l-2 -8l-2 -14l-2 -12l-2 -15l-2 -6v-29l-4 -12l-2 -14l-10 -27v-16l-6 -29l-4 -12l-3 -25l3 -12l-9 -14v-35l-6 -12l-10 -27l-2 -12l-4 -29l-2 -33l-8 -16l-2 -19v-12l-3 -14l-4 -13
l-6 -26l-4 -29l-6 -24l-2 -13l-2 -14l-6 -25l-2 -22l-2 -31l-9 -14v-15l3 -14l-3 -12l-2 -15l-2 -12l-6 -26l-10 -15l6 -16l-4 -31l-6 -29v-12l-4 -26l-10 -31l-2 -14l-7 -31l-2 -15l-2 -16l-4 -29l-4 -12l-4 -29l-2 -16l-6 -27l-2 -14l-4 -12l-2 -27l-2 -14v-14l-7 -27
l-2 -17l-6 -28l-6 -27l-4 -26l-6 -19l-29 -8h-22l-62 2h-90l-29 -2l-10 2h-14l-15 10l-4 23l-2 14l2 12l7 29l2 14l4 31l4 17l4 28l4 31l6 29l8 26l2 27l9 24l6 27v29l4 26l6 15l2 24l2 13l2 14l6 22l2 15v12l4 14l17 80l6 37l6 29l2 12l4 14l8 50h-6l-61 -121l-47 -105
l-27 -61l-45 -84l-55 -121l-15 -25l-10 -20l-22 -4h-13l-18 4l-45 -4l-39 6l-19 2l-24 12l-2 15l-10 34l-2 17l-5 14l-2 17l-2 14l-4 14l-4 35l-4 43l-4 12l-6 29l-4 27l-13 86l-4 43l-4 30l-2 15l-2 12l-8 94h-8l-10 -84v-24l-9 -33l-8 -76l-2 -14l-4 -12v-39l-2 -15
l-4 -26l-2 -13l-4 -14l-4 -29l-4 -24v-15l-2 -28l-5 -29v-12l-8 -25l-2 -16l-2 -19l-4 -32l-4 -29l-2 -12l-6 -25v-27l-2 -26l-6 -14l-3 -13l-2 -20l-12 -23l-24 -10h-62l-10 -2z" />
    <glyph glyph-name="n" unicode="n" horiz-adv-x="1103" 
d="M104 -4l-30 4l-11 25l5 16v33l4 32l8 29l2 15l6 28l4 10l6 29l4 19l7 32v15l4 16v27l8 14l2 25l2 14l6 24l2 13l-2 14l4 27l8 32l4 25l5 18l6 23l4 25l2 14l4 12l2 27l2 12v12l10 25l2 12l2 15l2 28l2 21l11 24l4 17l4 20v29l2 16l6 17v16l6 14v15l4 14l4 27l7 22l6 19
v24l2 15l4 12l10 57v14l8 19l4 18l2 27l2 14l3 13l2 14l4 12l2 15l4 26l4 25l6 26v17l6 26l4 13l6 10l13 22l20 5l29 2l35 -2h18l27 2l39 -2l24 2l31 -2h29l22 -7l12 -18l2 -14l9 -21l4 -24l2 -23l8 -29l8 -49l6 -33l7 -34l6 -29l8 -41l4 -16l2 -15l4 -30l6 -27v-12l6 -23
v-14l2 -23l7 -30l4 -35l6 -35l2 -33l4 -29l4 -16l6 -55l8 -47l4 -45v-15l5 -14l4 -25l6 -55l6 -45h6l2 41l4 49v29l6 98l7 43v70l6 28l2 13l2 14l2 16l2 29l4 12l4 29v12l8 27v25l2 24v14l13 25l-2 14l6 37v13l6 26l2 15l4 12l4 28l2 17l6 29l4 14l6 16v19l3 12l6 33l8 43
l16 28l8 7l39 8l43 -4l15 2h20l47 -2h21l28 2l29 -6l12 -7l2 -16v-16l-6 -29l2 -16l-6 -45l-4 -29l-12 -49l-6 -23l-6 -37l-5 -16l-6 -43l-8 -33l-4 -33l-6 -18l-4 -16l-4 -15v-26l-4 -15l-9 -61l-6 -19l-2 -22l-2 -14l-4 -17l-6 -26l-4 -15l-6 -26l-4 -29l-5 -16l3 -19
l-5 -12l-2 -15l-4 -12l-2 -14l-2 -12v-27l-6 -12l-6 -29l-4 -18l-2 -19l-2 -12l-2 -15l-2 -12v-12l-9 -29l-4 -28l-4 -21l-8 -18l-8 -25l-2 -22l-2 -27l-4 -27l-6 -16l-9 -29v-33l-10 -26v-12l-4 -15l-6 -26l-10 -66l-19 -25l-20 -14l-29 -2l-23 -4h-8l-39 2l-14 -2l-20 2
l-13 -2h-41l-26 2h-35l-17 14l-16 33l-10 29l-2 10l-2 25l-2 12l-4 43l-2 12l-9 43l-2 13l-4 28l-2 31l-6 22l-6 31v12l-6 29l-2 12l-6 29l-2 12v31l-9 41l-4 39l-8 57l-10 66l-6 57l-13 74l-12 78h-6l-2 -58l-2 -41l-2 -22l-4 -35l-2 -51l-15 -98l-8 -80l-4 -13l-6 -26
l4 -15l-6 -24l-4 -14l2 -15l-2 -12l-4 -29l-9 -30l-8 -41l-4 -29l-2 -12l-4 -15l-8 -59l-6 -27l-2 -14v-27l-4 -12l-7 -37l-8 -24l-6 -21l-22 -8h-218z" />
    <glyph glyph-name="o" unicode="o" horiz-adv-x="993" 
d="M496 -33l-54 6l-26 -2l-15 2l-18 2l-47 15l-17 2l-30 8l-15 8l-28 19l-37 30l-29 33l-6 10l-10 11l-6 12l-11 14l-16 27v12l-6 14l-2 13l-4 10l-4 12l-2 15l-4 12l-3 29l-2 12l-6 41l4 14v39l7 21l-3 16v14l5 45l8 29v16l4 29v14l8 29l-4 10l4 27l4 14l6 37l6 25v26l7 25
v14l6 13l4 14v12l4 14l-2 13l12 20l4 15v28l4 25l7 14l2 12l4 29l8 51l10 15l4 26l12 27l7 14l8 25l10 29l12 24l9 14l18 27l2 14l8 13l17 26l16 25l14 10l11 12l28 31l27 19l16 6l15 10l24 14l25 13l30 8l13 2l30 8l21 2l37 6l28 2l25 2l37 -2l12 -2l23 -2l32 -4l17 -6
l16 -2l13 -4l30 -15l37 -24l17 -10l10 -13l22 -18l23 -21l10 -12l6 -14l12 -27l7 -12l4 -12l4 -15l6 -30l4 -39l2 -17v-14l-2 -27l-2 -12l2 -27v-14l-2 -27l-4 -14l-2 -12l2 -15v-20l-2 -12l-4 -29l-2 -31l-2 -33l-4 -14l-5 -33l3 -20l-11 -23l2 -24l-8 -27l-4 -26l-6 -27
l-2 -25l-6 -26l-6 -13l-7 -36v-19l-4 -14l-4 -29l-6 -12l-20 -72l2 -12l-11 -25l-6 -12l-2 -23l-10 -22l-6 -25v-14l-6 -22l-11 -15l-2 -20l-14 -29l-16 -37l-11 -14l-18 -27l-8 -12l-10 -12l-5 -13l-24 -24l-12 -10l-11 -13l-24 -18l-25 -17l-8 -6l-47 -18l-14 -2l-17 -4
l-28 -6l-15 -2l-22 -7zM479 246h27l29 8l18 8l29 21l14 28l12 29l4 14v17l6 30l5 15l4 28l6 17l2 28l6 15l6 26l2 17l6 12v16l-2 7l6 18l7 31l4 47l6 18l6 17l4 39l6 12l-2 35l8 30l4 25l5 16l4 15l-2 14l2 27l4 16l6 29l4 18v27l4 37l2 26l4 29l-8 41l-8 12l-14 19l-33 14
l-39 -2l-17 -4l-32 -12l-21 -19l-14 -22l-8 -25l-9 -14l-12 -27l-4 -14l-4 -17l-12 -43v-4l-2 -16l-6 -29l-3 -12l-8 -29l-6 -28l-6 -33l-2 -15l-4 -14l-4 -31l-6 -16l-9 -33l-4 -14l-4 -29v-14l-2 -14l2 -17l-6 -14l-10 -29l2 -16l-4 -15l2 -8l-4 -18v-17l-4 -14v-16
l-6 -31v-14l-7 -15l7 -14l-3 -25l-8 -20l6 -14v-58l7 -14l4 -8l12 -19l10 -10l17 -6l16 -4z" />
    <glyph glyph-name="p" unicode="p" horiz-adv-x="937" 
d="M160 -2l-33 2l-14 2l-37 -2l-13 10v39l7 12l-2 15l6 28v13l6 28l6 31l6 27l2 14l6 25l2 14l2 12l9 47l6 13l2 26l2 15l4 12l8 27l2 12l2 24v11l11 20v23l4 12v14l6 13l2 30l6 43l6 15l2 16l2 29l4 14l2 12l4 15l2 12l7 29l2 16l4 31l6 32l6 27v25l2 26l4 15l6 14l2 27
l2 12l9 33l2 22l-2 8l6 27l2 12l2 37l4 17l6 28l6 19l2 24l4 15v16l4 14l3 15v12l4 14l8 33l2 14l2 17l6 28l2 17l8 26l17 9h106l27 2l26 -2l13 2h137l14 -2l31 2h29l30 -4h17l26 -5l43 -6l33 -6l14 -4l15 -10l14 -6l27 -15l18 -16l8 -10l13 -17l12 -14l6 -16l12 -27l5 -14
l8 -23l2 -22l2 -15l6 -22l-2 -21l2 -30v-15l2 -22l-2 -23l-4 -22l-2 -15l-4 -45l-4 -28l-7 -15l-2 -16l-6 -14l-2 -13l-4 -12l-6 -29l-6 -16l-10 -29l-17 -39l-10 -22l-14 -25l-19 -31l-12 -12l-14 -24l-19 -17l-14 -20l-10 -15l-27 -20l-10 -12l-29 -15l-20 -6l-27 -12
l-33 -10l-24 -4l-27 -3l-29 -4l-57 -4l-39 2h-45l-31 2v-4l-2 -14l-6 -16l-2 -27l-4 -10l-2 -27l-2 -12l-2 -15l-4 -12l-2 -14v-12l-6 -29l-7 -19l-4 -24l-4 -14l-6 -25l-2 -14l-6 -15v-20l-6 -31v-29l-9 -12v-16l-2 -15l-4 -12l-2 -14l-6 -17l-2 -18l-2 -16l-6 -25l-14 -2
h-164zM481 786h54l22 5l39 4l14 6l33 24l23 21l14 22l8 13l10 28l4 19l9 18l8 35l8 57l4 54v34l-8 25l-12 18l-23 17l-18 4l-56 2l-47 -2l-14 -4l-10 -25l-4 -10l-2 -21l-5 -34l-4 -15l-6 -24l-6 -41l-4 -21l-6 -32l-2 -25v-16l-4 -19l-11 -51v-18l-6 -29z" />
    <glyph glyph-name="q" unicode="q" horiz-adv-x="999" 
d="M778 -125l-28 8l-25 23l-12 8l-25 27l-18 18l-6 10l-9 15l-12 20l-4 8l-4 6l-23 -8l-28 -8l-39 -14l-45 -8l-47 2l-27 -2l-18 4h-21l-25 4l-32 8l-27 6l-12 6l-15 6l-22 11l-14 12l-13 10l-22 21l-10 8l-7 12l-6 8l-30 43l-7 15l-16 57l-10 31v28l-6 43l-4 27v53l2 27
l-5 12l5 12l4 25v45l6 21l2 28l6 25v8l6 57l6 27v27l6 28l7 31l2 16l4 15l2 12l6 12l2 25l6 12v14l4 25l8 25l5 14l2 16l4 15l4 12v12l4 15v12l6 26l16 46l2 12l15 45l4 12l12 29l19 47l6 8l24 47l19 23l22 22l13 11l10 10l22 20l23 15l12 8l19 8l20 14l14 6l25 9l22 4l21 4
l16 6l21 2l14 2l27 4h47l12 -2l31 -2h12l33 -6l12 -4l31 -8l16 -9l21 -8l18 -6l15 -6l14 -10l14 -8l13 -11l12 -12l12 -10l12 -21l15 -24l14 -27l2 -16l4 -15l10 -22v-27l5 -12l-2 -29l4 -14l-2 -57v-13l-2 -102l-3 -12l-2 -15l-2 -12l-6 -43l2 -33l-4 -12l-4 -29l-2 -12
v-14l-4 -27l-4 -14v-15l-2 -14l-4 -35l-6 -35l-2 -18l-5 -19l-6 -28l-4 -15l-6 -26l2 -14l-4 -13v-12l-14 -61l-15 -56l-6 -12v-12l-14 -37l-12 -43l-19 -37l-12 -27l-23 -26l-10 -11l12 -20l29 -39l18 -25l15 -16l14 -18l6 -4l17 -21l16 -22l18 -11l7 -14l2 -21l-29 -20
l-14 -8l-23 -15l-22 -10l-39 -24l-35 -11zM473 240h35l29 8l20 14l10 8l13 13l16 20l4 14l10 25l8 35l9 14l6 31l6 33l4 32l8 35l11 41l8 25l-2 18l10 45l4 35l6 31v12l6 14l4 27l-2 16l2 13l9 30l2 31l2 17l6 16l2 47l-2 12l2 17l4 30l-2 15v30l2 37v31l2 14l-10 23l-4 12
l-9 17l-26 20l-14 6l-35 4l-37 -8l-31 -31l-6 -18l-8 -6l-8 -31l-5 -12l-4 -17l-10 -26l-12 -49l-8 -21l-4 -26l-7 -27l-6 -43l-4 -10l-4 -23l-16 -65l-6 -37l-9 -39l-6 -27l-2 -33l-6 -26v-10l-4 -37l-8 -31l-2 -16l-4 -15l-2 -16l-5 -25v-14l3 -20l-5 -25l-4 -27l-2 -18
l2 -12l4 -31l7 -33l14 -33l14 -10l21 -12z" />
    <glyph glyph-name="r" unicode="r" horiz-adv-x="962" 
d="M270 -4l-73 2h-27l-64 4l-18 4l-4 12v19l6 20l2 21l2 22v15l4 12v14l6 15v12l2 14l7 29v14l6 17l-2 14l6 16l2 29l4 16l2 15l-2 16l8 17v30l10 37v19l5 20l2 31v16l8 29l2 14l2 17v18l10 14l4 13l-2 12l2 24l4 15l6 12v12l5 15l4 22l2 13l4 26l4 29v16l10 43v15l2 12
l2 14l4 27l2 12v14l2 13l9 24l2 29l2 12l6 29l6 33l6 28l2 13v12l2 27v12l4 14l6 25l7 33l8 57l2 16l2 15v16l8 16l-2 23l8 10l15 17l20 4h29l123 -2h88l14 2l20 2l17 -4l31 -5h18l27 -4l30 -2l23 -4h33l16 -4l23 -10l18 -8l14 -4l19 -13l12 -6l10 -6l25 -14l8 -9l10 -12
l9 -10l14 -25l14 -28l6 -33l4 -39v-14l7 -39v-17l-7 -28l-2 -15l2 -30v-15l-6 -32l-4 -33l-6 -21l-8 -24l-4 -15l-4 -12l-6 -14l-11 -25l-18 -26l-6 -15l-8 -18l-17 -27l-6 -12l-23 -27l-10 -10l-28 -31l-41 -26l-29 -15l-14 -2v-18l6 -17l10 -30v-19l4 -26l8 -13l2 -16
l4 -27l7 -12l6 -26l4 -13l4 -28l6 -15l4 -16l8 -27v-12l11 -31l4 -26l22 -74l4 -29l15 -35l2 -24l2 -15l4 -18l14 -39l-6 -27l-10 -2l-23 -4h-26l-43 -6l-54 -6h-26l-23 -2h-16l-19 -2l-12 2l-18 18l-4 11l-7 24l-4 10l-6 23l-12 31v16l-6 17l-4 6l-4 26l-7 15v14l-6 12
l-2 15l-6 22l-8 21v24l-12 37l-2 14l-9 25l-4 14l-4 27l-8 27l-2 28l-4 10l-6 29l-4 21l-9 16l-4 16l-8 17l-8 8l-14 2l-2 -8l-5 -13l-6 -28l-2 -17l-6 -43v-34l-10 -27l-4 -29v-12l-4 -29l-9 -16v-43l-4 -16l-8 -43l-2 -17l-4 -12v-16l-6 -29l2 -12l-4 -15v-12l-2 -27
l-2 -14v-12l-2 -15l-2 -24l-7 -15l-6 -18l-20 2l-19 -2l-30 -2zM537 840h32l25 6l12 8l21 12l14 8l14 17l9 12l14 12l10 27l4 16l2 13l15 28v17l6 16l2 33l-2 45l-6 43l-11 18l-14 15l-18 10l-45 6l-50 2l-18 -6l-6 -22l-6 -15l-4 -33l-2 -30l-3 -27l-4 -16l-6 -33v-14
l-4 -31l-6 -19l2 -18l-4 -18l-6 -33l-2 -15l2 -14l-2 -16z" />
    <glyph glyph-name="s" unicode="s" horiz-adv-x="815" 
d="M406 -27l-50 4l-14 3h-20l-23 4l-20 4l-15 4l-33 14l-22 8l-21 15l-24 16l-21 27l-20 24l-19 29l-14 35l-4 16l-14 37l-2 12l-7 29l-2 12l-4 33v61l2 35l-2 15l4 30l2 17l5 14l6 33l28 14l50 4l24 -2h115l26 -2l17 -29v-75l-2 -15v-43l4 -45l6 -20l14 -31l21 -20l26 -7
h19l16 5l23 6l10 10l10 18l8 15l9 24l4 25l2 20v15l-2 28v33l-8 37v12l-7 31l-16 29l-16 24l-15 29l-8 12l-4 10l-6 11l-14 14l-11 16l-22 27l-10 10l-9 13l-22 26l-25 27l-18 26l-21 23l-20 16l-10 15l-13 20l-12 31l-8 18l-10 15l-7 14l-4 16l-8 27l-2 27l-2 16l2 14v60
l4 41l6 14l2 29l9 14l6 21l2 20l12 27l8 16l6 14l7 11l16 18l6 8l12 21l13 12l24 20l37 27l33 12l22 13l39 8l35 10h64l51 -2h14l19 -4l30 -2l35 -10l14 -2l9 -7l24 -12l15 -12l16 -6l22 -21l7 -8l20 -22l6 -11l15 -22l8 -13l4 -22l6 -14l12 -50v-45l2 -41l-2 -34l-8 -58
l-8 -45l-25 -12l-37 -2h-114l-29 2h-29l-16 14l-2 27l4 16l6 64v47l-4 24l-6 13l-18 18l-21 17l-27 4l-24 -9l-23 -10l-10 -14l-6 -14l-8 -21l-2 -14l-6 -21l-2 -28v-27l2 -14l14 -39l16 -29l9 -16l14 -27l22 -29l27 -32l8 -13l10 -10l9 -16l8 -11l12 -8l21 -16l6 -12l10 -7
l6 -10l19 -20l10 -19l24 -24l15 -35l18 -23l2 -10l17 -41l12 -26l12 -43l2 -15l2 -16l2 -15l11 -34l4 -13l-2 -28l-2 -13l2 -14l-2 -14v-58l-7 -28l-2 -13v-30l-8 -27l-4 -16l-4 -19l-10 -28l-19 -35l-12 -8l-10 -21l-10 -8l-17 -19l-10 -8l-16 -14l-21 -12l-18 -15l-25 -6
l-12 -8l-31 -10l-16 -2l-27 -8l-14 -3l-19 3l-14 -3h-23l-14 -2z" />
    <glyph glyph-name="t" unicode="t" horiz-adv-x="798" 
d="M254 -6l-18 6h-15l-18 16l4 31l2 43l14 43l4 14l2 31l4 12l3 29v14l10 29l2 14l-2 17l10 43v16l6 25l6 31l4 14l2 14l5 27l4 12l2 29l10 20l-4 21l2 14l4 14l10 29l8 31l4 14l-4 15l11 24l4 12v29l6 21v18l4 14l8 13v14l4 12l6 31l-2 14l11 23v20l4 11v16l2 14l4 15
l10 32l2 13v12l2 14v13l6 26l4 14l5 31l2 33h-111l-29 2l-14 -2h-18l-21 2h-16l-19 6l-6 19l4 24l6 17v16l-2 14l8 29l5 12l2 29l8 27l6 12v28l2 13l10 22l19 15l14 2h53l10 -2h15l14 2h152l14 -2h45l131 2l31 -2l43 2l18 -2h127l29 -2l18 -4l5 -17v-12l-3 -15l-4 -16v-14
l-2 -13l-4 -14v-12l-4 -25l-4 -14l-2 -12l-2 -25l-8 -27l-4 -14l-2 -29l-9 -18l-20 -2l-19 2h-24l-19 -2h-20l-86 2l-18 -2l-5 -14l3 -13l-7 -14v-12l-4 -13l-4 -26l-2 -15l-8 -36l-8 -17l4 -10l-10 -29l-9 -26v-13l-2 -24l-2 -12v-15l-10 -24l-4 -31l-4 -14l-6 -29l-6 -12
v-15l-2 -26l-7 -25l-8 -14l-2 -29l-4 -12v-13l-6 -28l-6 -31l-4 -18v-21l-2 -12l-4 -12l-3 -15l-8 -24l-2 -15l-2 -12l2 -14l-6 -29l-6 -33l-8 -26l-2 -15l-6 -26l-11 -43l-4 -17l-6 -28l2 -17l-10 -45l-12 -57l-4 -29l-7 -28l-4 -13l-24 -10h-178z" />
    <glyph glyph-name="u" unicode="u" horiz-adv-x="1040" 
d="M444 -12l-84 10l-14 4l-8 4l-35 12l-14 7l-13 6l-40 24l-21 21l-12 14l-10 12l-11 17l-2 6l-16 33l-17 28l-8 33l-2 29l-8 69l2 13l2 69l4 19l8 55l2 27l3 30l4 25l4 20v27l8 25l2 14l2 12l6 25l-2 14l2 15l6 24l4 14v27l9 27l2 28l6 27l8 29v16l2 29l6 12l6 57l4 13
l4 26v15l3 12l10 27l2 14l2 16l6 29l2 16v17l6 28v15l4 12l6 57l11 27l4 10l4 21l4 28l8 29l4 16l13 5l34 2h11l18 2l86 -2l49 4l19 -2l32 -2l19 -15l2 -31v-28l-4 -12l-4 -15l2 -28l-4 -15l-4 -18l-5 -17l-2 -14l-4 -12v-15l-8 -24l-4 -27l-2 -16v-21l-2 -14l-10 -29
l-2 -16l-7 -31l-4 -30l-2 -13l-6 -14l-2 -21l-2 -14l-4 -16v-15l-10 -28l-2 -13l4 -26l-8 -19l-2 -18l-2 -16l-5 -15l-4 -12l-6 -25v-26l-8 -27l-4 -24l-10 -74l-6 -41l-3 -29l-6 -26l-6 -50l-2 -18l-2 -12l-2 -15l2 -32v-23l2 -25l23 -26l22 -6l43 -6l47 6l21 16l12 16
l6 13l15 32l10 21l4 18l4 13l10 41l6 28l4 15l3 20l4 12l4 19l2 18l4 15l4 16l2 14l4 27l4 20l8 37l2 25l5 14l10 29v16l4 27l6 27l4 24l8 29l2 16l9 29v16l4 29l2 10v29l12 20l-2 23l8 28l2 17l4 29l2 16l6 29l5 28l4 27l-2 14l10 23l2 12l2 25l2 12l6 27l6 28l6 27l2 16
l7 15l61 2h14l15 -2l59 2h14l15 -2h16l14 2l21 -2l14 2l19 2l16 -2l16 -17l3 -31l-13 -28l-2 -31l-4 -16l-4 -29l-2 -16l-8 -29l-2 -14l-4 -17l-2 -14l-9 -27l2 -12l-8 -25v-12l-6 -22l-4 -19l-6 -18l-4 -19l-6 -24v-15l-4 -14l-3 -12l-4 -15l2 -14l-14 -45l-6 -31v-12
l-6 -29l-2 -12l-4 -29l-2 -28l-9 -29v-14l-4 -29l-8 -16l-2 -27l-4 -25l-6 -26l-8 -29l-2 -14l-7 -29v-4l-8 -24l-6 -27v-12l-4 -15l-6 -22l-4 -19v-14l-4 -12l-4 -15l-9 -24l-8 -27l-6 -35l-10 -12l-6 -27l-15 -26l-8 -12l-12 -29l-8 -14l-11 -15l-8 -18l-12 -19l-18 -14
l-17 -21l-18 -10l-17 -10l-24 -10l-10 -8l-33 -13l-13 -4l-24 -6l-19 -4l-12 -4l-41 -4h-47l-31 -2h-41z" />
    <glyph glyph-name="v" unicode="v" horiz-adv-x="974" 
d="M414 0l-23 2h-45l-16 2h-45l-21 -2h-4l-24 10l-7 23l-4 20l2 23l-2 12l-2 14v15l-4 26v31l2 14v31l-2 17v36l2 15v14l-4 14v29l2 14v29l-2 14l2 17l-4 14v29l2 14v17l2 14v29l-4 12l2 14v15l2 14l-6 12l2 14v27l-2 14v27l4 29v16l2 14l-4 15v43l-2 16v27l2 12l2 27l-4 14
v27l6 26l-4 21v65l-2 17l-2 14l2 14v88l2 13l2 28l-2 15l2 14l-2 29l-2 12l2 14v15l2 12l-2 14l2 15l-2 14l2 12v21l6 16l6 8l25 9l25 -2l14 2l33 2l24 -2h125l14 -2l15 -11l6 -14l-2 -27v-4l2 -24v-41l-4 -17v-30l-4 -15l2 -14v-29l-2 -14v-14l-2 -15v-14l-2 -17v-14l4 -14
v-15l-2 -14v-43l-6 -37v-28l-2 -19v-16l-3 -12l7 -13l-2 -26v-11l-2 -14v-43l-3 -16v-15l3 -14v-14l-3 -23v-16l-2 -15l-2 -8l2 -12l-2 -31v-14l-2 -17l-4 -24l2 -23v-22l-2 -19l2 -10l6 2l9 8l6 13l4 12l2 12l14 27l6 16l4 13l7 26l10 15l4 12l10 20l4 15l2 12l9 20l6 15
l4 14l8 27l4 14l6 8l6 15l9 22l4 12l2 13l4 6l4 14l2 12l12 25l4 10l9 10l8 19l6 27l4 14l18 43l2 12l7 14l6 29l2 12l6 15l6 12l4 12l17 27l2 14l4 13l2 14l8 29l6 14l12 27l31 84l14 26l23 12l18 5l23 -7l16 5l13 -5h14l14 -2l13 2h49l14 2l8 -2h29l22 -2h27l20 -6v-20
l-2 -13l-12 -22l-6 -16l-2 -15l-6 -12l-6 -14l-2 -19l-7 -12l-8 -12l-6 -15l-10 -26l-4 -13l-6 -22l-11 -12l-6 -13l-4 -10l-6 -12l-4 -21l-6 -10l-2 -12l-6 -13l-11 -22l-10 -14l-4 -15l-6 -26l-6 -11l-6 -12l-4 -12l-11 -27l-6 -14l-2 -17l-14 -26l-6 -10l-11 -25l-4 -14
l-10 -27l-4 -14l-12 -23l-15 -22l-10 -25l-4 -12l-8 -13l-6 -24l-7 -12l-2 -13l-10 -22l-6 -13l-8 -12l-6 -10l-2 -12l-13 -37l-6 -12l-8 -13v-12l-16 -27l-6 -14l-5 -14l-18 -27l-8 -29l-10 -24l-17 -37l-8 -14l-2 -15l-14 -26l-21 -37l-6 -13l-6 -14l-4 -14l-6 -15
l-11 -12l-10 -31l-6 -14l-4 -12l-6 -12l-4 -13l-9 -12l-12 -23l-8 -14l-12 -22l-6 -19l-11 -6h-16l-19 4l-14 -2l-16 -2h-45z" />
    <glyph glyph-name="w" unicode="w" horiz-adv-x="1335" 
d="M948 -4l-30 2h-146l-10 8l-6 23l-2 28l2 13l-4 28l-4 33l-7 16l2 27l2 12l-2 29l-2 14v41l-6 15l4 12l-2 14l2 29l-6 25l4 22l4 31l-4 26l-4 19l-4 37v14l8 51l-2 35l-2 37l2 37l-4 37h-10l-12 -21l-4 -14l-9 -12l-10 -37l-14 -35l-13 -27l-49 -119l-8 -14l-37 -82
l-2 -14l-12 -25l-2 -12l-6 -23l-13 -26l-12 -25l-4 -12l-6 -25l-6 -14l-8 -12l-7 -29l-6 -14l-8 -21l-6 -18l-4 -23l-14 -22l-7 -12l-4 -11l-28 -10h-13l-18 6l-10 -4l-47 2l-25 -6l-21 8l-12 -2h-20l-15 -2h-20l-14 2l-13 19l2 16l-4 14l2 21v18l-2 15l2 24l-2 12l2 15
l-2 18l2 15l2 22v21l2 12l2 28l-2 15l2 14l-2 29v41l2 12l2 29v112l3 29v16l4 37l-4 27l2 18l4 27v14l4 17l-2 14v35l2 14l2 25l-2 14l2 27l-2 12l2 29l-2 16l4 14l-2 31l-2 14l2 60l2 29l-2 26l4 39l2 14l2 21v24l2 31l-2 43v15l4 40v13l2 14l-2 25v14l2 12v19l4 28l25 7
h53l23 2l20 -2h10l17 2h41l26 -4l23 2h14l23 -13l4 -35v-18l2 -14l-8 -64v-12l2 -14l-2 -76l-4 -12l-3 -48v-36l-2 -15l-6 -28v-27l4 -29l-2 -14l-2 -12l-2 -29l-2 -14v-13l-4 -14v-12l-2 -15l2 -12l-2 -45l-4 -29l2 -14l-2 -16v-29l-4 -27l2 -20h8l12 22l7 13l12 26l4 15
l12 26l6 25l15 26l2 13l28 49l4 24l15 37l4 15l18 37l9 24l6 10l10 25l6 12l6 23l13 28l20 52l4 14l14 41l13 27l4 16l12 37l6 12l15 27l20 10h66l24 -2l21 2h16l14 -2h15l10 -14l2 -52v-61l2 -33l-2 -43v-12l2 -29l-2 -12l2 -76v-14l-4 -27l2 -22v-41l2 -17l-4 -12l2 -16
l-2 -15l-2 -16l4 -41l-2 -74l4 -28v-35h10l6 22l11 25l8 26l16 58l2 14l4 12l19 47l6 25l6 12l4 15l4 12l6 14l7 13l8 26l4 17l8 24l2 15l4 12l4 14l15 25l2 14l6 25l10 53l14 27l9 26l6 23l10 22l10 29l6 12l4 14l7 15l2 14l4 12l12 27l6 10l25 11h14l14 4l64 -2h41l43 2
l29 -2l14 2l14 -2h21l12 -13l-4 -35l-4 -12l-8 -22l-7 -13l-20 -49l-8 -24l-6 -29l-9 -27l-6 -14l-2 -12l-16 -27l-4 -14l-15 -39l-4 -14l-10 -25l-2 -14l-16 -37l-4 -19l-5 -10l-12 -27l-4 -12l-10 -33l-8 -12l-11 -27l-6 -14l-4 -14l-6 -29l-4 -12l-8 -14l-8 -23l-15 -25
l-10 -28l-6 -23l-14 -18l-5 -12l-2 -13l-12 -49l-10 -27l-6 -12l-8 -24l-17 -33l-6 -29l-16 -29l-7 -28l-8 -15l-2 -14l-16 -43l-4 -12l-11 -29l-4 -12l-8 -14l-4 -27l-4 -14l-12 -25l-8 -27l-7 -16l-10 -29l-2 -12l-6 -27l-29 -49l-14 -51z" />
    <glyph glyph-name="x" unicode="x" horiz-adv-x="927" 
d="M594 -6l-12 4l-7 14l-2 11l-6 10l-4 16l-2 25l-2 16l-6 14l-6 35l-8 31l-7 29l-6 26l-12 43l-4 27l-4 12l-6 25l-2 18l-6 15l-7 28l-4 19l-8 24l-6 -2l-8 -12l-17 -33l-14 -24l-8 -13l-2 -10l-8 -12l-7 -11l-30 -49l-6 -14l-7 -12l-14 -25l-6 -14l-14 -25l-7 -14l-12 -25
l-4 -12l-12 -25l-6 -10l-6 -16l-13 -27l-8 -12l-8 -19l-12 -18l-23 -2l-29 -2h-47l-20 2h-33l-31 2l-32 -2h-37l-23 8l4 37l17 27l10 24l24 45l7 13l12 22l6 12l8 13l6 12l15 25l4 12l6 12l8 23l8 12l4 10l13 12l18 35l6 13l11 24l4 15l10 12l4 12l6 12l8 11l15 24l16 25
l8 10l8 14l13 27l6 12l8 13l6 14l19 37l6 10l8 12l4 13l16 22l7 10l6 13l6 10l10 26l18 29l-10 31l-6 14l-2 15l-10 30l-6 15l-4 30l-11 29l-2 12l-6 29l-6 14l-8 17l-8 28l-4 17l-7 14l-8 29l-4 16l-6 14l-4 17l-12 29l-5 12l-6 26l-4 13l-8 26l-8 29l-12 29l-5 14l-8 31
l-6 14l-6 16l-2 15v12l16 19l17 2h92l24 2h29l21 -4l18 2h29l14 -2h25l10 -7l4 -18l4 -25l6 -14l8 -31l2 -12l5 -14v-13l8 -30l2 -13l8 -16l4 -31l2 -14l4 -16l8 -15l4 -22l5 -21l4 -22l6 -17l4 -30l6 -19l4 -31h6l4 7l11 24l12 29l16 22l4 13l9 10l8 20l51 103l8 12l4 10
l8 13l7 12l10 26l8 13l4 14l8 12l6 13l3 14l10 14l10 25l6 10l8 10l29 9h57l17 -4l22 4l23 -4h14l39 4l14 -4l11 4h43l12 -9l2 -14l-12 -22l-4 -15l-5 -12l-8 -14l-4 -13l-6 -12l-12 -14l-6 -11l-11 -24l-14 -25l-6 -8l-6 -12l-6 -19l-15 -10l-6 -14l-8 -21l-12 -20l-11 -21
l-12 -16l-8 -10l-8 -15l-15 -22l-4 -19l-14 -22l-10 -23l-23 -36l-14 -23l-6 -10l-11 -23l-12 -20l-24 -37l-23 -39l-8 -12l-16 -33l-19 -25l-2 -16l4 -23l8 -34l6 -31l3 -14l8 -27l2 -16l2 -15l6 -16l4 -17l6 -26l6 -17l6 -28l9 -29l4 -18l4 -13l12 -43l8 -30l4 -15l5 -12
l8 -27l4 -14v-12l12 -27l2 -12l2 -23l4 -18l6 -12l9 -29l4 -33l4 -14l10 -15l4 -14l8 -35l-14 -10l-27 -4h-26l-15 -2l-34 2l-78 -2h-47z" />
    <glyph glyph-name="y" unicode="y" horiz-adv-x="872" 
d="M283 0l-15 2h-30l-23 12l-2 27l4 25l4 26l-2 12l4 15l2 12l2 14l4 13v22l7 19l10 45l2 22l4 27l6 14l4 31l6 29l6 16v20l7 33l8 27l2 12v14l8 23l2 25l10 34l-2 25l-6 20l-2 19l2 16l-4 15l-4 30l-6 31v16l-6 15l-4 28l2 13l-7 30l-6 37l-2 15l-6 24l-8 27l-4 26v15
l-6 33l-11 30l-2 17l-4 51l-4 16l2 25l-6 14l-4 31v14l-8 29l-8 61l-2 27l-2 12l-5 29l-2 27v20l7 16l10 5l16 2l53 2l29 -2l21 2l14 -2l22 4l56 -2h30l23 -25l6 -20v-48l6 -16v-20l8 -17l5 -57l-2 -12l6 -29l4 -14l8 -21l-2 -20l2 -27l6 -21v-18l4 -25l8 -53l2 -30l9 -3
l6 11l4 12l4 10l12 25l8 14l2 12l17 25l10 25l12 22l21 49l12 27l8 12l2 15l17 26l4 12l4 15l18 41l13 28l10 27l6 12l12 21l21 26l14 9l68 4l30 -4l33 2h54l22 -4l41 2l23 -13v-26l-7 -27l-4 -10l-16 -23l-4 -12l-12 -25l-9 -12l-2 -14l-12 -25l-8 -10l-8 -25l-17 -22
l-4 -14l-8 -13l-4 -12l-19 -39l-12 -12l-12 -29l-17 -24l-2 -13l-8 -12l-4 -12l-20 -35l-11 -27l-6 -14l-4 -12l-14 -25l-4 -10l-11 -13l-2 -12l-20 -26l-8 -13l-8 -14l-13 -27l-12 -20l-16 -37l-17 -25l-12 -26l-12 -12l-6 -11l-7 -12l-14 -25l-8 -24l-8 -10l-4 -17l-7 -10
l-10 -10l-4 -21v-14l-8 -27l-6 -22l-4 -21l-4 -24l-5 -13l2 -12l-6 -27l-6 -28l-8 -31l-8 -29l-2 -14l-6 -20l-4 -15v-12l-5 -29l-6 -30l-4 -15l-8 -30l-6 -29l-6 -37l-11 -43h-73l-17 2l-12 -2h-18l-31 2l-12 -2h-43z" />
    <glyph glyph-name="z" unicode="z" horiz-adv-x="806" 
d="M446 -4l-18 6h-258l-25 6l-26 -6h-15l-14 -2l-14 2h-29l-22 2l-17 2l-10 21l-6 18l6 43l2 12v47l6 23l6 27l29 43l12 20l8 12l5 11l8 10l12 20l20 35l11 21l10 24l8 17l8 12l7 14l14 25l8 10l4 12l43 66l14 26l17 23l4 10l10 29l10 18l21 35l59 105l13 24l6 10l10 25
l6 12l19 21l4 12l18 35l12 20l7 13l12 22l8 12l12 25l6 10l9 19l12 14l6 12l16 25l19 31v18l-17 4l-24 -2h-137l-33 2h-16l-33 2l-39 -2l-17 2l-16 -2l-29 2l-6 15l4 10v26l2 15l5 12v12l2 15l6 26l2 13l4 14l2 12v15l8 26l8 33l13 20l12 7h86l35 -5h200l19 -4h96l66 4
l16 -2l31 -2l14 2h12l29 -4l16 -2l13 -6l12 -8l4 -35l2 -16l-6 -19l-2 -18v-27l-4 -26l-2 -17l-4 -20v-21l-2 -14l-13 -25l-24 -51l-6 -24l-7 -15l-6 -10l-16 -25l-4 -12l-12 -22l-7 -13l-2 -14l-10 -16l-4 -13l-31 -61l-16 -25l-4 -12l-8 -10l-21 -37l-6 -12l-8 -13l-4 -12
l-13 -27l-8 -14l-4 -12l-8 -12l-6 -13l-6 -18l-11 -17l-8 -12l-10 -10l-6 -12l-8 -13l-6 -12l-9 -12l-6 -13l-4 -12l-10 -12l-4 -12l-21 -37l-18 -37l-14 -25l-9 -12l-16 -23l-4 -12l-14 -24l-7 -13l-6 -14l-12 -25l-8 -12l-8 -18l14 -6l45 -5l14 -2h43l15 4l14 -4h14l29 -2
h16l31 2h14l15 -2l30 -2l15 -2h39l18 -10v-27l-6 -36v-15l-4 -12v-12l-4 -15l-2 -24l-4 -27l-4 -14l-2 -13l-5 -12l-2 -14l-4 -17l-2 -14l-20 -2h-254z" />
    <glyph glyph-name="braceleft" unicode="{" horiz-adv-x="505" 
d="M375 -8l-19 2l-12 2l-16 4l-39 18l-15 11l-26 16l-25 21l-16 20l-19 25l-24 45l-2 12l-6 27v14l-6 24l-3 15v49l3 14v17l2 22v43l2 17l2 18l10 49l4 39v39l-6 33l-12 18l-27 23l-33 12l-33 18l-10 13l2 14l4 25l13 51l4 18l8 35l2 35l6 29l10 16l15 14l18 2l19 4l26 3
l19 12l24 22l17 27l12 41l4 24l4 23l4 14l4 27l17 57l2 13l6 16l10 33l8 24l12 27l11 22l10 17l12 20l15 21l16 14l14 12l19 15l24 10l23 8l24 8l25 5l14 2l29 2l51 -2l23 -2l14 -7l8 -14l-6 -16l2 -13l-4 -18l-2 -14l-6 -25l-2 -14l-2 -25l-6 -27l-2 -14l-5 -12l-8 -23
l-10 -16l-22 -2l-29 -10l-21 -17l-12 -24l-12 -29l-4 -23l-11 -26l-2 -19l-10 -34l-6 -31l-2 -12l-8 -27l-6 -20l-9 -21l-8 -25l-8 -22l-16 -25l-19 -20l-22 -14l-54 -25l-2 -10l19 -15l24 -10l17 -16l16 -21l8 -26l5 -25v-41l-3 -31l-4 -41l-12 -98l-2 -18l-6 -31l-6 -45
v-55q8 -53 63 -64l6 -12l-6 -31l-2 -12l-2 -17l-4 -14l-4 -24l-6 -27l-4 -14l-4 -13l-4 -24l-9 -35l-8 -4h-14z" />
    <glyph glyph-name="braceright" unicode="}" horiz-adv-x="493" 
d="M78 -8l-51 2l-23 2l-14 6l-8 14l6 17l-2 12l4 18l2 15l6 24l2 15l2 24l6 27l2 14l4 13l9 22l10 16l22 3l29 10l20 16l13 25l12 28l4 23l10 27l2 18l11 35l10 51l8 39l2 12l4 27l4 20l9 21l6 28l6 25l14 27l19 20l24 12l29 11l28 8l3 10l-19 14l-20 13l-15 14l-16 21
l-8 18l-6 25l-5 22v16l3 31l4 51l6 39l2 19l6 30l6 45v56q-8 52 -63 63l-7 13l7 30l2 13l2 16l4 14l4 25l6 26l4 15l4 12l4 25l9 35l8 4h14l18 -2l13 -2l16 -5l39 -18l14 -10l27 -17l25 -20l16 -21l18 -24l25 -45l2 -13l6 -26v-14l6 -25l2 -14v-50l-2 -14v-16l-2 -23v-43
l-2 -16l-2 -19v-18l-2 -25l4 -26l13 -27l12 -18l14 -15l29 -24l33 -19l10 -12l-2 -14l-4 -25l-13 -51l-4 -18l-8 -35l-2 -35l-6 -29l-10 -16l-37 -15l-33 -10l-20 -14l-25 -23l-16 -28l-13 -37l-2 -17l-8 -36l-6 -29l-4 -23l-4 -14l-4 -27l-17 -57l-2 -12l-6 -17l-10 -32
l-8 -25l-13 -27l-10 -22l-10 -16l-12 -21l-15 -20l-16 -15l-14 -12l-19 -14l-24 -11l-23 -8l-25 -8l-24 -4l-15 -2z" />
    <glyph glyph-name="exclamdown" unicode="&#xa1;" horiz-adv-x="493" 
d="M350 1432l8 -2h68l47 -3l37 -2l20 -2l27 -4l12 -4l4 -12v-53l-6 -23l2 -16l-4 -13l-4 -30l-10 -86l-6 -33l-4 -10l-15 -13l-24 -2l-37 2l-55 4h-17l-18 -4l-13 2h-32l-31 2h-14l-19 11l-16 16l-2 29l6 31l4 24l4 29l8 37v22l4 25l2 26l7 17l18 22l31 13h18zM283 977
l18 -2l25 -2h16l14 -2h17l16 2l21 -2l16 -2h37l16 -2l17 -17l2 -30l-13 -31v-33l-4 -16l-2 -17l-2 -14l-4 -43l-8 -31l-2 -14l-12 -51l-2 -15l-7 -28l2 -13l-10 -39l-6 -22l-6 -80l-10 -16l-4 -29l2 -14l-2 -15l-9 -26v-13l-8 -28v-13l-8 -30l-2 -15v-16l-12 -63l-4 -25
l-5 -27l-4 -22l-8 -25l-6 -33l-2 -12l-2 -14l-16 -23l-15 -6l-12 -6l-16 -4l-5 -2l-18 2h-23l-16 -2h-131l-25 4l-10 20l2 15v26l4 7l6 24l-2 12l7 9l-2 20l6 12l4 29l8 19l12 79l6 23l4 14v25l5 16l2 25v16l16 53l6 29v10l15 80l8 31v16l6 31l4 29l10 61l-2 14l10 25l7 39
l4 27l2 12l18 86v16l8 21l43 6h15z" />
    <glyph glyph-name="cent" unicode="&#xa2;" horiz-adv-x="901" 
d="M948 1178l2 -15l-2 -30l2 -21l-2 -16l-2 -31v-14l-2 -29l-4 -16l-8 -54l-8 -8l-25 -2l-29 -2h-129l-59 8l-16 23l2 30v15l6 41l-4 16v68l-15 37l-26 18l-23 4l-24 -4l-23 -8l-16 -23l-6 -12l-9 -14l-6 -35l-8 -27l-12 -35l2 -12l-2 -24l-8 -31l-9 -25l-4 -18l-2 -14
l-2 -13v-14l-4 -29l-10 -31l-17 -81v-17l-8 -33v-14l-4 -27l-4 -16l-4 -31v-28l2 -15l-6 -14v-14l-2 -17v-14l-4 -14l2 -15l-2 -28l-2 -15l2 -16l-6 -29l-2 -28v-7l2 -14l2 -12l-2 -15l10 -30l18 -15l41 -8l27 4l26 17l9 10l8 14l6 13l6 26l6 8l2 13l6 24l11 25v39l8 26
l4 21l14 16l17 2l53 -2h43l74 -4l30 -2l25 -2l16 -14l7 -15l2 -22l-2 -12l-3 -15l-2 -26l-2 -23l-2 -10l-2 -15l-2 -8l-6 -26l-4 -13l-4 -26l-4 -25l-2 -14l-4 -15l-6 -12l-9 -33l-12 -24l-4 -14l-8 -13l-6 -12l-9 -12l-4 -13l-10 -12l-18 -25l-33 -26l-31 -21l-14 -6
l-53 -12l-23 -6l-27 -4l-65 -4l-2 -9l-2 -12l-4 -29l-6 -32l-7 -29l-2 -18l-2 -25l-16 -10l-33 -4l-8 -4l-51 4h-21l-8 12l2 27v16l6 31l8 32l3 17v16l6 29h-2l-13 2l-63 18l-12 11l-31 12l-14 8l-13 8l-26 21l-11 10l-8 10l-20 25l-25 53l-2 12l-6 27l-2 14l-8 25l4 14
l-6 17l2 18l-2 14l2 15l4 16l-4 23l4 43v16l-2 29l4 28v15l2 12l4 43l6 29v34l2 23l2 10l4 37l6 12l3 29l4 6v8l8 45l2 21v25l2 12l4 12l6 29l12 41v14l5 23l4 20l6 12l2 15v14l6 12v15l6 14l6 27l10 41l13 41l8 28l8 35l8 25l9 28l8 23l14 12l12 21l15 20l14 12l14 17
l13 10l26 12l13 6l51 19h35l26 6l15 2h38l5 23v16l12 61l4 17l4 10l10 16l25 2h41l12 2l21 -4h8l12 -4v-22l2 -13l-2 -26l-8 -33v-14l-2 -10l-6 -19l-2 -12h16l43 -6l14 -4l15 -2l8 -7l22 -4l19 -10l28 -20l31 -31l8 -12l7 -11l6 -14l10 -27v-12l6 -29l6 -26l2 -19z" />
    <glyph glyph-name="sterling" unicode="&#xa3;" horiz-adv-x="821" 
d="M856 1243l4 -33l-2 -14l-2 -31v-41l-4 -34l-2 -25l-10 -45l-27 -14l-37 -2h-88l-31 2h-28l-15 14v27l4 16l9 53l2 29v41l-6 12l-35 35l-37 4l-27 -8l-20 -10l-10 -15l-9 -14l-12 -21l-2 -14l-10 -20l-4 -29l-6 -31l-2 -31l4 -40l2 -29l4 -17l4 -24l6 -29l6 -33l4 -12
l4 -10v-14l4 -13l2 -8l9 -14v-13l4 -16l4 -20l4 -13h223l17 -4l12 -12l-2 -23l2 -12l-4 -22l-15 -64l-4 -24l-10 -23l-4 -2l-20 -2h-175l-2 -33l2 -16l-6 -15l-4 -30l-6 -13l-4 -30l-6 -11l-4 -16l-6 -14l-17 -27l-14 -29l-27 -30l-4 -13l-45 -41l387 -4l17 -4l12 -16
l-2 -25l-2 -16l-2 -25l-19 -84l-4 -28l-10 -27l-6 -4h-21l-30 -2h-279l-14 -2l-47 2h-48l-282 4v31l8 28l4 31l10 31l17 82l6 16l4 15l43 10l35 20l31 25l26 35l17 32l10 15l10 28l10 33l8 37l5 12l2 31l2 33v4h-176q-10 5 -13 20l2 33l6 25l5 26l4 25l6 31l4 16l8 12h115
l-15 49l-8 27l-2 16l-8 15l-6 20l-2 27l-2 16l-4 15v14l-4 14v29l-5 20l-2 17l2 14l5 31l2 29l8 41l6 14l6 29l2 16l10 20l7 21l8 24l12 17l4 14l10 10l17 19l6 8l14 21l12 12l25 20l39 27l37 12l20 13l41 8l37 10h64l34 -2h15l16 -4l31 -2l22 -8l15 -2l8 -7l25 -12l12 -12
l16 -6l21 -21l6 -8l18 -23l6 -10l11 -22l8 -13l4 -22l2 -14z" />
    <glyph glyph-name="yen" unicode="&#xa5;" horiz-adv-x="892" 
d="M1044 1430l23 -9v-26l-6 -27l-4 -10l-17 -23l-4 -12l-12 -25l-8 -12l-2 -14l-13 -25l-8 -10l-8 -25l-16 -22l-4 -14l-9 -13l-4 -12l-18 -39l-10 -12l-13 -29l-16 -24l-2 -13l-8 -12l-6 -12l-21 -35l-10 -27l-6 -14l-4 -12l-15 -25l-4 -10l-10 -13l-2 -10h104l19 -4h14
l10 -10v-47l-4 -19l-2 -26l-2 -15l-4 -12v-16l-8 -31l-25 -10l-20 -2l-74 2l-33 -4l-61 2h-21l-10 -10l-6 -11l-6 -12l-14 -25l-11 -24l-8 -10l-4 -17l-2 -4h12l29 -2l16 2l62 -2h94l16 -4h15l10 -10l2 -35l-2 -12l-2 -19l-2 -26l-4 -15l-2 -12l-2 -16l-9 -31l-24 -10
l-19 -2l-75 2l-31 -5l-61 3h-70v-3l-6 -28l-8 -31l-9 -29l-2 -14l-6 -20l-4 -15v-12l-4 -29l-6 -30l-4 -15l-8 -30l-7 -29l-2 -12l-8 -25l-12 -35l-51 -8h-19l-16 2l-14 -2h-19l-31 2l-12 -2h-43l-14 2h-11l-22 12l-2 27l4 25l4 26l-2 12l4 15l2 12l2 14l4 13v22l6 19l11 45
l2 22l4 27l6 14l4 31l10 24h-32l-31 3h-14l-15 -3l-76 3h-69l-25 4l-16 2l-8 20l-4 15l6 28l2 15l2 12l4 18v17l6 18l8 29l15 12l53 2h92l29 2h108l4 12l-2 25l-6 20l-2 19l2 16l-4 15v4l-31 2h-14l-14 -2l-76 2h-70l-22 4l-17 2l-10 20l-2 15l6 28v15l4 12l2 18l2 17l6 18
l9 29l14 12l51 2h92l29 2h10l-2 15l-6 24l-8 27l-4 26v15l-6 33l-11 30l-2 17l-4 51l-4 16l2 25l-6 14l-4 31v14l-8 29l-8 61l-2 27l-3 12l-4 29l-2 20l-4 21l13 16l8 6l16 2l53 5h29l20 2l-6 -2l23 4l49 -4l31 -5l22 -18l6 -20v-48l7 -16v-20l8 -17l4 -57l-2 -12l6 -29
l4 -14l8 -21l-2 -20l2 -27l6 -21v-18l4 -25l11 -53l2 -30l4 -29l4 -39l27 63l6 11l12 24l8 21l4 12l11 23l10 24l14 23l21 49l12 26l8 13l2 14l14 27l7 12l2 14l18 41l4 15l8 14l11 27l18 36l21 48l14 8l18 -4l37 2l31 -4l33 2h53l22 -4h45z" />
    <glyph glyph-name="dieresis" unicode="&#xa8;" horiz-adv-x="1228" 
d="M678 1548l-35 4h-41l-22 2l-9 2l-2 19v45l-2 12l4 19l11 22l8 58v30l8 11l14 2l11 4l26 -4h139l15 -11l8 -10l2 -24l-8 -15l4 -14v-2l-4 -25l-10 -28l4 -25l-6 -16l2 -17l-17 -33l-22 -6h-78zM1016 1548l-27 4h-51l-12 2l-19 2v19l-4 22v7l4 16l-4 12l15 19v22l6 58
l10 30v11l10 2l17 4l30 -4h135l11 -11l20 -10l2 -24l-12 -15v-14l-4 -2l-4 -25l-4 -28l2 -25v-33l-11 -12l-12 -21l-27 -6h-71z" />
    <glyph glyph-name="macron" unicode="&#xaf;" horiz-adv-x="1228" 
d="M580 1548l-27 6l-16 2l-11 23l4 18l11 50v8l4 18l6 17l6 32l14 11l58 2h45l28 4l37 -4h72l51 4l31 -4l18 4l47 -4h89l18 -2h14l11 -11v-49l-5 -18l-10 -62l-8 -30l-35 -11l-18 -4l-64 4l-32 -4h-338z" />
    <glyph glyph-name="acute" unicode="&#xb4;" horiz-adv-x="514" 
d="M291 1528l-21 2l-32 4l-19 2l6 16l15 15l16 18l8 10l12 19l21 20l18 21l13 14l14 14l12 11l17 16l14 19l12 12l33 45l19 14l6 4l20 8h203l20 -6l11 -4l4 -14l-8 -10l-13 -21l-14 -14l-27 -23l-16 -14l-14 -14l-21 -15l-27 -26l-26 -25l-17 -12l-26 -21l-33 -32l-27 -15
l-8 -10l-22 -8h-39l-58 2z" />
    <glyph glyph-name="cedilla" unicode="&#xb8;" horiz-adv-x="1228" 
d="M772 -217l4 -14v-50l-8 -24l-14 -37l-11 -27l-6 -14l-8 -14l-12 -15l-23 -16l-20 -14l-31 -11l-14 -8l-37 -4l-51 -4l-66 2l-10 2l-16 2l-27 2h-33l-24 6l-9 11l4 34l19 74l10 21l17 10l53 -6l37 -6l32 -5l33 3l25 6l14 10l16 14l7 17l4 22l-4 19l-9 12l-22 12l-17 2
l-24 -2h-127l-12 6l-2 13l4 22l6 21l4 32l10 35l8 43l9 21l6 28l6 41l26 11l19 4h102l11 -2l4 -11l-4 -26l-5 -19l-14 -30l-4 -35l-8 -25h8l23 -2h22l19 -2l22 -6l27 -14l22 -19l12 -16l13 -25l4 -6l4 -10l2 -19z" />
    <glyph glyph-name="questiondown" unicode="&#xbf;" horiz-adv-x="714" 
d="M547 1135l-19 4h-102l-25 6l-10 12l2 10l4 29l19 90l4 29l2 12l6 16l4 23l6 16l8 37l13 13l14 2h29l16 2h86l68 -2l8 2h18l25 -15l6 -22l2 -17l-6 -26l-2 -25l-6 -22l-4 -37l-8 -27v-12l-5 -12l-4 -31l-12 -29l-20 -16l-25 -8h-78zM305 -18l-67 10l-17 4l-14 6l-25 8
l-22 6l-10 13l-27 10l-10 10l-15 12l-10 7l-20 20l-5 12l-12 23l-6 12l-14 27l-6 12l-11 33l-6 14l2 15l-2 16l-2 27l2 18l-2 27l2 16l2 29l2 41l17 24l30 10h119l35 -4h29l12 -4l4 -14v-23l-2 -32v-15l2 -35v-18l6 -29l19 -22l14 -10l39 -5l35 11l20 18l15 23l12 22l10 33
l8 33l2 20l4 29l-2 29l2 16l-2 22l-4 13v37l-10 26l-8 25l-2 10l-4 12l-4 11l-5 16l-10 8l-4 23l-10 24l-4 13l-2 16l-11 25l-10 47l2 14l-2 29v14l-2 18l4 19l2 31v16l13 25l18 16l31 2h14l37 4l29 -2h16l72 -2h57l6 -14l-2 -19l-4 -16l2 -12v-17l-2 -24l8 -25v-12l6 -25
l2 -12l17 -64l4 -12l6 -29l12 -18l4 -25l7 -22l4 -15l4 -22l4 -14l4 -23l6 -20l2 -25l-2 -12l6 -29l-2 -14v-19l-2 -14l-2 -29l2 -14l-2 -12l-4 -35l-10 -39l-8 -51l-13 -25l-20 -37l-8 -20l-25 -39l-8 -12l-10 -15l-17 -14l-20 -18l-29 -29l-20 -6l-21 -11l-26 -12l-19 -4
l-24 -8l-58 -8l-49 -6l-12 2z" />
    <glyph glyph-name="Agrave" unicode="&#xc0;" horiz-adv-x="913" 
d="M674 1526l-19 6l-16 4l-10 8l-15 17l-18 14l-14 16l-21 23l-10 10l-25 27l-28 24l-15 15l-12 16l-14 16l-23 23l-12 14l-10 19l-4 8l4 16l10 4l22 4l27 2h156l14 -8l6 -6l19 -16l22 -33l8 -14l15 -15l18 -24l10 -8l11 -21l14 -16l8 -19l23 -20l10 -21l8 -10l6 -16l21 -17
l-2 -14l-45 -6l-25 -2h-94zM166 -4l-31 2l-14 2l-150 2l-18 4l-4 17l4 14l2 12l12 25l17 26l20 62l12 24l11 25l22 49l8 27l17 37l4 12l10 14l10 25l4 12l2 14l7 13l10 26l6 15l14 28l4 15l5 18l10 16l12 25l4 14l12 29l2 12l7 15l6 12l10 29l6 12l17 57l6 17l14 26l10 35
l13 23l6 12l6 27l10 14l6 27l4 10l13 26l6 29l10 14l8 13l17 43l10 26l6 13l12 18l6 20l7 15l18 37l4 14l6 12l4 13l4 14l13 22l8 13l4 10l12 37l15 26l18 37l6 15l6 12l8 23l15 2h20l39 -2l21 2h32l39 2h19l14 -4l19 2h32l11 -5l14 -10l6 -88v-45l4 -12v-37l2 -74v-28
l2 -27l4 -41v-29l2 -30l-2 -15v-45l4 -28v-41l2 -29l-2 -12l2 -27v-12l3 -33l4 -23v-79l2 -25l2 -16v-62l2 -94v-14l2 -31l-2 -31l2 -29l-2 -14l4 -78v-12l2 -27l2 -14v-31l-2 -28l2 -17v-18l2 -45v-43q6 -26 -6 -33h-23l-14 -2l-16 2h-29l-45 -2h-16l-25 2l-14 -2l-21 -2
l-27 2h-30l-8 6l-5 21l-2 36l-2 21l2 20v97l-2 16l-45 2l-32 4l-91 2h-55l-10 -22l-14 -27l-5 -14l-6 -15l-8 -24l-20 -39l-13 -31l-6 -22l-6 -11l-8 -14l-12 -8l-58 2zM504 489h61l13 11l2 28l-2 17l2 16v53l2 15v35l4 16l-2 49l2 78l2 74l-2 47l-17 -6l-8 -27l-10 -33
l-6 -20l-10 -33l-9 -16l-8 -21l-2 -14l-8 -15l-6 -18l-6 -14l-7 -19l-12 -45l-2 -14l-10 -31l-8 -14l-11 -35l-4 -14l-4 -19l-6 -14l14 -12h17l22 -2z" />
    <glyph glyph-name="Aacute" unicode="&#xc1;" horiz-adv-x="913" 
d="M547 1528l-21 2l-32 4l-19 2l6 16l15 15l16 18l8 10l12 19l21 20l18 21l13 14l14 14l12 11l17 16l14 19l12 12l33 45l19 14l6 4l20 8h203l20 -6l11 -4l4 -14l-8 -10l-13 -21l-14 -14l-27 -23l-16 -14l-14 -14l-21 -15l-27 -26l-26 -25l-17 -12l-26 -21l-33 -32l-27 -15
l-8 -10l-22 -8h-39l-58 2zM166 -4l-31 2l-14 2l-150 2l-18 4l-4 17l4 14l2 12l12 25l17 26l20 62l12 24l11 25l22 49l8 27l17 37l4 12l10 14l10 25l4 12l2 14l7 13l10 26l6 15l14 28l4 15l5 18l10 16l12 25l4 14l12 29l2 12l7 15l6 12l10 29l6 12l17 57l6 17l14 26l10 35
l13 23l6 12l6 27l10 14l6 27l4 10l13 26l6 29l10 14l8 13l17 43l10 26l6 13l12 18l6 20l7 15l18 37l4 14l6 12l4 13l4 14l13 22l8 13l4 10l12 37l15 26l18 37l6 15l6 12l8 23l15 2h20l39 -2l21 2h32l39 2h19l14 -4l19 2h32l11 -5l14 -10l6 -88v-45l4 -12v-37l2 -74v-28
l2 -27l4 -41v-29l2 -30l-2 -15v-45l4 -28v-41l2 -29l-2 -12l2 -27v-12l3 -33l4 -23v-79l2 -25l2 -16v-62l2 -94v-14l2 -31l-2 -31l2 -29l-2 -14l4 -78v-12l2 -27l2 -14v-31l-2 -28l2 -17v-18l2 -45v-43q6 -26 -6 -33h-23l-14 -2l-16 2h-29l-45 -2h-16l-25 2l-14 -2l-21 -2
l-27 2h-30l-8 6l-5 21l-2 36l-2 21l2 20v97l-2 16l-45 2l-32 4l-91 2h-55l-10 -22l-14 -27l-5 -14l-6 -15l-8 -24l-20 -39l-13 -31l-6 -22l-6 -11l-8 -14l-12 -8l-58 2zM504 489h61l13 11l2 28l-2 17l2 16v53l2 15v35l4 16l-2 49l2 78l2 74l-2 47l-17 -6l-8 -27l-10 -33
l-6 -20l-10 -33l-9 -16l-8 -21l-2 -14l-8 -15l-6 -18l-6 -14l-7 -19l-12 -45l-2 -14l-10 -31l-8 -14l-11 -35l-4 -14l-4 -19l-6 -14l14 -12h17l22 -2z" />
    <glyph glyph-name="Acircumflex" unicode="&#xc2;" horiz-adv-x="913" 
d="M973 1565l20 -17v-16h-16l-31 -4l-24 -2h-84l-23 2l-12 8l-10 8l-15 17l-18 14l-15 16l-20 23l-10 14l-19 21l-18 -21l-16 -16l-27 -21l-33 -32l-27 -15l-8 -10l-20 -8h-35l-51 2l-27 -2l-20 2l-33 2l-19 4l7 16l14 15l16 18l9 10l12 19l20 20l17 21l10 14l14 14l13 11
l22 22l14 19l13 12l28 39l19 14l18 12l27 2h156l4 -2l10 -6l6 -6l18 -16l23 -33l8 -14l14 -15l11 -18l10 -14l10 -21l15 -16l6 -19l22 -20l10 -21l9 -10zM854 76v-43q6 -26 -6 -33h-23l-14 -2l-16 2h-29l-45 -2h-16l-25 2l-14 -2l-21 -2l-27 2h-30l-8 6l-5 21l-2 36l-2 21
l2 20v97l-2 16l-45 2l-32 4l-91 2h-55l-10 -22l-14 -27l-5 -14l-6 -15l-8 -24l-20 -39l-13 -31l-6 -22l-6 -11l-8 -14l-12 -8l-58 2l-16 -2l-31 2l-14 2l-150 2l-18 4l-4 17l4 14l2 12l12 25l17 26l20 62l12 24l11 25l22 49l8 27l17 37l4 12l10 14l10 25l4 12l2 14l7 13
l10 26l6 15l14 28l4 15l5 18l10 16l12 25l4 14l12 29l2 12l7 15l6 12l10 29l6 12l17 57l6 17l14 26l10 35l13 23l6 12l6 27l10 14l6 27l4 10l13 26l6 29l10 14l8 13l17 43l10 26l6 13l12 18l6 20l7 15l18 37l4 14l6 12l4 13l4 14l13 22l8 13l4 10l12 37l15 26l18 37l6 15
l6 12l8 23l15 2h20l39 -2l21 2h32l39 2h19l14 -4l19 2h32l11 -5l14 -10l6 -88v-45l4 -12v-37l2 -74v-28l2 -27l4 -41v-29l2 -30l-2 -15v-45l4 -28v-41l2 -29l-2 -12l2 -27v-12l3 -33l4 -23v-79l2 -25l2 -16v-62l2 -94v-14l2 -31l-2 -31l2 -29l-2 -14l4 -78v-12l2 -27l2 -14
v-31l-2 -28l2 -17v-18zM586 807l2 74l-2 47l-17 -6l-8 -27l-10 -33l-6 -20l-10 -33l-9 -16l-8 -21l-2 -14l-8 -15l-6 -18l-6 -14l-7 -19l-12 -45l-2 -14l-10 -31l-8 -14l-11 -35l-4 -14l-4 -19l-6 -14l14 -12h17l22 -2l19 -3h61l13 11l2 28l-2 17l2 16v53l2 15v35l4 16
l-2 49z" />
    <glyph glyph-name="Atilde" unicode="&#xc3;" horiz-adv-x="913" 
d="M799 1507l-21 6l-20 5l-41 20l-19 12l-4 9l-18 16l-6 6l-13 16l-22 19l-4 4l-15 12l-12 8l-18 7l-21 -5l-14 -6l-19 -22l-8 -10l-4 -23l-6 -6v-14l-16 -17l-43 6h-60l-22 11l-2 22l-2 19l8 49l4 12l16 37l15 18l4 6l14 17l21 20l16 11l6 6l21 10l10 6l8 6l25 4l18 4h37
l20 -6l19 -4l26 -8l17 -10l16 -13l8 -8l15 -10l24 -25l23 -24l10 -6l12 -15l11 -6l18 -6l18 6l15 10l14 13l12 41l7 6l4 16l14 6l68 4l45 -4l16 -8l4 -18l-2 -15l-2 -26l-8 -29l-2 -10l-10 -23l-9 -14l-14 -23l-2 -4l-16 -18l-27 -27l-14 -8l-11 -6l-10 -8l-12 -4l-17 -8
l-41 -9h-32zM166 -4l-31 2l-14 2l-150 2l-18 4l-4 17l4 14l2 12l12 25l17 26l20 62l12 24l11 25l22 49l8 27l17 37l4 12l10 14l10 25l4 12l2 14l7 13l10 26l6 15l14 28l4 15l5 18l10 16l12 25l4 14l12 29l2 12l7 15l6 12l10 29l6 12l17 57l6 17l14 26l10 35l13 23l6 12l6 27
l10 14l6 27l4 10l13 26l6 29l10 14l8 13l17 43l10 26l6 13l12 18l6 20l7 15l18 37l4 14l6 12l4 13l4 14l13 22l8 13l4 10l12 37l15 26l18 37l6 15l6 12l8 23l15 2h20l39 -2l21 2h32l39 2h19l14 -4l19 2h32l11 -5l14 -10l6 -88v-45l4 -12v-37l2 -74v-28l2 -27l4 -41v-29
l2 -30l-2 -15v-45l4 -28v-41l2 -29l-2 -12l2 -27v-12l3 -33l4 -23v-79l2 -25l2 -16v-62l2 -94v-14l2 -31l-2 -31l2 -29l-2 -14l4 -78v-12l2 -27l2 -14v-31l-2 -28l2 -17v-18l2 -45v-43q6 -26 -6 -33h-23l-14 -2l-16 2h-29l-45 -2h-16l-25 2l-14 -2l-21 -2l-27 2h-30l-8 6
l-5 21l-2 36l-2 21l2 20v97l-2 16l-45 2l-32 4l-91 2h-55l-10 -22l-14 -27l-5 -14l-6 -15l-8 -24l-20 -39l-13 -31l-6 -22l-6 -11l-8 -14l-12 -8l-58 2zM504 489h61l13 11l2 28l-2 17l2 16v53l2 15v35l4 16l-2 49l2 78l2 74l-2 47l-17 -6l-8 -27l-10 -33l-6 -20l-10 -33
l-9 -16l-8 -21l-2 -14l-8 -15l-6 -18l-6 -14l-7 -19l-12 -45l-2 -14l-10 -31l-8 -14l-11 -35l-4 -14l-4 -19l-6 -14l14 -12h17l22 -2z" />
    <glyph glyph-name="Adieresis" unicode="&#xc4;" horiz-adv-x="913" 
d="M514 1548l-35 4h-41l-22 2l-8 2l-2 19v45l-3 12l5 19l10 22l8 58v30l8 11l15 2l10 4l26 -4h140l14 -11l8 -10l2 -24l-8 -15l4 -14v-2l-4 -25l-10 -28l4 -25l-6 -16l2 -17l-17 -33l-22 -6h-78zM852 1548l-27 4h-51l-12 2l-19 2v19l-4 22v7l4 16l-4 12l15 19v22l6 58l10 30
v11l10 2l17 4l30 -4h136l10 -11l20 -10l2 -24l-12 -15v-14l-4 -2l-4 -25l-4 -28l2 -25v-33l-10 -12l-13 -21l-26 -6h-72zM166 -4l-31 2l-14 2l-150 2l-18 4l-4 17l4 14l2 12l12 25l17 26l20 62l12 24l11 25l22 49l8 27l17 37l4 12l10 14l10 25l4 12l2 14l7 13l10 26l6 15
l14 28l4 15l5 18l10 16l12 25l4 14l12 29l2 12l7 15l6 12l10 29l6 12l17 57l6 17l14 26l10 35l13 23l6 12l6 27l10 14l6 27l4 10l13 26l6 29l10 14l8 13l17 43l10 26l6 13l12 18l6 20l7 15l18 37l4 14l6 12l4 13l4 14l13 22l8 13l4 10l12 37l15 26l18 37l6 15l6 12l8 23
l15 2h20l39 -2l21 2h32l39 2h19l14 -4l19 2h32l11 -5l14 -10l6 -88v-45l4 -12v-37l2 -74v-28l2 -27l4 -41v-29l2 -30l-2 -15v-45l4 -28v-41l2 -29l-2 -12l2 -27v-12l3 -33l4 -23v-79l2 -25l2 -16v-62l2 -94v-14l2 -31l-2 -31l2 -29l-2 -14l4 -78v-12l2 -27l2 -14v-31l-2 -28
l2 -17v-18l2 -45v-43q6 -26 -6 -33h-23l-14 -2l-16 2h-29l-45 -2h-16l-25 2l-14 -2l-21 -2l-27 2h-30l-8 6l-5 21l-2 36l-2 21l2 20v97l-2 16l-45 2l-32 4l-91 2h-55l-10 -22l-14 -27l-5 -14l-6 -15l-8 -24l-20 -39l-13 -31l-6 -22l-6 -11l-8 -14l-12 -8l-58 2zM504 489h61
l13 11l2 28l-2 17l2 16v53l2 15v35l4 16l-2 49l2 78l2 74l-2 47l-17 -6l-8 -27l-10 -33l-6 -20l-10 -33l-9 -16l-8 -21l-2 -14l-8 -15l-6 -18l-6 -14l-7 -19l-12 -45l-2 -14l-10 -31l-8 -14l-11 -35l-4 -14l-4 -19l-6 -14l14 -12h17l22 -2z" />
    <glyph glyph-name="Aring" unicode="&#xc5;" horiz-adv-x="913" 
d="M639 1497l-27 10l-8 4l-20 2l-13 7l-16 10l-35 35l-14 10v10l-4 6l-6 17l-7 4l-4 10l-4 6l-4 12v11l-6 8l4 16l-4 4l-2 17l2 14l6 14v17l2 16l2 6l8 17l9 12l8 18l6 9l2 6l8 6v8l17 12l14 11l2 2l10 6l15 10l14 8h18l4 4l17 6h14l33 5h31l10 -2h12l23 -3l8 -4l12 -4l6 -4
l19 -4l18 -6l6 -8l9 -4l16 -17l16 -8l8 -8l3 -6l8 -15l6 -6l4 -8l4 -10l2 -19l8 -20v-8l2 -8v-17l-2 -14l2 -12v-9l-2 -8l-6 -6v-12l-4 -17l-8 -20l-6 -12l-8 -13l-3 -16l-6 -6l-14 -10l-2 -9l-8 -4l-15 -14l-14 -6l-6 -4l-31 -11h-6l-8 -4l-29 -4l-8 -6h-88zM674 1622h24
l23 6l14 10l15 21l8 29l2 38l-8 19l-7 14l-14 15l-22 8h-21l-18 -4l-15 -13l-14 -8l-8 -18l-4 -10v-13l-4 -18v-8l4 -17v-12l2 -6l8 -10l14 -11zM166 -4l-31 2l-14 2l-150 2l-18 4l-4 17l4 14l2 12l12 25l17 26l20 62l12 24l11 25l22 49l8 27l17 37l4 12l10 14l10 25l4 12
l2 14l7 13l10 26l6 15l14 28l4 15l5 18l10 16l12 25l4 14l12 29l2 12l7 15l6 12l10 29l6 12l17 57l6 17l14 26l10 35l13 23l6 12l6 27l10 14l6 27l4 10l13 26l6 29l10 14l8 13l17 43l10 26l6 13l12 18l6 20l7 15l18 37l4 14l6 12l4 13l4 14l13 22l8 13l4 10l12 37l15 26
l18 37l6 15l6 12l8 23l15 2h20l39 -2l21 2h32l39 2h19l14 -4l19 2h32l11 -5l14 -10l6 -88v-45l4 -12v-37l2 -74v-28l2 -27l4 -41v-29l2 -30l-2 -15v-45l4 -28v-41l2 -29l-2 -12l2 -27v-12l3 -33l4 -23v-79l2 -25l2 -16v-62l2 -94v-14l2 -31l-2 -31l2 -29l-2 -14l4 -78v-12
l2 -27l2 -14v-31l-2 -28l2 -17v-18l2 -45v-43q6 -26 -6 -33h-23l-14 -2l-16 2h-29l-45 -2h-16l-25 2l-14 -2l-21 -2l-27 2h-30l-8 6l-5 21l-2 36l-2 21l2 20v97l-2 16l-45 2l-32 4l-91 2h-55l-10 -22l-14 -27l-5 -14l-6 -15l-8 -24l-20 -39l-13 -31l-6 -22l-6 -11l-8 -14
l-12 -8l-58 2zM504 489h61l13 11l2 28l-2 17l2 16v53l2 15v35l4 16l-2 49l2 78l2 74l-2 47l-17 -6l-8 -27l-10 -33l-6 -20l-10 -33l-9 -16l-8 -21l-2 -14l-8 -15l-6 -18l-6 -14l-7 -19l-12 -45l-2 -14l-10 -31l-8 -14l-11 -35l-4 -14l-4 -19l-6 -14l14 -12h17l22 -2z" />
    <glyph glyph-name="AE" unicode="&#xc6;" horiz-adv-x="1148" 
d="M125 -2l-12 2l-136 2l-18 4l-4 17l4 14l4 12l10 25l17 26l30 62l15 24l14 23l21 49l16 27l18 37l5 12l10 16l12 25l10 12l2 14l9 13l14 26l2 15l14 28l13 15l6 20l10 17l8 12l6 12l6 14l19 41l6 15l6 12l12 29l9 12l24 57l10 17l17 26l10 31l14 27l9 12l4 25l10 14l12 27
l4 10l19 26l6 25l8 14l10 17l19 45l16 26l2 13l10 18l15 21l4 14l18 37l8 14l5 12l4 11l6 14l14 22l10 13l4 10l15 37l16 24l6 13l6 14l9 12l16 29l21 25h135l12 2l14 -2l21 2h14l17 -2h20l45 2l109 -2h108l33 2l14 -2l19 2l20 -2l19 -2l12 -11l-4 -26v-13l-10 -49v-12
l-5 -29l-2 -12l-6 -31l-2 -16l-8 -29l-2 -16l-6 -27l-21 -2h-80l-18 2h-108l-29 -2l-6 -24l-2 -15v-28l-6 -13v-16l-7 -39l-4 -29l-10 -43l2 -16l-6 -21l-6 -34h37l77 -2h64l16 -5l13 -16l-4 -20v-17l-7 -24l-6 -43l-8 -31l2 -14l-8 -17l-4 -28l-8 -33l-4 -29l-5 -4h-20
l-35 -2h-33l-14 -2l-47 2h-51l-6 -23l-7 -26l-4 -31l-4 -29l-4 -20l-4 -18l-2 -21l-4 -14l-6 -37l-8 -53v-17l8 -8l28 -4h197l14 -6l-4 -33l-4 -23l-2 -16l-8 -39v-26l-4 -15l-4 -12l-2 -14l-4 -31l-4 -35l-5 -18l-6 -27h-172l-26 4l-13 -2h-43l-32 -2l-17 2l-39 -4h-14
l-23 4l-16 -2l-14 2h-21l-35 -2h-16l-10 4l-6 23l2 16l4 18l4 31l4 33l6 31l6 32l2 17v10l-24 2l-33 4l-90 2h-55l-13 -22l-16 -27l-8 -14l-6 -15l-11 -24l-24 -39l-15 -31l-8 -22l-6 -9l-8 -14l-14 -8l-64 2l-16 -2h-31zM506 489h96l8 5l6 22l5 16l2 15l6 31l12 57l6 31
l8 28l4 31l7 14l2 17l6 28l4 13l8 51l6 26l8 37l7 33l6 37l8 43l-8 4l-21 -35l-16 -41l-14 -28l-13 -29l-18 -33l-13 -24l-12 -33l-10 -17l-8 -20l-13 -29l-8 -18l-6 -14l-26 -62l-5 -14l-12 -31l-8 -14l-14 -33l-4 -14l-9 -19l-6 -14l6 -14z" />
    <glyph glyph-name="Ccedilla" unicode="&#xc7;" horiz-adv-x="892" 
d="M958 1208l3 -30v-45l-3 -21l-4 -16l-4 -31l-4 -33l-12 -80l-4 -16l-10 -53l-9 -9l-24 -2l-29 -2l-129 2l-59 9l-15 22v29l4 14l9 37l4 29l12 45l2 26l4 29v31l-12 37l-23 12l-28 8h-23l-24 -4l-23 -8l-18 -23l-7 -12l-6 -14l-8 -35l-10 -27l-12 -35v-12l-9 -24l-6 -31
l-6 -25l-6 -18l-2 -14l-2 -13l-4 -14l-4 -29l-11 -31l-16 -81l-2 -17l-8 -33l-2 -14l-4 -27l-4 -16l-7 -31v-43l-6 -14l-2 -14v-17l-2 -14l-4 -14l2 -15l-6 -43v-16l-6 -29l-2 -28v-21l2 -12v-15l8 -30l16 -15l31 -10l33 4h31l28 19l9 10l16 37l10 28l8 27l2 12l2 11l7 24
l6 31l4 18l2 15l10 26l4 21l15 16l16 2l53 -2h43l101 -6l24 -2l14 -14l9 -15v-22l-4 -13v-14l-5 -26l-2 -23l-4 -10l-2 -15l-2 -8l-6 -43l-4 -12l-12 -51l-6 -25l-3 -14l-4 -15l-6 -12l-12 -33l-10 -24l-6 -14l-9 -13l-10 -12l-6 -12l-4 -13l-31 -37l-31 -26l-32 -21l-15 -6
l-53 -12l-24 -6l-25 -4l-27 -6h-28l-4 -35l-9 -25h9l22 -2h23l18 -2l23 -6l26 -14l23 -19l12 -16l12 -25l4 -6l5 -10l2 -19l4 -20l4 -14v-50l-8 -24l-15 -37l-10 -27l-6 -14l-8 -14l-13 -15l-22 -16l-21 -14l-30 -11l-15 -8l-37 -4l-51 -4l-65 2l-11 2l-16 2l-27 2h-32
l-25 6l-8 11l4 34l18 74l11 21l16 10l53 -6l37 -6l33 -5l33 3l24 6l15 10l16 14l6 17l4 22l-4 19l-8 12l-23 12l-16 2l-25 -2h-127l-12 6l-2 13l4 22l6 21l4 32l11 35l8 43l8 21l-16 2l-15 4l-12 2l-27 10l-24 8l-12 11l-21 12l-10 8l-12 8l-27 21l-8 10l-10 10l-15 29
l-18 26l-6 27l-4 12l-5 27l-4 14v39l-2 17v18l2 14v54l2 43l2 16l2 29l5 28v15l2 12l4 43l8 29l-2 18l4 16l6 23l-2 10l6 37l8 12v29l2 6v8l7 23l4 22l6 21l2 25v12l6 12v29l10 41l4 14l4 23l3 20l6 12l2 15l4 14l2 12l2 15l6 14l6 27l15 41l12 41l8 28l12 35l11 25l12 28
l8 23l14 12l15 21l16 20l29 29l12 10l27 12l12 6l43 19l35 6l26 6l15 2h30l39 2h33l51 -6l19 -6h20l29 -4l12 -2l15 -4l14 -2l8 -6l23 -5l28 -10l27 -20l22 -21l5 -10l10 -18l6 -11l4 -14l10 -21l4 -22l2 -25l2 -26z" />
    <glyph glyph-name="Egrave" unicode="&#xc8;" horiz-adv-x="772" 
d="M614 1526l-18 6l-16 4l-11 8l-14 17l-18 14l-15 16l-20 23l-10 10l-25 27l-29 24l-14 15l-12 16l-15 16l-22 23l-13 14l-10 19l-4 8l4 16l10 4l23 4l27 2h155l15 -8l6 -6l18 -16l23 -33l8 -14l14 -15l19 -24l10 -8l10 -21l15 -16l8 -19l22 -20l10 -21l9 -10l6 -16l20 -17
l-2 -14l-45 -6l-24 -2h-95zM301 -2l-39 2h-53l-14 2h-109l-18 4l-7 19l7 18l4 18l4 31l4 33l8 31l2 32l6 17v18l4 15v14l4 16l2 15l3 28l4 27l8 16l4 33v14l4 17l4 26v11l8 24l-2 13l6 26l7 14l2 15l6 31l4 14l8 43v31l8 28l4 31l6 14l3 17l2 14v14l8 13l12 61l6 16l4 15
l-2 12l6 29l9 31l2 57l6 14l2 43l8 12l4 17l2 14l-2 12l2 15l8 26l4 29l7 12v15l6 14l-2 12l4 15l2 26l4 13l2 12l2 27l2 12l-4 14l6 25l6 12l2 12l17 13h34l13 2l14 -2l25 2h14l16 -2h21l45 2l154 2l47 -2l16 -2l59 2h45l19 2l20 -2l19 -2l10 -15l-6 -22v-13l-4 -51v-12
l-6 -14l-2 -15l-2 -12l-7 -31v-16l-8 -29l-2 -12l-6 -27l-20 -2h-86l-25 -2h-133l-49 -2l-6 -24l-2 -15v-28l-7 -13v-16l-6 -39l-4 -29l-6 -28l-4 -15l2 -16l-6 -21l-4 -36h37l71 -2l39 4h53l17 -4l12 -17l-4 -24v-17l-4 -22l-6 -29l-4 -14l-6 -31v-14l-7 -17l-4 -28l-6 -33
l-4 -29l-4 -4h-21l-30 -2h-19l-51 -2l-35 2h-22l-27 -2h-18l-8 -23l-7 -26l-8 -58l-6 -20l-4 -18l-2 -21l-4 -14l-6 -37l-9 -53v-17l9 -8l28 -4h121l29 -2l45 -2l57 2l15 -6l-2 -17l-3 -8l-4 -22l-2 -17l-8 -45v-26l-4 -15l-4 -12l-2 -14l-6 -31l-2 -35l-4 -18l-7 -23h-194
l-33 -2l-26 2l-13 -2h-43l-33 -2z" />
    <glyph glyph-name="Eacute" unicode="&#xc9;" horiz-adv-x="772" 
d="M487 1528l-20 2l-33 4l-18 2l6 16l14 15l17 18l8 10l12 19l21 20l18 21l12 14l15 14l12 11l16 16l15 19l12 12l33 45l18 14l6 4l21 8h202l21 -6l10 -4l4 -14l-8 -10l-12 -21l-15 -14l-26 -23l-17 -14l-14 -14l-20 -15l-27 -26l-27 -25l-16 -12l-27 -21l-32 -32l-27 -15
l-8 -10l-23 -8h-39l-57 2zM301 -2l-39 2h-53l-14 2h-109l-18 4l-7 19l7 18l4 18l4 31l4 33l8 31l2 32l6 17v18l4 15v14l4 16l2 15l3 28l4 27l8 16l4 33v14l4 17l4 26v11l8 24l-2 13l6 26l7 14l2 15l6 31l4 14l8 43v31l8 28l4 31l6 14l3 17l2 14v14l8 13l12 61l6 16l4 15
l-2 12l6 29l9 31l2 57l6 14l2 43l8 12l4 17l2 14l-2 12l2 15l8 26l4 29l7 12v15l6 14l-2 12l4 15l2 26l4 13l2 12l2 27l2 12l-4 14l6 25l6 12l2 12l17 13h34l13 2l14 -2l25 2h14l16 -2h21l45 2l154 2l47 -2l16 -2l59 2h45l19 2l20 -2l19 -2l10 -15l-6 -22v-13l-4 -51v-12
l-6 -14l-2 -15l-2 -12l-7 -31v-16l-8 -29l-2 -12l-6 -27l-20 -2h-86l-25 -2h-133l-49 -2l-6 -24l-2 -15v-28l-7 -13v-16l-6 -39l-4 -29l-6 -28l-4 -15l2 -16l-6 -21l-4 -36h37l71 -2l39 4h53l17 -4l12 -17l-4 -24v-17l-4 -22l-6 -29l-4 -14l-6 -31v-14l-7 -17l-4 -28l-6 -33
l-4 -29l-4 -4h-21l-30 -2h-19l-51 -2l-35 2h-22l-27 -2h-18l-8 -23l-7 -26l-8 -58l-6 -20l-4 -18l-2 -21l-4 -14l-6 -37l-9 -53v-17l9 -8l28 -4h121l29 -2l45 -2l57 2l15 -6l-2 -17l-3 -8l-4 -22l-2 -17l-8 -45v-26l-4 -15l-4 -12l-2 -14l-6 -31l-2 -35l-4 -18l-7 -23h-194
l-33 -2l-26 2l-13 -2h-43l-33 -2z" />
    <glyph glyph-name="Ecircumflex" unicode="&#xca;" horiz-adv-x="772" 
d="M913 1565l21 -17v-16h-16l-31 -4l-25 -2h-84l-22 2l-13 8l-10 8l-14 17l-19 14l-14 16l-20 23l-11 14l-18 21l-19 -21l-16 -16l-27 -21l-32 -32l-27 -15l-8 -10l-21 -8h-34l-52 2l-26 -2l-21 2l-32 2l-19 4l6 16l15 15l16 18l8 10l12 19l21 20l16 21l11 14l14 14l12 11
l23 22l14 19l12 12l29 39l18 14l19 12l26 2h156l4 -2l10 -6l7 -6l18 -16l23 -33l8 -14l14 -15l10 -18l11 -14l10 -21l14 -16l6 -19l23 -20l10 -21l8 -10zM870 1436l19 -2l10 -15l-6 -22v-13l-4 -51v-12l-6 -14l-2 -15l-2 -12l-7 -31v-16l-8 -29l-2 -12l-6 -27l-20 -2h-86
l-25 -2h-133l-49 -2l-6 -24l-2 -15v-28l-7 -13v-16l-6 -39l-4 -29l-6 -28l-4 -15l2 -16l-6 -21l-4 -36h37l71 -2l39 4h53l17 -4l12 -17l-4 -24v-17l-4 -22l-6 -29l-4 -14l-6 -31v-14l-7 -17l-4 -28l-6 -33l-4 -29l-4 -4h-21l-30 -2h-19l-51 -2l-35 2h-22l-27 -2h-18l-8 -23
l-7 -26l-8 -58l-6 -20l-4 -18l-2 -21l-4 -14l-6 -37l-9 -53v-17l9 -8l28 -4h121l29 -2l45 -2l57 2l15 -6l-2 -17l-3 -8l-4 -22l-2 -17l-8 -45v-26l-4 -15l-4 -12l-2 -14l-6 -31l-2 -35l-4 -18l-7 -23h-194l-33 -2l-26 2l-13 -2h-43l-33 -2l-16 -2l-39 2h-53l-14 2h-109
l-18 4l-7 19l7 18l4 18l4 31l4 33l8 31l2 32l6 17v18l4 15v14l4 16l2 15l3 28l4 27l8 16l4 33v14l4 17l4 26v11l8 24l-2 13l6 26l7 14l2 15l6 31l4 14l8 43v31l8 28l4 31l6 14l3 17l2 14v14l8 13l12 61l6 16l4 15l-2 12l6 29l9 31l2 57l6 14l2 43l8 12l4 17l2 14l-2 12l2 15
l8 26l4 29l7 12v15l6 14l-2 12l4 15l2 26l4 13l2 12l2 27l2 12l-4 14l6 25l6 12l2 12l17 13h34l13 2l14 -2l25 2h14l16 -2h21l45 2l154 2l47 -2l16 -2l59 2h45l19 2z" />
    <glyph glyph-name="Edieresis" unicode="&#xcb;" horiz-adv-x="772" 
d="M455 1548l-35 4h-41l-23 2l-8 2l-2 19v45l-2 12l4 19l10 22l9 58v30l8 11l14 2l10 4l27 -4h139l15 -11l8 -10l2 -24l-8 -15l4 -14v-2l-4 -25l-11 -28l4 -25l-6 -16l2 -17l-16 -33l-23 -6h-77zM793 1548l-27 4h-51l-13 2l-18 2v19l-4 22v7l4 16l-4 12l14 19v22l6 58l11 30
v11l10 2l16 4l31 -4h135l10 -11l21 -10l2 -24l-12 -15v-14l-4 -2l-5 -25l-4 -28l2 -25v-33l-10 -12l-12 -21l-27 -6h-71zM301 -2l-39 2h-53l-14 2h-109l-18 4l-7 19l7 18l4 18l4 31l4 33l8 31l2 32l6 17v18l4 15v14l4 16l2 15l3 28l4 27l8 16l4 33v14l4 17l4 26v11l8 24
l-2 13l6 26l7 14l2 15l6 31l4 14l8 43v31l8 28l4 31l6 14l3 17l2 14v14l8 13l12 61l6 16l4 15l-2 12l6 29l9 31l2 57l6 14l2 43l8 12l4 17l2 14l-2 12l2 15l8 26l4 29l7 12v15l6 14l-2 12l4 15l2 26l4 13l2 12l2 27l2 12l-4 14l6 25l6 12l2 12l17 13h34l13 2l14 -2l25 2h14
l16 -2h21l45 2l154 2l47 -2l16 -2l59 2h45l19 2l20 -2l19 -2l10 -15l-6 -22v-13l-4 -51v-12l-6 -14l-2 -15l-2 -12l-7 -31v-16l-8 -29l-2 -12l-6 -27l-20 -2h-86l-25 -2h-133l-49 -2l-6 -24l-2 -15v-28l-7 -13v-16l-6 -39l-4 -29l-6 -28l-4 -15l2 -16l-6 -21l-4 -36h37
l71 -2l39 4h53l17 -4l12 -17l-4 -24v-17l-4 -22l-6 -29l-4 -14l-6 -31v-14l-7 -17l-4 -28l-6 -33l-4 -29l-4 -4h-21l-30 -2h-19l-51 -2l-35 2h-22l-27 -2h-18l-8 -23l-7 -26l-8 -58l-6 -20l-4 -18l-2 -21l-4 -14l-6 -37l-9 -53v-17l9 -8l28 -4h121l29 -2l45 -2l57 2l15 -6
l-2 -17l-3 -8l-4 -22l-2 -17l-8 -45v-26l-4 -15l-4 -12l-2 -14l-6 -31l-2 -35l-4 -18l-7 -23h-194l-33 -2l-26 2l-13 -2h-43l-33 -2z" />
    <glyph glyph-name="Igrave" unicode="&#xcc;" horiz-adv-x="538" 
d="M463 1526l-19 6l-16 4l-10 8l-15 17l-18 14l-14 16l-21 23l-10 10l-25 27l-28 24l-15 15l-12 16l-14 16l-23 23l-12 14l-10 19l-4 8l4 16l10 4l22 4l27 2h156l14 -8l6 -6l19 -16l22 -33l8 -14l15 -15l18 -24l10 -8l11 -21l14 -16l8 -19l23 -20l10 -21l8 -10l6 -16l21 -17
l-2 -14l-45 -6l-25 -2h-94zM283 -4l-15 2h-59l-29 4h-16l-14 -2l-23 2l-14 2l-17 -2l-16 4l-17 14l-2 31l11 29l2 31l4 14l4 29l2 16l6 31l2 14l4 16l2 15l8 26l-2 13l7 37l6 22l4 18l6 19l4 18l4 25v14l4 15l2 12l4 14l-2 15l15 45l4 30v13l4 14l2 14l2 13l4 28v29l8 29v14
l4 29l9 16v27l4 24l6 27l10 28l6 44v28l6 15l4 28l2 12l-2 15l9 24l2 13l6 26l2 15l8 26l-2 15l2 16l2 27l4 10l4 29l6 26l2 12l5 13l2 24l4 23l8 22l4 31l4 12l2 15l14 20l15 6l12 9l14 2l31 2l19 -2h28l15 2h108l14 2l23 -6l8 -21l-2 -12v-27l-4 -6l-2 -23l2 -12l-6 -8
v-18l-6 -11l-4 -28l-9 -19v-16l-2 -12v-15l-2 -12l-10 -53l-4 -23l-4 -12l-4 -25l-2 -14l-2 -25l-2 -14l-4 -27l-7 -24l-6 -27l-2 -10l-6 -29l-6 -18v-19l-2 -14l-2 -16v-15l-4 -26l-6 -21l-11 -61l-8 -29l-6 -14v-17l-6 -26l-4 -27l-4 -24l-8 -29v-16l-9 -29v-17l-4 -28
l-2 -10v-29l-10 -21l2 -22l-6 -31l-2 -16l-8 -27v-16l-6 -29l-5 -29l-4 -26v-15l-6 -22l-8 -49l-6 -27l-4 -29l-6 -26l-2 -17l-7 -18l-22 -6h-53z" />
    <glyph glyph-name="Iacute" unicode="&#xcd;" horiz-adv-x="538" 
d="M336 1528l-21 2l-32 4l-19 2l6 16l15 15l16 18l8 10l13 19l20 20l18 21l13 14l14 14l12 11l17 16l14 19l12 12l33 45l19 14l6 4l20 8h203l20 -6l11 -4l4 -14l-8 -10l-13 -21l-14 -14l-27 -23l-16 -14l-14 -14l-21 -15l-27 -26l-26 -25l-17 -12l-26 -21l-33 -32l-27 -15
l-8 -10l-22 -8h-39l-58 2zM283 -4l-15 2h-59l-29 4h-16l-14 -2l-23 2l-14 2l-17 -2l-16 4l-17 14l-2 31l11 29l2 31l4 14l4 29l2 16l6 31l2 14l4 16l2 15l8 26l-2 13l7 37l6 22l4 18l6 19l4 18l4 25v14l4 15l2 12l4 14l-2 15l15 45l4 30v13l4 14l2 14l2 13l4 28v29l8 29v14
l4 29l9 16v27l4 24l6 27l10 28l6 44v28l6 15l4 28l2 12l-2 15l9 24l2 13l6 26l2 15l8 26l-2 15l2 16l2 27l4 10l4 29l6 26l2 12l5 13l2 24l4 23l8 22l4 31l4 12l2 15l14 20l15 6l12 9l14 2l31 2l19 -2h28l15 2h108l14 2l23 -6l8 -21l-2 -12v-27l-4 -6l-2 -23l2 -12l-6 -8
v-18l-6 -11l-4 -28l-9 -19v-16l-2 -12v-15l-2 -12l-10 -53l-4 -23l-4 -12l-4 -25l-2 -14l-2 -25l-2 -14l-4 -27l-7 -24l-6 -27l-2 -10l-6 -29l-6 -18v-19l-2 -14l-2 -16v-15l-4 -26l-6 -21l-11 -61l-8 -29l-6 -14v-17l-6 -26l-4 -27l-4 -24l-8 -29v-16l-9 -29v-17l-4 -28
l-2 -10v-29l-10 -21l2 -22l-6 -31l-2 -16l-8 -27v-16l-6 -29l-5 -29l-4 -26v-15l-6 -22l-8 -49l-6 -27l-4 -29l-6 -26l-2 -17l-7 -18l-22 -6h-53z" />
    <glyph glyph-name="Icircumflex" unicode="&#xce;" horiz-adv-x="538" 
d="M762 1565l20 -17v-16h-16l-31 -4l-24 -2h-84l-23 2l-12 8l-10 8l-15 17l-18 14l-14 16l-21 23l-10 14l-19 21l-18 -21l-16 -16l-27 -21l-33 -32l-26 -15l-9 -10l-20 -8h-35l-51 2l-27 -2l-20 2l-33 2l-18 4l6 16l14 15l16 18l9 10l12 19l20 20l17 21l10 14l14 14l13 11
l22 22l14 19l13 12l28 39l19 14l18 12l27 2h156l4 -2l10 -6l6 -6l18 -16l23 -33l8 -14l15 -15l10 -18l10 -14l10 -21l15 -16l6 -19l22 -20l11 -21l8 -10zM575 1436l23 -6l8 -21l-2 -12v-27l-4 -6l-2 -23l2 -12l-6 -8v-18l-6 -11l-4 -28l-9 -19v-16l-2 -12v-15l-2 -12
l-10 -53l-4 -23l-4 -12l-4 -25l-2 -14l-2 -25l-2 -14l-4 -27l-7 -24l-6 -27l-2 -10l-6 -29l-6 -18v-19l-2 -14l-2 -16v-15l-4 -26l-6 -21l-11 -61l-8 -29l-6 -14v-17l-6 -26l-4 -27l-4 -24l-8 -29v-16l-9 -29v-17l-4 -28l-2 -10v-29l-10 -21l2 -22l-6 -31l-2 -16l-8 -27v-16
l-6 -29l-5 -29l-4 -26v-15l-6 -22l-8 -49l-6 -27l-4 -29l-6 -26l-2 -17l-7 -18l-22 -6h-53l-15 2h-59l-29 4h-16l-14 -2l-23 2l-14 2l-17 -2l-16 4l-17 14l-2 31l11 29l2 31l4 14l4 29l2 16l6 31l2 14l4 16l2 15l8 26l-2 13l7 37l6 22l4 18l6 19l4 18l4 25v14l4 15l2 12
l4 14l-2 15l15 45l4 30v13l4 14l2 14l2 13l4 28v29l8 29v14l4 29l9 16v27l4 24l6 27l10 28l6 44v28l6 15l4 28l2 12l-2 15l9 24l2 13l6 26l2 15l8 26l-2 15l2 16l2 27l4 10l4 29l6 26l2 12l5 13l2 24l4 23l8 22l4 31l4 12l2 15l14 20l15 6l12 9l14 2l31 2l19 -2h28l15 2h108
z" />
    <glyph glyph-name="Idieresis" unicode="&#xcf;" horiz-adv-x="538" 
d="M303 1548l-35 4h-41l-22 2l-8 2l-2 19v45l-2 12l4 19l10 22l8 58v30l8 11l15 2l10 4l26 -4h140l14 -11l8 -10l2 -24l-8 -15l4 -14v-2l-4 -25l-10 -28l4 -25l-6 -16l2 -17l-17 -33l-22 -6h-78zM641 1548l-27 4h-51l-12 2l-19 2v19l-4 22v7l4 16l-4 12l15 19v22l6 58l10 30
v11l10 2l17 4l30 -4h136l10 -11l20 -10l2 -24l-12 -15v-14l-4 -2l-4 -25l-4 -28l2 -25v-33l-10 -12l-13 -21l-26 -6h-72zM283 -4l-15 2h-59l-29 4h-16l-14 -2l-23 2l-14 2l-17 -2l-16 4l-17 14l-2 31l11 29l2 31l4 14l4 29l2 16l6 31l2 14l4 16l2 15l8 26l-2 13l7 37l6 22
l4 18l6 19l4 18l4 25v14l4 15l2 12l4 14l-2 15l15 45l4 30v13l4 14l2 14l2 13l4 28v29l8 29v14l4 29l9 16v27l4 24l6 27l10 28l6 44v28l6 15l4 28l2 12l-2 15l9 24l2 13l6 26l2 15l8 26l-2 15l2 16l2 27l4 10l4 29l6 26l2 12l5 13l2 24l4 23l8 22l4 31l4 12l2 15l14 20l15 6
l12 9l14 2l31 2l19 -2h28l15 2h108l14 2l23 -6l8 -21l-2 -12v-27l-4 -6l-2 -23l2 -12l-6 -8v-18l-6 -11l-4 -28l-9 -19v-16l-2 -12v-15l-2 -12l-10 -53l-4 -23l-4 -12l-4 -25l-2 -14l-2 -25l-2 -14l-4 -27l-7 -24l-6 -27l-2 -10l-6 -29l-6 -18v-19l-2 -14l-2 -16v-15l-4 -26
l-6 -21l-11 -61l-8 -29l-6 -14v-17l-6 -26l-4 -27l-4 -24l-8 -29v-16l-9 -29v-17l-4 -28l-2 -10v-29l-10 -21l2 -22l-6 -31l-2 -16l-8 -27v-16l-6 -29l-5 -29l-4 -26v-15l-6 -22l-8 -49l-6 -27l-4 -29l-6 -26l-2 -17l-7 -18l-22 -6h-53z" />
    <glyph glyph-name="Eth" unicode="&#xd0;" horiz-adv-x="1003" 
d="M1016 958l4 -14l-2 -14v-12l-6 -33v-15l-4 -34l-2 -15v-57l-11 -33v-14l-8 -39l-4 -31l-4 -47l-4 -16l-6 -17l-2 -20l-13 -43l-2 -27l-4 -24l-6 -15l-14 -26l-4 -13l-2 -22l-13 -27l-2 -12l-8 -29l-14 -28l-15 -41l-10 -21l-16 -16l-2 -13l-11 -14l-10 -12l-14 -25
l-29 -35l-28 -22l-19 -16l-12 -9l-27 -12l-22 -6l-21 -14l-28 -9l-21 -4l-33 -4l-22 -8h-64l-14 -2h-10l-15 -2l-47 2l-26 2l-27 -2l-31 4l-24 -2l-17 2h-18l-29 4l-12 2h-16l-15 -2h-61l-29 4l-16 4v47l2 19l10 24l4 29l2 12l6 29l4 21l4 16v16l5 29l2 16l4 23l8 16l4 21
v16l6 29l4 16l2 27l2 12l9 14v46l6 28l2 17l6 28l2 15l4 26l4 15l8 32l-8 -2l-14 2h-29l-8 2l-16 2l-13 13l-2 22l4 29l4 16l4 21l5 35l6 18l8 33l8 8l19 6l22 -2h51l2 6l4 15l2 14v12l3 15l4 24l2 14l6 25v12l4 25l8 24v29l2 16l4 43l4 25l11 37l4 14v13l2 14l6 27l4 28
l4 25l6 12l2 14l2 25l4 14l7 21l4 6l6 22l20 7h15l24 -2l15 -2l32 4h17l45 -2l41 2h51l22 -2l13 2h32l17 -2l18 -2l31 -5h14l17 -6l28 -8h4l13 -4l35 -10l10 -6l8 -5l20 -12l15 -10l12 -10l31 -41l16 -25l8 -10l11 -18l8 -29l12 -31l8 -14l6 -35v-14l11 -29l-2 -14l4 -41
l2 -27l-6 -12l6 -29l2 -12zM731 899l-2 43l2 59l-4 56l-2 16l-12 35l-15 27l-12 10l-10 8l-35 10l-33 4l-26 2l-19 -2l-6 -16l-6 -14v-13l-4 -14l-6 -31l-9 -28l-4 -27l-4 -29l-4 -45l-2 -12l-4 -14v-15l-2 -16l-6 -12v-13l-2 -14h63l13 -4l10 -10l2 -35l-2 -12l-2 -15v-12
l-4 -14l-2 -25l-4 -27l-3 -14l-8 -24l-16 -11l-33 -2h-49l-2 -8l-8 -53v-27l-2 -12l-11 -29v-12l-6 -31l-8 -37l-2 -14l-8 -29l-4 -30l-2 -31l-6 -35l-4 -18l28 -9h62l20 7l16 8l23 12l10 8l17 17l14 16l6 12l8 15l8 20l11 21l10 26l12 39l6 23l7 28l8 27l2 12l4 10l4 13
l6 24l2 15l4 26l4 29l4 31l3 14l4 16l10 29v29l6 43l2 12z" />
    <glyph glyph-name="Ntilde" unicode="&#xd1;" horiz-adv-x="1103" 
d="M893 1507l-21 6l-20 5l-41 20l-18 12l-5 9l-18 16l-6 6l-12 16l-23 19l-4 4l-14 12l-13 8l-18 7l-21 -5l-14 -6l-18 -22l-9 -10l-4 -23l-6 -6v-14l-16 -17l-43 6h-60l-22 11l-2 22l-2 19l8 49l4 12l17 37l14 18l4 6l14 17l21 20l16 11l6 6l21 10l10 6l8 6l25 4l18 4h37
l21 -6l18 -4l27 -8l16 -10l16 -13l9 -8l14 -10l24 -25l23 -24l10 -6l13 -15l10 -6l18 -6l19 6l14 10l14 13l13 41l6 6l4 16l14 6l68 4l45 -4l16 -8l4 -18l-2 -15l-2 -26l-8 -29l-2 -10l-10 -23l-8 -14l-15 -23l-2 -4l-16 -18l-27 -27l-14 -8l-10 -6l-11 -8l-12 -4l-16 -8
l-41 -9h-33zM104 -4l-30 4l-11 25l5 16v33l4 32l8 29l2 15l6 28l4 10l6 29l4 19l7 32v15l4 16v27l8 14l2 25l2 14l6 24l2 13l-2 14l4 27l8 32l4 25l5 18l6 23l4 25l2 14l4 12l2 27l2 12v12l10 25l2 12l2 15l2 28l2 21l11 24l4 17l4 20v29l2 16l6 17v16l6 14v15l4 14l4 27
l7 22l6 19v24l2 15l4 12l10 57v14l8 19l4 18l2 27l2 14l3 13l2 14l4 12l2 15l4 26l4 25l6 26v17l6 26l4 13l6 10l13 22l20 5l29 2l35 -2h18l27 2l39 -2l24 2l31 -2h29l22 -7l12 -18l2 -14l9 -21l4 -24l2 -23l8 -29l8 -49l6 -33l7 -34l6 -29l8 -41l4 -16l2 -15l4 -30l6 -27
v-12l6 -23v-14l2 -23l7 -30l4 -35l6 -35l2 -33l4 -29l4 -16l6 -55l8 -47l4 -45v-15l5 -14l4 -25l6 -55l6 -45h6l2 41l4 49v29l6 98l7 43v70l6 28l2 13l2 14l2 16l2 29l4 12l4 29v12l8 27v25l2 24v14l13 25l-2 14l6 37v13l6 26l2 15l4 12l4 28l2 17l6 29l4 14l6 16v19l3 12
l6 33l8 43l16 28l8 7l39 8l43 -4l15 2h20l47 -2h21l28 2l29 -6l12 -7l2 -16v-16l-6 -29l2 -16l-6 -45l-4 -29l-12 -49l-6 -23l-6 -37l-5 -16l-6 -43l-8 -33l-4 -33l-6 -18l-4 -16l-4 -15v-26l-4 -15l-9 -61l-6 -19l-2 -22l-2 -14l-4 -17l-6 -26l-4 -15l-6 -26l-4 -29l-5 -16
l3 -19l-5 -12l-2 -15l-4 -12l-2 -14l-2 -12v-27l-6 -12l-6 -29l-4 -18l-2 -19l-2 -12l-2 -15l-2 -12v-12l-9 -29l-4 -28l-4 -21l-8 -18l-8 -25l-2 -22l-2 -27l-4 -27l-6 -16l-9 -29v-33l-10 -26v-12l-4 -15l-6 -26l-10 -66l-19 -25l-20 -14l-29 -2l-23 -4h-8l-39 2l-14 -2
l-20 2l-13 -2h-41l-26 2h-35l-17 14l-16 33l-10 29l-2 10l-2 25l-2 12l-4 43l-2 12l-9 43l-2 13l-4 28l-2 31l-6 22l-6 31v12l-6 29l-2 12l-6 29l-2 12v31l-9 41l-4 39l-8 57l-10 66l-6 57l-13 74l-12 78h-6l-2 -58l-2 -41l-2 -22l-4 -35l-2 -51l-15 -98l-8 -80l-4 -13
l-6 -26l4 -15l-6 -24l-4 -14l2 -15l-2 -12l-4 -29l-9 -30l-8 -41l-4 -29l-2 -12l-4 -15l-8 -59l-6 -27l-2 -14v-27l-4 -12l-7 -37l-8 -24l-6 -21l-22 -8h-218z" />
    <glyph glyph-name="Ograve" unicode="&#xd2;" horiz-adv-x="993" 
d="M700 1526l-18 6l-16 4l-11 8l-14 17l-18 14l-15 16l-20 23l-10 10l-25 27l-29 24l-14 15l-12 16l-15 16l-22 23l-12 14l-11 19l-4 8l4 16l11 4l22 4l27 2h155l15 -8l6 -6l18 -16l23 -33l8 -14l14 -15l19 -24l10 -8l10 -21l15 -16l8 -19l22 -20l10 -21l9 -10l6 -16l20 -17
l-2 -14l-45 -6l-24 -2h-95zM496 -33l-54 6l-26 -2l-15 2l-18 2l-47 15l-17 2l-30 8l-15 8l-28 19l-37 30l-29 33l-6 10l-10 11l-6 12l-11 14l-16 27v12l-6 14l-2 13l-4 10l-4 12l-2 15l-4 12l-3 29l-2 12l-6 41l4 14v39l7 21l-3 16v14l5 45l8 29v16l4 29v14l8 29l-4 10l4 27
l4 14l6 37l6 25v26l7 25v14l6 13l4 14v12l4 14l-2 13l12 20l4 15v28l4 25l7 14l2 12l4 29l8 51l10 15l4 26l12 27l7 14l8 25l10 29l12 24l9 14l18 27l2 14l8 13l17 26l16 25l14 10l11 12l28 31l27 19l16 6l15 10l24 14l25 13l30 8l13 2l30 8l21 2l37 6l28 2l25 2l37 -2
l12 -2l23 -2l32 -4l17 -6l16 -2l13 -4l30 -15l37 -24l17 -10l10 -13l22 -18l23 -21l10 -12l6 -14l12 -27l7 -12l4 -12l4 -15l6 -30l4 -39l2 -17v-14l-2 -27l-2 -12l2 -27v-14l-2 -27l-4 -14l-2 -12l2 -15v-20l-2 -12l-4 -29l-2 -31l-2 -33l-4 -14l-5 -33l3 -20l-11 -23
l2 -24l-8 -27l-4 -26l-6 -27l-2 -25l-6 -26l-6 -13l-7 -36v-19l-4 -14l-4 -29l-6 -12l-20 -72l2 -12l-11 -25l-6 -12l-2 -23l-10 -22l-6 -25v-14l-6 -22l-11 -15l-2 -20l-14 -29l-16 -37l-11 -14l-18 -27l-8 -12l-10 -12l-5 -13l-24 -24l-12 -10l-11 -13l-24 -18l-25 -17
l-8 -6l-47 -18l-14 -2l-17 -4l-28 -6l-15 -2l-22 -7zM479 246h27l29 8l18 8l29 21l14 28l12 29l4 14v17l6 30l5 15l4 28l6 17l2 28l6 15l6 26l2 17l6 12v16l-2 7l6 18l7 31l4 47l6 18l6 17l4 39l6 12l-2 35l8 30l4 25l5 16l4 15l-2 14l2 27l4 16l6 29l4 18v27l4 37l2 26
l4 29l-8 41l-8 12l-14 19l-33 14l-39 -2l-17 -4l-32 -12l-21 -19l-14 -22l-8 -25l-9 -14l-12 -27l-4 -14l-4 -17l-12 -43v-4l-2 -16l-6 -29l-3 -12l-8 -29l-6 -28l-6 -33l-2 -15l-4 -14l-4 -31l-6 -16l-9 -33l-4 -14l-4 -29v-14l-2 -14l2 -17l-6 -14l-10 -29l2 -16l-4 -15
l2 -8l-4 -18v-17l-4 -14v-16l-6 -31v-14l-7 -15l7 -14l-3 -25l-8 -20l6 -14v-58l7 -14l4 -8l12 -19l10 -10l17 -6l16 -4z" />
    <glyph glyph-name="Oacute" unicode="&#xd3;" horiz-adv-x="993" 
d="M573 1528l-20 2l-33 4l-18 2l6 16l14 15l17 18l8 10l12 19l21 20l18 21l12 14l15 14l12 11l16 16l15 19l12 12l33 45l18 14l6 4l21 8h203l20 -6l10 -4l4 -14l-8 -10l-12 -21l-14 -14l-27 -23l-16 -14l-15 -14l-20 -15l-27 -26l-27 -25l-16 -12l-27 -21l-32 -32l-27 -15
l-8 -10l-23 -8h-39l-57 2zM496 -33l-54 6l-26 -2l-15 2l-18 2l-47 15l-17 2l-30 8l-15 8l-28 19l-37 30l-29 33l-6 10l-10 11l-6 12l-11 14l-16 27v12l-6 14l-2 13l-4 10l-4 12l-2 15l-4 12l-3 29l-2 12l-6 41l4 14v39l7 21l-3 16v14l5 45l8 29v16l4 29v14l8 29l-4 10l4 27
l4 14l6 37l6 25v26l7 25v14l6 13l4 14v12l4 14l-2 13l12 20l4 15v28l4 25l7 14l2 12l4 29l8 51l10 15l4 26l12 27l7 14l8 25l10 29l12 24l9 14l18 27l2 14l8 13l17 26l16 25l14 10l11 12l28 31l27 19l16 6l15 10l24 14l25 13l30 8l13 2l30 8l21 2l37 6l28 2l25 2l37 -2
l12 -2l23 -2l32 -4l17 -6l16 -2l13 -4l30 -15l37 -24l17 -10l10 -13l22 -18l23 -21l10 -12l6 -14l12 -27l7 -12l4 -12l4 -15l6 -30l4 -39l2 -17v-14l-2 -27l-2 -12l2 -27v-14l-2 -27l-4 -14l-2 -12l2 -15v-20l-2 -12l-4 -29l-2 -31l-2 -33l-4 -14l-5 -33l3 -20l-11 -23
l2 -24l-8 -27l-4 -26l-6 -27l-2 -25l-6 -26l-6 -13l-7 -36v-19l-4 -14l-4 -29l-6 -12l-20 -72l2 -12l-11 -25l-6 -12l-2 -23l-10 -22l-6 -25v-14l-6 -22l-11 -15l-2 -20l-14 -29l-16 -37l-11 -14l-18 -27l-8 -12l-10 -12l-5 -13l-24 -24l-12 -10l-11 -13l-24 -18l-25 -17
l-8 -6l-47 -18l-14 -2l-17 -4l-28 -6l-15 -2l-22 -7zM479 246h27l29 8l18 8l29 21l14 28l12 29l4 14v17l6 30l5 15l4 28l6 17l2 28l6 15l6 26l2 17l6 12v16l-2 7l6 18l7 31l4 47l6 18l6 17l4 39l6 12l-2 35l8 30l4 25l5 16l4 15l-2 14l2 27l4 16l6 29l4 18v27l4 37l2 26
l4 29l-8 41l-8 12l-14 19l-33 14l-39 -2l-17 -4l-32 -12l-21 -19l-14 -22l-8 -25l-9 -14l-12 -27l-4 -14l-4 -17l-12 -43v-4l-2 -16l-6 -29l-3 -12l-8 -29l-6 -28l-6 -33l-2 -15l-4 -14l-4 -31l-6 -16l-9 -33l-4 -14l-4 -29v-14l-2 -14l2 -17l-6 -14l-10 -29l2 -16l-4 -15
l2 -8l-4 -18v-17l-4 -14v-16l-6 -31v-14l-7 -15l7 -14l-3 -25l-8 -20l6 -14v-58l7 -14l4 -8l12 -19l10 -10l17 -6l16 -4z" />
    <glyph glyph-name="Ocircumflex" unicode="&#xd4;" horiz-adv-x="993" 
d="M440 1528l-32 2l-19 4l6 16l15 15l16 18l8 10l12 19l21 20l16 21l11 14l14 14l12 11l23 22l14 19l12 12l29 39l18 14l19 12l27 2h155l4 -2l10 -6l7 -6l18 -16l23 -33l8 -14l14 -15l10 -18l11 -14l10 -21l14 -16l6 -19l23 -20l10 -21l8 -10l6 -16l21 -17v-16h-16l-31 -4
l-25 -2h-84l-22 2l-13 8l-10 8l-14 17l-19 14l-14 16l-20 23l-11 14l-18 21l-18 -21l-17 -16l-26 -21l-33 -32l-27 -15l-8 -10l-21 -8h-34l-52 2l-26 -2zM1026 1178l2 -17v-14l-2 -27l-2 -12l2 -27v-14l-2 -27l-4 -14l-2 -12l2 -15v-20l-2 -12l-4 -29l-2 -31l-2 -33l-4 -14
l-5 -33l3 -20l-11 -23l2 -24l-8 -27l-4 -26l-6 -27l-2 -25l-6 -26l-6 -13l-7 -36v-19l-4 -14l-4 -29l-6 -12l-20 -72l2 -12l-11 -25l-6 -12l-2 -23l-10 -22l-6 -25v-14l-6 -22l-11 -15l-2 -20l-14 -29l-16 -37l-11 -14l-18 -27l-8 -12l-10 -12l-5 -13l-24 -24l-12 -10
l-11 -13l-24 -18l-25 -17l-8 -6l-47 -18l-14 -2l-17 -4l-28 -6l-15 -2l-22 -7l-45 -6l-54 6l-26 -2l-15 2l-18 2l-47 15l-17 2l-30 8l-15 8l-28 19l-37 30l-29 33l-6 10l-10 11l-6 12l-11 14l-16 27v12l-6 14l-2 13l-4 10l-4 12l-2 15l-4 12l-3 29l-2 12l-6 41l4 14v39l7 21
l-3 16v14l5 45l8 29v16l4 29v14l8 29l-4 10l4 27l4 14l6 37l6 25v26l7 25v14l6 13l4 14v12l4 14l-2 13l12 20l4 15v28l4 25l7 14l2 12l4 29l8 51l10 15l4 26l12 27l7 14l8 25l10 29l12 24l9 14l18 27l2 14l8 13l17 26l16 25l14 10l11 12l28 31l27 19l16 6l15 10l24 14l25 13
l30 8l13 2l30 8l21 2l37 6l28 2l25 2l37 -2l12 -2l23 -2l32 -4l17 -6l16 -2l13 -4l30 -15l37 -24l17 -10l10 -13l22 -18l23 -21l10 -12l6 -14l12 -27l7 -12l4 -12l4 -15l6 -30zM735 1108l-8 41l-8 12l-14 19l-33 14l-39 -2l-17 -4l-32 -12l-21 -19l-14 -22l-8 -25l-9 -14
l-12 -27l-4 -14l-4 -17l-12 -43v-4l-2 -16l-6 -29l-3 -12l-8 -29l-6 -28l-6 -33l-2 -15l-4 -14l-4 -31l-6 -16l-9 -33l-4 -14l-4 -29v-14l-2 -14l2 -17l-6 -14l-10 -29l2 -16l-4 -15l2 -8l-4 -18v-17l-4 -14v-16l-6 -31v-14l-7 -15l7 -14l-3 -25l-8 -20l6 -14v-58l7 -14
l4 -8l12 -19l10 -10l17 -6l16 -4l12 -2h27l29 8l18 8l29 21l14 28l12 29l4 14v17l6 30l5 15l4 28l6 17l2 28l6 15l6 26l2 17l6 12v16l-2 7l6 18l7 31l4 47l6 18l6 17l4 39l6 12l-2 35l8 30l4 25l5 16l4 15l-2 14l2 27l4 16l6 29l4 18v27l4 37l2 26z" />
    <glyph glyph-name="Otilde" unicode="&#xd5;" horiz-adv-x="993" 
d="M825 1507l-20 6l-21 5l-41 20l-18 12l-4 9l-19 16l-6 6l-12 16l-22 19l-5 4l-14 12l-12 8l-19 7l-20 -5l-14 -6l-19 -22l-8 -10l-4 -23l-6 -6v-14l-17 -17l-43 6h-59l-23 11l-2 22l-2 19l8 49l5 12l16 37l14 18l4 6l15 17l20 20l17 11l6 6l20 10l10 6l9 6l24 4l19 4h36
l21 -6l18 -4l27 -8l16 -10l17 -13l8 -8l14 -10l25 -25l22 -24l11 -6l12 -15l10 -6l19 -6l18 6l14 10l15 13l12 41l6 6l4 16l15 6l67 4l45 -4l17 -8l4 -18l-2 -15l-2 -26l-9 -29l-2 -10l-10 -23l-8 -14l-14 -23l-2 -4l-17 -18l-26 -27l-15 -8l-10 -6l-10 -8l-13 -4l-16 -8
l-41 -9h-33zM496 -33l-54 6l-26 -2l-15 2l-18 2l-47 15l-17 2l-30 8l-15 8l-28 19l-37 30l-29 33l-6 10l-10 11l-6 12l-11 14l-16 27v12l-6 14l-2 13l-4 10l-4 12l-2 15l-4 12l-3 29l-2 12l-6 41l4 14v39l7 21l-3 16v14l5 45l8 29v16l4 29v14l8 29l-4 10l4 27l4 14l6 37
l6 25v26l7 25v14l6 13l4 14v12l4 14l-2 13l12 20l4 15v28l4 25l7 14l2 12l4 29l8 51l10 15l4 26l12 27l7 14l8 25l10 29l12 24l9 14l18 27l2 14l8 13l17 26l16 25l14 10l11 12l28 31l27 19l16 6l15 10l24 14l25 13l30 8l13 2l30 8l21 2l37 6l28 2l25 2l37 -2l12 -2l23 -2
l32 -4l17 -6l16 -2l13 -4l30 -15l37 -24l17 -10l10 -13l22 -18l23 -21l10 -12l6 -14l12 -27l7 -12l4 -12l4 -15l6 -30l4 -39l2 -17v-14l-2 -27l-2 -12l2 -27v-14l-2 -27l-4 -14l-2 -12l2 -15v-20l-2 -12l-4 -29l-2 -31l-2 -33l-4 -14l-5 -33l3 -20l-11 -23l2 -24l-8 -27
l-4 -26l-6 -27l-2 -25l-6 -26l-6 -13l-7 -36v-19l-4 -14l-4 -29l-6 -12l-20 -72l2 -12l-11 -25l-6 -12l-2 -23l-10 -22l-6 -25v-14l-6 -22l-11 -15l-2 -20l-14 -29l-16 -37l-11 -14l-18 -27l-8 -12l-10 -12l-5 -13l-24 -24l-12 -10l-11 -13l-24 -18l-25 -17l-8 -6l-47 -18
l-14 -2l-17 -4l-28 -6l-15 -2l-22 -7zM479 246h27l29 8l18 8l29 21l14 28l12 29l4 14v17l6 30l5 15l4 28l6 17l2 28l6 15l6 26l2 17l6 12v16l-2 7l6 18l7 31l4 47l6 18l6 17l4 39l6 12l-2 35l8 30l4 25l5 16l4 15l-2 14l2 27l4 16l6 29l4 18v27l4 37l2 26l4 29l-8 41l-8 12
l-14 19l-33 14l-39 -2l-17 -4l-32 -12l-21 -19l-14 -22l-8 -25l-9 -14l-12 -27l-4 -14l-4 -17l-12 -43v-4l-2 -16l-6 -29l-3 -12l-8 -29l-6 -28l-6 -33l-2 -15l-4 -14l-4 -31l-6 -16l-9 -33l-4 -14l-4 -29v-14l-2 -14l2 -17l-6 -14l-10 -29l2 -16l-4 -15l2 -8l-4 -18v-17
l-4 -14v-16l-6 -31v-14l-7 -15l7 -14l-3 -25l-8 -20l6 -14v-58l7 -14l4 -8l12 -19l10 -10l17 -6l16 -4z" />
    <glyph glyph-name="Odieresis" unicode="&#xd6;" horiz-adv-x="993" 
d="M541 1548l-35 4h-41l-23 2l-8 2l-2 19v45l-2 12l4 19l10 22l9 58v30l8 11l14 2l10 4l27 -4h139l15 -11l8 -10l2 -24l-8 -15l4 -14v-2l-4 -25l-11 -28l5 -25l-7 -16l2 -17l-16 -33l-23 -6h-77zM879 1548l-27 4h-51l-13 2l-18 2v19l-4 22v7l4 16l-4 12l14 19v22l6 58l11 30
v11l10 2l16 4l31 -4h135l10 -11l21 -10l2 -24l-12 -15v-14l-4 -2l-5 -25l-4 -28l2 -25v-33l-10 -12l-12 -21l-27 -6h-71zM496 -33l-54 6l-26 -2l-15 2l-18 2l-47 15l-17 2l-30 8l-15 8l-28 19l-37 30l-29 33l-6 10l-10 11l-6 12l-11 14l-16 27v12l-6 14l-2 13l-4 10l-4 12
l-2 15l-4 12l-3 29l-2 12l-6 41l4 14v39l7 21l-3 16v14l5 45l8 29v16l4 29v14l8 29l-4 10l4 27l4 14l6 37l6 25v26l7 25v14l6 13l4 14v12l4 14l-2 13l12 20l4 15v28l4 25l7 14l2 12l4 29l8 51l10 15l4 26l12 27l7 14l8 25l10 29l12 24l9 14l18 27l2 14l8 13l17 26l16 25
l14 10l11 12l28 31l27 19l16 6l15 10l24 14l25 13l30 8l13 2l30 8l21 2l37 6l28 2l25 2l37 -2l12 -2l23 -2l32 -4l17 -6l16 -2l13 -4l30 -15l37 -24l17 -10l10 -13l22 -18l23 -21l10 -12l6 -14l12 -27l7 -12l4 -12l4 -15l6 -30l4 -39l2 -17v-14l-2 -27l-2 -12l2 -27v-14
l-2 -27l-4 -14l-2 -12l2 -15v-20l-2 -12l-4 -29l-2 -31l-2 -33l-4 -14l-5 -33l3 -20l-11 -23l2 -24l-8 -27l-4 -26l-6 -27l-2 -25l-6 -26l-6 -13l-7 -36v-19l-4 -14l-4 -29l-6 -12l-20 -72l2 -12l-11 -25l-6 -12l-2 -23l-10 -22l-6 -25v-14l-6 -22l-11 -15l-2 -20l-14 -29
l-16 -37l-11 -14l-18 -27l-8 -12l-10 -12l-5 -13l-24 -24l-12 -10l-11 -13l-24 -18l-25 -17l-8 -6l-47 -18l-14 -2l-17 -4l-28 -6l-15 -2l-22 -7zM479 246h27l29 8l18 8l29 21l14 28l12 29l4 14v17l6 30l5 15l4 28l6 17l2 28l6 15l6 26l2 17l6 12v16l-2 7l6 18l7 31l4 47
l6 18l6 17l4 39l6 12l-2 35l8 30l4 25l5 16l4 15l-2 14l2 27l4 16l6 29l4 18v27l4 37l2 26l4 29l-8 41l-8 12l-14 19l-33 14l-39 -2l-17 -4l-32 -12l-21 -19l-14 -22l-8 -25l-9 -14l-12 -27l-4 -14l-4 -17l-12 -43v-4l-2 -16l-6 -29l-3 -12l-8 -29l-6 -28l-6 -33l-2 -15
l-4 -14l-4 -31l-6 -16l-9 -33l-4 -14l-4 -29v-14l-2 -14l2 -17l-6 -14l-10 -29l2 -16l-4 -15l2 -8l-4 -18v-17l-4 -14v-16l-6 -31v-14l-7 -15l7 -14l-3 -25l-8 -20l6 -14v-58l7 -14l4 -8l12 -19l10 -10l17 -6l16 -4z" />
    <glyph glyph-name="multiply" unicode="&#xd7;" horiz-adv-x="843" 
d="M887 930l6 -23l-4 -18l-45 -39l-74 -55l-22 -23l-125 -92l14 -21l14 -22l11 -10l28 -47l19 -23l26 -43l19 -22l6 -11l4 -16l6 -10l-4 -15l-29 -28l-10 -9l-22 -12l-13 -12l-16 -10l-10 -7l-13 -12l-35 -18l-18 8l-12 10l-51 78l-23 29l-31 47l-34 47l-70 -59l-27 -21
l-14 -16l-51 -45l-25 -17l-12 -10l-27 -21l-12 -12l-18 -6l-15 -10l-14 -2l-21 24l-8 9l-12 18l-27 27l-16 18l-6 10v11l-13 8l-10 26l17 23l14 16l63 56l21 16l59 43l107 84l-37 51l-19 21l-16 24l-16 17l-35 49l-14 16l-7 10l-6 19l-8 10l12 27l11 12l28 18l15 11l12 8
l6 8l12 12l23 8l37 19l18 -2l27 -35l31 -43l14 -16l80 -113l6 4l24 23l9 10l26 12l25 21l24 24l48 37l61 41l14 10l23 15l16 10l23 -6l10 -11l20 -28l13 -19l6 -6l4 -16l8 -6l10 -13z" />
    <glyph glyph-name="Oslash" unicode="&#xd8;" horiz-adv-x="1038" 
d="M1227 1434l2 -15l-15 -18l-12 -19l-26 -36l-9 -13l-18 -20l-8 -13l-15 -22l-8 -12l-16 -23l-21 -20l-16 -25l-8 -8l-8 -10v-2l2 -17v-14l-2 -27l-2 -12l2 -27v-14l-2 -27l-5 -14l-2 -12l2 -15v-20l-2 -12l-4 -29l-2 -31l-2 -33l-4 -14l-4 -33l2 -20l-10 -23l2 -24l-8 -27
l-4 -26l-7 -27l-2 -25l-6 -26l-6 -13l-6 -36v-19l-4 -14l-4 -29l-6 -12l-21 -72l2 -12l-10 -25l-6 -12l-2 -23l-10 -22l-7 -25v-14l-6 -22l-10 -15l-2 -20l-14 -29l-17 -37l-10 -14l-18 -27l-9 -12l-10 -12l-4 -13l-25 -24l-12 -10l-10 -13l-25 -18l-24 -17l-8 -6l-48 -18
l-14 -2l-16 -4l-29 -6l-14 -2l-23 -7l-45 -6l-53 6l-27 -2l-14 2l-18 2l-48 15l-16 2l-31 8l-14 8l-29 19l-37 30l-20 23l-25 -29l-8 -14l-18 -25l-13 -12l-22 -2l-39 -2l-35 2h-67l-13 8l66 86l35 45l26 39l8 10l19 25l12 20l-2 9l-4 12l-2 29l-2 12l-6 41l4 14v39l6 21
l-2 16v14l4 45l8 29v16l4 29v14l9 29l-4 10l4 27l4 14l6 37l6 25v26l6 25v14l6 13l4 14v12l4 14l-2 13l13 20l4 15v28l4 25l6 14l2 12l4 29l8 51l11 15l4 26l12 27l6 14l8 25l11 29l12 24l8 14l18 27l3 14l8 13l16 26l16 25l15 10l10 12l29 31l26 19l17 6l14 10l25 14l24 13
l31 8l12 2l31 8l20 2l37 6l29 2l25 2l36 -2l13 -2l22 -2l33 -4l16 -6l17 -2l12 -4l31 -15l37 -24l16 -10l10 -13l23 -18l12 -12l2 2l10 12l21 22l6 13l10 14l6 10l11 9l12 6l31 -2l32 2l21 -4l16 2h64zM459 678l-2 -14v-9l2 2l18 25l10 14l33 45l19 23l10 12l18 23l8 10
l9 12l10 10l31 43l18 25l16 25l13 12l18 25l15 24l20 21l6 10l17 24l4 4v9l2 26l4 29l-8 41l-9 12l-14 19l-33 14l-39 -2l-16 -4l-33 -12l-20 -19l-15 -22l-8 -25l-8 -14l-12 -27l-4 -14l-4 -17l-13 -43v-4l-2 -16l-6 -29l-2 -12l-8 -29l-6 -28l-6 -33l-3 -15l-4 -14l-4 -31
l-6 -16l-8 -33l-4 -14l-4 -29v-14zM698 696l7 17l2 18l-7 -8l-8 -12l-16 -23l-12 -18l-15 -17l-8 -12l-2 -2l-4 -6l-21 -27l-8 -14l-6 -6l-10 -13l-17 -22l-18 -21l-16 -24l-9 -8l-18 -25l-16 -16l-66 -88l-6 -11v-49l6 -14l4 -8l12 -19l11 -10l16 -6l16 -4l13 -2h26l29 8
l18 8l29 21l14 28l13 29l4 14v17l6 30l4 15l4 28l6 17l2 28l7 15l6 26l2 17l6 12v16l-2 7l6 18l6 31l4 47z" />
    <glyph glyph-name="Ugrave" unicode="&#xd9;" horiz-adv-x="1040" 
d="M731 1526l-18 6l-17 4l-10 8l-14 17l-19 14l-14 16l-21 23l-10 10l-24 27l-29 24l-14 15l-13 16l-14 16l-22 23l-13 14l-10 19l-4 8l4 16l10 4l23 4l26 2h156l14 -8l7 -6l18 -16l22 -33l9 -14l14 -15l18 -24l11 -8l10 -21l14 -16l8 -19l23 -20l10 -21l8 -10l7 -16l20 -17
l-2 -14l-45 -6l-25 -2h-94zM444 -12l-84 10l-14 4l-8 4l-35 12l-14 7l-13 6l-40 24l-21 21l-12 14l-10 12l-11 17l-2 6l-16 33l-17 28l-8 33l-2 29l-8 69l2 13l2 69l4 19l8 55l2 27l3 30l4 25l4 20v27l8 25l2 14l2 12l6 25l-2 14l2 15l6 24l4 14v27l9 27l2 28l6 27l8 29v16
l2 29l6 12l6 57l4 13l4 26v15l3 12l10 27l2 14l2 16l6 29l2 16v17l6 28v15l4 12l6 57l11 27l4 10l4 21l4 28l8 29l4 16l13 5l34 2h11l18 2l86 -2l49 4l19 -2l32 -2l19 -15l2 -31v-28l-4 -12l-4 -15l2 -28l-4 -15l-4 -18l-5 -17l-2 -14l-4 -12v-15l-8 -24l-4 -27l-2 -16v-21
l-2 -14l-10 -29l-2 -16l-7 -31l-4 -30l-2 -13l-6 -14l-2 -21l-2 -14l-4 -16v-15l-10 -28l-2 -13l4 -26l-8 -19l-2 -18l-2 -16l-5 -15l-4 -12l-6 -25v-26l-8 -27l-4 -24l-10 -74l-6 -41l-3 -29l-6 -26l-6 -50l-2 -18l-2 -12l-2 -15l2 -32v-23l2 -25l23 -26l22 -6l43 -6l47 6
l21 16l12 16l6 13l15 32l10 21l4 18l4 13l10 41l6 28l4 15l3 20l4 12l4 19l2 18l4 15l4 16l2 14l4 27l4 20l8 37l2 25l5 14l10 29v16l4 27l6 27l4 24l8 29l2 16l9 29v16l4 29l2 10v29l12 20l-2 23l8 28l2 17l4 29l2 16l6 29l5 28l4 27l-2 14l10 23l2 12l2 25l2 12l6 27l6 28
l6 27l2 16l7 15l61 2h14l15 -2l59 2h14l15 -2h16l14 2l21 -2l14 2l19 2l16 -2l16 -17l3 -31l-13 -28l-2 -31l-4 -16l-4 -29l-2 -16l-8 -29l-2 -14l-4 -17l-2 -14l-9 -27l2 -12l-8 -25v-12l-6 -22l-4 -19l-6 -18l-4 -19l-6 -24v-15l-4 -14l-3 -12l-4 -15l2 -14l-14 -45
l-6 -31v-12l-6 -29l-2 -12l-4 -29l-2 -28l-9 -29v-14l-4 -29l-8 -16l-2 -27l-4 -25l-6 -26l-8 -29l-2 -14l-7 -29v-4l-8 -24l-6 -27v-12l-4 -15l-6 -22l-4 -19v-14l-4 -12l-4 -15l-9 -24l-8 -27l-6 -35l-10 -12l-6 -27l-15 -26l-8 -12l-12 -29l-8 -14l-11 -15l-8 -18
l-12 -19l-18 -14l-17 -21l-18 -10l-17 -10l-24 -10l-10 -8l-33 -13l-13 -4l-24 -6l-19 -4l-12 -4l-41 -4h-47l-31 -2h-41z" />
    <glyph glyph-name="Uacute" unicode="&#xda;" horiz-adv-x="1040" 
d="M604 1528l-20 2l-33 4l-19 2l7 16l14 15l16 18l9 10l12 19l20 20l19 21l12 14l14 14l13 11l16 16l14 19l13 12l32 45l19 14l6 4l20 8h203l21 -6l10 -4l4 -14l-8 -10l-12 -21l-15 -14l-26 -23l-17 -14l-14 -14l-21 -15l-26 -26l-27 -25l-16 -12l-27 -21l-33 -32l-26 -15
l-8 -10l-23 -8h-39l-57 2zM444 -12l-84 10l-14 4l-8 4l-35 12l-14 7l-13 6l-40 24l-21 21l-12 14l-10 12l-11 17l-2 6l-16 33l-17 28l-8 33l-2 29l-8 69l2 13l2 69l4 19l8 55l2 27l3 30l4 25l4 20v27l8 25l2 14l2 12l6 25l-2 14l2 15l6 24l4 14v27l9 27l2 28l6 27l8 29v16
l2 29l6 12l6 57l4 13l4 26v15l3 12l10 27l2 14l2 16l6 29l2 16v17l6 28v15l4 12l6 57l11 27l4 10l4 21l4 28l8 29l4 16l13 5l34 2h11l18 2l86 -2l49 4l19 -2l32 -2l19 -15l2 -31v-28l-4 -12l-4 -15l2 -28l-4 -15l-4 -18l-5 -17l-2 -14l-4 -12v-15l-8 -24l-4 -27l-2 -16v-21
l-2 -14l-10 -29l-2 -16l-7 -31l-4 -30l-2 -13l-6 -14l-2 -21l-2 -14l-4 -16v-15l-10 -28l-2 -13l4 -26l-8 -19l-2 -18l-2 -16l-5 -15l-4 -12l-6 -25v-26l-8 -27l-4 -24l-10 -74l-6 -41l-3 -29l-6 -26l-6 -50l-2 -18l-2 -12l-2 -15l2 -32v-23l2 -25l23 -26l22 -6l43 -6l47 6
l21 16l12 16l6 13l15 32l10 21l4 18l4 13l10 41l6 28l4 15l3 20l4 12l4 19l2 18l4 15l4 16l2 14l4 27l4 20l8 37l2 25l5 14l10 29v16l4 27l6 27l4 24l8 29l2 16l9 29v16l4 29l2 10v29l12 20l-2 23l8 28l2 17l4 29l2 16l6 29l5 28l4 27l-2 14l10 23l2 12l2 25l2 12l6 27l6 28
l6 27l2 16l7 15l61 2h14l15 -2l59 2h14l15 -2h16l14 2l21 -2l14 2l19 2l16 -2l16 -17l3 -31l-13 -28l-2 -31l-4 -16l-4 -29l-2 -16l-8 -29l-2 -14l-4 -17l-2 -14l-9 -27l2 -12l-8 -25v-12l-6 -22l-4 -19l-6 -18l-4 -19l-6 -24v-15l-4 -14l-3 -12l-4 -15l2 -14l-14 -45
l-6 -31v-12l-6 -29l-2 -12l-4 -29l-2 -28l-9 -29v-14l-4 -29l-8 -16l-2 -27l-4 -25l-6 -26l-8 -29l-2 -14l-7 -29v-4l-8 -24l-6 -27v-12l-4 -15l-6 -22l-4 -19v-14l-4 -12l-4 -15l-9 -24l-8 -27l-6 -35l-10 -12l-6 -27l-15 -26l-8 -12l-12 -29l-8 -14l-11 -15l-8 -18
l-12 -19l-18 -14l-17 -21l-18 -10l-17 -10l-24 -10l-10 -8l-33 -13l-13 -4l-24 -6l-19 -4l-12 -4l-41 -4h-47l-31 -2h-41z" />
    <glyph glyph-name="Ucircumflex" unicode="&#xdb;" horiz-adv-x="1040" 
d="M471 1528l-33 2l-18 4l6 16l14 15l17 18l8 10l12 19l21 20l16 21l10 14l15 14l12 11l22 22l15 19l12 12l29 39l18 14l19 12l26 2h156l4 -2l10 -6l6 -6l19 -16l22 -33l9 -14l14 -15l10 -18l10 -14l11 -21l14 -16l6 -19l23 -20l10 -21l8 -10l6 -16l21 -17v-16h-17l-30 -4
l-25 -2h-84l-23 2l-12 8l-10 8l-14 17l-19 14l-14 16l-21 23l-10 14l-18 21l-19 -21l-16 -16l-27 -21l-33 -32l-26 -15l-8 -10l-21 -8h-35l-51 2l-26 -2zM1130 1417l3 -31l-13 -28l-2 -31l-4 -16l-4 -29l-2 -16l-8 -29l-2 -14l-4 -17l-2 -14l-9 -27l2 -12l-8 -25v-12l-6 -22
l-4 -19l-6 -18l-4 -19l-6 -24v-15l-4 -14l-3 -12l-4 -15l2 -14l-14 -45l-6 -31v-12l-6 -29l-2 -12l-4 -29l-2 -28l-9 -29v-14l-4 -29l-8 -16l-2 -27l-4 -25l-6 -26l-8 -29l-2 -14l-7 -29v-4l-8 -24l-6 -27v-12l-4 -15l-6 -22l-4 -19v-14l-4 -12l-4 -15l-9 -24l-8 -27l-6 -35
l-10 -12l-6 -27l-15 -26l-8 -12l-12 -29l-8 -14l-11 -15l-8 -18l-12 -19l-18 -14l-17 -21l-18 -10l-17 -10l-24 -10l-10 -8l-33 -13l-13 -4l-24 -6l-19 -4l-12 -4l-41 -4h-47l-31 -2h-41l-84 10l-14 4l-8 4l-35 12l-14 7l-13 6l-40 24l-21 21l-12 14l-10 12l-11 17l-2 6
l-16 33l-17 28l-8 33l-2 29l-8 69l2 13l2 69l4 19l8 55l2 27l3 30l4 25l4 20v27l8 25l2 14l2 12l6 25l-2 14l2 15l6 24l4 14v27l9 27l2 28l6 27l8 29v16l2 29l6 12l6 57l4 13l4 26v15l3 12l10 27l2 14l2 16l6 29l2 16v17l6 28v15l4 12l6 57l11 27l4 10l4 21l4 28l8 29l4 16
l13 5l34 2h11l18 2l86 -2l49 4l19 -2l32 -2l19 -15l2 -31v-28l-4 -12l-4 -15l2 -28l-4 -15l-4 -18l-5 -17l-2 -14l-4 -12v-15l-8 -24l-4 -27l-2 -16v-21l-2 -14l-10 -29l-2 -16l-7 -31l-4 -30l-2 -13l-6 -14l-2 -21l-2 -14l-4 -16v-15l-10 -28l-2 -13l4 -26l-8 -19l-2 -18
l-2 -16l-5 -15l-4 -12l-6 -25v-26l-8 -27l-4 -24l-10 -74l-6 -41l-3 -29l-6 -26l-6 -50l-2 -18l-2 -12l-2 -15l2 -32v-23l2 -25l23 -26l22 -6l43 -6l47 6l21 16l12 16l6 13l15 32l10 21l4 18l4 13l10 41l6 28l4 15l3 20l4 12l4 19l2 18l4 15l4 16l2 14l4 27l4 20l8 37l2 25
l5 14l10 29v16l4 27l6 27l4 24l8 29l2 16l9 29v16l4 29l2 10v29l12 20l-2 23l8 28l2 17l4 29l2 16l6 29l5 28l4 27l-2 14l10 23l2 12l2 25l2 12l6 27l6 28l6 27l2 16l7 15l61 2h14l15 -2l59 2h14l15 -2h16l14 2l21 -2l14 2l19 2l16 -2z" />
    <glyph glyph-name="Udieresis" unicode="&#xdc;" horiz-adv-x="1040" 
d="M571 1548l-34 4h-41l-23 2l-8 2l-2 19v45l-2 12l4 19l10 22l8 58v30l9 11l14 2l10 4l27 -4h139l14 -11l9 -10l2 -24l-9 -15l4 -14v-2l-4 -25l-10 -28l4 -25l-6 -16l2 -17l-16 -33l-23 -6h-78zM909 1548l-26 4h-52l-12 2l-18 2v19l-4 22v7l4 16l-4 12l14 19v22l6 58l10 30
v11l11 2l16 4l31 -4h135l10 -11l21 -10l2 -24l-13 -15v-14l-4 -2l-4 -25l-4 -28l2 -25v-33l-10 -12l-12 -21l-27 -6h-72zM444 -12l-84 10l-14 4l-8 4l-35 12l-14 7l-13 6l-40 24l-21 21l-12 14l-10 12l-11 17l-2 6l-16 33l-17 28l-8 33l-2 29l-8 69l2 13l2 69l4 19l8 55
l2 27l3 30l4 25l4 20v27l8 25l2 14l2 12l6 25l-2 14l2 15l6 24l4 14v27l9 27l2 28l6 27l8 29v16l2 29l6 12l6 57l4 13l4 26v15l3 12l10 27l2 14l2 16l6 29l2 16v17l6 28v15l4 12l6 57l11 27l4 10l4 21l4 28l8 29l4 16l13 5l34 2h11l18 2l86 -2l49 4l19 -2l32 -2l19 -15
l2 -31v-28l-4 -12l-4 -15l2 -28l-4 -15l-4 -18l-5 -17l-2 -14l-4 -12v-15l-8 -24l-4 -27l-2 -16v-21l-2 -14l-10 -29l-2 -16l-7 -31l-4 -30l-2 -13l-6 -14l-2 -21l-2 -14l-4 -16v-15l-10 -28l-2 -13l4 -26l-8 -19l-2 -18l-2 -16l-5 -15l-4 -12l-6 -25v-26l-8 -27l-4 -24
l-10 -74l-6 -41l-3 -29l-6 -26l-6 -50l-2 -18l-2 -12l-2 -15l2 -32v-23l2 -25l23 -26l22 -6l43 -6l47 6l21 16l12 16l6 13l15 32l10 21l4 18l4 13l10 41l6 28l4 15l3 20l4 12l4 19l2 18l4 15l4 16l2 14l4 27l4 20l8 37l2 25l5 14l10 29v16l4 27l6 27l4 24l8 29l2 16l9 29v16
l4 29l2 10v29l12 20l-2 23l8 28l2 17l4 29l2 16l6 29l5 28l4 27l-2 14l10 23l2 12l2 25l2 12l6 27l6 28l6 27l2 16l7 15l61 2h14l15 -2l59 2h14l15 -2h16l14 2l21 -2l14 2l19 2l16 -2l16 -17l3 -31l-13 -28l-2 -31l-4 -16l-4 -29l-2 -16l-8 -29l-2 -14l-4 -17l-2 -14l-9 -27
l2 -12l-8 -25v-12l-6 -22l-4 -19l-6 -18l-4 -19l-6 -24v-15l-4 -14l-3 -12l-4 -15l2 -14l-14 -45l-6 -31v-12l-6 -29l-2 -12l-4 -29l-2 -28l-9 -29v-14l-4 -29l-8 -16l-2 -27l-4 -25l-6 -26l-8 -29l-2 -14l-7 -29v-4l-8 -24l-6 -27v-12l-4 -15l-6 -22l-4 -19v-14l-4 -12
l-4 -15l-9 -24l-8 -27l-6 -35l-10 -12l-6 -27l-15 -26l-8 -12l-12 -29l-8 -14l-11 -15l-8 -18l-12 -19l-18 -14l-17 -21l-18 -10l-17 -10l-24 -10l-10 -8l-33 -13l-13 -4l-24 -6l-19 -4l-12 -4l-41 -4h-47l-31 -2h-41z" />
    <glyph glyph-name="Yacute" unicode="&#xdd;" horiz-adv-x="872" 
d="M487 1528l-20 2l-33 4l-18 2l6 16l14 15l17 18l8 10l12 19l21 20l18 21l12 14l15 14l12 11l16 16l15 19l12 12l33 45l18 14l6 4l21 8h202l21 -6l10 -4l4 -14l-8 -10l-12 -21l-15 -14l-26 -23l-17 -14l-14 -14l-20 -15l-27 -26l-27 -25l-16 -12l-27 -21l-32 -32l-27 -15
l-8 -10l-23 -8h-39l-57 2zM283 0l-15 2h-30l-23 12l-2 27l4 25l4 26l-2 12l4 15l2 12l2 14l4 13v22l7 19l10 45l2 22l4 27l6 14l4 31l6 29l6 16v20l7 33l8 27l2 12v14l8 23l2 25l10 34l-2 25l-6 20l-2 19l2 16l-4 15l-4 30l-6 31v16l-6 15l-4 28l2 13l-7 30l-6 37l-2 15
l-6 24l-8 27l-4 26v15l-6 33l-11 30l-2 17l-4 51l-4 16l2 25l-6 14l-4 31v14l-8 29l-8 61l-2 27l-2 12l-5 29l-2 27v20l7 16l10 5l16 2l53 2l29 -2l21 2l14 -2l22 4l56 -2h30l23 -25l6 -20v-48l6 -16v-20l8 -17l5 -57l-2 -12l6 -29l4 -14l8 -21l-2 -20l2 -27l6 -21v-18
l4 -25l8 -53l2 -30l9 -3l6 11l4 12l4 10l12 25l8 14l2 12l17 25l10 25l12 22l21 49l12 27l8 12l2 15l17 26l4 12l4 15l18 41l13 28l10 27l6 12l12 21l21 26l14 9l68 4l30 -4l33 2h54l22 -4l41 2l23 -13v-26l-7 -27l-4 -10l-16 -23l-4 -12l-12 -25l-9 -12l-2 -14l-12 -25
l-8 -10l-8 -25l-17 -22l-4 -14l-8 -13l-4 -12l-19 -39l-12 -12l-12 -29l-17 -24l-2 -13l-8 -12l-4 -12l-20 -35l-11 -27l-6 -14l-4 -12l-14 -25l-4 -10l-11 -13l-2 -12l-20 -26l-8 -13l-8 -14l-13 -27l-12 -20l-16 -37l-17 -25l-12 -26l-12 -12l-6 -11l-7 -12l-14 -25
l-8 -24l-8 -10l-4 -17l-7 -10l-10 -10l-4 -21v-14l-8 -27l-6 -22l-4 -21l-4 -24l-5 -13l2 -12l-6 -27l-6 -28l-8 -31l-8 -29l-2 -14l-6 -20l-4 -15v-12l-5 -29l-6 -30l-4 -15l-8 -30l-6 -29l-6 -37l-11 -43h-73l-17 2l-12 -2h-18l-31 2l-12 -2h-43z" />
    <glyph glyph-name="Thorn" unicode="&#xde;" horiz-adv-x="944" 
d="M287 -6l-15 2l-59 2h-14l-15 2h-16l-14 -2l-21 2l-14 2l-19 -6l-16 2l-16 20l2 41l2 15l4 14l4 12l8 27v12l4 25l2 10l6 21l2 22l2 12l2 15l5 12l4 31l6 43l4 14l4 16l6 43l4 13v14l4 12l7 29v16l6 31l4 33l6 27l2 12l-2 12l6 27l8 28l2 27v12l8 33l5 23v8l2 26l4 13
l4 51l6 16l4 29l6 18l2 25l4 14v17l6 14l3 14v13l2 14l8 33l2 14l2 16l4 23l2 6v17l6 18l2 16l8 39v21l4 30l5 29l8 12v17l4 14l2 12l2 15l4 16l4 19v16l6 25l15 2l26 2h94l37 -2h13l32 -2l15 -2l37 2l12 -11v-39l-6 -12l2 -14l-6 -29v-12l-7 -29l-6 -31l-2 -26v-15l-8 -45
h27l14 -2l31 2h28l31 -4h17l67 -10l31 -6l14 -4l15 -10l14 -7l29 -14l20 -16l6 -11l12 -16l13 -14l6 -17l12 -26l6 -15l9 -22l2 -23l2 -14l6 -22l2 -21l4 -31v-37l-4 -45l2 -14l-4 -33l-6 -28l-7 -15l-2 -16l-6 -14l-4 -25l-6 -29l-6 -16l-10 -29l-15 -39l-10 -22l-31 -55
l-12 -13l-12 -24l-17 -17l-16 -20l-10 -15l-29 -20l-10 -10l-29 -15l-20 -6l-25 -12l-33 -10l-24 -4l-27 -2l-26 -5l-60 -4l-110 7l-7 -19l-4 -31l-4 -16v-27l-4 -10l-2 -26l-4 -13v-14l-6 -12v-15l-2 -12l-4 -29l-4 -10l-5 -27l-6 -18l-55 -6h-14zM496 541h20l35 6l14 6
l35 22l23 21l14 22l8 13l12 24l2 19l9 18l8 35l8 45l-2 53l-2 35l-8 25l-15 12l-22 16l-17 5l-49 4l-49 2l-14 -4l-10 -25l-2 -10l-2 -21l-5 -35l-4 -14l-6 -24l-4 -41l-8 -21l-6 -33l-2 -24l2 -17l-4 -18l-6 -31v-39l4 -18z" />
    <glyph glyph-name="agrave" unicode="&#xe0;" horiz-adv-x="913" 
d="M674 1526l-19 6l-16 4l-10 8l-15 17l-18 14l-14 16l-21 23l-10 10l-25 27l-28 24l-15 15l-12 16l-14 16l-23 23l-12 14l-10 19l-4 8l4 16l10 4l22 4l27 2h156l14 -8l6 -6l19 -16l22 -33l8 -14l15 -15l18 -24l10 -8l11 -21l14 -16l8 -19l23 -20l10 -21l8 -10l6 -16l21 -17
l-2 -14l-45 -6l-25 -2h-94zM166 -4l-31 2l-14 2l-150 2l-18 4l-4 17l4 14l2 12l12 25l17 26l20 62l12 24l11 25l22 49l8 27l17 37l4 12l10 14l10 25l4 12l2 14l7 13l10 26l6 15l14 28l4 15l5 18l10 16l12 25l4 14l12 29l2 12l7 15l6 12l10 29l6 12l17 57l6 17l14 26l10 35
l13 23l6 12l6 27l10 14l6 27l4 10l13 26l6 29l10 14l8 13l17 43l10 26l6 13l12 18l6 20l7 15l18 37l4 14l6 12l4 13l4 14l13 22l8 13l4 10l12 37l15 26l18 37l6 15l6 12l8 23l15 2h20l39 -2l21 2h32l39 2h19l14 -4l19 2h32l11 -5l14 -10l6 -88v-45l4 -12v-37l2 -74v-28
l2 -27l4 -41v-29l2 -30l-2 -15v-45l4 -28v-41l2 -29l-2 -12l2 -27v-12l3 -33l4 -23v-79l2 -25l2 -16v-62l2 -94v-14l2 -31l-2 -31l2 -29l-2 -14l4 -78v-12l2 -27l2 -14v-31l-2 -28l2 -17v-18l2 -45v-43q6 -26 -6 -33h-23l-14 -2l-16 2h-29l-45 -2h-16l-25 2l-14 -2l-21 -2
l-27 2h-30l-8 6l-5 21l-2 36l-2 21l2 20v97l-2 16l-45 2l-32 4l-91 2h-55l-10 -22l-14 -27l-5 -14l-6 -15l-8 -24l-20 -39l-13 -31l-6 -22l-6 -11l-8 -14l-12 -8l-58 2zM504 489h61l13 11l2 28l-2 17l2 16v53l2 15v35l4 16l-2 49l2 78l2 74l-2 47l-17 -6l-8 -27l-10 -33
l-6 -20l-10 -33l-9 -16l-8 -21l-2 -14l-8 -15l-6 -18l-6 -14l-7 -19l-12 -45l-2 -14l-10 -31l-8 -14l-11 -35l-4 -14l-4 -19l-6 -14l14 -12h17l22 -2z" />
    <glyph glyph-name="aacute" unicode="&#xe1;" horiz-adv-x="913" 
d="M547 1528l-21 2l-32 4l-19 2l6 16l15 15l16 18l8 10l12 19l21 20l18 21l13 14l14 14l12 11l17 16l14 19l12 12l33 45l19 14l6 4l20 8h203l20 -6l11 -4l4 -14l-8 -10l-13 -21l-14 -14l-27 -23l-16 -14l-14 -14l-21 -15l-27 -26l-26 -25l-17 -12l-26 -21l-33 -32l-27 -15
l-8 -10l-22 -8h-39l-58 2zM166 -4l-31 2l-14 2l-150 2l-18 4l-4 17l4 14l2 12l12 25l17 26l20 62l12 24l11 25l22 49l8 27l17 37l4 12l10 14l10 25l4 12l2 14l7 13l10 26l6 15l14 28l4 15l5 18l10 16l12 25l4 14l12 29l2 12l7 15l6 12l10 29l6 12l17 57l6 17l14 26l10 35
l13 23l6 12l6 27l10 14l6 27l4 10l13 26l6 29l10 14l8 13l17 43l10 26l6 13l12 18l6 20l7 15l18 37l4 14l6 12l4 13l4 14l13 22l8 13l4 10l12 37l15 26l18 37l6 15l6 12l8 23l15 2h20l39 -2l21 2h32l39 2h19l14 -4l19 2h32l11 -5l14 -10l6 -88v-45l4 -12v-37l2 -74v-28
l2 -27l4 -41v-29l2 -30l-2 -15v-45l4 -28v-41l2 -29l-2 -12l2 -27v-12l3 -33l4 -23v-79l2 -25l2 -16v-62l2 -94v-14l2 -31l-2 -31l2 -29l-2 -14l4 -78v-12l2 -27l2 -14v-31l-2 -28l2 -17v-18l2 -45v-43q6 -26 -6 -33h-23l-14 -2l-16 2h-29l-45 -2h-16l-25 2l-14 -2l-21 -2
l-27 2h-30l-8 6l-5 21l-2 36l-2 21l2 20v97l-2 16l-45 2l-32 4l-91 2h-55l-10 -22l-14 -27l-5 -14l-6 -15l-8 -24l-20 -39l-13 -31l-6 -22l-6 -11l-8 -14l-12 -8l-58 2zM504 489h61l13 11l2 28l-2 17l2 16v53l2 15v35l4 16l-2 49l2 78l2 74l-2 47l-17 -6l-8 -27l-10 -33
l-6 -20l-10 -33l-9 -16l-8 -21l-2 -14l-8 -15l-6 -18l-6 -14l-7 -19l-12 -45l-2 -14l-10 -31l-8 -14l-11 -35l-4 -14l-4 -19l-6 -14l14 -12h17l22 -2z" />
    <glyph glyph-name="acircumflex" unicode="&#xe2;" horiz-adv-x="913" 
d="M973 1565l20 -17v-16h-16l-31 -4l-24 -2h-84l-23 2l-12 8l-10 8l-15 17l-18 14l-15 16l-20 23l-10 14l-19 21l-18 -21l-16 -16l-27 -21l-33 -32l-27 -15l-8 -10l-20 -8h-35l-51 2l-27 -2l-20 2l-33 2l-19 4l7 16l14 15l16 18l9 10l12 19l20 20l17 21l10 14l14 14l13 11
l22 22l14 19l13 12l28 39l19 14l18 12l27 2h156l4 -2l10 -6l6 -6l18 -16l23 -33l8 -14l14 -15l11 -18l10 -14l10 -21l15 -16l6 -19l22 -20l10 -21l9 -10zM854 76v-43q6 -26 -6 -33h-23l-14 -2l-16 2h-29l-45 -2h-16l-25 2l-14 -2l-21 -2l-27 2h-30l-8 6l-5 21l-2 36l-2 21
l2 20v97l-2 16l-45 2l-32 4l-91 2h-55l-10 -22l-14 -27l-5 -14l-6 -15l-8 -24l-20 -39l-13 -31l-6 -22l-6 -11l-8 -14l-12 -8l-58 2l-16 -2l-31 2l-14 2l-150 2l-18 4l-4 17l4 14l2 12l12 25l17 26l20 62l12 24l11 25l22 49l8 27l17 37l4 12l10 14l10 25l4 12l2 14l7 13
l10 26l6 15l14 28l4 15l5 18l10 16l12 25l4 14l12 29l2 12l7 15l6 12l10 29l6 12l17 57l6 17l14 26l10 35l13 23l6 12l6 27l10 14l6 27l4 10l13 26l6 29l10 14l8 13l17 43l10 26l6 13l12 18l6 20l7 15l18 37l4 14l6 12l4 13l4 14l13 22l8 13l4 10l12 37l15 26l18 37l6 15
l6 12l8 23l15 2h20l39 -2l21 2h32l39 2h19l14 -4l19 2h32l11 -5l14 -10l6 -88v-45l4 -12v-37l2 -74v-28l2 -27l4 -41v-29l2 -30l-2 -15v-45l4 -28v-41l2 -29l-2 -12l2 -27v-12l3 -33l4 -23v-79l2 -25l2 -16v-62l2 -94v-14l2 -31l-2 -31l2 -29l-2 -14l4 -78v-12l2 -27l2 -14
v-31l-2 -28l2 -17v-18zM586 807l2 74l-2 47l-17 -6l-8 -27l-10 -33l-6 -20l-10 -33l-9 -16l-8 -21l-2 -14l-8 -15l-6 -18l-6 -14l-7 -19l-12 -45l-2 -14l-10 -31l-8 -14l-11 -35l-4 -14l-4 -19l-6 -14l14 -12h17l22 -2l19 -3h61l13 11l2 28l-2 17l2 16v53l2 15v35l4 16
l-2 49z" />
    <glyph glyph-name="atilde" unicode="&#xe3;" horiz-adv-x="913" 
d="M799 1507l-21 6l-20 5l-41 20l-19 12l-4 9l-18 16l-6 6l-13 16l-22 19l-4 4l-15 12l-12 8l-18 7l-21 -5l-14 -6l-19 -22l-8 -10l-4 -23l-6 -6v-14l-16 -17l-43 6h-60l-22 11l-2 22l-2 19l8 49l4 12l16 37l15 18l4 6l14 17l21 20l16 11l6 6l21 10l10 6l8 6l25 4l18 4h37
l20 -6l19 -4l26 -8l17 -10l16 -13l8 -8l15 -10l24 -25l23 -24l10 -6l12 -15l11 -6l18 -6l18 6l15 10l14 13l12 41l7 6l4 16l14 6l68 4l45 -4l16 -8l4 -18l-2 -15l-2 -26l-8 -29l-2 -10l-10 -23l-9 -14l-14 -23l-2 -4l-16 -18l-27 -27l-14 -8l-11 -6l-10 -8l-12 -4l-17 -8
l-41 -9h-32zM166 -4l-31 2l-14 2l-150 2l-18 4l-4 17l4 14l2 12l12 25l17 26l20 62l12 24l11 25l22 49l8 27l17 37l4 12l10 14l10 25l4 12l2 14l7 13l10 26l6 15l14 28l4 15l5 18l10 16l12 25l4 14l12 29l2 12l7 15l6 12l10 29l6 12l17 57l6 17l14 26l10 35l13 23l6 12l6 27
l10 14l6 27l4 10l13 26l6 29l10 14l8 13l17 43l10 26l6 13l12 18l6 20l7 15l18 37l4 14l6 12l4 13l4 14l13 22l8 13l4 10l12 37l15 26l18 37l6 15l6 12l8 23l15 2h20l39 -2l21 2h32l39 2h19l14 -4l19 2h32l11 -5l14 -10l6 -88v-45l4 -12v-37l2 -74v-28l2 -27l4 -41v-29
l2 -30l-2 -15v-45l4 -28v-41l2 -29l-2 -12l2 -27v-12l3 -33l4 -23v-79l2 -25l2 -16v-62l2 -94v-14l2 -31l-2 -31l2 -29l-2 -14l4 -78v-12l2 -27l2 -14v-31l-2 -28l2 -17v-18l2 -45v-43q6 -26 -6 -33h-23l-14 -2l-16 2h-29l-45 -2h-16l-25 2l-14 -2l-21 -2l-27 2h-30l-8 6
l-5 21l-2 36l-2 21l2 20v97l-2 16l-45 2l-32 4l-91 2h-55l-10 -22l-14 -27l-5 -14l-6 -15l-8 -24l-20 -39l-13 -31l-6 -22l-6 -11l-8 -14l-12 -8l-58 2zM504 489h61l13 11l2 28l-2 17l2 16v53l2 15v35l4 16l-2 49l2 78l2 74l-2 47l-17 -6l-8 -27l-10 -33l-6 -20l-10 -33
l-9 -16l-8 -21l-2 -14l-8 -15l-6 -18l-6 -14l-7 -19l-12 -45l-2 -14l-10 -31l-8 -14l-11 -35l-4 -14l-4 -19l-6 -14l14 -12h17l22 -2z" />
    <glyph glyph-name="adieresis" unicode="&#xe4;" horiz-adv-x="913" 
d="M514 1548l-35 4h-41l-22 2l-8 2l-2 19v45l-3 12l5 19l10 22l8 58v30l8 11l15 2l10 4l26 -4h140l14 -11l8 -10l2 -24l-8 -15l4 -14v-2l-4 -25l-10 -28l4 -25l-6 -16l2 -17l-17 -33l-22 -6h-78zM852 1548l-27 4h-51l-12 2l-19 2v19l-4 22v7l4 16l-4 12l15 19v22l6 58l10 30
v11l10 2l17 4l30 -4h136l10 -11l20 -10l2 -24l-12 -15v-14l-4 -2l-4 -25l-4 -28l2 -25v-33l-10 -12l-13 -21l-26 -6h-72zM166 -4l-31 2l-14 2l-150 2l-18 4l-4 17l4 14l2 12l12 25l17 26l20 62l12 24l11 25l22 49l8 27l17 37l4 12l10 14l10 25l4 12l2 14l7 13l10 26l6 15
l14 28l4 15l5 18l10 16l12 25l4 14l12 29l2 12l7 15l6 12l10 29l6 12l17 57l6 17l14 26l10 35l13 23l6 12l6 27l10 14l6 27l4 10l13 26l6 29l10 14l8 13l17 43l10 26l6 13l12 18l6 20l7 15l18 37l4 14l6 12l4 13l4 14l13 22l8 13l4 10l12 37l15 26l18 37l6 15l6 12l8 23
l15 2h20l39 -2l21 2h32l39 2h19l14 -4l19 2h32l11 -5l14 -10l6 -88v-45l4 -12v-37l2 -74v-28l2 -27l4 -41v-29l2 -30l-2 -15v-45l4 -28v-41l2 -29l-2 -12l2 -27v-12l3 -33l4 -23v-79l2 -25l2 -16v-62l2 -94v-14l2 -31l-2 -31l2 -29l-2 -14l4 -78v-12l2 -27l2 -14v-31l-2 -28
l2 -17v-18l2 -45v-43q6 -26 -6 -33h-23l-14 -2l-16 2h-29l-45 -2h-16l-25 2l-14 -2l-21 -2l-27 2h-30l-8 6l-5 21l-2 36l-2 21l2 20v97l-2 16l-45 2l-32 4l-91 2h-55l-10 -22l-14 -27l-5 -14l-6 -15l-8 -24l-20 -39l-13 -31l-6 -22l-6 -11l-8 -14l-12 -8l-58 2zM504 489h61
l13 11l2 28l-2 17l2 16v53l2 15v35l4 16l-2 49l2 78l2 74l-2 47l-17 -6l-8 -27l-10 -33l-6 -20l-10 -33l-9 -16l-8 -21l-2 -14l-8 -15l-6 -18l-6 -14l-7 -19l-12 -45l-2 -14l-10 -31l-8 -14l-11 -35l-4 -14l-4 -19l-6 -14l14 -12h17l22 -2z" />
    <glyph glyph-name="aring" unicode="&#xe5;" horiz-adv-x="913" 
d="M639 1497l-27 10l-8 4l-20 2l-13 7l-16 10l-35 35l-14 10v10l-4 6l-6 17l-7 4l-4 10l-4 6l-4 12v11l-6 8l4 16l-4 4l-2 17l2 14l6 14v17l2 16l2 6l8 17l9 12l8 18l6 9l2 6l8 6v8l17 12l14 11l2 2l10 6l15 10l14 8h18l4 4l17 6h14l33 5h31l10 -2h12l23 -3l8 -4l12 -4l6 -4
l19 -4l18 -6l6 -8l9 -4l16 -17l16 -8l8 -8l3 -6l8 -15l6 -6l4 -8l4 -10l2 -19l8 -20v-8l2 -8v-17l-2 -14l2 -12v-9l-2 -8l-6 -6v-12l-4 -17l-8 -20l-6 -12l-8 -13l-3 -16l-6 -6l-14 -10l-2 -9l-8 -4l-15 -14l-14 -6l-6 -4l-31 -11h-6l-8 -4l-29 -4l-8 -6h-88zM674 1622h24
l23 6l14 10l15 21l8 29l2 38l-8 19l-7 14l-14 15l-22 8h-21l-18 -4l-15 -13l-14 -8l-8 -18l-4 -10v-13l-4 -18v-8l4 -17v-12l2 -6l8 -10l14 -11zM166 -4l-31 2l-14 2l-150 2l-18 4l-4 17l4 14l2 12l12 25l17 26l20 62l12 24l11 25l22 49l8 27l17 37l4 12l10 14l10 25l4 12
l2 14l7 13l10 26l6 15l14 28l4 15l5 18l10 16l12 25l4 14l12 29l2 12l7 15l6 12l10 29l6 12l17 57l6 17l14 26l10 35l13 23l6 12l6 27l10 14l6 27l4 10l13 26l6 29l10 14l8 13l17 43l10 26l6 13l12 18l6 20l7 15l18 37l4 14l6 12l4 13l4 14l13 22l8 13l4 10l12 37l15 26
l18 37l6 15l6 12l8 23l15 2h20l39 -2l21 2h32l39 2h19l14 -4l19 2h32l11 -5l14 -10l6 -88v-45l4 -12v-37l2 -74v-28l2 -27l4 -41v-29l2 -30l-2 -15v-45l4 -28v-41l2 -29l-2 -12l2 -27v-12l3 -33l4 -23v-79l2 -25l2 -16v-62l2 -94v-14l2 -31l-2 -31l2 -29l-2 -14l4 -78v-12
l2 -27l2 -14v-31l-2 -28l2 -17v-18l2 -45v-43q6 -26 -6 -33h-23l-14 -2l-16 2h-29l-45 -2h-16l-25 2l-14 -2l-21 -2l-27 2h-30l-8 6l-5 21l-2 36l-2 21l2 20v97l-2 16l-45 2l-32 4l-91 2h-55l-10 -22l-14 -27l-5 -14l-6 -15l-8 -24l-20 -39l-13 -31l-6 -22l-6 -11l-8 -14
l-12 -8l-58 2zM504 489h61l13 11l2 28l-2 17l2 16v53l2 15v35l4 16l-2 49l2 78l2 74l-2 47l-17 -6l-8 -27l-10 -33l-6 -20l-10 -33l-9 -16l-8 -21l-2 -14l-8 -15l-6 -18l-6 -14l-7 -19l-12 -45l-2 -14l-10 -31l-8 -14l-11 -35l-4 -14l-4 -19l-6 -14l14 -12h17l22 -2z" />
    <glyph glyph-name="ae" unicode="&#xe6;" horiz-adv-x="1148" 
d="M125 -2l-12 2l-136 2l-18 4l-4 17l4 14l4 12l10 25l17 26l30 62l15 24l14 23l21 49l16 27l18 37l5 12l10 16l12 25l10 12l2 14l9 13l14 26l2 15l14 28l13 15l6 20l10 17l8 12l6 12l6 14l19 41l6 15l6 12l12 29l9 12l24 57l10 17l17 26l10 31l14 27l9 12l4 25l10 14l12 27
l4 10l19 26l6 25l8 14l10 17l19 45l16 26l2 13l10 18l15 21l4 14l18 37l8 14l5 12l4 11l6 14l14 22l10 13l4 10l15 37l16 24l6 13l6 14l9 12l16 29l21 25h135l12 2l14 -2l21 2h14l17 -2h20l45 2l109 -2h108l33 2l14 -2l19 2l20 -2l19 -2l12 -11l-4 -26v-13l-10 -49v-12
l-5 -29l-2 -12l-6 -31l-2 -16l-8 -29l-2 -16l-6 -27l-21 -2h-80l-18 2h-108l-29 -2l-6 -24l-2 -15v-28l-6 -13v-16l-7 -39l-4 -29l-10 -43l2 -16l-6 -21l-6 -34h37l77 -2h64l16 -5l13 -16l-4 -20v-17l-7 -24l-6 -43l-8 -31l2 -14l-8 -17l-4 -28l-8 -33l-4 -29l-5 -4h-20
l-35 -2h-33l-14 -2l-47 2h-51l-6 -23l-7 -26l-4 -31l-4 -29l-4 -20l-4 -18l-2 -21l-4 -14l-6 -37l-8 -53v-17l8 -8l28 -4h197l14 -6l-4 -33l-4 -23l-2 -16l-8 -39v-26l-4 -15l-4 -12l-2 -14l-4 -31l-4 -35l-5 -18l-6 -27h-172l-26 4l-13 -2h-43l-32 -2l-17 2l-39 -4h-14
l-23 4l-16 -2l-14 2h-21l-35 -2h-16l-10 4l-6 23l2 16l4 18l4 31l4 33l6 31l6 32l2 17v10l-24 2l-33 4l-90 2h-55l-13 -22l-16 -27l-8 -14l-6 -15l-11 -24l-24 -39l-15 -31l-8 -22l-6 -9l-8 -14l-14 -8l-64 2l-16 -2h-31zM506 489h96l8 5l6 22l5 16l2 15l6 31l12 57l6 31
l8 28l4 31l7 14l2 17l6 28l4 13l8 51l6 26l8 37l7 33l6 37l8 43l-8 4l-21 -35l-16 -41l-14 -28l-13 -29l-18 -33l-13 -24l-12 -33l-10 -17l-8 -20l-13 -29l-8 -18l-6 -14l-26 -62l-5 -14l-12 -31l-8 -14l-14 -33l-4 -14l-9 -19l-6 -14l6 -14z" />
    <glyph glyph-name="ccedilla" unicode="&#xe7;" horiz-adv-x="892" 
d="M958 1208l3 -30v-45l-3 -21l-4 -16l-4 -31l-4 -33l-12 -80l-4 -16l-10 -53l-9 -9l-24 -2l-29 -2l-129 2l-59 9l-15 22v29l4 14l9 37l4 29l12 45l2 26l4 29v31l-12 37l-23 12l-28 8h-23l-24 -4l-23 -8l-18 -23l-7 -12l-6 -14l-8 -35l-10 -27l-12 -35v-12l-9 -24l-6 -31
l-6 -25l-6 -18l-2 -14l-2 -13l-4 -14l-4 -29l-11 -31l-16 -81l-2 -17l-8 -33l-2 -14l-4 -27l-4 -16l-7 -31v-43l-6 -14l-2 -14v-17l-2 -14l-4 -14l2 -15l-6 -43v-16l-6 -29l-2 -28v-21l2 -12v-15l8 -30l16 -15l31 -10l33 4h31l28 19l9 10l16 37l10 28l8 27l2 12l2 11l7 24
l6 31l4 18l2 15l10 26l4 21l15 16l16 2l53 -2h43l101 -6l24 -2l14 -14l9 -15v-22l-4 -13v-14l-5 -26l-2 -23l-4 -10l-2 -15l-2 -8l-6 -43l-4 -12l-12 -51l-6 -25l-3 -14l-4 -15l-6 -12l-12 -33l-10 -24l-6 -14l-9 -13l-10 -12l-6 -12l-4 -13l-31 -37l-31 -26l-32 -21l-15 -6
l-53 -12l-24 -6l-25 -4l-27 -6h-28l-4 -35l-9 -25h9l22 -2h23l18 -2l23 -6l26 -14l23 -19l12 -16l12 -25l4 -6l5 -10l2 -19l4 -20l4 -14v-50l-8 -24l-15 -37l-10 -27l-6 -14l-8 -14l-13 -15l-22 -16l-21 -14l-30 -11l-15 -8l-37 -4l-51 -4l-65 2l-11 2l-16 2l-27 2h-32
l-25 6l-8 11l4 34l18 74l11 21l16 10l53 -6l37 -6l33 -5l33 3l24 6l15 10l16 14l6 17l4 22l-4 19l-8 12l-23 12l-16 2l-25 -2h-127l-12 6l-2 13l4 22l6 21l4 32l11 35l8 43l8 21l-16 2l-15 4l-12 2l-27 10l-24 8l-12 11l-21 12l-10 8l-12 8l-27 21l-8 10l-10 10l-15 29
l-18 26l-6 27l-4 12l-5 27l-4 14v39l-2 17v18l2 14v54l2 43l2 16l2 29l5 28v15l2 12l4 43l8 29l-2 18l4 16l6 23l-2 10l6 37l8 12v29l2 6v8l7 23l4 22l6 21l2 25v12l6 12v29l10 41l4 14l4 23l3 20l6 12l2 15l4 14l2 12l2 15l6 14l6 27l15 41l12 41l8 28l12 35l11 25l12 28
l8 23l14 12l15 21l16 20l29 29l12 10l27 12l12 6l43 19l35 6l26 6l15 2h30l39 2h33l51 -6l19 -6h20l29 -4l12 -2l15 -4l14 -2l8 -6l23 -5l28 -10l27 -20l22 -21l5 -10l10 -18l6 -11l4 -14l10 -21l4 -22l2 -25l2 -26z" />
    <glyph glyph-name="egrave" unicode="&#xe8;" horiz-adv-x="772" 
d="M614 1526l-18 6l-16 4l-11 8l-14 17l-18 14l-15 16l-20 23l-10 10l-25 27l-29 24l-14 15l-12 16l-15 16l-22 23l-13 14l-10 19l-4 8l4 16l10 4l23 4l27 2h155l15 -8l6 -6l18 -16l23 -33l8 -14l14 -15l19 -24l10 -8l10 -21l15 -16l8 -19l22 -20l10 -21l9 -10l6 -16l20 -17
l-2 -14l-45 -6l-24 -2h-95zM301 -2l-39 2h-53l-14 2h-109l-18 4l-7 19l7 18l4 18l4 31l4 33l8 31l2 32l6 17v18l4 15v14l4 16l2 15l3 28l4 27l8 16l4 33v14l4 17l4 26v11l8 24l-2 13l6 26l7 14l2 15l6 31l4 14l8 43v31l8 28l4 31l6 14l3 17l2 14v14l8 13l12 61l6 16l4 15
l-2 12l6 29l9 31l2 57l6 14l2 43l8 12l4 17l2 14l-2 12l2 15l8 26l4 29l7 12v15l6 14l-2 12l4 15l2 26l4 13l2 12l2 27l2 12l-4 14l6 25l6 12l2 12l17 13h34l13 2l14 -2l25 2h14l16 -2h21l45 2l154 2l47 -2l16 -2l59 2h45l19 2l20 -2l19 -2l10 -15l-6 -22v-13l-4 -51v-12
l-6 -14l-2 -15l-2 -12l-7 -31v-16l-8 -29l-2 -12l-6 -27l-20 -2h-86l-25 -2h-133l-49 -2l-6 -24l-2 -15v-28l-7 -13v-16l-6 -39l-4 -29l-6 -28l-4 -15l2 -16l-6 -21l-4 -36h37l71 -2l39 4h53l17 -4l12 -17l-4 -24v-17l-4 -22l-6 -29l-4 -14l-6 -31v-14l-7 -17l-4 -28l-6 -33
l-4 -29l-4 -4h-21l-30 -2h-19l-51 -2l-35 2h-22l-27 -2h-18l-8 -23l-7 -26l-8 -58l-6 -20l-4 -18l-2 -21l-4 -14l-6 -37l-9 -53v-17l9 -8l28 -4h121l29 -2l45 -2l57 2l15 -6l-2 -17l-3 -8l-4 -22l-2 -17l-8 -45v-26l-4 -15l-4 -12l-2 -14l-6 -31l-2 -35l-4 -18l-7 -23h-194
l-33 -2l-26 2l-13 -2h-43l-33 -2z" />
    <glyph glyph-name="eacute" unicode="&#xe9;" horiz-adv-x="772" 
d="M487 1528l-20 2l-33 4l-18 2l6 16l14 15l17 18l8 10l12 19l21 20l18 21l12 14l15 14l12 11l16 16l15 19l12 12l33 45l18 14l6 4l21 8h202l21 -6l10 -4l4 -14l-8 -10l-12 -21l-15 -14l-26 -23l-17 -14l-14 -14l-20 -15l-27 -26l-27 -25l-16 -12l-27 -21l-32 -32l-27 -15
l-8 -10l-23 -8h-39l-57 2zM301 -2l-39 2h-53l-14 2h-109l-18 4l-7 19l7 18l4 18l4 31l4 33l8 31l2 32l6 17v18l4 15v14l4 16l2 15l3 28l4 27l8 16l4 33v14l4 17l4 26v11l8 24l-2 13l6 26l7 14l2 15l6 31l4 14l8 43v31l8 28l4 31l6 14l3 17l2 14v14l8 13l12 61l6 16l4 15
l-2 12l6 29l9 31l2 57l6 14l2 43l8 12l4 17l2 14l-2 12l2 15l8 26l4 29l7 12v15l6 14l-2 12l4 15l2 26l4 13l2 12l2 27l2 12l-4 14l6 25l6 12l2 12l17 13h34l13 2l14 -2l25 2h14l16 -2h21l45 2l154 2l47 -2l16 -2l59 2h45l19 2l20 -2l19 -2l10 -15l-6 -22v-13l-4 -51v-12
l-6 -14l-2 -15l-2 -12l-7 -31v-16l-8 -29l-2 -12l-6 -27l-20 -2h-86l-25 -2h-133l-49 -2l-6 -24l-2 -15v-28l-7 -13v-16l-6 -39l-4 -29l-6 -28l-4 -15l2 -16l-6 -21l-4 -36h37l71 -2l39 4h53l17 -4l12 -17l-4 -24v-17l-4 -22l-6 -29l-4 -14l-6 -31v-14l-7 -17l-4 -28l-6 -33
l-4 -29l-4 -4h-21l-30 -2h-19l-51 -2l-35 2h-22l-27 -2h-18l-8 -23l-7 -26l-8 -58l-6 -20l-4 -18l-2 -21l-4 -14l-6 -37l-9 -53v-17l9 -8l28 -4h121l29 -2l45 -2l57 2l15 -6l-2 -17l-3 -8l-4 -22l-2 -17l-8 -45v-26l-4 -15l-4 -12l-2 -14l-6 -31l-2 -35l-4 -18l-7 -23h-194
l-33 -2l-26 2l-13 -2h-43l-33 -2z" />
    <glyph glyph-name="ecircumflex" unicode="&#xea;" horiz-adv-x="772" 
d="M913 1565l21 -17v-16h-16l-31 -4l-25 -2h-84l-22 2l-13 8l-10 8l-14 17l-19 14l-14 16l-20 23l-11 14l-18 21l-19 -21l-16 -16l-27 -21l-32 -32l-27 -15l-8 -10l-21 -8h-34l-52 2l-26 -2l-21 2l-32 2l-19 4l6 16l15 15l16 18l8 10l12 19l21 20l16 21l11 14l14 14l12 11
l23 22l14 19l12 12l29 39l18 14l19 12l26 2h156l4 -2l10 -6l7 -6l18 -16l23 -33l8 -14l14 -15l10 -18l11 -14l10 -21l14 -16l6 -19l23 -20l10 -21l8 -10zM870 1436l19 -2l10 -15l-6 -22v-13l-4 -51v-12l-6 -14l-2 -15l-2 -12l-7 -31v-16l-8 -29l-2 -12l-6 -27l-20 -2h-86
l-25 -2h-133l-49 -2l-6 -24l-2 -15v-28l-7 -13v-16l-6 -39l-4 -29l-6 -28l-4 -15l2 -16l-6 -21l-4 -36h37l71 -2l39 4h53l17 -4l12 -17l-4 -24v-17l-4 -22l-6 -29l-4 -14l-6 -31v-14l-7 -17l-4 -28l-6 -33l-4 -29l-4 -4h-21l-30 -2h-19l-51 -2l-35 2h-22l-27 -2h-18l-8 -23
l-7 -26l-8 -58l-6 -20l-4 -18l-2 -21l-4 -14l-6 -37l-9 -53v-17l9 -8l28 -4h121l29 -2l45 -2l57 2l15 -6l-2 -17l-3 -8l-4 -22l-2 -17l-8 -45v-26l-4 -15l-4 -12l-2 -14l-6 -31l-2 -35l-4 -18l-7 -23h-194l-33 -2l-26 2l-13 -2h-43l-33 -2l-16 -2l-39 2h-53l-14 2h-109
l-18 4l-7 19l7 18l4 18l4 31l4 33l8 31l2 32l6 17v18l4 15v14l4 16l2 15l3 28l4 27l8 16l4 33v14l4 17l4 26v11l8 24l-2 13l6 26l7 14l2 15l6 31l4 14l8 43v31l8 28l4 31l6 14l3 17l2 14v14l8 13l12 61l6 16l4 15l-2 12l6 29l9 31l2 57l6 14l2 43l8 12l4 17l2 14l-2 12l2 15
l8 26l4 29l7 12v15l6 14l-2 12l4 15l2 26l4 13l2 12l2 27l2 12l-4 14l6 25l6 12l2 12l17 13h34l13 2l14 -2l25 2h14l16 -2h21l45 2l154 2l47 -2l16 -2l59 2h45l19 2z" />
    <glyph glyph-name="edieresis" unicode="&#xeb;" horiz-adv-x="772" 
d="M455 1548l-35 4h-41l-23 2l-8 2l-2 19v45l-2 12l4 19l10 22l9 58v30l8 11l14 2l10 4l27 -4h139l15 -11l8 -10l2 -24l-8 -15l4 -14v-2l-4 -25l-11 -28l4 -25l-6 -16l2 -17l-16 -33l-23 -6h-77zM793 1548l-27 4h-51l-13 2l-18 2v19l-4 22v7l4 16l-4 12l14 19v22l6 58l11 30
v11l10 2l16 4l31 -4h135l10 -11l21 -10l2 -24l-12 -15v-14l-4 -2l-5 -25l-4 -28l2 -25v-33l-10 -12l-12 -21l-27 -6h-71zM301 -2l-39 2h-53l-14 2h-109l-18 4l-7 19l7 18l4 18l4 31l4 33l8 31l2 32l6 17v18l4 15v14l4 16l2 15l3 28l4 27l8 16l4 33v14l4 17l4 26v11l8 24
l-2 13l6 26l7 14l2 15l6 31l4 14l8 43v31l8 28l4 31l6 14l3 17l2 14v14l8 13l12 61l6 16l4 15l-2 12l6 29l9 31l2 57l6 14l2 43l8 12l4 17l2 14l-2 12l2 15l8 26l4 29l7 12v15l6 14l-2 12l4 15l2 26l4 13l2 12l2 27l2 12l-4 14l6 25l6 12l2 12l17 13h34l13 2l14 -2l25 2h14
l16 -2h21l45 2l154 2l47 -2l16 -2l59 2h45l19 2l20 -2l19 -2l10 -15l-6 -22v-13l-4 -51v-12l-6 -14l-2 -15l-2 -12l-7 -31v-16l-8 -29l-2 -12l-6 -27l-20 -2h-86l-25 -2h-133l-49 -2l-6 -24l-2 -15v-28l-7 -13v-16l-6 -39l-4 -29l-6 -28l-4 -15l2 -16l-6 -21l-4 -36h37
l71 -2l39 4h53l17 -4l12 -17l-4 -24v-17l-4 -22l-6 -29l-4 -14l-6 -31v-14l-7 -17l-4 -28l-6 -33l-4 -29l-4 -4h-21l-30 -2h-19l-51 -2l-35 2h-22l-27 -2h-18l-8 -23l-7 -26l-8 -58l-6 -20l-4 -18l-2 -21l-4 -14l-6 -37l-9 -53v-17l9 -8l28 -4h121l29 -2l45 -2l57 2l15 -6
l-2 -17l-3 -8l-4 -22l-2 -17l-8 -45v-26l-4 -15l-4 -12l-2 -14l-6 -31l-2 -35l-4 -18l-7 -23h-194l-33 -2l-26 2l-13 -2h-43l-33 -2z" />
    <glyph glyph-name="igrave" unicode="&#xec;" horiz-adv-x="538" 
d="M463 1526l-19 6l-16 4l-10 8l-15 17l-18 14l-14 16l-21 23l-10 10l-25 27l-28 24l-15 15l-12 16l-14 16l-23 23l-12 14l-10 19l-4 8l4 16l10 4l22 4l27 2h156l14 -8l6 -6l19 -16l22 -33l8 -14l15 -15l18 -24l10 -8l11 -21l14 -16l8 -19l23 -20l10 -21l8 -10l6 -16l21 -17
l-2 -14l-45 -6l-25 -2h-94zM283 -4l-15 2h-59l-29 4h-16l-14 -2l-23 2l-14 2l-17 -2l-16 4l-17 14l-2 31l11 29l2 31l4 14l4 29l2 16l6 31l2 14l4 16l2 15l8 26l-2 13l7 37l6 22l4 18l6 19l4 18l4 25v14l4 15l2 12l4 14l-2 15l15 45l4 30v13l4 14l2 14l2 13l4 28v29l8 29v14
l4 29l9 16v27l4 24l6 27l10 28l6 44v28l6 15l4 28l2 12l-2 15l9 24l2 13l6 26l2 15l8 26l-2 15l2 16l2 27l4 10l4 29l6 26l2 12l5 13l2 24l4 23l8 22l4 31l4 12l2 15l14 20l15 6l12 9l14 2l31 2l19 -2h28l15 2h108l14 2l23 -6l8 -21l-2 -12v-27l-4 -6l-2 -23l2 -12l-6 -8
v-18l-6 -11l-4 -28l-9 -19v-16l-2 -12v-15l-2 -12l-10 -53l-4 -23l-4 -12l-4 -25l-2 -14l-2 -25l-2 -14l-4 -27l-7 -24l-6 -27l-2 -10l-6 -29l-6 -18v-19l-2 -14l-2 -16v-15l-4 -26l-6 -21l-11 -61l-8 -29l-6 -14v-17l-6 -26l-4 -27l-4 -24l-8 -29v-16l-9 -29v-17l-4 -28
l-2 -10v-29l-10 -21l2 -22l-6 -31l-2 -16l-8 -27v-16l-6 -29l-5 -29l-4 -26v-15l-6 -22l-8 -49l-6 -27l-4 -29l-6 -26l-2 -17l-7 -18l-22 -6h-53z" />
    <glyph glyph-name="iacute" unicode="&#xed;" horiz-adv-x="538" 
d="M336 1528l-21 2l-32 4l-19 2l6 16l15 15l16 18l8 10l13 19l20 20l18 21l13 14l14 14l12 11l17 16l14 19l12 12l33 45l19 14l6 4l20 8h203l20 -6l11 -4l4 -14l-8 -10l-13 -21l-14 -14l-27 -23l-16 -14l-14 -14l-21 -15l-27 -26l-26 -25l-17 -12l-26 -21l-33 -32l-27 -15
l-8 -10l-22 -8h-39l-58 2zM283 -4l-15 2h-59l-29 4h-16l-14 -2l-23 2l-14 2l-17 -2l-16 4l-17 14l-2 31l11 29l2 31l4 14l4 29l2 16l6 31l2 14l4 16l2 15l8 26l-2 13l7 37l6 22l4 18l6 19l4 18l4 25v14l4 15l2 12l4 14l-2 15l15 45l4 30v13l4 14l2 14l2 13l4 28v29l8 29v14
l4 29l9 16v27l4 24l6 27l10 28l6 44v28l6 15l4 28l2 12l-2 15l9 24l2 13l6 26l2 15l8 26l-2 15l2 16l2 27l4 10l4 29l6 26l2 12l5 13l2 24l4 23l8 22l4 31l4 12l2 15l14 20l15 6l12 9l14 2l31 2l19 -2h28l15 2h108l14 2l23 -6l8 -21l-2 -12v-27l-4 -6l-2 -23l2 -12l-6 -8
v-18l-6 -11l-4 -28l-9 -19v-16l-2 -12v-15l-2 -12l-10 -53l-4 -23l-4 -12l-4 -25l-2 -14l-2 -25l-2 -14l-4 -27l-7 -24l-6 -27l-2 -10l-6 -29l-6 -18v-19l-2 -14l-2 -16v-15l-4 -26l-6 -21l-11 -61l-8 -29l-6 -14v-17l-6 -26l-4 -27l-4 -24l-8 -29v-16l-9 -29v-17l-4 -28
l-2 -10v-29l-10 -21l2 -22l-6 -31l-2 -16l-8 -27v-16l-6 -29l-5 -29l-4 -26v-15l-6 -22l-8 -49l-6 -27l-4 -29l-6 -26l-2 -17l-7 -18l-22 -6h-53z" />
    <glyph glyph-name="icircumflex" unicode="&#xee;" horiz-adv-x="538" 
d="M762 1565l20 -17v-16h-16l-31 -4l-24 -2h-84l-23 2l-12 8l-10 8l-15 17l-18 14l-14 16l-21 23l-10 14l-19 21l-18 -21l-16 -16l-27 -21l-33 -32l-26 -15l-9 -10l-20 -8h-35l-51 2l-27 -2l-20 2l-33 2l-18 4l6 16l14 15l16 18l9 10l12 19l20 20l17 21l10 14l14 14l13 11
l22 22l14 19l13 12l28 39l19 14l18 12l27 2h156l4 -2l10 -6l6 -6l18 -16l23 -33l8 -14l15 -15l10 -18l10 -14l10 -21l15 -16l6 -19l22 -20l11 -21l8 -10zM575 1436l23 -6l8 -21l-2 -12v-27l-4 -6l-2 -23l2 -12l-6 -8v-18l-6 -11l-4 -28l-9 -19v-16l-2 -12v-15l-2 -12
l-10 -53l-4 -23l-4 -12l-4 -25l-2 -14l-2 -25l-2 -14l-4 -27l-7 -24l-6 -27l-2 -10l-6 -29l-6 -18v-19l-2 -14l-2 -16v-15l-4 -26l-6 -21l-11 -61l-8 -29l-6 -14v-17l-6 -26l-4 -27l-4 -24l-8 -29v-16l-9 -29v-17l-4 -28l-2 -10v-29l-10 -21l2 -22l-6 -31l-2 -16l-8 -27v-16
l-6 -29l-5 -29l-4 -26v-15l-6 -22l-8 -49l-6 -27l-4 -29l-6 -26l-2 -17l-7 -18l-22 -6h-53l-15 2h-59l-29 4h-16l-14 -2l-23 2l-14 2l-17 -2l-16 4l-17 14l-2 31l11 29l2 31l4 14l4 29l2 16l6 31l2 14l4 16l2 15l8 26l-2 13l7 37l6 22l4 18l6 19l4 18l4 25v14l4 15l2 12
l4 14l-2 15l15 45l4 30v13l4 14l2 14l2 13l4 28v29l8 29v14l4 29l9 16v27l4 24l6 27l10 28l6 44v28l6 15l4 28l2 12l-2 15l9 24l2 13l6 26l2 15l8 26l-2 15l2 16l2 27l4 10l4 29l6 26l2 12l5 13l2 24l4 23l8 22l4 31l4 12l2 15l14 20l15 6l12 9l14 2l31 2l19 -2h28l15 2h108
z" />
    <glyph glyph-name="idieresis" unicode="&#xef;" horiz-adv-x="538" 
d="M303 1548l-35 4h-41l-22 2l-8 2l-2 19v45l-2 12l4 19l10 22l8 58v30l8 11l15 2l10 4l26 -4h140l14 -11l8 -10l2 -24l-8 -15l4 -14v-2l-4 -25l-10 -28l4 -25l-6 -16l2 -17l-17 -33l-22 -6h-78zM641 1548l-27 4h-51l-12 2l-19 2v19l-4 22v7l4 16l-4 12l15 19v22l6 58l10 30
v11l10 2l17 4l30 -4h136l10 -11l20 -10l2 -24l-12 -15v-14l-4 -2l-4 -25l-4 -28l2 -25v-33l-10 -12l-13 -21l-26 -6h-72zM283 -4l-15 2h-59l-29 4h-16l-14 -2l-23 2l-14 2l-17 -2l-16 4l-17 14l-2 31l11 29l2 31l4 14l4 29l2 16l6 31l2 14l4 16l2 15l8 26l-2 13l7 37l6 22
l4 18l6 19l4 18l4 25v14l4 15l2 12l4 14l-2 15l15 45l4 30v13l4 14l2 14l2 13l4 28v29l8 29v14l4 29l9 16v27l4 24l6 27l10 28l6 44v28l6 15l4 28l2 12l-2 15l9 24l2 13l6 26l2 15l8 26l-2 15l2 16l2 27l4 10l4 29l6 26l2 12l5 13l2 24l4 23l8 22l4 31l4 12l2 15l14 20l15 6
l12 9l14 2l31 2l19 -2h28l15 2h108l14 2l23 -6l8 -21l-2 -12v-27l-4 -6l-2 -23l2 -12l-6 -8v-18l-6 -11l-4 -28l-9 -19v-16l-2 -12v-15l-2 -12l-10 -53l-4 -23l-4 -12l-4 -25l-2 -14l-2 -25l-2 -14l-4 -27l-7 -24l-6 -27l-2 -10l-6 -29l-6 -18v-19l-2 -14l-2 -16v-15l-4 -26
l-6 -21l-11 -61l-8 -29l-6 -14v-17l-6 -26l-4 -27l-4 -24l-8 -29v-16l-9 -29v-17l-4 -28l-2 -10v-29l-10 -21l2 -22l-6 -31l-2 -16l-8 -27v-16l-6 -29l-5 -29l-4 -26v-15l-6 -22l-8 -49l-6 -27l-4 -29l-6 -26l-2 -17l-7 -18l-22 -6h-53z" />
    </font>
</defs>
</svg>
