<?xml version="1.0" encoding="UTF-8"?>
<svg width="40px" height="40px" viewBox="0 0 40 40" version="1.1" xmlns="http://www.w3.org/2000/svg" xmlns:xlink="http://www.w3.org/1999/xlink">
    <!-- Generator: Sketch 58 (84663) - https://sketch.com -->
    <title>Combined Shape</title>
    <desc>Created with Sketch.</desc>
    <g id="Exempelsidor" stroke="none" stroke-width="1" fill="none" fill-rule="evenodd" opacity="0.8">
        <g id="D--Artikel---Hus-i-Spanien" transform="translate(-770.000000, -501.000000)" fill="#FFFFFF">
            <g id="Left-side" transform="translate(0.000000, 142.000000)">
                <path d="M789.972067,359 C801.002335,359 809.944134,367.954305 809.944134,379 C809.944134,390.045695 801.002335,399 789.972067,399 C778.941799,399 770,390.045695 770,379 C770,367.954305 778.941799,359 789.972067,359 Z M786.610972,370.598392 C786.113723,371.076558 786.097712,371.867852 786.57521,372.365796 L793.199408,379.273638 L786.611742,385.597652 C786.114085,386.075392 786.097398,386.866671 786.574471,387.365025 C787.051543,387.863378 787.841718,387.880088 788.339375,387.402348 L795.8289,380.212569 C796.326859,379.734541 796.34322,378.942671 795.865433,378.444425 L788.375907,370.634204 C787.898409,370.136259 787.108221,370.120226 786.610972,370.598392 Z" id="Combined-Shape"></path>
            </g>
        </g>
    </g>
</svg>