<svg width="15" height="18" viewBox="0 0 15 18" fill="none" xmlns="http://www.w3.org/2000/svg">
<path d="M9.64969 0.26355C9.82549 0.094721 10.0639 -0.00012207 10.3125 -0.00012207C10.5611 -0.00012207 10.7995 0.094721 10.9753 0.26355L14.7253 3.8658C14.9011 4.03468 14.9998 4.2637 14.9998 4.5025C14.9998 4.7413 14.9011 4.97032 14.7253 5.1392L10.9753 8.74145C10.7985 8.90549 10.5617 8.99627 10.3159 8.99421C10.0701 8.99216 9.83493 8.89745 9.66111 8.73048C9.48729 8.56351 9.38869 8.33764 9.38656 8.10151C9.38442 7.86539 9.47891 7.6379 9.64969 7.46805L11.7994 5.40306H0.9375C0.68886 5.40306 0.450403 5.30818 0.274588 5.13929C0.0987722 4.97041 0 4.74134 0 4.5025C0 4.26366 0.0987722 4.03459 0.274588 3.86571C0.450403 3.69682 0.68886 3.60194 0.9375 3.60194H11.7994L9.64969 1.53695C9.47393 1.36807 9.3752 1.13905 9.3752 0.900248C9.3752 0.661451 9.47393 0.432431 9.64969 0.26355ZM5.35031 9.26918C5.52607 9.43806 5.6248 9.66708 5.6248 9.90588C5.6248 10.1447 5.52607 10.3737 5.35031 10.5426L3.20062 12.6076H14.0625C14.3111 12.6076 14.5496 12.7024 14.7254 12.8713C14.9012 13.0402 15 13.2693 15 13.5081C15 13.747 14.9012 13.976 14.7254 14.1449C14.5496 14.3138 14.3111 14.4087 14.0625 14.4087H3.20062L5.35031 16.4737C5.52109 16.6435 5.61558 16.871 5.61344 17.1071C5.61131 17.3433 5.51271 17.5691 5.33889 17.7361C5.16507 17.9031 4.92994 17.9978 4.68413 17.9998C4.43832 18.0019 4.2015 17.9111 4.02469 17.7471L0.274688 14.1448C0.0989336 13.9759 0.000200272 13.7469 0.000200272 13.5081C0.000200272 13.2693 0.0989336 13.0403 0.274688 12.8714L4.02469 9.26918C4.20049 9.10035 4.43891 9.00551 4.6875 9.00551C4.93609 9.00551 5.17451 9.10035 5.35031 9.26918Z" fill="#074658"/>
</svg>
