<svg xmlns="http://www.w3.org/2000/svg" viewBox="0 0 315.93 298.81"><defs><style>.cls-1{fill:#fff;}.cls-2{fill:#00a5c3;}.cls-3{fill:#c6c6c6;}</style></defs><g id="Lager_2" data-name="Lager 2"><g id="Lager_1-2" data-name="Lager 1"><path class="cls-1" d="M99.69,156l13.16-83.17H98.74c-6.64,0-15.07-3.67-17.6-10.49-.85-2.26-2.74-10.24,8.18-17.93,3.85-2.7,6.42-5.69,6.9-8a6.23,6.23,0,0,0-1.82-6.09C92,28,87.33,26.75,81.31,26.75c-10.14,0-17.25,5.85-17.9,10-.47,3.1,1.94,5.61,4,7.16,6.29,4.66,7.78,11.53,3.86,17.94-4,6.61-12.65,10.91-22,11l-14.37,0C33.68,81,14.13,205.14,12.64,214.91H90.7c.68-4.41,4.32-27.85,9.22-58.93Z"/><path class="cls-2" d="M204.23,0H124.77L114.13,67.29l13.51,0C135,67.28,142,63.94,145,59a8.19,8.19,0,0,0,1.35-4.28c0-2.79-1.86-4.89-3.78-6.3-5.24-3.88-6.34-8-6.34-10.88a10.66,10.66,0,0,1,.12-1.6c1.09-7.12,10.74-14.75,23.36-14.75,7.56,0,13.41,1.76,16.91,5.08A11.84,11.84,0,0,1,180,37.54c-1.07,5.07-6.19,9.32-9.13,11.39-7.68,5.41-6.68,10.14-6.18,11.46,1.57,4.24,7.67,6.87,12.41,6.87h20.59a.32.32,0,0,1,0,.07c28,.22,43.05,13.09,38.31,43.07-4.4,27.85-25.76,39.85-51.25,40.14l-10.12,64.37h14.92c62.93,0,114.34-40.44,124.44-104.23C326.51,31.66,276.27,0,204.23,0Z"/><path class="cls-3" d="M204.23,0H124.77L114.13,67.29l13.51,0C135,67.28,142,63.94,145,59a8.19,8.19,0,0,0,1.35-4.28c0-2.79-1.86-4.89-3.78-6.3-5.24-3.88-6.34-8-6.34-10.88a10.66,10.66,0,0,1,.12-1.6c1.09-7.12,10.74-14.75,23.36-14.75,7.56,0,13.41,1.76,16.91,5.08A11.84,11.84,0,0,1,180,37.54c-1.07,5.07-6.19,9.32-9.13,11.39-7.68,5.41-6.68,10.14-6.18,11.46,1.57,4.24,7.67,6.87,12.41,6.87h20.59a.32.32,0,0,1,0,.07c28,.22,43.05,13.09,38.31,43.07-4.4,27.85-25.76,39.85-51.25,40.14l-10.12,64.37h14.92c62.93,0,114.34-40.44,124.44-104.23C326.51,31.66,276.27,0,204.23,0Z"/><path class="cls-3" d="M8.44,243.59H40.32c13.58,0,16.92,6.88,15.94,13.19-.8,5.12-4.26,8.87-10.31,11.35,7.63,2.87,10.6,7.43,9.5,14.46-1.36,8.87-9.1,15.5-19.17,15.5H0Zm21.11,22.62c6.23,0,9.14-3.28,9.74-7.2.64-4.15-1.29-7.11-7.53-7.11H26.25L24,266.21Zm-3.41,23.57c6.39,0,10.14-2.56,11-7.91.71-4.56-1.9-7.35-8.13-7.35H22.75l-2.37,15.26Z"/><path class="cls-3" d="M100.14,298.65c-8.31.56-12.33-.32-14.34-3.92a27.09,27.09,0,0,1-14.45,4.08c-9.43,0-12.67-4.87-11.83-10.31a12.27,12.27,0,0,1,4.31-7.19c5.17-4.47,18-5.12,23-8.55.43-3.83-1.11-5.2-5.83-5.2-5.51,0-10.11,1.85-18,7.2l1.92-12.39c6.83-4.95,13.41-7.18,21-7.18,9.75,0,18.33,4,16.68,14.61l-1.86,12c-.65,4.24-.53,5.51,4.17,5.6ZM85.72,279.79c-4.43,2.8-12.59,2.32-13.47,8.07a3.83,3.83,0,0,0,4,4.71,15.5,15.5,0,0,0,8.35-2.87,11.94,11.94,0,0,1,.21-3.92Z"/><path class="cls-3" d="M115.67,255.9h16.62l-.85,5.51c5.25-4.47,9.27-6.22,14.55-6.22,9.27,0,13.59,5.67,12.14,15l-4.32,27.89H137.19L140.76,275c.65-4.23-.56-6.15-3.84-6.15-2.63,0-5,1.43-7.34,4.54l-3.82,24.7H109.14Z"/><path class="cls-3" d="M170.91,243.59h16.62l-4.16,26.85,15.92-14.54h20.53l-20.44,18,16.39,24.21H194.91l-12.64-19.5h-.16l-3,19.5H162.47Z"/><path class="cls-1" d="M229.7,243.59h19.09l-8.44,54.5H221.26Z"/><path class="cls-1" d="M258.07,243.59H285.4c21.09,0,27.18,15.35,25.23,28-1.92,12.38-11.7,26.53-30.24,26.53H249.63Zm17.7,41.56c9.26,0,14.36-4.56,15.88-14.3,1.1-7.2-1.07-14.31-11.38-14.31h-5.11l-4.43,28.61Z"/></g></g></svg>