<svg xmlns="http://www.w3.org/2000/svg" width="32" height="28" viewBox="0 0 32 28">
  <g id="Group_5" data-name="Group 5" transform="translate(5798 -353)">
    <rect id="Rectangle_1" data-name="Rectangle 1" width="32" height="28" transform="translate(-5798 353)" fill="rgba(255,255,255,0)"/>
    <g id="bankid-vector-logo" transform="translate(-5697.1 330)">
      <path id="Path_1" data-name="Path 1" d="M-69.224,80l1.048-6.688H-69.32a1.566,1.566,0,0,1-1.428-.832c-.072-.192-.216-.832.668-1.452a1.191,1.191,0,0,0,.548-.644.493.493,0,0,0-.144-.5A1.541,1.541,0,0,0-70.7,69.6a1.42,1.42,0,0,0-1.428.808c-.048.26.168.452.332.572a1.045,1.045,0,0,1,.308,1.452,2.1,2.1,0,0,1-1.76.88h-1.168c-.1.644-1.668,10.64-1.784,11.423h6.289c.024-.332.308-2.236.688-4.736Z" transform="translate(-20.657 -42.456)" fill="#fff"/>
      <path id="Path_2" data-name="Path 2" d="M100.436,25h-6.38L93.2,30.4h1.1a1.629,1.629,0,0,0,1.4-.668.718.718,0,0,0,.12-.332.606.606,0,0,0-.308-.5,1.041,1.041,0,0,1-.5-.88V27.9a1.834,1.834,0,0,1,1.88-1.192,1.968,1.968,0,0,1,1.356.4.98.98,0,0,1,.284.9,1.8,1.8,0,0,1-.736.9c-.62.428-.548.808-.5.928a1.119,1.119,0,0,0,1,.548h1.668c2.26.024,3.476,1.048,3.072,3.476-.356,2.236-2.072,3.212-4.115,3.236l-.856,5.164h1.192a9.8,9.8,0,0,0,10.019-8.38C110.287,27.548,106.243,25,100.436,25Z" transform="translate(-181.912)" fill="#c6c6c6"/>
      <g id="Group_3" data-name="Group 3" transform="translate(-97.9 44.587)">
        <g id="Group_1" data-name="Group 1" transform="translate(0)">
          <path id="Path_3" data-name="Path 3" d="M-97.208,432.4h2.572c1.1,0,1.356.548,1.284,1.072a1.171,1.171,0,0,1-.832.9c.62.24.856.6.76,1.168a1.5,1.5,0,0,1-1.548,1.236H-97.9Zm1.688,1.832a.694.694,0,0,0,.784-.572c.048-.332-.1-.572-.6-.572h-.452l-.192,1.144Zm-.284,1.9c.524,0,.808-.216.88-.644.048-.356-.144-.6-.644-.6h-.5l-.192,1.236h.457Z" transform="translate(97.9 -432.4)" fill="#c6c6c6"/>
          <path id="Path_4" data-name="Path 4" d="M4.539,455.2c-.668.048-1-.024-1.144-.308a2.188,2.188,0,0,1-1.168.332c-.76,0-1.024-.38-.952-.832a.851.851,0,0,1,.356-.572c.4-.356,1.452-.4,1.856-.692.024-.308-.1-.428-.476-.428a2.478,2.478,0,0,0-1.452.572l.144-1A2.693,2.693,0,0,1,3.39,451.7c.784,0,1.476.308,1.332,1.168l-.144.976c-.048.332-.048.452.332.452ZM3.4,453.7c-.356.216-1.024.192-1.1.644a.309.309,0,0,0,.308.38,1.207,1.207,0,0,0,.668-.24.73.73,0,0,1,.024-.308Z" transform="translate(3.505 -450.772)" fill="#c6c6c6"/>
          <path id="Path_5" data-name="Path 5" d="M84.848,452.248H86.18l-.072.452a1.688,1.688,0,0,1,1.168-.5c.736,0,1.1.452.976,1.212l-.361,2.24H86.56l.284-1.856c.048-.332-.048-.5-.308-.5a.781.781,0,0,0-.6.356l-.308,1.976H84.3Z" transform="translate(-75.54 -451.248)" fill="#c6c6c6"/>
          <path id="Path_6" data-name="Path 6" d="M174.112,432.4h1.337l-.332,2.163L176.4,433.4h1.644l-1.644,1.452,1.308,1.957H176.02L175,435.232h-.024l-.24,1.572H173.4Z" transform="translate(-160.357 -432.4)" fill="#c6c6c6"/>
        </g>
        <g id="Group_2" data-name="Group 2" transform="translate(0)">
          <path id="Path_7" data-name="Path 7" d="M-97.208,432.4h2.572c1.1,0,1.356.548,1.284,1.072a1.171,1.171,0,0,1-.832.9c.62.24.856.6.76,1.168a1.5,1.5,0,0,1-1.548,1.236H-97.9Zm1.688,1.832a.694.694,0,0,0,.784-.572c.048-.332-.1-.572-.6-.572h-.452l-.192,1.144Zm-.284,1.9c.524,0,.808-.216.88-.644.048-.356-.144-.6-.644-.6h-.5l-.192,1.236h.457Z" transform="translate(97.9 -432.4)" fill="#c6c6c6"/>
          <path id="Path_8" data-name="Path 8" d="M4.539,455.2c-.668.048-1-.024-1.144-.308a2.188,2.188,0,0,1-1.168.332c-.76,0-1.024-.38-.952-.832a.851.851,0,0,1,.356-.572c.4-.356,1.452-.4,1.856-.692.024-.308-.1-.428-.476-.428a2.478,2.478,0,0,0-1.452.572l.144-1A2.693,2.693,0,0,1,3.39,451.7c.784,0,1.476.308,1.332,1.168l-.144.976c-.048.332-.048.452.332.452ZM3.4,453.7c-.356.216-1.024.192-1.1.644a.309.309,0,0,0,.308.38,1.207,1.207,0,0,0,.668-.24.73.73,0,0,1,.024-.308Z" transform="translate(3.505 -450.772)" fill="#c6c6c6"/>
          <path id="Path_9" data-name="Path 9" d="M84.848,452.248H86.18l-.072.452a1.688,1.688,0,0,1,1.168-.5c.736,0,1.1.452.976,1.212l-.361,2.24H86.56l.284-1.856c.048-.332-.048-.5-.308-.5a.781.781,0,0,0-.6.356l-.308,1.976H84.3Z" transform="translate(-75.54 -451.248)" fill="#c6c6c6"/>
          <path id="Path_10" data-name="Path 10" d="M174.112,432.4h1.337l-.332,2.163L176.4,433.4h1.644l-1.644,1.452,1.308,1.957H176.02L175,435.232h-.024l-.24,1.572H173.4Z" transform="translate(-160.357 -432.4)" fill="#c6c6c6"/>
        </g>
      </g>
      <g id="Group_4" data-name="Group 4" transform="translate(-80.121 44.587)">
        <path id="Path_11" data-name="Path 11" d="M272.592,432.4h1.548l-.692,4.38H271.9Z" transform="translate(-271.9 -432.4)" fill="#fff"/>
        <path id="Path_12" data-name="Path 12" d="M320.568,432.4h2.188a1.862,1.862,0,0,1,2.024,2.26,2.44,2.44,0,0,1-2.428,2.144H319.9ZM322,435.756a1.172,1.172,0,0,0,1.284-1.144c.1-.572-.1-1.144-.9-1.144h-.428l-.356,2.308.4-.019Z" transform="translate(-317.592 -432.4)" fill="#fff"/>
      </g>
    </g>
  </g>
</svg>
