<svg id="bonusar-table__bonus-icon" xmlns="http://www.w3.org/2000/svg" xmlns:xlink="http://www.w3.org/1999/xlink" width="22.516" height="30" viewBox="0 0 22.516 30">
  <defs>
    <clipPath id="clip-path">
      <path id="Clip_5" data-name="Clip 5" d="M0,0H9V9H0Z" fill="none"/>
    </clipPath>
    <clipPath id="clip-path-2">
      <path id="Clip_8" data-name="Clip 8" d="M0,0H7.14V7.914H0Z" fill="none"/>
    </clipPath>
    <clipPath id="clip-path-3">
      <path id="Clip_5-2" data-name="Clip 5" d="M0,0H12.747V12.626H0Z" fill="none"/>
    </clipPath>
    <clipPath id="clip-path-4">
      <path id="Clip_8-2" data-name="Clip 8" d="M0,0H10.113V11.1H0Z" fill="none"/>
    </clipPath>
    <clipPath id="clip-path-5">
      <path id="Clip_5-3" data-name="Clip 5" d="M0,0H20.236V20.045H0Z" fill="none"/>
    </clipPath>
    <clipPath id="clip-path-6">
      <path id="Clip_8-3" data-name="Clip 8" d="M0,0H16.054V17.625H0Z" fill="none"/>
    </clipPath>
  </defs>
  <g id="Group_24_Copy" data-name="Group 24 Copy" transform="translate(20.25 9) rotate(180)">
    <g id="Group_6" data-name="Group 6">
      <path id="Clip_5-4" data-name="Clip 5" d="M0,0H9V9H0Z" fill="none"/>
      <g id="Group_6-2" data-name="Group 6" clip-path="url(#clip-path)">
        <path id="Fill_4" data-name="Fill 4" d="M4.5,9A4.5,4.5,0,1,0,0,4.5,4.509,4.509,0,0,0,4.5,9" transform="translate(0 0)" fill="#f5be14"/>
      </g>
    </g>
    <g id="Group_9" data-name="Group 9" transform="translate(1.86)">
      <path id="Clip_8-4" data-name="Clip 8" d="M0,0H7.14V7.914H0Z" fill="none"/>
      <g id="Group_9-2" data-name="Group 9" clip-path="url(#clip-path-2)">
        <path id="Fill_7" data-name="Fill 7" d="M2.64,0A4.5,4.5,0,0,1,5.572,7.914,15.908,15.908,0,0,1,0,.856,4.479,4.479,0,0,1,2.64,0" transform="translate(0 0)" fill="#fad755"/>
      </g>
    </g>
    <path id="Fill_10" data-name="Fill 10" d="M3.1,0A3.1,3.1,0,1,1,0,3.1,3.1,3.1,0,0,1,3.1,0" transform="translate(1.401 1.401)" fill="#fad755"/>
    <path id="Fill_12" data-name="Fill 12" d="M3.1,5.5A3.1,3.1,0,0,1,1.137,0,3.1,3.1,0,0,0,5.278,4.6,3.089,3.089,0,0,1,3.1,5.5" transform="translate(1.401 2.101)" fill="#ffff9b"/>
    <path id="Fill_14" data-name="Fill 14" d="M2.195,0A3.1,3.1,0,0,1,3.846,5.722C6.853,2.751,3.484-1.393,0,.911A3.089,3.089,0,0,1,2.195,0" transform="translate(2.305 1.401)" fill="#d2a00a"/>
    <path id="Fill_16" data-name="Fill 16" d="M2.468,0A2.468,2.468,0,1,1,0,2.468,2.468,2.468,0,0,1,2.468,0" transform="translate(2.032 2.032)" fill="#f5be14"/>
    <path id="Fill_18" data-name="Fill 18" d="M1.735,0A2.468,2.468,0,0,1,2.994,4.591,13.192,13.192,0,0,1,0,.713,2.46,2.46,0,0,1,1.735,0" transform="translate(2.765 2.032)" fill="#fad755"/>
    <path id="Fill_20" data-name="Fill 20" d="M3.341,3.356a2.467,2.467,0,0,1-.4.664A13.192,13.192,0,0,1,0,.208,2.448,2.448,0,0,1,.7,0,13.194,13.194,0,0,0,3.341,3.356" transform="translate(3.452 2.057)" fill="#f5be14"/>
    <path id="Fill_22" data-name="Fill 22" d="M2.433,1.216A1.216,1.216,0,0,1,1.216,0,1.216,1.216,0,0,1,0,1.216,1.216,1.216,0,0,1,1.216,2.433,1.216,1.216,0,0,1,2.433,1.216" transform="translate(1.558 5.7)" fill="#fff"/>
  </g>
  <g id="Group_24_Copy_2" data-name="Group 24 Copy 2" transform="translate(11.443 0.907) rotate(65)">
    <g id="Group_6-3" data-name="Group 6">
      <path id="Clip_5-5" data-name="Clip 5" d="M0,0H12.747V12.626H0Z" fill="none"/>
      <g id="Group_6-4" data-name="Group 6" clip-path="url(#clip-path-3)">
        <path id="Fill_4-2" data-name="Fill 4" d="M6.373,12.626a6.356,6.356,0,0,0,6.373-6.313A6.374,6.374,0,0,0,0,6.313a6.356,6.356,0,0,0,6.373,6.313" transform="translate(0 0)" fill="#f5be14"/>
      </g>
    </g>
    <g id="Group_9-3" data-name="Group 9" transform="translate(2.634 0)">
      <path id="Clip_8-5" data-name="Clip 8" d="M0,0H10.113V11.1H0Z" fill="none"/>
      <g id="Group_9-4" data-name="Group 9" clip-path="url(#clip-path-4)">
        <path id="Fill_7-2" data-name="Fill 7" d="M3.739,0a6.343,6.343,0,0,1,6.373,6.313A6.273,6.273,0,0,1,7.892,11.1,22.353,22.353,0,0,1,0,1.2,6.385,6.385,0,0,1,3.739,0" transform="translate(0 0)" fill="#fad755"/>
      </g>
    </g>
    <path id="Fill_10-2" data-name="Fill 10" d="M4.389,0A4.348,4.348,0,1,1,0,4.348,4.369,4.369,0,0,1,4.389,0" transform="translate(1.984 1.965)" fill="#fad755"/>
    <path id="Fill_12-2" data-name="Fill 12" d="M4.389,7.713A4.369,4.369,0,0,1,0,3.366,4.324,4.324,0,0,1,1.611,0a4.314,4.314,0,0,0-1.3,3.091A4.4,4.4,0,0,0,7.475,6.457,4.4,4.4,0,0,1,4.389,7.713" transform="translate(1.984 2.947)" fill="#ffff9b"/>
    <path id="Fill_14-2" data-name="Fill 14" d="M3.108,0A4.369,4.369,0,0,1,7.5,4.348a4.335,4.335,0,0,1-2.05,3.679C9.705,3.86,4.934-1.954,0,1.278A4.4,4.4,0,0,1,3.108,0" transform="translate(3.265 1.965)" fill="#d2a00a"/>
    <path id="Fill_16-2" data-name="Fill 16" d="M3.5,0A3.462,3.462,0,1,1,0,3.462,3.479,3.479,0,0,1,3.5,0" transform="translate(2.878 2.851)" fill="#f5be14"/>
    <path id="Fill_18-2" data-name="Fill 18" d="M2.458,0A3.457,3.457,0,0,1,4.24,6.441,18.53,18.53,0,0,1,0,1,3.5,3.5,0,0,1,2.458,0" transform="translate(3.916 2.851)" fill="#fad755"/>
    <path id="Fill_20-2" data-name="Fill 20" d="M4.732,4.708a3.454,3.454,0,0,1-.56.932A18.531,18.531,0,0,1,0,.292,3.492,3.492,0,0,1,.988,0,18.538,18.538,0,0,0,4.732,4.708" transform="translate(4.889 2.886)" fill="#f5be14"/>
    <path id="Fill_22-2" data-name="Fill 22" d="M3.446,1.707A1.715,1.715,0,0,1,1.723,0,1.715,1.715,0,0,1,0,1.707,1.715,1.715,0,0,1,1.723,3.413,1.715,1.715,0,0,1,3.446,1.707" transform="translate(2.206 7.997)" fill="#fff"/>
  </g>
  <g id="Group_24" data-name="Group 24" transform="translate(2.279 9.955)">
    <g id="Group_6-5" data-name="Group 6">
      <path id="Clip_5-6" data-name="Clip 5" d="M0,0H20.236V20.045H0Z" fill="none"/>
      <g id="Group_6-6" data-name="Group 6" clip-path="url(#clip-path-5)">
        <path id="Fill_4-3" data-name="Fill 4" d="M10.118,20.045A10.09,10.09,0,0,0,20.236,10.023,10.119,10.119,0,0,0,0,10.023,10.09,10.09,0,0,0,10.118,20.045" transform="translate(0 0)" fill="#f5be14"/>
      </g>
    </g>
    <g id="Group_9-5" data-name="Group 9" transform="translate(4.182 0)">
      <path id="Clip_8-6" data-name="Clip 8" d="M0,0H16.054V17.625H0Z" fill="none"/>
      <g id="Group_9-6" data-name="Group 9" clip-path="url(#clip-path-6)">
        <path id="Fill_7-3" data-name="Fill 7" d="M5.936,0A10.07,10.07,0,0,1,16.054,10.022a9.959,9.959,0,0,1-3.526,7.6A35.487,35.487,0,0,1,0,1.906,10.136,10.136,0,0,1,5.936,0" transform="translate(0 0)" fill="#fad755"/>
      </g>
    </g>
    <path id="Fill_10-3" data-name="Fill 10" d="M6.968,0A6.9,6.9,0,1,1,0,6.9,6.935,6.935,0,0,1,6.968,0" transform="translate(3.15 3.12)" fill="#fad755"/>
    <path id="Fill_12-3" data-name="Fill 12" d="M6.968,12.245A6.935,6.935,0,0,1,0,5.343,6.865,6.865,0,0,1,2.557,0,6.849,6.849,0,0,0,.488,4.908a6.982,6.982,0,0,0,11.379,5.343,6.98,6.98,0,0,1-4.9,1.994" transform="translate(3.15 4.679)" fill="#ffff9b"/>
    <path id="Fill_14-3" data-name="Fill 14" d="M4.934,0A6.935,6.935,0,0,1,11.9,6.9a6.882,6.882,0,0,1-3.255,5.841C15.408,6.128,7.833-3.1,0,2.029A6.98,6.98,0,0,1,4.934,0" transform="translate(5.184 3.12)" fill="#d2a00a"/>
    <path id="Fill_16-3" data-name="Fill 16" d="M5.549,0A5.5,5.5,0,1,1,0,5.5,5.523,5.523,0,0,1,5.549,0" transform="translate(4.569 4.526)" fill="#f5be14"/>
    <path id="Fill_18-3" data-name="Fill 18" d="M3.9,0A5.488,5.488,0,0,1,6.731,10.226,29.417,29.417,0,0,1,0,1.589,5.557,5.557,0,0,1,3.9,0" transform="translate(6.216 4.526)" fill="#fad755"/>
    <path id="Fill_20-3" data-name="Fill 20" d="M7.513,7.474a5.484,5.484,0,0,1-.889,1.479A29.418,29.418,0,0,1,0,.464,5.544,5.544,0,0,1,1.568,0,29.43,29.43,0,0,0,7.513,7.474" transform="translate(7.762 4.581)" fill="#f5be14"/>
    <path id="Fill_22-3" data-name="Fill 22" d="M5.47,2.709A2.722,2.722,0,0,1,2.735,0,2.722,2.722,0,0,1,0,2.709,2.722,2.722,0,0,1,2.735,5.418,2.722,2.722,0,0,1,5.47,2.709" transform="translate(3.502 12.695)" fill="#fff"/>
  </g>
</svg>
