<svg width="40" height="40" viewBox="0 0 40 40" fill="none" xmlns="http://www.w3.org/2000/svg">
<path d="M20 0C8.95167 0 0 8.95167 0 20C0 31.0483 8.95167 40 20 40C31.0483 40 40 31.0483 40 20C40 19.1933 39.9417 18.4 39.8433 17.61C39.1536 18.083 38.3364 18.3353 37.5 18.3333C36.6484 18.3315 35.8178 18.0685 35.1204 17.5797C34.423 17.0909 33.8923 16.3999 33.6 15.6C32.5267 16.2925 31.2773 16.6627 30 16.6667C26.3167 16.6667 23.3333 13.6833 23.3333 10C23.3333 8.77667 23.6833 7.64333 24.265 6.65333C24.2327 6.66101 24.1998 6.66547 24.1667 6.66667C23.6193 6.66733 23.0772 6.56 22.5714 6.35084C22.0656 6.14168 21.606 5.83479 21.2189 5.44775C20.8319 5.0607 20.525 4.60111 20.3158 4.09529C20.1067 3.58947 19.9993 3.04736 20 2.5C20 1.56833 20.3133 0.723333 20.8267 0.0333333C20.5533 0.02 20.28 0 20 0ZM32.5 0C32.1717 -6.91851e-09 31.8466 0.0646642 31.5433 0.190301C31.24 0.315938 30.9644 0.500086 30.7322 0.732233C30.5001 0.964379 30.3159 1.23998 30.1903 1.54329C30.0647 1.84661 30 2.1717 30 2.5C30 2.8283 30.0647 3.15339 30.1903 3.45671C30.3159 3.76002 30.5001 4.03562 30.7322 4.26777C30.9644 4.49991 31.24 4.68406 31.5433 4.8097C31.8466 4.93534 32.1717 5 32.5 5C33.163 5 33.7989 4.73661 34.2678 4.26777C34.7366 3.79893 35 3.16304 35 2.5C35 1.83696 34.7366 1.20107 34.2678 0.732233C33.7989 0.263392 33.163 1.39725e-08 32.5 0ZM16.75 3.64667C16.9148 4.68867 17.2961 5.68457 17.8694 6.57017C18.4426 7.45577 19.1951 8.21139 20.0783 8.78833C20.0261 9.19011 19.9999 9.59484 20 10C20 15.515 24.485 20 30 20C30.8267 20 31.6533 19.895 32.4483 19.6867C33.5954 20.7426 35.042 21.4164 36.5883 21.615C35.775 30.05 28.6467 36.6667 20 36.6667C10.8067 36.6667 3.33333 29.1933 3.33333 20C3.33333 11.92 9.115 5.16333 16.75 3.645V3.64667ZM30 8.33333C29.0833 8.33333 28.3333 9.08333 28.3333 10C28.3333 10.9167 29.0833 11.6667 30 11.6667C30.9167 11.6667 31.6667 10.9167 31.6667 10C31.6667 9.08333 30.9167 8.33333 30 8.33333ZM16.6667 10C15.75 10 15 10.75 15 11.6667C15 12.5833 15.75 13.3333 16.6667 13.3333C17.5833 13.3333 18.3333 12.5833 18.3333 11.6667C18.3333 10.75 17.5833 10 16.6667 10ZM38.3333 10C37.4167 10 36.6667 10.75 36.6667 11.6667C36.6667 12.5833 37.4167 13.3333 38.3333 13.3333C39.25 13.3333 40 12.5833 40 11.6667C40 10.75 39.25 10 38.3333 10ZM11.6667 15C10.7826 15 9.93477 15.3512 9.30964 15.9763C8.68452 16.6014 8.33333 17.4493 8.33333 18.3333C8.33333 19.2174 8.68452 20.0652 9.30964 20.6904C9.93477 21.3155 10.7826 21.6667 11.6667 21.6667C12.5507 21.6667 13.3986 21.3155 14.0237 20.6904C14.6488 20.0652 15 19.2174 15 18.3333C15 17.4493 14.6488 16.6014 14.0237 15.9763C13.3986 15.3512 12.5507 15 11.6667 15ZM20 18.3333C19.0833 18.3333 18.3333 19.0833 18.3333 20C18.3333 20.9167 19.0833 21.6667 20 21.6667C20.9167 21.6667 21.6667 20.9167 21.6667 20C21.6667 19.0833 20.9167 18.3333 20 18.3333ZM14.1667 25C13.5036 25 12.8677 25.2634 12.3989 25.7322C11.9301 26.2011 11.6667 26.837 11.6667 27.5C11.6667 28.163 11.9301 28.7989 12.3989 29.2678C12.8677 29.7366 13.5036 30 14.1667 30C14.8297 30 15.4656 29.7366 15.9344 29.2678C16.4033 28.7989 16.6667 28.163 16.6667 27.5C16.6667 26.837 16.4033 26.2011 15.9344 25.7322C15.4656 25.2634 14.8297 25 14.1667 25ZM25.8333 26.6667C25.1703 26.6667 24.5344 26.9301 24.0656 27.3989C23.5967 27.8677 23.3333 28.5036 23.3333 29.1667C23.3333 29.8297 23.5967 30.4656 24.0656 30.9344C24.5344 31.4033 25.1703 31.6667 25.8333 31.6667C26.4964 31.6667 27.1323 31.4033 27.6011 30.9344C28.0699 30.4656 28.3333 29.8297 28.3333 29.1667C28.3333 28.5036 28.0699 27.8677 27.6011 27.3989C27.1323 26.9301 26.4964 26.6667 25.8333 26.6667Z" fill="#D96195"/>
</svg>
