<svg id="express" xmlns="http://www.w3.org/2000/svg" width="24" height="24" viewBox="0 0 24 24">
  <g id="express-delivery" transform="translate(3 3)">
    <path id="Shape" d="M6.551,15.874a.929.929,0,0,1-.438-.645.9.9,0,0,1,.22-.74,1.017,1.017,0,0,1,1.274-.181,5.862,5.862,0,0,0,7.387-1.153,5.183,5.183,0,0,0-.279-7.112,5.875,5.875,0,0,0-7.457-.626,1.015,1.015,0,0,1-1.337-.223A.9.9,0,0,1,6.1,3.914,7.878,7.878,0,0,1,9.616,2.569v-.7h-.76a1.013,1.013,0,0,1-.729-.308A.907.907,0,0,1,7.878.841,1,1,0,0,1,8.9,0h3.432a1.01,1.01,0,0,1,.724.311.907.907,0,0,1,.248.717,1,1,0,0,1-1.023.841h-.707v.7a7.8,7.8,0,0,1,3.7,1.472l.812-.772a1.053,1.053,0,0,1,.594-.293,1.016,1.016,0,0,1,.822.266.906.906,0,0,1,.28.781.964.964,0,0,1-.307.565l-.818.779a6.933,6.933,0,0,1,1.56,4.469,7.4,7.4,0,0,1-6.45,7.078,7.932,7.932,0,0,1-1.15.084A7.851,7.851,0,0,1,6.551,15.874Zm-3.064-2.54a.746.746,0,1,1,0-1.49H6.782a.765.765,0,0,1,.784.745h0a.765.765,0,0,1-.784.744Zm6-2.546a1.4,1.4,0,0,1-.283-1.68A1.552,1.552,0,0,1,10.8,8.321L12.96,6.672a.641.641,0,0,1,.824.042.565.565,0,0,1,.043.782V7.5L12.093,9.56a1.44,1.44,0,0,1-.835,1.5,1.594,1.594,0,0,1-.681.152A1.573,1.573,0,0,1,9.491,10.788Zm-7.233-.114A.79.79,0,0,1,1.58,10.3a.71.71,0,0,1,0-.744.792.792,0,0,1,.679-.373H6.781a.746.746,0,1,1,0,1.489ZM.784,8.017a.791.791,0,0,1-.679-.372.712.712,0,0,1,0-.745.792.792,0,0,1,.679-.373h6a.792.792,0,0,1,.679.373.712.712,0,0,1,0,.745.791.791,0,0,1-.679.372Z" fill="#003e52"/>
  </g>
</svg>
