<?xml version="1.0" encoding="UTF-8"?>
<svg width="19px" height="17px" viewBox="0 0 19 17" version="1.1" xmlns="http://www.w3.org/2000/svg" xmlns:xlink="http://www.w3.org/1999/xlink">
    <!-- Generator: Sketch 64 (93537) - https://sketch.com -->
    <title>express-stopwatch</title>
    <desc>Created with Sketch.</desc>
    <g id="Desktop" stroke="none" stroke-width="1" fill="none" fill-rule="evenodd">
        <g id="D---Vinstsida" transform="translate(-476.000000, -416.000000)" fill="#003E52" fill-rule="nonzero">
            <g id="express-stopwatch" transform="translate(476.000000, 416.000000)">
                <path d="M13.8270706,7.50157898 L12.092995,9.55951749 C12.1842064,10.1797719 11.8478347,10.7859555 11.2578318,11.0645856 C10.667829,11.3432156 9.95648781,11.2318165 9.49167248,10.7879974 C9.02685715,10.3441783 8.91279049,9.66745411 9.20846112,9.1077871 C9.50413176,8.54812009 10.1432432,8.23100115 10.7952842,8.32042568 L12.9600328,6.67191052 C13.2053222,6.48388647 13.5602672,6.50192466 13.7830731,6.71373716 C14.0058789,6.92554967 14.0248533,7.26298141 13.8270706,7.4961681 L13.8270706,7.50157898 Z M7.56618517,12.589611 C7.56618517,12.1782152 7.21537372,11.844713 6.78262588,11.844713 L3.48712347,11.844713 C3.05437563,11.844713 2.70356418,12.1782152 2.70356418,12.589611 C2.70356418,13.0010068 3.05437563,13.334509 3.48712347,13.334509 L6.78072864,13.334509 C7.21347649,13.334509 7.56428793,13.0010068 7.56428793,12.589611 L7.56618517,12.589611 Z M17.4716648,4.59052485 C17.6369414,4.43981832 17.7450255,4.24129278 17.7790173,4.02598957 C17.8179622,3.73830109 17.7144185,3.44970193 17.4986692,3.24459782 C17.2829199,3.03949371 16.979342,2.94105887 16.676722,2.97808223 C16.4501995,3.01026544 16.241328,3.11303746 16.0828865,3.27026982 L15.2708687,4.04222222 C14.1993359,3.24542989 12.9222051,2.7371082 11.5731518,2.57046251 L11.5731518,1.86885157 L12.2808216,1.86885157 C12.7972156,1.87743636 13.2377437,1.5153637 13.3034329,1.02836135 C13.3306145,0.766769502 13.2408458,0.506367071 13.0560711,0.310810531 C12.8712964,0.115253992 12.6085448,0.00256610608 12.332047,0.00014439769 L8.89994348,0.00014439769 C8.38354947,-0.00829088618 7.94302134,0.353781776 7.8773322,0.84078413 C7.85003162,1.10362027 7.94079822,1.36518952 8.1272497,1.56099097 C8.31370117,1.75679243 8.57848479,1.86860317 8.85630701,1.86885157 L9.61520221,1.86885157 L9.61520221,2.56865888 C8.34307266,2.72935707 7.1340169,3.19209455 6.0996202,3.91416469 C5.68957549,4.22651897 5.61127658,4.79057266 5.92204963,5.19335654 C6.23282269,5.59614042 6.82227092,5.69457244 7.25883261,5.41658606 C9.55558636,3.80956637 12.7512987,4.07813716 14.715873,6.04328302 C16.6804472,8.00842888 16.8001011,11.0561889 14.9950795,13.1550838 C13.1900579,15.2539787 10.0242948,15.748261 7.6079244,14.3084676 C7.19520616,14.057431 6.65092764,14.1344285 6.33298047,14.4888303 L6.33298047,14.4888303 C6.15107193,14.6937352 6.07074791,14.9631657 6.11251522,15.2283359 C6.15428252,15.4935062 6.31409881,15.7287524 6.55116284,15.8740159 C8.09788803,16.8109566 9.95013398,17.1814605 11.7628756,16.9165124 C15.4381776,16.3638677 18.1613033,13.3761285 18.2134848,9.83907969 C18.2382353,8.22478742 17.6886912,6.64987295 16.6539552,5.36969176 L17.4716648,4.59052485 Z M6.78072864,8.01741633 C7.06066742,8.01741633 7.31934152,7.87543959 7.45931092,7.64496734 C7.59928031,7.4144951 7.59928031,7.13054158 7.45931092,6.90006933 C7.31934152,6.66959709 7.06066742,6.52762035 6.78072864,6.52762035 L0.783559326,6.52762035 C0.503620545,6.52762035 0.244946439,6.66959709 0.104977045,6.90006933 C-0.0349923485,7.13054158 -0.0349923485,7.4144951 0.104977045,7.64496734 C0.244946439,7.87543959 0.503620545,8.01741633 0.783559326,8.01741633 L6.78072864,8.01741633 Z M6.78072864,9.18436305 L2.25771325,9.18436305 C1.97777447,9.18436305 1.71910036,9.3263398 1.57913097,9.55681204 C1.43916158,9.78728428 1.43916158,10.0712378 1.57913097,10.30171 C1.71910036,10.5321823 1.97777447,10.674159 2.25771325,10.674159 L6.78072864,10.674159 C7.21347649,10.674159 7.56428793,10.3406568 7.56428793,9.92926104 C7.56428793,9.51786524 7.21347649,9.18436305 6.78072864,9.18436305 Z" id="Shape"></path>
            </g>
        </g>
    </g>
</svg>