<svg width="26" height="23" viewBox="0 0 26 23" fill="none" xmlns="http://www.w3.org/2000/svg">
<path d="M23.1538 1H2.84615C2.35652 1 1.88695 1.1945 1.54073 1.54073C1.1945 1.88695 1 2.35652 1 2.84615V20.3846C1 20.8742 1.1945 21.3438 1.54073 21.69C1.88695 22.0363 2.35652 22.2308 2.84615 22.2308H23.1538C23.6435 22.2308 24.1131 22.0363 24.4593 21.69C24.8055 21.3438 25 20.8742 25 20.3846V2.84615C25 2.35652 24.8055 1.88695 24.4593 1.54073C24.1131 1.1945 23.6435 1 23.1538 1Z" stroke="#074658" stroke-width="1.5" stroke-linecap="round" stroke-linejoin="round"/>
<path d="M15.7696 14.8455C16.6264 14.8455 17.4482 14.5051 18.0541 13.8993C18.66 13.2934 19.0003 12.4716 19.0003 11.6148M15.7696 14.8455C14.9127 14.8455 14.091 14.5051 13.4851 13.8993C12.8792 13.2934 12.5388 12.4716 12.5388 11.6148M15.7696 14.8455V17.1532M19.0003 11.6148C19.0003 10.7579 18.66 9.93614 18.0541 9.33026C17.4482 8.72437 16.6264 8.38399 15.7696 8.38399M19.0003 11.6148H21.308M15.7696 8.38399C14.9127 8.38399 14.091 8.72437 13.4851 9.33026C12.8792 9.93614 12.5388 10.7579 12.5388 11.6148M15.7696 8.38399V6.07629M12.5388 11.6148H10.2311M19.6834 7.70091L18.0588 9.32553M13.4803 13.904L11.8557 15.5286M19.6834 15.5286L18.0588 13.904M13.4803 9.32553L11.8557 7.70091M5.61572 8.38399V14.8455" stroke="#074658" stroke-width="1.5" stroke-linecap="round" stroke-linejoin="round"/>
</svg>
