<?xml version="1.0" encoding="utf-8"?>
<svg width="16px" height="28px" viewBox="0 0 16 28" version="1.1" xmlns:xlink="http://www.w3.org/1999/xlink" xmlns="http://www.w3.org/2000/svg">
  <desc>Created with Lunacy</desc>
  <g id="Group">
    <g id="Mastercard" transform="translate(0 15)" opacity="0.5">
      <path d="M0.500287 0C0.223752 0 0 0.222795 0 0.5C0 0.774914 0.223752 1 0.500287 1C0.777395 1 1 0.774914 1 0.5C1 0.222795 0.777395 0 0.500287 0ZM0.500287 0.879725C0.709696 0.879725 0.880092 0.709622 0.880092 0.5C0.880092 0.288087 0.709696 0.119702 0.500287 0.119702C0.290304 0.119702 0.119908 0.288087 0.119908 0.5C0.119908 0.709622 0.290304 0.879725 0.500287 0.879725ZM0.329317 0.71764L0.432588 0.71764L0.432588 0.545819L0.507745 0.545819L0.574871 0.71764L0.689042 0.71764L0.607 0.5252L0.683878 0.410653L0.628801 0.30126L0.516351 0.280641L0.329317 0.280641L0.329317 0.71764ZM0.489386 0.470218L0.432588 0.470218L0.432588 0.357961L0.486518 0.357961L0.552496 0.365407L0.57774 0.41008L0.551922 0.460481L0.489386 0.470218Z" transform="translate(13.547852 9.231201)" id="Fill-1" fill="#FFFFFE" fill-rule="evenodd" stroke="none" />
      <path d="M14.3062 0L14.3062 1.82341L14.0332 1.82341L14.0332 1.66538C13.9354 1.79101 13.7829 1.86232 13.6237 1.8562C13.2466 1.8562 12.941 1.55062 12.941 1.17373C12.941 0.796839 13.2466 0.491259 13.6237 0.491259C13.7829 0.485531 13.9354 0.556444 14.0332 0.682469L14.0332 0L14.3062 0ZM6.31032 0.524049L5.84336 0.524049L5.84336 0.128198L5.55674 0.128198L5.55674 0.524049L5.29738 0.524049L5.29738 0.783605L5.56227 0.783605L5.56227 1.3841C5.56227 1.68711 5.67961 1.86726 6.01541 1.86726C6.14084 1.86765 6.2639 1.83249 6.37037 1.76612L6.28839 1.52336C6.21215 1.56859 6.12583 1.59407 6.03733 1.59704C5.90064 1.59704 5.84889 1.50953 5.84889 1.37857L5.84889 0.783605L6.31289 0.783605L6.31032 0.524049ZM9.01689 1.17373C9.00346 1.53758 9.2877 1.84356 9.65156 1.85679C9.6721 1.85758 9.69264 1.85738 9.71299 1.8562C9.88346 1.86489 10.0512 1.80938 10.1827 1.70074L10.046 1.47141C9.94805 1.54627 9.82835 1.58736 9.70489 1.58874C9.47417 1.57017 9.30232 1.3681 9.32089 1.13738C9.33748 0.932543 9.50025 0.769975 9.70489 0.753383C9.82835 0.754765 9.94805 0.795852 10.046 0.870716L10.1827 0.64158C10.0512 0.532741 9.88346 0.477235 9.71299 0.485926C9.34953 0.465185 9.03822 0.743309 9.01748 1.10677Q9.0157 1.13758 9.01689 1.1684L9.01689 1.17373ZM8.38775 0.682469C8.45867 0.560593 8.59062 0.487309 8.73165 0.491259L8.72632 0.485926C8.79506 0.486123 8.86341 0.498173 8.9282 0.521284L8.84089 0.794272C8.7844 0.771951 8.72415 0.760691 8.66351 0.761481C8.48336 0.761481 8.39032 0.881778 8.39032 1.09748L8.39032 1.82914L8.10647 1.82914L8.10647 0.524049L8.38775 0.524049L8.38775 0.682469ZM12.3311 0.682469C12.402 0.560593 12.5339 0.487309 12.675 0.491259L12.6694 0.485926C12.7384 0.486123 12.8067 0.498173 12.8715 0.521284L12.7842 0.794272C12.7277 0.771951 12.6675 0.760691 12.6068 0.761481C12.4267 0.761481 12.3338 0.881778 12.3338 1.09748L12.3338 1.82914L12.0498 1.82914L12.0498 0.524049L12.3311 0.524049L12.3311 0.682469ZM2.06933 1.00998L2.06933 1.82914L1.78272 1.83447L1.78272 1.10835C1.78272 0.887111 1.68988 0.764247 1.4961 0.764247C1.47773 0.763457 1.45936 0.764247 1.44119 0.766617C1.27309 0.788543 1.15457 0.942815 1.17669 1.11111L1.17669 1.83447L0.890074 1.83447L0.890074 1.10835C0.890074 0.887111 0.794469 0.764247 0.606222 0.764247C0.586667 0.763259 0.567506 0.764049 0.548346 0.766815C0.380839 0.789531 0.263901 0.943605 0.286815 1.11111L0.286815 1.82914L0 1.82914L0 0.524049L0.284049 0.524049L0.284049 0.685235C0.368 0.557432 0.513383 0.483556 0.666074 0.491259C0.841481 0.483753 1.00701 0.572839 1.09748 0.723358C1.19664 0.568296 1.37244 0.479407 1.55615 0.491259C1.57689 0.490074 1.59763 0.490272 1.61817 0.491654C1.88583 0.510222 2.0879 0.742321 2.06933 1.00998ZM5.07082 0.627951C4.91022 0.532346 4.72533 0.484938 4.53847 0.491259C4.2082 0.491259 3.99249 0.649679 3.99249 0.90884C3.99249 1.12198 4.15091 1.25314 4.44286 1.29402L4.57956 1.31299C4.73501 1.33491 4.80889 1.3758 4.80889 1.44968C4.80889 1.55062 4.70499 1.6079 4.51121 1.6079C4.35536 1.61244 4.20247 1.56444 4.07723 1.47141L3.94054 1.69244C4.10607 1.808 4.3042 1.86726 4.50568 1.86173C4.88257 1.86173 5.10084 1.68435 5.10084 1.43585C5.10084 1.18756 4.92879 1.08642 4.64494 1.04553L4.50844 1.02637C4.38558 1.00998 4.28741 0.985482 4.28741 0.898173C4.28741 0.810667 4.38025 0.745086 4.5359 0.745086C4.6797 0.746864 4.82074 0.785383 4.94519 0.857284L5.07082 0.627951ZM3.67032 1.82341L3.38647 1.82341L3.38647 1.66538C3.28869 1.79101 3.13639 1.86232 2.97699 1.8562C2.6001 1.8562 2.29452 1.55062 2.29452 1.17373C2.29452 0.796839 2.6001 0.491259 2.97699 0.491259C3.13639 0.485531 3.28869 0.556444 3.38647 0.682469L3.38647 0.524049L3.67032 0.524049L3.67032 1.82341ZM11.6759 0.524049L11.6759 1.82341L11.392 1.82341L11.392 1.66538C11.2942 1.79101 11.1417 1.86232 10.9825 1.8562C10.6056 1.8562 10.3 1.55062 10.3 1.17373C10.3 0.796839 10.6056 0.491259 10.9825 0.491259C11.1417 0.485531 11.2942 0.556444 11.392 0.682469L11.392 0.524049L11.6759 0.524049ZM6.52049 1.18341C6.51516 0.806519 6.81639 0.49679 7.19328 0.491259L7.19743 0.494025C7.56326 0.494025 7.81728 0.76721 7.81728 1.17649L7.81728 1.28573L6.848 1.28573C6.87032 1.4803 7.04316 1.62193 7.23832 1.60514C7.37659 1.60316 7.51012 1.55516 7.61778 1.46864L7.75447 1.67881C7.60197 1.80326 7.40879 1.86627 7.21244 1.8562C6.83556 1.86173 6.52563 1.5603 6.52049 1.18341ZM7.19328 0.745086C7.37205 0.741531 7.5198 0.88316 7.52375 1.06173L7.52375 1.06193L6.84128 1.06193C6.85156 0.879605 7.00543 0.738963 7.18795 0.745086L7.19328 0.745086ZM10.6193 1.17373C10.6321 0.956444 10.819 0.790519 11.0364 0.80316C11.2539 0.816198 11.4199 1.00267 11.407 1.22035C11.3948 1.42795 11.2233 1.59052 11.0151 1.59131C10.7988 1.59427 10.6212 1.42104 10.6187 1.20494L10.6193 1.17373ZM2.61393 1.17649C2.62677 0.959012 2.81343 0.793284 3.03091 0.805926C3.2484 0.818765 3.41432 1.00563 3.40148 1.22291C3.38943 1.43072 3.21778 1.59309 3.00978 1.59427C2.79348 1.59862 2.61472 1.42657 2.61037 1.21027L2.61136 1.17649L2.61393 1.17649ZM13.2565 1.17649C13.2693 0.959012 13.456 0.793284 13.6735 0.805926C13.891 0.818765 14.0569 1.00563 14.044 1.22291C14.0318 1.43072 13.8603 1.59309 13.6523 1.59427C13.436 1.59704 13.2583 1.4238 13.2557 1.20751L13.2565 1.17649ZM14.7799 1.63931L14.8316 1.64899L14.8739 1.67605L14.9027 1.71694C14.9165 1.74914 14.9165 1.78588 14.9027 1.81807L14.8739 1.85896L14.8316 1.88642C14.8152 1.89353 14.7976 1.89709 14.7799 1.89709C14.7269 1.89669 14.6791 1.86607 14.6568 1.81807C14.6432 1.78588 14.6432 1.74933 14.6568 1.71694L14.6856 1.67605L14.7279 1.64899C14.7457 1.64168 14.7646 1.63852 14.7838 1.63931L14.7799 1.63931ZM14.8194 1.86173L14.7817 1.86963L14.7401 1.86173L14.7074 1.8398C14.672 1.80128 14.672 1.74202 14.7074 1.70351L14.7401 1.68158L14.7799 1.67348L14.8194 1.68158L14.8508 1.70351C14.8861 1.74202 14.8861 1.80128 14.8508 1.8398L14.8194 1.86173ZM14.7817 1.86963L14.7799 1.87002L14.7838 1.87002L14.7817 1.86963ZM14.788 1.70746L14.8235 1.71852L14.8358 1.74716L14.8261 1.77165L14.7974 1.7839L14.8371 1.82914L14.8057 1.82914L14.7688 1.7839L14.7565 1.7839L14.7565 1.82914L14.7305 1.82914L14.7305 1.70884L14.788 1.70746ZM14.7579 1.76356L14.7579 1.73077L14.788 1.73906L14.8043 1.73906L14.8043 1.76356L14.7579 1.76356Z" transform="translate(0.82373047 10.470703)" id="Fill-43" fill="#1C1B19" fill-rule="evenodd" stroke="none" />
      <path d="M0 7.72701L4.29965 7.72701L4.29965 0L0 0L0 7.72701Z" transform="translate(5.800537 1.0510254)" id="Fill-44" fill="#E05A29" stroke="none" />
      <path d="M6.07351 4.91478C6.07173 3.40663 6.76388 1.98165 7.95025 1.05048C5.81652 -0.626355 2.72734 -0.255984 1.0505 1.87774C-0.62634 4.01147 -0.255969 7.10066 1.87756 8.77769C3.65968 10.178 6.16813 10.178 7.95025 8.77769C6.76428 7.84673 6.07233 6.42234 6.07351 4.91478" transform="translate(0 0.00061035156)" id="Fill-45" fill="#D6232A" stroke="none" />
      <path d="M7.95082 4.91534C7.95062 7.62922 5.75072 9.82912 3.03684 9.82912C1.93541 9.82912 0.865778 9.45895 0 8.77826C2.13373 7.10122 2.5041 4.01203 0.827062 1.87831C0.585284 1.57075 0.307556 1.29282 0 1.05105C2.13333 -0.626189 5.22252 -0.256411 6.89995 1.87712C7.58064 2.7429 7.95082 3.81253 7.95082 4.91396L7.95082 4.91534" transform="translate(7.9501953 0)" id="Fill-46" fill="#EB972F" stroke="none" />
    </g>
    <g id="Visa-kort" opacity="0.5">
      <path d="M0 10.1197L15.9305 10.1197L15.9305 0L0 0L0 10.1197Z" id="Fill-39" fill="#FFFFFE" stroke="none" />
      <path d="M0 1.38062L15.3997 1.38062L15.3997 0L0 0L0 1.38062Z" transform="translate(0.26513672 8.47522)" id="Fill-40" fill="#EFA92E" stroke="none" />
      <path d="M0 1.38077L15.3997 1.38077L15.3997 0L0 0L0 1.38077Z" transform="translate(0.26513672 0.26538086)" id="Fill-41" fill="#2C2A66" stroke="none" />
      <path d="M8.67923 2.62523C8.68162 2.02594 8.1855 1.76542 7.78855 1.55697C7.52211 1.41706 7.30035 1.30061 7.304 1.12092C7.30692 0.984923 7.43661 0.839692 7.72015 0.802923C7.86077 0.784615 8.24892 0.770308 8.68846 0.972769L8.86046 0.168C8.62446 0.0823077 8.32031 0 7.94231 0C6.97169 0 6.28892 0.515692 6.28338 1.25446C6.27708 1.80077 6.77092 2.10538 7.14262 2.28708C7.52523 2.47323 7.654 2.59246 7.65185 2.75892C7.64938 3.01354 7.34646 3.126 7.06477 3.13046C6.58538 3.13793 6.30155 3.00521 6.07636 2.89991C6.06958 2.89673 6.06284 2.89358 6.05615 2.89046L5.87846 3.72215C6.10769 3.82754 6.53123 3.91892 6.96969 3.92369C8.00138 3.92369 8.676 3.41431 8.67923 2.62523ZM3.02246 3.86415L4.61323 0.0693846L3.58154 0.0693846L2.56031 2.65215L2.14677 0.456C2.098 0.210923 1.90662 0.0693846 1.694 0.0693846L0.0232308 0.0693846L0 0.179385C0.342615 0.254 0.732462 0.373846 0.968615 0.502308C1.11292 0.581077 1.154 0.649385 1.20185 0.835539L1.98431 3.86415L3.02246 3.86415ZM6.01615 0.0693846L5.20415 3.86415L4.22231 3.86415L5.03431 0.0693846L6.01615 0.0693846ZM12.15 3.86415L11.2422 3.86415L11.1235 3.29738L9.86385 3.29738L9.65908 3.86415L8.628 3.86415L10.1011 0.347692C10.1715 0.178769 10.3306 0.0693846 10.5194 0.0693846L11.3569 0.0693846L12.15 3.86415ZM10.1463 2.51954L10.6631 1.09462L10.9605 2.51954L10.1463 2.51954Z" transform="translate(1.6865234 3.0979004)" id="Fill-42" fill="#2C2A66" fill-rule="evenodd" stroke="none" />
    </g>
  </g>
</svg>