<svg width="22" height="22" viewBox="0 0 22 22" fill="none" xmlns="http://www.w3.org/2000/svg">
<path d="M9 7C9.21955 7.30762 9.51696 7.55984 9.86585 7.73429C10.2147 7.90873 10.6043 8 11 8C11.3957 8 11.7853 7.90873 12.1341 7.73429C12.483 7.55984 12.7804 7.30762 13 7" stroke="#074658" stroke-width="1.5" stroke-linecap="round" stroke-linejoin="round"/>
<path d="M7.05839 3.0915C7.33728 3.35496 9.05757 4.59621 11.1967 4.59621C13.3358 4.59621 14.9558 3.35496 15.2336 3.0915M11 21C16.8333 21 21 19.2116 21 15.2308C21 10.9039 18 9.16345 13 7L15.6633 3.6232C15.7482 3.4821 15.7903 3.32462 15.7854 3.16558C15.7806 3.00655 15.7291 2.85119 15.6357 2.71414C15.5424 2.57709 15.4102 2.46285 15.2518 2.38218C15.0933 2.30151 14.7226 2.13565 14.3577 2.00946V2.00946C12.3011 1.35268 10.0656 1.35799 8.0073 2.00946V2.00946C7.64234 2.13565 7.27393 2.29267 7.10385 2.37708C6.93376 2.46148 6.79333 2.58424 6.69753 2.73228C6.60173 2.88032 6.55416 3.04809 6.55987 3.21769C6.56559 3.38729 6.62439 3.55237 6.73 3.69532L9 7C4 9.19229 1 10.9328 1 15.2597C1 19.2116 5.16667 21 11 21Z" stroke="#074658" stroke-width="1.5" stroke-linecap="round" stroke-linejoin="round"/>
<path d="M10.2002 8C10.2002 8.375 9.8002 9.2 8.2002 9.5" stroke="#074658" stroke-width="1.5" stroke-linecap="round"/>
<path d="M11.7002 8C11.7002 8.375 12.1002 9.2 13.7002 9.5" stroke="#074658" stroke-width="1.5" stroke-linecap="round"/>
</svg>
