<svg width="22" height="22" viewBox="0 0 22 22" fill="none" xmlns="http://www.w3.org/2000/svg">
<path d="M10.495 12.5332C14.679 12.5332 18.0707 13.6224 18.0707 14.9673V18.4884C18.0707 19.8746 14.679 20.9992 10.495 20.9992C6.31114 20.9992 2.91943 19.8758 2.91943 18.4884V14.9673C2.91943 13.6224 6.31114 12.5332 10.495 12.5332Z" fill="white"/>
<path d="M18.0707 14.9673C18.0707 13.6224 14.679 12.5332 10.495 12.5332C6.31114 12.5332 2.91943 13.6224 2.91943 14.9673M18.0707 14.9673C18.0707 16.3121 14.679 17.4013 10.495 17.4013C6.31114 17.4013 2.91943 16.3121 2.91943 14.9673M18.0707 14.9673V18.4884C18.0707 19.8746 14.679 20.9992 10.495 20.9992C6.31114 20.9992 2.91943 19.8758 2.91943 18.4884V14.9673" stroke="#074658" stroke-width="1.5"/>
<path d="M13.4242 6.28967C17.6082 6.28967 20.9999 7.37891 20.9999 8.72373V12.2449C20.9999 13.6311 17.6082 14.7556 13.4242 14.7556C9.24034 14.7556 5.84863 13.6323 5.84863 12.2449V8.72373C5.84863 7.37891 9.24034 6.28967 13.4242 6.28967Z" fill="white"/>
<path d="M20.9999 8.72373C20.9999 7.37891 17.6082 6.28967 13.4242 6.28967C9.24034 6.28967 5.84863 7.37891 5.84863 8.72373M20.9999 8.72373C20.9999 10.0686 17.6082 11.1578 13.4242 11.1578C9.24034 11.1578 5.84863 10.0686 5.84863 8.72373M20.9999 8.72373V12.2449C20.9999 13.6311 17.6082 14.7556 13.4242 14.7556C9.24034 14.7556 5.84863 13.6323 5.84863 12.2449V8.72373" stroke="#074658" stroke-width="1.5"/>
<path d="M8.57562 1C12.7595 1 16.1512 2.08924 16.1512 3.43406V6.95523C16.1512 8.34143 12.7595 9.46597 8.57562 9.46597C4.39171 9.46597 1 8.34265 1 6.95523V3.43406C1 2.08924 4.39171 1 8.57562 1Z" fill="white"/>
<path d="M16.1512 3.43406C16.1512 2.08924 12.7595 1 8.57562 1C4.39171 1 1 2.08924 1 3.43406M16.1512 3.43406C16.1512 4.77888 12.7595 5.86812 8.57562 5.86812C4.39171 5.86812 1 4.77888 1 3.43406M16.1512 3.43406V6.95523C16.1512 8.34143 12.7595 9.46597 8.57562 9.46597C4.39171 9.46597 1 8.34265 1 6.95523V3.43406" stroke="#074658" stroke-width="1.5"/>
</svg>
