<svg width="22" height="22" viewBox="0 0 22 22" fill="none" xmlns="http://www.w3.org/2000/svg">
<path d="M19.0005 11V21H3.00049V11" stroke="#074658" stroke-width="1.5" stroke-linecap="round" stroke-linejoin="round"/>
<path d="M21 6H1V11H21V6Z" stroke="#074658" stroke-width="1.5" stroke-linecap="round" stroke-linejoin="round"/>
<path d="M11 21V6" stroke="#074658" stroke-width="1.5" stroke-linecap="round" stroke-linejoin="round"/>
<path d="M10.9995 6H6.49951C5.83647 6 5.20059 5.73661 4.73174 5.26777C4.2629 4.79893 3.99951 4.16304 3.99951 3.5C3.99951 2.83696 4.2629 2.20107 4.73174 1.73223C5.20059 1.26339 5.83647 1 6.49951 1C9.99951 1 10.9995 6 10.9995 6Z" stroke="#074658" stroke-width="1.5" stroke-linecap="round" stroke-linejoin="round"/>
<path d="M11 6H15.5C16.163 6 16.7989 5.73661 17.2678 5.26777C17.7366 4.79893 18 4.16304 18 3.5C18 2.83696 17.7366 2.20107 17.2678 1.73223C16.7989 1.26339 16.163 1 15.5 1C12 1 11 6 11 6Z" stroke="#074658" stroke-width="1.5" stroke-linecap="round" stroke-linejoin="round"/>
</svg>
