<svg width="25" height="25" viewBox="0 0 25 25" fill="none" xmlns="http://www.w3.org/2000/svg">
<path d="M14.4902 3.64099L13.7451 3.55607L13.5434 5.04245L14.2886 5.12737L14.4902 3.64099ZM22.6203 6.32848L20.3717 22.9014L21.862 23.0712L24.1107 6.49832L22.6203 6.32848ZM20.0896 23.1208L9.92935 21.9629L9.72767 23.4493L19.888 24.6072L20.0896 23.1208ZM17.3254 5.47347L22.4056 6.05244L22.6072 4.56606L17.5271 3.98709L17.3254 5.47347ZM14.2886 5.12737L17.3254 5.47347L17.5271 3.98709L14.4902 3.64099L14.2886 5.12737ZM9.71457 21.6868L9.89481 20.3584L8.40446 20.1886L8.22422 21.517L9.71457 21.6868ZM9.92935 21.9629C9.79216 21.9472 9.696 21.8237 9.71457 21.6868L8.22422 21.517C8.09427 22.4747 8.76739 23.3398 9.72767 23.4493L9.92935 21.9629ZM20.3717 22.9014C20.3531 23.0382 20.2268 23.1364 20.0896 23.1208L19.888 24.6072C20.8482 24.7166 21.7321 24.029 21.862 23.0712L20.3717 22.9014ZM24.1107 6.49832C24.2406 5.5406 23.5675 4.6755 22.6072 4.56606L22.4056 6.05244C22.5428 6.06807 22.6389 6.19166 22.6203 6.32848L24.1107 6.49832Z" fill="#0578BE"/>
<rect width="12.4065" height="18.65" rx="1" transform="matrix(0.994305 -0.10657 0.12658 0.991956 1 2.85449)" stroke="#0578BE" stroke-width="1.5"/>
</svg>
