<svg width="27" height="31" viewBox="0 0 27 31" fill="none" xmlns="http://www.w3.org/2000/svg">
<path d="M8.17905e-08 24.325L6.54902 26.7969L6.90215 25.8613C7.32237 24.7479 8.36622 24.2762 9.47956 24.6964C10.5929 25.1166 11.0647 26.1605 10.6445 27.2738L10.2913 28.2094L16.8403 30.6813L26.0217 6.35633L19.4727 3.88443L19.1195 4.82C18.6993 5.93334 17.6555 6.40512 16.5421 5.98489C15.4288 5.56467 14.957 4.52082 15.3772 3.40749L15.7304 2.47191L9.18135 1.0252e-05L8.17905e-08 24.325ZM2.57741 23.1601L10.3462 2.57742L13.3289 3.70319C13.1442 5.46661 14.0985 7.20028 15.8359 7.85604C17.5732 8.5118 19.4351 7.84105 20.4626 6.3958L23.4443 7.52122L15.6755 28.1039L12.6928 26.9781C12.8774 25.2147 11.9232 23.481 10.1858 22.8252C8.44845 22.1695 6.58664 22.8402 5.55908 24.2855L2.57741 23.1601Z" fill="#D96195"/>
</svg>
