<svg width="24" height="24" viewBox="0 0 24 24" fill="none" xmlns="http://www.w3.org/2000/svg">
<path d="M14.45 9.41213L12 3.66321L9.54996 9.42576L4.06812 9.42122L8.5545 13.225L7.08177 18.7695L11.9954 15.5337L16.9227 18.7695L15.35 13.225L19.9318 9.42576V9.42122L14.45 9.41213Z" fill="white"/>
<path d="M7.08156 18.7698L5.09973 21.492L7.08156 18.7698Z" fill="white"/>
<path d="M7.08186 18.7698L8.55459 13.2254L4.0682 9.42152L0.586364 8.28992C0.204544 9.45788 0 10.7031 0 11.9983C0 13.2935 0.204544 14.5387 0.586364 15.7022C1.37728 18.1335 2.92274 20.2286 4.95003 21.701L5.10457 21.4874L7.0864 18.7652L7.08186 18.7698Z" fill="#F3D551"/>
<path d="M4.06814 9.42096H9.54999L12 3.66295V0C9.36362 0 6.92725 0.84984 4.94542 2.29048C2.91814 3.76293 1.37722 5.85344 0.586304 8.28935L4.06814 9.42096Z" fill="#C06325"/>
<path d="M23.4135 15.7067C23.7908 14.5387 23.9999 13.2935 23.9999 11.9983C23.9999 10.7031 23.7954 9.45788 23.4135 8.28992L19.9317 9.42152L15.3499 13.2254L16.9226 18.7698L19.0544 21.701C21.0772 20.2286 22.6272 18.1381 23.4135 15.7022V15.7067Z" fill="#0578BE"/>
<path d="M19.0546 2.29048C17.0728 0.84984 14.6364 0 12 0V3.66295L14.45 9.41187L19.9319 9.4255L23.4137 8.29389C22.6228 5.86253 21.0773 3.76747 19.0546 2.29502V2.29048Z" fill="#A84F91"/>
<path d="M19.0545 21.705L16.9226 18.7737L11.9953 15.538L7.08169 18.7737L5.09986 21.4959L4.94531 21.7095C6.92714 23.1502 9.36351 24 11.9999 24C14.6363 24 17.0726 23.1502 19.0545 21.7095V21.705Z" fill="#61B0BC"/>
</svg>
