<?xml version="1.0" encoding="utf-8"?>
<svg width="29px" height="39px" viewBox="0 0 29 39" version="1.1" xmlns:xlink="http://www.w3.org/1999/xlink" xmlns="http://www.w3.org/2000/svg">
  <path d="M0 3.56888L0 34.5292Q0 34.5927 0.00426008 34.656Q0.00852017 34.7194 0.0170211 34.7822Q0.0255221 34.8451 0.0382256 34.9073Q0.050929 34.9695 0.0677777 35.0307Q0.0846265 35.0919 0.105544 35.1518Q0.126462 35.2117 0.151355 35.2701Q0.176248 35.3285 0.205003 35.3851Q0.233759 35.4417 0.266247 35.4962Q0.298736 35.5507 0.33481 35.6029Q0.370885 35.6552 0.410383 35.7048Q0.449882 35.7545 0.492626 35.8014Q0.53537 35.8483 0.581166 35.8923Q0.626963 35.9362 0.675606 35.977Q0.724248 36.0178 0.775518 36.0552Q0.826787 36.0926 0.880452 36.1265Q0.934117 36.1604 0.989936 36.1906Q1.04575 36.2208 1.10347 36.2472Q1.16119 36.2736 1.22056 36.296Q1.27992 36.3185 1.34065 36.3369Q1.40139 36.3553 1.46322 36.3696Q1.52506 36.3839 1.58771 36.3941Q1.65037 36.4042 1.71356 36.4101Q1.77676 36.416 1.8402 36.4176Q1.90365 36.4193 1.96706 36.4166Q2.03048 36.414 2.09357 36.4071Q2.15667 36.4003 2.21916 36.3892Q2.28165 36.3781 2.34326 36.3628Q2.40486 36.3475 2.4653 36.3282Q2.52575 36.3088 2.58475 36.2854Q2.64376 36.2621 2.70106 36.2348Q2.75837 36.2075 2.81371 36.1764Q2.86905 36.1454 2.92219 36.1106L26.1424 20.9401Q26.191 20.9083 26.2376 20.8737Q26.2841 20.839 26.3285 20.8015Q26.3728 20.7641 26.4147 20.724Q26.4567 20.6839 26.4961 20.6412Q26.5355 20.5986 26.5722 20.5537Q26.6089 20.5087 26.6428 20.4616Q26.6767 20.4145 26.7076 20.3654Q26.7386 20.3163 26.7664 20.2654Q26.7943 20.2145 26.819 20.1619Q26.8436 20.1094 26.865 20.0555Q26.8865 20.0015 26.9045 19.9464Q26.9226 19.8912 26.9372 19.835Q26.9518 19.7789 26.963 19.7219Q26.9742 19.665 26.9818 19.6074Q26.9894 19.5499 26.9935 19.492Q26.9976 19.4341 26.9982 19.3761Q26.9987 19.3181 26.9957 19.2601Q26.9927 19.2021 26.9861 19.1445Q26.9795 19.0868 26.9694 19.0297Q26.9593 18.9725 26.9457 18.9161Q26.9321 18.8597 26.9151 18.8042Q26.898 18.7487 26.8776 18.6944Q26.8572 18.6401 26.8335 18.5871Q26.8098 18.5341 26.7829 18.4827Q26.756 18.4313 26.7259 18.3816Q26.6959 18.3319 26.6629 18.2842Q26.6299 18.2365 26.594 18.1908Q26.5581 18.1452 26.5195 18.1019Q26.4809 18.0586 26.4397 18.0177Q26.3985 17.9768 26.3549 17.9385Q26.3113 17.9003 26.2654 17.8647Q26.2195 17.8292 26.1715 17.7966L2.9512 2.00682Q2.89827 1.97082 2.84302 1.93849Q2.78777 1.90616 2.73046 1.87765Q2.67315 1.84913 2.61404 1.82456Q2.55492 1.79999 2.49429 1.77948Q2.43365 1.75897 2.37176 1.74261Q2.30987 1.72625 2.24702 1.71412Q2.18417 1.70199 2.12064 1.69414Q2.0571 1.68629 1.99319 1.68276Q1.92927 1.67923 1.86526 1.68003Q1.80126 1.68084 1.73745 1.68597Q1.67364 1.69111 1.61033 1.70055Q1.54701 1.70999 1.48449 1.7237Q1.42196 1.73741 1.3605 1.75532Q1.29904 1.77323 1.23894 1.79526Q1.17884 1.81729 1.12036 1.84333Q1.06189 1.86938 1.00531 1.89933Q0.948732 1.92927 0.894312 1.96298Q0.839892 1.99669 0.787879 2.034Q0.735866 2.07132 0.686498 2.11207Q0.63713 2.15282 0.590634 2.19682Q0.544138 2.24081 0.500727 2.28786Q0.457317 2.3349 0.41719 2.38478Q0.377064 2.43466 0.340406 2.48713Q0.303748 2.53961 0.270727 2.59445Q0.237706 2.64929 0.208473 2.70624Q0.179241 2.76319 0.15393 2.82199Q0.12862 2.88078 0.107348 2.94116Q0.0860757 3.00154 0.0689398 3.06321Q0.0518039 3.12489 0.0388827 3.18759Q0.0259615 3.25028 0.0173143 3.31371Q0.0086671 3.37714 0.00433355 3.441Q0 3.50487 0 3.56888L0 3.56888Z" fill="#FFFFFF" stroke="none" />
</svg>