<svg width="29" height="29" viewBox="0 0 29 29" fill="none" xmlns="http://www.w3.org/2000/svg">
<path d="M5.5844 18.8684C3.88414 20.5687 4.73427 23.1191 4.73427 23.1191C4.73427 23.1191 7.28466 23.9692 8.98492 22.2689M10.6852 11.2172C5.5844 10.3671 3.88414 15.4679 3.88414 15.4679L8.13479 16.318M17.0025 17.5346C17.8526 22.6353 12.7518 24.3356 12.7518 24.3356L11.9017 20.0849M18.8949 15.8632L11.5353 19.7185L8.13479 16.318L11.9901 8.95844C12.5316 7.92436 13.3158 7.03711 14.2756 6.37285C15.2355 5.70859 16.3421 5.28717 17.5007 5.14476L22.5207 4.52842C22.6295 4.515 22.74 4.52656 22.8436 4.56224C22.9473 4.59791 23.0415 4.65674 23.119 4.73428C23.1966 4.81181 23.2554 4.906 23.2911 5.00968C23.3268 5.11337 23.3383 5.22382 23.3249 5.33264L22.7086 10.3527C22.5661 11.5112 22.1447 12.6179 21.4805 13.5777C20.8162 14.5375 19.929 15.3218 18.8949 15.8632V15.8632Z" stroke="#D96195" stroke-width="2" stroke-linecap="round" stroke-linejoin="round"/>
<path d="M14.9357 12.9175C14.4848 12.4665 14.2315 11.8549 14.2315 11.2172C14.2315 10.5795 14.4848 9.96787 14.9357 9.51693C15.3867 9.066 15.9983 8.81266 16.636 8.81266C17.2737 8.81266 17.8853 9.066 18.3362 9.51693C18.7872 9.96787 19.0405 10.5795 19.0405 11.2172C19.0405 11.8549 18.7872 12.4665 18.3362 12.9175C17.8853 13.3684 17.2737 13.6217 16.636 13.6217C15.9983 13.6217 15.3867 13.3684 14.9357 12.9175Z" stroke="#D96195" stroke-width="2" stroke-linecap="round" stroke-linejoin="round"/>
</svg>
