<svg width="34" height="33" viewBox="0 0 34 33" fill="none" xmlns="http://www.w3.org/2000/svg">
<path d="M10.944 18.8394L15.2731 10.4421C15.8811 9.26225 16.7517 8.24443 17.8102 7.47604C18.8687 6.70765 20.0834 6.21165 21.3502 6.03062L26.8393 5.24701C26.9582 5.22996 27.0786 5.24116 27.1912 5.27977C27.3038 5.31837 27.4056 5.38337 27.4889 5.46981M10.944 18.8394L8.6314 18.3946L6.31882 17.9498C6.31882 17.9498 8.25862 12.1464 13.8116 13.0215M10.944 18.8394L12.7716 20.7351" stroke="#3576AB" stroke-width="1.5" stroke-linecap="round" stroke-linejoin="round"/>
<path d="M14.7129 22.7488L22.8087 18.2585C23.9463 17.6279 24.9276 16.7248 25.6684 15.6269C26.4092 14.529 26.8874 13.269 27.0619 11.9551L27.8174 6.26166C27.8338 6.13823 27.823 6.0134 27.7858 5.89663C27.7486 5.77987 27.6859 5.67425 27.6026 5.5878M14.7129 22.7488L15.1417 25.1475L15.5706 27.5462C15.5706 27.5462 21.1657 25.5341 20.322 19.7744M14.7129 22.7488L12.8853 20.8531" stroke="#3576AB" stroke-width="1.5" stroke-linecap="round" stroke-linejoin="round"/>
<path d="M8.73712 21.2432C5.92646 24.1585 6.34876 27.5118 6.34876 27.5118C6.34876 27.5118 9.58172 27.9498 12.3924 25.0345" stroke="#3576AB" stroke-width="1.5" stroke-linecap="round" stroke-linejoin="round"/>
<path d="M18.555 14.8921C18.0006 14.3171 17.696 13.5302 17.708 12.7045C17.72 11.8789 18.0478 11.0821 18.6191 10.4895C19.1905 9.89681 19.9587 9.55686 20.7547 9.54438C21.5507 9.5319 22.3094 9.84792 22.8637 10.4229C23.4181 10.9979 23.7227 11.7848 23.7107 12.6104C23.6987 13.4361 23.3709 14.2329 22.7996 14.8255C22.2282 15.4182 21.46 15.7581 20.664 15.7706C19.868 15.7831 19.1094 15.4671 18.555 14.8921Z" stroke="#3576AB" stroke-width="1.5" stroke-linecap="round" stroke-linejoin="round"/>
</svg>
