<?xml version="1.0" encoding="UTF-8"?>
<svg width="14px" height="14px" viewBox="0 0 14 14" version="1.1" xmlns="http://www.w3.org/2000/svg" xmlns:xlink="http://www.w3.org/1999/xlink">
    <!-- Generator: Sketch 57.1 (83088) - https://sketch.com -->
    <title>schedule-button</title>
    <desc>Created with Sketch.</desc>
    <g id="Lotterilicens" stroke="none" stroke-width="1" fill="none" fill-rule="evenodd" fill-opacity="0.9">
        <g id="P---Startsida-Inloggad" transform="translate(-316.000000, -8.000000)" fill="#000000" fill-rule="nonzero">
            <g id="schedule-button" transform="translate(316.000000, 8.000000)">
                <path d="M7,0 C3.15,0 0,3.15 0,7 C0,10.85 3.15,14 7,14 C10.85,14 14,10.85 14,7 C14,3.15 10.85,0 7,0 Z M7,12.6 C3.92,12.6 1.4,10.08 1.4,7 C1.4,3.92 3.92,1.4 7,1.4 C10.08,1.4 12.6,3.92 12.6,7 C12.6,10.08 10.08,12.6 7,12.6 Z" id="Shape"></path>
                <polygon id="Path" points="7.35 3.5 6.3 3.5 6.3 7.7 9.94 9.94 10.5 9.03 7.35 7.14"></polygon>
            </g>
        </g>
    </g>
</svg>