<?xml version="1.0" encoding="UTF-8"?>
<svg width="75px" height="22px" viewBox="0 0 75 22" version="1.1" xmlns="http://www.w3.org/2000/svg" xmlns:xlink="http://www.w3.org/1999/xlink">
    <!-- Generator: Sketch 57.1 (83088) - https://sketch.com -->
    <title>sjalvtest</title>
    <desc>Created with Sketch.</desc>
    <defs>
        <linearGradient x1="100.44472%" y1="48.7595445%" x2="0.0344702199%" y2="48.7595445%" id="linearGradient-1">
            <stop stop-color="#E41913" offset="0%"></stop>
            <stop stop-color="#EA6516" offset="9.74402%"></stop>
            <stop stop-color="#F3A518" offset="21.48%"></stop>
            <stop stop-color="#F9CD1A" offset="31.21%"></stop>
            <stop stop-color="#FDE31A" offset="38.4%"></stop>
            <stop stop-color="#FEEB1A" offset="42.28%"></stop>
            <stop stop-color="#DFDE20" offset="62.31%"></stop>
            <stop stop-color="#009245" offset="100%"></stop>
        </linearGradient>
    </defs>
    <g id="Lotterilicens" stroke="none" stroke-width="1" fill="none" fill-rule="evenodd">
        <g id="P---Startsida-Inloggad" transform="translate(-84.000000, -4.000000)" fill-rule="nonzero">
            <g id="sjalvtest" transform="translate(84.000000, 4.000000)">
                <g id="Group">
                    <path d="M2.4,21.8 C1.2,21.8 0.2,20.8 0.2,19.6 L0.2,2.4 C0.2,1.2 1.2,0.2 2.4,0.2 L72.5,0.2 C73.7,0.2 74.7,1.2 74.7,2.4 L74.7,19.5 C74.7,20.7 73.7,21.7 72.5,21.7 L2.4,21.7 L2.4,21.8 Z" id="Path" fill="#FFFFFF"></path>
                    <path d="M72.6,0.4 C73.7,0.4 74.6,1.3 74.6,2.4 L74.6,19.5 C74.6,20.6 73.7,21.5 72.6,21.5 L2.4,21.5 C1.3,21.5 0.4,20.6 0.4,19.5 L0.4,2.4 C0.4,1.3 1.3,0.4 2.4,0.4 L72.6,0.4 L72.6,0.4 Z M72.6,0 L2.4,0 C1.1,0 0,1.1 0,2.4 L0,19.5 C0,20.9 1.1,22 2.4,22 L72.5,22 C73.8,22 74.9,20.9 74.9,19.6 L74.9,2.4 C75,1.1 73.9,0 72.6,0 L72.6,0 Z" id="Shape" fill="#7C8B8F"></path>
                </g>
                <g id="Group" transform="translate(5.000000, 2.000000)">
                    <path d="M8.8,0.2 L8.8,0.6 L8.9,0.6 C11.1,0.6 13.2,1.5 14.8,3.1 C16.3,4.7 17.2,6.8 17.2,9 C17.2,13.6 13.4,17.3 8.9,17.3 L8.8,17.3 C6.6,17.3 4.5,16.4 2.9,14.8 C1.4,13.2 0.5,11.1 0.5,8.9 C0.5,4.3 4.3,0.6 8.8,0.6 L8.8,0.2 L8.8,0.2 Z M8.8,0.2 C4,0.2 0.1,4.1 0.1,8.9 C0.1,13.7 3.9,17.7 8.7,17.7 C8.7,17.7 8.8,17.7 8.8,17.7 C13.6,17.7 17.5,13.8 17.5,9 C17.5,4.2 13.7,0.3 8.8,0.2 C8.9,0.2 8.8,0.2 8.8,0.2 L8.8,0.2 Z" id="Shape" fill="#020203"></path>
                    <path d="M2.6,10.3 C2.5,10.3 2.5,10.3 2.4,10.3 C1.6,10.2 1.1,9.5 1.2,8.8 C1.6,5.4 4.2,1.8 8.8,1.9 C12,1.9 15.7,4.1 16.2,8.9 C16.3,9.7 15.8,10.3 15,10.4 C14.2,10.5 13.6,10 13.5,9.2 C13.1,6.1 10.9,4.7 8.8,4.7 C6.8,4.7 4.4,5.9 3.9,9.3 C3.8,9.8 3.2,10.3 2.6,10.3 Z" id="Path" fill="url(#linearGradient-1)"></path>
                    <path d="M7,9.1 L10.6,2.7 L9.8,10 C9.6,10.8 8.7,11.2 7.9,11 C7.1,10.8 6.8,9.9 7,9.1 Z" id="Path" fill="#1E1E1C"></path>
                </g>
                <g id="Group" transform="translate(26.000000, 6.000000)" fill="#000000">
                    <path d="M6.3,6.3 C6.3,6.6 6.2,6.9 6.1,7.1 C6,7.4 5.8,7.6 5.5,7.8 C5.2,8 4.9,8.2 4.6,8.3 C4.3,8.4 3.8,8.5 3.3,8.5 C2.8,8.5 2.3,8.5 1.9,8.4 C1.5,8.3 1.1,8.2 0.6,8 L0.6,6.8 L0.7,6.8 C1.1,7.1 1.5,7.3 2,7.5 C2.5,7.7 2.9,7.7 3.4,7.7 C4,7.7 4.5,7.6 4.8,7.4 C5.1,7.2 5.3,6.9 5.3,6.5 C5.3,6.2 5.2,5.9 5.1,5.8 C5,5.7 4.7,5.5 4.4,5.4 C4.2,5.3 3.9,5.3 3.6,5.2 C3.3,5.2 3,5.1 2.7,5 C2.1,4.9 1.6,4.6 1.3,4.3 C1,4 0.8,3.5 0.8,3 C0.8,2.4 1.1,1.9 1.6,1.5 C2,1.2 2.6,1 3.4,1 C3.9,1 4.4,1 4.8,1.1 C5.2,1.2 5.6,1.3 5.9,1.5 L5.9,2.6 L5.8,2.6 C5.5,2.4 5.2,2.2 4.7,2 C4.2,1.8 3.8,1.8 3.3,1.8 C2.8,1.8 2.4,1.9 2,2.1 C1.7,2.3 1.5,2.6 1.5,2.9 C1.5,3.2 1.6,3.4 1.7,3.6 C1.9,3.8 2.1,3.9 2.5,4 C2.7,4 3,4.1 3.4,4.2 C3.8,4.3 4.1,4.3 4.4,4.4 C4.9,4.5 5.4,4.8 5.6,5.1 C6.1,5.4 6.3,5.8 6.3,6.3 Z" id="Path"></path>
                    <path d="M9.4,8.6 C9.4,9.2 9.2,9.7 8.9,10.1 C8.6,10.5 8.1,10.6 7.6,10.6 C7.5,10.6 7.3,10.6 7.1,10.6 C6.9,10.6 6.7,10.5 6.6,10.5 L6.6,9.6 L6.6,9.6 C6.7,9.6 6.8,9.7 7,9.7 C7.2,9.7 7.3,9.8 7.5,9.8 C7.7,9.8 7.9,9.8 8.1,9.7 C8.3,9.6 8.4,9.5 8.4,9.4 C8.5,9.3 8.5,9.1 8.5,8.9 C8.5,8.7 8.5,8.5 8.5,8.2 L8.5,3.7 L7.4,3.7 L7.4,2.9 L9.5,2.9 L9.5,8.6 L9.4,8.6 Z M9.5,2 L8.5,2 L8.5,1 L9.5,1 L9.5,2 Z" id="Shape"></path>
                    <path d="M15.5,8.4 L14.6,8.4 L14.6,7.8 C14.5,7.9 14.4,7.9 14.3,8 C14.2,8.1 14,8.2 13.9,8.2 C13.7,8.3 13.6,8.3 13.4,8.4 C13.2,8.5 13,8.5 12.7,8.5 C12.2,8.5 11.8,8.3 11.4,8 C11.1,7.7 10.9,7.3 10.9,6.7 C10.9,6.3 11,5.9 11.2,5.7 C11.4,5.4 11.6,5.2 12,5.1 C12.3,5 12.7,4.9 13.2,4.8 C13.7,4.7 14.2,4.7 14.7,4.7 L14.7,4.6 C14.7,4.4 14.7,4.2 14.6,4.1 C14.5,4 14.4,3.9 14.3,3.8 C14.2,3.7 14,3.7 13.8,3.6 C13.6,3.6 13.4,3.6 13.2,3.6 C13,3.6 12.7,3.6 12.4,3.7 C12,3.8 11.7,3.9 11.4,4 L11.4,4 L11.4,3.1 C11.6,3.1 11.8,3 12.2,2.9 C12.5,2.8 12.9,2.8 13.2,2.8 C13.6,2.8 13.9,2.8 14.2,2.9 C14.5,3 14.7,3.1 14.9,3.2 C15.1,3.4 15.3,3.5 15.4,3.8 C15.5,4 15.6,4.3 15.6,4.7 L15.6,8.4 L15.5,8.4 Z M14.6,7.1 L14.6,5.6 C14.3,5.6 14,5.6 13.6,5.7 C13.2,5.7 12.9,5.8 12.7,5.8 C12.4,5.9 12.2,6 12.1,6.2 C11.9,6.4 11.9,6.6 11.9,6.9 C11.9,7.2 12,7.5 12.2,7.6 C12.4,7.8 12.7,7.8 13.1,7.8 C13.4,7.8 13.7,7.7 14,7.6 C14.1,7.4 14.3,7.2 14.6,7.1 Z M12.8,2 L11.8,2 L11.8,1 L12.8,1 L12.8,2 Z M14.9,2 L13.9,2 L13.9,1 L14.9,1 L14.9,2 Z" id="Shape"></path>
                    <polygon id="Path" points="18.2 8.4 17.3 8.4 17.3 0.8 18.2 0.8"></polygon>
                    <polygon id="Path" points="24.8 2.9 22.6 8.4 21.7 8.4 19.5 2.9 20.5 2.9 22.2 7.3 23.9 2.9"></polygon>
                    <path d="M28.8,8.4 C28.6,8.4 28.4,8.5 28.2,8.5 C28,8.5 27.8,8.5 27.7,8.5 C27.1,8.5 26.7,8.3 26.4,8 C26.1,7.7 26,7.2 26,6.6 L26,3.7 L25.4,3.7 L25.4,2.9 L26,2.9 L26,1.4 L26.9,1.4 L26.9,3 L28.8,3 L28.8,3.8 L26.9,3.8 L26.9,6.3 C26.9,6.6 26.9,6.8 26.9,7 C26.9,7.2 27,7.3 27,7.5 C27.1,7.6 27.2,7.7 27.3,7.8 C27.4,7.9 27.6,7.9 27.9,7.9 C28.1,7.9 28.2,7.9 28.4,7.8 C28.6,7.8 28.7,7.7 28.8,7.7 L28.8,7.7 L28.8,8.4 Z" id="Path"></path>
                    <path d="M34.5,5.8 L30.5,5.8 C30.5,6.1 30.6,6.4 30.7,6.7 C30.8,7 30.9,7.2 31.1,7.3 C31.3,7.5 31.5,7.6 31.7,7.7 C31.9,7.8 32.2,7.8 32.5,7.8 C32.9,7.8 33.2,7.7 33.6,7.6 C34,7.5 34.2,7.3 34.4,7.2 L34.4,7.2 L34.4,8.2 C34.1,8.3 33.8,8.4 33.4,8.5 C33.1,8.6 32.7,8.6 32.4,8.6 C31.5,8.6 30.8,8.4 30.3,7.9 C29.8,7.4 29.5,6.7 29.5,5.8 C29.5,4.9 29.7,4.2 30.2,3.7 C30.7,3.2 31.3,2.9 32.1,2.9 C32.8,2.9 33.4,3.1 33.8,3.5 C34.2,3.9 34.4,4.5 34.4,5.3 L34.4,5.8 L34.5,5.8 Z M33.6,5.1 C33.6,4.6 33.5,4.2 33.2,4 C32.9,3.8 32.6,3.6 32.1,3.6 C31.6,3.6 31.2,3.7 30.9,4 C30.6,4.3 30.4,4.7 30.4,5.1 L33.6,5.1 Z" id="Shape"></path>
                    <path d="M39.9,6.8 C39.9,7.3 39.7,7.7 39.3,8 C38.9,8.3 38.3,8.5 37.6,8.5 C37.2,8.5 36.8,8.5 36.5,8.4 C36.2,8.3 35.9,8.2 35.6,8.1 L35.6,7.1 L35.6,7.1 C35.9,7.3 36.2,7.5 36.6,7.6 C37,7.7 37.3,7.8 37.6,7.8 C38,7.8 38.3,7.7 38.6,7.6 C38.8,7.5 38.9,7.3 38.9,7 C38.9,6.8 38.8,6.6 38.7,6.5 C38.6,6.4 38.3,6.3 38,6.2 C37.9,6.2 37.7,6.1 37.5,6.1 C37.3,6.1 37.1,6 36.9,6 C36.4,5.9 36.1,5.7 35.9,5.4 C35.7,5.2 35.6,4.8 35.6,4.5 C35.6,4.3 35.6,4.1 35.7,3.9 C35.8,3.7 35.9,3.5 36.1,3.4 C36.3,3.2 36.5,3.1 36.8,3 C37.1,2.9 37.4,2.9 37.8,2.9 C38.1,2.9 38.5,2.9 38.8,3 C39.1,3.1 39.4,3.2 39.6,3.3 L39.6,4.3 L39.6,4.3 C39.4,4.1 39.1,4 38.7,3.9 C38.4,3.8 38,3.7 37.7,3.7 C37.4,3.7 37.1,3.8 36.8,3.9 C36.5,4 36.5,4.2 36.5,4.5 C36.5,4.7 36.6,4.9 36.7,5 C36.8,5.1 37.1,5.2 37.4,5.3 C37.6,5.3 37.8,5.4 38,5.4 C38.2,5.4 38.4,5.5 38.5,5.5 C38.9,5.6 39.3,5.8 39.5,6 C39.7,6.1 39.9,6.4 39.9,6.8 Z" id="Path"></path>
                    <path d="M44,8.4 C43.8,8.4 43.6,8.5 43.4,8.5 C43.2,8.5 43,8.5 42.9,8.5 C42.3,8.5 41.9,8.3 41.6,8 C41.3,7.7 41.2,7.2 41.2,6.6 L41.2,3.7 L40.6,3.7 L40.6,2.9 L41.2,2.9 L41.2,1.4 L42.1,1.4 L42.1,3 L44,3 L44,3.8 L42.1,3.8 L42.1,6.3 C42.1,6.6 42.1,6.8 42.1,7 C42.1,7.2 42.2,7.3 42.2,7.5 C42.3,7.6 42.4,7.7 42.5,7.8 C42.6,7.9 42.8,7.9 43.1,7.9 C43.3,7.9 43.4,7.9 43.6,7.8 C43.8,7.8 43.9,7.7 44,7.7 L44,7.7 L44,8.4 L44,8.4 Z" id="Path"></path>
                </g>
            </g>
        </g>
    </g>
</svg>