<?xml version="1.0" encoding="UTF-8"?>
<svg width="94px" height="22px" viewBox="0 0 94 22" version="1.1" xmlns="http://www.w3.org/2000/svg" xmlns:xlink="http://www.w3.org/1999/xlink">
    <!-- Generator: Sketch 57.1 (83088) - https://sketch.com -->
    <title>spelbudget</title>
    <desc>Created with Sketch.</desc>
    <g id="Lotterilicens" stroke="none" stroke-width="1" fill="none" fill-rule="evenodd">
        <g id="P---Startsida-Inloggad" transform="translate(-163.000000, -4.000000)" fill-rule="nonzero">
            <g id="spelbudget" transform="translate(163.000000, 4.000000)">
                <path d="M2.4,21.8 C1.2,21.8 0.2,20.8 0.2,19.6 L0.2,2.4 C0.2,1.2 1.2,0.2 2.4,0.2 L91.5,0.2 C92.7,0.2 93.7,1.2 93.7,2.4 L93.7,19.5 C93.7,20.7 92.7,21.7 91.5,21.7 L2.4,21.7 L2.4,21.8 Z" id="Path" fill="#FFFFFF"></path>
                <path d="M91.6,0.4 C92.7,0.4 93.6,1.3 93.6,2.4 L93.6,19.5 C93.6,20.6 92.7,21.5 91.6,21.5 L2.4,21.5 C1.3,21.5 0.4,20.6 0.4,19.5 L0.4,2.4 C0.4,1.3 1.3,0.4 2.4,0.4 L91.6,0.4 L91.6,0.4 Z M91.6,0 L2.4,0 C1.1,0 0,1.1 0,2.4 L0,19.5 C0,20.9 1.1,22 2.4,22 L91.5,22 C92.8,22 93.9,20.9 93.9,19.6 L93.9,2.4 C94,1.1 92.9,0 91.6,0 L91.6,0 Z" id="Shape" fill="#7C8B8F"></path>
                <g id="Group" transform="translate(4.000000, 2.000000)" fill="#009739">
                    <path d="M18.1,8 C17.6,3.7 13.9,0.4 9.5,0.4 C4.7,0.4 0.8,4.3 0.8,9.1 C0.8,13.9 4.7,17.8 9.5,17.8 C10.7,17.8 11.9,17.6 12.9,17.1 C13.8,17.8 14.9,18.2 16,18.2 C18.9,18.2 21.3,15.8 21.3,12.9 C21.3,10.7 20,8.8 18.1,8 Z M10.8,12.9 C10.8,14.3 11.3,15.5 12.2,16.5 C11.3,16.8 10.4,17 9.5,17 C5.1,17 1.6,13.5 1.6,9.1 C1.6,4.7 5.1,1.2 9.5,1.2 C13.4,1.2 16.6,4 17.2,7.7 C16.8,7.6 16.4,7.5 16,7.5 C13.2,7.6 10.8,10 10.8,12.9 Z M16.1,15.5 L15.8,15.1 L15.3,14.4 L14.3,13 L14.3,13 L14.3,15.4 L14.3,15.5 L14.2,15.5 L13.2,15.5 L13.2,10.3 L14.3,10.3 L14.3,12.5 L14.3,12.5 L16,10.3 L17.3,10.3 L17.3,10.3 L17.3,10.4 L15.4,12.8 L16,13.6 L16.5,14.3 L17.4,15.5 L16.1,15.5 L16.1,15.5 Z M19.7,13.2 C19.6,13.2 19.5,13.2 19.5,13.2 C19.3,13.2 19.1,13.3 19,13.4 C18.9,13.6 18.8,13.8 18.8,14 L18.8,15.5 L17.8,15.5 L17.8,12.1 L18.8,12.1 L18.8,12.6 L18.8,12.6 C18.9,12.4 19,12.3 19.2,12.2 C19.3,12.1 19.4,12 19.6,12 C19.7,12 19.7,12 19.8,12 L19.7,13.2 L19.7,13.2 Z" id="Shape"></path>
                    <path d="M11,8.5 L7.9,3.5 C7.7,3.1 7.2,3 6.8,3.3 C6.4,3.6 6.3,4 6.5,4.4 L9.3,8.9 L6.2,11 C5.8,11.2 5.8,11.7 6,12.1 C6.2,12.3 6.4,12.4 6.7,12.4 C6.9,12.4 7,12.4 7.1,12.3 L10.8,9.7 C11.1,9.5 11.2,9 11,8.6 C11,8.6 11,8.6 11,8.5 Z" id="Path"></path>
                    <path d="M3.8,8.7 L2.8,8.7 C2.6,8.7 2.4,8.9 2.4,9.1 C2.4,9.3 2.6,9.5 2.8,9.5 L3.8,9.5 C4,9.5 4.2,9.3 4.2,9.1 C4.2,8.9 4,8.7 3.8,8.7 Z" id="Path"></path>
                    <path d="M9.7,3.7 C9.9,3.7 10.1,3.5 10.1,3.3 L10.1,2.3 C10.1,2.1 9.9,1.9 9.7,1.9 C9.5,1.9 9.3,2.1 9.3,2.3 L9.3,3.3 C9.2,3.5 9.4,3.7 9.7,3.7 Z" id="Path"></path>
                    <path d="M9.6,14.7 C9.4,14.7 9.2,14.9 9.2,15.1 L9.2,16.1 C9.2,16.3 9.4,16.5 9.6,16.5 C9.8,16.5 10,16.3 10,16.1 L10,15.1 C9.9,14.9 9.8,14.7 9.6,14.7 Z" id="Path"></path>
                </g>
                <g id="Group" transform="translate(29.000000, 6.000000)" fill="#000000">
                    <path d="M6.3,6.3 C6.3,6.6 6.2,6.9 6.1,7.1 C6,7.4 5.8,7.6 5.5,7.8 C5.2,8 4.9,8.2 4.6,8.3 C4.3,8.4 3.8,8.5 3.3,8.5 C2.8,8.5 2.3,8.5 1.9,8.4 C1.5,8.3 1.1,8.2 0.6,8 L0.6,6.8 L0.7,6.8 C1.1,7.1 1.5,7.3 2,7.5 C2.5,7.7 2.9,7.7 3.4,7.7 C4,7.7 4.5,7.6 4.8,7.4 C5.1,7.2 5.3,6.9 5.3,6.5 C5.3,6.2 5.2,5.9 5.1,5.8 C5,5.7 4.7,5.5 4.4,5.4 C4.2,5.3 3.9,5.3 3.6,5.2 C3.3,5.2 3,5.1 2.7,5 C2.1,4.9 1.6,4.6 1.3,4.3 C1,4 0.8,3.5 0.8,3 C0.8,2.4 1.1,1.9 1.6,1.5 C2,1.2 2.6,1 3.4,1 C3.9,1 4.4,1 4.8,1.1 C5.2,1.2 5.6,1.3 5.9,1.5 L5.9,2.6 L5.8,2.6 C5.5,2.4 5.2,2.2 4.7,2 C4.2,1.8 3.8,1.8 3.3,1.8 C2.8,1.8 2.4,1.9 2,2.1 C1.7,2.3 1.5,2.6 1.5,2.9 C1.5,3.2 1.6,3.4 1.7,3.6 C1.9,3.8 2.1,3.9 2.5,4 C2.7,4 3,4.1 3.4,4.2 C3.8,4.3 4.1,4.3 4.4,4.4 C4.9,4.5 5.4,4.8 5.6,5.1 C6.1,5.4 6.3,5.8 6.3,6.3 Z" id="Path"></path>
                    <path d="M12.6,5.6 C12.6,6 12.5,6.5 12.4,6.8 C12.3,7.2 12.1,7.5 11.9,7.7 C11.7,7.9 11.4,8.1 11.1,8.3 C10.8,8.5 10.5,8.5 10.2,8.5 C9.9,8.5 9.7,8.5 9.4,8.4 C9.2,8.3 8.9,8.2 8.7,8.1 L8.7,10.4 L7.8,10.4 L7.8,2.9 L8.7,2.9 L8.7,3.5 C8.9,3.3 9.2,3.1 9.5,3 C9.8,2.9 10.1,2.8 10.5,2.8 C11.2,2.8 11.7,3 12,3.5 C12.4,4 12.6,4.7 12.6,5.6 Z M11.6,5.6 C11.6,4.9 11.5,4.4 11.3,4.1 C11.1,3.8 10.7,3.6 10.3,3.6 C10,3.6 9.8,3.7 9.5,3.8 C9.2,3.9 9,4.1 8.7,4.3 L8.7,7.4 C9,7.5 9.2,7.6 9.4,7.6 C9.6,7.6 9.8,7.7 10,7.7 C10.5,7.7 10.9,7.5 11.2,7.2 C11.5,6.8 11.6,6.3 11.6,5.6 Z" id="Shape"></path>
                    <path d="M18.6,5.8 L14.6,5.8 C14.6,6.1 14.7,6.4 14.8,6.7 C14.9,7 15,7.2 15.2,7.3 C15.4,7.5 15.6,7.6 15.8,7.7 C16,7.8 16.3,7.8 16.6,7.8 C17,7.8 17.3,7.7 17.7,7.6 C18.1,7.5 18.3,7.3 18.5,7.2 L18.5,7.2 L18.5,8.2 C18.2,8.3 17.9,8.4 17.5,8.5 C17.2,8.6 16.8,8.6 16.5,8.6 C15.6,8.6 14.9,8.4 14.4,7.9 C13.9,7.4 13.6,6.7 13.6,5.8 C13.6,4.9 13.8,4.2 14.3,3.7 C14.8,3.2 15.4,2.9 16.2,2.9 C16.9,2.9 17.5,3.1 17.9,3.5 C18.3,3.9 18.5,4.5 18.5,5.3 L18.5,5.8 L18.6,5.8 Z M17.7,5.1 C17.7,4.6 17.6,4.2 17.3,4 C17,3.8 16.7,3.6 16.2,3.6 C15.7,3.6 15.3,3.7 15,4 C14.7,4.3 14.5,4.7 14.5,5.1 L17.7,5.1 Z" id="Shape"></path>
                    <polygon id="Path" points="21 8.4 20 8.4 20 0.8 21 0.8"></polygon>
                    <path d="M27.2,7.8 C27.2,8.7 27,9.4 26.6,9.8 C26.2,10.2 25.5,10.5 24.7,10.5 C24.4,10.5 24.1,10.5 23.8,10.4 C23.5,10.3 23.3,10.3 23,10.2 L23,9.3 L23,9.3 C23.2,9.4 23.4,9.4 23.7,9.5 C24,9.6 24.4,9.6 24.7,9.6 C25,9.6 25.3,9.6 25.5,9.5 C25.7,9.4 25.9,9.3 26,9.2 C26.1,9.1 26.2,8.9 26.2,8.7 C26.2,8.5 26.3,8.3 26.3,8.1 L26.3,7.6 C26,7.8 25.8,8 25.5,8.1 C25.2,8.2 24.9,8.3 24.5,8.3 C23.8,8.3 23.3,8.1 22.9,7.6 C22.5,7.1 22.3,6.5 22.3,5.6 C22.3,5.1 22.4,4.7 22.5,4.4 C22.6,4.1 22.8,3.8 23,3.5 C23.2,3.3 23.5,3.1 23.8,3 C24.1,2.9 24.4,2.8 24.7,2.8 C25,2.8 25.3,2.8 25.5,2.9 C25.7,3 25.9,3.1 26.2,3.2 L26.3,3 L27.2,3 L27.2,7.8 L27.2,7.8 Z M26.3,6.9 L26.3,3.9 C26.1,3.8 25.8,3.7 25.6,3.7 C25.4,3.7 25.2,3.6 25,3.6 C24.5,3.6 24.1,3.8 23.8,4.1 C23.5,4.4 23.4,4.9 23.4,5.6 C23.4,6.2 23.5,6.7 23.7,7 C23.9,7.3 24.3,7.5 24.8,7.5 C25.1,7.5 25.3,7.4 25.6,7.3 C25.8,7.2 26.1,7.1 26.3,6.9 Z" id="Shape"></path>
                    <path d="M32.5,3.9 L32.5,3.9 C32.3,3.9 32.2,3.8 32.1,3.8 C32,3.8 31.8,3.8 31.6,3.8 C31.3,3.8 31,3.9 30.8,4 C30.5,4.1 30.3,4.3 30,4.5 L30,8.4 L29.1,8.4 L29.1,2.9 L30,2.9 L30,3.7 C30.4,3.4 30.7,3.2 31,3.1 C31.3,3 31.6,2.9 31.9,2.9 C32.1,2.9 32.2,2.9 32.2,2.9 C32.3,2.9 32.4,2.9 32.5,2.9 L32.5,3.9 L32.5,3.9 Z" id="Path"></path>
                    <path d="M37.6,8.4 L36.7,8.4 L36.7,7.8 C36.6,7.9 36.5,7.9 36.4,8 C36.3,8.1 36.1,8.2 36,8.2 C35.8,8.3 35.7,8.3 35.5,8.4 C35.3,8.5 35.1,8.5 34.8,8.5 C34.3,8.5 33.9,8.3 33.5,8 C33.1,7.7 33,7.3 33,6.7 C33,6.3 33.1,5.9 33.3,5.7 C33.5,5.4 33.7,5.2 34.1,5.1 C34.4,5 34.8,4.9 35.3,4.8 C35.8,4.7 36.3,4.7 36.8,4.7 L36.8,4.6 C36.8,4.4 36.8,4.2 36.7,4.1 C36.6,4 36.5,3.9 36.4,3.8 C36.3,3.7 36.1,3.7 35.9,3.6 C35.7,3.6 35.5,3.6 35.3,3.6 C35.1,3.6 34.8,3.6 34.5,3.7 C34.2,3.8 33.9,3.9 33.6,4 L33.6,4 L33.6,3.1 C33.8,3.1 34,3 34.4,2.9 C34.7,2.8 35.1,2.8 35.4,2.8 C35.8,2.8 36.1,2.8 36.4,2.9 C36.5,3 36.8,3.1 37,3.2 C37.2,3.4 37.4,3.5 37.5,3.8 C37.6,4 37.7,4.3 37.7,4.7 L37.7,8.4 L37.6,8.4 Z M36.7,7.1 L36.7,5.6 C36.4,5.6 36.1,5.6 35.7,5.7 C35.3,5.7 35,5.8 34.8,5.8 C34.5,5.9 34.3,6 34.2,6.2 C34,6.4 34,6.6 34,6.9 C34,7.2 34.1,7.5 34.3,7.6 C34.5,7.8 34.8,7.8 35.2,7.8 C35.5,7.8 35.8,7.7 36.1,7.6 C36.2,7.4 36.5,7.2 36.7,7.1 Z M35,2 L34,2 L34,1 L35,1 L35,2 Z M37,2 L36,2 L36,1 L37,1 L37,2 Z" id="Shape"></path>
                    <path d="M44,8.4 L43,8.4 L43,5.3 C43,5 43,4.8 43,4.6 C43,4.4 42.9,4.2 42.8,4.1 C42.7,4 42.6,3.9 42.4,3.8 C42.2,3.7 42,3.7 41.8,3.7 C41.5,3.7 41.3,3.8 41,3.9 C40.7,4 40.5,4.2 40.2,4.4 L40.2,8.5 L39.3,8.5 L39.3,2.9 L40.2,2.9 L40.2,3.5 C40.5,3.3 40.8,3.1 41.1,2.9 C41.4,2.8 41.7,2.7 42,2.7 C42.6,2.7 43,2.9 43.4,3.2 C43.7,3.6 43.9,4.1 43.9,4.7 L43.9,8.4 L44,8.4 Z" id="Path"></path>
                    <path d="M49.7,6.8 C49.7,7.3 49.5,7.7 49.1,8 C48.7,8.3 48.1,8.5 47.4,8.5 C47,8.5 46.6,8.5 46.3,8.4 C46,8.3 45.7,8.2 45.4,8.1 L45.4,7.1 L45.4,7.1 C45.7,7.3 46,7.5 46.4,7.6 C46.8,7.7 47.1,7.8 47.4,7.8 C47.8,7.8 48.1,7.7 48.4,7.6 C48.6,7.5 48.7,7.3 48.7,7 C48.7,6.8 48.6,6.6 48.5,6.5 C48.4,6.4 48.1,6.3 47.8,6.2 C47.7,6.2 47.5,6.1 47.3,6.1 C47.1,6.1 46.9,6 46.7,6 C46.2,5.9 45.9,5.7 45.7,5.4 C45.5,5.2 45.4,4.8 45.4,4.5 C45.4,4.3 45.4,4.1 45.5,3.9 C45.6,3.7 45.7,3.5 45.9,3.4 C46.1,3.2 46.3,3.1 46.6,3 C46.9,2.9 47.2,2.9 47.6,2.9 C47.9,2.9 48.3,2.9 48.6,3 C48.9,3.1 49.2,3.2 49.4,3.3 L49.4,4.3 L49.4,4.3 C49.2,4.1 48.9,4 48.5,3.9 C48.2,3.8 47.8,3.7 47.5,3.7 C47.2,3.7 46.9,3.8 46.6,3.9 C46.3,4 46.3,4.2 46.3,4.5 C46.3,4.7 46.4,4.9 46.5,5 C46.6,5.1 46.9,5.2 47.2,5.3 C47.4,5.3 47.6,5.4 47.8,5.4 C48,5.4 48.2,5.5 48.3,5.5 C48.7,5.6 49.1,5.8 49.3,6 C49.5,6.1 49.7,6.4 49.7,6.8 Z" id="Path"></path>
                    <path d="M55.6,5.8 L51.6,5.8 C51.6,6.1 51.7,6.4 51.8,6.7 C51.9,7 52,7.2 52.2,7.3 C52.4,7.5 52.6,7.6 52.8,7.7 C53,7.8 53.3,7.8 53.6,7.8 C54,7.8 54.3,7.7 54.7,7.6 C55.1,7.5 55.3,7.3 55.5,7.2 L55.5,7.2 L55.5,8.2 C55.2,8.3 54.9,8.4 54.5,8.5 C54.2,8.6 53.8,8.6 53.5,8.6 C52.6,8.6 51.9,8.4 51.4,7.9 C50.9,7.4 50.6,6.7 50.6,5.8 C50.6,4.9 50.8,4.2 51.3,3.7 C51.8,3.2 52.4,2.9 53.2,2.9 C54,2.8 54.6,3 55,3.4 C55.4,3.8 55.6,4.4 55.6,5.2 L55.6,5.8 Z M54.7,5.1 C54.7,4.6 54.6,4.2 54.3,4 C54,3.8 53.7,3.6 53.2,3.6 C52.7,3.6 52.3,3.7 52,4 C51.7,4.3 51.5,4.7 51.5,5.1 L54.7,5.1 Z" id="Shape"></path>
                    <path d="M60.4,3.9 L60.4,3.9 C60.2,3.9 60.1,3.8 60,3.8 C59.9,3.8 59.7,3.8 59.5,3.8 C59.2,3.8 58.9,3.9 58.7,4 C58.4,4.1 58.2,4.3 57.9,4.5 L57.9,8.4 L57,8.4 L57,2.9 L57.9,2.9 L57.9,3.7 C58.3,3.4 58.6,3.2 58.9,3.1 C59.2,3 59.5,2.9 59.8,2.9 C60,2.9 60.1,2.9 60.1,2.9 C60.2,2.9 60.3,2.9 60.4,2.9 L60.4,3.9 Z" id="Path"></path>
                </g>
            </g>
        </g>
    </g>
</svg>