<?xml version="1.0" encoding="UTF-8"?>
<svg width="76px" height="22px" viewBox="0 0 76 22" version="1.1" xmlns="http://www.w3.org/2000/svg" xmlns:xlink="http://www.w3.org/1999/xlink">
    <!-- Generator: Sketch 57.1 (83088) - https://sketch.com -->
    <title>spelstopp</title>
    <desc>Created with Sketch.</desc>
    <g id="Lotterilicens" stroke="none" stroke-width="1" fill="none" fill-rule="evenodd">
        <g id="P---Startsida-Inloggad" transform="translate(-4.000000, -4.000000)" fill-rule="nonzero">
            <g id="spelstopp" transform="translate(4.000000, 4.000000)">
                <g id="Group">
                    <path d="M2.4,21.8 C1.2,21.8 0.2,20.8 0.2,19.6 L0.2,2.4 C0.2,1.2 1.2,0.2 2.4,0.2 L73.5,0.2 C74.7,0.2 75.7,1.2 75.7,2.4 L75.7,19.5 C75.7,20.7 74.7,21.7 73.5,21.7 L2.4,21.7 L2.4,21.8 Z" id="Path" fill="#FFFFFF"></path>
                    <path d="M73.6,0.4 C74.7,0.4 75.6,1.3 75.6,2.4 L75.6,19.5 C75.6,20.6 74.7,21.5 73.6,21.5 L2.4,21.5 C1.3,21.5 0.4,20.6 0.4,19.5 L0.4,2.4 C0.4,1.3 1.3,0.4 2.4,0.4 L73.6,0.4 L73.6,0.4 Z M73.6,0 L2.4,0 C1.1,0 0,1.1 0,2.4 L0,19.5 C0,20.9 1.1,22 2.4,22 L73.5,22 C74.8,22 75.9,20.9 75.9,19.6 L75.9,2.4 C76,1.1 74.9,0 73.6,0 L73.6,0 Z" id="Shape" fill="#7C8B8F"></path>
                </g>
                <path d="M13.7,2.2 C8.9,2.2 5,6.2 5,11 C5,15.8 8.9,19.8 13.7,19.8 C18.5,19.8 22.4,15.9 22.4,11 C22.4,6.1 18.6,2.2 13.7,2.2 Z M12.7,15.1 C12.7,15.3 12.5,15.5 12.3,15.5 L9.8,15.5 C9.6,15.5 9.4,15.3 9.4,15.1 L9.4,6.9 C9.4,6.7 9.6,6.5 9.8,6.5 L12.4,6.5 C12.6,6.5 12.8,6.7 12.8,6.9 C12.7,6.9 12.7,15.1 12.7,15.1 Z M18,15.1 C18,15.3 17.8,15.5 17.6,15.5 L15,15.5 C14.8,15.5 14.6,15.3 14.6,15.1 L14.6,6.9 C14.6,6.7 14.8,6.5 15,6.5 L17.6,6.5 C17.8,6.5 18,6.7 18,6.9 L18,15.1 Z" id="Shape" fill="#E20D18"></path>
                <g id="Group" transform="translate(26.000000, 6.000000)" fill="#000000">
                    <path d="M6.3,6.3 C6.3,6.6 6.2,6.9 6.1,7.1 C6,7.4 5.8,7.6 5.5,7.8 C5.2,8 4.9,8.2 4.6,8.3 C4.3,8.4 3.8,8.5 3.3,8.5 C2.8,8.5 2.3,8.5 1.9,8.4 C1.5,8.3 1.1,8.2 0.6,8 L0.6,6.8 L0.7,6.8 C1.1,7.1 1.5,7.3 2,7.5 C2.5,7.7 2.9,7.7 3.4,7.7 C4,7.7 4.5,7.6 4.8,7.4 C5.1,7.2 5.3,6.9 5.3,6.5 C5.3,6.2 5.2,5.9 5.1,5.8 C5,5.7 4.7,5.5 4.4,5.4 C4.2,5.3 3.9,5.3 3.6,5.2 C3.3,5.2 3,5.1 2.7,5 C2.1,4.9 1.6,4.6 1.3,4.3 C1,4 0.8,3.5 0.8,3 C0.8,2.4 1.1,1.9 1.6,1.5 C2,1.2 2.6,1 3.4,1 C3.9,1 4.4,1 4.8,1.1 C5.2,1.2 5.6,1.3 5.9,1.5 L5.9,2.6 L5.8,2.6 C5.5,2.4 5.2,2.2 4.7,2 C4.2,1.8 3.8,1.8 3.3,1.8 C2.8,1.8 2.4,1.9 2,2.1 C1.7,2.3 1.5,2.6 1.5,2.9 C1.5,3.2 1.6,3.4 1.7,3.6 C1.9,3.8 2.1,3.9 2.5,4 C2.7,4 3,4.1 3.4,4.2 C3.8,4.3 4.1,4.3 4.4,4.4 C4.9,4.5 5.4,4.8 5.6,5.1 C6.1,5.4 6.3,5.8 6.3,6.3 Z" id="Path"></path>
                    <path d="M12.6,5.6 C12.6,6 12.5,6.5 12.4,6.8 C12.3,7.2 12.1,7.5 11.9,7.7 C11.7,7.9 11.4,8.1 11.1,8.3 C10.8,8.5 10.5,8.5 10.2,8.5 C9.9,8.5 9.7,8.5 9.4,8.4 C9.2,8.3 8.9,8.2 8.7,8.1 L8.7,10.4 L7.8,10.4 L7.8,2.9 L8.7,2.9 L8.7,3.5 C8.9,3.3 9.2,3.1 9.5,3 C9.8,2.9 10.1,2.8 10.5,2.8 C11.2,2.8 11.7,3 12,3.5 C12.4,4 12.6,4.7 12.6,5.6 Z M11.6,5.6 C11.6,4.9 11.5,4.4 11.3,4.1 C11.1,3.8 10.7,3.6 10.3,3.6 C10,3.6 9.8,3.7 9.5,3.8 C9.2,3.9 9,4.1 8.7,4.3 L8.7,7.4 C9,7.5 9.2,7.6 9.4,7.6 C9.6,7.6 9.8,7.7 10,7.7 C10.5,7.7 10.9,7.5 11.2,7.2 C11.5,6.8 11.6,6.3 11.6,5.6 Z" id="Shape"></path>
                    <path d="M18.6,5.8 L14.6,5.8 C14.6,6.1 14.7,6.4 14.8,6.7 C14.9,7 15,7.2 15.2,7.3 C15.4,7.5 15.6,7.6 15.8,7.7 C16,7.8 16.3,7.8 16.6,7.8 C17,7.8 17.3,7.7 17.7,7.6 C18.1,7.5 18.3,7.3 18.5,7.2 L18.5,7.2 L18.5,8.2 C18.2,8.3 17.9,8.4 17.5,8.5 C17.2,8.6 16.8,8.6 16.5,8.6 C15.6,8.6 14.9,8.4 14.4,7.9 C13.9,7.4 13.6,6.7 13.6,5.8 C13.6,4.9 13.8,4.2 14.3,3.7 C14.8,3.2 15.4,2.9 16.2,2.9 C16.9,2.9 17.5,3.1 17.9,3.5 C18.3,3.9 18.5,4.5 18.5,5.3 L18.5,5.8 L18.6,5.8 Z M17.7,5.1 C17.7,4.6 17.6,4.2 17.3,4 C17,3.8 16.7,3.6 16.2,3.6 C15.7,3.6 15.3,3.7 15,4 C14.7,4.3 14.5,4.7 14.5,5.1 L17.7,5.1 Z" id="Shape"></path>
                    <polygon id="Path" points="21 8.4 20 8.4 20 0.8 21 0.8"></polygon>
                    <path d="M27.6,5.6 C27.6,6 27.5,6.5 27.4,6.8 C27.3,7.1 27.1,7.5 26.9,7.7 C26.7,7.9 26.4,8.1 26.1,8.3 C25.8,8.5 25.5,8.5 25.2,8.5 C24.9,8.5 24.7,8.5 24.4,8.4 C24.2,8.3 23.9,8.2 23.7,8.1 L23.7,10.4 L22.8,10.4 L22.8,2.9 L23.7,2.9 L23.7,3.5 C24,3.3 24.2,3.1 24.5,3 C24.8,2.9 25.1,2.8 25.5,2.8 C26.2,2.8 26.7,3 27,3.5 C27.4,4 27.6,4.7 27.6,5.6 Z M26.7,5.6 C26.7,4.9 26.6,4.4 26.4,4.1 C26.2,3.8 25.8,3.6 25.4,3.6 C25.1,3.6 24.9,3.7 24.6,3.8 C24.3,3.9 24.1,4.1 23.8,4.3 L23.8,7.4 C24.1,7.5 24.3,7.6 24.5,7.6 C24.7,7.6 24.9,7.7 25.1,7.7 C25.6,7.7 26,7.5 26.3,7.2 C26.6,6.9 26.7,6.3 26.7,5.6 Z" id="Shape"></path>
                    <path d="M33.3,8.4 L32.4,8.4 L32.4,7.8 C32.3,7.9 32.2,7.9 32.1,8 C32,8.1 31.8,8.2 31.7,8.2 C31.5,8.3 31.4,8.3 31.2,8.4 C31,8.5 30.8,8.5 30.5,8.5 C30,8.5 29.6,8.3 29.2,8 C28.8,7.7 28.7,7.3 28.7,6.7 C28.7,6.3 28.8,5.9 29,5.7 C29.2,5.4 29.4,5.2 29.8,5.1 C30.1,5 30.5,4.9 31,4.8 C31.5,4.7 32,4.7 32.5,4.7 L32.5,4.6 C32.5,4.4 32.5,4.2 32.4,4.1 C32.2,4 32.1,3.9 32,3.8 C31.9,3.7 31.7,3.7 31.5,3.6 C31.3,3.6 31.1,3.6 30.9,3.6 C30.7,3.6 30.4,3.6 30.1,3.7 C29.8,3.8 29.5,3.9 29.2,4 L29.2,4 L29.2,3.1 C29.4,3.1 29.6,3 30,2.9 C30.3,2.8 30.7,2.8 31,2.8 C31.4,2.8 31.7,2.8 32,2.9 C32.3,3 32.5,3.1 32.7,3.2 C32.9,3.4 33.1,3.5 33.2,3.8 C33.3,4 33.4,4.3 33.4,4.7 L33.4,8.4 L33.3,8.4 Z M32.4,7.1 L32.4,5.6 C32.1,5.6 31.8,5.6 31.4,5.7 C31,5.7 30.7,5.8 30.5,5.8 C30.2,5.9 30,6 29.9,6.2 C29.7,6.4 29.7,6.6 29.7,6.9 C29.7,7.2 29.8,7.5 30,7.6 C30.2,7.8 30.5,7.8 30.9,7.8 C31.2,7.8 31.5,7.7 31.8,7.6 C31.9,7.4 32.2,7.2 32.4,7.1 Z" id="Shape"></path>
                    <path d="M39.6,8.4 L38.7,8.4 L38.7,7.8 C38.4,8 38.1,8.2 37.8,8.4 C37.5,8.5 37.2,8.6 36.9,8.6 C36.3,8.6 35.9,8.4 35.6,8.1 C35.3,7.7 35.1,7.2 35.1,6.6 L35.1,2.9 L36,2.9 L36,6 C36,6.3 36,6.5 36,6.7 C36,6.9 36.1,7.1 36.2,7.2 C36.3,7.3 36.4,7.4 36.5,7.5 C36.6,7.6 36.8,7.6 37.1,7.6 C37.3,7.6 37.6,7.5 37.9,7.4 C38.2,7.3 38.4,7.1 38.7,6.9 L38.7,2.9 L39.6,2.9 L39.6,8.4 L39.6,8.4 Z" id="Path"></path>
                    <path d="M45.4,6.8 C45.4,7.3 45.2,7.7 44.8,8 C44.4,8.3 43.8,8.5 43.1,8.5 C42.7,8.5 42.3,8.5 42,8.4 C41.7,8.3 41.4,8.2 41.1,8.1 L41.1,7.1 L41.1,7.1 C41.4,7.3 41.7,7.5 42.1,7.6 C42.5,7.7 42.8,7.8 43.1,7.8 C43.5,7.8 43.8,7.7 44.1,7.6 C44.3,7.5 44.4,7.3 44.4,7 C44.4,6.8 44.3,6.6 44.2,6.5 C44.1,6.4 43.8,6.3 43.5,6.2 C43.4,6.2 43.2,6.1 43,6.1 C42.8,6.1 42.6,6 42.4,6 C41.9,5.9 41.6,5.7 41.4,5.4 C41.2,5.2 41.1,4.8 41.1,4.5 C41.1,4.3 41.1,4.1 41.2,3.9 C41.3,3.7 41.4,3.5 41.6,3.4 C41.8,3.2 42,3.1 42.3,3 C42.6,2.9 42.9,2.9 43.3,2.9 C43.6,2.9 44,2.9 44.3,3 C44.6,3.1 44.9,3.2 45.1,3.3 L45.1,4.3 L45.1,4.3 C44.9,4.1 44.6,4 44.2,3.9 C43.9,3.8 43.5,3.7 43.2,3.7 C42.9,3.7 42.6,3.8 42.3,3.9 C42,4 42,4.2 42,4.5 C42,4.7 42.1,4.9 42.2,5 C42.3,5.1 42.6,5.2 42.9,5.3 C43.1,5.3 43.3,5.4 43.5,5.4 C43.7,5.4 43.9,5.5 44,5.5 C44.4,5.6 44.8,5.8 45,6 C45.3,6.1 45.4,6.4 45.4,6.8 Z" id="Path"></path>
                </g>
            </g>
        </g>
    </g>
</svg>