<svg width="50" height="50" viewBox="0 0 50 50" fill="none" xmlns="http://www.w3.org/2000/svg">
    <path fill-rule="evenodd" clip-rule="evenodd" d="M26.6828 11.6947C26.6828 12.2674 25.9653 12.7404 25.0801 12.7404H24.9199C24.0348 12.7404 23.3174 12.2674 23.3174 11.6947V1.01663C23.3174 0.444125 24.0348 0 24.9199 0H25.0801C25.9653 0 26.6828 0.444125 26.6828 1.01663V11.6947Z" fill="black"/>
    <path fill-rule="evenodd" clip-rule="evenodd" d="M21.4705 12.0623C21.6897 12.5912 21.2002 13.2843 20.3824 13.6231L20.2344 13.6844C19.4167 14.0232 18.5804 13.8792 18.3613 13.3502L14.275 3.48495C14.0559 2.95595 14.5412 2.25257 15.3588 1.91382L15.5069 1.85245C16.3247 1.51382 17.1652 1.66807 17.3843 2.19707L21.4705 12.0623Z" fill="#101010" />
    <path fill-rule="evenodd" clip-rule="evenodd" d="M16.797 14.3932C17.2019 14.7981 17.0149 15.6257 16.389 16.2516L16.2758 16.3648C15.6499 16.9907 14.8223 17.1777 14.4173 16.7728L6.86676 9.22231C6.46189 8.81744 6.64101 7.98181 7.26689 7.35606L7.38026 7.24269C8.00601 6.61694 8.84164 6.43769 9.24651 6.84256L16.797 14.3932Z" fill="#202020" />
    <path fill-rule="evenodd" clip-rule="evenodd" d="M13.3741 18.3342C13.9031 18.5533 14.0471 19.3896 13.7083 20.2072L13.6471 20.3553C13.3083 21.1729 12.6152 21.6624 12.0862 21.4434L2.22097 17.3571C1.69197 17.1379 1.53772 16.2974 1.87647 15.4798L1.93772 15.3317C2.27647 14.5139 2.97984 14.0288 3.50884 14.2479L13.3741 18.3342Z" fill="#404040" />
    <path fill-rule="evenodd" clip-rule="evenodd" d="M11.721 23.3174C12.2936 23.3174 12.7404 24.0055 12.7404 24.8906V25.0509C12.7404 25.936 12.2936 26.6828 11.721 26.6828H1.04288C0.470375 26.6828 0 25.936 0 25.0509V24.8906C0 24.0055 0.470375 23.3174 1.04288 23.3174H11.721Z" fill="#505050" />
    <path fill-rule="evenodd" clip-rule="evenodd" d="M12.0879 28.5069C12.6169 28.2877 13.3007 28.7711 13.6394 29.5887L13.7007 29.7369C14.0394 30.5546 13.9048 31.397 13.3758 31.6161L3.51055 35.7024C2.98155 35.9215 2.2688 35.4301 1.93018 34.6125L1.8688 34.4644C1.53018 33.6466 1.69368 32.8124 2.22268 32.5932L12.0879 28.5069Z" fill="#606060" />
    <path fill-rule="evenodd" clip-rule="evenodd" d="M14.4186 33.1777C14.8235 32.773 15.6403 32.9577 16.266 33.5836L16.3794 33.6969C17.0053 34.3227 17.2031 35.1526 16.7984 35.5575L9.24775 43.108C8.84288 43.5129 7.99638 43.3315 7.3705 42.7057L7.25725 42.5924C6.63138 41.9666 6.46325 41.1332 6.86813 40.7282L14.4186 33.1777Z" fill="#707070" />
    <path fill-rule="evenodd" clip-rule="evenodd" d="M18.3599 36.5994C18.579 36.0704 19.4042 35.9287 20.2219 36.2673L20.37 36.3287C21.1877 36.6673 21.6881 37.3583 21.4691 37.8873L17.3827 47.7526C17.1636 48.2816 16.3122 48.4379 15.4945 48.0992L15.3465 48.0379C14.5287 47.6992 14.0545 46.9936 14.2736 46.4647L18.3599 36.5994Z" fill="#808080" />
    <path fill-rule="evenodd" clip-rule="evenodd" d="M26.6828 48.9067C26.6828 49.4794 25.9653 50.0001 25.0801 50.0001H24.9199C24.0348 50.0001 23.3174 49.4794 23.3174 48.9067V38.2286C23.3174 37.6561 24.0348 37.2197 24.9199 37.2197H25.0801C25.9653 37.2197 26.6828 37.6561 26.6828 38.2286V48.9067Z" fill="#909090" />
    <path fill-rule="evenodd" clip-rule="evenodd" d="M35.711 46.4416C35.9302 46.9705 35.4589 47.7078 34.6412 48.0465L34.4932 48.1078C33.6754 48.4465 32.8209 48.2585 32.6018 47.7295L28.5155 37.8642C28.2964 37.3352 28.7847 36.6388 29.6023 36.3002L29.7503 36.2388C30.568 35.9002 31.4057 36.0473 31.6248 36.5763L35.711 46.4416Z" fill="#9E9E9E" fill-opacity="0.95"/>
    <path fill-rule="evenodd" clip-rule="evenodd" d="M47.7535 32.5747C48.2823 32.7938 48.4705 33.6483 48.1317 34.4661L48.0705 34.6141C47.7317 35.4317 46.9946 35.9031 46.4656 35.684L36.6002 31.5977C36.0713 31.3786 35.9241 30.5408 36.2628 29.7232L36.3241 29.5752C36.6628 28.7575 37.3592 28.2693 37.8882 28.4885L47.7535 32.5747Z" fill="#BABABA" fill-opacity="0.85"/>
    <path fill-rule="evenodd" clip-rule="evenodd" d="M43.1098 40.706C43.5147 41.1108 43.3614 41.9723 42.7357 42.5982L42.6223 42.7114C41.9964 43.3373 41.1351 43.4905 40.7302 43.0857L33.1797 35.5352C32.7747 35.1303 32.9593 34.3002 33.5852 33.6743L33.6984 33.561C34.3243 32.9352 35.1544 32.7505 35.5593 33.1554L43.1098 40.706Z" fill="#ACACAC" fill-opacity="0.75"/>
    <path fill-rule="evenodd" clip-rule="evenodd" d="M48.933 23.3174C49.5056 23.3174 50.0001 24.0055 50.0001 24.8906V25.0509C50.0001 25.936 49.5056 26.6828 48.933 26.6828H38.2549C37.6824 26.6828 37.2197 25.936 37.2197 25.0509V24.8906C37.2197 24.0055 37.6824 23.3174 38.2549 23.3174H48.933Z" fill="#C8C8C8" fill-opacity="0.65"/>
    <path fill-rule="evenodd" clip-rule="evenodd" d="M46.4671 14.2665C46.996 14.0474 47.724 14.5124 48.0628 15.3301L48.1241 15.4781C48.4628 16.2959 48.284 17.1566 47.755 17.3757L37.8898 21.462C37.3608 21.6811 36.6551 21.1867 36.3165 20.369L36.2551 20.221C35.9165 19.4032 36.0729 18.5719 36.6019 18.3527L46.4671 14.2665Z" fill="#D7D7D7" fill-opacity="0.55"/>
    <path fill-rule="evenodd" clip-rule="evenodd" d="M40.7315 6.86534C41.1363 6.46047 41.9869 6.61159 42.6126 7.23747L42.726 7.35072C43.3519 7.97659 43.516 8.84009 43.1111 9.24509L35.5606 16.7956C35.1558 17.2005 34.3146 17.0137 33.6888 16.3878L33.5755 16.2745C32.9496 15.6487 32.776 14.8207 33.181 14.4158L40.7315 6.86534Z" fill="#E5E5E5" fill-opacity="0.45"/>
    <path fill-rule="evenodd" clip-rule="evenodd" d="M32.6003 2.2202C32.8194 1.6912 33.6629 1.50532 34.4805 1.84407L34.6286 1.90532C35.4464 2.24407 35.9285 2.97907 35.7094 3.50807L31.6231 13.3733C31.404 13.9023 30.5555 14.0517 29.7378 13.7129L29.5896 13.6517C28.772 13.3129 28.2948 12.6144 28.5139 12.0854L32.6003 2.2202Z" fill="#F3F3F3" fill-opacity="0.25"/>
</svg>
