<svg width="52" height="52" viewBox="0 0 52 52" fill="none" xmlns="http://www.w3.org/2000/svg">
<circle cx="26" cy="26" r="21.6667" fill="#003D50"/>
<circle cx="25.9885" cy="26.01" r="19.8321" fill="white"/>
<circle cx="25.9885" cy="26.0333" r="18.3433" fill="#004673"/>
<path d="M15.0527 14.0001L15.4145 14.7535L16.2403 14.8826L15.6355 15.4596L15.768 16.2847L15.0325 15.8879L14.2886 16.2689L14.4387 15.4466L13.8464 14.8569L14.6748 14.7456L15.0527 14.0001Z" fill="#50C2E6"/>
<path d="M37.0668 14.4164L37.4286 15.1698L38.2543 15.2988L37.6496 15.8757L37.7821 16.701L37.0465 16.3042L36.3026 16.685L36.4528 15.8629L35.8605 15.2731L36.6889 15.1619L37.0668 14.4164Z" fill="#50C2E6"/>
<path d="M17.1035 16.6558L17.3426 17.1533L17.888 17.2387L17.4886 17.6197L17.576 18.1649L17.0902 17.9028L16.5988 18.1544L16.698 17.6112L16.3067 17.2217L16.854 17.1481L17.1035 16.6558Z" fill="#50C2E6"/>
<path d="M35.9129 18.1488L36.1519 18.6465L36.6974 18.7318L36.2979 19.1129L36.3854 19.6581L35.8996 19.3958L35.4081 19.6474L35.5073 19.1044L35.1161 18.7147L35.6633 18.6413L35.9129 18.1488Z" fill="#50C2E6"/>
<path d="M39.891 18.8567L40.1301 19.3544L40.6755 19.4396L40.2761 19.8207L40.3635 20.3659L39.8777 20.1037L39.3863 20.3554L39.4855 19.8123L39.0942 19.4227L39.6415 19.3491L39.891 18.8567Z" fill="#50C2E6"/>
<path d="M13.6689 28.5328L14.0281 29.2807L14.8478 29.4088L14.2475 29.9815L14.3789 30.8006L13.6488 30.4067L12.9104 30.7849L13.0594 29.9687L12.4716 29.3833L13.2938 29.2727L13.6689 28.5328Z" fill="#50C2E6"/>
<path d="M38.4683 22.3109L38.6376 22.6634L39.024 22.7238L38.741 22.9937L38.803 23.38L38.4588 23.1943L38.1106 23.3725L38.1809 22.9877L37.9038 22.7118L38.2914 22.6597L38.4683 22.3109Z" fill="#50C2E6"/>
<path d="M12.1207 31.9499L12.29 32.3024L12.6765 32.3628L12.3935 32.6329L12.4555 33.019L12.1112 32.8333L11.7631 33.0116L11.8334 32.6269L11.5563 32.3508L11.9439 32.2987L12.1207 31.9499Z" fill="#50C2E6"/>
<path d="M13.0507 17.9662L13.276 18.4354L13.7902 18.5157L13.4136 18.8751L13.4961 19.3889L13.038 19.1418L12.5747 19.3791L12.6683 18.867L12.2994 18.4997L12.8153 18.4305L13.0507 17.9662Z" fill="#50C2E6"/>
<path fill-rule="evenodd" clip-rule="evenodd" d="M16.9127 36.675C17.4038 36.1638 17.3848 35.5343 16.8704 35.0402L16.0023 34.2059C15.9881 34.1891 15.9668 34.1799 15.9448 34.181C15.9228 34.1821 15.9026 34.1933 15.8901 34.2115L13.7529 36.4362C13.7353 36.4494 13.7249 36.4701 13.7247 36.4921C13.7245 36.5141 13.7345 36.535 13.7518 36.5485L14.1647 36.9453C14.179 36.9621 14.2002 36.9713 14.2222 36.9702C14.2442 36.9691 14.2645 36.9579 14.2771 36.9398L14.8748 36.3174L15.2746 36.7013C15.7888 37.1955 16.4185 37.1892 16.9127 36.675ZM16.3728 36.1555C16.1524 36.3847 15.9178 36.3798 15.672 36.1439L15.3445 35.829L16.0054 35.141L16.333 35.4559C16.5788 35.6919 16.5932 35.9263 16.3728 36.1555Z" fill="white"/>
<path d="M16.9081 39.2086C16.8871 39.2 16.8713 39.1819 16.8656 39.1599C16.8599 39.1379 16.8649 39.1145 16.8791 39.0967L18.4427 36.4364C18.4513 36.4154 18.4694 36.3996 18.4914 36.3939C18.5134 36.3882 18.5369 36.3932 18.5547 36.4074L19.0483 36.6975C19.0683 36.7066 19.0831 36.7246 19.0881 36.746C19.0931 36.7675 19.0878 36.7901 19.0739 36.8072L17.8119 38.9541L18.8815 39.5827C18.901 39.5913 18.9155 39.6084 18.9209 39.6291C18.9262 39.6497 18.9218 39.6717 18.9089 39.6887L18.6464 40.1352C18.6384 40.1557 18.6212 40.1713 18.6001 40.1775C18.5789 40.1836 18.5561 40.1796 18.5383 40.1665L16.9081 39.2086Z" fill="white"/>
<path fill-rule="evenodd" clip-rule="evenodd" d="M22.2329 37.9373C21.8629 37.8271 21.6798 37.5352 21.7772 37.2089C21.8746 36.8826 22.1867 36.7431 22.5566 36.8534C22.9093 36.9588 23.0955 37.2562 23.0005 37.574C22.9019 37.9047 22.5856 38.0421 22.2329 37.9373ZM19.8508 40.6921C19.8121 40.7423 19.8248 40.7791 19.8859 40.7976L20.4687 40.972C20.509 40.9866 20.5541 40.97 20.5753 40.9326L20.8992 40.451L21.957 40.7666L21.9596 41.3459C21.9573 41.3904 21.9879 41.4298 22.0315 41.4385L22.6103 41.6112C22.6757 41.6307 22.7022 41.6056 22.6974 41.5425L22.5723 38.2763C22.5731 38.2365 22.5467 38.2012 22.5083 38.1907L21.8467 37.9932C21.8088 37.9821 21.768 37.9966 21.7457 38.0293L19.8508 40.6921ZM21.6024 39.37L21.6024 39.37C21.7287 39.1735 21.8483 38.9874 21.9414 38.8508L21.9588 38.8559L21.9584 38.8817C21.954 39.1999 21.9471 39.7026 21.9596 40.1079L21.2588 39.8987C21.3689 39.7335 21.4884 39.5476 21.6024 39.37ZM22.5015 37.5868C22.4498 37.6133 22.389 37.6158 22.3353 37.5936C22.2567 37.5803 22.1928 37.523 22.1712 37.4463C22.1495 37.3695 22.1741 37.2872 22.2342 37.2349C22.2944 37.1826 22.3793 37.1697 22.4523 37.2017C22.5081 37.2117 22.5569 37.2455 22.586 37.2942C22.6151 37.3429 22.6217 37.4018 22.6041 37.4557C22.5908 37.5123 22.5533 37.5602 22.5015 37.5868Z" fill="white"/>
<path d="M24.5043 41.8713C24.4818 41.8741 24.4592 41.8662 24.4434 41.8498C24.4276 41.8334 24.4204 41.8106 24.424 41.7881L24.4794 38.7039C24.4766 38.6813 24.4845 38.6587 24.5009 38.6429C24.5173 38.6271 24.5401 38.6199 24.5626 38.6235L25.1667 38.6344C25.2052 38.6334 25.2405 38.6555 25.2563 38.6906L25.845 39.7873C26.0339 40.1542 26.2133 40.5347 26.3137 40.7683L26.3275 40.7639C26.303 40.3499 26.2923 39.9321 26.2992 39.5501L26.3137 38.7369C26.3108 38.7143 26.3188 38.6917 26.3352 38.6759C26.3516 38.66 26.3745 38.6528 26.397 38.6564L26.9601 38.6665C26.982 38.6648 27.0036 38.6733 27.0184 38.6896C27.0332 38.7059 27.0397 38.7281 27.0358 38.7498L26.9806 41.8341C26.9795 41.8886 26.9519 41.9153 26.9018 41.9143L26.2975 41.9035C26.2582 41.9037 26.2219 41.8822 26.2032 41.8475L25.6303 40.8557C25.4371 40.5115 25.2674 40.1547 25.1223 39.7876L25.1085 39.7918C25.1419 40.2106 25.1652 40.6877 25.1579 41.088L25.1451 41.8012C25.1441 41.8557 25.1163 41.8826 25.0663 41.8817L24.5043 41.8713Z" fill="white"/>
<path fill-rule="evenodd" clip-rule="evenodd" d="M30.5311 39.4883C30.8519 39.5328 31.0582 39.7335 31.1472 40.0812C31.3037 40.6932 31.0086 41.1532 30.3174 41.3301L29.1067 41.6398C29.0857 41.6485 29.0618 41.6468 29.0422 41.6353C29.0226 41.6237 29.0096 41.6036 29.007 41.5809L28.2424 38.5914C28.2337 38.5704 28.2354 38.5465 28.247 38.5269C28.2586 38.5073 28.2787 38.4943 28.3014 38.4919L29.5033 38.1847C30.1064 38.0304 30.541 38.2615 30.6862 38.8295C30.7638 39.0607 30.7037 39.3159 30.5311 39.4883ZM29.563 38.8211L29.0875 38.9427L29.2452 39.5593L29.7208 39.4377C29.9276 39.3848 30.0271 39.2606 29.9721 39.045C29.919 38.8385 29.7699 38.7688 29.563 38.8216V38.8211ZM30.4194 40.2438C30.4858 40.5036 30.3555 40.6541 30.1133 40.7162L29.5768 40.8545L29.391 40.1282L29.9098 39.9943C30.2092 39.9178 30.3654 40.0326 30.4194 40.2438Z" fill="white"/>
<path fill-rule="evenodd" clip-rule="evenodd" d="M34.2327 39.7814C34.9633 39.3659 35.1524 38.7148 34.7484 38.0037L34.36 37.3205C33.9579 36.6131 33.3017 36.4427 32.5708 36.8581C31.8438 37.2713 31.6549 37.9223 32.0568 38.6295L32.4452 39.3129C32.8494 40.0246 33.5056 40.1947 34.2327 39.7814ZM33.8914 39.181C33.5554 39.3718 33.2885 39.2885 33.0864 38.9327L32.7113 38.2726C32.5114 37.9209 32.5765 37.6492 32.9122 37.4582C33.2479 37.2671 33.5149 37.3508 33.7149 37.7022L34.0897 38.3619C34.2919 38.7179 34.2273 38.9902 33.8914 39.181Z" fill="white"/>
<path d="M36.9415 37.8316C36.9279 37.8497 36.9066 37.8603 36.8839 37.8603C36.8613 37.8603 36.84 37.8497 36.8264 37.8316L34.6572 35.6384C34.6392 35.6246 34.6288 35.6032 34.6289 35.5806C34.629 35.558 34.6397 35.5368 34.6578 35.5232L35.0614 35.1238C35.0752 35.1059 35.0966 35.0954 35.1192 35.0956C35.1418 35.0957 35.1631 35.1065 35.1766 35.1246L35.9816 35.9386L35.7744 34.4885C35.7683 34.4495 35.7818 34.41 35.8104 34.3827L36.3207 33.8778C36.3692 33.83 36.4141 33.843 36.4231 33.9105L36.587 35.6142L38.6636 35.9951C38.7276 36.0018 38.7436 36.0501 38.6952 36.0974L38.1979 36.5894C38.1704 36.6177 38.1295 36.6286 38.0915 36.6178L36.6538 36.3335L36.6715 36.6356L37.3457 37.3172C37.3635 37.331 37.3739 37.3524 37.3738 37.3749C37.3736 37.3975 37.363 37.4188 37.3449 37.4323L36.9415 37.8316Z" fill="white"/>
<path d="M20.7796 15.1601C20.3897 15.3646 19.937 15.4147 19.5119 15.3002C19.4905 15.2988 19.4709 15.288 19.4583 15.2707C19.4457 15.2534 19.4415 15.2314 19.4468 15.2106L19.5243 14.678C19.5254 14.6564 19.5367 14.6366 19.5546 14.6245C19.5726 14.6125 19.5952 14.6096 19.6156 14.6168C19.9173 14.6771 20.2304 14.6421 20.5114 14.5165C20.7751 14.3835 20.9168 14.2001 20.8268 14.0216C20.7245 13.8188 20.4443 13.868 20.1378 13.9567C19.685 14.078 18.9763 14.1859 18.6429 13.5245C18.3587 12.9605 18.7026 12.4413 19.3192 12.1305C19.6698 11.9502 20.0688 11.8862 20.4583 11.9479C20.5171 11.9538 20.5375 11.9842 20.5275 12.035L20.4642 12.5554C20.463 12.5776 20.4523 12.5982 20.4348 12.6119C20.4173 12.6256 20.3947 12.631 20.3729 12.6268C20.1066 12.5981 19.8376 12.6455 19.5971 12.7633C19.305 12.9106 19.2444 13.0632 19.3181 13.2093C19.4077 13.3879 19.603 13.3501 19.9889 13.258C20.6287 13.1137 21.183 13.0632 21.4862 13.6638C21.7722 14.2319 21.4937 14.7997 20.7796 15.1601Z" fill="white"/>
<path fill-rule="evenodd" clip-rule="evenodd" d="M24.7448 11.7378C24.6089 11.0421 24.0832 10.6957 23.383 10.8323L22.2014 11.063C22.1795 11.065 22.1598 11.0771 22.148 11.0957C22.1362 11.1143 22.1338 11.1374 22.1414 11.158L22.7323 14.1857C22.733 14.2077 22.7439 14.2282 22.7619 14.241C22.7798 14.2539 22.8027 14.2576 22.8238 14.2512L23.3856 14.1415C23.4076 14.1395 23.4273 14.1275 23.4391 14.1088C23.4509 14.0902 23.4534 14.0671 23.4457 14.0464L23.2805 13.1992L23.8244 13.093C24.5245 12.9565 24.8814 12.4377 24.7448 11.7378ZM24.0091 11.8812C24.07 12.1935 23.9312 12.3825 23.5965 12.4479L23.1508 12.5348L22.9679 11.5985L23.4139 11.5114C23.7483 11.4461 23.9482 11.569 24.0091 11.8812Z" fill="white"/>
<path d="M26.7163 13.1813L28.063 13.2709C28.1172 13.2745 28.1427 13.3034 28.1397 13.3533L28.1069 13.8524C28.1086 13.8751 28.0995 13.8973 28.0824 13.9123C28.0653 13.9273 28.0421 13.9333 28.0198 13.9286L26.0249 13.7961C26.0022 13.798 25.9799 13.789 25.9648 13.7719C25.9497 13.7548 25.9435 13.7316 25.9482 13.7092L26.1529 10.6308C26.1512 10.6081 26.1603 10.5859 26.1775 10.5709C26.1946 10.5559 26.2178 10.5499 26.2401 10.5546L28.1623 10.6826C28.185 10.6808 28.2074 10.6898 28.2225 10.707C28.2376 10.7241 28.2437 10.7474 28.239 10.7698L28.2058 11.2689C28.2066 11.2909 28.1971 11.312 28.1801 11.326C28.1631 11.3401 28.1406 11.3454 28.1191 11.3405L26.8451 11.2558L26.8039 11.877L27.9282 11.9517C27.9827 11.9553 28.0082 11.9842 28.005 12.0341L27.9723 12.5238C27.9731 12.5458 27.9636 12.5669 27.9466 12.581C27.9296 12.595 27.9071 12.6003 27.8856 12.5955L26.7613 12.5208L26.7163 13.1813Z" fill="white"/>
<path d="M29.2886 14.221C29.2662 14.2168 29.247 14.2023 29.237 14.1819C29.2269 14.1614 29.2271 14.1374 29.2374 14.1171L30.2468 11.201C30.2509 11.1786 30.2654 11.1594 30.2859 11.1493C30.3064 11.1393 30.3305 11.1394 30.3508 11.1498L30.8917 11.3372C30.9132 11.3423 30.931 11.3569 30.9401 11.377C30.9492 11.397 30.9485 11.4201 30.9382 11.4396L30.1243 13.7937L31.2967 14.1995C31.3175 14.2041 31.335 14.2179 31.3443 14.2371C31.3536 14.2563 31.3537 14.2786 31.3444 14.2978L31.175 14.7873C31.1712 14.809 31.1575 14.8277 31.138 14.8379C31.1184 14.8481 31.0953 14.8487 31.0753 14.8394L29.2886 14.221Z" fill="white"/>
<path d="M32.4231 13.8335C32.402 13.8249 32.3862 13.807 32.3804 13.785C32.3745 13.763 32.3794 13.7395 32.3935 13.7216L32.6225 13.3293C32.631 13.3082 32.649 13.2923 32.671 13.2865C32.6929 13.2807 32.7164 13.2856 32.7342 13.2997L33.7311 13.8812C33.7522 13.8898 33.768 13.9077 33.7738 13.9297C33.7796 13.9517 33.7747 13.9751 33.7606 13.993L33.5316 14.3855C33.5231 14.4065 33.5051 14.4223 33.4831 14.4281C33.4611 14.4339 33.4377 14.429 33.4199 14.4149L32.4231 13.8335Z" fill="white"/>
<path d="M17.7668 21.1767C17.9348 21.1332 27.5525 15.9928 27.5525 15.9928C27.5525 15.9928 28.7842 15.3503 29.3247 16.465C29.8651 17.5798 30.1094 18.1058 30.1094 18.1058L17.7668 21.1767Z" fill="#9FDDF1"/>
<path fill-rule="evenodd" clip-rule="evenodd" d="M17.6381 20.6818L17.8904 21.674L30.8347 18.4539L30.5737 17.8908C30.5713 17.8856 30.3215 17.3482 29.7854 16.2422C29.6042 15.8371 29.2638 15.5248 28.8446 15.3792C28.1175 15.1388 27.3957 15.4978 27.3112 15.542C23.5815 17.5353 17.9113 20.5546 17.5764 20.7026C17.5963 20.6938 17.6169 20.6869 17.6381 20.6818ZM27.7862 16.4489C27.9565 16.3676 28.1423 16.324 28.3309 16.3209V16.3204C28.3976 16.321 28.4637 16.3318 28.527 16.3525C28.6829 16.4106 28.806 16.5333 28.8645 16.689C29.0838 17.1415 29.2548 17.4978 29.38 17.7605L21.7782 19.6519C23.1931 18.9007 25.1309 17.8682 27.7862 16.4489Z" fill="#0078C0"/>
<path d="M21.5357 20.2357C21.7091 20.2421 30.8093 17.8876 30.8093 17.8876C30.8093 17.8876 32.1736 17.6253 32.3717 18.8482C32.5698 20.0712 32.6532 20.6451 32.6532 20.6451L21.5357 20.2357Z" fill="#D2E9F7"/>
<path fill-rule="evenodd" clip-rule="evenodd" d="M21.5169 20.7474L33.2473 21.1793L33.1588 20.5719C33.1588 20.5716 33.1585 20.5699 33.1581 20.5667C33.1492 20.5062 33.0632 19.9191 32.8764 18.7663C32.8191 18.3263 32.5825 17.9295 32.2227 17.6698C31.5956 17.2314 30.8011 17.3679 30.7126 17.385L30.681 17.3921C27.1785 18.2983 21.8362 19.6683 21.4735 19.7282C21.5003 19.7237 21.5275 19.7224 21.5545 19.7242L21.5169 20.7474ZM32.0539 20.1108L25.2002 19.8585C26.5443 19.5164 28.3869 19.0431 30.9185 18.3882C31.0302 18.37 31.4048 18.347 31.6367 18.509C31.7711 18.6091 31.855 18.7629 31.8664 18.9301C31.9474 19.4303 32.0092 19.8226 32.0539 20.1108Z" fill="#0078C0"/>
<path d="M34.1051 28.9225V32.2777C34.1036 32.7719 33.7034 33.1721 33.2093 33.1736H18.002C17.5079 33.1721 17.1077 32.7719 17.1062 32.2777V21.1311C17.1077 20.6369 17.5079 20.2367 18.002 20.2352H33.2093C33.7034 20.2367 34.1036 20.6369 34.1051 21.1311V24.1385" fill="#85BEE1"/>
<path d="M33.2093 33.6856H18.002C17.2249 33.6846 16.5952 33.0549 16.5943 32.2778V21.1312C16.5952 20.3541 17.2249 19.7243 18.002 19.7234H33.2093C33.9864 19.7243 34.6161 20.354 34.617 21.1312V24.1386H33.5932V21.1312C33.5932 20.9191 33.4213 20.7472 33.2093 20.7472H18.002C17.79 20.7472 17.6181 20.9191 17.6181 21.1312V32.2778C17.6181 32.4899 17.79 32.6618 18.002 32.6618H33.2093C33.4213 32.6618 33.5932 32.4899 33.5932 32.2778V28.9224H34.617V32.2778C34.6161 33.055 33.9864 33.6847 33.2093 33.6856Z" fill="#0078C0"/>
<rect x="29.3673" y="24.3358" width="6.28669" height="4.73779" rx="2.36889" fill="#9ECFEF"/>
<path fill-rule="evenodd" clip-rule="evenodd" d="M30.2631 29.5855H34.7582C35.5352 29.5846 36.165 28.9549 36.1659 28.1778V25.2318C36.165 24.4547 35.5353 23.8249 34.7582 23.8241H30.2631C29.486 23.8249 28.8563 24.4547 28.8554 25.2318V28.1778C28.8563 28.9549 29.486 29.5847 30.2631 29.5855ZM29.8792 25.2318C29.8792 25.0197 30.0511 24.8479 30.2631 24.8479H34.7582C34.9702 24.8479 35.1421 25.0197 35.1421 25.2318V28.1778C35.1421 28.3898 34.9702 28.5617 34.7582 28.5617H30.2631C30.0511 28.5617 29.8792 28.3898 29.8792 28.1778V25.2318Z" fill="#0078C0"/>
<ellipse cx="31.2319" cy="26.7046" rx="0.728055" ry="0.728056" fill="#0078C0"/>
</svg>
