<svg width="52" height="52" viewBox="0 0 52 52" fill="none" xmlns="http://www.w3.org/2000/svg">
<circle cx="25.9744" cy="25.9744" r="21.6411" fill="#003D50"/>
<ellipse cx="25.9629" cy="25.9846" rx="19.8093" ry="19.8093" fill="white"/>
<ellipse cx="25.9629" cy="26.0077" rx="18.3214" ry="18.3214" fill="#004673"/>
<path d="M15.4543 38.2445C15.4346 38.234 15.421 38.2148 15.4175 38.1927C15.414 38.1707 15.421 38.1482 15.4364 38.1321L17.226 35.6752C17.2366 35.6555 17.2557 35.6419 17.2778 35.6384C17.2999 35.6349 17.3223 35.6419 17.3385 35.6573L17.791 35.9858C17.8107 35.9964 17.8243 36.0156 17.8278 36.0376C17.8313 36.0597 17.8243 36.0822 17.8089 36.0983L17.1467 37.0097L18.5221 36.5777C18.5592 36.5669 18.5991 36.5735 18.6308 36.5956L19.2035 37.011C19.2571 37.0506 19.252 37.0967 19.1881 37.1158L17.5583 37.5479L17.5187 39.6264C17.5187 39.689 17.4778 39.712 17.4241 39.6724L16.8668 39.2684C16.8348 39.2458 16.8177 39.2076 16.822 39.1687L16.8693 37.7268L16.5779 37.792L16.0231 38.559C16.0129 38.5791 15.9937 38.5931 15.9715 38.5967C15.9492 38.6002 15.9266 38.5929 15.9106 38.5769L15.4543 38.2445Z" fill="white"/>
<path fill-rule="evenodd" clip-rule="evenodd" d="M19.8835 40.8828C20.653 41.1858 21.2691 40.9289 21.5644 40.1798L21.8482 39.4627C22.1422 38.7124 21.8635 38.1039 21.0978 37.8009C20.3322 37.498 19.716 37.7562 19.422 38.5002L19.1383 39.2211C18.843 39.9727 19.114 40.5799 19.8835 40.8828ZM20.1327 40.2526C19.7787 40.1171 19.6777 39.8602 19.826 39.4857L20.0995 38.7877C20.2452 38.417 20.4958 38.2982 20.8486 38.4375C21.2014 38.5768 21.3024 38.8338 21.1566 39.2045L20.8831 39.8986C20.7348 40.2731 20.4868 40.3881 20.1327 40.2526Z" fill="white"/>
<path d="M23.1239 41.7751C23.1018 41.7761 23.0804 41.7666 23.0664 41.7495C23.0523 41.7324 23.0471 41.7097 23.0523 41.6881L23.3463 38.6638C23.3457 38.6415 23.3555 38.6202 23.3728 38.6062C23.3901 38.5922 23.4129 38.587 23.4345 38.5922L24.0264 38.6497C24.0639 38.6516 24.0966 38.6757 24.1095 38.7111L24.6029 39.8334C24.7601 40.2092 24.9071 40.6003 24.9864 40.833H25.0004C25.0094 40.4239 25.0311 40.0123 25.0669 39.6391L25.1449 38.8414C25.1437 38.819 25.1533 38.7974 25.1708 38.7832C25.1882 38.7691 25.2114 38.7641 25.2331 38.7699L25.7853 38.8235C25.8338 38.8235 25.8581 38.8568 25.853 38.9105L25.559 41.9336C25.559 41.9873 25.5245 42.0115 25.4759 42.0064L24.8828 41.9489C24.8441 41.946 24.8101 41.9219 24.7946 41.8863L24.3102 40.8637C24.1468 40.5109 24.0076 40.1474 23.8934 39.7759H23.8807C23.8807 40.19 23.8666 40.6604 23.8282 41.0541L23.7605 41.7521C23.7617 41.7739 23.7528 41.795 23.7363 41.8093C23.7197 41.8235 23.6975 41.8293 23.6761 41.8249L23.1239 41.7751Z" fill="white"/>
<path d="M29.1548 38.4171C29.1758 38.4115 29.1983 38.416 29.2155 38.4293C29.2328 38.4425 29.2429 38.463 29.243 38.4848L29.3235 38.9884C29.329 39.0087 29.3249 39.0304 29.3125 39.0473C29.3001 39.0642 29.2806 39.0745 29.2596 39.0754L28.4517 39.2032L28.8352 41.6242C28.842 41.6449 28.8388 41.6676 28.8265 41.6856C28.8143 41.7037 28.7943 41.715 28.7726 41.7163L28.2165 41.8057C28.1955 41.8113 28.1731 41.8068 28.1558 41.7935C28.1386 41.7803 28.1284 41.7598 28.1283 41.738L27.7449 39.317L26.9357 39.4448C26.9152 39.4511 26.8929 39.4476 26.8752 39.4354C26.8575 39.4232 26.8464 39.4036 26.845 39.3821L26.7644 38.8785C26.7575 38.8572 26.7612 38.8338 26.7743 38.8156C26.7874 38.7974 26.8085 38.7866 26.8309 38.7865L29.1548 38.4171Z" fill="white"/>
<path fill-rule="evenodd" clip-rule="evenodd" d="M32.4246 40.6732C33.1839 40.3434 33.4383 39.726 33.1174 38.9872L32.8094 38.2739C32.4911 37.5414 31.8622 37.3075 31.1067 37.6348C30.3512 37.962 30.0981 38.5794 30.4164 39.3144L30.7245 40.0251C31.0441 40.764 31.6653 41.003 32.4246 40.6732ZM32.1587 40.0494C31.8046 40.2002 31.5528 40.0903 31.3918 39.7209L31.0939 39.0345C30.9354 38.6701 31.0211 38.4094 31.3764 38.2585C31.7318 38.1077 31.9849 38.2176 32.1434 38.5832L32.4399 39.2684C32.5997 39.6378 32.5128 39.8986 32.1587 40.0494Z" fill="white"/>
<path d="M34.8738 35.3058C34.8895 35.2908 34.9113 35.2839 34.9328 35.2872C34.9543 35.2904 34.9731 35.3034 34.9837 35.3224L35.2956 35.7264C35.3104 35.7411 35.3176 35.7618 35.3151 35.7825C35.3126 35.8033 35.3007 35.8217 35.2828 35.8325L34.6347 36.3335L36.1341 38.274C36.1502 38.2885 36.1585 38.3099 36.1565 38.3315C36.1545 38.3531 36.1424 38.3725 36.1239 38.3839L35.6778 38.729C35.6621 38.744 35.6403 38.7509 35.6188 38.7477C35.5972 38.7444 35.5785 38.7314 35.5679 38.7124L34.0685 36.772L33.4204 37.2731C33.4054 37.2885 33.3841 37.2963 33.3626 37.294C33.3412 37.2918 33.3219 37.2798 33.3104 37.2616L32.9973 36.8576C32.9816 36.8418 32.9742 36.8196 32.9772 36.7976C32.9802 36.7756 32.9933 36.7562 33.0126 36.7451L34.8738 35.3058Z" fill="white"/>
<path d="M19.4974 15.5821C19.4638 15.6029 19.4203 15.5976 19.3926 15.5693L16.9639 13.4474C16.9153 13.4078 16.9192 13.3694 16.9741 13.3387L17.5072 13.0256C17.5417 13.0039 17.587 13.011 17.6133 13.0422L18.742 14.0648C18.9631 14.268 19.2073 14.5147 19.3901 14.7039L19.4092 14.6924C19.3428 14.4368 19.2559 14.1108 19.1907 13.8168L18.8711 12.3238C18.8581 12.2833 18.8773 12.2395 18.9158 12.2215L19.4399 11.9211C19.4974 11.8879 19.5294 11.9058 19.5384 11.9672L20.1455 15.1322C20.1554 15.17 20.1379 15.2097 20.1033 15.228L19.4974 15.5821Z" fill="white"/>
<path d="M22.6957 14.1351C22.7047 14.1555 22.7037 14.179 22.6929 14.1986C22.6821 14.2181 22.6628 14.2315 22.6407 14.2348L22.1013 14.3908C22.0809 14.3998 22.0574 14.3987 22.0378 14.388C22.0183 14.3772 22.0049 14.3579 22.0016 14.3358L21.1592 11.4162C21.1502 11.3956 21.1514 11.3719 21.1624 11.3523C21.1735 11.3327 21.1931 11.3194 21.2155 11.3165L21.7523 11.1618C21.7727 11.1522 21.7965 11.153 21.8162 11.1639C21.8359 11.1748 21.8493 11.1944 21.852 11.2168L22.6957 14.1351Z" fill="white"/>
<path d="M24.0187 13.9038C23.9966 13.9075 23.9741 13.9007 23.9578 13.8854C23.9415 13.8701 23.9333 13.848 23.9356 13.8258L23.8244 10.7912C23.8207 10.7691 23.8275 10.7466 23.8428 10.7303C23.8581 10.714 23.8801 10.7058 23.9024 10.7081L24.4968 10.6863C24.5345 10.6824 24.5706 10.7023 24.5875 10.7362L25.2267 11.7831C25.4312 12.1333 25.628 12.4977 25.738 12.7214H25.752C25.706 12.3161 25.6728 11.9058 25.6587 11.53L25.6357 10.7247C25.632 10.7026 25.6388 10.6801 25.6541 10.6638C25.6694 10.6475 25.6914 10.6393 25.7137 10.6416L26.2672 10.6212C26.317 10.6212 26.3451 10.6454 26.3464 10.6991L26.4576 13.7337C26.4576 13.7874 26.4346 13.8156 26.3848 13.8168L25.7904 13.8398C25.7513 13.8423 25.7142 13.8225 25.6945 13.7887L25.0784 12.8453C24.8698 12.5174 24.6836 12.1758 24.521 11.8227H24.5083C24.5632 12.2331 24.6118 12.7009 24.6259 13.0946L24.6514 13.7964C24.6514 13.8501 24.6284 13.8782 24.5786 13.8795L24.0187 13.9038Z" fill="white"/>
<path d="M28.577 14.2783C28.1578 14.1747 27.7928 13.9174 27.5544 13.5573C27.5393 13.5425 27.5317 13.5216 27.5336 13.5006C27.5356 13.4795 27.547 13.4604 27.5646 13.4487L27.9685 13.1061C27.9829 13.0903 28.0041 13.0826 28.0253 13.0854C28.0464 13.0882 28.0649 13.1012 28.0746 13.1201C28.2584 13.3623 28.5131 13.541 28.8032 13.6315C29.0845 13.7056 29.3146 13.6621 29.358 13.4717C29.4143 13.2544 29.1752 13.1086 28.8902 12.9744C28.4773 12.7699 27.8829 12.389 28.067 11.6834C28.2229 11.0813 28.8148 10.9164 29.4731 11.0928C29.8499 11.187 30.1868 11.3993 30.4343 11.6987C30.4531 11.7107 30.4645 11.7314 30.4645 11.7537C30.4645 11.7759 30.4531 11.7967 30.4343 11.8086L30.0508 12.1512C30.0356 12.1669 30.0143 12.1752 29.9925 12.174C29.9707 12.1728 29.9504 12.1621 29.9371 12.1448C29.7549 11.9469 29.5198 11.8054 29.2596 11.7371C28.9477 11.6565 28.8032 11.7294 28.7636 11.8853C28.7138 12.0758 28.8825 12.1755 29.2276 12.3583C29.7939 12.6676 30.2375 12.9974 30.07 13.6366C29.9153 14.2374 29.3401 14.4764 28.577 14.2783Z" fill="white"/>
<path d="M34.1758 13.271C34.1956 13.2802 34.2099 13.2981 34.2147 13.3193C34.2194 13.3406 34.2141 13.3629 34.2001 13.3796L33.9445 13.8206C33.9355 13.8395 33.9186 13.8535 33.8984 13.8587C33.8781 13.8639 33.8566 13.8598 33.8397 13.8475L33.1328 13.4359L31.898 15.554C31.8903 15.5743 31.8735 15.5898 31.8526 15.5958C31.8317 15.6019 31.8092 15.5977 31.7919 15.5847L31.3048 15.3009C31.2849 15.2922 31.2703 15.2747 31.2652 15.2536C31.2602 15.2325 31.2654 15.2102 31.2793 15.1935L32.5141 13.0754L31.8059 12.6625C31.786 12.6544 31.7708 12.6376 31.7648 12.6169C31.7589 12.5962 31.7627 12.5739 31.7752 12.5564L32.0309 12.1154C32.0394 12.0948 32.057 12.0793 32.0786 12.0735C32.1002 12.0678 32.1232 12.0724 32.1408 12.086L34.1758 13.271Z" fill="white"/>
<path d="M33.8933 15.8224C33.8751 15.8092 33.8643 15.788 33.8643 15.7655C33.8643 15.743 33.8751 15.7219 33.8933 15.7086L34.1963 15.3788C34.2095 15.3606 34.2307 15.3499 34.2532 15.3499C34.2757 15.3499 34.2968 15.3606 34.31 15.3788L35.146 16.1458C35.1642 16.159 35.175 16.1802 35.175 16.2027C35.175 16.2252 35.1642 16.2463 35.146 16.2596L34.8431 16.5894C34.8295 16.6071 34.8085 16.6175 34.7862 16.6175C34.7639 16.6175 34.7429 16.6071 34.7293 16.5894L33.8933 15.8224Z" fill="white"/>
<path d="M33.4856 19.0539H28.4773H23.4703H18.462L15.9592 23.3911L25.9732 34.7817L35.9897 23.3911L33.4856 19.0539Z" fill="#D2E9F7"/>
<path d="M20.9662 23.3911L18.4621 19.0539L16.174 23.4217L20.9662 23.3911Z" fill="#9FDDF1"/>
<path d="M25.8965 23.2568L23.4703 19.0539L21.048 23.2505L25.8965 23.2568Z" fill="#9FDDF1"/>
<path d="M31.0211 23.391L28.4198 19.2021L26.2084 23.4217L31.0211 23.391Z" fill="#9FDDF1"/>
<path d="M25.9732 23.3911V34.0237L30.8664 23.3911H25.9732Z" fill="#A4DFF2"/>
<path d="M16.174 23.3911V23.4971L25.7456 34.2627L20.745 23.3911H16.174Z" fill="#59B7E2"/>
<path d="M35.5921 23.3911V23.4971L26.0192 34.2627L31.021 23.3911H35.5921Z" fill="#59B7E2"/>
<path d="M25.6804 35.3953L15.375 23.6812C15.2629 23.5535 15.2444 23.3685 15.329 23.221L17.984 18.6193C18.0547 18.4969 18.1852 18.4214 18.3266 18.4211H29.0039C29.2228 18.4211 29.4002 18.5986 29.4002 18.8174V19.2891C29.4002 19.5079 29.2228 19.6854 29.0039 19.6854H19.0552C18.9134 19.6854 18.7824 19.7609 18.7113 19.8835L16.8719 23.0689C16.7871 23.2159 16.8056 23.4006 16.9179 23.5278L25.6804 33.4894C25.7557 33.5747 25.8639 33.6236 25.9776 33.6236C26.0914 33.6236 26.1996 33.5747 26.2748 33.4894L35.0335 23.5278C35.1459 23.4006 35.1644 23.2159 35.0795 23.0689L33.2401 19.8822C33.1694 19.7598 33.0389 19.6843 32.8975 19.6841C32.6787 19.6841 32.5013 19.5067 32.5013 19.2878V18.82C32.5013 18.6011 32.6787 18.4237 32.8975 18.4237H33.6249C33.7662 18.4239 33.8968 18.4994 33.9675 18.6218L36.6224 23.2236C36.7071 23.3711 36.6886 23.556 36.5764 23.6838L26.271 35.3953C26.1958 35.4793 26.0884 35.5273 25.9757 35.5273C25.863 35.5273 25.7556 35.4793 25.6804 35.3953Z" fill="#0078C0"/>
<path d="M32.5831 19.684H28.5425C28.0989 19.684 27.7385 19.5805 27.7385 19.4514V18.6563C27.7385 18.5285 28.0989 18.4236 28.5425 18.4236H32.5831C33.0267 18.4236 33.3859 18.5285 33.3859 18.6563V19.4514C33.3833 19.5805 33.0241 19.684 32.5831 19.684Z" fill="#0078C0"/>
<rect x="15.9579" y="22.7608" width="20.0305" height="1.26037" fill="#0078C0"/>
<path d="M20.3896 23.6441L21.5434 23.1369L26.5506 34.5276L25.3968 35.0348L20.3896 23.6441Z" fill="#0078C0"/>
<path d="M25.3979 34.2696L30.4052 22.8789L31.559 23.3861L26.5518 34.7768L25.3979 34.2696Z" fill="#0078C0"/>
<rect x="25.3443" y="23.3911" width="1.26037" height="11.1312" fill="#0078C0"/>
<path d="M17.9161 19.3712L19.0077 18.741L21.5118 23.0783L20.4203 23.7085L17.9161 19.3712Z" fill="#0078C0"/>
<path d="M22.9245 19.3712L24.016 18.741L26.5202 23.0783L25.4287 23.7085L22.9245 19.3712Z" fill="#0078C0"/>
<path d="M27.9318 19.3718L29.0233 18.7416L31.5274 23.0789L30.4359 23.7091L27.9318 19.3718Z" fill="#0078C0"/>
<path d="M30.4994 22.9727L33.0035 18.6155L34.1 19.2457L31.5959 23.6028L30.4994 22.9727Z" fill="#0078C0"/>
<path d="M25.4918 22.9928L27.9959 18.6356L29.0924 19.2658L26.5883 23.623L25.4918 22.9928Z" fill="#0078C0"/>
<path d="M20.4208 23.0742L22.9249 18.7369L24.0164 19.3671L21.5123 23.7043L20.4208 23.0742Z" fill="#0078C0"/>
<path d="M32.3568 30.6017L32.7186 31.3546L33.5431 31.4838L32.9397 32.0603L33.0714 32.8847L32.3364 32.4872L31.5937 32.8681L31.7433 32.0475L31.1527 31.4582L31.9797 31.347L32.3568 30.6017Z" fill="#50C2E6"/>
<path d="M37.2922 28.1372L37.654 28.8888L38.4785 29.0179L37.8751 29.5944L38.0068 30.4189L37.2718 30.0227L36.5291 30.4023L36.6787 29.5816L36.0881 28.9924L36.9151 28.8812L37.2922 28.1372Z" fill="#50C2E6"/>
<path d="M42.2085 26.5842L42.4475 27.0814L42.9921 27.1658L42.5932 27.5467L42.6814 28.0912L42.1957 27.8292L41.7048 28.081L41.8033 27.539L41.4134 27.1492L41.9592 27.0763L42.2085 26.5842Z" fill="#50C2E6"/>
<path d="M10.6339 19.7083L10.873 20.2056L11.4175 20.2912L11.0187 20.6721L11.1056 21.2167L10.6211 20.9546L10.1303 21.2064L10.2287 20.6632L9.83884 20.2746L10.3847 20.2004L10.6339 19.7083Z" fill="#50C2E6"/>
<path d="M38.4926 22.1166L38.6613 22.4694L39.0473 22.5295L38.7648 22.7992L38.8262 23.1852L38.4823 22.9999L38.1346 23.1775L38.2049 22.7928L37.9288 22.5167L38.3162 22.4655L38.4926 22.1166Z" fill="#50C2E6"/>
<path d="M12.5603 22.5269L12.7303 22.8784L13.1163 22.9385L12.8338 23.2082L12.8952 23.5943L12.5513 23.4089L12.2037 23.5866L12.274 23.2031L11.9966 22.927L12.3839 22.8746L12.5603 22.5269Z" fill="#50C2E6"/>
<path d="M13.7312 18.1757L14.0929 18.9286L14.9174 19.0577L14.3141 19.6342L14.4457 20.4574L13.7107 20.0612L12.968 20.4421L13.1176 19.6202L12.5258 19.0322L13.3541 18.921L13.7312 18.1757Z" fill="#50C2E6"/>
</svg>
