<svg width="24" height="24" viewBox="0 0 24 24" fill="none" xmlns="http://www.w3.org/2000/svg">
<path d="M22.3834 1.44H19.7611V0.24C19.7611 0.108 19.6585 0 19.5331 0H4.93953C4.81411 0 4.7115 0.108 4.7115 0.24V1.44H2.08922C1.7566 1.44 1.43761 1.57907 1.20241 1.82662C0.967215 2.07417 0.835083 2.40991 0.835083 2.76V7.2C0.835083 9.651 2.54527 11.688 4.77421 12.06C5.21601 15.546 7.87535 18.291 11.2102 18.675V21.831H5.6236C5.1191 21.831 4.7115 22.26 4.7115 22.791V23.76C4.7115 23.892 4.81411 24 4.93953 24H19.5331C19.6585 24 19.7611 23.892 19.7611 23.76V22.791C19.7611 22.26 19.3535 21.831 18.849 21.831H13.2624V18.675C16.5973 18.291 19.2566 15.546 19.6984 12.06C21.9274 11.688 23.6376 9.651 23.6376 7.2V2.76C23.6376 2.40991 23.5054 2.07417 23.2702 1.82662C23.035 1.57907 22.716 1.44 22.3834 1.44ZM2.88731 7.2V3.6H4.7115V9.828C4.18205 9.65 3.72003 9.29952 3.39215 8.82716C3.06426 8.3548 2.88748 7.785 2.88731 7.2ZM17.7089 11.04C17.7089 12.513 17.1645 13.902 16.1726 14.943C15.1807 15.987 13.8638 16.56 12.4643 16.56H12.0083C10.6088 16.56 9.2891 15.987 8.30004 14.943C7.30814 13.899 6.76373 12.513 6.76373 11.04V2.16H17.7089V11.04ZM21.5853 7.2C21.5853 8.43 20.8186 9.474 19.7611 9.828V3.6H21.5853V7.2Z" fill="#D96195"/>
</svg>
