<svg width="25" height="25" viewBox="0 0 25 25" fill="none" xmlns="http://www.w3.org/2000/svg">
<path d="M6.2 1.20132C6.2 1.14892 6.24248 1.10645 6.29488 1.10645H19.6051C19.6575 1.10645 19.7 1.14892 19.7 1.20132V10.1064C19.7 13.8344 16.6779 16.8564 12.95 16.8564V16.8564C9.22208 16.8564 6.2 13.8344 6.2 10.1064V1.20132Z" stroke="#3576AB" stroke-width="1.5"/>
<path d="M6.2 10.1064H5.6375C3.46288 10.1064 1.7 8.34357 1.7 6.16895V6.16895V4.35645C1.7 3.80416 2.14771 3.35645 2.7 3.35645H5.45" stroke="#3576AB" stroke-width="1.5"/>
<path d="M19.7 10.1064H20.2625C22.4371 10.1064 24.2 8.34357 24.2 6.16895V6.16895V4.35645C24.2 3.80416 23.7523 3.35645 23.2 3.35645H20.45" stroke="#3576AB" stroke-width="1.5"/>
<path d="M12.95 20.2314L12.95 16.8564" stroke="#3576AB" stroke-width="1.5" stroke-linejoin="round"/>
<path d="M8.45 22.7314C8.45 21.3507 9.56929 20.2314 10.95 20.2314H14.95C16.3307 20.2314 17.45 21.3507 17.45 22.7314V23.6064H8.45V22.7314Z" stroke="#3576AB" stroke-width="1.5" stroke-linejoin="round"/>
</svg>
