<svg width="92" height="19" viewBox="0 0 92 19" fill="none" xmlns="http://www.w3.org/2000/svg">
<mask id="mask0_506_199" style="mask-type:alpha" maskUnits="userSpaceOnUse" x="-54" y="0" width="200" height="77">
<path fill-rule="evenodd" clip-rule="evenodd" d="M46 76.5517C68.0914 76.5517 86 59.415 86 38.2759C86 31.735 90.5686 25 97.1095 25H142.591C144.474 25 146 23.4735 146 21.5905C146 19.7075 144.474 18.181 142.591 18.181H90.9419C84.1518 18.181 78.0544 14.4433 72.9373 9.98009C65.829 3.78031 56.3758 0 46 0C35.6242 0 26.171 3.78031 19.0627 9.98009C13.9456 14.4433 7.84816 18.181 1.05806 18.181H-50.5905C-52.4735 18.181 -54 19.7075 -54 21.5905C-54 23.4735 -52.4735 25 -50.5905 25H-5.10949C1.43137 25 6 31.735 6 38.2759C6 59.415 23.9086 76.5517 46 76.5517Z" fill="white"/>
</mask>
<g mask="url(#mask0_506_199)">
<g style="mix-blend-mode:screen">
<path d="M0 0H92V18.1858H0V0Z" fill="white"/>
</g>
</g>
</svg>
