<svg width="123" height="39" xmlns="http://www.w3.org/2000/svg">
  <g fill="none" fill-rule="evenodd">
    <path d="M23.1983 38.8005c-.1455 0-.2179-.0713-.2179-.2173V30.362c0-.145.0724-.2185.2179-.2185h1.5255c.1328 0 .2058.0736.2058.2185v6.6358h3.3054c.1327 0 .2057.0713.2057.2047v1.3807c0 .146-.073.2173-.2057.2173h-5.0367zM32.9481 35.471c0 1.09.5088 1.6349 1.5377 1.6349 1.0295 0 1.5377-.545 1.5377-1.6348v-2.0212c0-1.0784-.5082-1.6233-1.5377-1.6233-1.029 0-1.5377.545-1.5377 1.6233v2.0212zm5.0735.0368c0 2.1798-1.2957 3.4387-3.5358 3.4387-2.2275 0-3.5232-1.259-3.5232-3.4387v-2.0946c0-2.1672 1.2957-3.426 3.5232-3.426 2.2401 0 3.5358 1.2588 3.5358 3.426v2.0946zM47.4088 30.1435c.1328 0 .2058.0736.2058.2184v1.3808c0 .1322-.073.2058-.2058.2058h-2.216v6.6347c0 .146-.0724.2173-.2058.2173h-1.5256c-.1328 0-.2058-.0713-.2058-.2173v-6.6347h-2.2154c-.1454 0-.2178-.0736-.2178-.2058v-1.3808c0-.1448.0724-.2184.2178-.2184h6.3686zM57.0281 30.1435c.1328 0 .2058.0736.2058.2184v1.3808c0 .1322-.073.2058-.2058.2058h-2.216v6.6347c0 .146-.0724.2173-.2057.2173h-1.5257c-.1328 0-.2058-.0713-.2058-.2173v-6.6347h-2.2154c-.1454 0-.2178-.0736-.2178-.2058v-1.3808c0-.1448.0724-.2184.2178-.2184h6.3686zM62.0702 37.0461h3.5956c.1454 0 .2178.0713.2178.2046v1.3325c0 .146-.0724.2173-.2178.2173h-5.327c-.1454 0-.2178-.0713-.2178-.2173V30.362c0-.1449.0724-.2185.2178-.2185h5.1333c.1454 0 .2178.0736.2178.2185v1.3313c0 .1333-.0724.2069-.2178.2069h-3.4019v1.6578h3.0024c.1454 0 .2178.0736.2178.207v1.3071c0 .1322-.0724.2058-.2178.2058h-3.0024v1.7682zM70.9816 31.937v2.2752h1.1502c.9077 0 1.283-.3507 1.283-1.1382 0-.7749-.3753-1.137-1.283-1.137h-1.1502zm2.7 6.8635c-.1092 0-.1937-.0483-.2426-.1449l-1.6825-2.7477h-.7749v2.6753c0 .146-.073.2173-.2178.2173h-1.5136c-.1454 0-.2178-.0713-.2178-.2173v-8.2213c0-.1448.0724-.2184.2178-.2184h2.942c2.0705 0 3.2208 1.1267 3.2208 2.9179 0 1.26-.63 2.1314-1.7435 2.5557l1.9366 2.9304c.0851.145.0368.253-.1448.253h-1.7797zM80.5637 38.5832c0 .146-.0725.2173-.2185.2173h-1.513c-.1448 0-.2184-.0713-.2184-.2173V30.362c0-.1449.0736-.2185.2185-.2185h1.513c.146 0 .2184.0736.2184.2185v8.2212zM86.2176 37.0461h3.5961c.1448 0 .2173.0713.2173.2046v1.3325c0 .146-.0725.2173-.2173.2173h-5.3275c-.145 0-.2185-.0713-.2185-.2173V30.362c0-.1449.0736-.2185.2185-.2185h5.1332c.146 0 .2184.0736.2184.2185v1.3313c0 .1333-.0724.2069-.2184.2069h-3.4018v1.6578h3.0028c.145 0 .2174.0736.2174.207v1.3071c0 .1322-.0725.2058-.2174.2058h-3.0028v1.7682zM99.0202 30.1435c.1333 0 .2058.0736.2058.2184v1.3808c0 .1322-.0725.2058-.2058.2058h-2.2155v6.6347c0 .146-.0724.2173-.2058.2173h-1.5255c-.1334 0-.2058-.0713-.2058-.2173v-6.6347h-2.2154c-.1449 0-.2185-.0736-.2185-.2058v-1.3808c0-.1448.0736-.2184.2185-.2184h6.368z" fill="#053A53"/>
    <path d="M23.1983 38.8005c-.1455 0-.2179-.0713-.2179-.2173V30.362c0-.145.0724-.2185.2179-.2185h1.5255c.1328 0 .2058.0736.2058.2185v6.6358h3.3054c.1327 0 .2057.0713.2057.2047v1.3807c0 .146-.073.2173-.2057.2173h-5.0367zM32.9481 35.471c0 1.09.5088 1.6349 1.5377 1.6349 1.0295 0 1.5377-.545 1.5377-1.6348v-2.0212c0-1.0784-.5082-1.6233-1.5377-1.6233-1.029 0-1.5377.545-1.5377 1.6233v2.0212zm5.0735.0368c0 2.1798-1.2957 3.4387-3.5358 3.4387-2.2275 0-3.5232-1.259-3.5232-3.4387v-2.0946c0-2.1672 1.2957-3.426 3.5232-3.426 2.2401 0 3.5358 1.2588 3.5358 3.426v2.0946zM47.4088 30.1435c.1328 0 .2058.0736.2058.2184v1.3808c0 .1322-.073.2058-.2058.2058h-2.216v6.6347c0 .146-.0724.2173-.2058.2173h-1.5256c-.1328 0-.2058-.0713-.2058-.2173v-6.6347h-2.2154c-.1454 0-.2178-.0736-.2178-.2058v-1.3808c0-.1448.0724-.2184.2178-.2184h6.3686zM57.0281 30.1435c.1328 0 .2058.0736.2058.2184v1.3808c0 .1322-.073.2058-.2058.2058h-2.216v6.6347c0 .146-.0724.2173-.2057.2173h-1.5257c-.1328 0-.2058-.0713-.2058-.2173v-6.6347h-2.2154c-.1454 0-.2178-.0736-.2178-.2058v-1.3808c0-.1448.0724-.2184.2178-.2184h6.3686zM62.0702 37.0461h3.5956c.1454 0 .2178.0713.2178.2046v1.3325c0 .146-.0724.2173-.2178.2173h-5.327c-.1454 0-.2178-.0713-.2178-.2173V30.362c0-.1449.0724-.2185.2178-.2185h5.1333c.1454 0 .2178.0736.2178.2185v1.3313c0 .1333-.0724.2069-.2178.2069h-3.4019v1.6578h3.0024c.1454 0 .2178.0736.2178.207v1.3071c0 .1322-.0724.2058-.2178.2058h-3.0024v1.7682zM.617 24.9716c-.4113 0-.617-.2057-.617-.617V1.0973C0 .686.2057.4803.617.4803h4.8636c.3078 0 .548.1366.6847.4459l3.0826 5.9595c1.0616 2.0556 2.5346 5.3784 3.0827 6.748h.138c.548-1.3696 2.0542-4.6924 3.0481-6.748L18.634.9262c.1367-.3093.3769-.446.6847-.446h4.8649c.3755 0 .5812.2058.5812.6171v23.2573c0 .4113-.2057.617-.5812.617h-4.2478c-.4114 0-.617-.2057-.617-.617v-4.5212c0-3.1172.1711-7.365.3423-10.9611l-.1367-.0345c-.6502 1.5765-2.021 4.6246-3.1171 6.8858l-1.6787 3.3906c-.1712.3078-.377.4459-.6847.4459h-3.2884c-.3423 0-.5825-.1381-.6847-.446l-1.7132-3.3905c-1.096-2.2612-2.4656-5.3093-3.1171-6.8858l-.1367.0345c.1712 3.5962.3423 7.844.3423 10.9611v4.5212c0 .4113-.2056.617-.617.617H.617zM33.8662 24.3545c0 .4114-.2056.617-.6157.617h-4.2822c-.4115 0-.6171-.2056-.6171-.617V1.0974c0-.4115.2056-.6171.617-.6171h4.2823c.41 0 .6157.2056.6157.617v23.2572zM38.0712 24.9716c-.4114 0-.6171-.2057-.6171-.617V1.0973c0-.4113.2057-.617.6171-.617h4.3154c.3769 0 .5826.2057.5826.617V19.868h9.3515c.3768 0 .5825.2057.5825.5826v3.904c0 .4114-.2057.6171-.5825.6171H38.0712zM70.6287 16.2372c0 5.892-3.3573 9.1458-8.4955 9.1458-2.7403 0-4.7958-.7883-6.988-2.4325-.308-.1711-.3425-.4459-.1713-.7882l2.0556-3.2539c.2057-.3423.479-.3768.8559-.1366 1.1997.856 2.5014 1.404 4.1111 1.404 2.021 0 3.1171-1.1306 3.1171-3.904V1.0972c0-.4113.2058-.617.5826-.617h4.3155c.4113 0 .617.2057.617.617v15.1399zM103.3536 24.9716c-.4113 0-.617-.2057-.617-.617V1.0973c0-.4113.2057-.617.617-.617h4.5556c.308 0 .548.1366.6848.4113l4.5901 8.1864c1.473 2.7402 2.877 5.5827 3.6652 7.3304l.1022-.0345c-.2402-3.1172-.3769-6.2688-.3769-9.1457V1.0973c0-.4113.2057-.617.617-.617h4.2479c.3755 0 .5811.2057.5811.617v23.2573c0 .4113-.2056.617-.5811.617h-4.557c-.3079 0-.548-.1367-.7193-.4114l-4.452-7.398c-1.542-2.5015-3.1517-6.0287-3.9731-7.982l-.1036.0344c.3079 3.1517.548 6.7479.548 9.7629v5.377c0 .4114-.2056.6171-.5825.6171h-4.2464z" fill="#053A53"/>
    <path d="M86.8317 24.978c-6.7704 0-12.2589-5.4886-12.2589-12.259S80.0613.4601 86.8318.4601c6.7703 0 12.2588 5.4885 12.2588 12.259 0 6.7703-5.4885 12.2588-12.2589 12.2588z" fill="#FEFEFE"/>
    <path d="M89.5208 9.9616L86.9422 3.911l.0002-3.8527c2.7738 0 5.3381.8952 7.4214 2.4114l.0006.0004.301.226c1.9831 1.5356 3.4958 3.6488 4.2876 6.087l-3.6659 1.191-5.7663-.0126z" fill="#A84F92"/>
    <path d="M74.9318 8.7816c.8317-2.5595 2.4578-4.7609 4.589-6.3111l4.8427 7.5067-5.7659-.004zM86.9424.0584l-.0002 3.8527-2.5787 6.066-4.8427-7.507.3009-.2129C81.8489.8703 84.3006.0584 86.9424.0584z" fill="#C16426"/>
    <path d="M98.953 8.7833c.399 1.2289.616 2.54.616 3.902 0 1.3625-.2167 2.6742-.616 3.9036l-.0012-.0003-.002-.0007-2.624 1.2414 2.627-1.2395c-.792 2.4377-2.3055 4.5498-4.2881 6.085l-.301.226-2.238-3.0835-.0018.0019-1.6572-5.8403 4.821-4.0036-.0006-.001z" fill="#4076B9"/>
    <path d="M86.9399 16.4082l5.1836 3.406-5.1813 5.4977-.3949-.0058c-2.6223-.0806-5.0429-.9612-7.027-2.4055l2.2488-3.0894 5.1708-3.403zm5.1826 3.4076l2.2413 3.085c-2.0832 1.5163-4.6476 2.4114-7.4214 2.4114l5.18-5.4964z" fill="#79BAC3"/>
    <path d="M74.8041 16.1728a12.6245 12.6245 0 01-.4888-3.4875c0-1.3627.2171-2.6743.6166-3.9037l3.6657 1.1916 4.722 4.003-1.551 5.8354-2.2482 3.089c-2.131-1.5511-3.7582-3.7525-4.5895-6.313l.001-.0002c-.0014-.0009-.0015-.0015-.0018-.0021z" fill="#F5D551"/>
  </g>
</svg>