<svg xmlns="http://www.w3.org/2000/svg" viewBox="0 0 279.44 89.06"><defs><style>.cls-1{fill:#004573;}.cls-2{fill:#fff;}.cls-3{fill:#c366a5;}.cls-4{fill:#cc5f1d;}.cls-5{fill:#b94d8d;}.cls-6{fill:#008ecf;}.cls-7{fill:#539ea6;}.cls-8{fill:#f6d77c;}.cls-9{fill:#f2b700;}.cls-10{fill:#f07d22;}.cls-11{fill:#1a6cac;}.cls-12{fill:#87ccc9;}.cls-13{fill:#dc631b;}.cls-14{fill:#c24d97;}.cls-15{fill:#0077bd;}.cls-16{fill:#ffd742;}.cls-17{fill:#4bbdc6;}</style></defs><g id="Lager_2"><g id="Lager_1-2"><path class="cls-1" d="M53.13,88.72c-.34,0-.5-.16-.5-.49V69.4a.44.44,0,0,1,.5-.5h3.49c.31,0,.47.17.47.5V84.6h7.57a.42.42,0,0,1,.47.46v3.17c0,.33-.16.49-.47.49Z"/><path class="cls-1" d="M87.07,81.18c0,5-3,7.88-8.09,7.88s-8.07-2.88-8.07-7.88V76.39c0-5,3-7.85,8.07-7.85s8.09,2.88,8.09,7.85ZM75.46,81.1c0,2.5,1.16,3.74,3.52,3.74S82.5,83.6,82.5,81.1V76.47c0-2.47-1.17-3.72-3.52-3.72S75.46,74,75.46,76.47Z"/><path class="cls-1" d="M108.57,68.9c.31,0,.47.17.47.5v3.16a.42.42,0,0,1-.47.47H103.5v15.2a.43.43,0,0,1-.47.49h-3.5a.43.43,0,0,1-.47-.49V73H94c-.34,0-.5-.17-.5-.47V69.4a.44.44,0,0,1,.5-.5Z"/><path class="cls-1" d="M130.6,68.9c.31,0,.47.17.47.5v3.16a.42.42,0,0,1-.47.47h-5.07v15.2a.43.43,0,0,1-.47.49h-3.5a.43.43,0,0,1-.47-.49V73H116c-.34,0-.5-.17-.5-.47V69.4a.44.44,0,0,1,.5-.5Z"/><path class="cls-1" d="M142.15,84.71h8.23c.34,0,.5.16.5.47v3c0,.33-.16.49-.5.49h-12.2a.43.43,0,0,1-.49-.49V69.4a.44.44,0,0,1,.49-.5h11.76a.44.44,0,0,1,.5.5v3a.44.44,0,0,1-.5.47h-7.79v3.8H149c.34,0,.5.17.5.47v3c0,.3-.16.47-.5.47h-6.87Z"/><path class="cls-1" d="M168.74,88.72a.57.57,0,0,1-.55-.33l-3.86-6.29h-1.77v6.13a.44.44,0,0,1-.5.49h-3.47a.44.44,0,0,1-.5-.49V69.4a.44.44,0,0,1,.5-.5h6.74c4.74,0,7.38,2.58,7.38,6.68a5.85,5.85,0,0,1-4,5.85l4.44,6.72c.19.33.08.57-.33.57ZM162.56,73v5.21h2.63c2.08,0,2.94-.81,2.94-2.61s-.86-2.6-2.94-2.6Z"/><path class="cls-1" d="M184.5,88.23c0,.33-.16.49-.5.49h-3.46c-.34,0-.5-.16-.5-.49V69.4a.44.44,0,0,1,.5-.5H184a.44.44,0,0,1,.5.5Z"/><path class="cls-1" d="M197.45,84.71h8.24c.33,0,.49.16.49.47v3a.43.43,0,0,1-.49.49H193.48a.44.44,0,0,1-.5-.49V69.4a.44.44,0,0,1,.5-.5h11.76a.44.44,0,0,1,.5.5v3a.44.44,0,0,1-.5.47h-7.79v3.8h6.88a.43.43,0,0,1,.49.47v3a.43.43,0,0,1-.49.47h-6.88Z"/><path class="cls-1" d="M226.77,68.9a.44.44,0,0,1,.47.5v3.16a.43.43,0,0,1-.47.47H221.7v15.2a.43.43,0,0,1-.48.49h-3.49a.43.43,0,0,1-.47-.49V73h-5.07c-.34,0-.5-.17-.5-.47V69.4a.44.44,0,0,1,.5-.5Z"/><path class="cls-1" d="M1.41,57.05A1.25,1.25,0,0,1,0,55.64V2.38A1.25,1.25,0,0,1,1.41,1H12.55a1.59,1.59,0,0,1,1.57,1l7.06,13.65C23.61,20.34,27,28,28.24,31.09h.31c1.26-3.14,4.71-10.75,7-15.45L42.67,2a1.61,1.61,0,0,1,1.57-1H55.38c.86,0,1.33.47,1.33,1.41V55.64c0,.94-.47,1.41-1.33,1.41H45.66a1.25,1.25,0,0,1-1.42-1.41V45.29c0-7.14.39-16.87.79-25.11l-.32-.07c-1.49,3.61-4.63,10.59-7.14,15.77l-3.84,7.76a1.66,1.66,0,0,1-1.57,1H24.63a1.48,1.48,0,0,1-1.57-1l-3.92-7.76C16.63,30.7,13.49,23.72,12,20.11l-.31.07c.39,8.24.78,18,.78,25.11V55.64a1.25,1.25,0,0,1-1.41,1.41Z"/><path class="cls-1" d="M77.56,55.64a1.25,1.25,0,0,1-1.41,1.41H66.34a1.25,1.25,0,0,1-1.41-1.41V2.38A1.25,1.25,0,0,1,66.34,1h9.81a1.25,1.25,0,0,1,1.41,1.41Z"/><path class="cls-1" d="M87.19,57.05a1.25,1.25,0,0,1-1.42-1.41V2.38A1.25,1.25,0,0,1,87.19,1h9.88a1.23,1.23,0,0,1,1.34,1.41v43h21.41a1.2,1.2,0,0,1,1.34,1.33v8.94a1.23,1.23,0,0,1-1.34,1.41Z"/><path class="cls-1" d="M161.75,37.05c0,13.49-7.69,21-19.46,21-6.27,0-11-1.81-16-5.57-.71-.4-.78-1-.39-1.81l4.71-7.45c.47-.78,1.09-.86,2-.31A15.64,15.64,0,0,0,142,46.07c4.63,0,7.14-2.59,7.14-8.94V2.38c0-.94.47-1.41,1.33-1.41h9.89a1.25,1.25,0,0,1,1.41,1.41Z"/><path class="cls-1" d="M236.69,57.05a1.25,1.25,0,0,1-1.41-1.41V2.38A1.25,1.25,0,0,1,236.69,1h10.44a1.63,1.63,0,0,1,1.56.94l10.52,18.75c3.37,6.27,6.59,12.78,8.39,16.78l.23-.08C267.28,30.23,267,23,267,16.42v-14A1.25,1.25,0,0,1,268.38,1h9.73c.86,0,1.33.47,1.33,1.41V55.64c0,.94-.47,1.41-1.33,1.41H267.68a1.84,1.84,0,0,1-1.65-.94l-10.2-16.94a152.76,152.76,0,0,1-9.1-18.28l-.23.08c.7,7.22,1.25,15.45,1.25,22.36V55.64c0,.94-.47,1.41-1.33,1.41Z"/><circle class="cls-2" cx="198.86" cy="28.99" r="28.07"/><polygon class="cls-3" points="205.01 22.68 216.11 5.52 199.11 8.82 205.01 22.68"/><polygon class="cls-4" points="199.11 8.82 182.11 5.52 182.11 5.52 193.2 22.71 199.11 8.82"/><polygon class="cls-5" points="205.01 22.68 218.22 22.71 218.22 22.71 216.11 5.52 216.11 5.52 205.01 22.68 205.01 22.68"/><polygon class="cls-6" points="218.22 22.71 207.18 31.88 226.61 37.85 226.61 37.85 226.61 37.86 226.61 37.86 226.61 37.85 218.22 22.71"/><polygon class="cls-7" points="199.11 57.83 199.1 37.44 187.26 45.24 199.11 57.83"/><polygon class="cls-8" points="171.6 37.85 171.61 37.85 187.26 45.24 190.81 31.87 171.6 37.85"/><polygon class="cls-9" points="190.81 31.87 180 22.71 171.61 37.85 171.6 37.85 171.6 37.85 171.6 37.85 190.81 31.87"/><polygon class="cls-10" points="193.2 22.71 193.2 22.71 182.11 5.52 180 22.71 180 22.71 193.2 22.71"/><polygon class="cls-11" points="207.18 31.88 210.98 45.26 226.61 37.85 207.18 31.88 207.18 31.88"/><polygon class="cls-12" points="210.97 45.24 199.1 37.44 199.11 57.83 199.11 57.83 199.11 57.83 199.11 57.83 199.11 57.83 210.97 45.24"/><path class="cls-13" d="M199.11,0h0a28.81,28.81,0,0,0-17,5.52h0l17,3.3h0Z"/><path class="cls-14" d="M216.11,5.52a28.83,28.83,0,0,0-17-5.52V8.82Z"/><path class="cls-15" d="M218.3,22.86l8.31,15h0a29,29,0,0,0,0-17.88l-8.4,2.73"/><path class="cls-14" d="M216.11,5.52l2.11,17.19h0l8.4-2.73A29.07,29.07,0,0,0,216.11,5.52Z"/><path class="cls-16" d="M187.26,45.24l-15.65-7.39h0a29,29,0,0,0,10.51,14.46l5.15-7.07Z"/><path class="cls-17" d="M182.11,52.31a28.81,28.81,0,0,0,17,5.52h0L187.26,45.24"/><path class="cls-16" d="M180,22.71h0L171.6,20a29,29,0,0,0,0,17.87h0L180,22.71"/><path class="cls-13" d="M182.11,5.52h0A29,29,0,0,0,171.6,20l8.4,2.73Z"/><path class="cls-17" d="M211,45.25,199.11,57.83h0a28.83,28.83,0,0,0,17-5.52L211,45.25"/><path class="cls-15" d="M226.61,37.85,211,45.24h0l5.14,7.06a29,29,0,0,0,10.5-14.45h0Z"/></g></g></svg>