<svg width="253" height="122" viewBox="0 0 253 122" fill="none" xmlns="http://www.w3.org/2000/svg">
<path d="M248.343 13.959C244.892 3.2632 222.351 4.32293 207.436 5.02048C204.381 5.16456 201.739 5.28738 199.573 5.30184C157.745 5.61868 125.724 6.0504 95.7572 6.69954C80.4897 7.02626 64.2505 7.40707 48.2564 8.06752C46.2877 8.14836 44.2476 8.19972 42.1773 8.25934C35.045 8.44721 27.6675 8.64292 20.7939 9.9542C19.3255 10.2357 17.9218 10.5589 16.6063 10.9279C3.87718 14.4607 3.70137 24.5836 3.57648 31.9742C3.49872 36.3923 3.15926 40.9018 2.82298 45.2584C2.64253 47.6196 2.46209 49.9808 2.32029 52.3448C2.02887 57.1672 1.7385 62.8696 1.74923 68.589C1.75133 69.1931 1.73863 69.8043 1.73496 70.4324C1.67479 74.8785 1.61581 79.917 4.89202 83.7976C10.4437 90.3832 21.0781 91.2241 30.606 91.4904C41.0047 91.787 51.9106 91.8905 63.9541 91.8035C67.1414 91.7779 70.4393 91.5968 73.9281 91.4005C81.5792 90.9718 89.4903 90.5281 96.1627 91.8965C110.71 94.8775 116.284 103.568 113.207 118.451C113.135 118.803 113.316 119.152 113.686 119.358C113.984 119.527 114.365 119.579 114.728 119.509C114.811 119.491 114.894 119.472 114.969 119.443C125.586 115.633 130.411 109.07 135.528 102.12C137.559 99.3586 139.66 96.5038 142.191 93.7438C143.478 92.3387 145.401 91.4048 148.058 90.8994C151.147 90.3068 154.802 90.3729 158.02 90.433C159.513 90.4605 160.921 90.483 162.217 90.45C170.538 90.226 178.995 90.1729 187.168 90.1249C190.863 90.1057 194.55 90.0813 198.252 90.0441C199.488 90.0334 200.763 90.0255 202.077 90.0204C209.545 89.9935 218.011 89.9573 225.702 88.4869C230.145 87.6395 233.829 86.4126 236.97 84.748C246.789 79.523 248.687 70.6591 249.252 64.4479C249.653 60.0391 249.902 55.2553 250.039 49.3715L250.024 47.3428C250.007 45.1147 249.99 42.8807 249.957 40.6363C249.931 38.4793 249.987 36.2923 250.048 33.9759C250.224 27.2266 250.405 20.2481 248.365 13.9455" fill="#074658"/>
<path d="M39.7055 61.8834L40.4093 61.8685L40.6646 61.8311L40.8878 61.7944L41.1771 61.8522L41.4331 61.8468L41.591 61.7475L41.6809 61.4575L41.8654 61.1015L41.9886 60.8748L42.1731 60.5188L42.297 60.3242L42.3569 60.1309L42.4488 59.9369L42.5087 59.7436L42.6 59.5176L42.7498 59.0343L42.9057 58.8389L42.9969 58.613L43.0561 58.3877L43.1474 58.1617L43.2393 57.9677L43.547 57.385L43.7621 56.9644L43.7894 56.7398L43.9126 56.5131L44.1564 55.9318L44.3082 55.5445L44.4267 55.0939L44.7058 54.6719L44.765 54.4466L44.8563 54.2206L45.1034 53.7993L45.0993 53.6073L45.2232 53.4126L45.3151 53.2186L45.4949 52.6387L45.5228 52.4461L45.6154 52.2841L45.7393 52.0894L45.8312 51.8954L45.9837 51.5401L46.0117 51.3475L46.1036 51.1535L46.1914 50.7675L46.3153 50.5729L46.3752 50.3795L46.5271 49.9922L46.7435 49.6356L46.928 49.2796L46.9873 49.0543L47.1384 48.635L47.1977 48.4097L47.3495 48.0224L47.4421 47.8604L47.6572 47.4397L47.6838 47.1831L47.775 46.9571L47.9262 46.5378L47.9861 46.3445L48.078 46.1505L48.1706 45.9885L48.2578 45.5706L48.317 45.3453L48.4722 45.1179L48.6247 44.7626L48.7166 44.5686L48.7446 44.376L48.8372 44.214L48.8944 43.8927L48.9863 43.6987L49.0469 43.5374L49.1388 43.3434L49.2947 43.1481L49.3832 42.7941L49.4431 42.6008L49.5943 42.1815L49.6855 41.9555L49.8094 41.7608L49.9013 41.5669L49.9272 41.2782L50.0184 41.0523L50.1103 40.8583L50.1376 40.6336L50.2281 40.3757L50.4126 40.0197L50.4406 39.827L50.4338 39.5071L50.1118 39.4179L49.6959 39.4267L49.3433 39.4022L48.8954 39.4117L48.7668 39.3824L48.5435 39.4191L47.7757 39.4354L47.5844 39.4715L47.3598 39.4442L47.1358 39.449L46.9425 39.3891L46.6879 39.4585L46.334 39.3699L46.0474 39.44L45.6995 39.6394L45.4844 40.0601L45.0323 41.382L44.8492 41.8019L44.7579 42.0279L44.6394 42.4785L44.6122 42.7032L44.5523 42.8965L44.525 43.1211L44.2779 43.5424L44.218 43.7358L44.1261 43.9297L44.0348 44.1557L44.0069 44.3484L43.9204 44.7983L43.8292 45.0243L43.8013 45.2169L43.5276 45.8949L43.4683 46.1202L43.3812 46.5381L43.2593 46.8288L43.1347 46.9914L43.0741 47.1528L42.8903 47.5407L42.8624 47.7334L42.8031 47.9587L42.7412 48.056L42.7133 48.2486L42.6533 48.442L42.5328 48.7966L42.4416 49.0226L42.3483 49.1526L42.2891 49.3779L42.1699 49.7965L42.1107 50.0218L42.0195 50.2478L41.8983 50.5704L41.8703 50.7631L41.8111 50.9884L41.6579 51.3117L41.598 51.505L41.4428 51.7323L41.3556 52.1503L41.2957 52.3436L41.2051 52.6016L40.99 53.0222L40.9621 53.2149L40.9022 53.4082L40.8103 53.6022L40.685 53.7328L40.5897 53.7669L40.5543 53.6076L40.5802 53.319L40.5727 52.9671L40.5333 52.6158L40.5891 52.2305L40.6157 51.9739L40.611 51.75L40.6328 51.2694L40.5967 51.0781L40.626 50.9495L40.6533 50.7248L40.6478 50.4689L40.6724 50.1163L40.6676 49.8924L40.6309 49.6691L40.6261 49.4451L40.6527 49.1885L40.6385 48.5167L40.6657 48.292L40.6623 48.1321L40.6855 47.7155L40.5855 47.5256L40.6134 47.3329L40.608 47.077L40.6339 46.7884L40.6244 46.3405L40.7081 45.7626L40.6939 45.0907L40.7211 44.8661L40.7164 44.6421L40.6477 44.4195L40.6429 44.1956L40.6695 43.939L40.6647 43.715L40.692 43.4904L40.6873 43.2664L40.7145 43.0418L40.705 42.5939L40.6683 42.3706L40.7275 42.1453L40.7173 41.6655L40.7759 41.4082L40.7623 40.7683L40.7222 40.3851L40.7209 40.3211L40.744 39.9045L40.6433 39.6826L40.416 39.5274L40.1913 39.5001L38.2398 39.5415L37.8552 39.5176L37.344 39.5604L37.1207 39.5972L36.7361 39.5733L36.3549 39.7094L36.2617 39.8394L36.1711 40.0974L36.1779 40.4173L36.15 40.61L36.1867 40.8333L36.1594 41.0579L36.1962 41.2812L36.1683 41.4738L36.173 41.6977L36.1458 41.9224L36.1818 42.1136L36.2233 42.5609L36.1961 42.7855L36.2328 43.0088L36.2103 43.4573L36.1824 43.65L36.2115 45.0257L36.1843 45.2503L36.221 45.4736L36.2584 45.7288L36.2801 46.7526L36.3509 47.0712L36.2637 47.4891L36.2725 47.905L36.3413 48.1276L36.3181 48.5442L36.2902 48.7368L36.299 49.1527L36.3364 49.408L36.3506 50.0799L36.4194 50.3024L36.3921 50.5271L36.3975 50.783L36.343 51.2323L36.3519 51.6482L36.3886 51.8715L36.3974 52.2874L36.3702 52.512L36.4702 52.7019L36.443 52.9265L36.4477 53.1505L36.4205 53.3751L36.4885 53.5657L36.498 54.0136L36.4708 54.2382L36.4762 54.4942L36.4489 54.7188L36.4584 55.1667L36.5272 55.3893L36.5006 55.6459L36.5373 55.8692L36.5468 56.3171L36.5196 56.5417L36.5291 56.9896L36.5978 57.2122L36.6025 57.4362L36.5753 57.6608L36.5875 58.2367L36.6249 58.4919L36.6351 58.9718L36.6078 59.1965L36.618 59.6763L36.6908 60.0909L36.6955 60.3148L36.7323 60.5381L36.7683 60.7294L36.7438 61.082L36.8146 61.4006L36.918 61.7505L37.3053 61.9023L37.3693 61.9009L37.6885 61.8622L38.3924 61.8472L38.649 61.8738L39.3529 61.8589L39.7055 61.8834ZM49.6138 61.7375L49.8691 61.7001L50.7656 61.7131L50.9548 61.581L51.078 61.3544L51.1706 61.1924L51.2592 60.8384L51.4409 60.3545L51.748 59.7398L51.8678 59.3532L51.9591 59.1272L52.0183 58.9019L52.2334 58.4812L52.3859 58.1259L53.2497 58.1076L54.6581 58.1098L55.1713 58.1629L55.8759 58.18L55.9133 58.4353L55.9451 59.9389L55.9199 60.2595L55.9587 60.5788L56.0029 61.154L56.0737 61.4726L56.2037 61.5658L56.6836 61.5557L57.1002 61.5788L57.4194 61.5401L57.6427 61.5033L58.0273 61.5272L58.2832 61.5218L58.9864 61.4748L59.4343 61.4654L59.6909 61.4919L59.9142 61.4552C60.0421 61.4525 60.1388 61.4824 60.2661 61.4477C60.424 61.3484 60.3859 61.0611 60.3512 60.9338L60.337 60.262L60.2901 59.5588L60.284 59.2709L60.2466 59.0156L60.2691 58.567L60.2589 58.0871L60.2221 57.8639L60.1813 57.4486L60.1773 57.2567L60.0875 56.0423L60.1148 55.8177L60.0733 55.3705L60.0951 54.8899L60.0529 54.4107L60.0482 54.1867L59.985 52.7157L59.9647 51.7559L59.9273 51.5007L59.8871 51.1174L59.8607 49.8697L59.7893 49.5192L59.7464 49.0079L59.7424 48.816L59.7015 48.4008L59.7295 48.2081L59.688 47.7609L59.6744 47.1211L59.6009 46.6745L59.586 45.9707L59.6133 45.746L59.5711 45.2668L59.5616 44.8189L59.4841 44.1804L59.4433 43.7652L59.4338 43.3173L59.3774 42.1662L59.3652 41.5904L59.2971 41.3998L59.2822 40.6959L59.1571 39.3223L58.9297 39.167L58.7684 39.1064L58.2565 39.1173L57.9693 39.1554L57.744 39.0961L57.456 39.1022L56.8489 39.1471L56.337 39.158L56.0177 39.1967L55.4092 39.1776L55.0893 39.1844L54.866 39.2211L54.7455 39.5758L54.6536 39.7698L54.5623 39.9958L54.2866 40.5777L54.0715 40.9984L53.8917 41.5783L53.8311 41.7396L53.7072 41.9343L53.5227 42.2903L53.4635 42.5156L53.4035 42.7089L53.3116 42.9029L53.2524 43.1282L52.9767 43.7102L52.8854 43.9362L52.7962 44.2581L52.6104 44.5501L52.5185 44.7441L52.3673 45.1634L52.1256 45.8407L52.0017 46.0354L51.8465 46.2627L51.76 46.7126L51.5769 47.1326L51.5163 47.2939L51.4291 47.7119L51.2739 47.9392L51.1867 48.3571L51.0948 48.5511L50.9103 48.9071L50.7619 49.4544L50.5467 49.875L50.4562 50.133L50.2192 51.0342L50.1273 51.2282L49.9768 51.6795L49.8849 51.8735L49.7937 52.0995L49.7658 52.2921L49.5833 52.7441L49.5241 52.9694L49.3402 53.3574L49.1857 53.6167L49.1278 53.906L49.0686 54.1313L48.8541 54.584L48.7629 54.8099L48.6117 55.2292L48.5198 55.4232L48.4926 55.6479L48.4326 55.8412L48.2808 56.2285L48.1256 56.4558L48.0657 56.6491L47.8219 57.2304L47.7028 57.649L47.3671 58.4243L47.2153 58.8116L47.0315 59.1996L46.7319 60.1662L46.4848 60.5875L46.3009 60.9755L46.273 61.1681L46.2138 61.3934L46.2832 61.648L46.5725 61.7059L48.9086 61.6884L49.1333 61.7157L49.6138 61.7375ZM54.7293 53.9153L54.4406 53.8895L54.088 53.8649L53.8321 53.8703L53.6041 53.6831L53.6953 53.4571L53.7532 53.1679L53.8124 52.9425L53.9609 52.3953L54.0841 52.1686L54.2339 51.6853L54.2612 51.4607L54.4382 50.7528L54.5281 50.4628L54.6193 50.2368L54.7092 49.9469L54.8324 49.7202L54.8597 49.4956L54.9808 49.1729L55.1034 48.9143L55.2525 48.399L55.3417 48.0771L55.4908 47.5618L55.61 47.1432L55.8639 47.0418L55.9115 47.7769L55.9039 48.9293L55.8977 50.1457L55.9459 50.9129L55.8874 51.1702L55.8989 51.7141L55.8716 51.9387L55.8893 52.7705L55.8627 53.0271L55.9001 53.2824L55.8776 53.731L55.689 53.895L54.7293 53.9153ZM62.9321 61.4553L66.3233 61.3834L66.6725 61.248L66.7617 60.926L66.8816 60.5394L66.9653 59.9615L67.0253 59.7682L67.0165 59.3522L67.0437 59.1276L67.1309 58.7097L67.2392 57.7792L67.2984 57.5539L67.3263 57.3612L67.3808 56.912L67.4952 56.2694L67.6131 55.7868L67.6675 55.3376L67.6955 55.1449L67.6587 54.9216L67.718 54.6963L67.8058 54.3104L67.7371 54.0878L67.8242 53.6699L67.8842 53.4765L67.9857 52.2261L68.1771 50.6857L68.1921 49.8852L68.2446 49.34L68.2691 48.9874L68.2876 48.3468L68.3006 47.4504L68.3966 47.4483L68.6143 48.66L68.8306 49.8077L68.9456 50.7014L69.1273 51.7218L69.2742 52.6149L69.3511 53.2214L69.4926 53.8586L69.5028 54.3384L69.5389 54.5297L69.6443 54.9756L69.6804 55.1669L69.7859 55.6127L69.7899 55.8047L69.8961 56.2826L69.9995 56.6324L70.0417 57.1117L70.1151 57.5582L70.1512 57.7495L70.2934 58.4186L70.3295 58.6099L70.4077 59.2804L70.4438 59.4717L70.4839 59.8549L70.5193 60.0142L70.6887 60.4587L70.9555 60.9652L71.2162 61.1837L71.7601 61.1722L72.1767 61.1953L72.8165 61.1818L73.0078 61.1457L73.3284 61.1709L73.5517 61.1342L74.1602 61.1533L74.2882 61.1506L74.6388 61.0791L75.086 61.0377L75.4012 60.8069L75.681 60.4169L75.8192 59.3898L75.9064 58.9718L75.9656 58.7465L75.9616 58.5546L76.1127 58.1353L76.1019 57.6234L76.2203 57.1728L76.3109 56.9148L76.3661 56.4975L76.3893 56.0809L76.4138 55.7283L76.5336 55.3417L76.6555 55.0511L76.7127 54.7298L76.7672 54.2805L76.8857 53.8299L76.8816 53.638L76.9095 53.4453L76.9368 53.2207L76.9647 53.0281L76.9906 52.7394L77.0485 52.4502L77.135 52.0002L77.2269 51.8062L77.2181 51.3903L77.246 51.1977L77.2732 50.9731L77.3332 50.7798L77.3604 50.5551L77.4203 50.3618L77.3822 50.0746L77.4408 49.8173L77.4953 49.368L77.5824 48.9501L77.6417 48.7248L77.7288 48.3068L77.7874 48.0495L77.8147 47.8249L77.8392 47.4723L77.9291 47.1823L78.0367 46.2198L78.0959 45.9945L78.0871 45.5786L78.1464 45.3533L78.2049 45.096L78.2948 44.806L78.3479 44.2928L78.4651 43.7782L78.5468 43.1043L78.6054 42.847L78.6892 42.2691L78.7777 41.9152L78.9534 41.1433L79.0079 40.694L79.0889 39.9881L79.0515 39.7329L79.138 39.2829L79.1326 39.027L79.0951 38.7717L78.9012 38.6798L78.4512 38.5933L78.004 38.6348L77.6841 38.6416L76.9476 38.6252L76.6276 38.632L76.4044 38.6687L75.7312 38.619L75.126 38.7598L75.0001 38.8585L74.7536 39.3118L74.6399 39.9864L74.5547 40.5003L74.5268 40.6929L74.5329 40.9809L74.4424 41.2389L74.3831 41.4642L74.2966 41.9141L74.2701 42.1707L74.2156 42.62L74.1557 42.8133L74.1284 43.0379L74.0412 43.4559L74.0453 43.6478L73.9615 44.2257L73.9983 44.449L73.8145 44.837L73.8192 45.0609L73.7953 45.4455L73.8035 45.8294L73.6843 46.248L73.6884 46.44L73.6339 46.8893L73.574 47.0826L73.5515 47.5311L73.5249 47.7878L73.4977 48.0124L73.4697 48.205L73.3833 48.655L73.4063 49.7427L73.3246 50.4166L73.2611 51.9543L73.2706 52.4022L73.2229 53.1714L73.2045 53.8119L73.1085 53.8139L72.9976 53.1121L72.8833 52.2504L72.8112 51.8678L72.7425 51.6452L72.7377 51.4213L72.6588 50.7188L72.5152 49.9856L72.401 49.1239L72.3316 48.8693L72.2581 48.4227L72.2152 47.9115L72.1077 47.3697L72.0322 46.8272L71.9261 46.3493L71.8866 45.9981L71.8819 45.7741L71.7784 45.4242L71.7744 45.2323L71.6696 44.8184L71.5954 44.3399L71.5587 44.1166L71.4893 43.862L71.3478 43.2249L71.2423 42.779L71.1348 42.2372L71.028 41.7273L70.8837 40.9622L70.7462 40.517L70.7068 40.1658L70.6347 39.7832L70.4999 39.466L70.4632 39.2427L70.2651 38.9588L69.9112 38.8703L69.4633 38.8798L68.9827 38.858L68.5995 38.8981L67.9909 38.879L67.5757 38.9198L67.2878 38.9259L66.7432 38.9054L66.296 38.9469L65.9774 39.0177L65.7929 39.3737L65.7003 39.5357L65.6404 39.729L65.5532 40.1469L65.5587 40.4029L65.4715 40.8208L65.4156 41.2061L65.3605 41.6234L65.3332 41.848L65.2733 42.0413L65.2461 42.2659L65.2181 42.4586L65.1909 42.6832L65.1677 43.0998L65.1098 43.3891L64.988 43.6797L64.9927 43.9037L64.8517 44.8028L64.7918 44.9962L64.7646 45.2208L64.7727 45.6047L64.6828 45.8947L64.5943 46.2486L64.5391 46.6659L64.4799 46.8912L64.4846 47.1151L64.3934 47.3411L64.3988 47.5971L64.3083 47.855L64.2817 48.1117L64.2912 48.5596L64.234 48.8808L64.1754 49.1381L64.0236 49.5254L63.9984 49.8461L63.9759 50.2946L63.9486 50.5193L63.9207 50.7119L63.7689 51.0992L63.7729 51.2912L63.745 51.4838L63.7218 51.9004L63.6619 52.0937L63.6347 52.3183L63.5788 52.7036L63.4903 53.0575L63.4324 53.3468L63.3766 53.7321L63.2594 54.2467L63.2043 54.664L63.241 54.8872L63.2131 55.0799L63.1252 55.4658L63.098 55.6904L63.0741 56.075L62.9509 56.3017L62.9597 56.7176L62.9012 56.9749L62.9059 57.1988L62.8208 57.7128L62.7629 58.0021L62.6764 58.452L62.6158 58.6133L62.5293 59.0632L62.5021 59.2879L62.3836 59.7385L62.3305 60.2517L62.3413 60.7636L62.2827 61.0209L62.4508 61.4014L62.9321 61.4553ZM79.9536 61.0625L80.3688 61.0217L80.5934 61.049L81.4892 61.03L81.8085 60.9912L84.4319 60.9356L85.0711 60.8901L85.5203 60.9446L85.9996 60.9024L86.5761 60.9222L87.2779 60.8113L87.6925 60.7385L88.3003 60.7256L88.5515 60.4963L88.6686 59.9817L88.7225 59.5004L88.7504 59.3078L88.7456 59.0838L88.8369 58.8578L88.9731 57.7347L89.0637 57.4767L89.0269 57.2535L89.0862 57.0282L89.108 56.5476L88.914 56.4557L88.0822 56.4733L87.379 56.5202L85.7154 56.5555L85.4268 56.5296L85.1069 56.5364L84.9435 56.3798L84.9367 56.0598L84.9939 55.7386L85.0185 55.386L85.0777 55.1607L85.1056 54.968L85.1329 54.7434L85.1261 54.4235L85.184 54.1342L85.2072 53.7176L85.3263 53.299L85.3488 52.8504L85.4074 52.5931L85.4026 52.3691L85.5198 51.8546L85.547 51.6299L85.5736 51.3733L85.6601 50.9234L85.6819 50.4428L85.799 49.9282L85.8263 49.7036L85.9121 49.2216L85.9713 48.9963L85.9618 48.5484L86.0211 48.3231L86.1028 47.6493L86.0974 47.3933L86.1566 47.168L86.1192 46.9127L86.2424 46.6861L86.3296 46.2681L86.4161 45.8182L86.4753 45.5929L86.5026 45.3683L86.5611 45.111L86.4917 44.8564L86.6149 44.6297L86.6694 44.1805L86.7879 43.7299L86.7825 43.4739L86.869 43.024L87.1012 41.8988L87.1584 41.5775L87.2149 41.2243L87.2967 40.5504L87.3566 40.3571L87.3518 40.1331L87.5275 39.3612L87.5228 39.1373L87.55 38.9126L87.4459 38.5308L86.8054 38.5123L85.5577 38.5388L84.3732 38.5319L83.6054 38.5481L83.0949 38.623L83.003 38.8169L82.8566 39.4602L82.7967 39.6535L82.8014 39.8775L82.7775 40.262L82.6577 40.6487L82.5726 41.1626L82.5514 41.6752L82.4282 41.9018L82.4323 42.0938L82.405 42.3184L82.4098 42.5423L82.2859 42.737L82.2293 43.0903L82.2062 43.5069L82.1476 43.7642L82.2163 43.9868L82.1578 44.2441L82.0393 44.6947L81.9487 44.9527L81.9862 45.2079L81.9044 45.8818L81.8486 46.2671L81.8533 46.491L81.7022 46.9103L81.7116 47.3582L81.6851 47.6148L81.5339 48.0341L81.4781 48.4194L81.4229 48.8367L81.2499 49.7365L81.2533 49.8965L81.1348 50.3471L81.0272 51.3096L80.8767 51.7609L80.8815 51.9848L80.763 52.4355L80.7671 52.6274L80.7398 52.852L80.7119 53.0447L80.7214 53.4926L80.6615 53.6859L80.607 54.1351L80.579 54.3278L80.5831 54.5197L80.4919 54.7457L80.4047 55.1637L80.4408 55.3549L80.3495 55.5809L80.2896 55.7742L80.1392 56.2255L80.1473 56.6094L80.0894 56.8987L80.0342 57.316L80.0063 57.5086L80.0111 57.7326L79.8919 58.1512L79.9021 58.6311L79.7829 59.0497L79.755 59.2423L79.7277 59.467L79.6385 59.7889L79.5173 60.1116L79.4894 60.3042L79.5255 60.4955L79.5622 60.7188L79.6943 60.908L79.9536 61.0625ZM94.2091 60.7925L95.0409 60.7748L95.3908 60.6714L95.4806 60.3814L95.5072 60.1248L95.5944 59.7069L95.6489 59.2576L95.736 58.8397L95.8477 58.0691L95.9363 57.7152L95.9315 57.4912L95.9867 57.074L96.0412 56.6247L96.1277 56.1748L96.1222 55.9188L96.2414 55.5002L96.268 55.2436L96.3538 54.7617L96.3143 54.4104L96.4675 54.0871L96.458 53.6392L96.4866 53.4786L96.5411 53.0293L96.5357 52.7734L96.6542 52.3228L96.6488 52.0668L96.7672 51.6162L96.8231 51.2309L96.8783 50.8137L96.9654 50.3957L96.96 50.1398L97.0512 49.9138L97.1697 49.4632L97.3093 48.5L97.3985 48.1781L97.4537 47.7608L97.449 47.5368L97.4755 47.2802L97.5028 47.0556L97.4967 46.7677L97.5866 46.4777L97.673 46.0278L97.7016 45.8671L97.7888 45.4492L97.8767 45.0632L97.9318 44.646L97.9591 44.4213L97.9829 44.0368L98.0102 43.8121L98.066 43.4269L98.1259 43.2335L98.1825 42.8803L98.3248 42.0451L98.3527 41.8524L98.348 41.6285L98.3759 41.4358L98.3705 41.1799L98.4924 40.8893L98.5469 40.44L98.6394 40.278L98.6333 39.9901L98.7266 39.8601L98.6905 39.6688L98.7151 39.3162L98.777 39.2188L98.7682 38.8029L98.7961 38.6103L98.6614 38.2931L98.3074 38.2046L98.0842 38.2413L96.3886 38.2772L96.1653 38.314L95.7174 38.3235L95.4288 38.2976L94.9496 38.3397L94.7263 38.3765L94.537 38.5085L94.3151 38.6092L94.0979 38.9339L94.0707 39.1585L94.0108 39.3519L93.957 39.8331L93.8365 40.1877L93.7799 40.541L93.7561 40.9256L93.6961 41.1189L93.6682 41.3116L93.5811 41.7295L93.5266 42.1787L93.466 42.3401L93.4428 42.7567L93.4162 43.0133L93.453 43.2365L93.3338 43.6552L93.3066 43.8798L93.2194 44.2977L93.1915 44.4904L93.0716 44.877L93.1084 45.1003L93.0804 45.2929L93.0259 45.7422L92.9347 45.9681L92.9442 46.416L92.8625 47.0899L92.712 47.5412L92.6248 47.9591L92.569 48.3444L92.5778 48.7603L92.4552 49.019L92.4007 49.4682L92.4055 49.6922L92.287 50.1428L92.2965 50.5907L92.242 51.04L92.2141 51.2326L92.1868 51.4572L92.1276 51.6825L92.1317 51.8745L92.0779 52.3557L91.8688 53.0643L91.9056 53.2876L91.8463 53.5129L91.8184 53.7055L91.7591 53.9308L91.7639 54.1548L91.708 54.54L91.6502 54.8293L91.5603 55.1193L91.5024 55.4086L91.4139 55.7626L91.3301 56.3405L91.3662 56.5317L91.247 56.9504L91.2198 57.175L91.1612 57.4323L91.1339 57.6569L91.0481 58.1388L91.0216 58.3955L90.9671 58.8447L90.9078 59.07L90.886 59.5506L90.7355 60.0019L90.7777 60.4811L91.0384 60.6996L91.2957 60.7582L91.551 60.7208L91.7756 60.748L92.1282 60.7725L92.3515 60.7358L92.6074 60.7304L93.0567 60.7849L93.9844 60.7652L94.2091 60.7925ZM105.146 60.8168L105.466 60.778L106.169 60.7631L106.679 60.6562L107.125 60.5508L107.284 60.5154L107.954 60.4052L108.43 60.203L108.842 60.0023L109.094 59.8049L109.284 59.7049L109.662 59.4408L110.036 58.9527L110.315 58.5307L110.438 58.3041L110.652 57.8194L110.711 57.5941L110.771 57.4008L110.894 57.1742L111.046 56.7549L111.135 56.4649L111.194 56.2076L111.287 56.0456L111.338 55.4364L111.429 55.2104L111.547 54.7598L111.601 54.2465L111.657 53.8933L111.713 53.508L111.74 53.2834L111.828 52.8974L111.855 52.6728L111.91 52.2555L111.97 52.0622L111.934 51.8389L111.994 51.6456L112.081 51.2277L112.077 51.0357L112.104 50.8111L112.132 50.6185L112.158 50.3618L112.214 49.9766L112.209 49.7206L112.264 49.3034L112.247 48.5036L111.86 48.3517L111.188 48.366L110.739 48.3435L110.516 48.3802L109.364 48.4046L108.852 48.3835L108.341 48.4263L108.084 48.3997L107.317 48.448L107.161 48.6433L107.132 48.772L106.987 49.4792L106.96 49.7358L106.903 50.0571L106.823 50.827L106.681 51.6942L106.689 52.0781L106.886 52.266L107.621 52.2504L107.846 52.2776L107.913 52.4363L107.78 53.6874L107.603 54.4273L107.514 54.7492L107.424 55.0392L107.273 55.4265L107.151 55.7171L106.933 56.0098L106.586 56.2412L106.204 56.3773L105.597 56.3902L104.987 56.3071L104.663 56.1539L104.565 56.06L104.433 55.8388L104.235 55.5549L104.228 55.235L104.189 54.9157L104.179 54.4358L104.201 53.9872L104.225 53.5707L104.252 53.378L104.28 53.1534L104.303 52.7368L104.325 52.2882L104.318 51.9363L104.406 51.5824L104.496 51.2604L104.491 51.0364L104.513 50.5879L104.573 50.3946L104.597 49.978L104.656 49.7527L104.743 49.3347L104.858 48.7241L104.883 48.3715L104.97 47.9536L105.06 47.6636L105.085 47.375L105.143 47.0537L105.234 46.8278L105.289 46.4105L105.316 46.1859L105.439 45.9272L105.495 45.5419L105.554 45.3166L105.582 45.124L105.704 44.8334L105.699 44.6094L105.79 44.3834L105.817 44.1268L105.905 43.7409L106.088 43.3209L106.272 42.9649L106.3 42.7723L106.391 42.5463L106.515 42.3196L106.607 42.1256L106.857 41.8643L107.142 41.6982L107.364 41.6295L108.068 41.6145L108.391 41.7357L108.587 41.9236L108.751 42.1442L108.788 42.3355L108.827 42.6867L108.864 42.91L108.78 43.4879L108.818 43.7751L108.759 44.0004L108.704 44.4177L108.651 44.9309L108.626 45.2835L108.663 45.5388L108.986 45.66L109.339 45.6845L110.234 45.6656L110.555 45.6908L111.066 45.6479L111.611 45.6684L112.25 45.6228L112.534 45.4248L112.717 45.0048L112.771 44.5236L112.797 44.235L112.821 43.8504L112.876 43.4651L112.872 43.2411L112.896 42.8565L112.888 42.5046L112.911 42.088L112.885 40.8403L112.844 40.4251L112.805 40.0739L112.669 39.7246L112.599 39.4381L112.5 39.3121L112.4 39.1222L111.943 38.6838L111.552 38.372L111.101 38.2215L110.552 38.0091L110.326 37.9179L109.78 37.8334L109.364 37.8422L109.107 37.7837L108.69 37.7285L108.273 37.7053L107.41 37.7556L106.45 37.776L106.005 37.8814L105.494 37.9563L105.081 38.093L104.668 38.2618L104.257 38.4946L103.845 38.6954L103.436 39.0241L103.092 39.4155L102.968 39.5781L102.876 39.7721L102.751 39.9348L102.599 40.2901L102.445 40.5814L102.386 40.8067L102.294 41.0007L102.111 41.4207L102.02 41.6787L101.928 41.8727L101.81 42.3233L101.69 42.7099L101.661 42.8706L101.509 43.2579L101.418 43.4519L101.358 43.6772L101.266 43.8712L101.239 44.0958L101.147 44.2898L101.119 44.4824L101.06 44.7077L101.036 45.0603L100.914 45.351L100.887 45.6076L100.832 46.0248L100.743 46.3788L100.625 46.8294L100.598 47.054L100.508 47.376L100.547 47.6633L100.459 48.0812L100.314 48.7564L100.259 49.2057L100.141 49.6563L100.114 49.9129L100.093 50.4255L99.9745 50.8761L99.9527 51.3567L99.8662 51.8066L99.875 52.2225L99.7559 52.6411L99.8246 52.8637L99.7694 53.281L99.7422 53.5056L99.719 53.9222L99.6911 54.1148L99.6638 54.3395L99.6726 54.7554L99.6434 54.884L99.6529 55.3319L99.5956 55.6532L99.5759 56.2297L99.7181 56.8989L99.7221 57.0908L99.8229 57.3128L99.9576 57.63L99.995 57.8852L100.098 58.2031L100.2 58.489L100.429 58.7082L100.661 59.0874L100.76 59.2453L100.891 59.4026L101.219 59.7477L101.477 59.8703L101.933 60.2127L102.385 60.4272L102.932 60.5436L103.254 60.6328L103.801 60.7493L103.993 60.7452L104.506 60.7983L104.73 60.7936L105.146 60.8168ZM115.755 60.3359L116.01 60.2985L116.907 60.3115L117.096 60.1794L117.219 59.9528L117.312 59.7908L117.401 59.4368L117.582 58.9529L117.889 58.3382L118.009 57.9516L118.1 57.7256L118.16 57.5003L118.375 57.0797L118.527 56.7243L119.391 56.706L120.8 56.7082L121.313 56.7613L122.017 56.7784L122.055 57.0337L122.087 58.5373L122.061 58.858L122.1 59.1772L122.144 59.7524L122.215 60.071L122.345 60.1642L122.825 60.1541L123.242 60.1772L123.561 60.1385L123.784 60.1017L124.169 60.1256L124.425 60.1202L125.128 60.0733L125.576 60.0638L125.832 60.0903L126.056 60.0536C126.184 60.0509 126.28 60.0808 126.407 60.0461C126.565 59.9468 126.527 59.6595 126.493 59.5322L126.478 58.8604L126.431 58.1572L126.425 57.8693L126.388 57.614L126.41 57.1654L126.4 56.6855L126.364 56.4623L126.323 56.047L126.319 55.8551L126.229 54.6407L126.256 54.4161L126.215 53.9689L126.237 53.4883L126.194 53.0091L126.19 52.7851L126.126 51.3141L126.106 50.3544L126.069 50.0991L126.029 49.7158L126.002 48.4681L125.931 48.1176L125.888 47.6064L125.884 47.4144L125.843 46.9992L125.871 46.8065L125.829 46.3593L125.816 45.7195L125.742 45.2729L125.727 44.5691L125.755 44.3444L125.713 43.8652L125.703 43.4173L125.625 42.7788L125.585 42.3636L125.575 41.9157L125.519 40.7646L125.507 40.1888L125.439 39.9982L125.424 39.2943L125.298 37.9207L125.071 37.7655L124.91 37.7049L124.398 37.7157L124.111 37.7538L123.885 37.6946L123.597 37.7007L122.99 37.7455L122.478 37.7564L122.159 37.7952L121.551 37.776L121.231 37.7828L121.007 37.8196L120.887 38.1742L120.795 38.3682L120.704 38.5942L120.428 39.1761L120.213 39.5968L120.033 40.1767L119.973 40.338L119.849 40.5327L119.664 40.8887L119.605 41.114L119.545 41.3073L119.453 41.5013L119.394 41.7266L119.118 42.3086L119.027 42.5346L118.938 42.8565L118.752 43.1485L118.66 43.3425L118.509 43.7618L118.267 44.4391L118.143 44.6338L117.988 44.8611L117.901 45.311L117.718 45.731L117.658 45.8923L117.57 46.3103L117.415 46.5376L117.328 46.9556L117.236 47.1495L117.052 47.5055L116.903 48.0528L116.688 48.4735L116.598 48.7314L116.361 49.6327L116.269 49.8266L116.118 50.2779L116.026 50.4719L115.935 50.6979L115.907 50.8905L115.725 51.3425L115.665 51.5678L115.482 51.9558L115.327 52.2151L115.269 52.5044L115.21 52.7297L114.996 53.1824L114.904 53.4084L114.753 53.8277L114.661 54.0216L114.634 54.2463L114.574 54.4396L114.422 54.8269L114.267 55.0542L114.207 55.2475L113.963 55.8288L113.844 56.2475L113.509 57.0227L113.357 57.41L113.173 57.798L112.873 58.7646L112.626 59.1859L112.442 59.5739L112.414 59.7665L112.355 59.9918L112.425 60.2464L112.714 60.3043L115.05 60.2868L115.275 60.3141L115.755 60.3359ZM120.871 52.5138L120.582 52.4879L120.229 52.4633L119.974 52.4688L119.745 52.2815L119.837 52.0556L119.895 51.7663L119.954 51.541L120.102 50.9937L120.226 50.767L120.375 50.2837L120.403 50.0591L120.58 49.3512L120.669 49.0612L120.761 48.8353L120.851 48.5453L120.974 48.3186L121.001 48.094L121.122 47.7714L121.245 47.5127L121.394 46.9974L121.483 46.6755L121.632 46.1602L121.751 45.7416L122.005 45.6402L122.053 46.3753L122.045 47.5277L122.039 48.7442L122.087 49.5113L122.029 49.7686L122.04 50.3125L122.013 50.5371L122.031 51.3689L122.004 51.6255L122.042 51.8808L122.019 52.3294L121.83 52.4934L120.871 52.5138ZM136.451 59.8653L137.699 59.8389L137.89 59.8028L138.531 59.8212L139.297 59.741L139.521 59.7042L139.745 59.7315L140.06 59.5008L140.18 59.0821L140.236 58.6969L140.323 58.3109L140.287 58.0877L140.314 57.863L140.31 57.6711L140.337 57.4464L140.521 57.0585L140.548 56.8338L140.604 56.4486L140.658 55.9993L140.654 55.8074L140.677 55.3588L140.736 55.1335L140.699 54.9102L140.819 54.4916L140.906 54.1056L140.992 53.6237L141.079 53.2058L141.043 53.0145L141.164 52.6599L141.192 52.4992L141.279 52.0493L141.334 51.632L141.391 51.3107L141.476 50.7968L142.246 50.8445L142.98 50.7649L144.132 50.7405L144.484 50.7651L144.804 50.7583L144.988 50.3703L145.075 49.9204L145.194 49.5018L145.186 49.1179L145.273 48.6999L145.3 48.4753L145.328 48.2826L145.416 47.8967L145.412 47.7367L145.531 47.2861L145.526 47.0302L145.616 46.7722L145.643 46.5156L145.539 46.1657L145.091 46.1432L144.739 46.1507L144.291 46.1921L143.908 46.2323L142.5 46.2301L142.147 46.2056L142.236 45.8836L142.292 45.4983L142.288 45.2744L142.316 45.0818L142.375 44.8564L142.369 44.6005L142.492 44.3419L142.604 43.5713L142.6 43.4113L142.687 42.9614L142.772 42.4795L142.8 42.2549L142.824 41.9023L142.883 41.645L143.203 41.6382L144.514 41.5784L145.345 41.5288L145.794 41.5513L146.403 41.6024L146.913 41.5275L147.202 41.5534L147.486 41.3874L147.568 40.7135L147.684 40.1349L147.679 39.911L147.707 39.7183L147.794 39.3004L147.879 38.7545L147.875 38.5945L147.93 38.1772L147.923 37.8253L147.982 37.6L147.881 37.3461L147.462 37.2269L147.078 37.2351L146.566 37.2139L142.823 37.2933L141.99 37.2789L140.838 37.2713L139.271 37.3685L138.891 37.5366L138.835 37.9219L138.808 38.1465L138.848 38.5297L138.787 38.6911L138.732 39.1083L138.616 39.6869L138.622 39.9429L138.499 40.1695L138.474 40.5221L138.451 40.9387L138.424 41.1953L138.364 41.3886L138.277 41.8066L138.255 42.2552L138.163 42.4491L138.168 42.6731L138.018 43.1884L137.991 43.413L137.996 43.6369L137.969 43.8616L138.005 44.0529L137.95 44.4701L137.89 44.6954L137.836 45.1447L137.745 45.3707L137.69 45.8199L137.698 46.2038L137.61 46.5898L137.551 46.8151L137.431 47.2017L137.312 47.6203L137.289 48.0369L137.203 48.4868L137.207 48.7108L137.088 49.1294L136.979 50.0279L136.989 50.4758L136.897 50.7018L136.844 51.1831L136.88 51.4063L136.795 51.9202L136.645 52.3715L136.59 52.7888L136.599 53.2367L136.479 53.6233L136.484 53.8473L136.424 54.0406L136.429 54.2965L136.34 54.5865L136.317 55.0351L136.257 55.2284L136.263 55.5163L136.142 55.839L136.024 56.2896L135.997 56.5462L135.974 56.9628L135.947 57.1874L135.919 57.38L135.796 57.6387L135.74 57.992L135.712 58.2166L135.684 58.4092L135.726 58.8565L135.603 59.1151L135.611 59.467L135.746 59.7842L136.131 59.8401L136.451 59.8653ZM150.504 59.5995L150.76 59.5621L151.239 59.5199L151.526 59.4818L151.847 59.5071L151.937 59.2171L152.028 58.9911L152.052 58.6065L152.079 58.3819L152.075 58.1899L152.102 57.9653L152.125 57.5487L152.121 57.3568L152.181 57.1315L152.144 56.9402L152.231 56.4902L152.226 56.2343L152.285 56.041L152.312 55.7844L152.426 55.1098L152.484 54.8525L152.47 54.1807L152.593 53.922L152.647 53.4728L152.643 53.2808L152.698 52.8315L152.849 52.4122L152.837 51.8684L152.919 51.1945L152.945 50.9379L153.032 50.4879L153.092 50.2946L153.121 50.166L153.346 50.1932L153.476 50.3185L153.61 50.5717L153.679 50.8263L153.813 51.0795L153.883 51.3981L153.989 51.844L154.056 52.0026L154.098 52.4498L154.235 52.863L154.307 53.2775L154.376 53.5001L154.512 53.8813L154.549 54.1046L154.753 54.6764L154.761 55.0603L154.896 55.3775L154.999 55.7274L155.036 55.9507L155.136 56.1406L155.141 56.3646L155.242 56.5865L155.314 57.001L155.38 57.0957L155.482 57.3496L155.487 57.6055L155.689 58.0813L155.793 58.4312L155.86 58.5898L155.964 58.9717L156.032 59.1303L156.326 59.4121L156.518 59.4401L156.806 59.402L157.062 59.3966L157.413 59.3571L157.829 59.3483L158.659 59.2347L159.328 59.1245L159.744 59.1157L160.095 59.0442L160.254 59.0088L160.341 58.5909L160.104 57.9878L160.034 57.7012L159.998 57.4779L159.957 57.0947L159.722 56.5556L159.649 56.109L159.272 54.9647L159.199 54.5502L159.029 54.0737L159.025 53.8817L158.888 53.4685L158.819 53.2139L158.718 52.992L158.645 52.5455L158.577 52.3549L158.472 51.941L158.372 51.7511L158.299 51.3365L158.262 51.0813L158.13 50.892L158.057 50.4775L158.051 50.1895L157.881 49.713L157.779 49.4591L157.773 49.1712L157.996 49.1344L158.44 48.901L159.071 48.4715L159.508 47.9822L159.665 47.8188L160.008 47.3954L160.1 47.2014L160.347 46.7801L160.469 46.4895L160.56 46.2635L160.839 45.8415L160.991 45.4542L161.082 45.2282L161.142 45.0349L161.201 44.8096L161.321 44.4229L161.411 44.101L161.464 43.5877L161.549 43.0738L161.544 42.8499L161.502 42.3707L161.529 42.146L161.616 41.6961L161.61 41.4402L161.501 40.8343L161.497 40.6104L161.42 40.0039L161.313 39.494L161.079 39.0509L160.847 38.6717L160.716 38.5144L160.552 38.3259L160.421 38.2006L160.033 37.9848L159.871 37.8922L159.677 37.8003L159.385 37.6144L159.159 37.5552L158.869 37.4333L158.513 37.2808L158.256 37.2223L157.744 37.2331L157.391 37.1766L156.91 37.1548L156.493 37.0996L156.205 37.1057L155.724 37.0519L155.467 36.9933L155.147 37.0321L154.924 37.0688L153.548 37.098L151.628 37.1067L151.18 37.1162L150.862 37.1869L150.643 37.4476L150.519 37.6103L150.558 37.9615L150.435 38.2202L150.441 38.4761L150.414 38.7008L150.387 38.9574L150.278 39.8559L150.193 40.3698L150.105 40.7558L150.046 40.9811L150.05 41.173L150.027 41.5896L150.031 41.7816L150.003 41.9742L149.916 42.4241L149.831 42.938L149.745 43.388L149.717 43.5806L149.694 44.0292L149.575 44.4158L149.547 44.6084L149.551 44.8324L149.523 45.025L149.468 45.4423L149.441 45.6669L149.413 45.8596L149.418 46.0835L149.272 46.7587L149.278 47.0147L149.223 47.4639L149.168 47.8812L149.14 48.0738L149.083 48.4271L149.024 48.6524L149.028 48.8444L148.936 49.0384L148.877 49.2637L148.853 49.6483L148.889 49.8395L148.829 50.0329L148.674 50.2602L148.68 50.5481L148.654 50.8048L148.626 51.0294L148.508 51.48L148.513 51.7359L148.492 52.2165L148.434 52.5378L148.44 52.8257L148.293 53.405L148.303 53.8849L148.18 54.1435L148.218 54.3988L148.19 54.6234L148.132 54.8807L148.109 55.3293L148.019 55.5873L148.056 55.8106L147.965 56.0685L147.97 56.2925L147.883 56.7424L147.856 56.967L147.86 57.159L147.769 57.385L147.774 57.6089L147.714 57.8022L147.718 58.0262L147.694 58.3788L147.669 58.6994L147.58 59.0214L147.586 59.3093L147.654 59.4999L147.943 59.5578L148.936 59.6007L149.352 59.5919L150.504 59.5995ZM154.384 46.3303L153.839 46.2779L153.866 46.0213L153.829 45.798L153.856 45.5734L153.941 45.0594L153.999 44.7702L153.961 44.4829L154.051 44.1929L154.105 43.7117L154.1 43.4877L154.185 42.9738L154.244 42.7165L154.267 42.2999L154.289 41.8194L154.342 41.3061L154.433 41.0801L154.521 40.7262L154.807 40.6241L155.576 40.6398L156.282 40.7209L156.573 40.8747L156.802 41.094L156.968 41.3785L157.078 42.0483L157.125 42.7515L157.104 43.264L157.013 43.522L157.019 43.778L156.804 44.2306L156.776 44.4232L156.718 44.6805L156.567 45.0998L156.347 45.2965L156.223 45.4912L156.004 45.7519L155.783 45.8846L155.467 46.0833L155.278 46.2154L154.896 46.3195L154.384 46.3303ZM171.669 35.6898L173.045 35.6606L173.171 35.5619L173.617 35.4884L173.744 35.4217L173.84 35.4197L174.316 35.2496L174.411 35.1836L174.633 35.0828L174.852 34.8541L174.979 34.7874L175.008 34.6588L175.228 34.4941L175.322 34.3961L175.349 34.1395L175.473 33.9448L175.565 33.7508L175.686 33.4282L175.744 33.1709L175.74 32.9789L175.834 32.8809L175.864 32.7522L175.861 32.6243L175.825 32.433L175.852 32.2084L175.847 31.9524L175.812 31.8251L175.809 31.6971L175.674 31.3799L175.636 31.0927L175.569 30.9341L175.502 30.8075L175.404 30.7135L175.272 30.4923L175.238 30.397L175.107 30.2717L174.848 30.1492L174.587 29.8986L174.458 29.8374L174.359 29.7114L174.069 29.6216L173.78 29.5637L173.682 29.5017L173.489 29.4418L173.36 29.3805L173.007 29.356L172.815 29.3601L172.654 29.3315L172.174 29.3416L171.664 29.4165L171.44 29.4212L171.186 29.5226L171.123 29.5879L170.836 29.594L170.614 29.7268L170.394 29.8915L170.236 29.9908L170.205 30.0235L169.984 30.1882L169.732 30.3856L169.735 30.5136L169.609 30.6123L169.579 30.7089L169.486 30.8389L169.364 31.1296L169.24 31.3242L169.117 31.5829L169.087 31.6796L169.061 31.9362L169.066 32.1921L168.975 32.4181L168.948 32.6427L168.985 32.898L169.05 32.9606L168.992 33.2179L169.091 33.3439L169.094 33.5038L169.162 33.6944L169.228 33.789L169.295 33.9477L169.393 34.0096L169.494 34.2635L169.56 34.3581L169.564 34.5181L169.791 34.6733L170.346 35.2057L170.606 35.3602L170.8 35.4521L171.12 35.4773L171.25 35.5386L171.669 35.6898ZM172.171 33.7267L171.847 33.5415L171.62 33.3863L171.489 33.229L171.455 33.1337L171.451 32.9418L171.381 32.6872L171.378 32.5592L171.436 32.2699L171.432 32.078L171.493 31.9166L171.615 31.626L171.836 31.4933L172.056 31.2966L172.342 31.2265L172.662 31.2197L173.017 31.3402L173.246 31.5594L173.346 31.7813L173.481 32.0666L173.461 32.6751L173.343 33.1257L173.126 33.4504L172.905 33.6151L172.555 33.7185L172.171 33.7267ZM164.775 59.2971L165.031 59.2597L165.927 59.2727L166.116 59.1407L166.24 58.914L166.332 58.752L166.421 58.398L166.603 57.9141L166.91 57.2994L167.029 56.9128L167.121 56.6868L167.18 56.4615L167.395 56.0409L167.548 55.6856L168.411 55.6673L169.82 55.6694L170.333 55.7226L171.038 55.7396L171.075 55.9949L171.107 57.4986L171.082 57.8192L171.12 58.1384L171.165 58.7136L171.235 59.0322L171.365 59.1255L171.845 59.1153L172.262 59.1385L172.581 59.0997L172.804 59.063L173.189 59.0868L173.445 59.0814L174.148 59.0345L174.596 59.025L174.853 59.0516L175.076 59.0148C175.204 59.0121 175.3 59.0421 175.428 59.0074C175.586 58.908 175.548 58.6207 175.513 58.4934L175.499 57.8216L175.452 57.1184L175.446 56.8305L175.408 56.5752L175.431 56.1267L175.421 55.6468L175.384 55.4235L175.343 55.0083L175.339 54.8163L175.249 53.6019L175.276 53.3773L175.235 52.9301L175.257 52.4495L175.215 51.9703L175.21 51.7463L175.147 50.2754L175.126 49.3156L175.089 49.0603L175.049 48.6771L175.022 47.4294L174.951 47.0788L174.908 46.5676L174.904 46.3756L174.863 45.9604L174.891 45.7678L174.85 45.3205L174.836 44.6807L174.763 44.2341L174.748 43.5303L174.775 43.3057L174.733 42.8265L174.723 42.3786L174.646 41.7401L174.605 41.3248L174.595 40.8769L174.539 39.7259L174.527 39.15L174.459 38.9594L174.444 38.2555L174.319 36.8819L174.091 36.7267L173.93 36.6661L173.418 36.6769L173.131 36.715L172.906 36.6558L172.618 36.6619L172.01 36.7068L171.499 36.7176L171.179 36.7564L170.571 36.7373L170.251 36.744L170.028 36.7808L169.907 37.1354L169.815 37.3294L169.724 37.5554L169.448 38.1374L169.233 38.558L169.053 39.138L168.993 39.2993L168.869 39.4939L168.684 39.8499L168.625 40.0752L168.565 40.2685L168.473 40.4625L168.414 40.6878L168.138 41.2698L168.047 41.4958L167.958 41.8178L167.772 42.1098L167.68 42.3038L167.529 42.7231L167.287 43.4003L167.163 43.595L167.008 43.8223L166.922 44.2723L166.738 44.6922L166.678 44.8536L166.591 45.2715L166.436 45.4988L166.348 45.9168L166.256 46.1108L166.072 46.4668L165.924 47.014L165.708 47.4347L165.618 47.6927L165.381 48.5939L165.289 48.7879L165.138 49.2392L165.047 49.4331L164.955 49.6591L164.927 49.8518L164.745 50.3037L164.686 50.529L164.502 50.917L164.347 51.1764L164.289 51.4656L164.23 51.691L164.016 52.1436L163.925 52.3696L163.773 52.7889L163.681 52.9829L163.654 53.2075L163.594 53.4008L163.442 53.7881L163.287 54.0154L163.227 54.2088L162.984 54.7901L162.864 55.2087L162.529 55.984L162.377 56.3713L162.193 56.7592L161.894 57.7258L161.646 58.1471L161.463 58.5351L161.435 58.7278L161.375 58.9531L161.445 59.2076L161.734 59.2655L164.07 59.248L164.295 59.2753L164.775 59.2971ZM169.891 51.475L169.602 51.4491L169.25 51.4245L168.994 51.43L168.766 51.2428L168.857 51.0168L168.915 50.7275L168.974 50.5022L169.123 49.9549L169.246 49.7283L169.396 49.245L169.423 49.0203L169.6 48.3124L169.69 48.0225L169.781 47.7965L169.871 47.5065L169.994 47.2798L170.021 47.0552L170.142 46.7326L170.265 46.4739L170.414 45.9587L170.503 45.6367L170.652 45.1214L170.772 44.7028L171.026 44.6014L171.073 45.3365L171.066 46.489L171.059 47.7054L171.108 48.4725L171.049 48.7298L171.061 49.2737L171.033 49.4983L171.051 50.3301L171.024 50.5868L171.062 50.842L171.039 51.2906L170.851 51.4546L169.891 51.475ZM183.254 59.1616L183.573 59.1228L184.277 59.1079L184.787 59.0011L185.233 58.8956L185.392 58.8602L186.062 58.75L186.537 58.5479L186.949 58.3471L187.201 58.1497L187.391 58.0497L187.77 57.7856L188.143 57.2976L188.422 56.8756L188.546 56.6489L188.759 56.1643L188.819 55.939L188.879 55.7457L189.002 55.519L189.153 55.0997L189.243 54.8097L189.301 54.5524L189.394 54.3904L189.445 53.7812L189.536 53.5552L189.655 53.1046L189.708 52.5914L189.765 52.2381L189.82 51.8528L189.848 51.6282L189.935 51.2423L189.963 51.0176L190.018 50.6004L190.078 50.4071L190.041 50.1838L190.101 49.9905L190.188 49.5725L190.184 49.3806L190.211 49.1559L190.239 48.9633L190.266 48.7067L190.322 48.3214L190.316 48.0655L190.371 47.6482L190.354 46.8484L189.967 46.6966L189.295 46.7108L188.847 46.6883L188.623 46.725L187.472 46.7494L186.959 46.7283L186.448 46.7711L186.191 46.7446L185.424 46.7928L185.268 46.9882L185.239 47.1168L185.094 47.8241L185.067 48.0807L185.01 48.402L184.93 49.1718L184.789 50.039L184.797 50.4229L184.993 50.6108L185.729 50.5952L185.953 50.6225L186.021 50.7811L185.887 52.0322L185.711 52.7721L185.622 53.0941L185.532 53.384L185.38 53.7713L185.258 54.062L185.04 54.3547L184.693 54.5861L184.312 54.7222L183.704 54.7351L183.094 54.652L182.771 54.4988L182.673 54.4048L182.54 54.1836L182.342 53.8997L182.335 53.5798L182.297 53.2605L182.286 52.7807L182.309 52.3321L182.332 51.9155L182.36 51.7229L182.387 51.4982L182.41 51.0816L182.433 50.6331L182.425 50.2811L182.514 49.9272L182.603 49.6052L182.598 49.3813L182.621 48.9327L182.681 48.7394L182.704 48.3228L182.763 48.0975L182.85 47.6796L182.965 47.069L182.99 46.7164L183.077 46.2984L183.167 46.0085L183.193 45.7199L183.25 45.3986L183.341 45.1726L183.397 44.7553L183.424 44.5307L183.546 44.2721L183.602 43.8868L183.661 43.6615L183.689 43.4688L183.811 43.1782L183.807 42.9542L183.898 42.7283L183.924 42.4716L184.012 42.0857L184.195 41.6657L184.38 41.3097L184.408 41.1171L184.499 40.8911L184.622 40.6644L184.714 40.4705L184.965 40.2091L185.249 40.043L185.472 39.9743L186.176 39.9594L186.498 40.0806L186.694 40.2685L186.859 40.489L186.895 40.6803L186.934 41.0315L186.971 41.2548L186.887 41.8327L186.926 42.12L186.866 42.3453L186.811 42.7625L186.758 43.2758L186.733 43.6284L186.771 43.8836L187.094 44.0048L187.446 44.0294L188.342 44.0104L188.663 44.0356L189.174 43.9928L189.718 44.0132L190.357 43.9677L190.641 43.7696L190.824 43.3497L190.878 42.8684L190.904 42.5798L190.928 42.1952L190.984 41.8099L190.979 41.586L191.003 41.2014L190.996 40.8495L191.019 40.4329L190.992 39.1852L190.951 38.7699L190.912 38.4187L190.777 38.0695L190.706 37.7829L190.608 37.657L190.508 37.467L190.05 37.0286L189.66 36.7168L189.208 36.5664L188.66 36.3539L188.434 36.2627L187.888 36.1783L187.472 36.1871L187.215 36.1285L186.797 36.0733L186.381 36.0502L185.518 36.1005L184.558 36.1208L184.112 36.2263L183.602 36.3011L183.188 36.4379L182.776 36.6067L182.365 36.8394L181.953 37.0402L181.544 37.3689L181.2 37.7603L181.075 37.923L180.983 38.117L180.859 38.2796L180.706 38.635L180.552 38.9263L180.493 39.1516L180.401 39.3456L180.218 39.7656L180.128 40.0235L180.036 40.2175L179.917 40.6681L179.797 41.0548L179.769 41.2154L179.617 41.6027L179.525 41.7967L179.466 42.022L179.374 42.216L179.347 42.4406L179.255 42.6346L179.227 42.8272L179.168 43.0525L179.143 43.4051L179.021 43.6958L178.995 43.9524L178.939 44.3697L178.851 44.7236L178.732 45.1742L178.705 45.3989L178.616 45.7208L178.654 46.0081L178.567 46.426L178.421 47.1013L178.367 47.5505L178.248 48.0011L178.222 48.2578L178.2 48.7703L178.082 49.2209L178.06 49.7015L177.974 50.1514L177.982 50.5673L177.863 50.986L177.932 51.2086L177.877 51.6258L177.85 51.8504L177.826 52.267L177.799 52.4597L177.771 52.6843L177.78 53.1002L177.751 53.2288L177.76 53.6767L177.703 53.998L177.683 54.5746L177.826 55.2437L177.83 55.4357L177.93 55.6576L178.065 55.9748L178.102 56.2301L178.205 56.548L178.307 56.8339L178.536 57.0531L178.768 57.4322L178.867 57.5902L178.999 57.7474L179.326 58.0926L179.585 58.2151L180.04 58.5575L180.493 58.772L181.039 58.8884L181.361 58.9776L181.908 59.0941L182.1 59.09L182.613 59.1432L182.837 59.1384L183.254 59.1616ZM198.836 59.0234L199.537 58.9126L199.887 58.8091L200.111 58.7724L200.556 58.6669L200.811 58.5975L201.034 58.5608L201.764 58.2572L201.89 58.1585L202.268 57.8945L202.646 57.5984L202.802 57.403L202.991 57.239L203.366 56.847L203.426 56.6537L203.582 56.4583L203.706 56.2636L203.985 55.8416L204.141 55.6143L204.384 55.033L204.599 54.5803L204.624 54.2597L204.779 54.0324L204.868 53.6784L204.863 53.4545L204.951 53.0686L205.103 52.7132L205.128 52.3606L205.22 52.1667L205.372 51.7793L205.336 51.5881L205.632 50.4615L205.724 50.2675L205.778 49.8183L205.837 49.593L205.831 49.3051L205.915 48.7271L206.007 48.5332L206.094 48.1152L206.118 47.7306L206.205 47.3127L206.26 46.8954L206.379 46.4768L206.339 46.0936L206.492 45.7383L206.453 45.419L206.506 44.9058L206.565 44.6805L206.587 44.1679L206.608 43.6873L206.663 43.2381L206.691 43.0454L206.684 42.7255L206.647 42.5022L206.675 42.3096L206.734 42.0843L206.758 41.6677L206.753 41.4438L206.712 41.0285L206.74 40.8359L206.763 40.4193L206.758 40.1954L206.721 39.9401L206.644 39.3336L206.538 38.8557L206.469 38.6331L206.401 38.4425L206.301 38.2526L206.1 37.8408L206 37.6189L205.836 37.4303L205.477 37.1178L205.119 36.8373L204.955 36.6488L204.696 36.4942L204.112 36.1225L203.627 35.9087L203.434 35.8488L203.177 35.8223L202.919 35.7317L202.406 35.6786L202.053 35.654L201.861 35.6261L201.284 35.6063L200.901 35.6464L200.454 35.6879L199.88 35.7961L199.56 35.8349L199.083 35.973L198.892 36.0091L198.415 36.1472L198.035 36.3473L197.656 36.5794L197.435 36.7441L197.181 36.8455L196.772 37.1423L196.334 37.6316L196.178 37.827L195.957 37.9917L195.71 38.381L195.462 38.8024L195.339 38.997L195.311 39.2217L195.032 39.6437L194.909 39.8703L194.725 40.2583L194.575 40.7096L194.455 41.0962L194.364 41.3222L194.18 41.7422L194.125 42.1595L193.97 42.3868L193.859 43.1893L193.804 43.6386L193.777 43.8312L193.685 44.0572L193.629 44.4425L193.639 44.8904L193.58 45.1157L193.395 45.4397L193.431 45.6309L193.371 45.8563L193.375 46.0482L193.316 46.2735L193.224 46.4675L193.229 46.6915L193.141 47.0774L193.15 47.4933L193.062 47.8793L192.978 48.4572L192.919 48.6825L192.864 49.0997L192.931 49.2583L192.813 49.709L192.818 49.9329L192.763 50.3822L192.769 50.6381L192.65 51.0887L192.601 51.7939L192.606 52.0179L192.643 52.2731L192.554 52.5951L192.567 53.2029L192.508 53.4283L192.617 54.0661L192.653 54.2574L192.695 54.7046L192.763 54.8952L192.799 55.1184L192.868 55.3091L192.935 55.4677L192.971 55.6589L193.072 55.8809L193.076 56.0728L193.341 56.4833L193.505 56.7039L193.605 56.8938L193.769 57.0504L193.868 57.2083L194.327 57.7107L194.913 58.1784L195.367 58.4568L195.593 58.58L196.076 58.6978L196.333 58.7244L197.073 58.9328L197.362 58.9587L197.586 58.9859L198.002 58.9451L198.836 59.0234ZM198.487 54.6778L198.295 54.6499L198.037 54.5914L197.78 54.5008L197.616 54.3442L197.418 54.0604L197.351 53.9337L197.251 53.7118L197.232 52.816L197.131 52.5941L197.252 52.2715L197.276 51.8869L197.175 51.665L197.267 51.439L197.262 51.215L197.348 50.7331L197.342 50.4772L197.401 50.2519L197.396 49.9959L197.454 49.7066L197.419 49.5793L197.478 49.354L197.441 49.0988L197.591 48.6475L197.683 48.4215L197.645 48.1662L197.673 47.9416L197.668 47.7176L197.722 47.2684L197.782 47.0431L197.899 46.5285L197.989 46.2705L198.043 45.7893L198.102 45.564L198.13 45.3393L198.215 44.8254L198.301 44.3755L198.42 43.9249L198.448 43.7322L198.534 43.2823L198.561 43.0257L198.559 42.9617L198.737 42.2858L198.796 42.0285L198.855 41.8032L199.038 41.3832L199.161 41.1565L199.281 40.7699L199.497 40.4132L199.811 40.1185L200.319 39.9157L200.574 39.8463L201.181 39.8014L201.697 40.0145L201.928 40.2977L202.06 40.487L202.201 41.1241L202.147 41.5734L202.123 41.99L202.072 42.5672L202.08 42.9831L202.023 43.2724L201.936 43.7223L201.878 43.9796L201.854 44.3962L201.891 44.6195L201.832 44.8448L201.773 45.1021L201.717 45.4874L201.6 45.97L201.643 46.5132L201.551 46.7071L201.5 47.3164L201.41 47.5743L201.32 47.8643L201.271 48.6015L201.186 49.0834L201.096 49.3734L201.13 49.4687L201.135 49.7246L201.043 49.9186L201.017 50.1753L200.929 50.5932L200.838 50.8192L200.816 51.2678L200.725 51.5257L200.671 51.975L200.611 52.2003L200.526 52.6822L200.531 52.9382L200.472 53.1635L200.289 53.6154L200.075 54.0681L199.634 54.3975L199.349 54.5316L198.903 54.669L198.487 54.6778ZM210.835 58.3211L211.09 58.2837L211.569 58.2415L211.856 58.2034L212.177 58.2286L212.267 57.9386L212.358 57.7127L212.382 57.3281L212.409 57.1034L212.405 56.9115L212.432 56.6869L212.456 56.2703L212.451 56.0783L212.511 55.853L212.475 55.6617L212.561 55.2118L212.556 54.9559L212.616 54.7625L212.642 54.5059L212.756 53.8314L212.815 53.5741L212.8 52.9022L212.923 52.6436L212.977 52.1943L212.973 52.0023L213.028 51.5531L213.179 51.1338L213.167 50.5899L213.249 49.916L213.276 49.6594L213.362 49.2095L213.422 49.0162L213.451 48.8875L213.676 48.9148L213.807 49.04L213.94 49.2933L214.009 49.5478L214.143 49.8011L214.214 50.1196L214.319 50.5655L214.386 50.7241L214.428 51.1713L214.565 51.5845L214.638 51.9991L214.706 52.2217L214.842 52.6029L214.879 52.8262L215.083 53.398L215.091 53.7819L215.226 54.0991L215.33 54.449L215.366 54.6722L215.466 54.8622L215.471 55.0861L215.572 55.308L215.645 55.7226L215.711 55.8172L215.812 56.0711L215.818 56.3271L216.02 56.8029L216.123 57.1528L216.19 57.3114L216.295 57.6933L216.362 57.8519L216.656 58.1337L216.849 58.1616L217.136 58.1235L217.392 58.1181L217.743 58.0787L218.159 58.0698L218.989 57.9562L219.659 57.846L220.074 57.8372L220.425 57.7658L220.584 57.7304L220.671 57.3124L220.435 56.7093L220.365 56.4227L220.328 56.1995L220.288 55.8162L220.052 55.2771L219.979 54.8306L219.602 53.6863L219.53 53.2717L219.359 52.7952L219.355 52.6033L219.219 52.1901L219.149 51.9355L219.048 51.7136L218.975 51.267L218.907 51.0764L218.802 50.6626L218.702 50.4726L218.629 50.0581L218.592 49.8028L218.46 49.6136L218.387 49.199L218.381 48.9111L218.211 48.4346L218.109 48.1807L218.103 47.8927L218.327 47.856L218.77 47.6226L219.401 47.1931L219.839 46.7037L219.995 46.5404L220.338 46.117L220.43 45.923L220.677 45.5017L220.799 45.211L220.89 44.985L221.169 44.563L221.321 44.1757L221.413 43.9497L221.472 43.7564L221.532 43.5311L221.652 43.1445L221.741 42.8225L221.794 42.3093L221.879 41.7954L221.874 41.5714L221.832 41.0922L221.859 40.8676L221.946 40.4177L221.94 40.1617L221.832 39.5559L221.827 39.3319L221.75 38.7254L221.643 38.2156L221.41 37.7724L221.178 37.3932L221.046 37.236L220.882 37.0474L220.752 36.9222L220.363 36.7064L220.201 36.6138L220.007 36.5219L219.715 36.336L219.49 36.2768L219.199 36.1549L218.844 36.0024L218.586 35.9438L218.074 35.9547L217.721 35.8981L217.241 35.8763L216.823 35.8211L216.535 35.8272L216.054 35.7734L215.797 35.7149L215.478 35.7536L215.254 35.7904L213.879 35.8195L211.958 35.8282L211.51 35.8377L211.192 35.9085L210.973 36.1692L210.849 36.3318L210.888 36.6831L210.766 36.9417L210.771 37.1977L210.744 37.4223L210.717 37.6789L210.608 38.5774L210.523 39.0914L210.435 39.4773L210.376 39.7026L210.38 39.8946L210.357 40.3112L210.361 40.5031L210.333 40.6957L210.247 41.1457L210.161 41.6596L210.075 42.1095L210.047 42.3022L210.025 42.7507L209.905 43.1374L209.877 43.33L209.882 43.554L209.854 43.7466L209.798 44.1638L209.771 44.3885L209.743 44.5811L209.748 44.8051L209.602 45.4803L209.608 45.7362L209.553 46.1855L209.498 46.6028L209.47 46.7954L209.414 47.1487L209.354 47.374L209.358 47.5659L209.267 47.7599L209.207 47.9852L209.183 48.3698L209.219 48.5611L209.16 48.7544L209.004 48.9818L209.01 49.2697L208.984 49.5263L208.957 49.7509L208.838 50.2015L208.844 50.4575L208.822 50.9381L208.765 51.2593L208.771 51.5473L208.623 52.1265L208.633 52.6064L208.511 52.8651L208.548 53.1204L208.521 53.345L208.462 53.6023L208.44 54.0509L208.349 54.3088L208.386 54.5321L208.295 54.7901L208.3 55.014L208.214 55.464L208.186 55.6886L208.19 55.8805L208.099 56.1065L208.104 56.3305L208.044 56.5238L208.049 56.7477L208.024 57.1003L207.999 57.4209L207.91 57.7429L207.916 58.0308L207.984 58.2214L208.273 58.2793L209.266 58.3223L209.682 58.3135L210.835 58.3211ZM214.714 45.0519L214.169 44.9994L214.196 44.7428L214.159 44.5195L214.186 44.2949L214.271 43.781L214.329 43.4917L214.291 43.2045L214.381 42.9145L214.435 42.4332L214.43 42.2093L214.515 41.6954L214.574 41.4381L214.597 41.0215L214.619 40.5409L214.672 40.0277L214.763 39.8017L214.852 39.4477L215.138 39.3457L215.906 39.3614L216.612 39.4424L216.903 39.5963L217.132 39.8155L217.298 40.1L217.408 40.7699L217.455 41.473L217.434 41.9856L217.343 42.2436L217.349 42.4995L217.134 42.9522L217.107 43.1448L217.048 43.4021L216.897 43.8214L216.677 44.0181L216.553 44.2128L216.334 44.4734L216.113 44.6062L215.797 44.8049L215.608 44.9369L215.226 45.0411L214.714 45.0519Z" fill="white"/>
</svg>
