<svg width="56" height="28" viewBox="0 0 56 28" fill="none" xmlns="http://www.w3.org/2000/svg">
<path d="M12.839 11.6622L11.5088 13.9441L13.5596 20.3552L16.7049 14.1891C16.7049 14.1891 22.1842 16.1855 22.4185 16.0087C22.6529 15.8319 26.3522 15.1274 26.3522 15.1274L29.2226 10.9898L35.4103 11.7555L39.982 8.58687L39.5092 3.02502L34.4987 4.73604L32.4831 4.10398L30.3523 5.83727L30.4729 8.02581L26.3577 10.497L24.4355 9.26487L20.1821 10.4956L18.9915 9.83567V6.54033L15.2461 6.92319L12.8376 11.6622H12.839Z" fill="#074658"/>
<path d="M55.6948 8.32672L55.6893 8.28496L55.6934 8.25015L55.6988 8.02044L55.688 7.94665L55.6934 7.884V7.65429L55.6541 7.37585L55.3439 6.60039L54.561 6.54053L54.2427 6.56419L53.308 6.70341L53.1454 6.70898L52.8054 6.7772L52.5874 6.7953L51.5836 6.96236L51.3114 7.00274H51.2016L49.9351 7.19208L49.8565 7.21574L49.7983 7.21296L49.2443 7.2951L48.8392 7.41761L48.7336 7.53038L48.2053 7.49001L47.887 7.51368L46.9523 7.6529L46.7898 7.65846L46.4498 7.72668L46.2317 7.74478L45.228 7.91185L44.9557 7.95222H44.846L43.5794 8.14156L43.5022 8.16523L43.444 8.16244L42.8886 8.24597L42.4836 8.36849L42.0312 8.85158L41.8808 9.3834V9.39036L41.7061 9.26924L41.5719 9.18571L41.4378 9.0618L41.1805 8.94486L40.8256 8.77083L40.4612 8.65807L40.2228 8.61352L40.1158 8.6163L39.9857 8.58706L39.6268 8.59402L39.4602 8.60238L39.3491 8.59959L38.9549 8.63579L38.7206 8.69148L38.4659 8.74856L38.1842 8.84044L37.9891 8.89056L37.7398 9.00055L37.6491 9.02978L37.2996 9.18292L37.026 9.37783L36.8011 9.563L36.7632 9.60059L36.6521 9.66323L36.3148 9.98623L36.0615 10.3607L36.048 10.383L35.9139 10.5153L35.7378 10.8967L35.6443 11.1209L35.5143 11.4035V11.4285L35.4818 11.3673L35.4195 11.2253L35.2786 11.0011L35.1526 10.7645L34.944 10.5779L34.856 10.4874L34.7042 10.3412L34.3913 10.1296L34.0351 9.99597L33.9768 9.98066L33.8048 9.89016L33.4919 9.84701L33.1763 9.83308H32.8363H32.5613L32.4299 9.85257L32.1956 9.85536L31.8894 9.9013L31.7255 9.9375H31.647L30.4766 10.1129L30.4211 10.131L30.2612 10.1422L30.0296 10.1964L29.0502 10.3426L28.6019 10.6628L28.5599 10.5932L27.7444 10.5083L27.5412 10.5626L27.2148 10.5779L26.9601 10.6545L26.6418 10.7018L26.612 10.713L26.5497 10.7157L26.0526 10.7895L25.6381 10.8271L25.061 11.1042L24.7576 11.6958L24.7454 11.7543L24.6844 11.8713L24.3919 11.3798L23.7295 11.1543L23.3136 11.2169L23.0806 11.235L22.9181 11.2587L22.6607 11.3116L22.4684 11.3255L22.085 11.3826L21.7369 11.4091L21.6028 11.4703L21.2872 11.5176L20.809 12.0105L20.7182 12.5312L20.7142 12.9085L20.7088 13.1813L20.7142 13.2189L20.6329 13.0992L20.572 12.9586L20.4473 12.8013L20.3959 12.7316L20.2767 12.52L19.8771 12.243L19.4937 12.0216L19.0494 11.9297H19.0196L18.9356 11.881H18.6512L18.5496 11.8685L18.4019 11.8657H18.0958L18.0253 11.8768L17.9359 11.8601L17.3955 11.8741L17.0704 11.9228L16.7805 11.9826L16.5096 12.023L16.3037 12.0857L16.0964 12.1692L15.7632 12.282L15.346 12.5437L15.2498 12.6119L14.9721 12.7971L14.7811 13.0157L14.5414 13.3456L14.3991 13.5934L14.3531 13.6867L14.1756 13.8941L14.0944 14.2965L14.0388 14.5137L13.9819 14.7406L13.9169 15.0775L13.8844 15.3239L13.8397 15.6316L13.7706 15.9936L13.7557 16.1732L13.7151 16.3305V16.5574V16.5894L13.6988 16.7161V16.7384L13.6595 16.8609L13.6731 17.1588L13.6704 17.2521L13.6595 17.337L13.6148 17.7965L13.6311 17.9106L13.6284 17.9218L13.5837 17.6099L13.5214 17.3941L13.4916 17.1811V17.0363L13.4293 16.7356L13.3954 16.4989L13.3114 16.1523L13.2776 15.9964L13.2518 15.8112L13.1543 15.232L13.0947 14.8074L13.05 14.7169L13.0175 14.4914L12.7764 13.3484L12.1695 13.0268L11.8051 12.9377L11.3324 13.0087L11.3243 13.0115L11.2647 13.0031L10.9734 13.0463L10.6835 13.1061L10.4167 13.1465L10.2894 13.1785L10.0415 13.2022L9.79765 13.2384L9.09598 13.4514L8.95646 14.1406L8.93208 14.2171L8.90228 14.3341L8.81694 14.5986L8.71534 14.884L8.65981 15.2028L8.63949 15.2474L8.52164 15.5731L8.49319 15.7847L8.45391 15.9073L8.43901 16.0214L8.35909 16.2678L8.30762 16.4655L8.29678 16.5421L8.25885 16.6228L8.19383 16.8247L8.08276 17.3329L7.94324 17.6113L7.92292 17.9315L7.88228 18.0721L7.84029 18.2517L7.83216 18.3478L7.7712 18.4703L7.74818 18.7557L7.65877 19.0035L7.61949 19.2847L7.55312 19.4727L7.50435 19.7038L7.50029 19.637L7.503 19.3905L7.4881 19.2847V19.236L7.56666 19.0662L7.50842 18.6582L7.53822 18.5413L7.51383 18.3701L7.52874 18.2545L7.52603 18.2308L7.54634 18.1765V17.738L7.52738 17.4637L7.52196 17.4234L7.53009 17.3287L7.59782 16.6312L7.58427 16.5365L7.60459 16.3848L7.60865 16.2052L7.59511 15.8321L7.61001 15.7499V15.562L7.61272 15.3977L7.59511 15.2766V15.1638L7.59105 15.1332L7.61678 14.9383L7.52061 14.6278L7.30117 13.9582L6.53177 13.7674H6.32316L6.2148 13.7563L5.43321 13.8733L5.24627 13.8844L4.52699 13.9916L4.39154 14.0278L3.49481 14.1614H3.45146L2.88254 14.1781L2.53441 14.2979L2.3678 14.3104L2.12262 14.3661L1.80159 14.4134L1.23402 14.6682L1.01593 15.0775L0.915694 15.3406L0.857447 15.6748L0.861511 15.9309L0.877765 16.1258L0.822228 16.3416L0.852028 16.5518L0.849319 16.6674V16.8094L0.853383 17.2967L0.963104 17.6809L1.43179 18.3728L2.05354 18.3603L2.29736 18.3478L3.4474 18.1765L3.45417 18.2211L3.4474 18.3158L3.41895 18.5316L3.44198 18.6917V18.8044L3.44604 18.8351L3.43656 18.874L3.42979 19.1831V19.2318L3.41624 19.3042L3.39999 19.6203L3.42166 19.7748L3.44198 20.0713L3.42979 20.1632L3.43385 20.3484V20.3999L3.19138 20.3818L3.09385 20.3066L2.17139 20.418L1.76637 20.4779L1.75147 20.4862L1.72167 20.489L1.50629 20.496L1.13784 20.5878L0.75179 20.6449L0.57434 20.8398L0.321035 20.9707L0 21.6014L0.0243824 22.0552L0.044701 22.2835L0 22.626L0.0338644 23.0117L0.0555376 23.2831L0.117848 23.8233L0.120557 23.9653L0.178804 24.3774L0.235696 24.6336L0.368445 25.1501L0.388763 25.1905L0.394182 25.2253L0.520157 25.5872L0.590595 25.6916L0.627169 25.8114L0.757208 26.0773L1.07282 26.4476L1.27195 26.6383L1.41282 26.7595L1.59298 26.9516L2.02238 27.1521L2.32716 27.2662L2.55202 27.3191L2.61162 27.34L2.83784 27.3957L3.07489 27.4389L3.35122 27.4486L3.52461 27.4403H3.68174L4.1897 27.3637L4.50126 27.2969L4.88325 27.1785L5.1948 27.0477L5.32619 26.9794L5.52532 26.8959L5.69599 26.7623L5.81384 26.6954L6.17009 26.4128L6.27711 26.2847L6.45456 26.7274L7.26459 26.7901L8.42411 26.6342H8.50945L8.8657 26.6063L8.99981 26.5673L9.65542 26.4936L10.1227 26.0592L10.2447 25.7404L10.3259 25.5427L10.3571 25.2851L10.3923 25.1362L10.5129 24.7867L10.5521 24.564L10.7215 24.5431L10.7269 24.6809L10.7824 24.9092L10.8461 25.2364L11.0398 25.7975L11.6927 26.1622L12.1925 26.087L12.4404 26.0703L12.6721 26.0105L12.7141 25.9993L12.8346 25.9924L13.0161 25.9659L13.3521 25.8991L13.4889 25.8782L13.6799 25.874L13.8113 25.835C13.837 25.8323 13.8627 25.8295 13.8885 25.8267C13.9833 25.8128 14.0754 25.7863 14.1621 25.7501L14.2908 25.6958L14.3991 25.6053C14.6497 25.3951 14.7811 25.086 14.7798 24.7519L14.8692 24.8382L15.216 25.0387L15.3081 25.0833L15.4124 25.1459L15.5722 25.2141L15.7632 25.3352L16.1073 25.3993L16.3904 25.4647L16.5258 25.4675L16.6681 25.487L16.8767 25.4772H16.9593H17.1029L17.2817 25.4675H17.4334L17.554 25.4494L17.7869 25.4411L18.0199 25.3561L18.1269 25.3311L18.4263 25.2865L18.6918 25.1807L18.8801 25.1195L19.0846 25.0331L19.5398 24.8508L19.7728 24.7046L20.106 24.4136L20.404 24.06L20.5421 23.8289L20.572 24.2173L21.4673 24.7199L21.8751 24.6155L21.9685 24.6127L22.5903 24.5194L22.765 24.4804L22.9696 24.4679L23.1429 24.422L23.6536 24.3454L24.3919 23.9375L24.4853 22.9894L24.465 22.8502L24.4758 22.7987L24.5138 22.5049L24.6546 22.8251L24.8348 23.162L24.9499 23.4641L25.4078 23.9862L26.0959 24.0015L26.4427 23.9333H26.5307L26.9696 23.8679L27.0915 23.8358L27.5033 23.7885L27.9368 23.7245L28.8213 23.5518L28.8985 23.6006L29.4417 23.4878H29.4959L29.8102 23.4613L31.1322 23.2637L31.9003 23.0325L31.987 22.1401L31.9829 21.9146L32.0086 21.7963V21.6654L32.0262 21.5666V21.4204L32.0872 21.2881L32.029 20.8746L32.0411 20.631L32.033 20.5725L32.0466 20.5224V20.3331L32.0588 20.2008L32.0777 20.0477L32.0818 19.875L32.1035 19.7469L32.1278 19.3655L32.1129 19.2611L32.1265 19.1803V18.9673L32.2227 18.9576L32.736 18.842L32.9501 18.778L33.1573 18.7292L33.4364 18.6374L33.7831 18.4661L33.9646 18.345L34.1245 18.2684L34.5498 17.9649L34.6609 17.7784L34.8627 17.5654L34.9535 17.383V17.4832L34.963 17.5445L34.9386 17.731L34.9643 18.2155L34.9914 18.409L34.9752 18.519L35.0185 18.8253L34.9941 19.0133L35.1472 19.5353L35.1621 19.5855L35.2244 19.8764L35.284 19.9975L35.3152 20.1061L35.414 20.308L35.4452 20.411L35.4655 20.4458L35.4899 20.6143L35.8313 21.0333L35.8949 21.1016L35.9979 21.2547L36.1157 21.3452L36.1536 21.3925L36.5234 21.7169L36.9447 21.9828L37.2536 22.1276L37.5055 22.2292L37.9268 22.2794L38.0351 22.2766L38.4117 22.3351L38.6244 22.3281H38.8208L39.0308 22.2794L39.4642 22.2668L39.9654 22.1193L40.1307 22.0455L40.212 22.0204L40.4504 21.9299L40.5533 21.8868L40.7159 21.838L41.2523 21.5248L41.3782 21.3953L41.5449 21.2408L41.8036 20.9735L41.8794 20.8454L41.9323 20.7841L42.2452 20.3526L42.2709 20.2064L42.3305 20.0769L42.4348 19.8625L42.5391 19.6551L42.6421 19.2806L42.7653 18.8977L42.7613 18.8156L42.7856 18.7682L42.8425 18.2907L42.8263 18.1738L42.8981 17.9204L42.8899 17.7533L43.0024 17.3036L42.9563 17.1547L42.9929 16.879L43.0457 16.7147V16.4001L43.0688 16.2177L43.0403 16.0214V15.9532L43.0647 15.8794L43.0958 15.4854L43.085 15.2933L43.0999 15.1151V14.9397L43.15 14.6125L43.1216 14.4886L43.1758 14.2951L43.1026 13.9944V13.9178L43.1202 13.773L43.0918 13.4194L43.0769 13.2147V13.0365L43.0796 12.8723L43.0349 12.5632L43.0457 12.4838L43.0403 12.3919L43.1839 12.3711L43.3397 12.3641L43.5889 12.3265L43.6174 12.3182L43.6268 12.3836L43.5997 12.5562L43.5727 12.7595V13.0059L43.5754 13.017L43.5564 13.1006L43.5754 13.2356L43.5036 13.4904L43.5672 13.709V13.7285L43.532 13.922V13.9275L43.4873 14.2728L43.5063 14.4092L43.4819 14.5735L43.509 14.7629L43.4047 15.1833L43.4778 15.349L43.4711 15.413L43.4264 15.6386L43.3993 15.8488V16.1885L43.3871 16.2275L43.4074 16.5198L43.3966 16.5811L43.3939 16.9291L43.3817 17.0182L43.3681 17.2786L43.3397 17.5695L43.3586 17.7018L43.3234 18.1041L43.3559 18.2239L43.3099 18.4606L43.3437 18.7014L43.3492 18.771L43.3315 18.8726L43.3505 19.1316L43.2719 19.5827L43.3126 20.0073L43.3207 20.7145L44.1836 21.2979L44.4911 21.2519L44.7538 21.3006L45.0762 21.1656L46.4836 20.9554L47.1785 20.528L47.2801 19.9488L47.3005 19.6356V19.41L47.3262 18.9979L47.3668 18.4731L47.333 18.3436L47.3357 18.2921L47.3479 18.1682L47.379 17.8188L47.3993 17.5668V17.4888L47.4278 17.2953L47.44 16.9946L47.4644 16.6089L47.4264 16.4781L47.4603 16.2818V16.1704L47.4752 16.0813L47.4793 15.8293L47.4603 15.6984L47.463 15.6567L47.4765 15.4047L47.4982 15.0761L47.4928 15.0343L47.5036 14.9689L47.4942 14.8436L47.5091 14.8032L47.5497 14.3953L47.5348 14.1614L47.5402 14.1433L47.5605 13.8273L47.5808 13.6742L47.5781 13.489L47.6432 13.2259L47.612 13.0031V12.946L47.5985 12.6885L47.6066 12.6328L47.7163 12.0662L47.673 11.9882L47.6892 11.7627V11.7167L47.9046 11.6847L48.0401 11.6485L48.1227 11.636L48.3096 11.629L49.079 11.4327L49.0831 11.416L49.3134 11.4578L49.5396 11.4244L49.6953 11.4174L49.9446 11.3798L49.973 11.3715L49.9825 11.4369L49.9554 11.6109L49.9283 11.8128V12.0592L49.931 12.0704L49.9121 12.1539L49.931 12.2889L49.8592 12.5437L49.9229 12.7623V12.7832L49.8877 12.9767V12.9822L49.843 13.3261L49.862 13.4626L49.8376 13.6268L49.8647 13.8162L49.7604 14.2366L49.8335 14.4037L49.8267 14.4677L49.7834 14.6919L49.7563 14.9021V15.2404L49.7441 15.2808L49.7644 15.5717L49.7536 15.633V15.9824L49.74 16.0715L49.7265 16.3305L49.6981 16.6215L49.717 16.7537L49.6818 17.1575L49.7143 17.2772L49.6683 17.5139L49.7021 17.7547L49.7075 17.8229L49.6899 17.9246L49.7102 18.1835L49.6317 18.636L49.6723 19.0606L49.6804 19.7678L50.5433 20.3512L50.8508 20.3052L51.1136 20.3539L51.4346 20.2189L52.842 20.0087L53.5369 19.5813L53.6385 19.0035L53.6588 18.6903V18.4647L53.6846 18.054L53.7252 17.5278L53.69 17.3983L53.6927 17.3482L53.7049 17.2229L53.7347 16.8734L53.755 16.6215V16.5435L53.7835 16.35L53.7956 16.0493L53.82 15.665L53.7821 15.5341L53.816 15.3378V15.2251L53.8309 15.1374L53.8363 14.8868L53.8173 14.7545L53.82 14.7127L53.8336 14.4622L53.8552 14.1336L53.8498 14.0918L53.8607 14.0264L53.8512 13.8997L53.8661 13.8607L53.9067 13.4528L53.8905 13.2189L53.8959 13.2022L53.9162 12.8862L53.9365 12.733L53.9338 12.5479L53.9988 12.2848L53.9677 12.0634V12.0063L53.9528 11.7488L53.9609 11.6931L54.072 11.1264L54.0273 11.0485L54.0435 10.8257V10.7784L54.2589 10.7464L54.3944 10.7102L54.477 10.6976L54.6639 10.6907L55.4347 10.493L55.6663 9.64653L55.646 9.35556L55.6934 9.04092L55.6785 8.78197L55.6934 8.66781L55.7002 8.34064L55.6948 8.32672ZM20.3363 18.6081L19.8107 18.6415L19.0034 18.7112L18.6701 18.7613L18.2109 18.8114L17.6759 18.9631L17.5336 19.1887V18.9854L17.5607 18.7167L17.558 18.565L17.5865 18.0095L17.6014 17.9204L17.8587 18.2281L18.7988 18.2211L19.8649 18.0791L20.1276 18.0206L20.637 17.8995L20.6302 18.0345L20.6329 18.2977V18.4438L20.6451 18.6109L20.6234 18.7961V18.8309L20.3335 18.6095L20.3363 18.6081ZM27.9097 20.0045L27.9002 19.992L27.8244 19.7275L27.6293 19.5047L27.5169 19.2736L27.4613 19.1845L27.4315 19.0801L27.3448 18.9381L27.3245 18.8726L27.2703 18.771L27.2297 18.6193L27.0712 18.3603L27.0021 18.2503L26.9479 18.132L26.9032 18.0192L26.7177 17.596L26.6242 17.3621L26.5321 17.2048L26.4942 17.0934L26.4698 17.0419L26.6337 16.7328L26.742 16.4836L26.7827 16.3723L26.8545 16.2428L26.9886 15.9421L27.0848 15.7611L27.1891 15.5495L27.3611 15.1861L27.4369 15.0413L27.4979 14.909L27.6171 14.71L27.6753 14.593L27.8122 14.3717L27.8487 14.2129L27.93 14.0863L27.9652 13.9777L28.0086 13.9178L28.0682 13.7883L28.2023 13.5781L28.2565 13.411L28.2456 13.5823L28.2253 13.7869L28.2538 14.1113V14.1266L28.2199 14.5373L28.2619 14.6431L28.2429 14.8283L28.2389 15.0065L28.2456 15.0984L28.2402 15.1207L28.2036 15.3908L28.2267 15.7318L28.2429 15.8502L28.2334 15.9741L28.2212 16.279L28.2267 16.6409L28.2131 16.8498V16.9152L28.1969 17.0308V17.1282L28.1738 17.2883L28.1928 17.5584L28.1657 17.6628V18.1626L28.1725 18.2462L28.1291 18.3798L28.1549 18.5608L28.1373 18.6596L28.1522 18.7627L28.098 18.9325L28.1346 19.1956L28.1413 19.3056L28.121 19.4434L28.0912 19.6175V19.8472L28.0953 19.8987L28.0763 19.9558L28.0655 20.3512L28.0614 20.3456L27.907 20.0115L27.9097 20.0045Z" fill="#074658"/>
<path d="M3.50052 26.4859L3.34474 26.4928L3.17135 26.4872L3.02641 26.4608L2.86387 26.4204L2.79749 26.3981L2.58618 26.3494L2.3708 26.2687L2.13646 26.1587L2.04435 26.0598L1.88315 25.922L1.73821 25.7828L1.53096 25.5392L1.48762 25.4487L1.43072 25.2635L1.3508 25.1466L1.29797 24.9934L1.28443 24.8987L1.23973 24.8083L1.13543 24.4045L1.09072 24.2013L1.04602 23.8852L1.04331 23.7571L0.978295 23.1863L0.957976 22.9316L0.933594 22.6448L0.978295 22.2995L0.948494 21.9821L0.939012 21.8067L0.999968 21.6842L1.13136 21.6159L1.19909 21.5408L1.3061 21.5241L1.62443 21.4447L1.7653 21.4405L1.99829 21.4224L2.04164 21.4001L2.27192 21.3653L2.82729 21.2985L2.8449 21.3124L2.98713 21.3236L3.04402 21.5087L3.0657 21.6661L3.09279 22.1937L3.08466 22.4694L3.09143 22.7422L3.11175 23.1098L3.1253 23.5427L3.16323 23.8114L3.20793 24.0147L3.27566 24.1651L3.41924 24.289L3.56825 24.3474L3.73757 24.3224L3.93534 24.2764L4.08569 24.1247L4.1602 23.9841L4.22386 23.7655L4.23876 23.5372L4.26856 23.3075L4.29023 22.9009L4.30107 22.7548L4.30514 22.5612L4.32004 22.3329L4.30649 22.2383L4.32139 22.1227V21.9125L4.34442 21.6187L4.31326 21.5101L4.33087 21.4113L4.34984 21.1022L4.34713 20.8614L4.35255 20.5704V20.3449L4.34984 20.2168L4.36474 20.1012L4.35119 19.8938L4.33494 19.671L4.32139 19.5764L4.32952 19.4135L4.34713 19.3146V19.2019L4.35119 19.0083L4.38099 18.8914L4.35932 18.7341V18.6213L4.34577 18.5266L4.36067 18.4111L4.37557 18.1828L4.36203 18.0881L4.37693 17.9725L4.36338 17.7651L4.38099 17.6663L4.37828 17.4254L4.39047 17.1818L4.37693 17.0871L4.00577 17.1261L2.19335 17.3962L2.02267 17.4059L1.89805 17.4087L1.79917 17.2625L1.76801 17.1539L1.7653 16.8003V16.6875L1.76937 16.494L1.75582 16.3994L1.78562 16.2824L1.80052 16.1669L1.77614 15.8801L1.77343 15.752L1.79917 15.603L1.84522 15.4833L1.8818 15.4137L2.04435 15.3413L2.27462 15.3065L2.48729 15.2591L2.70403 15.2424L3.03319 15.1283L3.43956 15.1157H3.54928L4.5625 14.964L4.69796 14.9278L5.32784 14.8331L5.51477 14.822L6.22051 14.7162L6.28417 14.7231L6.29907 14.7204H6.40879L6.57134 14.7607L6.62688 14.9292L6.65533 15.0211L6.64043 15.1366L6.65397 15.2313V15.3441L6.67023 15.4541V15.5515L6.66887 15.6643L6.65126 15.7631L6.66752 16.2114V16.3089L6.63501 16.5386L6.65126 16.6486L6.59301 17.2375L6.57541 17.4491L6.59166 17.5591L6.60521 17.7665V17.992L6.56051 18.1118L6.58082 18.2538L6.56592 18.3693L6.58218 18.4793L6.55238 18.5963L6.59708 18.9123L6.54967 19.0167V19.2422L6.54831 19.3397L6.56457 19.4497V19.6599L6.57676 19.8673L6.54019 20.0497L6.55102 20.2418L6.5158 20.4409L6.53612 20.8085L6.49278 21.0563L6.47788 21.1718L6.49413 21.2818V21.3793L6.47652 21.4948L6.49007 21.7023L6.45756 21.8039L6.43588 22.0976L6.44537 22.2731L6.46704 22.4304L6.43859 22.564L6.44537 22.7241L6.39931 22.8439L6.44537 22.9497L6.41557 23.0666L6.41963 23.2114L6.43724 23.3381L6.40744 23.455L6.42369 23.565L6.37764 23.6847L6.39389 23.7947L6.35326 23.9465L6.3072 24.179L6.28282 24.3433L6.24353 24.5103L6.18258 24.6328L6.13923 24.7679L6.05389 24.9419L6.01326 25.0937L5.92792 25.2677L5.72202 25.4751L5.52019 25.7146L5.29398 25.8928L5.17748 25.9582L5.05015 26.0585L4.9323 26.1086L4.80091 26.1768L4.56386 26.277L4.26314 26.3703L4.01932 26.4232L3.60482 26.4845H3.4951L3.50052 26.4859Z" fill="#D2E9F7"/>
<path d="M8.46663 25.6801H8.35691L7.23396 25.8319L7.09173 25.8207L7.04297 25.6996L7.05787 25.5841V25.4866L7.1256 25.2833L7.21906 25.0592L7.30576 24.5622L7.37078 24.3589L7.4209 24.1584L7.53603 23.7547L7.56854 23.5403L7.65117 23.2382L7.66878 23.1394L7.72974 23.0168L7.77986 22.8164L7.79747 22.7175V22.6048L7.82998 22.5031L7.87739 22.2859L7.90719 22.169L7.98304 21.9323L7.99795 21.8168L8.00878 21.6706L8.06703 21.5328L8.13205 21.3295L8.14695 21.2139L8.2079 20.9787V20.8812L8.24041 20.7643L8.27292 20.6626L8.31898 20.4301L8.35149 20.3285L8.41245 19.8677L8.44089 19.734L8.51946 19.5127L8.55874 19.2328L8.62647 19.0449L8.65898 18.9433L8.67659 18.7316L8.73754 18.6091L8.75515 18.3975L8.77412 18.314L8.83643 18.0954L8.85133 17.8671L8.91228 17.7446L8.95969 17.6402L9.03555 17.2907L9.08296 17.0735L9.11547 16.9719L9.18726 16.816L9.21165 16.6517L9.24145 16.5348L9.33898 16.2299L9.35388 16.1143L9.38639 16.0127L9.404 15.9138L9.4189 15.7983L9.48662 15.6103L9.53539 15.5059L9.55435 15.4224L9.60583 15.1245L9.68439 14.9031L9.78192 14.5982L9.81172 14.4813L9.84423 14.3796L9.88081 14.1972L9.98646 14.1652L10.1395 14.1429L10.4335 14.1151L10.5852 14.0761L10.8304 14.0399L11.1202 13.9801L11.2584 13.9592L11.3708 13.9745L11.5063 13.9383L11.7515 13.9021L11.8328 13.9216L11.952 13.9842L12.0942 14.6553L12.1429 15.0019L12.1877 15.0924L12.2283 15.3764L12.3245 15.9417L12.3556 16.163L12.4003 16.3663L12.4762 16.6781L12.5073 16.8995L12.5561 17.1334V17.2462L12.6049 17.5928L12.6672 17.8086L12.7119 18.1246L12.7579 18.3432V18.4407L12.7999 18.6439L12.8135 18.7386L12.8649 18.9892L12.9205 19.1577L13.0072 19.773L13.0492 19.9596L13.0817 20.0835L13.148 20.5568L13.2659 21.2808L13.2821 21.3908L13.3309 21.6246L13.3485 21.8641L13.3946 22.0827V22.1954L13.5097 22.7913L13.5233 22.886L13.568 23.0892L13.5991 23.1978L13.633 23.4345L13.6492 23.6573L13.6817 23.7812L13.7021 23.9232L13.7671 24.2684L13.8145 24.5998C13.8389 24.661 13.8741 24.8003 13.8037 24.8587C13.7441 24.8838 13.6966 24.8754 13.6343 24.8838L13.5287 24.9158L13.4041 24.9186L13.1887 24.9506L12.8527 25.0174L12.7295 25.0355L12.5425 25.0467L12.4369 25.0787L12.2852 25.1177L12.0833 25.1316L11.8531 25.1664L11.7853 25.1288L11.7325 24.9757L11.677 24.6944L11.639 24.5385L11.6323 24.3784L11.528 23.6364L11.4941 23.5125L11.1541 23.5473L10.9035 23.5528L10.2262 23.6378L9.81172 23.699L9.76025 23.8842L9.68168 24.1055L9.66678 24.2211L9.63698 24.338L9.60176 24.5371L9.49069 24.8601L9.43244 25.1107L9.41077 25.2917L9.37555 25.378L9.32949 25.4977L9.24687 25.5743L8.81475 25.623L8.6942 25.6578L8.46121 25.6759L8.46663 25.6801ZM11.1555 21.4102L11.2367 21.317L11.2205 21.0942L11.188 20.9703L11.1853 20.8422L11.127 20.4315V20.3188L11.0891 20.0501L11.1013 19.9192L11.0322 19.5433L10.9631 18.9419L10.8981 18.3711L10.8317 18.0105L10.7152 18.0759L10.6827 18.2903L10.6421 18.5548L10.6177 18.7191L10.5771 18.9836L10.5337 19.1187L10.4944 19.2857V19.3985L10.4484 19.5182L10.4226 19.6672L10.3928 19.7842L10.3671 19.9331L10.3238 20.2937V20.4065L10.2804 20.6543L10.2344 20.774L10.1951 21.0538L10.1802 21.1694L10.1693 21.3156L10.1395 21.4325L10.2601 21.5119L10.3834 21.4938L10.554 21.484L10.6949 21.4785L11.1555 21.4102Z" fill="#D2E9F7"/>
<path d="M17.4697 24.496L17.3627 24.5127H17.253L17.0823 24.5224L16.9577 24.5252H16.8629L16.7071 24.5308L16.5946 24.5154H16.4998L16.2885 24.4639L16.0948 24.4277L15.9919 24.3623L15.8252 24.2899L15.7399 24.2384L15.6383 24.1897L15.4162 24.0616L15.343 23.992L15.255 23.9251L15.1168 23.7205L14.9502 23.5353L14.8757 23.3362L14.8323 23.2458L14.7727 23.0453L14.7267 22.9395L14.6847 22.6401L14.6522 22.5162L14.6319 22.3742V22.2615L14.5736 21.8508L14.5425 21.5166L14.5398 21.3886L14.5235 21.1658V20.9403L14.5072 20.8303V20.7328L14.4937 20.3973L14.5235 20.1676L14.4883 20.0284L14.5005 19.8975L14.5221 19.7165L14.4951 19.64L14.5005 19.349L14.5479 19.2446L14.5167 19.0232L14.5249 18.9731L14.5154 18.9104L14.537 18.7295L14.5438 18.5513L14.5682 18.387L14.5574 18.1948L14.5438 18.1002L14.5763 17.9985L14.5452 17.7772L14.5777 17.45L14.5926 17.3345L14.5994 17.1563L14.5926 16.9962L14.6251 16.8945V16.7818L14.64 16.6662L14.6427 16.5688V16.456L14.6725 16.339L14.6901 16.1274L14.7524 15.7961L14.7998 15.4661L14.8296 15.2364L14.8838 14.9538L14.9339 14.7533L14.9949 14.518L15.0315 14.3357L15.1249 14.2257L15.2103 14.0517L15.3105 13.8748L15.4947 13.6215L15.576 13.5282L15.7616 13.4043L15.8469 13.343L16.149 13.1523L16.4037 13.066L16.596 12.9894L16.7017 12.9574L16.9319 12.9226L17.2218 12.8627L17.467 12.8265L17.8571 12.8168L18.0021 12.8432L18.1551 12.8209H18.3746L18.4694 12.8223L18.5818 12.8377H18.6915L18.7593 12.8752L18.9326 12.8808L19.1589 12.9281L19.381 13.0562L19.572 13.1885L19.614 13.2623L19.7115 13.3931L19.7684 13.4655L19.8145 13.5713L19.9134 13.7175L19.9689 13.886L20.0109 14.0725L20.0556 14.2758L20.0908 14.415L20.1396 14.6489L20.1883 14.9956L20.1951 15.1557L20.1829 15.2865L20.1856 15.5274L20.191 15.7849L20.1856 16.4142L20.1721 16.5451L20.1531 16.9669L20.1003 17.0393L19.9188 17.0825L19.7061 17.1298L18.7362 17.2593L18.2825 17.2621L18.1511 17.1048L18.1199 16.8834L18.1348 16.7678L18.1565 16.4741V16.2486L18.1985 15.888L18.1849 15.6805V15.455L18.1511 15.2183L18.0183 14.9482L17.8354 14.8786L17.6119 14.848L17.4426 14.8731L17.2625 14.9315L17.1026 15.0192L16.9888 15.2128L16.9563 15.3144L16.9265 15.4313L16.9035 15.7084L16.8561 15.9256L16.8019 16.2082L16.8154 16.3028L16.7802 16.5019L16.768 16.7456L16.7491 16.9419L16.7233 17.0908V17.2036L16.722 17.3011L16.7071 17.4166V17.6421L16.6637 17.89L16.6299 18.5401L16.6326 18.6682L16.6068 18.9299V19.0427L16.6055 19.2529L16.5933 19.3838L16.5811 19.6274L16.6285 19.9588L16.5987 20.0757V20.1885L16.6163 20.3152V20.4279L16.6014 20.5435L16.6326 20.6521V20.9904L16.6515 21.1171L16.6366 21.3454L16.6529 21.5682L16.6746 21.7255L16.703 21.8174L16.7193 21.9273L16.8141 22.1543L16.9523 22.2462L17.1934 22.2907L17.4345 22.2225L17.6648 22.1877L17.8598 22.0137L17.9099 21.9259L17.9926 21.6238L18.0386 21.3913L18.0711 21.1769V21.0795L18.0766 20.9987L18.0955 20.8024L18.1077 20.5588L18.1185 20.4126V20.2999L18.166 20.0827L18.1741 19.9198L18.2635 19.7778L18.384 19.7444L18.785 19.6998L19.1074 19.6511L19.866 19.5857L20.0529 19.5745L20.1761 19.6692L20.2534 19.7708L20.2777 19.9448L20.2601 20.0437L20.2764 20.1537V20.3639L20.2845 20.5393L20.2656 20.6228V20.7356L20.2601 20.801V21.1394L20.2439 21.2382L20.2073 21.6461L20.1883 21.8424V21.9552L20.1734 22.0707L20.1409 22.1724L20.084 22.4383L20.0339 22.6388L20.0041 22.7557L19.9567 22.8601L19.893 22.9659L19.8605 23.0676L19.8429 23.1664L19.6533 23.4852L19.4515 23.7247L19.2279 23.9196L19.1277 23.9822L18.7417 24.1368L18.5642 24.2119L18.384 24.2704L18.1917 24.347L17.9614 24.3818L17.7636 24.4277L17.6146 24.482L17.4738 24.4862L17.4697 24.496Z" fill="#D2E9F7"/>
<path d="M21.4551 23.6263L21.4375 23.3869L21.4213 23.2769L21.4511 23.1599L21.4199 23.0513L21.4375 22.8397V22.7423L21.4714 22.5279L21.4551 22.4179L21.4524 22.2898L21.4362 22.1798L21.4538 21.9682L21.4429 21.8889L21.4335 21.6007L21.4633 21.4837L21.447 21.261L21.4646 21.1621L21.4511 21.0675L21.4836 20.8531L21.4673 20.7431L21.4971 20.4006L21.512 20.1723L21.5093 19.9314V19.4804L21.5229 19.252L21.5364 19.1212L21.5486 18.8775L21.5771 18.6311L21.5608 18.4084V18.2956L21.5581 18.0547L21.5743 17.7304L21.5892 17.502L21.5865 17.374V17.2612L21.596 17.0022L21.6109 16.7739L21.6014 16.5985L21.5852 16.3757L21.6177 16.2741L21.6041 16.1794L21.619 16.0639L21.6055 15.8565L21.638 15.7548V15.5293L21.6069 15.4207L21.6258 15.2244L21.6407 15.1088L21.6272 15.0142L21.6421 14.8986L21.6285 14.8039L21.6123 14.5812L21.6299 14.4823L21.6272 14.3543L21.6299 13.9352L21.6624 13.7208L21.6339 13.5162L21.6556 13.3352L21.6272 13.1305L21.6312 12.937L21.6353 12.6307L21.661 12.4818L21.7152 12.4261L21.8534 12.4052L21.9563 12.3578L22.1731 12.3411L22.5564 12.2841L22.7731 12.2674L23.063 12.2075L23.17 12.1908L23.403 12.1727L23.6333 12.1379L23.7647 12.1824L23.827 12.2855L23.8189 12.4483L23.8256 12.7212L23.8419 12.944L23.8338 13.2196L23.8216 13.4633V13.576L23.8351 13.8962L23.8229 14.0271L23.8121 14.1733L23.8189 14.3334L23.804 14.4489L23.8202 14.5589L23.8026 14.6578L23.7864 15.0949L23.7674 15.2912L23.762 15.5822L23.808 15.688L23.9394 15.507L24.0045 15.3037L24.144 15.074L24.2158 14.9181L24.2903 14.7775L24.3973 14.648L24.4515 14.4782L24.4704 14.3946L24.5707 14.2178L24.656 14.0438L24.759 13.8837L24.8158 13.7306L24.9364 13.4702L25.0502 13.2767L25.0651 13.1611L25.1396 13.0205L25.275 12.7588L25.3848 12.5333L25.5202 12.2715L25.5988 12.1629L25.6272 12.0293L25.7261 11.8372L25.8724 11.7676L26.1515 11.7425L26.6269 11.6715L26.7827 11.6645L26.8572 11.6367L27.1484 11.5935L27.3584 11.5295L27.6699 11.5156L27.8054 11.4794L27.9964 11.4989L28.0587 11.6019L27.9625 11.8093L27.9327 11.9263L27.8325 12.1031L27.7187 12.298L27.6577 12.4205L27.5914 12.511V12.6084L27.5385 12.6962L27.4532 12.8702L27.4071 12.9899L27.353 13.1598L27.25 13.3199L27.2026 13.4243L27.124 13.5329L27.0807 13.6679L26.9777 13.828L26.9385 13.9951L26.8613 14.119L26.8003 14.2415L26.673 14.4531L26.6012 14.609L26.5267 14.7497L26.3452 15.1311L26.2598 15.3051L26.1487 15.5154L26.0174 15.8091L25.9293 15.9664L25.8724 16.1196L25.7898 16.3089L25.5676 16.7294L25.4593 17.0677L25.5121 17.2208L25.6245 17.4617L25.6774 17.6148L25.7817 17.793L25.8548 17.9754L26.0404 18.3986L26.0891 18.5197L26.1799 18.716L26.2815 18.8775L26.3628 19.0098L26.3953 19.1337L26.4589 19.2534L26.4874 19.3453L26.5687 19.4776L26.5998 19.5862L26.7014 19.7477L26.7895 19.9272L26.8355 20.0331L26.9845 20.2043L27.0157 20.3129L27.0292 20.4076L27.1064 20.5092L27.1972 20.7055L27.2107 20.8002L27.3611 20.9714L27.3963 21.1106L27.4275 21.2192L27.4871 21.3069L27.5047 21.4336L27.567 21.5366L27.6239 21.609L27.6564 21.7329L27.7268 21.9L27.8609 22.074L27.9476 22.2383L28.0777 22.4931L28.1197 22.5669L28.1251 22.7117L27.7742 22.7799L27.3909 22.8369L26.9127 22.8926L26.7773 22.9288L26.4549 22.9776H26.3452L26.0092 23.0444L25.8209 23.0402L25.7464 22.9553L25.6719 22.7562L25.4796 22.3984L25.294 21.9752L25.206 21.7956L25.1274 21.6786L25.0529 21.4809L25.0068 21.3751L24.9635 21.2846L24.8551 21.0744L24.763 20.8628L24.675 20.6832L24.5544 20.4925L24.4948 20.292L24.4664 20.2001L24.4041 20.0971L24.3025 19.9356L24.2862 19.8256L24.1846 19.6641L24.1521 19.5402L24.0857 19.4052L24.0221 19.2854L23.8256 18.8956L23.6997 18.6729L23.6536 18.6798V18.7773L23.6387 18.9082V19.0209L23.6211 19.1198L23.6374 19.4553V19.6655L23.6319 19.859V19.9718L23.6455 20.0665L23.6306 20.2948L23.617 20.4257L23.6333 20.6484L23.636 20.7765L23.6496 20.9839L23.6198 21.1009L23.6021 21.1997L23.6184 21.5352L23.6076 21.7942L23.5886 21.9905L23.571 22.0893V22.2021L23.5845 22.4095L23.5547 22.6393L23.5182 22.8216L23.5453 23.011L23.5127 23.3381L23.3529 23.4272L22.9533 23.4871L22.8178 23.5233L22.6309 23.5344L22.4182 23.5818L22.3261 23.5957L22.2774 23.5873L22.1717 23.6194L21.8805 23.6625L21.7396 23.6681L21.5879 23.7071L21.4511 23.6305L21.4551 23.6263Z" fill="#D2E9F7"/>
<path d="M29.4531 22.5292H29.3434L29.0697 22.5863L28.9668 22.5208L28.9248 22.2215L28.9573 22.1199L28.9262 22.0113L28.9411 21.783L28.9275 21.6883L28.9424 21.46L28.9546 21.2163L28.9722 21.0047V20.892L28.9912 20.6957V20.5829L28.9925 20.4854L29.002 20.1137L29.0345 20.0121L29.021 19.8046V19.6919L29.0386 19.593L29.0711 19.3786V19.2812L29.0616 19.0891L29.0508 19.0097L29.105 18.8398L29.0806 18.6658L29.0982 18.567L29.0819 18.457L29.1144 18.3554L29.0968 18.1159V17.7776L29.1266 17.6607L29.1239 17.5326L29.1077 17.3098L29.1226 17.1943V17.0968L29.1402 16.9813V16.8838L29.1564 16.6555L29.1537 16.5274L29.151 16.2865L29.1619 16.0276L29.1795 15.816L29.1524 15.6266L29.1388 15.4192L29.1537 15.3037L29.1835 15.1867L29.17 14.9793V14.8818L29.1971 14.6201L29.1876 14.4447L29.1632 14.3834L29.1808 14.1718V14.0743L29.1578 13.7875L29.1713 13.6567L29.1862 13.4284L29.212 13.2794L29.2011 13.0873L29.216 12.9717L29.1984 12.845L29.2133 12.7295V12.6167L29.1998 12.522L29.2147 12.4065L29.2404 12.1447V12.032L29.2377 11.9039L29.2526 11.6756L29.2499 11.5475L29.2824 11.3331L29.3962 11.2523L30.194 11.1326L30.3918 11.0867L30.5936 11.0728L30.683 11.0435L31.7125 10.8904H31.8222L32.0498 10.8403L32.2652 10.8082L32.4995 10.8055L32.6228 10.7874H32.8273H33.1565L33.4085 10.7985L33.5209 10.8138L33.6401 10.8765L33.7539 10.9071L33.9692 10.9878L34.125 11.0936L34.1982 11.1632L34.3079 11.276L34.4163 11.3721L34.4799 11.4918L34.6005 11.6825L34.6465 11.7883L34.7319 11.9526L34.7725 12.1239L34.8037 12.2325L34.8741 12.3995L34.8809 12.5596L34.9296 12.7935L34.9459 12.9035L34.9852 13.0747L34.9947 13.2502L34.9879 13.4284V13.5411L35.0069 13.8934V14.1189L34.9771 14.2358L34.9798 14.3639L34.95 14.4809L34.9473 14.5783L34.9296 14.6772L34.9147 14.9055L34.8863 15.0391L34.8402 15.2716L34.7603 15.5904L34.7075 15.7756L34.6262 15.9817L34.5219 16.2392L34.4434 16.3478L34.3621 16.5525L34.2415 16.7L34.1562 16.8741L34.0952 16.9966L33.9178 17.1845L33.8541 17.2903L33.655 17.4323L33.5073 17.5033L33.3218 17.6272L33.0874 17.7428L32.9073 17.8013L32.7095 17.8472L32.4995 17.9112L32.0742 18.0073L31.7803 18.0352L31.443 18.0853L31.21 18.1034L31.214 18.1354V18.2482L31.1856 18.3818L31.1991 18.5893L31.1802 18.6728L31.1937 18.8802V18.9777L31.1924 19.0904L31.1748 19.1893V19.3021L31.1883 19.3967L31.1734 19.625L31.1477 19.774L31.1436 19.9675L31.1287 20.0831L31.1097 20.2794V20.3922L31.0799 20.5091L31.1016 20.6664L31.0894 20.9101L31.1206 21.1314L31.0718 21.2358L31.0894 21.3625V21.4753L31.0718 21.5741V21.6869L31.0434 21.8205L31.0488 21.9653L31.0515 22.0934L31.0325 22.2897L30.9269 22.3217L29.6983 22.5055L29.4504 22.5264L29.4531 22.5292ZM31.6516 16.0123L31.8155 15.9552L32.1026 15.88L32.2029 15.816L32.4223 15.5904L32.5686 15.4081L32.6512 15.2187L32.6987 15.1143L32.7447 14.8818L32.7555 14.7356L32.7962 14.5839L32.8192 14.3068V13.8558L32.7908 13.4409L32.7528 13.1722L32.6648 12.9926L32.5524 12.8645L32.3654 12.7629L32.2232 12.7517L31.806 12.7977L31.4552 12.8659L31.3522 12.9132L31.3021 13.1137L31.2831 13.1973L31.2899 13.3574L31.2967 13.6302L31.2818 13.7458L31.2628 13.9421V14.2651L31.2533 14.428L31.2425 14.6869L31.2533 14.879L31.2709 15.0057L31.2601 15.1519L31.2398 15.5584L31.2601 15.7004L31.2452 15.9288L31.2493 16.0735L31.6489 16.0137L31.6516 16.0123Z" fill="#D2E9F7"/>
<path d="M38.9092 21.3246L38.7115 21.3705H38.6017L38.4609 21.3761L38.0924 21.319L37.9678 21.3218L37.728 21.2926L37.6115 21.2452L37.3772 21.1353L37.067 20.9404L36.8164 20.7204L36.7595 20.648L36.6715 20.5812L36.6119 20.4935L36.5197 20.3946L36.368 20.2081L36.3545 20.1134L36.2922 20.0104L36.2637 19.9185L36.2217 19.8447L36.1784 19.7542L36.1472 19.6456L36.1039 19.5551L36.0578 19.3365L36.0294 19.2447L35.9386 18.9356L35.9535 18.82L35.9115 18.5207L35.9359 18.3564L35.9021 18.2325L35.8858 18.1225L35.8668 17.7703L35.8966 17.5406L35.879 17.4139V17.1884L35.8628 17.0784L35.8926 16.8487L35.8506 16.7749V16.5647L35.8668 16.4491L35.8723 16.1581L35.8912 15.9618L35.8628 15.7572L35.8817 15.5609L35.8655 15.4509L35.898 15.3493L35.9129 15.2337L35.8993 15.1391L35.9143 15.0235L35.8858 14.9316L35.9562 14.7604L35.9711 14.6448L35.94 14.4235L35.9441 14.2299L35.9739 14.113L35.9766 14.0155V13.79L35.982 13.3863L36.0429 13.2638V13.0535L36.108 12.835L36.1378 12.718L36.173 12.5189L36.219 12.2864L36.284 12.0832L36.3301 11.9634L36.4398 11.7379V11.6251L36.4872 11.5207L36.5807 11.2966L36.6769 11.0891L36.7731 10.9945L36.8367 10.8887L37.0182 10.62L37.1984 10.4487L37.3149 10.3833L37.4111 10.2886L37.579 10.1508L37.7497 10.0283L37.9705 9.93083L38.0599 9.90159L38.2807 9.80414L38.4324 9.76516L38.702 9.67606L38.9146 9.62872L39.0962 9.58556L39.3752 9.5605L39.47 9.56329L39.6407 9.55354L39.8913 9.54797L40.0213 9.57721L40.1459 9.57442L40.2421 9.59252L40.4887 9.66909L40.7921 9.81667L40.9262 9.87792L41.0169 9.96146L41.2052 10.0784L41.3962 10.2107L41.487 10.2942L41.5493 10.3972L41.6698 10.5879L41.7294 10.6757L41.7728 10.7661L41.8188 10.872L41.8988 11.1017L41.9719 11.3968L42.0044 11.5207L42.0207 11.6307L42.0342 11.8381L42.0315 11.9356L42.0762 12.1389L42.0925 12.2488L42.106 12.4563L42.0911 12.5718L42.0884 12.6693L42.1196 12.7779L42.1412 12.9352L42.1385 13.0327V13.2582L42.1575 13.4976L42.1778 13.7524L42.1629 13.868L42.1683 14.1255L42.2063 14.2815L42.1548 14.4666L42.1968 14.6532L42.1643 14.8676V15.0778L42.1453 15.2894L42.1561 15.4815L42.1385 15.6931L42.106 15.7948L42.1006 16.0858L42.1209 16.2278L42.106 16.3433V16.5688L42.0735 16.6705L41.9977 17.2455L42.0261 17.3373L41.976 17.5378L41.9435 17.6394L41.953 17.8149L41.9015 18L41.8825 18.1963L41.8988 18.3063L41.8771 18.4873L41.8161 18.6098L41.8229 18.7699L41.7471 19.0066L41.6644 19.3087L41.6035 19.4312L41.4938 19.6567L41.445 19.7612L41.3813 19.867L41.3637 19.9658L41.2066 20.183L41.1253 20.2763L41.0616 20.3821L40.8977 20.5519L40.7311 20.7051L40.6769 20.7622L40.3437 20.9571L40.2381 20.9891L40.1202 21.0392L39.9116 21.1186L39.8059 21.1506L39.6434 21.223L39.3129 21.3204L38.9065 21.333L38.9092 21.3246ZM39.088 19.1542L39.2939 19.0595L39.4226 18.976L39.615 18.7866L39.6908 18.5499L39.7518 18.3147L39.7667 18.1991L39.7491 18.0724L39.7612 17.8288L39.7762 17.7132V17.4877L39.8032 17.354L39.787 17.1313L39.8168 17.0143L39.8344 16.8027L39.8317 16.6747L39.8642 16.573L39.8466 16.4463L39.8249 16.4018L39.8507 16.2528L39.8628 16.0092L39.8425 15.6416L39.8683 15.4927L39.8967 15.359L39.8845 15.0541L39.917 14.9525L39.8642 14.6866L39.8926 14.4402L39.8967 14.2467L39.9103 14.1158L39.9252 14.0002L39.894 13.8916L39.8805 13.6842L39.894 13.5533L39.9089 13.325L39.9197 13.1788L39.8913 12.9742L39.8818 12.686L39.8683 12.4786V12.253L39.7612 11.9467L39.6867 11.8618L39.5594 11.7351L39.298 11.6613L39.0081 11.7212L38.8903 11.7713L38.6586 11.9022L38.5245 12.0665L38.4419 12.2558L38.4067 12.4549L38.3606 12.5746L38.297 12.7932L38.282 12.9087L38.2685 13.0396L38.2238 13.3849L38.2279 13.4169L38.2306 13.545L38.2157 13.7733V13.8708L38.1832 14.1005L38.1683 14.3288L38.1574 14.5877V14.7005L38.1425 14.8161L38.1452 15.0569L38.1168 15.1906L38.0911 15.4523L38.0762 15.5679V15.7934L38.0924 15.9034V16.0161L38.1263 16.14L38.0965 16.257L38.0504 16.4895L38.0829 16.6134L38.068 16.7289L38.0924 16.7902L38.0816 16.9364L38.0992 17.0631L38.0843 17.1786L38.1019 17.3053L38.0897 17.549L38.106 17.6589L38.0762 17.7759L38.1385 17.8789L38.1493 18.071L38.11 18.2381L38.1723 18.3411L38.2346 18.7824L38.297 18.8855L38.3362 18.9439L38.4487 19.072L38.5367 19.1402L38.6668 19.1695L38.7941 19.182H38.8889L39.088 19.1542Z" fill="#D2E9F7"/>
<path d="M44.4998 20.2805L44.3928 20.2972L44.237 20.1914L44.2343 19.9506L44.2032 19.6164L44.2641 19.2684L44.279 19.1528L44.2614 18.9134L44.279 18.8145L44.2628 18.5918L44.2465 18.4818L44.2926 18.2493V18.1365L44.2587 18.0126L44.2885 17.6701L44.2709 17.5434L44.2899 17.3471L44.3021 17.1035L44.317 16.988V16.8752V16.665L44.3346 16.5661L44.3183 16.3434L44.3725 16.1735L44.3197 16.0204V15.9076L44.3346 15.7921L44.3806 15.5596L44.4091 15.3131L44.424 15.1976L44.3779 15.0918L44.428 14.8913L44.4456 14.7925L44.4145 14.5711L44.4389 14.4068L44.4186 14.2648L44.4335 14.1493L44.4809 14.0448L44.4646 13.9349L44.4822 13.836L44.4944 13.5924L44.4633 13.4838L44.5161 13.2986L44.4944 13.1413L44.5134 13.0578L44.4958 12.9311V12.8183L44.5107 12.7028L44.5513 12.4382V12.3408L44.5405 12.2461V12.1334L44.5269 12.0387L44.5445 11.8271L44.5594 11.7115L44.5567 11.4707L44.5364 11.2159L43.7074 11.3398L43.4907 11.3565L43.385 11.3885L43.2468 11.4094L43.0911 11.4164L42.9678 11.4345L42.8229 11.408L42.7565 11.273L42.7606 11.0795L42.789 10.9458L42.7714 10.8191L42.7402 10.7105L42.77 10.4808L42.7876 10.382L42.7714 10.1592L42.8039 9.94481L42.8364 9.84318L42.8053 9.62182V9.52437L42.8594 9.33921L42.9827 9.20834L43.0884 9.17632L43.488 9.11645L43.5665 9.12063L43.6735 9.10392L43.7792 9.0719L44.9157 8.90205H45.0254L45.3627 8.85193L46.3434 8.68905L46.5764 8.67095L46.8961 8.60691L47.037 8.60134L47.9892 8.45933L48.206 8.44263L48.3482 8.45376L48.3969 8.57489L48.4105 8.66956V8.78232L48.3983 8.91319L48.4146 9.02317L48.4119 9.12063L48.3969 9.23618L48.4105 9.33085L48.4064 9.52437L48.3915 9.63992V9.73737L48.401 9.9295L48.3685 10.1439L48.3536 10.2594L48.3699 10.4822L48.3279 10.634L48.1762 10.6729L48.0353 10.6785L47.8511 10.7063L47.7156 10.7425L47.5625 10.7648L46.915 10.8456L46.7796 10.8818L46.7647 10.9973L46.7931 11.0892L46.7633 11.2061L46.7769 11.3008L46.7593 11.3997V11.6099L46.7579 11.7227L46.7362 12.0164L46.6929 12.1515L46.7349 12.2252L46.6888 12.4577L46.6563 12.6721L46.6699 12.7668L46.6807 12.9589V13.0564L46.6942 13.1664L46.6441 13.3668L46.6468 13.6077L46.6319 13.7232L46.617 13.9516L46.5845 14.0532L46.6008 14.1632L46.6143 14.3706L46.5954 14.5669L46.5493 14.6867L46.5656 14.9094L46.548 15.0082L46.5615 15.1029L46.5466 15.3312L46.5344 15.5749L46.5236 15.7211L46.5452 15.8784V15.9758L46.5263 16.0747V16.1874L46.4924 16.3865V16.4993L46.4911 16.5968L46.5222 16.7053L46.5073 16.9337L46.4965 17.1926L46.464 17.407V17.5198L46.4477 17.7314L46.4179 18.0739L46.4057 18.2047L46.3908 18.4331L46.4233 18.557L46.3962 18.9162L46.3664 19.3714V19.5969L46.3515 19.8253L46.3339 19.9241L46.1605 20.0299L44.8249 20.229L44.6475 20.3042L44.5025 20.2777L44.4998 20.2805Z" fill="#D2E9F7"/>
<path d="M50.8563 19.3313L50.7493 19.348L50.5935 19.2422L50.5908 19.0013L50.5596 18.6672L50.6206 18.3192L50.6355 18.2036L50.6179 17.9642L50.6355 17.8653L50.6192 17.6426L50.603 17.5326L50.649 17.3001V17.1873L50.6152 17.0634L50.645 16.7209L50.6273 16.5942L50.6463 16.3979L50.6585 16.1543L50.6734 16.0387V15.926V15.7157L50.691 15.6169L50.6748 15.3942L50.7289 15.2243L50.6761 15.0712V14.9584L50.691 14.8428L50.7371 14.6103L50.7655 14.3639L50.7804 14.2484L50.7344 14.1426L50.7845 13.9421L50.8021 13.8432L50.7709 13.6219L50.7953 13.4576L50.775 13.3156L50.7899 13.2L50.8373 13.0956L50.8211 12.9856L50.8387 12.8868L50.8509 12.6432L50.8197 12.5346L50.8725 12.3494L50.8509 12.1921L50.8698 12.1086L50.8522 11.9819V11.8691L50.8671 11.7535L50.9077 11.489V11.3916L50.8969 11.2969V11.1841L50.8834 11.0895L50.901 10.8778L50.9159 10.7623L50.9132 10.5214L50.8928 10.2667L50.0638 10.3906L49.8471 10.4073L49.7415 10.4393L49.6033 10.4602L49.4475 10.4672L49.3242 10.4852L49.1793 10.4588L49.1129 10.3238L49.117 10.1302L49.1454 9.99659L49.1278 9.8699L49.0967 9.7613L49.1265 9.53159L49.1441 9.43274L49.1278 9.20999L49.1603 8.99559L49.1929 8.89396L49.1617 8.6726V8.57515L49.2159 8.38999L49.3391 8.25912L49.4448 8.2271L49.8444 8.16723L49.923 8.17141L50.03 8.1547L50.1356 8.12268L51.2721 7.95283H51.3819L51.7191 7.90272L52.6999 7.73983L52.9328 7.72173L53.2525 7.65769L53.3934 7.65212L54.3457 7.51011L54.5624 7.49341L54.7046 7.50455L54.7534 7.62567L54.7669 7.72034V7.83311L54.7547 7.96397L54.771 8.07396L54.7683 8.17141L54.7534 8.28696L54.7669 8.38163L54.7629 8.57515L54.748 8.6907V8.78815L54.7575 8.98028L54.7249 9.19468L54.71 9.31023L54.7263 9.53298L54.6843 9.68473L54.5326 9.72371L54.3917 9.72928L54.2075 9.75713L54.072 9.79332L53.919 9.8156L53.2715 9.89635L53.136 9.93254L53.1211 10.0481L53.1496 10.14L53.1198 10.2569L53.1333 10.3516L53.1157 10.4504V10.6607L53.1144 10.7734L53.0927 11.0672L53.0493 11.2022L53.0913 11.276L53.0453 11.5085L53.0128 11.7229L53.0263 11.8176L53.0371 12.0097V12.1072L53.0507 12.2171L53.0006 12.4176L53.0033 12.6585L52.9884 12.774L52.9735 13.0023L52.941 13.104L52.9572 13.214L52.9708 13.4214L52.9518 13.6177L52.9057 13.7374L52.922 13.9602L52.9044 14.059L52.9179 14.1537L52.903 14.382L52.8908 14.6257L52.88 14.7718L52.9017 14.9292V15.0266L52.8827 15.1255V15.2382L52.8489 15.4373V15.5501L52.8475 15.6475L52.8787 15.7561L52.8638 15.9844L52.8529 16.2434L52.8204 16.4578V16.5706L52.8042 16.7822L52.7744 17.1247L52.7622 17.2555L52.7473 17.4838L52.7798 17.6078L52.7527 17.9669L52.7229 18.4222V18.6477L52.708 18.876L52.6904 18.9749L52.517 19.0807L51.1814 19.2798L51.0039 19.355L50.859 19.3285L50.8563 19.3313Z" fill="#D2E9F7"/>
<path d="M42.8096 4.17656L42.1161 3.90091L41.3887 4.11948L41.2153 4.5803L41.088 4.83647L41.0731 4.95898L41.0175 5.04112L40.9024 5.29868L40.878 5.41145L40.8157 5.51308L40.7561 5.64116V5.57155L40.7818 5.44903L40.8103 5.31399L40.8658 5.11769L40.8834 4.94784L40.9539 4.72648L40.9471 4.53714L41.0094 4.34223L40.9877 4.12087L41.0162 3.98722L41.008 3.65588L40.8983 3.16582L40.8252 3.00015L40.7696 2.75791L40.603 2.5268L40.5123 2.3667L40.2901 2.13838L40.0206 1.92955L39.7821 1.85715L39.5668 1.76109L39.2335 1.71654L39.0087 1.73603L38.5549 1.77641L38.3504 1.88221L38.1756 1.95879L37.8884 2.14673L37.7923 2.2414L37.5688 2.39315L37.4997 2.51149L37.1434 2.21217L36.6815 2.29013L36.5623 2.31937L36.1289 2.33746L35.9622 2.54629L35.6615 2.70779L35.5924 3.12823L35.5477 3.22012L35.4827 3.37465L35.4272 3.48185L35.3256 3.66841L35.2633 3.80902L35.2186 3.89116L35.1102 4.03456L34.9761 4.15986L34.9179 4.01924L34.7553 3.85218L34.7133 3.78118L34.5345 3.48325L34.2717 3.3134L34.1837 3.23683L33.9927 3.08925L33.7218 2.9556L33.4603 2.8846L33.2233 2.84283L32.867 2.80803L32.5934 2.81777L32.2168 2.88042L32.0245 2.92637L31.8416 2.9737L31.5274 3.09343L31.3797 3.21594L31.2172 3.30226L31.0221 3.45262L30.911 3.57235L30.8148 3.64613L30.609 3.82434L30.4058 4.07632L30.357 4.17239L30.2337 4.30047L30.0658 4.60814L30.0224 4.74319L29.9655 4.83786L29.8179 5.1344L29.7894 5.30146L29.7122 5.48662L29.6878 5.72191L29.6594 5.83885L29.6215 6.04351L29.593 6.24398L29.5754 6.34979L29.5077 6.61152V6.7229L29.421 6.9011L29.3844 7.04728L29.3736 7.06538L29.3966 6.98463L29.3763 6.76049L29.3885 6.67556L29.4305 6.49179L29.4521 6.34561L29.5009 6.15349L29.5212 5.92378L29.5524 5.70381L29.5375 5.55484L29.5456 5.52143L29.6228 5.2764L29.635 4.97986L29.6323 4.87823L29.6607 4.76407L29.738 4.23225L29.3654 3.84104L29.9046 3.36073L29.8666 2.94446L29.8978 2.80664L29.9032 2.65906L29.9493 2.51288L29.9737 2.31519L30.0265 2.07991L30.0143 1.58428L29.4941 0.91185L28.8615 1.09284L28.7694 1.11511L28.611 1.12625L28.149 1.28635L27.7508 1.73882L27.6302 2.21495L27.6627 2.41543L27.5625 2.64236L27.5801 2.88599L27.5733 2.94029L27.4298 3.49995L27.7847 3.8299L27.3634 4.38679L27.3485 4.6527L27.2794 4.82672L27.2496 5.12187L27.2374 5.33627V5.38221L27.1602 5.5451L27.167 5.83328L27.1521 5.93352L27.1101 6.10337L27.0965 6.29549L27.0559 6.4375L27.0166 6.7591L27.0247 6.80782L26.9421 7.00552L26.892 7.23105L26.8744 7.2937L26.7972 7.46216L26.7416 7.61252L26.6563 7.82691L26.6306 7.91602L26.5764 7.99537L26.4748 8.18471L26.38 8.36709L26.3461 8.46176L26.2702 8.55504L26.189 8.69426L26.1348 8.76804L26.0887 8.81398L26.0738 8.82791L26.063 8.83208L26.0494 8.77779V8.68451L26.0373 8.54808L26.0481 8.39911L26.0549 8.22648L26.0847 7.98841L26.0589 7.82274L26.063 7.79211L26.1185 7.51785L26.105 7.348L26.1294 7.17536L26.1267 7.00273L26.1741 6.62962V6.5085L26.2161 6.33308L26.2106 6.09362L26.2201 5.96276L26.2242 5.88479L26.3014 5.63698L26.2824 5.39335L26.2865 5.27919L26.2973 5.17199L26.3447 4.98404L26.3637 4.64156L26.3949 4.50373L26.4382 4.26984L26.4477 4.01646L26.445 3.92457L26.5114 3.69208L26.487 3.53615L26.4992 3.48464L26.5574 3.19784L26.5547 3.00572L26.571 2.86789L26.5791 2.75234L26.64 2.49061L26.6251 2.28038V2.23583L26.6902 2.05346L26.6834 1.84184L26.7416 1.63719L26.6942 1.09144L26.1578 0.55127L25.6241 0.597212L25.4412 0.657077L25.3424 0.673783L24.9143 0.712765L24.4687 1.29749L24.4009 1.65946L24.3765 1.89614L24.3725 2.07295L24.3454 2.25811L24.34 2.34582L24.2628 2.54908L24.2695 2.79689L24.2452 2.94586L24.2275 3.18392L24.2235 3.27859L24.1815 3.39832L24.1327 3.69347L24.1287 3.93571L24.1219 4.04987L24.0921 4.23225L24.0812 4.4369L24.0772 4.56916L23.9715 4.98125L23.9932 5.20679L23.9742 5.34184L23.962 5.51029L23.9431 5.70241L23.9377 5.85138L23.9173 5.9558L23.8577 6.21196L23.8347 6.63658L23.8415 6.83149L23.8374 6.93173L23.8049 7.10575L23.8022 7.22827L23.7345 7.4009L23.748 7.73642L23.6735 7.9007L23.6437 8.02182L23.5787 8.14155L23.511 8.30444L23.3999 8.5077L23.3538 8.67059L23.2956 8.80424L23.2671 8.87107L23.1926 8.9546L23.0707 9.13698L22.9976 9.23443V9.2219L22.9637 9.07015L22.984 8.94346L22.9718 8.77779L22.9854 8.62465L22.9922 8.43948L22.9976 8.3295L23.0314 8.17218L23.0436 7.93968L23.0477 7.84641L23.1005 7.65846L23.0911 7.42457L23.0978 7.38698L23.1601 7.21156L23.2048 6.90389L23.194 6.77859L23.2211 6.6867L23.2482 6.41801L23.2522 6.25094L23.259 6.21335L23.3525 5.94048L23.3335 5.70241L23.3701 5.28475L23.0938 4.94367L23.4703 4.45779L23.5354 4.09442L23.5868 3.86749L23.5977 3.67955L23.6315 3.46932L23.6288 3.36491L23.6735 3.24657L23.7683 2.59084L23.106 2.02561L22.5397 2.12028L22.3108 2.19268L22.2133 2.22887L21.8611 2.30962L21.3057 2.87764L21.3436 3.30087L21.3342 3.37744L21.3233 3.44148L21.2082 3.75612L21.2448 3.98444L21.0754 4.46475L21.4452 4.87545L21.0551 5.4198L21.0145 5.74001L20.9576 5.92238L20.9332 6.16045L20.9088 6.33447L20.8777 6.52521L20.8519 6.741L20.8492 6.8649L20.7734 7.10297L20.8099 7.33129L20.7896 7.42457L20.7476 7.82831L20.7368 7.97866L20.7151 8.12485L20.6758 8.30722L20.6731 8.35177L20.6203 8.46176L20.5133 8.65667L20.4158 8.91562L20.3778 9.06876L20.3684 9.09103L20.3805 9.05762L20.386 8.90587L20.4618 8.73324L20.4767 8.46176L20.4984 8.28913L20.5052 8.11788L20.5228 7.99398L20.5797 7.76427L20.5539 7.50392L20.5607 7.41065L20.5715 7.1517L20.5079 6.65329L20.3995 6.36093L20.1936 5.98642L20.0162 5.7233L19.7967 5.53674L19.5881 5.37525L19.1425 5.2235L18.877 5.17059L18.625 5.1344L18.0927 5.24438L17.9125 5.34462L17.7093 5.42537L17.5224 5.55902L17.3206 5.68432L17.177 5.84442L16.9955 5.98364L16.8641 6.20778L16.8383 6.24677L16.7029 6.09919L16.5512 5.98225L16.3304 5.76924L15.8901 5.67179L15.6585 5.66622L15.179 5.71077L14.9013 5.8305L14.7116 5.94187L14.5667 6.02819L14.2687 6.24537L14.1969 6.36789L13.9206 6.11868L13.4803 6.19247L13.2948 6.21057L12.8857 6.27879L12.398 6.85098L12.3574 7.24915L12.3438 7.44127L12.3411 7.54012L12.2842 7.70579L12.249 8.10814L12.2165 8.32811L12.2301 8.46593L12.1921 8.60098L12.1989 8.84044L12.1881 8.94068L12.1556 9.10356L12.1258 9.27898L12.0621 9.69525L12.0513 9.9542L12.0567 10.0349L12.0255 10.1923L12.0201 10.3426L11.9646 10.5389V10.7408L11.9429 10.9329L11.9456 11.0359L11.8833 11.2322L11.8995 11.423L11.8575 11.6053V11.7501L11.8264 11.8782L11.7912 12.1692L11.802 12.2764L11.6191 12.7386L12.3425 13.3456L12.9128 13.3637L13.1065 13.276L13.1485 13.269L13.5521 13.2732L14.075 12.6258L14.0912 12.3335L14.1427 12.1887L14.1657 11.9673L14.2186 11.7348L14.2118 11.5552L14.2484 11.409L14.2565 11.2086L14.2741 11.1111L14.3662 10.7505L14.396 10.6113L14.4827 10.3371L14.4692 10.1672L14.4963 10.0614L14.5193 9.94167L14.583 9.78992L14.6236 9.61172L14.7157 9.4001L14.7374 9.21912L14.7875 9.09103L14.7997 9.02838L14.9216 8.87663L14.9541 8.6859L15.0273 8.56617L15.0692 8.46176L15.0747 8.49517L15.0665 8.63996L15.0774 8.7583L15.0286 8.95181L15.0543 9.1147L15.0354 9.18292L15.011 9.42516L14.9975 9.60197L14.9934 9.69525L14.9365 9.85674L14.927 10.1129L14.9108 10.2452L14.885 10.4234L14.8471 10.6503L14.8688 10.8772L14.8647 10.9594L14.8525 11.0457L14.7902 11.2907V11.4494L14.7645 11.5705L14.7076 11.8337L14.755 12.3585L15.2481 12.8806L15.9877 12.8347L16.5444 12.6773L17.0266 12.2082L17.1052 11.7905L17.1241 11.6095L17.1607 11.4132L17.1648 11.2768L17.2122 11.1404L17.242 10.8536L17.2461 10.7478L17.2921 10.603L17.3165 10.4081L17.3653 10.2716L17.4072 10.0656L17.4804 9.83865L17.4736 9.62703L17.479 9.60336L17.5468 9.44187L17.5942 9.25671L17.6565 9.12305L17.8068 8.64692L17.8096 8.60098L17.8637 8.52719L17.9829 8.18889L18.0967 8.01765L18.1089 7.96753L18.2105 7.87982L18.2173 7.86311L18.1875 8.07194V8.1694L18.1347 8.32811L18.1198 8.53276L18.1035 8.62047L18.0358 8.83348L18.0195 9.05344L18.0073 9.15925L17.9626 9.33745L17.9382 9.58109L17.9328 9.64931L17.8231 9.8832L17.8692 10.17L17.8488 10.3301L17.857 10.6322L17.9504 11.0345L18.0371 11.3422L18.1821 11.5692L18.35 11.8504L18.5735 12.0049L18.728 12.1386L18.9935 12.2764L19.2901 12.353L19.5854 12.4142L20.0324 12.3015L20.2979 12.2374L20.5593 12.0843L20.7178 11.9715L20.9413 11.7891L21.0673 11.6402L21.2136 11.4884L21.2881 11.3868L21.3301 11.4452L21.6037 11.6374L21.8421 11.7613L22.1415 11.8351L22.2946 11.8532L22.5817 11.9047L23.1249 11.7919L23.2956 11.7042L23.4934 11.6179L23.7453 11.4773L23.8821 11.3283L24.0203 11.2295L24.2032 11.0318L24.3671 10.8104L24.4957 10.958L24.7856 11.1125L24.894 11.1654L24.8087 11.2573L24.6705 11.3896L24.4876 11.6346L24.4267 11.7794L24.3305 11.8935L24.1679 12.2639L24.1368 12.5715L24.1287 12.7302L24.0989 12.9739L24.172 13.4375L24.2804 13.8092L24.4104 13.9582L24.4917 14.1879L24.7802 14.4343L24.8994 14.5262L25.1012 14.703L25.3667 14.7837L25.62 14.8896L25.9302 14.8784L26.0792 14.8826L26.5479 14.8408L26.7606 14.7489L26.9733 14.6793L27.1819 14.5415L27.3837 14.4051L27.5517 14.238L27.6939 14.0904L27.8375 13.9415L28.0366 13.6435L28.0827 13.482L28.1775 13.3108L28.2208 13.1758L28.3333 12.9906L28.3834 12.7595L28.4321 12.6175L28.489 12.456L28.5595 12.2402L28.5933 12.0341L28.6069 11.9799L28.7125 11.7487L28.7491 11.455L28.8196 11.4146L29.0133 11.2434L29.207 11.0443L29.2354 11.0011L29.3912 10.8939L29.5578 10.6712L29.6513 10.5445L29.7718 10.4011L29.849 10.2716L29.994 10.1268L30.1362 9.83169L30.1416 9.81637L30.3421 9.64374L30.3746 9.4725L30.567 9.63538L30.762 9.80523L30.9232 9.87067L31.0654 10.0071L31.3485 10.0837L31.5152 10.1616L31.7292 10.2006L31.9391 10.2493L32.2697 10.2563L33.0309 10.1282L33.2571 10.0391L33.4671 9.95977L33.6432 9.82333L33.9101 9.66184L34.1132 9.49756L34.288 9.34302L34.5616 9.01029L34.632 8.90448L34.7946 8.71932L34.9124 8.47429L34.9924 8.31558L35.0614 8.12206L35.0709 8.22508L35.0411 8.35595L34.9571 8.93093L35.7049 9.55185L36.1505 9.43908L36.3049 9.41263L36.4011 9.3834L36.7818 9.41959L37.3006 8.73045L37.3683 8.2585L37.4171 8.10396L37.4753 7.81438L37.4807 7.6863L37.5308 7.54569L37.5498 7.36192L37.6311 7.12385L37.6243 6.95261L37.6907 6.80225L37.6974 6.63658L37.7516 6.52381L37.8112 6.22867L37.8261 6.13817L37.8952 5.95023L37.9372 5.75671L37.9562 5.68292L38.0618 5.48941L38.0889 5.32234L38.1716 5.18591L38.2054 5.03694L38.2731 4.94645L38.3598 4.71813L38.3788 4.68054L38.4939 4.53993L38.601 4.31996L38.6402 4.30047L38.6375 4.32135V4.48842L38.628 4.59283L38.5888 4.77242L38.5806 4.97569L38.5684 5.05783L38.5481 5.13718L38.4574 5.34184L38.4086 5.63698L38.3923 5.81658L38.3856 5.93352L38.3476 6.09919L38.3043 6.3303L38.2921 6.55305L38.2853 6.72012L38.2704 6.98602L38.3192 7.19764L38.3476 7.67099L38.4818 7.9007L38.54 8.05941L38.7012 8.35317L38.9301 8.56478L39.1617 8.76387L39.5397 8.89195L39.709 8.91701L40.0056 8.96991L40.4797 8.87107L40.7561 8.78614L41.1367 8.57453L41.3778 8.3657L41.5187 8.19446L41.5824 8.12067L41.795 7.91602L41.9156 7.65567L41.9508 7.58328L42.0782 7.44545L42.1811 7.1865L42.2624 7.05007L42.345 6.85377L42.4154 6.70202L42.4818 6.5433L42.5848 6.3303L42.6349 6.13261L42.6552 6.0797L42.7785 5.87366L42.8205 5.67596L42.8895 5.52421L43.0982 4.93114L42.8218 4.17656H42.8096ZM33.123 6.4556L33.0838 6.59203L33.0865 6.73682L33.0621 6.80782L32.9469 7.17119L32.9307 7.22688L32.8548 7.32851L32.783 7.51088L32.7668 7.53873L32.6801 7.62226L32.5975 7.7044L32.5433 7.75452L32.485 7.78376L32.3983 7.82274L32.3103 7.83805L32.294 7.83248L32.1911 7.81021L32.0841 7.68769L32.0123 7.61391L31.9879 7.51228L31.908 7.34104L31.8863 7.26725L31.8525 7.05424L31.8728 6.88579L31.8389 6.67L31.847 6.59621L31.8714 6.42358L31.8809 6.23702L31.8904 6.134L31.9473 5.9558L32.0258 5.83885L32.1586 5.58965L32.1681 5.55902L32.2114 5.51586L32.2724 5.42537L32.3726 5.35576L32.4566 5.27919L32.527 5.23881L32.5365 5.23464L32.7099 5.21236L32.7424 5.21654L32.7695 5.22211L32.7871 5.2597L32.9632 5.46992L32.974 5.48106L32.9768 5.49358L33.0662 5.73722L33.1 5.80405L33.1258 6.01288L33.1298 6.11451L33.1041 6.32612L33.1244 6.4542L33.123 6.4556Z" fill="#074658"/>
<path d="M21.8438 4.3015L21.9724 4.4435L22.1797 4.4087L22.5278 4.37668L22.689 4.34883L22.8367 4.15949L22.8746 3.95066L22.9152 3.76689L22.9247 3.59983L22.9545 3.41745L22.9504 3.24064L23.0168 3.06522L23.0453 2.87031L22.9084 2.75476L22.6904 2.79096L22.521 2.84386L22.3991 2.8898L22.1932 2.93714L22.0009 3.13483L22.0171 3.30886L21.9955 3.47731L21.9711 3.62071L21.8979 3.82397L21.9223 3.98407L21.9006 4.14L21.8438 4.3015Z" fill="#D2E9F7"/>
<path d="M28.4847 3.37639L28.6527 3.32209L28.8179 3.3193L28.975 3.26779L29.2026 3.06453L29.1864 2.89051L29.2284 2.70674L29.2351 2.52714L29.2907 2.35312L29.311 2.18605L29.353 2.00089L29.3476 1.82408L29.2446 1.69043L29.0292 1.75169L28.8707 1.79067L28.7421 1.79902L28.5294 1.87281L28.3601 2.06632L28.3154 2.23896L28.3397 2.38653L28.3221 2.58005L28.2449 2.75686L28.2544 2.89468L28.2341 3.06314L28.1826 3.26223L28.3221 3.39031L28.4847 3.37639Z" fill="#D2E9F7"/>
<path d="M42.2865 4.70776L42.0847 4.62701L41.8937 4.68409L41.8273 4.85951L41.7379 5.0391L41.7176 5.20756L41.6025 5.3788L41.5415 5.51524L41.5077 5.67256L41.4047 5.8424L41.3343 5.99415L41.2679 6.16957L41.1649 6.33942L41.1121 6.4494L40.9875 6.63457L40.9225 6.74734L40.825 6.8782L40.7139 6.99793L40.5974 7.08146L40.4579 7.16778L40.1544 7.19284L39.9702 7.07172L39.9242 6.71253L39.8971 6.5399L39.9363 6.3436L39.9458 6.17792L40.0027 6.01643L40.0542 5.81734L40.084 5.63497V5.49575L40.1246 5.29945L40.1585 5.14213L40.2046 4.98202L40.2235 4.80104L40.2791 4.62701L40.2723 4.43767L40.3278 4.26365L40.3102 4.07709L40.3441 3.91977L40.34 3.74296L40.2601 3.38935L40.1869 3.22367L40.1477 3.05243L40.042 2.90486L39.977 2.78931L39.8497 2.65844L39.7156 2.55403L39.5544 2.5053L39.3891 2.43151L39.2198 2.40924L39.0681 2.42177L38.7416 2.451L38.6319 2.50669L38.4883 2.56934L38.3068 2.68907L38.2147 2.78095L38.0657 2.88258L37.9912 3.00927L37.83 3.1123L37.7216 3.24456L37.6417 3.41023L37.5564 3.53831L37.4751 3.69145L37.4277 3.83903L37.3464 3.99217L37.2854 4.1286L37.1676 4.27479L37.1581 4.44046L37.0863 4.57968L37.0538 4.44603L37.0958 4.26226L37.0795 4.08823L37.0931 3.94623L37.1215 3.75132L37.0985 3.60374L37.1188 3.43529L37.1053 3.2724L37.1215 3.08028L36.9576 2.94245L36.8195 2.96612L36.661 3.0051L36.4619 3.01345L36.3995 3.09141L36.2736 3.15963L36.2438 3.34201L36.1639 3.50768L36.0948 3.67057L36.023 3.80979L35.9309 3.97685L35.8699 4.11329L35.7886 4.26643L35.7006 4.38199L35.6125 4.49754L35.366 4.72864L35.2373 4.81357L35.0572 4.86926L34.77 4.91798L34.5045 4.73421L34.4151 4.54627L34.3568 4.40426L34.2295 4.27339L34.1482 4.13557L34.0521 3.97407L33.8814 3.86409L33.7717 3.76802L33.6511 3.67475L33.498 3.59957L33.3247 3.55223L33.1418 3.52021L32.8546 3.49237L32.6663 3.49933L32.3561 3.55084L32.1855 3.59261L32.05 3.6288L31.8726 3.69702L31.7574 3.79308L31.5827 3.88497L31.477 3.96572L31.3659 4.08545L31.24 4.1829L31.095 4.3082L30.9772 4.45438L30.9149 4.57829L30.7835 4.71472L30.6914 4.88179L30.644 5.02936L30.56 5.16997L30.4706 5.34957L30.4462 5.49296L30.3771 5.65585L30.3581 5.83684L30.3229 5.98162L30.2904 6.15147L30.262 6.34638L30.2376 6.48978L30.1861 6.68886V6.80302L30.1834 6.81555L30.1468 6.96034L30.0574 7.13994L30.0141 7.31257L29.9301 7.45318L29.884 7.61328L29.838 7.77339L29.7445 7.92792L29.5955 8.25648L29.5495 8.41658L29.4533 8.55998L29.3923 8.69642L29.288 8.85374L29.1946 9.00827L29.1322 9.13357L29.0158 9.29228L28.9331 9.44542L28.8451 9.56097L28.692 9.71272L28.5931 9.83106L28.4753 9.97724L28.3723 10.0705L28.2816 10.0218L28.3276 9.86169L28.3209 9.67235L28.3439 9.51642L28.3601 9.3243L28.394 9.16698L28.4143 8.99852L28.4238 8.83285L28.4848 8.61985L28.4942 8.45417L28.5403 8.29407L28.5362 8.11726L28.5471 7.96412L28.6094 7.76364V7.61189L28.6365 7.41698L28.6798 7.24435L28.6758 7.06754L28.7218 6.90744L28.7056 6.73341L28.734 6.53851L28.776 6.35334L28.799 6.19742L28.8424 6.02478L28.8586 5.83266L28.8816 5.67673L28.864 5.49018L28.9074 5.31894L28.9629 5.14491L28.9697 4.96671L28.9656 4.7899L29.009 4.61727L29.032 4.46134L28.8762 4.29706L28.7245 4.30959L28.5755 4.33465L28.394 4.37781L28.2084 4.39591L28.0323 4.6284L28.0228 4.79408L27.947 4.98481L27.928 5.16579L27.9185 5.33147L27.9253 5.52081L27.8454 5.68648L27.8495 5.86329L27.821 6.0582L27.7844 6.20298L27.7695 6.40764L27.7235 6.56774L27.7032 6.7362L27.7303 6.90883L27.6801 7.04248L27.6585 7.04666L27.5894 7.20955L27.5474 7.39332L27.5095 7.52697L27.4214 7.71909L27.3713 7.85414L27.2954 8.04487L27.2494 8.20497L27.1546 8.34697L27.0719 8.50012L27.0001 8.63934L26.9433 8.80083L26.8254 8.94701L26.7509 9.0737L26.6439 9.21849L26.5518 9.31038L26.4177 9.43428L26.2497 9.48858L26.1183 9.54844L25.8176 9.58603L25.6564 9.53731L25.548 9.3786L25.4762 9.22545L25.3828 8.8607V8.70895L25.3679 8.54606L25.3828 8.34141L25.3896 8.1632L25.4099 7.99475L25.3828 7.82211L25.4058 7.66619L25.4451 7.46989L25.4329 7.31953L25.4613 7.12462L25.4586 6.96034L25.479 6.79189L25.5047 6.58445L25.502 6.42017L25.5453 6.24753L25.5413 6.07073L25.5521 5.91619L25.5616 5.75052L25.6239 5.55004L25.6117 5.39968L25.6185 5.22148L25.6374 5.0405L25.6808 4.86786L25.6903 4.70219L25.6997 4.53652L25.7417 4.35275L25.7743 4.1829L25.781 4.0047L25.777 3.82789L25.8298 3.64133L25.8081 3.50629L25.8501 3.32252L25.8894 3.12622L25.8867 2.96194L25.907 2.79348L25.9178 2.63895L25.9666 2.42873L25.9558 2.2909L25.9612 2.10017L26.0181 1.93867L26.0113 1.74933L26.0641 1.56278L26.0506 1.39989L25.9097 1.25928L25.758 1.27181L25.6009 1.32332L25.4288 1.35256L25.2663 1.36787L25.0997 1.58644L25.0672 1.75629L25.0482 1.93728L25.0428 2.12801L25.0143 2.32292L25.0049 2.48859L24.9385 2.66401L24.9425 2.84082L24.9127 3.0232L24.8978 3.22785L24.8911 3.40605L24.8342 3.56755L24.8044 3.74993L24.8017 3.95319L24.7922 4.11886L24.7624 4.30124L24.7529 4.46691L24.7475 4.65764L24.7041 4.83027L24.6527 5.02936L24.6703 5.21591L24.6418 5.41082L24.631 5.56536L24.612 5.74634L24.6053 5.92454L24.5727 6.09439L24.524 6.30462L24.5145 6.47029L24.505 6.63596L24.5118 6.8253L24.505 7.0035L24.4725 7.17335L24.4671 7.36408L24.4088 7.51305L24.417 7.71491V7.79288L24.3926 7.93349L24.3045 8.12561L24.268 8.2704L24.1772 8.43747L24.1081 8.60036L24.016 8.76742L23.9781 8.90107L23.8995 9.07927L23.8304 9.24216L23.7099 9.37581L23.6056 9.53313L23.508 9.664L23.3902 9.81018L23.3116 9.91181L23.0339 10.0984L22.6939 10.1179L22.5747 10.0371L22.4406 9.93269L22.381 9.77816L22.2794 9.43985L22.3079 9.24495L22.2713 9.08623L22.3011 8.90385L22.2903 8.76603L22.3065 8.5739L22.3133 8.3957L22.3228 8.23003L22.3567 8.07271L22.3661 7.90704L22.3729 7.72884L22.419 7.56873L22.4108 7.36686L22.4433 7.19702L22.5002 7.03552L22.5219 6.87959L22.5057 6.70557L22.5517 6.54547L22.5707 6.36448L22.5761 6.17375L22.6005 6.03035L22.6655 5.8424L22.6533 5.69205L22.6696 5.49992L22.5517 5.35513L22.381 5.3969L22.1927 5.40247L21.8473 5.46094L21.6929 5.67673L21.6672 5.88417L21.6116 6.0582L21.5927 6.23918L21.5642 6.43409L21.5344 6.61647L21.5141 6.78492L21.5087 6.97566L21.4532 7.14968L21.4843 7.34737L21.4423 7.53114L21.4234 7.71213L21.4044 7.89312L21.3935 8.04765L21.3651 8.24256L21.3312 8.39988L21.3245 8.49176L21.2825 8.6101L21.2026 8.77577L21.1104 8.94284L21.0441 9.11825L21.0007 9.2895L20.9398 9.42593L20.8504 9.60552L20.7881 9.73082L20.6716 9.88953L20.5781 10.0441L20.467 10.1638L20.3817 10.2919L20.2963 10.42L20.1771 10.491L20.039 10.5898L19.7355 10.6149L19.5703 10.4659L19.4809 10.1262L19.5134 9.95636L19.5297 9.76424L19.5486 9.58325L19.6042 9.40922L19.6245 9.24077L19.6448 9.07231L19.7017 8.91082L19.7085 8.73261L19.787 8.55441L19.7965 8.38874L19.8168 8.22028L19.8236 8.04208L19.852 7.84717L19.8873 7.70239L19.8669 7.5033L19.8778 7.34877L19.8846 7.17056L19.8385 6.81138L19.7762 6.64431L19.6936 6.49395L19.6109 6.3436L19.5026 6.18489L19.3657 6.06794L19.2574 5.98441L19.0826 5.92454L18.958 5.88278L18.7508 5.84101L18.6302 5.82291L18.3105 5.88974L18.1805 5.96213L18.0139 6.02757L17.8757 6.12641L17.7362 6.21273L17.6156 6.34638L17.4897 6.44384L17.4152 6.57053L17.3203 6.71253L17.212 6.84479L17.1212 7.01185L17.0467 7.13854L16.9993 7.28612L16.9058 7.44065L16.8259 7.60632L16.7921 7.76364L16.7162 7.95437L16.6905 8.08524L16.6607 8.26762L16.6525 8.06575L16.6593 7.88755L16.6363 7.73997L16.6295 7.55063L16.5618 7.19423L16.5347 7.0216L16.4615 6.85593L16.3437 6.71114L16.2434 6.60115L16.1093 6.49674L15.9983 6.38954L15.8019 6.34638L15.6718 6.3436L15.3345 6.37423L15.1909 6.43687L15.0392 6.52597L14.92 6.59698L14.7615 6.71253L14.687 6.83922L14.5326 6.97844L14.4337 7.09678L14.3619 7.236L14.2793 7.38914L14.1615 7.53532L14.0815 7.70099L14.0341 7.84857L13.9678 8.02398L13.8987 8.18687L13.8743 8.33027L13.7835 8.49733L13.7944 8.3428L13.7903 8.16599L13.8039 8.02398L13.7998 7.84717L13.8052 7.65644L13.8188 7.51444L13.8255 7.33624L13.8784 7.14968L13.8757 6.9854L13.7104 6.83644L13.5614 6.8615L13.3758 6.87959L13.2268 6.90465L13.0372 7.12601L13.0182 7.307L13.0074 7.46153L13.0019 7.65227L12.9369 7.84021L12.9234 7.98222L12.9071 8.17434L12.8841 8.33027L12.9017 8.51682L12.8557 8.67693L12.8597 8.85374L12.8408 9.03472L12.8015 9.23102L12.7771 9.37442L12.7188 9.75171L12.7121 9.92991L12.7216 10.0677L12.6823 10.264L12.6755 10.4422L12.6227 10.6288V10.768L12.6023 10.949L12.6064 11.1258L12.5509 11.2998L12.5644 11.4627L12.5157 11.6743V11.8261L12.4723 11.9973L12.452 12.1658L12.4723 12.3649L12.4141 12.5138L12.578 12.6517L12.7676 12.6572L12.9004 12.5974L13.0846 12.5667H13.2268L13.4043 12.3482L13.4137 12.1825L13.4706 12.021L13.4896 11.84L13.5316 11.6562L13.5248 11.4669L13.5682 11.2943L13.5749 11.1161L13.6074 10.9462L13.6508 10.775L13.7023 10.5759L13.7361 10.4186L13.7917 10.2445L13.7795 10.0942L13.8309 9.8951L13.8635 9.72525L13.9325 9.56237L13.9745 9.3786L14.0531 9.20039L14.0734 9.03194L14.133 8.88297L14.1655 8.71312L14.2834 8.56694L14.3078 8.42355L14.4202 8.23978L14.4798 8.09081L14.5326 7.98083L14.6261 7.82629L14.7141 7.71074L14.8293 7.61607L14.9674 7.51722L15.0568 7.48938L15.3427 7.42812L15.4632 7.5214L15.6109 7.63556L15.6786 7.76364L15.7341 8.10891L15.7125 8.26483L15.7423 8.45L15.7328 8.61567L15.7504 8.80222L15.707 8.97346L15.7341 9.1461L15.6881 9.3062L15.6691 9.48719L15.6583 9.64172L15.6515 9.81992L15.5946 9.98142L15.5878 10.1596L15.5675 10.3281L15.5391 10.523L15.5147 10.6664L15.5323 10.8529L15.5228 11.0186L15.4998 11.1745L15.4483 11.3736V11.5128L15.4077 11.7091L15.3738 11.8665L15.3901 12.0405L15.5039 12.1602L15.8669 12.1379L16.1947 12.0447L16.3992 11.8456L16.4317 11.6757L16.4507 11.4947L16.4832 11.3249L16.4886 11.1342L16.5455 10.9727L16.5645 10.7917L16.5713 10.6135L16.6268 10.4395L16.6525 10.232L16.7094 10.0705L16.7487 9.87422L16.7961 9.72665L16.7893 9.53731L16.8327 9.36467L16.9018 9.20179L16.9532 9.0027L17.0237 8.85095L17.0792 8.67693L17.1348 8.5029L17.1442 8.33723L17.2607 8.17852L17.3176 8.01702L17.3745 7.85553L17.4693 7.71352L17.5059 7.56873L17.6509 7.44344L17.7023 7.32092L17.7999 7.19006L17.9055 7.10931L18.0572 7.02021L18.1967 6.93389L18.4744 6.90048L18.6153 6.96591L18.7752 7.07868L18.828 7.25967L18.8944 7.60354L18.9079 7.76643L18.8781 7.9488L18.8551 8.10473L18.8578 8.26901L18.7928 8.45696L18.7819 8.61149L18.7494 8.78134L18.6939 8.95537L18.683 9.1099L18.6627 9.27836L18.6194 9.4496L18.6004 9.63058L18.5842 9.82271L18.5137 9.97446L18.5408 10.1471L18.5151 10.3545L18.5191 10.5313L18.5936 10.8488L18.6478 11.0423L18.7426 11.1912L18.8388 11.3527L18.9716 11.4446L19.0948 11.5504L19.2235 11.6173L19.4321 11.6702L19.5662 11.698L19.8724 11.6214L20.043 11.5797L20.1947 11.4906L20.3112 11.407L20.4684 11.279L20.5673 11.1606L20.6987 11.0242L20.8057 10.8794L20.8666 10.743L20.9872 10.6093L21.0698 10.4562L21.1267 10.2947L21.2432 10.136L21.315 9.99673L21.3421 9.87561L21.3448 9.88953L21.3827 10.2L21.422 10.3712L21.4681 10.516L21.5967 10.6594L21.7024 10.807L21.7931 10.9309L21.9394 11.0325L22.0681 11.0994L22.2524 11.1439L22.3851 11.1592L22.568 11.1926L22.8998 11.1244L23.0096 11.0687L23.1978 10.9866L23.3279 10.9142L23.439 10.7945L23.5771 10.6956L23.6882 10.5759L23.8927 10.3002L23.9767 10.1596L24.039 10.0357L24.1569 9.88953L24.2991 9.59996L24.3547 9.42593L24.4441 9.26165L24.4644 9.3062L24.4793 9.62084L24.5226 9.81575L24.6269 9.95079L24.7258 10.1248L24.7949 10.2654L24.91 10.3977L25.0902 10.4937L25.2433 10.5689L25.3706 10.6232L25.5304 10.6594L25.7417 10.6497L26.0546 10.6093L26.3662 10.4937L26.5044 10.3949L26.6073 10.3016L26.7333 10.2042L26.8552 10.0817L26.9771 9.95914L27.0489 9.81992L27.1437 9.67653L27.2413 9.54566L27.3198 9.36746L27.4025 9.21432L27.4119 9.19483V9.27557L27.3794 9.44542L27.3686 9.59996L27.3212 9.74753L27.3374 9.92295L27.2602 10.2529L27.2399 10.4214L27.2629 10.5689L27.0272 10.7986L26.9202 10.8669L26.7536 10.9323L26.5721 10.9755L26.4434 11.0604L26.2727 11.1021L26.1305 11.1759L25.9544 11.2567L25.8162 11.3555L25.6767 11.4418L25.5711 11.5226L25.3855 11.6173L25.2744 11.737L25.162 11.8442L25.0645 11.9751L24.9954 12.1379L24.8965 12.2563L24.8179 12.4345L24.799 12.6155L24.7895 12.7811L24.7692 12.9496L24.8206 13.2698L24.8735 13.4508L24.9886 13.583L25.0523 13.7626L25.1891 13.8796L25.3096 13.9729L25.4194 14.0689L25.5805 14.1176L25.7323 14.1803L25.9205 14.1733L26.0506 14.1775L26.377 14.1483L26.5206 14.0856L26.6778 14.0341L26.8064 13.9492L26.9554 13.8476L27.0774 13.725L27.2087 13.5886L27.3103 13.4828L27.4146 13.3255L27.4526 13.1918L27.5542 13.0095L27.6016 12.8619L27.695 12.7073L27.7289 12.55L27.7939 12.3621L27.8508 12.2006L27.8982 12.053L27.928 11.8706L27.9646 11.7245L28.0526 11.5323L28.073 11.3639L28.0824 11.1982L28.2409 10.9309L28.4252 10.8237L28.5498 10.7137L28.6812 10.5773L28.7475 10.477L28.9182 10.3601L29.0158 10.2292L29.1228 10.0844L29.2216 9.96611L29.3151 9.81157L29.437 9.68906L29.5169 9.52339L29.5765 9.37442L29.7215 9.24912L29.754 9.07927L29.8515 8.94841L29.9206 8.78552L30.0506 8.63655L30.094 8.46392L30.178 8.32331L30.2335 8.14928L30.3378 7.99196L30.3459 7.96551L30.3636 8.07689L30.4557 8.21332L30.4855 8.39849L30.6142 8.54188L30.6467 8.67553L30.7659 8.83285L30.858 8.96929L30.9948 9.08623L31.1045 9.1823L31.282 9.2533L31.393 9.3605L31.5664 9.40783L31.7073 9.47327L31.8536 9.49972L32.0134 9.53591L32.2153 9.54009L32.3873 9.51085L32.6867 9.46074L32.8478 9.43428L33.0145 9.36885L33.1377 9.32291L33.2637 9.22545L33.5224 9.06813L33.6796 8.94005L33.8042 8.83007L34.0223 8.56555L34.0981 8.45139L34.2282 8.30242L34.3081 8.13675L34.3704 8.01285L34.4273 7.85135L34.4869 7.70239L34.5912 7.54507L34.6102 7.36408L34.667 7.20258L34.6779 7.04805L34.7429 6.8601L34.7388 6.68329L34.7862 6.53572L34.7592 6.36309L34.7795 6.19463L34.7944 5.98998L34.7551 5.81874L34.8337 5.64054L35.1235 5.60434L35.2333 5.54726L35.4337 5.47486L35.5638 5.40247L35.6721 5.27021L35.8306 5.15466L35.8929 5.03075L36.0406 4.91798L36.1205 4.75231L36.1639 4.64233L36.149 4.78433L36.0799 4.94722L36.0595 5.11568L36.0907 5.31337L36.0433 5.46094L36.0379 5.65167L36.0149 5.8076L36.0121 6.01086L35.9525 6.15983L35.9471 6.35056L35.9309 6.69582L35.878 6.88238L35.8902 7.03274L35.8388 7.23182L35.8523 7.39471L35.8103 7.57987L35.7643 7.73997L35.7819 7.92653L35.725 8.08802L35.7385 8.25091L35.6898 8.46253L35.6667 8.61845L35.8577 8.77716L36.0054 8.73957L36.1435 8.71591L36.3237 8.66022L36.4673 8.67414L36.6529 8.42772L36.6759 8.2718L36.7043 8.07689L36.7599 7.90286L36.7992 7.70656L36.8059 7.52836L36.8628 7.36686L36.8818 7.18588L36.9468 6.99793L36.9387 6.79606L37.0172 6.61786L37.024 6.43966L37.1039 6.27399L37.1432 6.07769L37.1676 5.93429L37.2421 5.73242L37.276 5.5751L37.3193 5.40247L37.4114 5.2354L37.4412 5.05303L37.5347 4.89849L37.5767 4.71472L37.6742 4.58385L37.7406 4.40844L37.8124 4.26922L37.9207 4.13696L38.0007 3.97129L38.0657 3.85852L38.1768 3.73879L38.3298 3.66222L38.4355 3.58147L38.5913 3.51743L38.8446 3.47566L39.0559 3.5411L39.1561 3.65108L39.2889 3.81814L39.3309 4.15366L39.3024 4.34857V4.50032L39.2848 4.68131L39.2509 4.83863L39.2442 5.01683L39.2211 5.17276L39.1778 5.34539L39.0992 5.52359L39.0694 5.70597L39.0559 5.84797L39.0464 6.01364L38.9976 6.22526L38.9651 6.39511L38.9556 6.56078L38.9489 6.73898L38.9394 6.90465L38.9787 7.07589L39.0017 7.43926L39.083 7.57709L39.1453 7.74415L39.2279 7.89451L39.3661 8.02398L39.4893 8.12979L39.6885 8.19801L39.809 8.21611L39.9919 8.24952L40.3116 8.18269L40.4917 8.12701L40.7518 7.98222L40.8967 7.85692L41.0051 7.72466L41.0945 7.62164L41.2381 7.48381L41.3085 7.33206L41.3885 7.16639L41.4995 7.04666L41.5754 6.85593L41.6594 6.71531L41.7285 6.55243L41.7989 6.40068L41.868 6.23779L41.9479 6.07212L41.9912 5.89948L42.0495 5.75052L42.143 5.59598L42.1768 5.43867L42.2649 5.24654L42.3218 5.08505L42.3786 4.92355L42.296 4.69662L42.2865 4.70776ZM27.0408 11.8275L27.0042 11.9723L26.9243 12.1379L26.9148 12.3036L26.8254 12.4832L26.7658 12.6322L26.671 12.7742L26.5775 12.9287L26.4759 13.0345L26.3838 13.1264L26.1955 13.2085L25.8826 13.2489L25.7323 13.1988L25.6103 13.0289L25.5575 12.6962L25.5995 12.5124L25.6591 12.3635L25.7756 12.2048L25.8745 12.0864L26.0492 11.9945L26.1779 11.9096L26.3405 11.8191L26.4556 11.7245L26.6466 11.6674L26.7983 11.5783L26.946 11.5407L27.0665 11.634L27.0381 11.8289L27.0408 11.8275ZM33.7568 6.68469L33.7595 6.84897L33.6945 7.03691L33.6389 7.21094L33.5834 7.38496L33.5373 7.54507L33.4398 7.67593L33.3816 7.8249L33.2881 7.97943L33.1445 8.11726L33.0524 8.20915L32.9183 8.33305L32.7652 8.40962L32.5891 8.49037L32.2667 8.54467L32.1299 8.50429L31.9958 8.47645L31.8319 8.41519L31.7073 8.29685L31.5922 8.1646L31.4648 8.03373L31.3836 7.8959L31.3483 7.74972L31.2765 7.59658L31.2264 7.42812L31.1695 7.07033L31.1898 6.90187L31.156 6.69165L31.1749 6.51066L31.198 6.35473L31.2075 6.18906L31.2237 5.99694L31.2792 5.82291L31.3348 5.64889L31.4499 5.47765L31.5326 5.32451L31.5705 5.19085L31.6924 5.06834L31.7886 4.92634L31.9592 4.80939L32.0622 4.71611L32.2464 4.60891L32.3805 4.56158L32.7043 4.51981L32.837 4.53513L32.9833 4.56158L33.1594 4.63397L33.28 4.72725L33.3518 4.88039L33.4533 5.00291L33.5807 5.13377L33.6172 5.29249L33.6796 5.45955L33.7486 5.60016L33.7933 5.95935L33.8001 6.14869L33.7798 6.31714L33.8096 6.50231L33.7568 6.68886V6.68469Z" fill="#D2E9F7"/>
</svg>
