<svg width="30" height="30" viewBox="0 0 30 30" fill="none" xmlns="http://www.w3.org/2000/svg">
<path d="M23.1153 24.9053C22.095 23.7625 20.8444 22.8485 19.4458 22.2233C18.0471 21.5981 16.532 21.2759 15 21.2778C11.7753 21.2778 8.87889 22.6778 6.88467 24.9053M15 29C13.1615 29 11.341 28.6379 9.64243 27.9343C7.94387 27.2307 6.40053 26.1995 5.10051 24.8995C3.80049 23.5995 2.76925 22.0561 2.06569 20.3576C1.36212 18.659 1 16.8385 1 15C1 13.1615 1.36212 11.341 2.06569 9.64243C2.76925 7.94387 3.80049 6.40053 5.10051 5.1005C6.40053 3.80048 7.94387 2.76925 9.64243 2.06569C11.341 1.36212 13.1615 1 15 1C18.713 1 22.274 2.475 24.8995 5.1005C27.525 7.72601 29 11.287 29 15C29 18.713 27.525 22.274 24.8995 24.8995C22.274 27.525 18.713 29 15 29ZM15 17.6111C14.3872 17.6111 13.7803 17.4904 13.2141 17.2559C12.648 17.0214 12.1335 16.6776 11.7002 16.2443C11.2668 15.8109 10.9231 15.2965 10.6886 14.7303C10.454 14.1641 10.3333 13.5573 10.3333 12.9444C10.3333 12.3316 10.454 11.7248 10.6886 11.1586C10.9231 10.5924 11.2668 10.078 11.7002 9.64461C12.1335 9.21127 12.648 8.86753 13.2141 8.63301C13.7803 8.39848 14.3872 8.27778 15 8.27778C16.2377 8.27778 17.4247 8.76944 18.2998 9.64461C19.175 10.5198 19.6667 11.7068 19.6667 12.9444C19.6667 14.1821 19.175 15.3691 18.2998 16.2443C17.4247 17.1194 16.2377 17.6111 15 17.6111Z" stroke="#074658" stroke-width="1.5" stroke-linecap="round" stroke-linejoin="round"/>
</svg>
