<svg width="88" height="88" viewBox="0 0 88 88" fill="none" xmlns="http://www.w3.org/2000/svg">
<path d="M-1.14122e-05 44C-1.02633e-05 30.8583 5.76132 19.0623 14.896 10.9999C15.48 10.4845 16.0778 9.98426 16.6888 9.49994C24.1923 3.55197 33.6813 -4.74869e-06 44 -3.8466e-06C68.3005 -1.72218e-06 88 19.6995 88 44C88 68.3005 68.3005 88 44 88C19.6995 88 -1.35366e-05 68.3005 -1.14122e-05 44Z" fill="#003E52"/>
<path d="M-1.14122e-05 44C-1.02633e-05 30.8583 5.76132 19.0623 14.896 10.9999C15.48 10.4845 16.0778 9.98426 16.6888 9.49994C9 14.9999 8.5 15.9999 -1.33495e-06 15.9999L-1.14122e-05 44Z" fill="#003E52"/>
<path d="M71.3112 9.49994C81.4784 17.5595 88 30.0181 88 44L88 15.9999C79.5 15.9999 79 14.9999 71.3112 9.49994Z" fill="#003E52"/>
<path d="M44 81C64.4345 81 81 64.4345 81 44C81 23.5655 64.4345 7 44 7C23.5655 7 7 23.5655 7 44C7 64.4345 23.5655 81 44 81Z" fill="#004C6C" stroke="#0078C0" stroke-width="2"/>
<path d="M22.8574 65.0393C21.8291 64.0591 21.678 62.8591 22.665 61.824L23.8513 60.5804C24.8383 59.5453 26.0452 59.6483 27.0506 60.6056C27.5178 61.0522 27.8315 61.6224 27.9392 62.1789C27.9644 62.2705 27.93 62.3301 27.8384 62.3438L26.9246 62.5637C26.833 62.5774 26.7735 62.5453 26.7506 62.4537C26.6704 62.1056 26.4643 61.7713 26.2078 61.5262C25.7178 61.0591 25.1819 61.0934 24.7719 61.5217L23.6589 62.6896C23.2215 63.1476 23.2467 63.6721 23.7322 64.1347C24.0299 64.4187 24.3849 64.5973 24.7834 64.6591C24.8819 64.6729 24.9231 64.7232 24.9002 64.8171L24.7307 65.7446C24.7216 65.8362 24.6689 65.8798 24.6002 65.8706C24.0116 65.7973 23.4024 65.5591 22.8597 65.0416L22.8574 65.0393Z" fill="white"/>
<path d="M32.1608 64.5322C32.2089 64.4475 32.2753 64.4269 32.36 64.4749L33.2371 64.9742C33.3219 65.0223 33.3402 65.0887 33.2898 65.1757L30.5256 70.0262C30.4775 70.1132 30.4111 70.1315 30.3264 70.0835L29.4493 69.5842C29.3646 69.5361 29.3485 69.4697 29.3966 69.3827L30.4867 67.4681L28.9088 66.5681L27.8187 68.4827C27.7706 68.5674 27.7042 68.588 27.6195 68.5399L26.7424 68.0407C26.6576 67.9926 26.6393 67.9262 26.6897 67.8391L29.4539 62.9887C29.502 62.9016 29.5684 62.8833 29.6531 62.9314L30.5302 63.4307C30.615 63.4787 30.631 63.5452 30.5829 63.6322L29.5157 65.5032L31.0936 66.4032L32.1608 64.5322Z" fill="white"/>
<path d="M33.2597 71.344C33.1497 71.3165 33.1268 71.2501 33.191 71.1562L36.4223 66.2119C36.4727 66.1477 36.5299 66.1202 36.6009 66.1386L37.7895 66.4477C37.8605 66.4661 37.904 66.521 37.9086 66.5989L38.3025 72.4914C38.314 72.6059 38.2682 72.6517 38.1514 72.6219L37.1116 72.3494C37.0246 72.3265 36.9811 72.2738 36.9788 72.1868L36.9445 71.1402L35.046 70.6432L34.494 71.5364C34.4505 71.6097 34.3841 71.6349 34.3062 71.6142L33.2597 71.3417V71.344ZM36.8139 67.6821C36.5116 68.1653 36.049 68.9783 35.6551 69.6241L36.9124 69.9539C36.8666 69.2027 36.8529 68.2638 36.846 67.6913L36.8139 67.6821Z" fill="white"/>
<path d="M41.443 72.9954C41.3468 72.9977 41.2964 72.9496 41.2941 72.8512L41.1567 67.2678C41.1544 67.1694 41.2025 67.119 41.2987 67.1167L42.3727 67.0915C42.446 67.0915 42.5033 67.1213 42.5376 67.1854L43.6667 69.1251C44.0308 69.7732 44.3766 70.4488 44.5736 70.8633L44.5965 70.8542C44.5209 70.1076 44.4705 69.3519 44.4545 68.6602L44.4178 67.1877C44.4155 67.0892 44.4636 67.0388 44.5598 67.0365L45.5606 67.0114C45.6499 67.0114 45.7003 67.0572 45.7026 67.1556L45.84 72.7389C45.8423 72.8374 45.7942 72.8878 45.7072 72.8901L44.6331 72.9153C44.5598 72.9153 44.5026 72.8855 44.4613 72.8214L43.369 71.0717C42.9911 70.4809 42.5903 69.6427 42.3865 69.1778L42.3636 69.187C42.4552 69.9404 42.5331 70.8038 42.5491 71.5275L42.5811 72.8191C42.5834 72.9176 42.5353 72.968 42.4483 72.9702L41.4475 72.9954H41.443Z" fill="white"/>
<path d="M51.0214 72.0119C50.2267 72.2295 49.5718 72.1608 48.761 71.7944C48.6763 71.7577 48.6511 71.6959 48.6786 71.6135L48.9992 70.6997C49.0336 70.6127 49.0954 70.5875 49.1801 70.6241C49.7412 70.8371 50.2702 70.9058 50.7786 70.7753C51.2848 70.6379 51.5962 70.3653 51.5 70.0149C51.3924 69.6188 50.8863 69.6027 50.3206 69.6462C49.4893 69.6943 48.2137 69.6256 47.861 68.3317C47.561 67.2302 48.3397 66.4355 49.5237 66.1126C50.2084 65.9248 50.8107 65.95 51.5756 66.2088C51.6764 66.2408 51.7016 66.3027 51.6672 66.3897L51.3764 67.2874C51.342 67.3744 51.2825 67.4065 51.1932 67.3813C50.7168 67.2302 50.229 67.2187 49.7916 67.3378C49.2305 67.4912 49.0725 67.7386 49.1504 68.0248C49.2466 68.3729 49.5992 68.3798 50.3046 68.3569C51.4703 68.3363 52.4573 68.4508 52.7779 69.6256C53.0802 70.7363 52.3978 71.6386 51.0283 72.0119H51.0214Z" fill="white"/>
<path d="M56.4988 68.4699L58.5988 67.3133C58.6836 67.2675 58.75 67.2859 58.7935 67.366L59.2309 68.1584C59.279 68.2454 59.2607 68.3118 59.176 68.3576L56.0637 70.0706C55.9789 70.1165 55.9125 70.0981 55.8644 70.0111L53.1713 65.1217C53.1232 65.0347 53.1415 64.9683 53.2262 64.9225L56.2263 63.2713C56.311 63.2255 56.3774 63.2438 56.4255 63.3308L56.8629 64.1232C56.9064 64.2034 56.8881 64.2698 56.8034 64.3156L54.8156 65.4103L55.3583 66.3973L57.1126 65.4332C57.1973 65.3874 57.2637 65.4057 57.3072 65.4858L57.7355 66.2645C57.779 66.3446 57.7607 66.411 57.6759 66.4568L55.9217 67.4233L56.5011 68.4744L56.4988 68.4699Z" fill="white"/>
<path d="M61.9417 66.3866C61.8707 66.4531 61.802 66.4485 61.7333 66.3775L57.9294 62.2919C57.863 62.2209 57.863 62.1499 57.934 62.0835L58.7195 61.3507C58.7721 61.3003 58.8363 61.2865 58.905 61.3117L61.0348 62.0125C61.7378 62.2576 62.4455 62.5324 62.8669 62.711L62.8783 62.6881C62.3264 62.1797 61.7882 61.6461 61.3165 61.1423L60.3134 60.0636C60.247 59.9903 60.247 59.9216 60.318 59.8552L61.0508 59.1728C61.1149 59.1132 61.1836 59.1155 61.2523 59.1865L65.0562 63.2744C65.1226 63.3476 65.1226 63.4164 65.0562 63.4759L64.2707 64.2064C64.2181 64.2568 64.1539 64.2706 64.0806 64.25L62.102 63.666C61.4264 63.4736 60.5722 63.1118 60.1119 62.9011L60.1004 62.924C60.6684 63.4278 61.2981 64.0209 61.7905 64.5523L62.6699 65.4981C62.7363 65.5714 62.7363 65.6401 62.6699 65.6996L61.9371 66.3821L61.9417 66.3866Z" fill="white"/>
<path d="M29.6658 25.7748C29.5696 25.8367 29.5032 25.8115 29.4803 25.6993L28.0558 19.9556C28.0444 19.8755 28.0627 19.8137 28.1245 19.7747L29.1757 19.0991C29.2375 19.0579 29.3085 19.0625 29.3704 19.1106L34.0056 22.7885C34.0972 22.8549 34.1017 22.9214 33.9987 22.9901L33.0781 23.5809C33.0025 23.629 32.9315 23.6267 32.8651 23.5695L32.0658 22.8893L30.3849 23.9702L30.6643 24.9825C30.6872 25.0649 30.662 25.1313 30.5933 25.1748L29.6658 25.7703V25.7748ZM29.4139 20.6564C29.5627 21.2061 29.8444 22.1015 30.0482 22.8297L31.1612 22.1129C30.5727 21.6412 29.8696 21.016 29.4391 20.6381L29.4116 20.6564H29.4139Z" fill="white"/>
<path d="M35.5836 22.3377C35.4897 22.3652 35.4279 22.3309 35.4004 22.2347L33.8774 16.8643C33.85 16.7682 33.8843 16.7086 33.9805 16.6811L35.0317 16.3834C35.1027 16.3628 35.1668 16.3788 35.2172 16.4338L36.8134 18.0231C37.3332 18.559 37.8439 19.1247 38.1394 19.4751L38.16 19.4613C37.9012 18.7583 37.663 18.0392 37.4752 17.375L37.0745 15.9597C37.047 15.8636 37.0813 15.804 37.1775 15.7765L38.1577 15.4994C38.2447 15.4742 38.3065 15.5086 38.3317 15.6048L39.8547 20.9751C39.8821 21.069 39.8478 21.1308 39.7608 21.156L38.7096 21.4537C38.6386 21.4744 38.5745 21.4583 38.5172 21.4056L37.0058 19.9881C36.4859 19.5117 35.8836 18.8018 35.5653 18.4056L35.5447 18.4193C35.8218 19.127 36.1126 19.9423 36.3096 20.6385L36.6622 21.8797C36.6897 21.9759 36.6554 22.0354 36.5683 22.0606L35.5882 22.3377H35.5836Z" fill="white"/>
<path d="M42.0647 20.881C41.9662 20.881 41.9181 20.8284 41.9181 20.7299L42.012 15.1466C42.012 15.0481 42.0647 15 42.1631 15L44.1853 15.0344C45.5021 15.0573 46.5029 15.6641 46.4754 17.368L46.4548 18.6756C46.4273 20.3864 45.4059 20.936 44.0891 20.9154L42.0669 20.881H42.0647ZM43.2601 19.6581L44.1235 19.6718C44.7578 19.6833 45.083 19.3993 45.0945 18.71L45.1174 17.2787C45.1288 16.5871 44.8128 16.2779 44.1807 16.2687L43.3174 16.255L43.2601 19.6604V19.6581Z" fill="white"/>
<path d="M51.2877 22.2384C51.2167 22.2155 51.1709 22.1674 51.1595 22.0941L50.6259 19.9712L50.1243 19.8132L49.5816 21.5468C49.5518 21.6407 49.49 21.6727 49.3961 21.643L48.4159 21.3361C48.322 21.3063 48.2899 21.2445 48.3197 21.1506L49.9869 15.8215C50.0167 15.7276 50.0785 15.6955 50.1724 15.7253L52.0801 16.323C53.4221 16.7421 53.9397 17.7062 53.5755 18.8673C53.319 19.6826 52.7351 20.12 51.9267 20.1704L52.5885 22.4628C52.6137 22.575 52.561 22.6346 52.4419 22.5979L51.2877 22.2361V22.2384ZM50.9304 17.2413L50.4678 18.7162L51.2121 18.9498C51.8007 19.133 52.1144 18.9818 52.2747 18.4734C52.4328 17.9719 52.2633 17.6604 51.6747 17.4749L50.9304 17.2413Z" fill="white"/>
<path d="M53.6753 23.1557C53.5791 23.0915 53.5768 23.0205 53.6707 22.9541L58.3632 19.3518C58.4319 19.3083 58.496 19.3014 58.5578 19.3426L59.5975 20.0365C59.6594 20.0777 59.6846 20.1441 59.6639 20.2197L58.1479 25.9359C58.1227 26.0481 58.0631 26.0778 57.9601 26.0091L57.0509 25.4023C56.9753 25.3519 56.9501 25.2855 56.9753 25.203L57.2776 24.1999L55.615 23.0915L54.7997 23.7534C54.7333 23.8083 54.6623 23.8106 54.5936 23.7648L53.6776 23.1534L53.6753 23.1557ZM58.2647 20.8793C57.8204 21.2342 57.1127 21.8503 56.5288 22.3289L57.6303 23.0618C57.8296 22.3335 58.1181 21.4404 58.2922 20.8953L58.2647 20.877V20.8793Z" fill="white"/>
<path d="M53.3411 45.5029L55.6174 28.927C55.6174 28.927 55.3518 26.4377 52.9701 26.2797C52.9701 26.2797 50.1097 25.698 49.6334 29.511C49.157 33.3241 48.0967 41.9029 48.0967 41.9029L45.4493 28.1873C45.4493 28.1873 45.1837 26.227 42.0073 26.5453C38.8309 26.8636 39.8362 30.94 39.8362 30.94L40.7889 36.8188C40.7889 36.8188 40.0469 35.2821 37.5576 35.4951C35.0682 35.7058 35.4392 39.2555 35.4392 39.2555C35.4392 39.2555 34.3262 37.8264 31.9445 38.3555C29.5605 38.8845 30.0918 42.0082 30.0918 42.0082L30.7811 46.7739L30.8864 53.8161C30.8864 53.8161 31.3628 58.8475 34.9628 61.1765C38.5629 63.5056 40.2049 63.7185 42.4286 63.6659C44.6523 63.6132 48.5707 63.0842 51.2181 59.3765C53.8655 55.6688 53.4945 51.9634 53.4945 51.9634L53.3365 45.5029H53.3411Z" fill="#D2E9F7"/>
<path d="M52.964 25.7367C52.009 25.6153 51.0701 25.8764 50.3144 26.4741C49.5609 27.0718 49.0891 27.926 48.9907 28.8833L47.9303 39.0171L46.2311 28.865C46.0708 27.91 45.5486 27.0741 44.7585 26.513C43.9684 25.9519 43.0066 25.7344 42.0516 25.8993C41.1012 26.0641 40.2722 26.5863 39.7157 27.3718C39.1592 28.1573 38.9416 29.1146 39.1019 30.065L40.0065 35.4033C39.3126 34.9796 38.4676 34.7941 37.6042 34.9452C35.9736 35.2292 34.8057 36.6147 34.7301 38.2041C33.9995 37.7415 33.1362 37.5697 32.2774 37.7186C30.3903 38.0461 29.1239 39.8484 29.4514 41.7354L30.2185 46.1439C30.2163 46.1668 30.214 46.1874 30.214 46.2103V52.3868C30.214 54.0013 30.53 55.5655 31.1529 57.0403C31.7552 58.4648 32.6163 59.7426 33.7133 60.8396C34.8102 61.9366 36.0881 62.8 37.5126 63.4C38.9874 64.0229 40.5516 64.3389 42.1661 64.3389C43.7806 64.3389 45.3448 64.0229 46.8196 63.4C48.2441 62.7977 49.522 61.9366 50.6189 60.8396C51.7159 59.7426 52.5793 58.4648 53.1793 57.0403C53.8022 55.5655 54.1182 54.0013 54.1182 52.3868V46.8699L56.0328 29.6596C56.1404 28.7276 55.8793 27.8092 55.3022 27.0695C54.7228 26.3321 53.8938 25.8603 52.964 25.7412V25.7367ZM42.26 27.1039C42.8921 26.9939 43.5287 27.1382 44.0509 27.5092C44.573 27.8802 44.9211 28.4321 45.0265 29.0642L47.4059 43.2881H42.5829L40.3088 29.8566C40.089 28.5604 40.9638 27.3237 42.26 27.0993V27.1039ZM37.8126 36.1498C39.0355 35.9369 40.2012 36.759 40.4142 37.9796L41.3531 43.3775C39.7752 43.7347 38.5935 45.1477 38.5935 46.831C38.5935 46.8447 38.5935 46.8584 38.5935 46.8699C37.8263 46.6157 37.2355 45.9561 37.0912 45.1202L35.9828 38.7491C35.7698 37.5262 36.5919 36.3605 37.8126 36.1475V36.1498ZM32.4881 38.9232C32.6186 38.9003 32.7491 38.8888 32.8774 38.8888C33.3354 38.8888 33.7843 39.0285 34.1667 39.2987C34.6591 39.6446 34.9843 40.1598 35.0873 40.753L35.8843 45.3332C35.9874 45.9241 35.8545 46.5218 35.5087 47.0119C35.1629 47.5043 34.6476 47.8294 34.0545 47.9325C33.4636 48.0356 32.8659 47.9027 32.3758 47.5569C31.8835 47.2111 31.5583 46.6958 31.4552 46.1027L30.6582 41.5225C30.4453 40.2995 31.2674 39.1339 32.4881 38.9209V38.9232ZM52.8976 52.3845C52.8976 53.8341 52.6136 55.238 52.0548 56.5617C51.5144 57.8396 50.7403 58.9869 49.7556 59.9717C48.7708 60.9564 47.6235 61.7305 46.3456 62.2709C45.0242 62.8297 43.618 63.1137 42.1684 63.1137C40.7187 63.1137 39.3149 62.8297 37.9912 62.2709C36.7133 61.7305 35.566 60.9564 34.5812 59.9717C33.5965 58.9869 32.8224 57.8396 32.2819 56.5617C31.7232 55.2403 31.4392 53.8341 31.4392 52.3845V48.3791C31.5148 48.4409 31.5903 48.5005 31.6728 48.5577C32.2636 48.9745 32.9552 49.1921 33.6629 49.1921C33.8621 49.1921 34.0637 49.1737 34.2652 49.1394C35.1789 48.9814 35.9759 48.4753 36.5095 47.7172C36.6332 47.5432 36.7385 47.3577 36.8255 47.1676C36.908 47.25 36.9927 47.3302 37.0843 47.4058C37.5927 47.8294 38.2111 48.0974 38.8615 48.1821C39.3928 49.4669 40.6592 50.3738 42.134 50.3738H44.7448C44.2845 50.644 43.8379 50.9761 43.428 51.3814C42.1844 52.6135 41.5546 54.2693 41.5546 56.3029C41.5546 56.6418 41.8295 56.9144 42.1661 56.9144C42.5027 56.9144 42.7776 56.6395 42.7776 56.3029C42.7776 54.6105 43.2837 53.2502 44.2822 52.2563C46.1234 50.4264 49.0823 50.3761 49.2678 50.3738H49.2815C49.6182 50.3738 49.8907 50.1012 49.893 49.7646C49.893 49.4279 49.6227 49.1531 49.2861 49.1508C49.2792 49.1508 49.2678 49.1508 49.2472 49.1508H42.1272C40.8493 49.1508 39.8096 48.1111 39.8096 46.8332C39.8096 45.5554 40.8493 44.5156 42.1272 44.5156H48.1273H50.5708C51.8487 44.5156 52.8884 45.5554 52.8884 46.8332V52.3845H52.8976ZM54.819 29.5176L53.1633 44.4126C52.5174 43.7233 51.5991 43.2904 50.58 43.2904H48.7136L50.2067 29.0092C50.2731 28.384 50.58 27.823 51.0747 27.4313C51.5693 27.0397 52.1854 26.8703 52.8083 26.9481C53.4175 27.026 53.9602 27.3352 54.3404 27.8184C54.7183 28.3016 54.89 28.9039 54.819 29.5154V29.5176Z" fill="#0078C0"/>
</svg>
