<svg width="76" height="76" viewBox="0 0 76 76" fill="none" xmlns="http://www.w3.org/2000/svg">
<path d="M38 75C58.4345 75 75 58.4345 75 38C75 17.5655 58.4345 1 38 1C17.5655 1 1 17.5655 1 38C1 58.4345 17.5655 75 38 75Z" fill="#004C6C" stroke="#0078C0" stroke-width="2"/>
<path d="M16.8574 59.0393C15.8291 58.0591 15.678 56.8591 16.665 55.824L17.8513 54.5804C18.8383 53.5453 20.0452 53.6483 21.0506 54.6056C21.5178 55.0522 21.8315 55.6224 21.9392 56.1789C21.9644 56.2705 21.93 56.3301 21.8384 56.3438L20.9246 56.5637C20.833 56.5774 20.7735 56.5453 20.7506 56.4537C20.6704 56.1056 20.4643 55.7713 20.2078 55.5262C19.7178 55.0591 19.1819 55.0934 18.7719 55.5217L17.6589 56.6896C17.2215 57.1476 17.2467 57.6721 17.7322 58.1347C18.0299 58.4187 18.3849 58.5973 18.7834 58.6591C18.8819 58.6729 18.9231 58.7232 18.9002 58.8171L18.7307 59.7446C18.7216 59.8362 18.6689 59.8798 18.6002 59.8706C18.0116 59.7973 17.4024 59.5591 16.8597 59.0416L16.8574 59.0393Z" fill="white"/>
<path d="M26.1608 58.5322C26.2089 58.4475 26.2753 58.4269 26.36 58.4749L27.2371 58.9742C27.3219 59.0223 27.3402 59.0887 27.2898 59.1757L24.5256 64.0262C24.4775 64.1132 24.4111 64.1315 24.3264 64.0835L23.4493 63.5842C23.3646 63.5361 23.3485 63.4697 23.3966 63.3827L24.4867 61.4681L22.9088 60.5681L21.8187 62.4827C21.7706 62.5674 21.7042 62.588 21.6195 62.5399L20.7424 62.0407C20.6576 61.9926 20.6393 61.9262 20.6897 61.8391L23.4539 56.9887C23.502 56.9016 23.5684 56.8833 23.6531 56.9314L24.5302 57.4307C24.615 57.4787 24.631 57.5452 24.5829 57.6322L23.5157 59.5032L25.0936 60.4032L26.1608 58.5322Z" fill="white"/>
<path d="M27.2597 65.344C27.1497 65.3165 27.1268 65.2501 27.191 65.1562L30.4223 60.2118C30.4727 60.1477 30.5299 60.1202 30.6009 60.1385L31.7895 60.4477C31.8605 60.466 31.904 60.521 31.9086 60.5989L32.3025 66.4913C32.314 66.6058 32.2682 66.6516 32.1514 66.6219L31.1116 66.3493C31.0246 66.3264 30.9811 66.2738 30.9788 66.1867L30.9445 65.1402L29.046 64.6432L28.494 65.5363C28.4505 65.6096 28.3841 65.6348 28.3062 65.6142L27.2597 65.3417V65.344ZM30.8139 61.6821C30.5116 62.1653 30.049 62.9783 29.6551 63.6241L30.9124 63.9539C30.8666 63.2027 30.8529 62.2638 30.846 61.6912L30.8139 61.6821Z" fill="white"/>
<path d="M35.4428 66.9954C35.3467 66.9977 35.2963 66.9496 35.294 66.8512L35.1566 61.2678C35.1543 61.1694 35.2024 61.119 35.2986 61.1167L36.3726 61.0915C36.4459 61.0915 36.5032 61.1213 36.5375 61.1854L37.6665 63.1251C38.0307 63.7732 38.3765 64.4488 38.5734 64.8633L38.5963 64.8542C38.5208 64.1076 38.4704 63.3519 38.4543 62.6602L38.4177 61.1877C38.4154 61.0892 38.4635 61.0388 38.5597 61.0365L39.5605 61.0114C39.6498 61.0114 39.7002 61.0572 39.7025 61.1556L39.8399 66.7389C39.8422 66.8374 39.7941 66.8878 39.707 66.8901L38.633 66.9153C38.5597 66.9153 38.5024 66.8855 38.4612 66.8214L37.3688 65.0717C36.991 64.4809 36.5902 63.6427 36.3864 63.1778L36.3635 63.187C36.4551 63.9404 36.5329 64.8038 36.549 65.5275L36.581 66.8191C36.5833 66.9176 36.5352 66.968 36.4482 66.9702L35.4474 66.9954H35.4428Z" fill="white"/>
<path d="M45.0213 66.0119C44.2266 66.2295 43.5716 66.1608 42.7609 65.7944C42.6762 65.7577 42.651 65.6959 42.6785 65.6135L42.9991 64.6997C43.0334 64.6127 43.0953 64.5875 43.18 64.6241C43.7411 64.8371 44.2701 64.9058 44.7785 64.7753C45.2846 64.6379 45.5961 64.3653 45.4999 64.0149C45.3923 63.6188 44.8862 63.6027 44.3205 63.6462C43.4892 63.6943 42.2136 63.6256 41.8609 62.3317C41.5609 61.2302 42.3395 60.4355 43.5235 60.1126C44.2083 59.9248 44.8106 59.95 45.5755 60.2088C45.6762 60.2408 45.7014 60.3027 45.6671 60.3897L45.3762 61.2874C45.3419 61.3744 45.2823 61.4065 45.193 61.3813C44.7167 61.2302 44.2289 61.2187 43.7915 61.3378C43.2304 61.4912 43.0724 61.7386 43.1502 62.0248C43.2464 62.3729 43.5991 62.3798 44.3045 62.3569C45.4701 62.3363 46.4572 62.4508 46.7778 63.6256C47.0801 64.7363 46.3976 65.6386 45.0281 66.0119H45.0213Z" fill="white"/>
<path d="M50.4987 62.4699L52.5987 61.3133C52.6835 61.2675 52.7499 61.2859 52.7934 61.366L53.2308 62.1584C53.2789 62.2454 53.2606 62.3118 53.1758 62.3576L50.0636 64.0706C49.9788 64.1165 49.9124 64.0981 49.8643 64.0111L47.1711 59.1217C47.123 59.0347 47.1414 58.9683 47.2261 58.9225L50.2262 57.2713C50.3109 57.2255 50.3773 57.2438 50.4254 57.3308L50.8628 58.1232C50.9063 58.2034 50.888 58.2698 50.8033 58.3156L48.8154 59.4103L49.3582 60.3973L51.1124 59.4332C51.1972 59.3874 51.2636 59.4057 51.3071 59.4858L51.7353 60.2645C51.7789 60.3446 51.7605 60.411 51.6758 60.4568L49.9216 61.4233L50.501 62.4744L50.4987 62.4699Z" fill="white"/>
<path d="M55.9417 60.3866C55.8707 60.4531 55.802 60.4485 55.7333 60.3775L51.9294 56.2919C51.863 56.2209 51.863 56.1499 51.934 56.0835L52.7195 55.3507C52.7721 55.3003 52.8363 55.2865 52.905 55.3117L55.0348 56.0125C55.7378 56.2576 56.4455 56.5324 56.8669 56.711L56.8783 56.6881C56.3264 56.1797 55.7882 55.6461 55.3165 55.1423L54.3134 54.0636C54.247 53.9903 54.247 53.9216 54.318 53.8552L55.0508 53.1728C55.1149 53.1132 55.1836 53.1155 55.2523 53.1865L59.0562 57.2744C59.1226 57.3476 59.1226 57.4164 59.0562 57.4759L58.2707 58.2064C58.2181 58.2568 58.1539 58.2706 58.0806 58.25L56.102 57.666C55.4264 57.4736 54.5722 57.1118 54.1119 56.9011L54.1004 56.924C54.6684 57.4278 55.2981 58.0209 55.7905 58.5523L56.6699 59.4981C56.7363 59.5714 56.7363 59.6401 56.6699 59.6996L55.9371 60.3821L55.9417 60.3866Z" fill="white"/>
<path d="M23.6657 19.7748C23.5695 19.8367 23.5031 19.8115 23.4802 19.6993L22.0557 13.9556C22.0443 13.8755 22.0626 13.8137 22.1244 13.7747L23.1756 13.0991C23.2374 13.0579 23.3084 13.0625 23.3702 13.1106L28.0054 16.7885C28.097 16.8549 28.1016 16.9214 27.9986 16.9901L27.0779 17.5809C27.0024 17.629 26.9314 17.6267 26.865 17.5695L26.0657 16.8893L24.3848 17.9702L24.6641 18.9825C24.687 19.0649 24.6619 19.1313 24.5932 19.1748L23.6657 19.7703V19.7748ZM23.4137 14.6564C23.5626 15.2061 23.8443 16.1015 24.0481 16.8297L25.1611 16.1129C24.5725 15.6412 23.8695 15.016 23.4389 14.6381L23.4115 14.6564H23.4137Z" fill="white"/>
<path d="M29.5835 16.3377C29.4896 16.3652 29.4277 16.3308 29.4003 16.2346L27.8773 10.8643C27.8498 10.7681 27.8842 10.7086 27.9804 10.6811L29.0315 10.3834C29.1025 10.3628 29.1667 10.3788 29.217 10.4338L30.8133 12.0231C31.3331 12.559 31.8438 13.1247 32.1392 13.475L32.1598 13.4613C31.9011 12.7582 31.6629 12.0391 31.4751 11.375L31.0743 9.95971C31.0469 9.86353 31.0812 9.80398 31.1774 9.7765L32.1576 9.4994C32.2446 9.47421 32.3064 9.50856 32.3316 9.60474L33.8545 14.9751C33.882 15.069 33.8477 15.1308 33.7606 15.156L32.7095 15.4537C32.6385 15.4743 32.5744 15.4583 32.5171 15.4056L31.0056 13.988C30.4858 13.5117 29.8835 12.8017 29.5651 12.4056L29.5445 12.4193C29.8216 13.1269 30.1125 13.9422 30.3094 14.6384L30.6621 15.8797C30.6896 15.9759 30.6552 16.0354 30.5682 16.0606L29.588 16.3377H29.5835Z" fill="white"/>
<path d="M36.0645 14.881C35.9661 14.881 35.918 14.8284 35.918 14.7299L36.0119 9.14657C36.0119 9.04809 36.0645 9 36.163 9L38.1852 9.03435C39.502 9.05725 40.5028 9.66413 40.4753 11.368L40.4547 12.6756C40.4272 14.3864 39.4058 14.936 38.089 14.9154L36.0668 14.881H36.0645ZM37.26 13.6581L38.1234 13.6718C38.7577 13.6833 39.0829 13.3993 39.0944 12.71L39.1173 11.2787C39.1287 10.5871 38.8127 10.2779 38.1806 10.2687L37.3172 10.255L37.26 13.6604V13.6581Z" fill="white"/>
<path d="M45.2876 16.2384C45.2166 16.2155 45.1708 16.1674 45.1593 16.0941L44.6257 13.9711L44.1242 13.8131L43.5814 15.5467C43.5517 15.6406 43.4898 15.6727 43.3959 15.6429L42.4158 15.3361C42.3219 15.3063 42.2898 15.2444 42.3196 15.1506L43.9868 9.82144C44.0166 9.72755 44.0784 9.69549 44.1723 9.72526L46.08 10.323C47.422 10.7421 47.9395 11.7062 47.5754 12.8673C47.3189 13.6826 46.7349 14.12 45.9265 14.1704L46.5884 16.4628C46.6136 16.575 46.5609 16.6346 46.4418 16.5979L45.2876 16.2361V16.2384ZM44.9303 11.2413L44.4677 12.7162L45.212 12.9497C45.8006 13.133 46.1143 12.9818 46.2746 12.4734C46.4326 11.9719 46.2632 11.6604 45.6746 11.4749L44.9303 11.2413Z" fill="white"/>
<path d="M47.6752 17.1557C47.579 17.0915 47.5767 17.0205 47.6706 16.9541L52.363 13.3518C52.4317 13.3083 52.4959 13.3014 52.5577 13.3426L53.5974 14.0365C53.6592 14.0777 53.6844 14.1441 53.6638 14.2197L52.1478 19.9359C52.1226 20.0481 52.063 20.0778 51.96 20.0091L51.0508 19.4023C50.9752 19.3519 50.95 19.2855 50.9752 19.203L51.2775 18.1999L49.6149 17.0915L48.7996 17.7534C48.7332 17.8083 48.6622 17.8106 48.5935 17.7648L47.6774 17.1534L47.6752 17.1557ZM52.2646 14.8793C51.8203 15.2342 51.1126 15.8503 50.5286 16.3289L51.6302 17.0618C51.8294 16.3335 52.118 15.4404 52.292 14.8953L52.2646 14.877V14.8793Z" fill="white"/>
<path d="M47.3411 39.5029L49.6174 22.927C49.6174 22.927 49.3518 20.4377 46.9701 20.2797C46.9701 20.2797 44.1097 19.698 43.6334 23.511C43.157 27.3241 42.0967 35.9029 42.0967 35.9029L39.4493 22.1873C39.4493 22.1873 39.1837 20.227 36.0073 20.5453C32.8309 20.8636 33.8362 24.94 33.8362 24.94L34.7889 30.8188C34.7889 30.8188 34.0469 29.2821 31.5576 29.4951C29.0682 29.7058 29.4392 33.2555 29.4392 33.2555C29.4392 33.2555 28.3262 31.8264 25.9445 32.3555C23.5605 32.8845 24.0918 36.0082 24.0918 36.0082L24.7811 40.7739L24.8864 47.8161C24.8864 47.8161 25.3628 52.8475 28.9628 55.1765C32.5629 57.5056 34.2049 57.7185 36.4286 57.6659C38.6523 57.6132 42.5707 57.0842 45.2181 53.3765C47.8655 49.6688 47.4945 45.9634 47.4945 45.9634L47.3365 39.5029H47.3411Z" fill="#D2E9F7"/>
<path d="M46.9641 19.7367C46.0092 19.6153 45.0702 19.8764 44.3145 20.4741C43.561 21.0718 43.0893 21.926 42.9908 22.8833L41.9305 33.0171L40.2312 22.865C40.0709 21.91 39.5487 21.0741 38.7586 20.513C37.9685 19.9519 37.0067 19.7344 36.0517 19.8993C35.1013 20.0641 34.2723 20.5863 33.7158 21.3718C33.1593 22.1573 32.9417 23.1146 33.102 24.065L34.0066 29.4033C33.3127 28.9796 32.4677 28.7941 31.6043 28.9452C29.9737 29.2292 28.8058 30.6147 28.7302 32.2041C27.9997 31.7415 27.1363 31.5697 26.2775 31.7186C24.3904 32.0461 23.124 33.8484 23.4515 35.7354L24.2187 40.1439C24.2164 40.1668 24.2141 40.1874 24.2141 40.2103V46.3868C24.2141 48.0013 24.5301 49.5655 25.153 51.0403C25.7553 52.4648 26.6164 53.7426 27.7134 54.8396C28.8104 55.9366 30.0882 56.8 31.5127 57.4C32.9875 58.0229 34.5517 58.3389 36.1662 58.3389C37.7808 58.3389 39.3449 58.0229 40.8197 57.4C42.2442 56.7977 43.5221 55.9366 44.6191 54.8396C45.716 53.7426 46.5794 52.4648 47.1794 51.0403C47.8023 49.5655 48.1184 48.0013 48.1184 46.3868V40.8699L50.0329 23.6596C50.1405 22.7276 49.8795 21.8092 49.3024 21.0695C48.723 20.3321 47.8939 19.8603 46.9641 19.7412V19.7367ZM36.2601 21.1039C36.8922 20.9939 37.5288 21.1382 38.051 21.5092C38.5731 21.8802 38.9212 22.4321 39.0266 23.0642L41.406 37.2881H36.583L34.3089 23.8566C34.0891 22.5604 34.9639 21.3237 36.2601 21.0993V21.1039ZM31.8127 30.1498C33.0356 29.9369 34.2013 30.759 34.4143 31.9796L35.3532 37.3775C33.7753 37.7347 32.5936 39.1477 32.5936 40.831C32.5936 40.8447 32.5936 40.8584 32.5936 40.8699C31.8264 40.6157 31.2356 39.9561 31.0913 39.1202L29.9829 32.7491C29.7699 31.5262 30.5921 30.3605 31.8127 30.1475V30.1498ZM26.4882 32.9232C26.6187 32.9003 26.7492 32.8888 26.8775 32.8888C27.3355 32.8888 27.7844 33.0285 28.1668 33.2987C28.6592 33.6446 28.9844 34.1598 29.0875 34.753L29.8844 39.3332C29.9875 39.9241 29.8547 40.5218 29.5088 41.0119C29.163 41.5043 28.6478 41.8294 28.0546 41.9325C27.4638 42.0356 26.866 41.9027 26.376 41.5569C25.8836 41.2111 25.5584 40.6958 25.4553 40.1027L24.6584 35.5225C24.4454 34.2995 25.2675 33.1339 26.4882 32.9209V32.9232ZM46.8977 46.3845C46.8977 47.8341 46.6138 49.238 46.055 50.5617C45.5145 51.8396 44.7404 52.9869 43.7557 53.9717C42.7709 54.9564 41.6236 55.7305 40.3457 56.2709C39.0243 56.8297 37.6182 57.1137 36.1685 57.1137C34.7189 57.1137 33.315 56.8297 31.9913 56.2709C30.7134 55.7305 29.5661 54.9564 28.5813 53.9717C27.5966 52.9869 26.8225 51.8396 26.2821 50.5617C25.7233 49.2403 25.4393 47.8341 25.4393 46.3845V42.3791C25.5149 42.4409 25.5904 42.5005 25.6729 42.5577C26.2637 42.9745 26.9554 43.1921 27.663 43.1921C27.8622 43.1921 28.0638 43.1737 28.2653 43.1394C29.1791 42.9814 29.976 42.4753 30.5096 41.7172C30.6333 41.5432 30.7386 41.3577 30.8257 41.1676C30.9081 41.25 30.9928 41.3302 31.0844 41.4058C31.5929 41.8294 32.2112 42.0974 32.8616 42.1821C33.3929 43.4669 34.6593 44.3738 36.1342 44.3738H38.7449C38.2846 44.644 37.838 44.9761 37.4281 45.3814C36.1845 46.6135 35.5548 48.2693 35.5548 50.3029C35.5548 50.6418 35.8296 50.9144 36.1662 50.9144C36.5029 50.9144 36.7777 50.6395 36.7777 50.3029C36.7777 48.6105 37.2838 47.2502 38.2823 46.2563C40.1236 44.4264 43.0824 44.3761 43.2679 44.3738H43.2816C43.6183 44.3738 43.8908 44.1012 43.8931 43.7646C43.8931 43.4279 43.6229 43.1531 43.2862 43.1508C43.2793 43.1508 43.2679 43.1508 43.2473 43.1508H36.1273C34.8494 43.1508 33.8097 42.1111 33.8097 40.8332C33.8097 39.5554 34.8494 38.5156 36.1273 38.5156H42.1274H44.571C45.8489 38.5156 46.8886 39.5554 46.8886 40.8332V46.3845H46.8977ZM48.8191 23.5176L47.1634 38.4126C46.5176 37.7233 45.5992 37.2904 44.5801 37.2904H42.7137L44.2068 23.0092C44.2733 22.384 44.5801 21.823 45.0748 21.4313C45.5695 21.0397 46.1855 20.8703 46.8084 20.9481C47.4176 21.026 47.9603 21.3352 48.3405 21.8184C48.7184 22.3016 48.8901 22.9039 48.8191 23.5154V23.5176Z" fill="#0078C0"/>
</svg>
