<?xml version="1.0" encoding="utf-8"?>
<svg width="135px" height="157px" viewBox="0 0 135 157" version="1.1" xmlns:xlink="http://www.w3.org/1999/xlink" xmlns="http://www.w3.org/2000/svg">
  <desc>Created with Lunacy</desc>
  <defs>
    <path d="M3.43857e-15 0L134.771 0L134.771 124.491L3.43857e-15 124.491L3.43857e-15 0Z" transform="translate(0.0048125 0.1287962)" id="path_1" />
    <path d="M0 0L329 0L329 280L0 280L0 0Z" transform="translate(-97 -62)" id="path_2" />
    <path d="M0 0L22.3668 0L22.3668 22.3668L0 22.3668L0 0Z" transform="translate(0.1033588 0.04566375)" id="path_3" />
    <clipPath id="mask_1">
      <use xlink:href="#path_1" />
    </clipPath>
    <clipPath id="mask_2">
      <use xlink:href="#path_2" />
    </clipPath>
    <clipPath id="mask_3">
      <use xlink:href="#path_3" />
    </clipPath>
  </defs>
  <g id="Heart-symbol">
    <g id="Group-3">
      <path d="M3.43857e-15 0L134.771 0L134.771 124.491L3.43857e-15 124.491L3.43857e-15 0Z" transform="translate(0.0048125 0.1287962)" id="Clip-2" fill="none" stroke="none" />
      <path d="M0 0L329 0L329 280L0 280L0 0Z" transform="translate(-97 -62)" id="Rectangle" fill="none" stroke="none" />
      <g clip-path="url(#mask_1)">
        <path d="M67.2514 21.9882C72.7213 9.05245 85.1972 0 99.7061 0C119.249 0 133.321 16.728 135.093 36.6561C135.093 36.6561 136.057 41.5983 133.957 50.5051C131.088 62.6359 124.363 73.4169 115.284 81.6372L67.2514 124.491L20.0378 81.6372C10.9584 73.4169 4.23336 62.6359 1.3647 50.5051C-0.736023 41.5983 0.214515 36.6561 0.214515 36.6561C1.98716 16.7145 16.0729 0 35.6155 0C50.1243 0 61.7948 9.05245 67.2514 21.9882" transform="translate(4.033044E-05 0.1287962)" id="Fill-1" fill="#053A53" stroke="none" />
      </g>
    </g>
    <g id="Group-6" transform="translate(56.5125 133.7875)">
      <path d="M0 0L22.3668 0L22.3668 22.3668L0 22.3668L0 0Z" transform="translate(0.1033588 0.04566375)" id="Clip-5" fill="none" stroke="none" />
      <g clip-path="url(#mask_3)">
        <path d="M22.3668 11.1834C22.3668 17.3599 17.3598 22.3668 11.1834 22.3668C5.00693 22.3668 0 17.3599 0 11.1834C0 5.00706 5.00693 0 11.1834 0C17.3598 0 22.3668 5.00706 22.3668 11.1834" transform="translate(0.1033588 0.04566375)" id="Fill-4" fill="#053A53" stroke="none" />
      </g>
    </g>
  </g>
</svg>