<svg width="103" height="76" viewBox="0 0 103 76" fill="none" xmlns="http://www.w3.org/2000/svg">
<path d="M51 75C71.4345 75 88 58.4345 88 38C88 17.5655 71.4345 1 51 1C30.5655 1 14 17.5655 14 38C14 58.4345 30.5655 75 51 75Z" fill="#004C6C" stroke="#0078C0" stroke-width="2"/>
<path d="M23.5823 33.6922L21.1392 37.7378L24.9059 49.1045L30.6829 38.1722C30.6829 38.1722 40.7465 41.7118 41.177 41.3984C41.6074 41.0849 48.4019 39.8359 48.4019 39.8359L53.6738 32.5L65.0387 33.8576L73.4355 28.2397L72.5672 18.3787L63.3643 21.4122L59.6623 20.2916L55.7488 23.3647L55.9702 27.2449L48.4119 31.6262L44.8815 29.4417L37.0694 31.6237L34.8825 30.4538V24.6112L28.0034 25.29L23.5798 33.6922H23.5823Z" fill="#0078C0"/>
<path d="M102.294 27.7832L102.284 27.7091L102.291 27.6474L102.301 27.2401L102.281 27.1093L102.291 26.9982V26.591L102.219 26.0973L101.649 24.7224L100.211 24.6163L99.6267 24.6582L97.9101 24.9051L97.6115 24.915L96.987 25.0359L96.5865 25.068L94.7429 25.3642L94.2429 25.4358H94.0413L91.7151 25.7715L91.5708 25.8134L91.4638 25.8085L90.4463 25.9541L89.7024 26.1713L89.5083 26.3713L88.538 26.2997L87.9534 26.3417L86.2367 26.5885L85.9381 26.5984L85.3137 26.7193L84.9131 26.7514L83.0696 27.0476L82.5695 27.1192H82.368L80.0417 27.4549L79.8999 27.4968L79.7929 27.4919L78.7729 27.64L78.029 27.8572L77.198 28.7137L76.9219 29.6566V29.669L76.6009 29.4542L76.3546 29.3061L76.1083 29.0864L75.6356 28.8791L74.9838 28.5706L74.3145 28.3706L73.8766 28.2916L73.6801 28.2966L73.4413 28.2447L72.782 28.2571L72.4759 28.2719L72.2719 28.267L71.5479 28.3311L71.1175 28.4299L70.6498 28.5311L70.1323 28.694L69.774 28.7828L69.3163 28.9778L69.1496 29.0297L68.5077 29.3012L68.0051 29.6468L67.5921 29.975L67.5225 30.0417L67.3185 30.1528L66.699 30.7254L66.2337 31.3894L66.2088 31.4289L65.9625 31.6634L65.6391 32.3397L65.4674 32.7371L65.2286 33.2382V33.2826L65.1689 33.174L65.0544 32.9222L64.7957 32.5248L64.5643 32.1052L64.1812 31.7745L64.0195 31.614L63.7408 31.3548L63.1661 30.9797L62.5118 30.7427L62.4048 30.7155L62.0888 30.5551L61.5141 30.4786L60.9344 30.4539H60.31H59.8049L59.5636 30.4885L59.1332 30.4934L58.5709 30.5749L58.2699 30.639H58.1255L55.976 30.95L55.874 30.9821L55.5804 31.0019L55.155 31.0981L53.3562 31.3573L52.5327 31.925L52.4556 31.8016L50.9578 31.651L50.5846 31.7473L49.985 31.7745L49.5173 31.9102L48.9326 31.9941L48.8779 32.0139L48.7635 32.0188L47.8504 32.1496L47.0891 32.2163L46.0292 32.7075L45.4719 33.7565L45.4495 33.8602L45.3376 34.0675L44.8002 33.1962L43.5836 32.7964L42.8198 32.9074L42.3919 32.9395L42.0933 32.9815L41.6206 33.0753L41.2673 33.1L40.5632 33.2012L39.9238 33.2481L39.6775 33.3567L39.0978 33.4406L38.2196 34.3144L38.0529 35.2375L38.0455 35.9065L38.0355 36.3903L38.0455 36.4569L37.8962 36.2446L37.7842 35.9953L37.5553 35.7164L37.4608 35.593L37.2419 35.2178L36.5079 34.7266L35.8038 34.3341L34.9878 34.1712H34.933L34.7788 34.0848H34.2563L34.0697 34.0626L33.7986 34.0577H33.2363L33.1069 34.0774L32.9427 34.0478L31.95 34.0725L31.3529 34.1589L30.8205 34.265L30.3229 34.3366L29.9447 34.4477L29.5641 34.5958L28.9521 34.7957L28.1858 35.2598L28.0091 35.3807L27.4991 35.709L27.1483 36.0965L26.7079 36.6815L26.4467 37.1209L26.3621 37.2863L26.0362 37.654L25.8869 38.3674L25.7849 38.7524L25.6804 39.1548L25.561 39.7521L25.5013 40.189L25.4192 40.7345L25.2923 41.3763L25.2649 41.6947L25.1903 41.9736V42.376V42.4327L25.1605 42.6574V42.6968L25.0883 42.9141L25.1132 43.4423L25.1082 43.6077L25.0883 43.7582L25.0062 44.5728L25.0361 44.7752L25.0311 44.7949L24.949 44.242L24.8345 43.8594L24.7798 43.4818V43.2251L24.6654 42.6919L24.6032 42.2723L24.4489 41.6577L24.3867 41.3812L24.3394 41.0529L24.1603 40.0261L24.0508 39.2733L23.9687 39.1128L23.909 38.713L23.4662 36.6865L22.3516 36.1163L21.6823 35.9583L20.814 36.0842L20.7991 36.0891L20.6896 36.0743L20.1547 36.1508L19.6223 36.257L19.1322 36.3285L18.8983 36.3853L18.443 36.4273L17.9952 36.4915L16.7065 36.8691L16.4502 38.0909L16.4054 38.2267L16.3507 38.434L16.1939 38.903L16.0074 39.409L15.9053 39.9743L15.868 40.0533L15.6516 40.6309L15.5993 41.006L15.5272 41.2233L15.4998 41.4257L15.353 41.8626L15.2585 42.2131L15.2386 42.3488L15.1689 42.492L15.0495 42.8499L14.8455 43.7508L14.5892 44.2445L14.5519 44.8122L14.4773 45.0615L14.4001 45.3799L14.3852 45.5502L14.2733 45.7675L14.231 46.2735L14.0668 46.7128L13.9946 47.2114L13.8727 47.5447L13.7831 47.9544L13.7757 47.8359L13.7807 47.399L13.7533 47.2114V47.125L13.8976 46.8239L13.7906 46.1007L13.8453 45.8933L13.8006 45.5897L13.8279 45.3849L13.8229 45.3429L13.8603 45.2466V44.4691L13.8254 43.9829L13.8155 43.9113L13.8304 43.7434L13.9548 42.5068L13.9299 42.3389L13.9672 42.0699L13.9747 41.7515L13.9498 41.09L13.9772 40.9443V40.6111L13.9822 40.3198L13.9498 40.1051V39.9052L13.9424 39.8509L13.9896 39.5053L13.813 38.9549L13.41 37.7676L11.9968 37.4294H11.6137L11.4146 37.4097L9.97909 37.617L9.63576 37.6368L8.31467 37.8268L8.06587 37.891L6.41886 38.128H6.33925L5.29432 38.1576L4.65492 38.3699L4.3489 38.3921L3.89859 38.4908L3.30895 38.5747L2.26651 39.0264L1.86595 39.7521L1.68184 40.2186L1.57486 40.811L1.58232 41.2652L1.61218 41.6108L1.51017 41.9934L1.56491 42.3661L1.55993 42.571V42.8227L1.5674 43.6867L1.76892 44.3679L2.62974 45.5947L3.7717 45.5725L4.21953 45.5502L6.33179 45.2466L6.34423 45.3256L6.33179 45.4935L6.27954 45.8761L6.32183 46.1599V46.3599L6.3293 46.4142L6.31188 46.4833L6.29944 47.0312V47.1176L6.27456 47.246L6.24471 47.8063L6.28452 48.0803L6.32183 48.606L6.29944 48.769L6.30691 49.0972V49.1886L5.86157 49.1565L5.68244 49.0232L3.98815 49.2207L3.24426 49.3268L3.2169 49.3416L3.16216 49.3465L2.76658 49.3589L2.08986 49.5218L1.3808 49.623L1.05488 49.9686L0.58964 50.2006L0 51.3188L0.0447828 52.1234L0.0821017 52.5282L0 53.1354L0.0621983 53.8192L0.102005 54.3005L0.21645 55.2582L0.221426 55.51L0.328407 56.2406L0.4329 56.6948L0.676717 57.6105L0.714036 57.6821L0.723988 57.7438L0.955366 58.3856L1.08474 58.5707L1.15191 58.783L1.39075 59.2545L1.97044 59.911L2.33617 60.2492L2.59491 60.4639L2.92581 60.8046L3.71448 61.16L4.27427 61.3624L4.68726 61.4562L4.79673 61.4932L5.21222 61.592L5.6476 61.6685L6.15514 61.6858L6.4736 61.671H6.7622L7.69517 61.5352L8.2674 61.4167L8.96899 61.2069L9.54122 60.9749L9.78255 60.8539L10.1483 60.7058L10.4618 60.4689L10.6782 60.3504L11.3325 59.8493L11.5291 59.6222L11.855 60.4072L13.3428 60.5182L15.4724 60.2418H15.6292L16.2835 60.1924L16.5298 60.1233L17.734 59.9925L18.5923 59.2224L18.8162 58.6571L18.9655 58.3066L19.0227 57.85L19.0874 57.5859L19.3088 56.9663L19.381 56.5714L19.692 56.5343L19.7019 56.7787L19.8039 57.1835L19.9209 57.7636L20.2766 58.7583L21.4758 59.405L22.3939 59.2717L22.8492 59.2421L23.2746 59.136L23.3517 59.1162L23.5732 59.1039L23.9065 59.057L24.5235 58.9385L24.7748 58.9015L25.1256 58.8941L25.367 58.825C25.4142 58.82 25.4615 58.8151 25.5088 58.8102C25.6829 58.7855 25.8521 58.7386 26.0113 58.6744L26.2477 58.5781L26.4467 58.4177C26.907 58.045 27.1483 57.497 27.1458 56.9046L27.31 57.0576L27.9469 57.4131L28.1161 57.4921L28.3077 57.6031L28.6013 57.7241L28.9521 57.9388L29.584 58.0524L30.104 58.1684L30.3528 58.1733L30.614 58.2079L30.9971 58.1906H31.1489H31.4126L31.741 58.1733H32.0197L32.2411 58.1412L32.669 58.1264L33.097 57.9759L33.2935 57.9314L33.8433 57.8524L34.331 57.6648L34.6768 57.5562L35.0525 57.4032L35.8884 57.0798L36.3163 56.8207L36.9284 56.3048L37.4757 55.6778L37.7295 55.2681L37.7842 55.9568L39.4287 56.8478L40.1776 56.6627L40.3493 56.6578L41.4912 56.4924L41.8122 56.4233L42.1879 56.4011L42.5063 56.3196L43.4443 56.1838L44.8002 55.4606L44.9719 53.7797L44.9345 53.5329L44.9544 53.4415L45.0241 52.9207L45.2828 53.4884L45.6137 54.0858L45.8252 54.6214L46.6661 55.547L47.93 55.5742L48.5669 55.4532H48.7286L49.5347 55.3372L49.7586 55.2804L50.515 55.1965L51.3111 55.083L52.9357 54.7769L53.0775 54.8633L54.0752 54.6633H54.1747L54.7519 54.6164L57.1801 54.2659L58.5908 53.8562L58.75 52.274L58.7426 51.8741L58.7898 51.6643V51.4323L58.8222 51.257V50.9979L58.9341 50.7634L58.8271 50.0303L58.8495 49.5983L58.8346 49.4947L58.8595 49.4058V49.0701L58.8819 48.8356L58.9167 48.5641L58.9242 48.258L58.964 48.0309L59.0088 47.3546L58.9814 47.1695L59.0063 47.0263V46.6487L59.1829 46.6314L60.1258 46.4265L60.5189 46.313L60.8996 46.2266L61.4121 46.0637L62.049 45.7601L62.3824 45.5453L62.676 45.4096L63.4572 44.8715L63.6612 44.5407L64.0319 44.163L64.1986 43.8397V44.0174L64.216 44.126L64.1712 44.4568L64.2185 45.3158L64.2683 45.6589L64.2384 45.8539L64.318 46.3969L64.2732 46.7301L64.5544 47.6557L64.5817 47.7446L64.6962 48.2605L64.8056 48.4752L64.8629 48.6678L65.0445 49.0257L65.1017 49.2083L65.139 49.27L65.1838 49.5687L65.8108 50.3117L65.9277 50.4326L66.1168 50.7041L66.3332 50.8646L66.4029 50.9485L67.0821 51.5236L67.8559 51.9951L68.4231 52.2518L68.8859 52.432L69.6596 52.5208L69.8586 52.5159L70.5503 52.6196L70.9409 52.6072H71.3016L71.6873 52.5208L72.4834 52.4986L73.4039 52.237L73.7075 52.1062L73.8567 52.0617L74.2946 51.9013L74.4837 51.8248L74.7822 51.7384L75.7675 51.183L75.9988 50.9534L76.3049 50.6795L76.7801 50.2055L76.9194 49.9784L77.0164 49.8698L77.5911 49.1047L77.6384 48.8455L77.7479 48.6159L77.9394 48.2358L78.131 47.868L78.3201 47.204L78.5465 46.5252L78.539 46.3796L78.5838 46.2957L78.6883 45.449L78.6584 45.2417L78.7903 44.7925L78.7754 44.4963L78.9819 43.699L78.8973 43.4349L78.9645 42.9462L79.0615 42.6549V42.097L79.1038 41.7737L79.0515 41.4257V41.3047L79.0963 41.1739L79.1535 40.4753L79.1336 40.1347L79.161 39.8188V39.5078L79.2531 38.9277L79.2008 38.708L79.3003 38.3649L79.166 37.8318V37.696L79.1983 37.4393L79.1461 36.8123L79.1187 36.4495V36.1335L79.1237 35.8423L79.0416 35.2943L79.0615 35.1536L79.0515 34.9907L79.3153 34.9537L79.6014 34.9413L80.0592 34.8747L80.1114 34.8599L80.1288 34.9759L80.0791 35.282L80.0293 35.6423V36.0792L80.0343 36.099L79.9994 36.2471L80.0343 36.4865L79.9024 36.9382L80.0193 37.3258V37.3603L79.9547 37.7034V37.7133L79.8726 38.3254L79.9074 38.5673L79.8626 38.8586L79.9124 39.1943L79.7208 39.9397L79.8551 40.2335L79.8427 40.347L79.7606 40.7469L79.7108 41.1196V41.7219L79.6884 41.791L79.7258 42.3093L79.7059 42.4179L79.7009 43.035L79.6785 43.193L79.6536 43.6546L79.6014 44.1704L79.6362 44.4049L79.5715 45.1183L79.6312 45.3306L79.5466 45.7502L79.6088 46.1772L79.6188 46.3006L79.5864 46.4808L79.6213 46.9399L79.477 47.7397L79.5516 48.4925L79.5665 49.7464L81.1514 50.7807L81.7161 50.6992L82.1988 50.7856L82.7909 50.5462L85.3759 50.1734L86.6522 49.4157L86.8388 48.3888L86.8761 47.8335V47.4336L86.9234 46.703L86.998 45.7724L86.9358 45.5428L86.9408 45.4515L86.9632 45.2318L87.0204 44.6123L87.0577 44.1655V44.0273L87.11 43.6842L87.1323 43.151L87.1771 42.4673L87.1075 42.2353L87.1697 41.8872V41.6898L87.197 41.5318L87.2045 41.085L87.1697 40.853L87.1746 40.779L87.1995 40.3322L87.2393 39.7497L87.2294 39.6756L87.2493 39.5596L87.2319 39.3374L87.2592 39.2659L87.3339 38.5426L87.3065 38.128L87.3165 38.0959L87.3538 37.5356L87.3911 37.264L87.3861 36.9358L87.5055 36.4692L87.4483 36.0743V35.9731L87.4234 35.5165L87.4384 35.4177L87.6399 34.4131L87.5603 34.2749L87.5901 33.875V33.7936L87.9857 33.7368L88.2345 33.6726L88.3863 33.6504L88.7296 33.6381L90.1427 33.29L90.1502 33.2604L90.5732 33.3345L90.9886 33.2752L91.2747 33.2629L91.7325 33.1962L91.7848 33.1814L91.8022 33.2974L91.7524 33.606L91.7027 33.9639V34.4008L91.7076 34.4205L91.6728 34.5686L91.7076 34.808L91.5758 35.2598L91.6927 35.6473V35.6843L91.628 36.0274V36.0373L91.5459 36.647L91.5808 36.8889L91.536 37.1801L91.5857 37.5158L91.3942 38.2612L91.5285 38.5575L91.5161 38.671L91.4365 39.0684L91.3867 39.4411V40.0409L91.3643 40.1125L91.4016 40.6284L91.3817 40.737V41.3565L91.3569 41.5145L91.332 41.9736L91.2797 42.4895L91.3146 42.724L91.2499 43.4398L91.3096 43.6521L91.225 44.0717L91.2872 44.4987L91.2971 44.6197L91.2648 44.7999L91.3021 45.259L91.1578 46.0612L91.2325 46.814L91.2474 48.068L92.8322 49.1022L93.397 49.0207L93.8796 49.1071L94.4693 48.8677L97.0542 48.495L98.3305 47.7372L98.5171 46.7128L98.5544 46.1575V45.7576L98.6017 45.0294L98.6763 44.0964L98.6117 43.8668L98.6166 43.778L98.639 43.5558L98.6938 42.9363L98.7311 42.4895V42.3513L98.7833 42.0082L98.8057 41.475L98.8505 40.7938L98.7808 40.5617L98.843 40.2137V40.0138L98.8704 39.8583L98.8804 39.414L98.8455 39.1795L98.8505 39.1054L98.8754 38.6611L98.9152 38.0786L98.9052 38.0045L98.9251 37.8885L98.9077 37.6639L98.9351 37.5948L99.0097 36.8716L98.9799 36.4569L98.9898 36.4273L99.0271 35.867L99.0645 35.5954L99.0595 35.2672L99.1789 34.8006L99.1217 34.4082V34.307L99.0943 33.8503L99.1092 33.7516L99.3133 32.747L99.2312 32.6088L99.261 32.2138V32.1299L99.6566 32.0731L99.9054 32.009L100.057 31.9867L100.4 31.9744L101.816 31.6239L102.242 30.1231L102.204 29.6073L102.291 29.0494L102.264 28.5903L102.291 28.3879L102.304 27.8078L102.294 27.7832ZM37.3513 46.0118L36.386 46.0711L34.9032 46.1945L34.2912 46.2833L33.4478 46.3722L32.465 46.6413L32.2038 47.0411V46.6807L32.2535 46.2044L32.2486 45.9353L32.3008 44.9504L32.3282 44.7925L32.8009 45.338L34.5275 45.3256L36.4855 45.0739L36.9682 44.9702L37.9036 44.7554L37.8912 44.9949L37.8962 45.4614V45.7206L37.9186 46.0168L37.8788 46.3451V46.4068L37.3463 46.0143L37.3513 46.0118ZM51.2613 48.4876L51.2439 48.4654L51.1046 47.9964L50.7463 47.6014L50.5398 47.1917L50.4378 47.0337L50.3831 46.8486L50.2239 46.5968L50.1866 46.4808L50.087 46.3006L50.0124 46.0316L49.7213 45.5725L49.5944 45.3775L49.4949 45.1677L49.4128 44.9677L49.072 44.2173L48.9003 43.8027L48.7311 43.5237L48.6615 43.3263L48.6167 43.2349L48.9177 42.687L49.1167 42.2451L49.1914 42.0477L49.3232 41.8181L49.5696 41.285L49.7462 40.9641L49.9378 40.5889L50.2537 39.9447L50.3931 39.6879L50.505 39.4535L50.724 39.1005L50.8309 38.8931L51.0822 38.5007L51.1494 38.2193L51.2987 37.9947L51.3633 37.8021L51.443 37.696L51.5524 37.4664L51.7987 37.0937L51.8983 36.7975L51.8784 37.1011L51.841 37.464L51.8933 38.0391V38.0663L51.8311 38.7944L51.9082 38.982L51.8734 39.3103L51.8659 39.6262L51.8784 39.7892L51.8684 39.8286L51.8012 40.3075L51.8435 40.9122L51.8734 41.1221L51.856 41.3417L51.8336 41.8823L51.8435 42.5241L51.8186 42.8943V43.0103L51.7888 43.2152V43.388L51.7465 43.6718L51.7813 44.1507L51.7316 44.3358V45.222L51.744 45.3701L51.6644 45.607L51.7117 45.9279L51.6793 46.1032L51.7067 46.2858L51.6072 46.587L51.6743 47.0535L51.6868 47.2485L51.6495 47.4928L51.5947 47.8014V48.2086L51.6022 48.3L51.5674 48.4012L51.5475 49.1022L51.54 49.0923L51.2564 48.4999L51.2613 48.4876Z" fill="#0078C0"/>
<path d="M6.42606 59.9783L6.13994 59.9907L5.82149 59.9808L5.55528 59.9339L5.25673 59.8623L5.13482 59.8228L4.7467 59.7364L4.35112 59.5933L3.92071 59.3983L3.75153 59.223L3.45547 58.9786L3.18926 58.7318L2.8086 58.2999L2.72899 58.1394L2.6245 57.8111L2.47771 57.6038L2.38068 57.3323L2.3558 57.1644L2.2737 57.004L2.08213 56.2882L2.00003 55.9278L1.91792 55.3675L1.91295 55.1404L1.79353 54.1284L1.75621 53.6767L1.71143 53.1682L1.79353 52.556L1.73879 51.9933L1.72138 51.6822L1.83333 51.465L2.07466 51.3441L2.19906 51.2108L2.39561 51.1812L2.98027 51.0405L3.23902 51.0331L3.66694 51.001L3.74655 50.9615L4.1695 50.8998L5.18955 50.7813L5.2219 50.806L5.48313 50.8257L5.58762 51.154L5.62743 51.4329L5.67719 52.3684L5.66226 52.8572L5.6747 53.341L5.71202 53.9926L5.7369 54.7603L5.80656 55.2366L5.88866 55.597L6.01306 55.8636L6.27678 56.0833L6.55045 56.187L6.86144 56.1425L7.22468 56.0611L7.50084 55.792L7.63768 55.5427L7.75461 55.1552L7.78198 54.7504L7.83671 54.3431L7.87652 53.6224L7.89642 53.3632L7.90389 53.0201L7.93126 52.6153L7.90638 52.4474L7.93374 52.2426V51.8698L7.97604 51.349L7.91882 51.1565L7.95116 50.9812L7.98599 50.4333L7.98101 50.0062L7.99097 49.4904V49.0905L7.98599 48.8634L8.01336 48.6585L7.98848 48.2907L7.95862 47.8958L7.93374 47.728L7.94867 47.4392L7.98101 47.2639V47.064L7.98848 46.7209L8.04321 46.5135L8.00341 46.2346V46.0347L7.97853 45.8668L8.00589 45.662L8.03326 45.2572L8.00838 45.0893L8.03575 44.8844L8.01087 44.5167L8.04321 44.3414L8.03824 43.9144L8.06063 43.4824L8.03575 43.3146L7.35406 43.3837L4.0252 43.8626L3.71172 43.8798L3.48283 43.8848L3.30121 43.6256L3.24399 43.4331L3.23902 42.8061V42.6062L3.24648 42.2631L3.2216 42.0952L3.27634 41.8879L3.3037 41.683L3.25892 41.1745L3.25394 40.9474L3.30121 40.6833L3.3858 40.4711L3.45298 40.3476L3.75153 40.2193L4.17448 40.1576L4.56508 40.0737L4.96315 40.044L5.56772 39.8416L6.3141 39.8194H6.51562L8.3766 39.5504L8.62539 39.4862L9.78228 39.3183L10.1256 39.2986L11.4218 39.111L11.5388 39.1233L11.5661 39.1184H11.7676L12.0662 39.19L12.1682 39.4887L12.2205 39.6516L12.1931 39.8564L12.218 40.0243V40.2242L12.2478 40.4192V40.592L12.2453 40.7919L12.213 40.9672L12.2428 41.762V41.9348L12.1831 42.3421L12.213 42.5371L12.106 43.5812L12.0737 43.9563L12.1035 44.1514L12.1284 44.5191V44.919L12.0463 45.1313L12.0836 45.383L12.0562 45.5879L12.0861 45.7829L12.0314 45.9903L12.1135 46.5506L12.0264 46.7357V47.1356L12.0239 47.3084L12.0538 47.5034V47.8761L12.0761 48.2439L12.009 48.5672L12.0289 48.9078L11.9642 49.2608L12.0015 49.9124L11.9219 50.3518L11.8945 50.5567L11.9244 50.7517V50.9245L11.892 51.1293L11.9169 51.4971L11.8572 51.6773L11.8174 52.1981L11.8348 52.5091L11.8746 52.7881L11.8224 53.025L11.8348 53.3089L11.7502 53.5212L11.8348 53.7087L11.7801 53.9161L11.7875 54.1728L11.8199 54.3974L11.7652 54.6048L11.795 54.7998L11.7104 55.012L11.7403 55.207L11.6656 55.4761L11.5811 55.8883L11.5363 56.1796L11.4641 56.4757L11.3522 56.693L11.2725 56.9324L11.1158 57.2409L11.0412 57.51L10.8844 57.8185L10.5063 58.1863L10.1356 58.6109L9.72008 58.9268L9.50612 59.0428L9.27225 59.2205L9.0558 59.3094L8.81447 59.4303L8.37908 59.6081L7.82676 59.7734L7.37893 59.8672L6.61763 59.9759H6.4161L6.42606 59.9783Z" fill="#D2E9F7"/>
<path d="M15.5472 58.556H15.3457L13.2832 58.825L13.0219 58.8053L12.9324 58.5905L12.9597 58.3857V58.2129L13.0841 57.8525L13.2558 57.4551L13.415 56.5739L13.5345 56.2135L13.6265 55.8581L13.838 55.1423L13.8977 54.7621L14.0495 54.2265L14.0818 54.0513L14.1938 53.8341L14.2858 53.4786L14.3182 53.3034V53.1034L14.3779 52.9232L14.4649 52.5382L14.5197 52.3308L14.659 51.9112L14.6864 51.7063L14.7063 51.4472L14.8132 51.2028L14.9327 50.8424L14.96 50.6376L15.072 50.2204V50.0476L15.1317 49.8403L15.1914 49.6601L15.276 49.2479L15.3357 49.0677L15.4477 48.2507L15.4999 48.0137L15.6442 47.6213L15.7164 47.1251L15.8408 46.7919L15.9005 46.6117L15.9328 46.2365L16.0448 46.0193L16.0771 45.6441L16.1119 45.496L16.2264 45.1085L16.2538 44.7037L16.3657 44.4865L16.4528 44.3013L16.5921 43.6818L16.6792 43.2967L16.7389 43.1165L16.8708 42.8401L16.9156 42.5488L16.9703 42.3415L17.1494 41.8009L17.1768 41.596L17.2365 41.4159L17.2688 41.2406L17.2962 41.0357L17.4206 40.7025L17.5102 40.5174L17.545 40.3693L17.6395 39.8411L17.7838 39.4486L17.963 38.908L18.0177 38.7007L18.0774 38.5205L18.1446 38.1971L18.3386 38.1404L18.6198 38.1009L19.1597 38.0515L19.4383 37.9824L19.8886 37.9182L20.421 37.8121L20.6748 37.7751L20.8813 37.8022L21.1301 37.738L21.5804 37.6739L21.7297 37.7084L21.9486 37.8195L22.2099 39.0092L22.2994 39.6238L22.3815 39.7843L22.4562 40.2878L22.6328 41.29L22.69 41.6824L22.7721 42.0428L22.9115 42.5957L22.9687 42.9882L23.0583 43.4029V43.6028L23.1478 44.2174L23.2623 44.6L23.3444 45.1603L23.429 45.5478V45.7206L23.5061 46.081L23.531 46.2489L23.6255 46.6932L23.7275 46.9918L23.8867 48.0828L23.9639 48.4136L24.0236 48.6333L24.1455 49.4725L24.3619 50.756L24.3918 50.951L24.4814 51.3657L24.5137 51.7903L24.5983 52.1778V52.3777L24.8098 53.4342L24.8346 53.602L24.9167 53.9624L24.974 54.1549L25.0362 54.5746L25.066 54.9695L25.1257 55.1892L25.163 55.4409L25.2825 56.0531L25.3695 56.6406C25.4143 56.7492 25.479 56.996 25.3496 57.0997C25.2402 57.1441 25.1531 57.1293 25.0386 57.1441L24.8446 57.2009L24.6157 57.2058L24.2201 57.2626L23.6031 57.3811L23.3767 57.4131L23.0334 57.4329L22.8393 57.4897L22.5607 57.5588L22.19 57.5835L21.767 57.6452L21.6426 57.5785L21.5456 57.307L21.4436 56.8084L21.3739 56.5319L21.3615 56.2481L21.1699 54.9325L21.1077 54.7128L20.4832 54.7745L20.023 54.7844L18.779 54.9349L18.0177 55.0435L17.9232 55.3718L17.7789 55.7643L17.7515 55.9692L17.6968 56.1765L17.6321 56.5295L17.4281 57.1021L17.3211 57.5464L17.2813 57.8673L17.2166 58.0204L17.132 58.2326L16.9802 58.3684L16.1866 58.4548L15.9652 58.5165L15.5372 58.5486L15.5472 58.556ZM20.4857 50.9856L20.635 50.8202L20.6052 50.4253L20.5454 50.2056L20.5405 49.9785L20.4335 49.2504V49.0504L20.3638 48.574L20.3862 48.342L20.2593 47.6756L20.1324 46.6092L20.013 45.5972L19.8911 44.9579L19.6772 45.0739L19.6174 45.4541L19.5428 45.923L19.498 46.2143L19.4234 46.6833L19.3438 46.9227L19.2716 47.2189V47.4188L19.187 47.6311L19.1398 47.8952L19.085 48.1026L19.0378 48.3667L18.9581 49.006V49.2059L18.8785 49.6453L18.7939 49.8576L18.7218 50.3537L18.6944 50.5586L18.6745 50.8177L18.6198 51.0251L18.8412 51.1658L19.0676 51.1337L19.3811 51.1164L19.6398 51.1065L20.4857 50.9856Z" fill="#D2E9F7"/>
<path d="M32.0838 56.4508L31.8873 56.4805H31.6858L31.3723 56.4977L31.1434 56.5027H30.9693L30.6831 56.5125L30.4766 56.4854H30.3025L29.9144 56.3941L29.5586 56.3299L29.3695 56.2139L29.0635 56.0855L28.9068 55.9942L28.7202 55.9078L28.3121 55.6807L28.1778 55.5573L28.0161 55.4388L27.7623 55.076L27.4563 54.7477L27.3195 54.3947L27.2398 54.2343L27.1304 53.8788L27.0458 53.6912L26.9687 53.1605L26.9089 52.9409L26.8716 52.6891V52.4892L26.7646 51.761L26.7074 51.1686L26.7025 50.9415L26.6726 50.5466V50.1467L26.6427 49.9517V49.7789L26.6179 49.1841L26.6726 48.7768L26.6079 48.5299L26.6303 48.2979L26.6701 47.977L26.6204 47.8413L26.6303 47.3254L26.7174 47.1403L26.6602 46.7478L26.6751 46.6589L26.6577 46.5479L26.6975 46.227L26.7099 45.911L26.7547 45.6198L26.7348 45.2791L26.7099 45.1113L26.7696 44.9311L26.7124 44.5386L26.7721 43.9586L26.7995 43.7537L26.8119 43.4378L26.7995 43.1539L26.8592 42.9737V42.7738L26.8866 42.5689L26.8915 42.3961V42.1962L26.9463 41.9889L26.9786 41.6137L27.0931 41.0262L27.1801 40.4412L27.2349 40.0339L27.3344 39.5329L27.4264 39.1774L27.5384 38.7603L27.6056 38.4369L27.7772 38.2419L27.934 37.9334L28.1181 37.6199L28.4564 37.1707L28.6057 37.0053L28.9466 36.7856L29.1033 36.677L29.6581 36.3388L30.1258 36.1858L30.4791 36.05L30.6732 35.9933L31.0961 35.9316L31.6286 35.8254L32.0789 35.7612L32.7954 35.744L33.0616 35.7909L33.3427 35.7514H33.7458L33.9199 35.7538L34.1264 35.781H34.328L34.4524 35.8476L34.7708 35.8575L35.1863 35.9414L35.5943 36.1685L35.9451 36.403L36.0222 36.5338L36.2014 36.7659L36.3059 36.8942L36.3905 37.0818L36.5721 37.341L36.6741 37.6396L36.7512 37.9704L36.8333 38.3308L36.898 38.5776L36.9876 38.9923L37.0771 39.6069L37.0896 39.8908L37.0672 40.1228L37.0722 40.5498L37.0821 41.0065L37.0722 42.1221L37.0473 42.3542L37.0124 43.1021L36.9154 43.2304L36.582 43.3069L36.1914 43.3909L34.4101 43.6204L33.5766 43.6254L33.3353 43.3464L33.2781 42.954L33.3054 42.7491L33.3452 42.2283V41.8284L33.4224 41.1891L33.3975 40.8213V40.4215L33.3353 40.0018L33.0915 39.523L32.7556 39.3996L32.3451 39.3453L32.0341 39.3897L31.7032 39.4934L31.4096 39.6489L31.2006 39.992L31.1409 40.1722L31.0862 40.3795L31.0439 40.8707L30.9568 41.2558L30.8573 41.7568L30.8822 41.9247L30.8175 42.2776L30.7951 42.7096L30.7603 43.0576L30.713 43.3218V43.5217L30.7105 43.6945L30.6831 43.8993V44.2992L30.6035 44.7386L30.5413 45.8913L30.5463 46.1184L30.499 46.5824V46.7824L30.4965 47.1551L30.4742 47.3871L30.4518 47.8191L30.5388 48.4065L30.4841 48.6139V48.8138L30.5165 49.0384V49.2384L30.4891 49.4432L30.5463 49.6358V50.2356L30.5811 50.4602L30.5538 50.865L30.5836 51.2599L30.6234 51.5388L30.6757 51.7018L30.7055 51.8968L30.8797 52.2991L31.1335 52.462L31.5763 52.541L32.0192 52.42L32.4421 52.3583L32.8004 52.0498L32.8924 51.8943L33.0442 51.3587L33.1288 50.9464L33.1885 50.5663V50.3935L33.1984 50.2504L33.2333 49.9023L33.2557 49.4704L33.2756 49.2112V49.0113L33.3626 48.6262L33.3776 48.3374L33.5418 48.0856L33.7632 48.0264L34.4996 47.9474L35.0918 47.861L36.485 47.745L36.8283 47.7253L37.0547 47.8931L37.1966 48.0733L37.2413 48.3818L37.209 48.5571L37.2388 48.7521V49.1248L37.2538 49.4358L37.2189 49.5839V49.7839L37.209 49.8999V50.4997L37.1791 50.6749L37.112 51.3981L37.0771 51.7462V51.9461L37.0498 52.151L36.9901 52.3312L36.8856 52.8026L36.7935 53.1581L36.7388 53.3654L36.6517 53.5505L36.5348 53.7381L36.475 53.9183L36.4427 54.0936L36.0944 54.6588L35.7237 55.0834L35.3132 55.4289L35.1291 55.54L34.42 55.814L34.0941 55.9473L33.7632 56.051L33.4099 56.1867L32.987 56.2484L32.6237 56.3299L32.3501 56.4262L32.0913 56.4336L32.0838 56.4508Z" fill="#D2E9F7"/>
<path d="M39.4016 54.9136L39.3693 54.489L39.3394 54.294L39.3941 54.0867L39.3369 53.8941L39.3693 53.5189V53.3462L39.4315 52.966L39.4016 52.771L39.3966 52.544L39.3668 52.349L39.3991 51.9738L39.3792 51.8331L39.3618 51.3221L39.4165 51.1148L39.3867 50.7199L39.419 50.5446L39.3941 50.3768L39.4538 49.9966L39.424 49.8016L39.4787 49.1944L39.5061 48.7896L39.5011 48.3626V47.5628L39.526 47.158L39.5509 46.926L39.5733 46.4941L39.6255 46.0572L39.5957 45.6622V45.4623L39.5907 45.0353L39.6205 44.4601L39.6479 44.0553L39.6429 43.8283V43.6283L39.6603 43.1692L39.6877 42.7644L39.6703 42.4534L39.6404 42.0585L39.7002 41.8783L39.6753 41.7104L39.7026 41.5056L39.6778 41.1378L39.7375 40.9576V40.5577L39.6802 40.3652L39.7151 40.0171L39.7424 39.8123L39.7176 39.6444L39.7449 39.4396L39.7201 39.2717L39.6902 38.8768L39.7225 38.7015L39.7176 38.4744L39.7225 37.7315L39.7823 37.3513L39.73 36.9885L39.7698 36.6676L39.7176 36.3048L39.725 35.9617L39.7325 35.4186L39.7798 35.1545L39.8793 35.0558L40.1331 35.0188L40.3221 34.9348L40.7202 34.9052L41.4243 34.804L41.8224 34.7744L42.3548 34.6683L42.5513 34.6386L42.9792 34.6066L43.4022 34.5448L43.6435 34.6238L43.758 34.8065L43.743 35.0953L43.7555 35.5791L43.7853 35.974L43.7704 36.4627L43.748 36.8947V37.0946L43.7729 37.6624L43.7505 37.8944L43.7306 38.1535L43.743 38.4374L43.7157 38.6423L43.7455 38.8373L43.7132 39.0125L43.6833 39.7876L43.6485 40.1356L43.6385 40.6515L43.7231 40.8391L43.9645 40.5182L44.0839 40.1578L44.3401 39.7506L44.472 39.4741L44.6088 39.2248L44.8054 38.9953L44.9049 38.6941L44.9397 38.546L45.1238 38.2325L45.2806 37.924L45.4697 37.6401L45.5742 37.3686L45.7956 36.907L46.0046 36.5639L46.0319 36.3591L46.1688 36.1098L46.4176 35.6457L46.6191 35.2458L46.8679 34.7818L47.0122 34.5893L47.0644 34.3523L47.246 34.0117L47.5147 33.8883L48.0273 33.8438L48.9005 33.718L49.1866 33.7056L49.3235 33.6562L49.8584 33.5797L50.244 33.4662L50.8162 33.4415L51.065 33.3773L51.4158 33.4119L51.5303 33.5945L51.3536 33.9623L51.2989 34.1697L51.1148 34.4831L50.9058 34.8287L50.7938 35.0459L50.6719 35.2064V35.3791L50.5749 35.5346L50.4182 35.8432L50.3336 36.0555L50.2341 36.3566L50.045 36.6405L49.9579 36.8256L49.8136 37.0181L49.734 37.2575L49.5449 37.5414L49.4727 37.8376L49.3309 38.0573L49.219 38.2745L48.9851 38.6497L48.8533 38.9261L48.7164 39.1754L48.383 39.8518L48.2263 40.1603L48.0223 40.533L47.781 41.0538L47.6192 41.3328L47.5147 41.6043L47.363 41.94L46.955 42.6854L46.7559 43.2852L46.853 43.5567L47.0595 43.9838L47.1565 44.2553L47.3481 44.5712L47.4824 44.8946L47.8233 45.645L47.9128 45.8597L48.0795 46.2077L48.2661 46.4941L48.4154 46.7286L48.4751 46.9482L48.592 47.1605L48.6443 47.3234L48.7935 47.5579L48.8508 47.7504L49.0374 48.0368L49.1991 48.3552L49.2837 48.5428L49.5573 48.8464L49.6146 49.0389L49.6394 49.2068L49.7813 49.3869L49.9479 49.735L49.9728 49.9028L50.249 50.2064L50.3137 50.4533L50.3709 50.6458L50.4804 50.8013L50.5127 51.0259L50.6271 51.2086L50.7316 51.3369L50.7914 51.5566L50.9207 51.8528L51.167 52.1614L51.3263 52.4526L51.5651 52.9043L51.6422 53.0352L51.6522 53.2919L51.0078 53.4128L50.3037 53.514L49.4255 53.6127L49.1767 53.6769L48.5846 53.7633H48.383L47.766 53.8818L47.4202 53.8744L47.2834 53.7238L47.1465 53.3708L46.7932 52.7365L46.4524 51.9861L46.2907 51.6677L46.1464 51.4604L46.0095 51.1098L45.925 50.9223L45.8453 50.7618L45.6463 50.3891L45.4771 50.0139L45.3154 49.6955L45.094 49.3573L44.9845 49.0019L44.9323 48.839L44.8178 48.6563L44.6312 48.37L44.6014 48.175L44.4148 47.8887L44.3551 47.669L44.2332 47.4296L44.1162 47.2173L43.7555 46.5261L43.5241 46.1312L43.4395 46.1436V46.3163L43.4121 46.5484V46.7483L43.3798 46.9235L43.4097 47.5184V47.8911L43.3997 48.2342V48.4342L43.4246 48.602L43.3972 49.0068L43.3723 49.2388L43.4022 49.6338L43.4072 49.8609L43.432 50.2286L43.3773 50.436L43.345 50.6112L43.3748 51.2061L43.3549 51.6652L43.3201 52.0133L43.2877 52.1885V52.3884L43.3126 52.7562L43.2579 53.1635L43.1907 53.4869L43.2405 53.8225L43.1808 54.4026L42.8872 54.5606L42.1533 54.6667L41.9045 54.7309L41.5611 54.7506L41.1705 54.8346L41.0013 54.8593L40.9118 54.8444L40.7177 54.9012L40.1828 54.9777L39.9241 54.9876L39.6454 55.0567L39.3941 54.921L39.4016 54.9136Z" fill="#D2E9F7"/>
<path d="M54.0909 52.9634H53.8894L53.3868 53.0646L53.1977 52.9486L53.1206 52.4179L53.1803 52.2377L53.1231 52.0452L53.1505 51.6404L53.1256 51.4725L53.1529 51.0677L53.1753 50.6358L53.2077 50.2606V50.0607L53.2425 49.7126V49.5127L53.245 49.3399L53.2624 48.6809L53.3221 48.5007L53.2973 48.1329V47.933L53.3296 47.7577L53.3893 47.3776V47.2048L53.3719 46.8642L53.352 46.7235L53.4515 46.4223L53.4067 46.1138L53.4391 45.9385L53.4092 45.7435L53.4689 45.5633L53.4366 45.1388V44.539L53.4913 44.3317L53.4863 44.1046L53.4565 43.7096L53.4838 43.5048V43.332L53.5162 43.1271V42.9543L53.546 42.5495L53.5411 42.3224L53.5361 41.8954L53.556 41.4363L53.5883 41.0611L53.5386 40.7254L53.5137 40.3576L53.5411 40.1528L53.5958 39.9454L53.5709 39.5776V39.4049L53.6207 38.9408L53.6033 38.6298L53.5585 38.5212L53.5908 38.146V37.9732L53.5485 37.4647L53.5734 37.2327L53.6008 36.8279L53.648 36.5638L53.6281 36.2232L53.6555 36.0183L53.6232 35.7937L53.6505 35.5888V35.3889L53.6257 35.221L53.653 35.0161L53.7003 34.5521V34.3522L53.6953 34.1251L53.7227 33.7203L53.7177 33.4932L53.7774 33.1131L53.9864 32.9699L55.4518 32.7576L55.815 32.6762L56.1857 32.6515L56.3499 32.5996L58.2408 32.3281H58.4423L58.8603 32.2393L59.2558 32.1825L59.6863 32.1776L59.9127 32.1455H60.2883H60.8929L61.3557 32.1652L61.5622 32.1924L61.7811 32.3034L61.9901 32.3578L62.3857 32.5009L62.6718 32.6885L62.8061 32.8119L63.0076 33.0119L63.2067 33.1822L63.3236 33.3945L63.545 33.7326L63.6296 33.9202L63.7864 34.2115L63.861 34.5151L63.9182 34.7076L64.0476 35.0038L64.06 35.2877L64.1496 35.7023L64.1795 35.8973L64.2516 36.201L64.269 36.512L64.2566 36.8279V37.0278L64.2914 37.6523V38.0522L64.2367 38.2595L64.2417 38.4866L64.1869 38.694L64.1819 38.8668L64.1496 39.042L64.1222 39.4468L64.07 39.6838L63.9854 40.096L63.8386 40.6612L63.7416 40.9895L63.5923 41.3548L63.4007 41.8115L63.2564 42.004L63.1072 42.3669L62.8857 42.6285L62.729 42.937L62.617 43.1543L62.2911 43.4875L62.1742 43.6751L61.8085 43.9268L61.5373 44.0527L61.1964 44.2724L60.766 44.4773L60.4351 44.581L60.0719 44.6624L59.6863 44.7759L58.905 44.9463L58.3652 44.9956L57.7457 45.0845L57.3177 45.1166L57.3252 45.1734V45.3733L57.273 45.6102L57.2978 45.978L57.263 46.1261L57.2879 46.4939V46.6667L57.2854 46.8666L57.2531 47.0419V47.2418L57.2779 47.4097L57.2506 47.8145L57.2033 48.0786L57.1958 48.4217L57.1685 48.6266L57.1336 48.9746V49.1745L57.0789 49.3819L57.1187 49.6608L57.0963 50.0927L57.1535 50.4852L57.064 50.6703L57.0963 50.895V51.0949L57.064 51.2701V51.4701L57.0117 51.707L57.0217 51.9637L57.0267 52.1908L56.9918 52.5389L56.7978 52.5956L54.5412 52.9215L54.0859 52.9585L54.0909 52.9634ZM58.1288 41.4091L58.4299 41.3079L58.9573 41.1746L59.1414 41.0611L59.5444 40.6612L59.8131 40.3379L59.9649 40.0022L60.052 39.8171L60.1366 39.4049L60.1565 39.1457L60.2311 38.8766L60.2734 38.3854V37.5857L60.2212 36.8501L60.1515 36.3737L59.9898 36.0553L59.7833 35.8282L59.44 35.648L59.1787 35.6283L58.4124 35.7097L57.7681 35.8307L57.579 35.9146L57.4869 36.2701L57.4521 36.4182L57.4645 36.702L57.477 37.1858L57.4496 37.3907L57.4148 37.7387V38.3114L57.3974 38.6002L57.3775 39.0593L57.3974 39.3999L57.4297 39.6245L57.4098 39.8837L57.3725 40.6045L57.4098 40.8562L57.3824 41.261L57.3899 41.5177L58.1238 41.4116L58.1288 41.4091Z" fill="#D2E9F7"/>
<path d="M71.4617 50.8377L71.0985 50.9191H70.897L70.6382 50.929L69.9615 50.8278L69.7326 50.8327L69.2923 50.7809L69.0783 50.697L68.6479 50.502L68.0782 50.1564L67.6179 49.7664L67.5134 49.6381L67.3517 49.5196L67.2422 49.3641L67.073 49.1888L66.7944 48.8581L66.7695 48.6902L66.6551 48.5076L66.6028 48.3447L66.5257 48.2138L66.4461 48.0534L66.3889 47.8609L66.3092 47.7004L66.2246 47.3129L66.1724 47.15L66.0057 46.602L66.0331 46.3971L65.9559 45.8664L66.0007 45.5752L65.9385 45.3555L65.9087 45.1605L65.8738 44.536L65.9286 44.1287L65.8962 43.9041V43.5042L65.8664 43.3092L65.9211 42.902L65.844 42.7711V42.3984L65.8738 42.1936L65.8838 41.6777L65.9186 41.3296L65.8664 40.9668L65.9012 40.6188L65.8714 40.4238L65.9311 40.2436L65.9584 40.0387L65.9336 39.8709L65.9609 39.666L65.9087 39.5031L66.0381 39.1995L66.0654 38.9946L66.0082 38.6021L66.0157 38.259L66.0704 38.0517L66.0754 37.8789V37.479L66.0853 36.7632L66.1973 36.546V36.1733L66.3167 35.7858L66.3714 35.5784L66.4361 35.2254L66.5207 34.8132L66.6401 34.4529L66.7247 34.2406L66.9262 33.8407V33.6408L67.0133 33.4556L67.185 33.0582L67.3616 32.6905L67.5383 32.5226L67.6552 32.335L67.9886 31.8586L68.3195 31.555L68.5334 31.439L68.7101 31.2712L69.0186 31.0268L69.3321 30.8096L69.7376 30.6368L69.9018 30.585L70.3073 30.4122L70.586 30.3431L71.0811 30.1851L71.4717 30.1012L71.8051 30.0247L72.3176 29.9802L72.4917 29.9852L72.8052 29.9679L73.2655 29.958L73.5043 30.0098L73.7332 30.0049L73.9099 30.037L74.3627 30.1728L74.92 30.4344L75.1663 30.543L75.333 30.6911L75.6788 30.8984L76.0296 31.1329L76.1963 31.281L76.3107 31.4637L76.5321 31.8019L76.6416 31.9574L76.7212 32.1178L76.8058 32.3054L76.9526 32.7127L77.087 33.236L77.1467 33.4556L77.1765 33.6506L77.2014 34.0184L77.1964 34.1912L77.2785 34.5516L77.3084 34.7466L77.3333 35.1144L77.3059 35.3192L77.3009 35.492L77.3581 35.6846L77.398 35.9635L77.393 36.1363V36.5361L77.4278 36.9607L77.4651 37.4124L77.4378 37.6173L77.4477 38.0739L77.5174 38.3504L77.4228 38.6786L77.5 39.0094L77.4402 39.3895V39.7622L77.4054 40.1374L77.4253 40.4781L77.393 40.8532L77.3333 41.0334L77.3233 41.5493L77.3606 41.8011L77.3333 42.006V42.4058L77.2736 42.586L77.1342 43.6054L77.1865 43.7684L77.0944 44.1238L77.0347 44.304L77.0521 44.615L76.9576 44.9433L76.9228 45.2913L76.9526 45.4863L76.9128 45.8072L76.8008 46.0244L76.8133 46.3083L76.674 46.7279L76.5222 47.2635L76.4102 47.4807L76.2087 47.8806L76.1191 48.0657L76.0022 48.2533L75.9699 48.4286L75.6813 48.8136L75.532 48.979L75.4151 49.1666L75.114 49.4677L74.808 49.7393L74.7085 49.8405L74.0965 50.186L73.9024 50.2428L73.686 50.3317L73.3028 50.4724L73.1088 50.5291L72.8102 50.6575L72.2031 50.8303L71.4568 50.8525L71.4617 50.8377ZM71.7901 46.9895L72.1683 46.8217L72.4047 46.6736L72.758 46.3379L72.8973 45.9183L73.0092 45.5011L73.0366 45.2963L73.0043 45.0716L73.0267 44.6397L73.054 44.4348V44.0349L73.1038 43.798L73.0739 43.403L73.1287 43.1957L73.161 42.8205L73.156 42.5934L73.2157 42.4132L73.1834 42.1886L73.1436 42.1096L73.1909 41.8455L73.2132 41.4136L73.1759 40.7619L73.2232 40.4978L73.2754 40.2608L73.2531 39.7203L73.3128 39.5401L73.2157 39.0686L73.268 38.6317L73.2754 38.2886L73.3003 38.0566L73.3277 37.8518L73.2705 37.6592L73.2456 37.2914L73.2705 37.0594L73.2978 36.6546L73.3177 36.3954L73.2655 36.0326L73.2481 35.5216L73.2232 35.1539V34.754L73.0267 34.211L72.8898 34.0604L72.656 33.8358L72.1758 33.7049L71.6434 33.8111L71.4269 33.8999L71.0015 34.132L70.7552 34.4232L70.6034 34.7589L70.5387 35.1119L70.4541 35.3242L70.3372 35.7117L70.3098 35.9166L70.285 36.1486L70.2028 36.7607L70.2103 36.8175L70.2153 37.0446L70.1879 37.4494V37.6222L70.1282 38.0295L70.1008 38.4343L70.0809 38.8934V39.0933L70.0536 39.2982L70.0586 39.7252L70.0063 39.9622L69.959 40.4262L69.9317 40.6311V41.031L69.9615 41.226V41.4259L70.0237 41.6456L69.969 41.8529L69.8844 42.2651L69.9441 42.4848L69.9167 42.6897L69.9615 42.7983L69.9416 43.0575L69.974 43.2821L69.9466 43.487L69.9789 43.7116L69.9565 44.1435L69.9864 44.3385L69.9317 44.5459L70.0461 44.7285L70.066 45.0692L69.9939 45.3654L70.1083 45.548L70.2228 46.3305L70.3372 46.5131L70.4094 46.6168L70.6158 46.8439L70.7776 46.9649L71.0164 47.0167L71.2503 47.0389H71.4244L71.7901 46.9895Z" fill="#D2E9F7"/>
<path d="M81.7265 48.9791L81.5299 49.0087L81.2438 48.8211L81.2388 48.3941L81.1816 47.8017L81.2936 47.1846L81.3209 46.9797L81.2886 46.5551L81.3209 46.3799L81.2911 45.985L81.2612 45.79L81.3458 45.3777V45.1778L81.2836 44.9581L81.3383 44.3509L81.306 44.1263L81.3408 43.7783L81.3632 43.3463L81.3906 43.1414V42.9415V42.5688L81.4229 42.3935L81.3931 41.9986L81.4926 41.6975L81.3956 41.4259V41.226L81.4229 41.0211L81.5075 40.6089L81.5598 40.172L81.5871 39.9672L81.5025 39.7796L81.5946 39.4241L81.6269 39.2489L81.5697 38.8564L81.6145 38.5651L81.5772 38.3134L81.6045 38.1085L81.6916 37.9234L81.6618 37.7284L81.6941 37.5531L81.7165 37.1212L81.6593 36.9286L81.7563 36.6003L81.7165 36.3214L81.7513 36.1733L81.719 35.9487V35.7488L81.7464 35.5439L81.821 35.0749V34.9021L81.8011 34.7343V34.5343L81.7762 34.3665L81.8086 33.9913L81.8359 33.7864L81.8309 33.3594L81.7936 32.9077L80.271 33.1274L79.8729 33.157L79.6789 33.2138L79.4251 33.2508L79.139 33.2632L78.9126 33.2952L78.6464 33.2483L78.5245 33.0089L78.532 32.6658L78.5842 32.4289L78.5519 32.2042L78.4946 32.0117L78.5494 31.6044L78.5817 31.4292L78.5519 31.0342L78.6116 30.6541L78.6713 30.4739L78.6141 30.0815V29.9087L78.7136 29.5804L78.94 29.3484L79.134 29.2916L79.868 29.1855L80.0123 29.1929L80.2088 29.1632L80.4029 29.1065L82.4902 28.8053H82.6918L83.3113 28.7165L85.1125 28.4277L85.5405 28.3956L86.1276 28.2821L86.3863 28.2722L88.1354 28.0204L88.5334 27.9908L88.7947 28.0105L88.8842 28.2253L88.9091 28.3931V28.5931L88.8867 28.8251L88.9166 29.0201L88.9116 29.1929L88.8842 29.3977L88.9091 29.5656L88.9017 29.9087L88.8743 30.1136V30.2863L88.8917 30.627L88.832 31.0071L88.8046 31.212L88.8345 31.6069L88.7573 31.8759L88.4787 31.9451L88.22 31.9549L87.8816 32.0043L87.6328 32.0685L87.3517 32.108L86.1624 32.2511L85.9136 32.3153L85.8863 32.5202L85.9385 32.6831L85.8838 32.8904L85.9087 33.0583L85.8763 33.2335V33.6063L85.8738 33.8062L85.834 34.327L85.7544 34.5664L85.8315 34.6973L85.747 35.1095L85.6872 35.4896L85.7121 35.6574L85.732 35.9981V36.1709L85.7569 36.3659L85.6648 36.7213L85.6698 37.1483L85.6425 37.3532L85.6151 37.758L85.5554 37.9382L85.5852 38.1332L85.6101 38.501L85.5753 38.849L85.4907 39.0613L85.5206 39.4562L85.4882 39.6315L85.5131 39.7993L85.4857 40.2041L85.4633 40.6361L85.4434 40.8953L85.4832 41.1742V41.347L85.4484 41.5222V41.7221L85.3862 42.0751V42.2751L85.3837 42.4478L85.4409 42.6404L85.4136 43.0452L85.3937 43.5043L85.334 43.8844V44.0843L85.3041 44.4595L85.2494 45.0667L85.227 45.2988L85.1996 45.7036L85.2593 45.9233L85.2096 46.5601L85.1548 47.3672V47.7671L85.1275 48.1719L85.0951 48.3472L84.7767 48.5348L82.3236 48.8877L81.9976 49.021L81.7314 48.9741L81.7265 48.9791Z" fill="#D2E9F7"/>
<path d="M93.403 47.2993L93.2064 47.3289L92.9203 47.1413L92.9153 46.7143L92.8581 46.1219L92.9701 45.5048L92.9974 45.2999L92.9651 44.8754L92.9974 44.7001L92.9676 44.3052L92.9377 44.1102L93.0223 43.698V43.498L92.9601 43.2783L93.0148 42.6711L92.9825 42.4465L93.0173 42.0985L93.0397 41.6665L93.0671 41.4616V41.2617V40.889L93.0994 40.7137L93.0696 40.3188L93.1691 40.0177L93.0721 39.7462V39.5462L93.0994 39.3413L93.184 38.9291L93.2363 38.4922L93.2636 38.2874L93.1791 38.0998L93.2711 37.7443L93.3034 37.5691L93.2462 37.1766L93.291 36.8854L93.2537 36.6336L93.2811 36.4287L93.3681 36.2436L93.3383 36.0486L93.3706 35.8733L93.393 35.4414L93.3358 35.2488L93.4328 34.9206L93.393 34.6416L93.4278 34.4935L93.3955 34.2689V34.069L93.4229 33.8641L93.4975 33.3951V33.2223L93.4776 33.0545V32.8546L93.4527 32.6867L93.4851 32.3115L93.5124 32.1067L93.5075 31.6796L93.4701 31.2279L91.9475 31.4476L91.5495 31.4772L91.3554 31.534L91.1016 31.571L90.8155 31.5834L90.5891 31.6155L90.3229 31.5686L90.201 31.3291L90.2085 30.986L90.2607 30.7491L90.2284 30.5244L90.1711 30.3319L90.2259 29.9246L90.2582 29.7494L90.2284 29.3545L90.2881 28.9743L90.3478 28.7941L90.2906 28.4017V28.2289L90.3901 27.9006L90.6165 27.6686L90.8105 27.6118L91.5445 27.5057L91.6888 27.5131L91.8853 27.4835L92.0794 27.4267L94.1668 27.1255H94.3683L94.9878 27.0367L96.789 26.7479L97.217 26.7158L97.8041 26.6023L98.0629 26.5924L99.8119 26.3406L100.21 26.311L100.471 26.3307L100.561 26.5455L100.586 26.7133V26.9133L100.563 27.1453L100.593 27.3403L100.588 27.5131L100.561 27.7179L100.586 27.8858L100.578 28.2289L100.551 28.4338V28.6065L100.568 28.9472L100.508 29.3273L100.481 29.5322L100.511 29.9271L100.434 30.1962L100.155 30.2653L99.8965 30.2751L99.5581 30.3245L99.3093 30.3887L99.0282 30.4282L97.8389 30.5713L97.5902 30.6355L97.5628 30.8404L97.615 31.0033L97.5603 31.2106L97.5852 31.3785L97.5528 31.5537V31.9265L97.5503 32.1264L97.5105 32.6472L97.4309 32.8866L97.5081 33.0175L97.4235 33.4297L97.3637 33.8098L97.3886 33.9777L97.4085 34.3183V34.4911L97.4334 34.6861L97.3414 35.0415L97.3463 35.4685L97.319 35.6734L97.2916 36.0782L97.2319 36.2584L97.2617 36.4534L97.2866 36.8212L97.2518 37.1692L97.1672 37.3815L97.1971 37.7764L97.1647 37.9517L97.1896 38.1195L97.1622 38.5243L97.1398 38.9563L97.1199 39.2155L97.1597 39.4944V39.6672L97.1249 39.8424V40.0424L97.0627 40.3953V40.5953L97.0602 40.768L97.1174 40.9606L97.0901 41.3654L97.0702 41.8245L97.0105 42.2046V42.4046L96.9806 42.7797L96.9259 43.3869L96.9035 43.619L96.8761 44.0238L96.9358 44.2435L96.8861 44.8803L96.8313 45.6874V46.0873L96.804 46.4921L96.7716 46.6674L96.4532 46.855L94.0001 47.2079L93.6741 47.3412L93.4079 47.2943L93.403 47.2993Z" fill="#D2E9F7"/>
<path d="M78.626 20.4275L77.3522 19.9388L76.0161 20.3263L75.6977 21.1434L75.4638 21.5975L75.4365 21.8148L75.3345 21.9604L75.123 22.417L75.0782 22.617L74.9638 22.7972L74.8543 23.0242V22.9008L74.9016 22.6836L74.9538 22.4442L75.0558 22.0961L75.0882 21.795L75.2175 21.4025L75.2051 21.0668L75.3195 20.7213L75.2797 20.3288L75.332 20.0919L75.317 19.5044L75.1155 18.6355L74.9812 18.3418L74.8792 17.9123L74.5732 17.5026L74.4065 17.2187L73.9984 16.8139L73.5033 16.4437L73.0655 16.3153L72.6699 16.145L72.0579 16.066L71.6449 16.1006L70.8114 16.1721L70.4357 16.3597L70.1148 16.4955L69.5873 16.8287L69.4107 16.9966L69.0002 17.2656L68.8733 17.4754L68.219 16.9447L67.3706 17.083L67.1517 17.1348L66.3555 17.1669L66.0495 17.5371L65.4972 17.8235L65.3703 18.5689L65.2882 18.7318L65.1688 19.0058L65.0668 19.1958L64.8802 19.5266L64.7657 19.7759L64.6836 19.9215L64.4846 20.1758L64.2383 20.3979L64.1313 20.1486L63.8327 19.8524L63.7556 19.7265L63.4272 19.1983L62.9446 18.8972L62.7828 18.7614L62.432 18.4998L61.9345 18.2628L61.4543 18.1369L61.0189 18.0629L60.3646 18.0012L59.862 18.0185L59.1704 18.1295L58.8171 18.211L58.4812 18.2949L57.904 18.5072L57.6328 18.7244L57.3343 18.8774L56.976 19.144L56.772 19.3563L56.5954 19.4871L56.2172 19.8031L55.844 20.2498L55.7544 20.4201L55.528 20.6472L55.2195 21.1927L55.1399 21.4322L55.0354 21.6L54.7642 22.1258L54.712 22.422L54.5702 22.7503L54.5254 23.1674L54.4731 23.3747L54.4035 23.7376L54.3512 24.093L54.3189 24.2806L54.1945 24.7447V24.9421L54.0353 25.2581L53.9681 25.5173L53.9482 25.5493L53.9905 25.4062L53.9532 25.0088L53.9756 24.8582L54.0527 24.5324L54.0925 24.2732L54.1821 23.9326L54.2194 23.5253L54.2766 23.1353L54.2492 22.8712L54.2642 22.812L54.406 22.3775L54.4284 21.8518L54.4234 21.6716L54.4756 21.4692L54.6174 20.5263L53.9333 19.8327L54.9235 18.9811L54.8538 18.2431L54.911 17.9987L54.921 17.7371L55.0056 17.4779L55.0503 17.1274L55.1474 16.7102L55.125 15.8315L54.1696 14.6393L53.0078 14.9602L52.8386 14.9997L52.5475 15.0194L51.6991 15.3033L50.9676 16.1055L50.7462 16.9497L50.8059 17.3051L50.6218 17.7074L50.6542 18.1394L50.6417 18.2357L50.378 19.2279L51.0298 19.8129L50.2561 20.8003L50.2287 21.2717L50.1019 21.5803L50.0471 22.1035L50.0247 22.4837V22.5651L49.8829 22.8539L49.8954 23.3649L49.868 23.5426L49.7909 23.8437L49.766 24.1844L49.6913 24.4361L49.6192 25.0063L49.6341 25.0927L49.4824 25.4432L49.3903 25.8431L49.358 25.9542L49.2161 26.2528L49.1141 26.5194L48.9574 26.8995L48.9101 27.0575L48.8106 27.1982L48.624 27.5339L48.4499 27.8572L48.3877 28.0251L48.2483 28.1905L48.0991 28.4373L47.9995 28.5681L47.915 28.6496L47.8876 28.6743L47.8677 28.6817L47.8428 28.5854V28.42L47.8204 28.1781L47.8403 27.914L47.8528 27.6079L47.9075 27.1859L47.8602 26.8921L47.8677 26.8378L47.9697 26.3516L47.9448 26.0504L47.9896 25.7443L47.9846 25.4383L48.0717 24.7768V24.562L48.1488 24.251L48.1389 23.8264L48.1563 23.5944L48.1638 23.4562L48.3056 23.0168L48.2707 22.5849L48.2782 22.3825L48.2981 22.1924L48.3852 21.8592L48.42 21.252L48.4772 21.0076L48.5568 20.5929L48.5743 20.1437L48.5693 19.9808L48.6912 19.5686L48.6464 19.2921L48.6688 19.2008L48.7758 18.6923L48.7708 18.3517L48.8007 18.1073L48.8156 17.9024L48.9275 17.4384L48.9002 17.0657V16.9867L49.0196 16.6633L49.0072 16.2881L49.1141 15.9253L49.0271 14.9577L48.0418 14L47.0616 14.0815L46.7257 14.1876L46.5441 14.2172L45.7579 14.2863L44.9394 15.323L44.815 15.9648L44.7702 16.3844L44.7627 16.6979L44.713 17.0262L44.703 17.1817L44.5612 17.5421L44.5737 17.9814L44.5289 18.2455L44.4965 18.6676L44.4891 18.8355L44.412 19.0477L44.3224 19.571L44.3149 20.0005L44.3025 20.2029L44.2477 20.5263L44.2278 20.8891L44.2204 21.1236L44.0263 21.8542L44.0661 22.2541L44.0313 22.4935L44.0089 22.7922L43.9741 23.1328L43.9641 23.397L43.9268 23.5821L43.8173 24.0363L43.775 24.7891L43.7875 25.1347L43.78 25.3124L43.7203 25.6209L43.7153 25.8381L43.5909 26.1442L43.6158 26.7391L43.479 27.0303L43.4242 27.2451L43.3048 27.4574L43.1804 27.7462L42.9764 28.1065L42.8918 28.3953L42.7848 28.6323L42.7326 28.7508L42.5958 28.8989L42.3718 29.2222L42.2375 29.395V29.3728L42.1753 29.1038L42.2126 28.8791L42.1902 28.5854L42.2151 28.3139L42.2275 27.9856L42.2375 27.7906L42.2997 27.5117L42.3221 27.0995L42.3295 26.9341L42.4266 26.6009L42.4092 26.1862L42.4216 26.1195L42.536 25.8085L42.6182 25.263L42.5982 25.0409L42.648 24.878L42.6978 24.4016L42.7052 24.1054L42.7177 24.0387L42.8893 23.5549L42.8545 23.1328L42.9217 22.3923L42.4141 21.7876L43.1058 20.9262L43.2252 20.2819L43.3197 19.8796L43.3397 19.5464L43.4019 19.1736L43.3969 18.9885L43.479 18.7787L43.6531 17.6161L42.4365 16.614L41.3966 16.7818L40.9761 16.9102L40.797 16.9743L40.1501 17.1175L39.1301 18.1246L39.1997 18.875L39.1823 19.0107L39.1624 19.1243L38.9509 19.6821L39.0181 20.0869L38.7071 20.9385L39.3863 21.6667L38.6698 22.6318L38.5952 23.1995L38.4907 23.5228L38.4459 23.9449L38.4011 24.2535L38.3439 24.5916L38.2966 24.9742L38.2916 25.1939L38.1523 25.616L38.2195 26.0208L38.1822 26.1862L38.105 26.902L38.0851 27.1686L38.0453 27.4277L37.9732 27.7511L37.9682 27.8301L37.8712 28.0251L37.6746 28.3707L37.4955 28.8298L37.4258 29.1013L37.4084 29.1408L37.4308 29.0815L37.4408 28.8125L37.5801 28.5064L37.6075 28.0251L37.6473 27.719L37.6597 27.4154L37.692 27.1957L37.7965 26.7885L37.7493 26.3269L37.7617 26.1615L37.7816 25.7024L37.6647 24.8187L37.4656 24.3004L37.0875 23.6364L36.7616 23.1699L36.3585 22.8391L35.9754 22.5528L35.1568 22.2837L34.6692 22.1899L34.2065 22.1258L33.2287 22.3208L32.8978 22.4985L32.5246 22.6416L32.1813 22.8786L31.8106 23.1008L31.5469 23.3846L31.2135 23.6314L30.9721 24.0289L30.9249 24.098L30.6761 23.8363L30.3974 23.629L29.9919 23.2513L29.1833 23.0785L28.7579 23.0687L27.8772 23.1477L27.3671 23.3599L27.0188 23.5574L26.7526 23.7104L26.2053 24.0955L26.0734 24.3127L25.5659 23.8709L24.7573 24.0017L24.4164 24.0338L23.6651 24.1547L22.7694 25.1692L22.6948 25.8752L22.6699 26.2158L22.6649 26.391L22.5604 26.6848L22.4958 27.3981L22.436 27.7881L22.4609 28.0325L22.3913 28.2719L22.4037 28.6965L22.3838 28.8742L22.3241 29.163L22.2694 29.474L22.1524 30.212L22.1325 30.6711L22.1425 30.8143L22.0852 31.0932L22.0753 31.3598L21.9733 31.7078V32.0658L21.9335 32.4064L21.9385 32.589L21.824 32.9371L21.8539 33.2752L21.7767 33.5986V33.8553L21.7195 34.0824L21.6548 34.5983L21.6747 34.7883L21.3389 35.6078L22.6674 36.684L23.7148 36.7161L24.0706 36.5606L24.1477 36.5483L24.8891 36.5557L25.8495 35.4079L25.8793 34.8895L25.9739 34.6328L26.0162 34.2404L26.1132 33.8281L26.1008 33.5097L26.1679 33.2506L26.1829 32.8951L26.2152 32.7223L26.3844 32.083L26.4391 31.8362L26.5984 31.3499L26.5735 31.0488L26.6232 30.8612L26.6655 30.6489L26.7825 30.3799L26.8571 30.0639L27.0263 29.6887L27.0661 29.3679L27.1581 29.1408L27.1805 29.0297L27.4044 28.7607L27.4642 28.4225L27.5985 28.2102L27.6756 28.0251L27.6856 28.0843L27.6707 28.341L27.6906 28.5508L27.601 28.8939L27.6483 29.1827L27.6134 29.3037L27.5686 29.7332L27.5438 30.0467L27.5363 30.212L27.4318 30.4984L27.4144 30.9525L27.3845 31.187L27.3373 31.503L27.2676 31.9053L27.3074 32.3076L27.3 32.4533L27.2776 32.6063L27.1631 33.0407V33.3221L27.1158 33.5369L27.0114 34.0034L27.0984 34.934L28.004 35.8596L29.3624 35.7781L30.385 35.4992L31.2707 34.6674L31.415 33.9269L31.4498 33.606L31.517 33.258L31.5245 33.0161L31.6115 32.7742L31.6663 32.2657L31.6737 32.0781L31.7583 31.8214L31.8031 31.4758L31.8927 31.2339L31.9698 30.8686L32.1042 30.4663L32.0917 30.0911L32.1017 30.0491L32.2261 29.7628L32.3131 29.4345L32.4276 29.1975L32.7037 28.3534L32.7087 28.2719L32.8082 28.1411L33.0272 27.5413L33.2362 27.2377L33.2586 27.1488L33.4451 26.9933L33.4576 26.9637L33.4029 27.334V27.5067L33.3058 27.7881L33.2785 28.151L33.2486 28.3065L33.1242 28.6841L33.0943 29.0741L33.072 29.2617L32.9899 29.5777L32.9451 30.0096L32.9351 30.1306L32.7336 30.5453L32.8182 31.0537L32.7809 31.3376L32.7958 31.8732L32.9675 32.5866L33.1267 33.1321L33.3929 33.5344L33.7014 34.033L34.1119 34.307L34.3955 34.544L34.8832 34.7883L35.428 34.9241L35.9704 35.0327L36.7914 34.8328L37.279 34.7192L37.7592 34.4477L38.0503 34.2478L38.4608 33.9244L38.6922 33.6603L38.9609 33.3913L39.0977 33.2111L39.1749 33.3147L39.6774 33.6554L40.1153 33.875L40.6651 34.0059L40.9463 34.038L41.4737 34.1293L42.4714 33.9293L42.7848 33.7738L43.1481 33.6208L43.6108 33.3715L43.8621 33.1074L44.1159 32.9321L44.4518 32.5816L44.7528 32.1892L44.9891 32.4508L45.5216 32.7248L45.7206 32.8186L45.5639 32.9815L45.3101 33.216L44.9742 33.6504L44.8623 33.9071L44.6856 34.1095L44.3871 34.7661L44.3298 35.3116L44.3149 35.593L44.2602 36.025L44.3945 36.8469L44.5936 37.506L44.8324 37.7701L44.9817 38.1774L45.5116 38.6143L45.7306 38.7772L46.1013 39.0906L46.5889 39.2338L47.0541 39.4214L47.6239 39.4016L47.8975 39.4091L48.7584 39.335L49.149 39.1721L49.5396 39.0487L49.9227 38.8043L50.2934 38.5624L50.6019 38.2662L50.8632 38.0046L51.1269 37.7405L51.4926 37.2122L51.5772 36.9259L51.7514 36.6223L51.831 36.3829L52.0375 36.0546L52.1295 35.6448L52.2191 35.3931L52.3236 35.1067L52.4529 34.7242L52.5151 34.3588L52.54 34.2626L52.7341 33.8528L52.8013 33.332L52.9306 33.2604L53.2864 32.9568L53.6422 32.6039L53.6944 32.5273L53.9805 32.3373L54.2866 31.9423L54.4582 31.7177L54.6796 31.4635L54.8215 31.2339L55.0877 30.9772L55.3489 30.4539L55.3589 30.4268L55.7271 30.1207L55.7868 29.8171L56.1401 30.1059L56.4983 30.407L56.7944 30.523L57.0556 30.7649L57.5756 30.9007L57.8816 31.0389L58.2747 31.108L58.6603 31.1944L59.2674 31.2068L60.6656 30.9797L61.0811 30.8217L61.4667 30.681L61.7902 30.4391L62.2803 30.1528L62.6535 29.8615L62.9744 29.5875L63.477 28.9976L63.6063 28.81L63.9049 28.4817L64.1213 28.0473L64.2681 27.7659L64.395 27.4228L64.4124 27.6055L64.3577 27.8375L64.2035 28.8569L65.5768 29.9578L66.3953 29.7579L66.6789 29.711L66.8556 29.6591L67.5547 29.7233L68.5076 28.5015L68.632 27.6647L68.7215 27.3907L68.8285 26.8773L68.8385 26.6502L68.9305 26.4009L68.9654 26.0751L69.1146 25.653L69.1022 25.3494L69.2241 25.0828L69.2365 24.7891L69.3361 24.5892L69.4455 24.0659L69.4729 23.9054L69.5998 23.5722L69.6769 23.2291L69.7117 23.0983L69.9058 22.7552L69.9556 22.459L70.1073 22.2171L70.1695 21.953L70.2939 21.7925L70.4531 21.3877L70.488 21.3211L70.6994 21.0718L70.896 20.6818L70.9681 20.6472L70.9632 20.6843V20.9805L70.9458 21.1656L70.8736 21.484L70.8587 21.8444L70.8363 21.99L70.799 22.1307L70.6323 22.4935L70.5427 23.0168L70.5128 23.3352L70.5004 23.5426L70.4307 23.8363L70.3511 24.2461L70.3287 24.641L70.3163 24.9372L70.2889 25.4087L70.3785 25.7838L70.4307 26.6231L70.677 27.0303L70.784 27.3117L71.0801 27.8326L71.5006 28.2077L71.926 28.5607L72.6201 28.7878L72.9311 28.8322L73.476 28.926L74.3467 28.7508L74.8543 28.6002L75.5534 28.225L75.9963 27.8548L76.255 27.5512L76.3719 27.4203L76.7625 27.0575L76.984 26.5959L77.0486 26.4676L77.2825 26.2232L77.4716 25.7641L77.6209 25.5222L77.7726 25.1742L77.902 24.9051L78.0239 24.6237L78.213 24.2461L78.305 23.8956L78.3424 23.8018L78.5688 23.4365L78.6459 23.0859L78.7728 22.8169L79.1559 21.7654L78.6484 20.4275H78.626ZM60.8348 24.4682L60.7626 24.7101L60.7676 24.9668L60.7228 25.0927L60.5114 25.7369L60.4815 25.8357L60.3422 26.0159L60.2103 26.3392L60.1805 26.3886L60.0212 26.5367L59.8695 26.6823L59.77 26.7712L59.663 26.823L59.5037 26.8921L59.342 26.9193L59.3122 26.9094L59.1231 26.8699L58.9265 26.6527L58.7947 26.5219L58.7499 26.3417L58.6031 26.0381L58.5633 25.9073L58.5011 25.5296L58.5384 25.2309L58.4762 24.8483L58.4912 24.7175L58.5359 24.4114L58.5534 24.0807L58.5708 23.898L58.6753 23.5821L58.8196 23.3747L59.0634 22.9329L59.0808 22.8786L59.1604 22.8021L59.2724 22.6416L59.4565 22.5182L59.6107 22.3825L59.7401 22.3109L59.7575 22.3035L60.076 22.264L60.1357 22.2714L60.1854 22.2813L60.2178 22.3479L60.5412 22.7206L60.5611 22.7404L60.5661 22.7626L60.7303 23.1946L60.7925 23.313L60.8398 23.6833L60.8472 23.8635L60.8 24.2387L60.8373 24.4657L60.8348 24.4682Z" fill="#0078C0"/>
<path d="M40.1189 20.6469L40.3553 20.8987L40.7359 20.8369L41.3753 20.7802L41.6714 20.7308L41.9426 20.3951L42.0122 20.0249L42.0869 19.699L42.1043 19.4028L42.159 19.0795L42.1515 18.766L42.2734 18.455L42.3257 18.1094L42.0744 17.9046L41.6739 17.9687L41.3629 18.0625L41.1389 18.144L40.7608 18.2279L40.4075 18.5784L40.4374 18.887L40.3975 19.1856L40.3528 19.4399L40.2184 19.8002L40.2632 20.0841L40.2234 20.3606L40.1189 20.6469Z" fill="#D2E9F7"/>
<path d="M52.3204 19.0161L52.6289 18.9198L52.9325 18.9149L53.2211 18.8236L53.639 18.4632L53.6092 18.1546L53.6863 17.8288L53.6987 17.5104L53.8008 17.2019L53.8381 16.9057L53.9152 16.5774L53.9052 16.2639L53.7162 16.0269L53.3206 16.1355L53.0295 16.2047L52.7931 16.2195L52.4025 16.3503L52.0915 16.6934L52.0094 16.9995L52.0542 17.2611L52.0219 17.6042L51.8801 17.9177L51.8975 18.162L51.8602 18.4607L51.7656 18.8137L52.0219 19.0408L52.3204 19.0161Z" fill="#D2E9F7"/>
<path d="M77.6667 21.372L77.296 21.2289L76.9452 21.3301L76.8232 21.6411L76.659 21.9595L76.6217 22.2582L76.4103 22.5618L76.2983 22.8037L76.2361 23.0826L76.047 23.3837L75.9176 23.6528L75.7957 23.9638L75.6066 24.2649L75.5096 24.4599L75.2807 24.7882L75.1613 24.9882L74.9822 25.2202L74.7782 25.4325L74.5642 25.5806L74.3079 25.7336L73.7507 25.778L73.4123 25.5633L73.3277 24.9265L73.2779 24.6204L73.3501 24.2723L73.3675 23.9786L73.472 23.6923L73.5665 23.3393L73.6213 23.016V22.7691L73.6959 22.4211L73.7581 22.1422L73.8427 21.8583L73.8775 21.5374L73.9795 21.2289L73.9671 20.8932L74.0691 20.5846L74.0368 20.2539L74.099 19.975L74.0915 19.6615L73.9447 19.0345L73.8104 18.7408L73.7382 18.4372L73.5441 18.1756L73.4247 17.9707L73.1909 17.7387L72.9446 17.5535L72.6485 17.4671L72.345 17.3363L72.034 17.2968L71.7553 17.319L71.1557 17.3709L70.9542 17.4696L70.6905 17.5807L70.3571 17.793L70.1879 17.9559L69.9143 18.1361L69.7774 18.3607L69.4814 18.5433L69.2823 18.7778L69.1355 19.0716L68.9788 19.2986L68.8295 19.5702L68.7424 19.8318L68.5932 20.1033L68.4812 20.3452L68.2648 20.6044L68.2473 20.8981L68.1155 21.145L68.0558 20.908L68.1329 20.5822L68.103 20.2736L68.1279 20.0219L68.1802 19.6763L68.1379 19.4147L68.1752 19.116L68.1503 18.8272L68.1802 18.4866L67.8791 18.2422L67.6254 18.2842L67.3343 18.3533L66.9685 18.3681L66.8541 18.5063L66.6227 18.6273L66.568 18.9506L66.4212 19.2443L66.2943 19.5331L66.1625 19.78L65.9933 20.0762L65.8813 20.3181L65.732 20.5896L65.5703 20.7945L65.4086 20.9993L64.9558 21.4091L64.7195 21.5596L64.3886 21.6584L63.8611 21.7448L63.3735 21.4189L63.2093 21.0857L63.1023 20.834L62.8684 20.6019L62.7192 20.3576L62.5425 20.0712L62.229 19.8762L62.0275 19.7059L61.8061 19.5405L61.525 19.4073L61.2065 19.3233L60.8706 19.2666L60.3432 19.2172L59.9974 19.2295L59.4276 19.3209L59.1141 19.3949L58.8654 19.4591L58.5394 19.58L58.328 19.7504L58.007 19.9133L57.813 20.0564L57.6089 20.2687L57.3776 20.4415L57.1114 20.6636L56.8949 20.9228L56.7805 21.1425L56.5391 21.3844L56.37 21.6806L56.2829 21.9422L56.1286 22.1915L55.9644 22.51L55.9196 22.7642L55.7928 23.053L55.7579 23.3739L55.6932 23.6306L55.6335 23.9317L55.5813 24.2773L55.5365 24.5315L55.442 24.8845V25.0869L55.437 25.1091L55.3698 25.3658L55.2056 25.6842L55.126 25.9903L54.9717 26.2396L54.8871 26.5235L54.8026 26.8073L54.6309 27.0813L54.3572 27.6638L54.2726 27.9477L54.096 28.2019L53.984 28.4438L53.7925 28.7228L53.6208 28.9967L53.5063 29.2189L53.2924 29.5003L53.1406 29.7718L52.9789 29.9767L52.6978 30.2457L52.5161 30.4555L52.2997 30.7147L52.1106 30.8801L51.9439 30.7937L52.0285 30.5098L52.0161 30.1741L52.0584 29.8977L52.0882 29.5571L52.1504 29.2781L52.1877 28.9795L52.2052 28.6857L52.3171 28.3081L52.3345 28.0143L52.4191 27.7305L52.4117 27.417L52.4316 27.1455L52.546 26.79V26.521L52.5958 26.1754L52.6754 25.8694L52.6679 25.5559L52.7525 25.272L52.7226 24.9635L52.7749 24.6179L52.852 24.2896L52.8943 24.0132L52.9739 23.7071L53.0038 23.3665L53.0461 23.09L53.0137 22.7593L53.0934 22.4556L53.1954 22.1471L53.2078 21.8312L53.2003 21.5177L53.2799 21.2116L53.3222 20.9352L53.0361 20.6439L52.7575 20.6661L52.4838 20.7105L52.1504 20.7871L51.8096 20.8191L51.4861 21.2314L51.4687 21.5251L51.3294 21.8632L51.2946 22.1841L51.2772 22.4779L51.2896 22.8136L51.1428 23.1073L51.1503 23.4208L51.098 23.7663L51.0309 24.023L51.0035 24.3859L50.9189 24.6697L50.8816 24.9684L50.9313 25.2745L50.8393 25.5114L50.7995 25.5189L50.6726 25.8076L50.5955 26.1335L50.5258 26.3704L50.3641 26.7111L50.272 26.9505L50.1327 27.2887L50.0481 27.5725L49.874 27.8243L49.7222 28.0958L49.5903 28.3426L49.4859 28.629L49.2694 28.8881L49.1326 29.1128L48.936 29.3695L48.7668 29.5324L48.5205 29.7521L48.212 29.8483L47.9707 29.9545L47.4184 30.0211L47.1223 29.9347L46.9233 29.6533L46.7914 29.3818L46.6198 28.7351V28.466L46.5924 28.1773L46.6198 27.8144L46.6322 27.4985L46.6695 27.1998L46.6198 26.8937L46.662 26.6173L46.7342 26.2692L46.7118 26.0026L46.7641 25.6571L46.7591 25.3658L46.7964 25.0671L46.8437 24.6994L46.8387 24.4081L46.9183 24.102L46.9108 23.7886L46.9307 23.5146L46.9482 23.2208L47.0626 22.8654L47.0402 22.5988L47.0527 22.2829L47.0875 21.962L47.1671 21.6559L47.1845 21.3622L47.2019 21.0684L47.2791 20.7426L47.3388 20.4415L47.3512 20.1255L47.3437 19.8121L47.4408 19.4813L47.401 19.2419L47.4781 18.9161L47.5502 18.568L47.5453 18.2768L47.5826 17.9781L47.6025 17.7041L47.692 17.3314L47.6721 17.087L47.6821 16.7489L47.7866 16.4625L47.7742 16.1268L47.8712 15.7961L47.8463 15.5073L47.5876 15.258L47.3089 15.2802L47.0203 15.3715L46.7043 15.4234L46.4058 15.4505L46.0998 15.838L46.0401 16.1392L46.0052 16.4601L45.9953 16.7982L45.943 17.1438L45.9256 17.4375L45.8037 17.7485L45.8112 18.062L45.7564 18.3854L45.7291 18.7482L45.7166 19.0642L45.6121 19.3505L45.5574 19.6738L45.5524 20.0342L45.535 20.3279L45.4803 20.6513L45.4629 20.945L45.4529 21.2832L45.3733 21.5893L45.2788 21.9422L45.3111 22.273L45.2589 22.6186L45.2389 22.8925L45.2041 23.2134L45.1917 23.5294L45.132 23.8305L45.0424 24.2032L45.025 24.497L45.0076 24.7907L45.02 25.1264L45.0076 25.4423L44.9479 25.7435L44.9379 26.0816L44.8309 26.3457L44.8459 26.7037V26.8419L44.8011 27.0912L44.6394 27.4318L44.5722 27.6885L44.4055 27.9847L44.2786 28.2735L44.1094 28.5697L44.0398 28.8067L43.8955 29.1226L43.7686 29.4114L43.5472 29.6484L43.3556 29.9273L43.1765 30.1593L42.96 30.4185L42.8157 30.5987L42.3057 30.9294L41.6812 30.964L41.4623 30.8208L41.216 30.6357L41.1065 30.3617L40.9199 29.7619L40.9721 29.4164L40.905 29.135L40.9597 28.8116L40.9398 28.5672L40.9697 28.2266L40.9821 27.9107L40.9995 27.6169L41.0617 27.338L41.0791 27.0443L41.0916 26.7283L41.1762 26.4445L41.1612 26.0866L41.2209 25.7854L41.3254 25.4991L41.3652 25.2227L41.3354 24.9141L41.42 24.6303L41.4548 24.3094L41.4648 23.9712L41.5095 23.717L41.629 23.3837L41.6066 23.1172L41.6364 22.7765L41.42 22.5198L41.1065 22.5939L40.7607 22.6037L40.1262 22.7074L39.8426 23.09L39.7954 23.4578L39.6933 23.7663L39.6585 24.0872L39.6063 24.4328L39.5515 24.7561L39.5142 25.0548L39.5043 25.393L39.4023 25.7015L39.4595 26.052L39.3824 26.3778L39.3475 26.6987L39.3127 27.0196L39.2928 27.2936L39.2405 27.6392L39.1783 27.9181L39.1659 28.081L39.0888 28.2908L38.942 28.5845L38.7728 28.8807L38.6509 29.1917L38.5713 29.4953L38.4593 29.7372L38.2951 30.0557L38.1807 30.2778L37.9667 30.5592L37.7951 30.8332L37.591 31.0455L37.4343 31.2725L37.2776 31.4996L37.0586 31.6255L36.8049 31.8008L36.2476 31.8452L35.944 31.5811L35.7798 30.9788L35.8395 30.6777L35.8694 30.337L35.9042 30.0162L36.0062 29.7076L36.0436 29.409L36.0809 29.1103L36.1854 28.824L36.1978 28.508L36.3421 28.1921L36.3595 27.8983L36.3968 27.5997L36.4093 27.2837L36.4615 26.9381L36.5262 26.6814L36.4889 26.3285L36.5088 26.0545L36.5212 25.7385L36.4366 25.1017L36.3222 24.8055L36.1704 24.5389L36.0187 24.2723L35.8196 23.991L35.5684 23.7836L35.3693 23.6355L35.0484 23.5294L34.8195 23.4553L34.4388 23.3813L34.2174 23.3492L33.6303 23.4677L33.3914 23.596L33.0854 23.712L32.8316 23.8873L32.5754 24.0403L32.354 24.2773L32.1226 24.4501L31.9857 24.6747L31.8116 24.9265L31.6125 25.1609L31.4459 25.4571L31.309 25.6818L31.2219 25.9434L31.0503 26.2174L30.9035 26.5111L30.8413 26.79L30.702 27.1282L30.6547 27.3602L30.6 27.6836L30.585 27.3257L30.5975 27.0097L30.5552 26.7481L30.5427 26.4124L30.4183 25.7805L30.3686 25.4744L30.2342 25.1807L30.0178 24.924L29.8337 24.729L29.5874 24.5439L29.3834 24.3538L29.0226 24.2773L28.7838 24.2723L28.1643 24.3266L27.9006 24.4377L27.6219 24.5957L27.403 24.7216L27.1119 24.9265L26.975 25.1511L26.6914 25.3979L26.5098 25.6077L26.3779 25.8545L26.2262 26.1261L26.0097 26.3852L25.8629 26.679L25.7759 26.9406L25.654 27.2516L25.5271 27.5404L25.4823 27.7947L25.3156 28.0909L25.3355 27.8169L25.328 27.5034L25.3529 27.2516L25.3454 26.9381L25.3554 26.6L25.3803 26.3482L25.3927 26.0323L25.4897 25.7015L25.4848 25.4102L25.1812 25.1461L24.9076 25.1906L24.5667 25.2227L24.2931 25.2671L23.9447 25.6595L23.9099 25.9804L23.89 26.2544L23.8801 26.5926L23.7606 26.9258L23.7358 27.1776L23.7059 27.5182L23.6636 27.7947L23.6959 28.1254L23.6114 28.4093L23.6188 28.7228L23.584 29.0436L23.5118 29.3917L23.4671 29.6459L23.3601 30.3148L23.3476 30.6308L23.3651 30.8751L23.2929 31.2232L23.2805 31.5391L23.1834 31.8699V32.1167L23.1461 32.4376L23.1536 32.7511L23.0516 33.0596L23.0765 33.3484L22.9869 33.7236V33.9926L22.9073 34.2963L22.87 34.5949L22.9073 34.9479L22.8003 35.212L23.1013 35.4564L23.4496 35.4662L23.6935 35.3601L24.0318 35.3058H24.2931L24.619 34.9183L24.6364 34.6245L24.7409 34.3382L24.7757 34.0173L24.8528 33.6915L24.8404 33.3558L24.92 33.0497L24.9325 32.7338L24.9922 32.4327L25.0718 32.1291L25.1663 31.7761L25.2285 31.4972L25.3305 31.1886L25.3081 30.922L25.4027 30.5691L25.4624 30.2679L25.5893 29.9791L25.6664 29.6533L25.8107 29.3374L25.848 29.0387L25.9575 28.7746L26.0172 28.4735L26.2336 28.2143L26.2784 27.96L26.4849 27.6342L26.5944 27.3701L26.6914 27.1751L26.8631 26.9011L27.0248 26.6962L27.2363 26.5284L27.49 26.3532L27.6542 26.3038L28.1792 26.1952L28.4006 26.3606L28.6718 26.563L28.7962 26.79L28.8982 27.4022L28.8584 27.6786L28.9131 28.0069L28.8957 28.3007L28.9281 28.6314L28.8485 28.935L28.8982 29.2411L28.8136 29.525L28.7788 29.8458L28.7589 30.1198L28.7465 30.4358L28.642 30.7221L28.6295 31.0381L28.5922 31.3367L28.54 31.6823L28.4952 31.9365L28.5275 32.2673L28.5101 32.561L28.4678 32.8375L28.3733 33.1904V33.4373L28.2986 33.7853L28.2364 34.0642L28.2663 34.3728L28.4753 34.5851L29.142 34.5456L29.7441 34.3802L30.1198 34.0272L30.1795 33.7261L30.2143 33.4052L30.274 33.1041L30.284 32.7659L30.3885 32.4796L30.4233 32.1587L30.4358 31.8427L30.5378 31.5342L30.585 31.1664L30.6895 30.8801L30.7617 30.532L30.8488 30.2704L30.8363 29.9347L30.9159 29.6286L31.0428 29.3398L31.1374 28.9869L31.2667 28.7178L31.3687 28.4093L31.4707 28.1007L31.4882 27.807L31.7021 27.5256L31.8066 27.2393L31.9111 26.953L32.0853 26.7012L32.1524 26.4445L32.4186 26.2223L32.5132 26.0051L32.6923 25.7731L32.8864 25.6299L33.165 25.472L33.4213 25.3189L33.9313 25.2597L34.19 25.3757L34.4836 25.5756L34.5807 25.8965L34.7026 26.5062L34.7274 26.795L34.6727 27.1183L34.6304 27.3948L34.6354 27.6861L34.516 28.0193L34.4961 28.2933L34.4363 28.5944L34.3343 28.9029L34.3144 29.1769L34.2771 29.4756L34.1975 29.7792L34.1627 30.1001L34.1328 30.4407L34.0034 30.7098L34.0532 31.0158L34.0059 31.3836L34.0134 31.6971L34.1502 32.2599L34.2498 32.603L34.4239 32.8671L34.6006 33.1534L34.8444 33.3163L35.0708 33.5039L35.3071 33.6224L35.6903 33.7162L35.9366 33.7656L36.4988 33.6298L36.8123 33.5558L37.091 33.3978L37.3049 33.2497L37.5935 33.0226L37.7752 32.8128L38.0165 32.5709L38.213 32.3142L38.325 32.0723L38.5464 31.8353L38.6982 31.5638L38.8027 31.2775L39.0166 30.9961L39.1485 30.7493L39.1983 30.5345L39.2032 30.5592L39.2729 31.1096L39.345 31.4132L39.4296 31.6699L39.666 31.9242L39.86 32.1858L40.0267 32.4055L40.2954 32.5857L40.5318 32.7042L40.8701 32.7832L41.114 32.8103L41.4498 32.8696L42.0594 32.7486L42.2609 32.6499L42.6067 32.5042L42.8456 32.3759L43.0496 32.1636L43.3033 31.9884L43.5074 31.7761L43.883 31.2874L44.0373 31.0381L44.1517 30.8184L44.3682 30.5592L44.6294 30.0458L44.7314 29.7372L44.8956 29.446L44.9329 29.525L44.9603 30.0828L45.0399 30.4284L45.2315 30.6678L45.4131 30.9763L45.54 31.2256L45.7515 31.4601L46.0824 31.6305L46.3635 31.7637L46.5974 31.86L46.8909 31.9242L47.2791 31.9069L47.8538 31.8353L48.426 31.6305L48.6798 31.4552L48.8688 31.2898L49.1002 31.117L49.3241 30.8998L49.548 30.6826L49.6799 30.4358L49.8541 30.1815L50.0332 29.9495L50.1775 29.6336L50.3293 29.3621L50.3467 29.3275V29.4707L50.287 29.7718L50.2671 30.0458L50.18 30.3074L50.2098 30.6184L50.068 31.2034L50.0307 31.5021L50.073 31.7637L49.6401 32.171L49.4436 32.292L49.1375 32.408L48.8042 32.4845L48.5678 32.6351L48.2543 32.7091L47.9931 32.8399L47.6697 32.9831L47.4159 33.1584L47.1596 33.3114L46.9656 33.4546L46.6247 33.6224L46.4207 33.8347L46.2142 34.0247L46.0351 34.2568L45.9082 34.5456L45.7266 34.7554L45.5823 35.0713L45.5475 35.3922L45.53 35.6859L45.4927 35.9846L45.5873 36.5523L45.6843 36.8732L45.8958 37.1077L46.0127 37.4261L46.264 37.6334L46.4854 37.7988L46.6869 37.9691L46.983 38.0555L47.2616 38.1666L47.6075 38.1543L47.8463 38.1617L48.4459 38.1098L48.7096 37.9988L48.9982 37.9074L49.2346 37.7569L49.5082 37.5767L49.7322 37.3595L49.9735 37.1176L50.1601 36.93L50.3517 36.651L50.4213 36.4141L50.6079 36.0907L50.695 35.8291L50.8667 35.5551L50.9289 35.2762L51.0483 34.943L51.1528 34.6566L51.2398 34.395L51.2946 34.0716L51.3617 33.8125L51.5235 33.4718L51.5608 33.1732L51.5782 32.8794L51.8693 32.4055L52.2076 32.2154L52.4365 32.0205L52.6779 31.7786L52.7998 31.6008L53.1133 31.3935L53.2924 31.1615L53.4889 30.9048L53.6705 30.695L53.8422 30.421L54.0661 30.2038L54.2129 29.91L54.3224 29.6459L54.5886 29.4238L54.6483 29.1226L54.8274 28.8906L54.9543 28.6018L55.1932 28.3377L55.2728 28.0316L55.427 27.7823L55.529 27.4738L55.7206 27.1949L55.7355 27.148L55.7679 27.3454L55.9371 27.5873L55.9918 27.9156L56.2281 28.1698L56.2879 28.4068L56.5068 28.6857L56.676 28.9276L56.9273 29.135L57.1288 29.3053L57.4547 29.4312L57.6587 29.6212L57.9772 29.7052L58.2359 29.8212L58.5046 29.8681L58.7982 29.9322L59.1689 29.9396L59.4849 29.8878L60.0347 29.7989L60.3307 29.7521L60.6368 29.636L60.8632 29.5546L61.0945 29.3818L61.5697 29.1029L61.8583 28.8758L62.0872 28.6808L62.4878 28.2118L62.6271 28.0094L62.8659 27.7453L63.0127 27.4516L63.1272 27.2319L63.2317 26.9456L63.3411 26.6814L63.5327 26.4025L63.5675 26.0816L63.672 25.7953L63.6919 25.5213L63.8114 25.1881L63.8039 24.8746L63.891 24.613L63.8412 24.3069L63.8785 24.0082L63.9059 23.6454L63.8338 23.3418L63.9781 23.0258L64.5105 22.9617L64.712 22.8605L65.0802 22.7321L65.319 22.6037L65.5181 22.3693L65.8092 22.1644L65.9236 21.9447L66.1948 21.7448L66.3416 21.451L66.4212 21.256L66.3938 21.5078L66.2669 21.7966L66.2296 22.0953L66.2869 22.4458L66.1998 22.7074L66.1898 23.0456L66.1475 23.322L66.1426 23.6824L66.0331 23.9465L66.0231 24.2847L65.9933 24.8968L65.8962 25.2276L65.9186 25.4942L65.8241 25.8471L65.849 26.1359L65.7719 26.4642L65.6873 26.7481L65.7196 27.0788L65.6151 27.3652L65.64 27.654L65.5504 28.0292L65.5081 28.3056L65.8589 28.587L66.1301 28.5203L66.3839 28.4784L66.7148 28.3797L66.9785 28.4043L67.3193 27.9674L67.3616 27.691L67.4139 27.3454L67.5159 27.0369L67.588 26.6888L67.6005 26.3729L67.705 26.0866L67.7398 25.7657L67.8592 25.4325L67.8443 25.0746L67.9886 24.7586L68.001 24.4427L68.1478 24.1489L68.22 23.8009L68.2648 23.5467L68.4016 23.1887L68.4638 22.9098L68.5434 22.6037L68.7126 22.3075L68.7673 21.9842L68.939 21.7102L69.0161 21.3844L69.1952 21.1524L69.3172 20.8414L69.449 20.5945L69.6481 20.36L69.7948 20.0663L69.9143 19.8664L70.1183 19.6541L70.3994 19.5183L70.5935 19.3752L70.8796 19.2616L71.3448 19.1876L71.7329 19.3036L71.917 19.4986L72.1609 19.7948L72.238 20.3897L72.1857 20.7352V21.0043L72.1534 21.3252L72.0912 21.6041L72.0788 21.92L72.0365 22.1965L71.9569 22.5025L71.8125 22.8185L71.7578 23.1418L71.7329 23.3936L71.7155 23.6873L71.626 24.0625L71.5662 24.3637L71.5488 24.6574L71.5364 24.9734L71.519 25.2671L71.5911 25.5707L71.6334 26.2149L71.7827 26.4593L71.8971 26.7555L72.0489 27.0221L72.3027 27.2516L72.5291 27.4392L72.8948 27.5602L73.1162 27.5923L73.4521 27.6515L74.0393 27.533L74.3701 27.4343L74.8478 27.1776L75.114 26.9554L75.3131 26.7209L75.4773 26.5383L75.741 26.2939L75.8704 26.0249L76.0172 25.7311L76.2212 25.5189L76.3605 25.1807L76.5147 24.9314L76.6416 24.6426L76.771 24.3735L76.8979 24.0848L77.0447 23.791L77.1243 23.4849L77.2313 23.2208L77.4029 22.9468L77.4651 22.6679L77.6268 22.3273L77.7313 22.041L77.8358 21.7546L77.6841 21.3523L77.6667 21.372ZM49.665 33.9951L49.5978 34.2518L49.451 34.5456L49.4336 34.8393L49.2694 35.1577L49.1599 35.4218L48.9858 35.6736L48.8141 35.9476L48.6275 36.1352L48.4583 36.2981L48.1125 36.4437L47.5378 36.5153L47.2616 36.4264L47.0377 36.1253L46.9407 35.5354L47.0178 35.2095L47.1273 34.9454L47.3413 34.664L47.5229 34.4542L47.8438 34.2913L48.0802 34.1408L48.3787 33.9803L48.5902 33.8125L48.941 33.7113L49.2196 33.5533L49.4908 33.4866L49.7123 33.652L49.66 33.9976L49.665 33.9951ZM62.0001 24.8771L62.0051 25.1683L61.8857 25.5016L61.7837 25.8101L61.6817 26.1187L61.5971 26.4025L61.418 26.6345L61.311 26.8987L61.1393 27.1726L60.8756 27.417L60.7064 27.5799L60.4601 27.7996L60.179 27.9354L59.8555 28.0785L59.2634 28.1748L59.0121 28.1032L58.7658 28.0538L58.4648 27.9452L58.2359 27.7354L58.0244 27.5009L57.7906 27.2689L57.6413 27.0245L57.5766 26.7654L57.4447 26.4938L57.3527 26.1952L57.2482 25.5608L57.2855 25.2621L57.2233 24.8894L57.2581 24.5685L57.3004 24.2921L57.3179 23.9984L57.3477 23.6577L57.4497 23.3492L57.5517 23.0406L57.7632 22.737L57.915 22.4655L57.9846 22.2286L58.2085 22.0113L58.3852 21.7596L58.6987 21.5522L58.8877 21.3869L59.2261 21.1968L59.4724 21.1129L60.067 21.0388L60.3108 21.066L60.5795 21.1129L60.903 21.2412L61.1244 21.4066L61.2563 21.6781L61.4429 21.8953L61.6767 22.1274L61.7439 22.4088L61.8583 22.705L61.9852 22.9543L62.0673 23.5911L62.0798 23.9268L62.0424 24.2254L62.0972 24.5537L62.0001 24.8845V24.8771Z" fill="#D2E9F7"/>
</svg>
