<svg width="103" height="88" viewBox="0 0 103 88" fill="none" xmlns="http://www.w3.org/2000/svg">
<path d="M6.99999 44.0001C6.99999 30.8584 12.7613 19.0624 21.896 11C22.48 10.4845 23.0778 9.98432 23.6888 9.5C31.1923 3.55203 40.6813 5.62865e-05 51 5.71886e-05C75.3005 5.9313e-05 95 19.6995 95 44.0001C95 68.3006 75.3005 88.0001 51 88.0001C26.6995 88.0001 6.99999 68.3006 6.99999 44.0001Z" fill="#003E52"/>
<path d="M6.99999 44.0001C6.99999 30.8584 12.7613 19.0624 21.896 11C22.48 10.4845 23.0778 9.98432 23.6888 9.5C16 15 15.5 16 7 16L6.99999 44.0001Z" fill="#003E52"/>
<path d="M78.3112 9.5C88.4784 17.5595 95 30.0182 95 44.0001L95 16C86.5 16 86 15 78.3112 9.5Z" fill="#003E52"/>
<path d="M51 81C71.4345 81 88 64.4345 88 44C88 23.5655 71.4345 7 51 7C30.5655 7 14 23.5655 14 44C14 64.4345 30.5655 81 51 81Z" fill="#004C6C" stroke="#0078C0" stroke-width="2"/>
<path d="M23.5824 39.6922L21.1392 43.7378L24.906 55.1045L30.6829 44.1723C30.6829 44.1723 40.7466 47.7118 41.177 47.3984C41.6074 47.0849 48.402 45.8359 48.402 45.8359L53.6739 38.5L65.0388 39.8576L73.4356 34.2397L72.5673 24.3787L63.3644 27.4122L59.6624 26.2916L55.7488 29.3647L55.9703 33.2449L48.4119 37.6262L44.8816 35.4417L37.0694 37.6238L34.8826 36.4538V30.6112L28.0034 31.29L23.5799 39.6922H23.5824Z" fill="#0078C0"/>
<path d="M102.294 33.7831L102.284 33.7091L102.291 33.6474L102.301 33.2401L102.281 33.1093L102.291 32.9982V32.5909L102.219 32.0973L101.649 30.7224L100.211 30.6163L99.6267 30.6582L97.9101 30.9051L97.6115 30.9149L96.987 31.0359L96.5865 31.068L94.7429 31.3642L94.2429 31.4358H94.0413L91.7151 31.7715L91.5708 31.8134L91.4638 31.8085L90.4463 31.9541L89.7024 32.1713L89.5083 32.3713L88.538 32.2997L87.9534 32.3416L86.2367 32.5885L85.9381 32.5983L85.3137 32.7193L84.9131 32.7514L83.0696 33.0476L82.5695 33.1192H82.368L80.0417 33.4549L79.8999 33.4968L79.7929 33.4919L78.7729 33.64L78.029 33.8572L77.198 34.7137L76.9219 35.6566V35.669L76.6009 35.4542L76.3546 35.3061L76.1083 35.0864L75.6356 34.8791L74.9838 34.5705L74.3145 34.3706L73.8766 34.2916L73.6801 34.2966L73.4413 34.2447L72.782 34.2571L72.4759 34.2719L72.2719 34.2669L71.5479 34.3311L71.1175 34.4299L70.6498 34.5311L70.1323 34.694L69.774 34.7828L69.3163 34.9778L69.1496 35.0297L68.5077 35.3012L68.0051 35.6467L67.5921 35.975L67.5225 36.0417L67.3185 36.1528L66.699 36.7254L66.2337 37.3894L66.2088 37.4289L65.9625 37.6634L65.6391 38.3397L65.4674 38.7371L65.2286 39.2382V39.2826L65.1689 39.174L65.0544 38.9222L64.7957 38.5248L64.5643 38.1052L64.1812 37.7744L64.0195 37.614L63.7408 37.3548L63.1661 36.9796L62.5118 36.7427L62.4048 36.7155L62.0888 36.5551L61.5141 36.4786L60.9344 36.4539H60.31H59.8049L59.5636 36.4884L59.1332 36.4934L58.5709 36.5748L58.2699 36.639H58.1255L55.976 36.95L55.874 36.9821L55.5804 37.0019L55.155 37.0981L53.3562 37.3573L52.5327 37.925L52.4556 37.8016L50.9578 37.651L50.5846 37.7473L49.985 37.7744L49.5173 37.9102L48.9326 37.9941L48.8779 38.0139L48.7635 38.0188L47.8504 38.1496L47.0891 38.2163L46.0292 38.7075L45.4719 39.7565L45.4495 39.8602L45.3376 40.0675L44.8002 39.1962L43.5836 38.7963L42.8198 38.9074L42.3919 38.9395L42.0933 38.9815L41.6206 39.0753L41.2673 39.0999L40.5632 39.2011L39.9238 39.248L39.6775 39.3567L39.0978 39.4406L38.2196 40.3144L38.0529 41.2375L38.0455 41.9064L38.0355 42.3902L38.0455 42.4569L37.8962 42.2446L37.7842 41.9953L37.5553 41.7164L37.4608 41.593L37.2419 41.2178L36.5079 40.7266L35.8038 40.3341L34.9878 40.1712H34.933L34.7788 40.0848H34.2563L34.0697 40.0626L33.7986 40.0577H33.2363L33.1069 40.0774L32.9427 40.0478L31.95 40.0725L31.3529 40.1589L30.8205 40.265L30.3229 40.3366L29.9447 40.4477L29.5641 40.5958L28.9521 40.7957L28.1858 41.2597L28.0091 41.3807L27.4991 41.709L27.1483 42.0965L26.7079 42.6815L26.4467 43.1209L26.3621 43.2862L26.0362 43.654L25.8869 44.3674L25.7849 44.7524L25.6804 45.1548L25.561 45.7521L25.5013 46.189L25.4192 46.7345L25.2923 47.3763L25.2649 47.6947L25.1903 47.9736V48.376V48.4327L25.1605 48.6573V48.6968L25.0883 48.914L25.1132 49.4423L25.1082 49.6077L25.0883 49.7582L25.0062 50.5728L25.0361 50.7752L25.0311 50.7949L24.949 50.242L24.8345 49.8594L24.7798 49.4818V49.2251L24.6654 48.6919L24.6032 48.2723L24.4489 47.6577L24.3867 47.3812L24.3394 47.0529L24.1603 46.0261L24.0508 45.2733L23.9687 45.1128L23.909 44.7129L23.4662 42.6864L22.3516 42.1163L21.6823 41.9583L20.814 42.0842L20.7991 42.0891L20.6896 42.0743L20.1547 42.1508L19.6223 42.2569L19.1322 42.3285L18.8983 42.3853L18.443 42.4273L17.9952 42.4914L16.7065 42.8691L16.4502 44.0909L16.4054 44.2267L16.3507 44.434L16.1939 44.903L16.0074 45.409L15.9053 45.9743L15.868 46.0532L15.6516 46.6308L15.5993 47.006L15.5272 47.2232L15.4998 47.4256L15.353 47.8625L15.2585 48.213L15.2386 48.3488L15.1689 48.492L15.0495 48.8499L14.8455 49.7508L14.5892 50.2445L14.5519 50.8122L14.4773 51.0615L14.4001 51.3799L14.3852 51.5502L14.2733 51.7674L14.231 52.2735L14.0668 52.7128L13.9946 53.2114L13.8727 53.5446L13.7831 53.9544L13.7757 53.8359L13.7807 53.399L13.7533 53.2114V53.125L13.8976 52.8239L13.7906 52.1007L13.8453 51.8933L13.8006 51.5897L13.8279 51.3849L13.8229 51.3429L13.8603 51.2466V50.4691L13.8254 49.9828L13.8155 49.9113L13.8304 49.7434L13.9548 48.5068L13.9299 48.3389L13.9672 48.0699L13.9747 47.7515L13.9498 47.0899L13.9772 46.9443V46.6111L13.9822 46.3198L13.9498 46.1051V45.9051L13.9424 45.8508L13.9896 45.5053L13.813 44.9548L13.41 43.7676L11.9968 43.4294H11.6137L11.4146 43.4097L9.97909 43.617L9.63576 43.6367L8.31467 43.8268L8.06587 43.891L6.41886 44.1279H6.33925L5.29432 44.1576L4.65492 44.3698L4.3489 44.3921L3.89859 44.4908L3.30895 44.5747L2.26651 45.0264L1.86595 45.7521L1.68184 46.2186L1.57486 46.811L1.58232 47.2652L1.61218 47.6108L1.51017 47.9934L1.56491 48.3661L1.55993 48.571V48.8227L1.5674 49.6866L1.76892 50.3679L2.62974 51.5947L3.7717 51.5724L4.21953 51.5502L6.33179 51.2466L6.34423 51.3256L6.33179 51.4935L6.27954 51.8761L6.32183 52.1599V52.3598L6.3293 52.4142L6.31188 52.4833L6.29944 53.0312V53.1176L6.27456 53.246L6.24471 53.8063L6.28452 54.0803L6.32183 54.606L6.29944 54.7689L6.30691 55.0972V55.1886L5.86157 55.1565L5.68244 55.0232L3.98815 55.2206L3.24426 55.3268L3.2169 55.3416L3.16216 55.3465L2.76658 55.3589L2.08986 55.5218L1.3808 55.623L1.05488 55.9686L0.58964 56.2006L0 57.3187L0.0447828 58.1234L0.0821017 58.5282L0 59.1354L0.0621983 59.8192L0.102005 60.3005L0.21645 61.2582L0.221426 61.51L0.328407 62.2406L0.4329 62.6948L0.676717 63.6105L0.714036 63.6821L0.723988 63.7438L0.955366 64.3856L1.08474 64.5707L1.15191 64.783L1.39075 65.2544L1.97044 65.911L2.33617 66.2492L2.59491 66.4639L2.92581 66.8046L3.71448 67.16L4.27427 67.3624L4.68726 67.4562L4.79673 67.4932L5.21222 67.5919L5.6476 67.6685L6.15514 67.6857L6.4736 67.6709H6.7622L7.69517 67.5352L8.2674 67.4167L8.96899 67.2069L9.54122 66.9749L9.78255 66.8539L10.1483 66.7058L10.4618 66.4689L10.6782 66.3504L11.3325 65.8493L11.5291 65.6222L11.855 66.4072L13.3428 66.5182L15.4724 66.2418H15.6292L16.2835 66.1924L16.5298 66.1233L17.734 65.9925L18.5923 65.2224L18.8162 64.6571L18.9655 64.3066L19.0227 63.85L19.0874 63.5858L19.3088 62.9663L19.381 62.5714L19.692 62.5343L19.7019 62.7787L19.8039 63.1835L19.9209 63.7636L20.2766 64.7583L21.4758 65.405L22.3939 65.2717L22.8492 65.2421L23.2746 65.136L23.3517 65.1162L23.5732 65.1039L23.9065 65.057L24.5235 64.9385L24.7748 64.9015L25.1256 64.8941L25.367 64.8249C25.4142 64.82 25.4615 64.8151 25.5088 64.8101C25.6829 64.7855 25.8521 64.7386 26.0113 64.6744L26.2477 64.5781L26.4467 64.4177C26.907 64.045 27.1483 63.497 27.1458 62.9046L27.31 63.0576L27.9469 63.4131L28.1161 63.492L28.3077 63.6031L28.6013 63.7241L28.9521 63.9388L29.584 64.0524L30.104 64.1684L30.3528 64.1733L30.614 64.2079L30.9971 64.1906H31.1489H31.4126L31.741 64.1733H32.0197L32.2411 64.1412L32.669 64.1264L33.097 63.9758L33.2935 63.9314L33.8433 63.8524L34.331 63.6648L34.6768 63.5562L35.0525 63.4032L35.8884 63.0798L36.3163 62.8207L36.9284 62.3048L37.4757 61.6778L37.7295 61.2681L37.7842 61.9567L39.4287 62.8478L40.1776 62.6627L40.3493 62.6577L41.4912 62.4924L41.8122 62.4233L42.1879 62.401L42.5063 62.3196L43.4443 62.1838L44.8002 61.4606L44.9719 59.7797L44.9345 59.5328L44.9544 59.4415L45.0241 58.9207L45.2828 59.4884L45.6137 60.0857L45.8252 60.6214L46.6661 61.547L47.93 61.5741L48.5669 61.4532H48.7286L49.5347 61.3372L49.7586 61.2804L50.515 61.1965L51.3111 61.083L52.9357 60.7769L53.0775 60.8633L54.0752 60.6633H54.1747L54.7519 60.6164L57.1801 60.2659L58.5908 59.8562L58.75 58.274L58.7426 57.8741L58.7898 57.6643V57.4323L58.8222 57.257V56.9979L58.9341 56.7634L58.8271 56.0303L58.8495 55.5983L58.8346 55.4946L58.8595 55.4058V55.0701L58.8819 54.8356L58.9167 54.5641L58.9242 54.258L58.964 54.0309L59.0088 53.3546L58.9814 53.1695L59.0063 53.0263V52.6486L59.1829 52.6314L60.1258 52.4265L60.5189 52.313L60.8996 52.2266L61.4121 52.0636L62.049 51.76L62.3824 51.5453L62.676 51.4095L63.4572 50.8714L63.6612 50.5407L64.0319 50.163L64.1986 49.8397V50.0174L64.216 50.126L64.1712 50.4568L64.2185 51.3157L64.2683 51.6588L64.2384 51.8538L64.318 52.3969L64.2732 52.7301L64.5544 53.6557L64.5817 53.7446L64.6962 54.2605L64.8056 54.4752L64.8629 54.6677L65.0445 55.0257L65.1017 55.2083L65.139 55.27L65.1838 55.5687L65.8108 56.3117L65.9277 56.4326L66.1168 56.7041L66.3332 56.8646L66.4029 56.9485L67.0821 57.5236L67.8559 57.9951L68.4231 58.2518L68.8859 58.432L69.6596 58.5208L69.8586 58.5159L70.5503 58.6196L70.9409 58.6072H71.3016L71.6873 58.5208L72.4834 58.4986L73.4039 58.237L73.7075 58.1061L73.8567 58.0617L74.2946 57.9013L74.4837 57.8247L74.7822 57.7384L75.7675 57.183L75.9988 56.9534L76.3049 56.6794L76.7801 56.2055L76.9194 55.9784L77.0164 55.8698L77.5911 55.1046L77.6384 54.8455L77.7479 54.6159L77.9394 54.2358L78.131 53.868L78.3201 53.204L78.5465 52.5252L78.539 52.3796L78.5838 52.2957L78.6883 51.449L78.6584 51.2417L78.7903 50.7925L78.7754 50.4963L78.9819 49.699L78.8973 49.4349L78.9645 48.9461L79.0615 48.6549V48.097L79.1038 47.7737L79.0515 47.4256V47.3047L79.0963 47.1739L79.1535 46.4753L79.1336 46.1347L79.161 45.8188V45.5077L79.2531 44.9277L79.2008 44.708L79.3003 44.3649L79.166 43.8317V43.696L79.1983 43.4393L79.1461 42.8123L79.1187 42.4495V42.1335L79.1237 41.8423L79.0416 41.2943L79.0615 41.1536L79.0515 40.9907L79.3153 40.9537L79.6014 40.9413L80.0592 40.8747L80.1114 40.8599L80.1288 40.9759L80.0791 41.282L80.0293 41.6423V42.0792L80.0343 42.099L79.9994 42.2471L80.0343 42.4865L79.9024 42.9382L80.0193 43.3257V43.3603L79.9547 43.7034V43.7133L79.8726 44.3254L79.9074 44.5673L79.8626 44.8586L79.9124 45.1943L79.7208 45.9397L79.8551 46.2334L79.8427 46.347L79.7606 46.7469L79.7108 47.1196V47.7218L79.6884 47.791L79.7258 48.3093L79.7059 48.4179L79.7009 49.035L79.6785 49.193L79.6536 49.6546L79.6014 50.1704L79.6362 50.4049L79.5715 51.1183L79.6312 51.3305L79.5466 51.7502L79.6088 52.1772L79.6188 52.3006L79.5864 52.4808L79.6213 52.9399L79.477 53.7396L79.5516 54.4925L79.5665 55.7464L81.1514 56.7806L81.7161 56.6992L82.1988 56.7856L82.7909 56.5461L85.3759 56.1734L86.6522 55.4156L86.8388 54.3888L86.8761 53.8334V53.4336L86.9234 52.7029L86.998 51.7724L86.9358 51.5428L86.9408 51.4515L86.9632 51.2318L87.0204 50.6123L87.0577 50.1655V50.0273L87.11 49.6842L87.1323 49.151L87.1771 48.4673L87.1075 48.2353L87.1697 47.8872V47.6898L87.197 47.5318L87.2045 47.085L87.1697 46.853L87.1746 46.7789L87.1995 46.3322L87.2393 45.7496L87.2294 45.6756L87.2493 45.5596L87.2319 45.3374L87.2592 45.2658L87.3339 44.5426L87.3065 44.1279L87.3165 44.0959L87.3538 43.5355L87.3911 43.264L87.3861 42.9357L87.5055 42.4692L87.4483 42.0743V41.9731L87.4234 41.5164L87.4384 41.4177L87.6399 40.4131L87.5603 40.2749L87.5901 39.875V39.7935L87.9857 39.7368L88.2345 39.6726L88.3863 39.6504L88.7296 39.638L90.1427 39.29L90.1502 39.2604L90.5732 39.3344L90.9886 39.2752L91.2747 39.2629L91.7325 39.1962L91.7848 39.1814L91.8022 39.2974L91.7524 39.606L91.7027 39.9639V40.4008L91.7076 40.4205L91.6728 40.5686L91.7076 40.808L91.5758 41.2597L91.6927 41.6473V41.6843L91.628 42.0274V42.0373L91.5459 42.6469L91.5808 42.8888L91.536 43.1801L91.5857 43.5158L91.3942 44.2612L91.5285 44.5574L91.5161 44.671L91.4365 45.0684L91.3867 45.4411V46.0409L91.3643 46.1125L91.4016 46.6284L91.3817 46.737V47.3565L91.3569 47.5145L91.332 47.9736L91.2797 48.4895L91.3146 48.724L91.2499 49.4398L91.3096 49.6521L91.225 50.0717L91.2872 50.4987L91.2971 50.6197L91.2648 50.7999L91.3021 51.259L91.1578 52.0612L91.2325 52.814L91.2474 54.0679L92.8322 55.1022L93.397 55.0207L93.8796 55.1071L94.4693 54.8677L97.0542 54.495L98.3305 53.7372L98.5171 52.7128L98.5544 52.1574V51.7576L98.6017 51.0294L98.6763 50.0964L98.6117 49.8668L98.6166 49.778L98.639 49.5558L98.6938 48.9363L98.7311 48.4895V48.3513L98.7833 48.0082L98.8057 47.475L98.8505 46.7937L98.7808 46.5617L98.843 46.2137V46.0138L98.8704 45.8582L98.8804 45.414L98.8455 45.1795L98.8505 45.1054L98.8754 44.6611L98.9152 44.0786L98.9052 44.0045L98.9251 43.8885L98.9077 43.6639L98.9351 43.5948L99.0097 42.8716L98.9799 42.4569L98.9898 42.4273L99.0271 41.8669L99.0645 41.5954L99.0595 41.2671L99.1789 40.8006L99.1217 40.4082V40.307L99.0943 39.8503L99.1092 39.7516L99.3133 38.747L99.2312 38.6087L99.261 38.2138V38.1299L99.6566 38.0731L99.9054 38.0089L100.057 37.9867L100.4 37.9744L101.816 37.6239L102.242 36.1231L102.204 35.6072L102.291 35.0494L102.264 34.5903L102.291 34.3879L102.304 33.8078L102.294 33.7831ZM37.3513 52.0118L36.386 52.0711L34.9032 52.1945L34.2912 52.2833L33.4478 52.3722L32.465 52.6412L32.2038 53.0411V52.6807L32.2535 52.2043L32.2486 51.9353L32.3008 50.9504L32.3282 50.7925L32.8009 51.338L34.5275 51.3256L36.4855 51.0738L36.9682 50.9702L37.9036 50.7554L37.8912 50.9949L37.8962 51.4614V51.7205L37.9186 52.0168L37.8788 52.345V52.4067L37.3463 52.0143L37.3513 52.0118ZM51.2613 54.4876L51.2439 54.4653L51.1046 53.9964L50.7463 53.6014L50.5398 53.1917L50.4378 53.0337L50.3831 52.8486L50.2239 52.5968L50.1866 52.4808L50.087 52.3006L50.0124 52.0316L49.7213 51.5724L49.5944 51.3774L49.4949 51.1676L49.4128 50.9677L49.072 50.2173L48.9003 49.8027L48.7311 49.5237L48.6615 49.3263L48.6167 49.2349L48.9177 48.687L49.1167 48.2451L49.1914 48.0477L49.3232 47.8181L49.5696 47.2849L49.7462 46.9641L49.9378 46.5889L50.2537 45.9446L50.3931 45.6879L50.505 45.4534L50.724 45.1005L50.8309 44.8931L51.0822 44.5007L51.1494 44.2193L51.2987 43.9947L51.3633 43.8021L51.443 43.696L51.5524 43.4664L51.7987 43.0937L51.8983 42.7975L51.8784 43.1011L51.841 43.464L51.8933 44.0391V44.0662L51.8311 44.7944L51.9082 44.982L51.8734 45.3103L51.8659 45.6262L51.8784 45.7891L51.8684 45.8286L51.8012 46.3075L51.8435 46.9122L51.8734 47.122L51.856 47.3417L51.8336 47.8823L51.8435 48.5241L51.8186 48.8943V49.0103L51.7888 49.2152V49.388L51.7465 49.6718L51.7813 50.1507L51.7316 50.3358V51.2219L51.744 51.37L51.6644 51.607L51.7117 51.9279L51.6793 52.1031L51.7067 52.2858L51.6072 52.5869L51.6743 53.0535L51.6868 53.2484L51.6495 53.4928L51.5947 53.8014V54.2086L51.6022 54.3L51.5674 54.4012L51.5475 55.1022L51.54 55.0923L51.2564 54.4999L51.2613 54.4876Z" fill="#0078C0"/>
<path d="M6.42612 65.9783L6.14001 65.9907L5.82155 65.9808L5.55534 65.9339L5.25679 65.8623L5.13488 65.8228L4.74676 65.7364L4.35118 65.5933L3.92077 65.3983L3.75159 65.223L3.45553 64.9787L3.18932 64.7318L2.80866 64.2999L2.72905 64.1394L2.62456 63.8111L2.47777 63.6038L2.38074 63.3323L2.35586 63.1644L2.27376 63.004L2.08219 62.2882L2.00009 61.9278L1.91799 61.3675L1.91301 61.1404L1.79359 60.1284L1.75627 59.6767L1.71149 59.1682L1.79359 58.5561L1.73885 57.9933L1.72144 57.6823L1.8334 57.465L2.07473 57.3441L2.19912 57.2108L2.39567 57.1812L2.98033 57.0405L3.23908 57.0331L3.667 57.001L3.74662 56.9615L4.16956 56.8998L5.18962 56.7813L5.22196 56.806L5.48319 56.8257L5.58768 57.154L5.62749 57.433L5.67725 58.3685L5.66232 58.8572L5.67476 59.341L5.71208 59.9926L5.73696 60.7603L5.80662 61.2367L5.88872 61.597L6.01312 61.8636L6.27684 62.0833L6.55051 62.187L6.86151 62.1425L7.22474 62.0611L7.5009 61.792L7.63774 61.5427L7.75467 61.1552L7.78204 60.7504L7.83678 60.3431L7.87658 59.6224L7.89649 59.3632L7.90395 59.0201L7.93132 58.6153L7.90644 58.4474L7.9338 58.2426V57.8699L7.9761 57.349L7.91888 57.1565L7.95122 56.9813L7.98605 56.4333L7.98108 56.0063L7.99103 55.4904V55.0905L7.98605 54.8634L8.01342 54.6585L7.98854 54.2908L7.95868 53.8958L7.9338 53.728L7.94873 53.4392L7.98108 53.2639V53.064L7.98854 52.7209L8.04327 52.5136L8.00347 52.2346V52.0347L7.97859 51.8669L8.00595 51.662L8.03332 51.2572L8.00844 51.0893L8.03581 50.8845L8.01093 50.5167L8.04327 50.3414L8.0383 49.9144L8.06069 49.4824L8.03581 49.3146L7.35412 49.3837L4.02526 49.8626L3.71178 49.8798L3.48289 49.8848L3.30128 49.6256L3.24405 49.4331L3.23908 48.8061V48.6062L3.24654 48.2631L3.22166 48.0952L3.2764 47.8879L3.30376 47.683L3.25898 47.1746L3.254 46.9475L3.30128 46.6834L3.38586 46.4711L3.45304 46.3477L3.75159 46.2193L4.17454 46.1576L4.56515 46.0737L4.96321 46.0441L5.56778 45.8416L6.31416 45.8194H6.51568L8.37666 45.5504L8.62545 45.4862L9.78234 45.3184L10.1257 45.2986L11.4219 45.111L11.5388 45.1234L11.5662 45.1184H11.7677L12.0663 45.19L12.1683 45.4887L12.2205 45.6516L12.1931 45.8565L12.218 46.0243V46.2242L12.2479 46.4192V46.592L12.2454 46.792L12.213 46.9672L12.2429 47.762V47.9348L12.1832 48.3421L12.213 48.5371L12.1061 49.5812L12.0737 49.9564L12.1036 50.1514L12.1285 50.5191V50.919L12.0464 51.1313L12.0837 51.3831L12.0563 51.5879L12.0862 51.7829L12.0314 51.9903L12.1135 52.5506L12.0265 52.7357V53.1356L12.024 53.3084L12.0538 53.5034V53.8761L12.0762 54.2439L12.009 54.5672L12.0289 54.9078L11.9643 55.2608L12.0016 55.9125L11.922 56.3518L11.8946 56.5567L11.9244 56.7517V56.9245L11.8921 57.1293L11.917 57.4971L11.8573 57.6773L11.8175 58.1981L11.8349 58.5092L11.8747 58.7881L11.8224 59.025L11.8349 59.3089L11.7503 59.5212L11.8349 59.7088L11.7801 59.9161L11.7876 60.1728L11.82 60.3974L11.7652 60.6048L11.7951 60.7998L11.7105 61.012L11.7403 61.207L11.6657 61.4761L11.5811 61.8883L11.5363 62.1796L11.4642 62.4758L11.3522 62.693L11.2726 62.9324L11.1159 63.241L11.0412 63.51L10.8845 63.8185L10.5063 64.1863L10.1356 64.6109L9.72014 64.9268L9.50618 65.0428L9.27231 65.2206L9.05586 65.3094L8.81453 65.4304L8.37914 65.6081L7.82682 65.7735L7.379 65.8673L6.61769 65.9759H6.41617L6.42612 65.9783Z" fill="#D2E9F7"/>
<path d="M15.5473 64.556H15.3458L13.2833 64.8251L13.0221 64.8053L12.9325 64.5906L12.9599 64.3857V64.2129L13.0843 63.8525L13.2559 63.4551L13.4152 62.5739L13.5346 62.2136L13.6266 61.8581L13.8381 61.1423L13.8978 60.7622L14.0496 60.2266L14.0819 60.0513L14.1939 59.8341L14.2859 59.4786L14.3183 59.3034V59.1035L14.378 58.9233L14.4651 58.5382L14.5198 58.3309L14.6591 57.9113L14.6865 57.7064L14.7064 57.4472L14.8134 57.2028L14.9328 56.8425L14.9602 56.6376L15.0721 56.2204V56.0477L15.1318 55.8403L15.1915 55.6601L15.2761 55.2479L15.3358 55.0677L15.4478 54.2507L15.5 54.0138L15.6443 53.6213L15.7165 53.1251L15.8409 52.7919L15.9006 52.6117L15.9329 52.2365L16.0449 52.0193L16.0772 51.6441L16.1121 51.496L16.2265 51.1085L16.2539 50.7037L16.3658 50.4865L16.4529 50.3014L16.5922 49.6818L16.6793 49.2968L16.739 49.1166L16.8709 48.8401L16.9157 48.5489L16.9704 48.3415L17.1495 47.8009L17.1769 47.5961L17.2366 47.4159L17.269 47.2406L17.2963 47.0358L17.4207 46.7025L17.5103 46.5174L17.5451 46.3693L17.6397 45.8411L17.784 45.4486L17.9631 44.9081L18.0178 44.7007L18.0775 44.5205L18.1447 44.1972L18.3388 44.1404L18.6199 44.1009L19.1598 44.0515L19.4384 43.9824L19.8888 43.9183L20.4212 43.8121L20.6749 43.7751L20.8814 43.8022L21.1302 43.7381L21.5805 43.6739L21.7298 43.7084L21.9488 43.8195L22.21 45.0093L22.2996 45.6239L22.3817 45.7843L22.4563 46.2879L22.6329 47.29L22.6902 47.6825L22.7723 48.0428L22.9116 48.5958L22.9688 48.9882L23.0584 49.4029V49.6028L23.1479 50.2174L23.2624 50.6L23.3445 51.1604L23.4291 51.5479V51.7207L23.5062 52.081L23.5311 52.2489L23.6256 52.6932L23.7276 52.9919L23.8869 54.0829L23.964 54.4136L24.0237 54.6333L24.1456 55.4725L24.3621 56.7561L24.3919 56.9511L24.4815 57.3658L24.5138 57.7903L24.5984 58.1778V58.3778L24.8099 59.4342L24.8348 59.6021L24.9169 59.9624L24.9741 60.155L25.0363 60.5746L25.0661 60.9695L25.1258 61.1892L25.1632 61.441L25.2826 62.0531L25.3697 62.6406C25.4144 62.7492 25.4791 62.996 25.3498 63.0997C25.2403 63.1441 25.1532 63.1293 25.0388 63.1441L24.8447 63.2009L24.6158 63.2058L24.2202 63.2626L23.6032 63.3811L23.3768 63.4132L23.0335 63.4329L22.8394 63.4897L22.5608 63.5588L22.1901 63.5835L21.7671 63.6452L21.6427 63.5786L21.5457 63.307L21.4437 62.8084L21.374 62.532L21.3616 62.2481L21.17 60.9325L21.1078 60.7128L20.4834 60.7745L20.0231 60.7844L18.7791 60.935L18.0178 61.0436L17.9233 61.3719L17.779 61.7643L17.7516 61.9692L17.6969 62.1765L17.6322 62.5295L17.4282 63.1022L17.3212 63.5465L17.2814 63.8673L17.2167 64.0204L17.1321 64.2327L16.9804 64.3684L16.1867 64.4548L15.9653 64.5165L15.5374 64.5486L15.5473 64.556ZM20.4859 56.9856L20.6351 56.8202L20.6053 56.4253L20.5456 56.2056L20.5406 55.9785L20.4336 55.2504V55.0505L20.3639 54.5741L20.3863 54.342L20.2595 53.6756L20.1326 52.6093L20.0131 51.5973L19.8912 50.9579L19.6773 51.074L19.6176 51.4541L19.5429 51.9231L19.4981 52.2143L19.4235 52.6833L19.3439 52.9227L19.2717 53.2189V53.4189L19.1872 53.6312L19.1399 53.8953L19.0852 54.1026L19.0379 54.3667L18.9583 55.006V55.206L18.8787 55.6453L18.7941 55.8576L18.7219 56.3537L18.6945 56.5586L18.6746 56.8178L18.6199 57.0251L18.8413 57.1658L19.0677 57.1337L19.3812 57.1165L19.64 57.1066L20.4859 56.9856Z" fill="#D2E9F7"/>
<path d="M32.0838 62.4508L31.8873 62.4805H31.6858L31.3723 62.4977L31.1434 62.5027H30.9693L30.6831 62.5125L30.4766 62.4854H30.3025L29.9144 62.3941L29.5586 62.3299L29.3695 62.2139L29.0635 62.0855L28.9068 61.9942L28.7202 61.9078L28.3121 61.6807L28.1778 61.5573L28.0161 61.4388L27.7623 61.076L27.4563 60.7477L27.3195 60.3947L27.2398 60.2343L27.1304 59.8788L27.0458 59.6912L26.9687 59.1605L26.9089 58.9409L26.8716 58.6891V58.4891L26.7646 57.761L26.7074 57.1686L26.7025 56.9415L26.6726 56.5466V56.1467L26.6427 55.9517V55.7789L26.6179 55.184L26.6726 54.7768L26.6079 54.5299L26.6303 54.2979L26.6701 53.977L26.6204 53.8413L26.6303 53.3254L26.7174 53.1403L26.6602 52.7478L26.6751 52.6589L26.6577 52.5479L26.6975 52.227L26.7099 51.911L26.7547 51.6198L26.7348 51.2791L26.7099 51.1113L26.7696 50.9311L26.7124 50.5386L26.7721 49.9586L26.7995 49.7537L26.8119 49.4378L26.7995 49.1539L26.8592 48.9737V48.7738L26.8866 48.5689L26.8915 48.3961V48.1962L26.9463 47.9888L26.9786 47.6137L27.0931 47.0262L27.1801 46.4412L27.2349 46.0339L27.3344 45.5329L27.4264 45.1774L27.5384 44.7603L27.6056 44.4369L27.7772 44.2419L27.934 43.9334L28.1181 43.6199L28.4564 43.1707L28.6057 43.0053L28.9466 42.7856L29.1033 42.677L29.6581 42.3388L30.1258 42.1858L30.4791 42.05L30.6732 41.9933L31.0961 41.9316L31.6286 41.8254L32.0789 41.7612L32.7954 41.744L33.0616 41.7909L33.3427 41.7514H33.7458L33.9199 41.7538L34.1264 41.781H34.328L34.4524 41.8476L34.7708 41.8575L35.1863 41.9414L35.5943 42.1685L35.9451 42.403L36.0222 42.5338L36.2014 42.7658L36.3059 42.8942L36.3905 43.0818L36.5721 43.341L36.6741 43.6396L36.7512 43.9704L36.8333 44.3308L36.898 44.5776L36.9876 44.9923L37.0771 45.6069L37.0896 45.8908L37.0672 46.1228L37.0722 46.5498L37.0821 47.0065L37.0722 48.1221L37.0473 48.3542L37.0124 49.1021L36.9154 49.2304L36.582 49.3069L36.1914 49.3909L34.4101 49.6204L33.5766 49.6254L33.3353 49.3464L33.2781 48.954L33.3054 48.7491L33.3452 48.2283V47.8284L33.4224 47.1891L33.3975 46.8213V46.4215L33.3353 46.0018L33.0915 45.523L32.7556 45.3996L32.3451 45.3453L32.0341 45.3897L31.7032 45.4934L31.4096 45.6489L31.2006 45.992L31.1409 46.1722L31.0862 46.3795L31.0439 46.8707L30.9568 47.2558L30.8573 47.7568L30.8822 47.9247L30.8175 48.2776L30.7951 48.7096L30.7603 49.0576L30.713 49.3217V49.5217L30.7105 49.6945L30.6831 49.8993V50.2992L30.6035 50.7386L30.5413 51.8913L30.5463 52.1184L30.499 52.5824V52.7824L30.4965 53.1551L30.4742 53.3871L30.4518 53.8191L30.5388 54.4065L30.4841 54.6139V54.8138L30.5165 55.0384V55.2384L30.4891 55.4432L30.5463 55.6358V56.2356L30.5811 56.4602L30.5538 56.865L30.5836 57.2599L30.6234 57.5388L30.6757 57.7018L30.7055 57.8967L30.8797 58.2991L31.1335 58.462L31.5763 58.541L32.0192 58.42L32.4421 58.3583L32.8004 58.0498L32.8924 57.8943L33.0442 57.3587L33.1288 56.9464L33.1885 56.5663V56.3935L33.1984 56.2504L33.2333 55.9023L33.2557 55.4704L33.2756 55.2112V55.0113L33.3626 54.6262L33.3776 54.3374L33.5418 54.0856L33.7632 54.0264L34.4996 53.9474L35.0918 53.861L36.485 53.745L36.8283 53.7253L37.0547 53.8931L37.1966 54.0733L37.2413 54.3818L37.209 54.5571L37.2388 54.7521V55.1248L37.2538 55.4358L37.2189 55.5839V55.7839L37.209 55.8999V56.4997L37.1791 56.6749L37.112 57.3981L37.0771 57.7462V57.9461L37.0498 58.151L36.9901 58.3312L36.8856 58.8026L36.7935 59.1581L36.7388 59.3654L36.6517 59.5505L36.5348 59.7381L36.475 59.9183L36.4427 60.0936L36.0944 60.6588L35.7237 61.0834L35.3132 61.4289L35.1291 61.54L34.42 61.814L34.0941 61.9473L33.7632 62.051L33.4099 62.1867L32.987 62.2484L32.6237 62.3299L32.3501 62.4261L32.0913 62.4336L32.0838 62.4508Z" fill="#D2E9F7"/>
<path d="M39.4017 60.9136L39.3693 60.489L39.3395 60.294L39.3942 60.0867L39.337 59.8941L39.3693 59.5189V59.3462L39.4315 58.966L39.4017 58.771L39.3967 58.544L39.3668 58.349L39.3992 57.9738L39.3793 57.8331L39.3619 57.3221L39.4166 57.1148L39.3867 56.7199L39.4191 56.5446L39.3942 56.3768L39.4539 55.9966L39.4241 55.8016L39.4788 55.1944L39.5062 54.7896L39.5012 54.3626V53.5628L39.5261 53.158L39.5509 52.926L39.5733 52.4941L39.6256 52.0572L39.5957 51.6622V51.4623L39.5907 51.0353L39.6206 50.4601L39.648 50.0553L39.643 49.8283V49.6283L39.6604 49.1692L39.6878 48.7644L39.6704 48.4534L39.6405 48.0585L39.7002 47.8783L39.6753 47.7104L39.7027 47.5056L39.6778 47.1378L39.7375 46.9576V46.5577L39.6803 46.3652L39.7151 46.0171L39.7425 45.8123L39.7176 45.6444L39.745 45.4396L39.7201 45.2717L39.6903 44.8768L39.7226 44.7015L39.7176 44.4744L39.7226 43.7315L39.7823 43.3513L39.7301 42.9885L39.7699 42.6676L39.7176 42.3048L39.7251 41.9617L39.7326 41.4186L39.7798 41.1545L39.8793 41.0558L40.1331 41.0188L40.3222 40.9348L40.7203 40.9052L41.4244 40.804L41.8224 40.7744L42.3548 40.6683L42.5514 40.6386L42.9793 40.6066L43.4023 40.5448L43.6436 40.6238L43.758 40.8065L43.7431 41.0953L43.7555 41.5791L43.7854 41.974L43.7705 42.4627L43.7481 42.8947V43.0946L43.773 43.6624L43.7506 43.8944L43.7307 44.1535L43.7431 44.4374L43.7157 44.6423L43.7456 44.8373L43.7132 45.0125L43.6834 45.7876L43.6486 46.1356L43.6386 46.6515L43.7232 46.8391L43.9645 46.5182L44.084 46.1578L44.3402 45.7506L44.4721 45.4741L44.6089 45.2248L44.8054 44.9953L44.905 44.6941L44.9398 44.546L45.1239 44.2325L45.2806 43.924L45.4697 43.6401L45.5742 43.3686L45.7956 42.907L46.0046 42.5639L46.032 42.3591L46.1688 42.1098L46.4176 41.6457L46.6192 41.2458L46.8679 40.7818L47.0122 40.5893L47.0645 40.3523L47.2461 40.0117L47.5148 39.8883L48.0273 39.8438L48.9006 39.718L49.1867 39.7056L49.3235 39.6562L49.8584 39.5797L50.2441 39.4662L50.8163 39.4415L51.0651 39.3773L51.4159 39.4119L51.5303 39.5945L51.3537 39.9623L51.299 40.1697L51.1148 40.4831L50.9059 40.8287L50.7939 41.0459L50.672 41.2064V41.3791L50.575 41.5346L50.4182 41.8432L50.3336 42.0555L50.2341 42.3566L50.045 42.6405L49.958 42.8256L49.8137 43.0181L49.734 43.2575L49.545 43.5414L49.4728 43.8376L49.331 44.0573L49.219 44.2745L48.9852 44.6497L48.8533 44.9261L48.7165 45.1754L48.3831 45.8518L48.2264 46.1603L48.0223 46.533L47.781 47.0538L47.6193 47.3328L47.5148 47.6043L47.363 47.94L46.955 48.6854L46.756 49.2852L46.853 49.5567L47.0595 49.9838L47.1565 50.2553L47.3481 50.5712L47.4825 50.8946L47.8233 51.645L47.9129 51.8597L48.0796 52.2077L48.2662 52.4941L48.4154 52.7286L48.4751 52.9482L48.5921 53.1605L48.6443 53.3234L48.7936 53.5579L48.8508 53.7504L49.0374 54.0368L49.1991 54.3552L49.2837 54.5428L49.5574 54.8464L49.6146 55.0389L49.6395 55.2068L49.7813 55.3869L49.948 55.735L49.9729 55.9028L50.249 56.2064L50.3137 56.4533L50.371 56.6458L50.4804 56.8013L50.5128 57.0259L50.6272 57.2086L50.7317 57.3369L50.7914 57.5566L50.9208 57.8528L51.1671 58.1614L51.3263 58.4526L51.5652 58.9043L51.6423 59.0352L51.6522 59.2919L51.0079 59.4128L50.3038 59.514L49.4255 59.6127L49.1767 59.6769L48.5846 59.7633H48.3831L47.7661 59.8818L47.4203 59.8744L47.2834 59.7238L47.1466 59.3708L46.7933 58.7365L46.4525 57.9861L46.2907 57.6677L46.1464 57.4604L46.0096 57.1098L45.925 56.9223L45.8454 56.7618L45.6464 56.3891L45.4772 56.0139L45.3155 55.6955L45.0941 55.3573L44.9846 55.0019L44.9323 54.839L44.8179 54.6563L44.6313 54.37L44.6014 54.175L44.4148 53.8887L44.3551 53.669L44.2332 53.4296L44.1163 53.2173L43.7555 52.5261L43.5242 52.1312L43.4396 52.1436V52.3163L43.4122 52.5484V52.7483L43.3799 52.9235L43.4097 53.5184V53.8911L43.3998 54.2342V54.4342L43.4246 54.602L43.3973 55.0068L43.3724 55.2388L43.4023 55.6338L43.4072 55.8609L43.4321 56.2286L43.3774 56.436L43.345 56.6112L43.3749 57.2061L43.355 57.6652L43.3202 58.0133L43.2878 58.1885V58.3884L43.3127 58.7562L43.258 59.1635L43.1908 59.4869L43.2405 59.8225L43.1808 60.4026L42.8873 60.5606L42.1533 60.6667L41.9045 60.7309L41.5612 60.7506L41.1706 60.8346L41.0014 60.8593L40.9118 60.8444L40.7178 60.9012L40.1829 60.9777L39.9241 60.9876L39.6455 61.0567L39.3942 60.921L39.4017 60.9136Z" fill="#D2E9F7"/>
<path d="M54.0909 58.9635H53.8894L53.3868 59.0647L53.1977 58.9486L53.1206 58.418L53.1803 58.2378L53.1231 58.0452L53.1505 57.6404L53.1256 57.4726L53.1529 57.0678L53.1753 56.6358L53.2077 56.2606V56.0607L53.2425 55.7127V55.5127L53.245 55.3399L53.2624 54.6809L53.3221 54.5007L53.2973 54.1329V53.933L53.3296 53.7577L53.3893 53.3776V53.2048L53.3719 52.8642L53.352 52.7235L53.4515 52.4224L53.4067 52.1138L53.4391 51.9386L53.4092 51.7436L53.4689 51.5634L53.4366 51.1388V50.539L53.4913 50.3317L53.4863 50.1046L53.4565 49.7097L53.4838 49.5048V49.332L53.5162 49.1271V48.9544L53.546 48.5495L53.5411 48.3225L53.5361 47.8954L53.556 47.4363L53.5883 47.0611L53.5386 46.7254L53.5137 46.3577L53.5411 46.1528L53.5958 45.9455L53.5709 45.5777V45.4049L53.6207 44.9408L53.6033 44.6298L53.5585 44.5212L53.5908 44.146V43.9732L53.5485 43.4648L53.5734 43.2327L53.6008 42.8279L53.648 42.5638L53.6281 42.2232L53.6555 42.0183L53.6232 41.7937L53.6505 41.5888V41.3889L53.6257 41.2211L53.653 41.0162L53.7003 40.5521V40.3522L53.6953 40.1251L53.7227 39.7203L53.7177 39.4932L53.7774 39.1131L53.9864 38.9699L55.4518 38.7577L55.815 38.6762L56.1857 38.6515L56.3499 38.5997L58.2408 38.3282H58.4423L58.8603 38.2393L59.2558 38.1825L59.6863 38.1776L59.9127 38.1455H60.2883H60.8929L61.3557 38.1653L61.5622 38.1924L61.7811 38.3035L61.9901 38.3578L62.3857 38.5009L62.6718 38.6885L62.8061 38.812L63.0076 39.0119L63.2067 39.1822L63.3236 39.3945L63.545 39.7326L63.6296 39.9202L63.7864 40.2115L63.861 40.5151L63.9182 40.7076L64.0476 41.0038L64.06 41.2877L64.1496 41.7024L64.1795 41.8974L64.2516 42.201L64.269 42.512L64.2566 42.8279V43.0279L64.2914 43.6524V44.0522L64.2367 44.2596L64.2417 44.4867L64.1869 44.694L64.1819 44.8668L64.1496 45.042L64.1222 45.4468L64.07 45.6838L63.9854 46.096L63.8386 46.6613L63.7416 46.9896L63.5923 47.3549L63.4007 47.8115L63.2564 48.004L63.1072 48.3669L62.8857 48.6285L62.729 48.9371L62.617 49.1543L62.2911 49.4875L62.1742 49.6751L61.8085 49.9269L61.5373 50.0528L61.1964 50.2724L60.766 50.4773L60.4351 50.581L60.0719 50.6624L59.6863 50.776L58.905 50.9463L58.3652 50.9957L57.7457 51.0845L57.3177 51.1166L57.3252 51.1734V51.3733L57.273 51.6103L57.2978 51.9781L57.263 52.1262L57.2879 52.4939V52.6667L57.2854 52.8667L57.2531 53.0419V53.2419L57.2779 53.4097L57.2506 53.8145L57.2033 54.0786L57.1958 54.4217L57.1685 54.6266L57.1336 54.9746V55.1746L57.0789 55.3819L57.1187 55.6608L57.0963 56.0928L57.1535 56.4852L57.064 56.6704L57.0963 56.895V57.0949L57.064 57.2702V57.4701L57.0117 57.7071L57.0217 57.9638L57.0267 58.1909L56.9918 58.5389L56.7978 58.5957L54.5412 58.9215L54.0859 58.9585L54.0909 58.9635ZM58.1288 47.4092L58.4299 47.308L58.9573 47.1747L59.1414 47.0611L59.5444 46.6613L59.8131 46.3379L59.9649 46.0022L60.052 45.8171L60.1366 45.4049L60.1565 45.1457L60.2311 44.8767L60.2734 44.3855V43.5857L60.2212 42.8502L60.1515 42.3738L59.9898 42.0554L59.7833 41.8283L59.44 41.6481L59.1787 41.6283L58.4124 41.7098L57.7681 41.8307L57.579 41.9147L57.4869 42.2701L57.4521 42.4182L57.4645 42.7021L57.477 43.1858L57.4496 43.3907L57.4148 43.7388V44.3114L57.3974 44.6002L57.3775 45.0593L57.3974 45.3999L57.4297 45.6246L57.4098 45.8837L57.3725 46.6045L57.4098 46.8563L57.3824 47.2611L57.3899 47.5178L58.1238 47.4116L58.1288 47.4092Z" fill="#D2E9F7"/>
<path d="M71.4619 56.8377L71.0986 56.9191H70.8971L70.6384 56.929L69.9616 56.8278L69.7328 56.8327L69.2924 56.7809L69.0784 56.697L68.648 56.502L68.0783 56.1564L67.618 55.7664L67.5135 55.6381L67.3518 55.5196L67.2423 55.3641L67.0732 55.1888L66.7945 54.8581L66.7696 54.6902L66.6552 54.5076L66.6029 54.3446L66.5258 54.2138L66.4462 54.0534L66.389 53.8609L66.3094 53.7004L66.2248 53.3129L66.1725 53.15L66.0058 52.602L66.0332 52.3971L65.9561 51.8664L66.0009 51.5752L65.9387 51.3555L65.9088 51.1605L65.874 50.536L65.9287 50.1287L65.8964 49.9041V49.5042L65.8665 49.3092L65.9212 48.902L65.8441 48.7711V48.3984L65.874 48.1936L65.8839 47.6777L65.9188 47.3296L65.8665 46.9668L65.9013 46.6188L65.8715 46.4238L65.9312 46.2436L65.9586 46.0387L65.9337 45.8708L65.961 45.666L65.9088 45.5031L66.0382 45.1995L66.0655 44.9946L66.0083 44.6021L66.0158 44.259L66.0705 44.0517L66.0755 43.8789V43.479L66.0854 42.7632L66.1974 42.546V42.1733L66.3168 41.7857L66.3716 41.5784L66.4362 41.2254L66.5208 40.8132L66.6402 40.4528L66.7248 40.2406L66.9264 39.8407V39.6408L67.0134 39.4556L67.1851 39.0582L67.3618 38.6905L67.5384 38.5226L67.6553 38.335L67.9887 37.8586L68.3196 37.555L68.5336 37.439L68.7102 37.2712L69.0187 37.0268L69.3322 36.8096L69.7377 36.6368L69.9019 36.585L70.3075 36.4122L70.5861 36.3431L71.0812 36.1851L71.4718 36.1012L71.8052 36.0247L72.3177 35.9802L72.4919 35.9852L72.8054 35.9679L73.2656 35.958L73.5045 36.0098L73.7333 36.0049L73.91 36.037L74.3628 36.1728L74.9201 36.4344L75.1664 36.543L75.3331 36.6911L75.6789 36.8984L76.0297 37.1329L76.1964 37.281L76.3108 37.4637L76.5323 37.8019L76.6417 37.9574L76.7214 38.1178L76.8059 38.3054L76.9527 38.7127L77.0871 39.236L77.1468 39.4556L77.1766 39.6506L77.2015 40.0184L77.1966 40.1912L77.2786 40.5516L77.3085 40.7466L77.3334 41.1144L77.306 41.3192L77.301 41.492L77.3583 41.6845L77.3981 41.9635L77.3931 42.1363V42.5361L77.4279 42.9607L77.4652 43.4124L77.4379 43.6173L77.4478 44.0739L77.5175 44.3504L77.423 44.6786L77.5001 45.0094L77.4404 45.3895V45.7622L77.4055 46.1374L77.4254 46.4781L77.3931 46.8532L77.3334 47.0334L77.3234 47.5493L77.3608 47.8011L77.3334 48.006V48.4058L77.2737 48.586L77.1344 49.6054L77.1866 49.7683L77.0945 50.1238L77.0348 50.304L77.0522 50.615L76.9577 50.9433L76.9229 51.2913L76.9527 51.4863L76.9129 51.8072L76.801 52.0244L76.8134 52.3083L76.6741 52.7279L76.5223 53.2635L76.4104 53.4807L76.2088 53.8806L76.1193 54.0657L76.0023 54.2533L75.97 54.4286L75.6814 54.8136L75.5321 54.979L75.4152 55.1666L75.1142 55.4677L74.8081 55.7393L74.7086 55.8405L74.0966 56.186L73.9025 56.2428L73.6861 56.3317L73.3029 56.4724L73.1089 56.5291L72.8103 56.6575L72.2033 56.8303L71.4569 56.8525L71.4619 56.8377ZM71.7903 52.9895L72.1684 52.8217L72.4048 52.6736L72.7581 52.3379L72.8974 51.9183L73.0094 51.5011L73.0367 51.2963L73.0044 51.0716L73.0268 50.6397L73.0541 50.4348V50.0349L73.1039 49.798L73.074 49.403L73.1288 49.1957L73.1611 48.8205L73.1561 48.5934L73.2159 48.4132L73.1835 48.1886L73.1437 48.1096L73.191 47.8455L73.2134 47.4136L73.1761 46.7619L73.2233 46.4978L73.2756 46.2608L73.2532 45.7203L73.3129 45.5401L73.2159 45.0686L73.2681 44.6317L73.2756 44.2886L73.3004 44.0566L73.3278 43.8517L73.2706 43.6592L73.2457 43.2914L73.2706 43.0594L73.298 42.6546L73.3179 42.3954L73.2656 42.0326L73.2482 41.5216L73.2233 41.1539V40.754L73.0268 40.211L72.8899 40.0604L72.6561 39.8358L72.1759 39.7049L71.6435 39.8111L71.427 39.8999L71.0016 40.132L70.7553 40.4232L70.6035 40.7589L70.5388 41.1119L70.4543 41.3242L70.3373 41.7117L70.3099 41.9166L70.2851 42.1486L70.203 42.7607L70.2104 42.8175L70.2154 43.0446L70.188 43.4494V43.6222L70.1283 44.0295L70.101 44.4343L70.0811 44.8934V45.0933L70.0537 45.2982L70.0587 45.7252L70.0064 45.9622L69.9592 46.4262L69.9318 46.6311V47.031L69.9616 47.226V47.4259L70.0238 47.6456L69.9691 47.8529L69.8845 48.2651L69.9442 48.4848L69.9169 48.6897L69.9616 48.7983L69.9417 49.0575L69.9741 49.2821L69.9467 49.487L69.9791 49.7116L69.9567 50.1435L69.9865 50.3385L69.9318 50.5459L70.0462 50.7285L70.0661 51.0692L69.994 51.3654L70.1084 51.548L70.2229 52.3305L70.3373 52.5131L70.4095 52.6168L70.616 52.8439L70.7777 52.9648L71.0165 53.0167L71.2504 53.0389H71.4245L71.7903 52.9895Z" fill="#D2E9F7"/>
<path d="M81.7266 54.979L81.53 55.0087L81.2439 54.8211L81.2389 54.3941L81.1817 53.8017L81.2937 53.1846L81.321 52.9797L81.2887 52.5551L81.321 52.3799L81.2912 51.985L81.2613 51.79L81.3459 51.3777V51.1778L81.2837 50.9581L81.3385 50.3509L81.3061 50.1263L81.3409 49.7783L81.3633 49.3463L81.3907 49.1414V48.9415V48.5688L81.4231 48.3935L81.3932 47.9986L81.4927 47.6975L81.3957 47.4259V47.226L81.4231 47.0211L81.5076 46.6089L81.5599 46.172L81.5873 45.9672L81.5027 45.7796L81.5947 45.4241L81.6271 45.2489L81.5698 44.8564L81.6146 44.5651L81.5773 44.3134L81.6047 44.1085L81.6917 43.9234L81.6619 43.7284L81.6942 43.5531L81.7166 43.1212L81.6594 42.9286L81.7564 42.6003L81.7166 42.3214L81.7515 42.1733L81.7191 41.9487V41.7488L81.7465 41.5439L81.8211 41.0749V40.9021L81.8012 40.7343V40.5343L81.7763 40.3665L81.8087 39.9913L81.836 39.7864L81.8311 39.3594L81.7938 38.9077L80.2711 39.1274L79.8731 39.157L79.679 39.2138L79.4252 39.2508L79.1391 39.2632L78.9127 39.2952L78.6465 39.2483L78.5246 39.0089L78.5321 38.6658L78.5843 38.4289L78.552 38.2042L78.4948 38.0117L78.5495 37.6044L78.5818 37.4292L78.552 37.0342L78.6117 36.6541L78.6714 36.4739L78.6142 36.0815V35.9087L78.7137 35.5804L78.9401 35.3484L79.1342 35.2916L79.8681 35.1855L80.0124 35.1929L80.2089 35.1632L80.403 35.1065L82.4904 34.8053H82.6919L83.3114 34.7165L85.1127 34.4277L85.5406 34.3956L86.1277 34.282L86.3865 34.2722L88.1355 34.0204L88.5336 33.9908L88.7948 34.0105L88.8844 34.2253L88.9092 34.3931V34.5931L88.8868 34.8251L88.9167 35.0201L88.9117 35.1929L88.8844 35.3977L88.9092 35.5656L88.9018 35.9087L88.8744 36.1136V36.2863L88.8918 36.627L88.8321 37.0071L88.8047 37.212L88.8346 37.6069L88.7575 37.8759L88.4788 37.9451L88.2201 37.9549L87.8817 38.0043L87.6329 38.0685L87.3518 38.108L86.1626 38.2511L85.9138 38.3153L85.8864 38.5202L85.9386 38.6831L85.8839 38.8904L85.9088 39.0583L85.8764 39.2335V39.6062L85.874 39.8062L85.8341 40.327L85.7545 40.5664L85.8317 40.6973L85.7471 41.1095L85.6874 41.4896L85.7122 41.6574L85.7321 41.9981V42.1708L85.757 42.3658L85.665 42.7213L85.6699 43.1483L85.6426 43.3532L85.6152 43.758L85.5555 43.9382L85.5854 44.1332L85.6102 44.501L85.5754 44.849L85.4908 45.0613L85.5207 45.4562L85.4883 45.6315L85.5132 45.7993L85.4858 46.2041L85.4634 46.6361L85.4436 46.8952L85.4834 47.1742V47.347L85.4485 47.5222V47.7221L85.3863 48.0751V48.275L85.3838 48.4478L85.4411 48.6404L85.4137 49.0452L85.3938 49.5043L85.3341 49.8844V50.0843L85.3042 50.4595L85.2495 51.0667L85.2271 51.2988L85.1997 51.7036L85.2594 51.9232L85.2097 52.5601L85.1549 53.3672V53.7671L85.1276 54.1719L85.0952 54.3472L84.7768 54.5347L82.3237 54.8877L81.9978 55.021L81.7316 54.9741L81.7266 54.979Z" fill="#D2E9F7"/>
<path d="M93.403 53.2993L93.2065 53.3289L92.9204 53.1413L92.9154 52.7143L92.8582 52.1219L92.9701 51.5048L92.9975 51.2999L92.9651 50.8754L92.9975 50.7001L92.9676 50.3052L92.9378 50.1102L93.0224 49.698V49.4981L92.9602 49.2784L93.0149 48.6712L92.9826 48.4466L93.0174 48.0985L93.0398 47.6666L93.0672 47.4617V47.2617V46.889L93.0995 46.7138L93.0696 46.3188L93.1692 46.0177L93.0721 45.7462V45.5463L93.0995 45.3414L93.1841 44.9292L93.2363 44.4923L93.2637 44.2874L93.1791 44.0998L93.2712 43.7444L93.3035 43.5691L93.2463 43.1767L93.2911 42.8854L93.2537 42.6336L93.2811 42.4287L93.3682 42.2436L93.3383 42.0486L93.3707 41.8734L93.3931 41.4414L93.3359 41.2489L93.4329 40.9206L93.3931 40.6417L93.4279 40.4936L93.3956 40.269V40.069L93.4229 39.8641L93.4976 39.3952V39.2224L93.4777 39.0545V38.8546L93.4528 38.6867L93.4851 38.3116L93.5125 38.1067L93.5075 37.6797L93.4702 37.228L91.9476 37.4476L91.5495 37.4773L91.3555 37.534L91.1017 37.5711L90.8156 37.5834L90.5892 37.6155L90.323 37.5686L90.2011 37.3292L90.2085 36.9861L90.2608 36.7491L90.2284 36.5245L90.1712 36.332L90.2259 35.9247L90.2583 35.7494L90.2284 35.3545L90.2881 34.9744L90.3478 34.7942L90.2906 34.4017V34.2289L90.3901 33.9006L90.6165 33.6686L90.8106 33.6118L91.5445 33.5057L91.6888 33.5131L91.8854 33.4835L92.0794 33.4267L94.1668 33.1256H94.3683L94.9878 33.0367L96.7891 32.7479L97.217 32.7158L97.8042 32.6023L98.0629 32.5924L99.8119 32.3407L100.21 32.311L100.471 32.3308L100.561 32.5455L100.586 32.7134V32.9133L100.563 33.1453L100.593 33.3403L100.588 33.5131L100.561 33.718L100.586 33.8858L100.578 34.2289L100.551 34.4338V34.6066L100.568 34.9472L100.509 35.3273L100.481 35.5322L100.511 35.9271L100.434 36.1962L100.155 36.2653L99.8965 36.2752L99.5582 36.3246L99.3094 36.3887L99.0282 36.4282L97.839 36.5714L97.5902 36.6356L97.5628 36.8404L97.6151 37.0033L97.5604 37.2107L97.5852 37.3785L97.5529 37.5538V37.9265L97.5504 38.1264L97.5106 38.6473L97.431 38.8867L97.5081 39.0175L97.4235 39.4297L97.3638 39.8098L97.3887 39.9777L97.4086 40.3183V40.4911L97.4335 40.6861L97.3414 41.0415L97.3464 41.4686L97.319 41.6734L97.2917 42.0782L97.2319 42.2584L97.2618 42.4534L97.2867 42.8212L97.2519 43.1692L97.1673 43.3815L97.1971 43.7765L97.1648 43.9517L97.1897 44.1196L97.1623 44.5244L97.1399 44.9563L97.12 45.2155L97.1598 45.4944V45.6672L97.125 45.8425V46.0424L97.0628 46.3954V46.5953L97.0603 46.7681L97.1175 46.9606L97.0901 47.3654L97.0702 47.8245L97.0105 48.2047V48.4046L96.9807 48.7798L96.9259 49.387L96.9035 49.619L96.8762 50.0238L96.9359 50.2435L96.8861 50.8803L96.8314 51.6875V52.0873L96.804 52.4922L96.7717 52.6674L96.4532 52.855L94.0001 53.208L93.6742 53.3413L93.408 53.2944L93.403 53.2993Z" fill="#D2E9F7"/>
<path d="M78.626 26.4275L77.3522 25.9388L76.0161 26.3263L75.6977 27.1434L75.4638 27.5975L75.4365 27.8148L75.3345 27.9604L75.123 28.417L75.0782 28.617L74.9638 28.7972L74.8543 29.0242V28.9008L74.9016 28.6836L74.9538 28.4442L75.0558 28.0961L75.0882 27.795L75.2175 27.4025L75.2051 27.0668L75.3195 26.7213L75.2797 26.3288L75.332 26.0919L75.317 25.5044L75.1155 24.6355L74.9812 24.3418L74.8792 23.9123L74.5732 23.5026L74.4065 23.2187L73.9984 22.8139L73.5033 22.4437L73.0655 22.3153L72.6699 22.145L72.0579 22.066L71.6449 22.1006L70.8114 22.1721L70.4357 22.3597L70.1148 22.4955L69.5873 22.8287L69.4107 22.9966L69.0002 23.2656L68.8733 23.4754L68.219 22.9447L67.3706 23.083L67.1517 23.1348L66.3555 23.1669L66.0495 23.5371L65.4972 23.8235L65.3703 24.5689L65.2882 24.7318L65.1688 25.0058L65.0668 25.1958L64.8802 25.5266L64.7657 25.7759L64.6836 25.9215L64.4846 26.1758L64.2383 26.3979L64.1313 26.1486L63.8327 25.8524L63.7556 25.7265L63.4272 25.1983L62.9446 24.8972L62.7828 24.7614L62.432 24.4998L61.9345 24.2628L61.4543 24.1369L61.0189 24.0629L60.3646 24.0012L59.862 24.0185L59.1704 24.1295L58.8171 24.211L58.4812 24.2949L57.904 24.5072L57.6328 24.7244L57.3343 24.8774L56.976 25.144L56.772 25.3563L56.5954 25.4871L56.2172 25.8031L55.844 26.2498L55.7544 26.4201L55.528 26.6472L55.2195 27.1927L55.1399 27.4322L55.0354 27.6L54.7642 28.1258L54.712 28.422L54.5702 28.7503L54.5254 29.1674L54.4731 29.3747L54.4035 29.7376L54.3512 30.093L54.3189 30.2806L54.1945 30.7447V30.9421L54.0353 31.2581L53.9681 31.5173L53.9482 31.5493L53.9905 31.4062L53.9532 31.0088L53.9756 30.8582L54.0527 30.5324L54.0925 30.2732L54.1821 29.9326L54.2194 29.5253L54.2766 29.1353L54.2492 28.8712L54.2642 28.812L54.406 28.3775L54.4284 27.8518L54.4234 27.6716L54.4756 27.4692L54.6174 26.5263L53.9333 25.8327L54.9235 24.9811L54.8538 24.2431L54.911 23.9987L54.921 23.7371L55.0056 23.4779L55.0503 23.1274L55.1474 22.7102L55.125 21.8315L54.1696 20.6393L53.0078 20.9602L52.8386 20.9997L52.5475 21.0194L51.6991 21.3033L50.9676 22.1055L50.7462 22.9497L50.8059 23.3051L50.6218 23.7074L50.6542 24.1394L50.6417 24.2357L50.378 25.2279L51.0298 25.8129L50.2561 26.8003L50.2287 27.2717L50.1019 27.5803L50.0471 28.1035L50.0247 28.4837V28.5651L49.8829 28.8539L49.8954 29.3649L49.868 29.5426L49.7909 29.8437L49.766 30.1844L49.6913 30.4361L49.6192 31.0063L49.6341 31.0927L49.4824 31.4432L49.3903 31.8431L49.358 31.9542L49.2161 32.2528L49.1141 32.5194L48.9574 32.8995L48.9101 33.0575L48.8106 33.1982L48.624 33.5339L48.4499 33.8572L48.3877 34.0251L48.2483 34.1905L48.0991 34.4373L47.9995 34.5681L47.915 34.6496L47.8876 34.6743L47.8677 34.6817L47.8428 34.5854V34.42L47.8204 34.1781L47.8403 33.914L47.8528 33.6079L47.9075 33.1859L47.8602 32.8921L47.8677 32.8378L47.9697 32.3516L47.9448 32.0504L47.9896 31.7443L47.9846 31.4383L48.0717 30.7768V30.562L48.1488 30.251L48.1389 29.8264L48.1563 29.5944L48.1638 29.4562L48.3056 29.0168L48.2707 28.5849L48.2782 28.3825L48.2981 28.1924L48.3852 27.8592L48.42 27.252L48.4772 27.0076L48.5568 26.5929L48.5743 26.1437L48.5693 25.9808L48.6912 25.5686L48.6464 25.2921L48.6688 25.2008L48.7758 24.6923L48.7708 24.3517L48.8007 24.1073L48.8156 23.9024L48.9275 23.4384L48.9002 23.0657V22.9867L49.0196 22.6633L49.0072 22.2881L49.1141 21.9253L49.0271 20.9577L48.0418 20L47.0616 20.0815L46.7257 20.1876L46.5441 20.2172L45.7579 20.2863L44.9394 21.323L44.815 21.9648L44.7702 22.3844L44.7627 22.6979L44.713 23.0262L44.703 23.1817L44.5612 23.5421L44.5737 23.9814L44.5289 24.2455L44.4965 24.6676L44.4891 24.8355L44.412 25.0477L44.3224 25.571L44.3149 26.0005L44.3025 26.2029L44.2477 26.5263L44.2278 26.8891L44.2204 27.1236L44.0263 27.8542L44.0661 28.2541L44.0313 28.4935L44.0089 28.7922L43.9741 29.1328L43.9641 29.397L43.9268 29.5821L43.8173 30.0363L43.775 30.7891L43.7875 31.1347L43.78 31.3124L43.7203 31.6209L43.7153 31.8381L43.5909 32.1442L43.6158 32.7391L43.479 33.0303L43.4242 33.2451L43.3048 33.4574L43.1804 33.7462L42.9764 34.1065L42.8918 34.3953L42.7848 34.6323L42.7326 34.7508L42.5958 34.8989L42.3718 35.2222L42.2375 35.395V35.3728L42.1753 35.1038L42.2126 34.8791L42.1902 34.5854L42.2151 34.3139L42.2275 33.9856L42.2375 33.7906L42.2997 33.5117L42.3221 33.0995L42.3295 32.9341L42.4266 32.6009L42.4092 32.1862L42.4216 32.1195L42.536 31.8085L42.6182 31.263L42.5982 31.0409L42.648 30.878L42.6978 30.4016L42.7052 30.1054L42.7177 30.0387L42.8893 29.5549L42.8545 29.1328L42.9217 28.3923L42.4141 27.7876L43.1058 26.9262L43.2252 26.2819L43.3197 25.8796L43.3397 25.5464L43.4019 25.1736L43.3969 24.9885L43.479 24.7787L43.6531 23.6161L42.4365 22.614L41.3966 22.7818L40.9761 22.9102L40.797 22.9743L40.1501 23.1175L39.1301 24.1246L39.1997 24.875L39.1823 25.0107L39.1624 25.1243L38.9509 25.6821L39.0181 26.0869L38.7071 26.9385L39.3863 27.6667L38.6698 28.6318L38.5952 29.1995L38.4907 29.5228L38.4459 29.9449L38.4011 30.2535L38.3439 30.5916L38.2966 30.9742L38.2916 31.1939L38.1523 31.616L38.2195 32.0208L38.1822 32.1862L38.105 32.902L38.0851 33.1686L38.0453 33.4277L37.9732 33.7511L37.9682 33.8301L37.8712 34.0251L37.6746 34.3707L37.4955 34.8298L37.4258 35.1013L37.4084 35.1408L37.4308 35.0815L37.4408 34.8125L37.5801 34.5064L37.6075 34.0251L37.6473 33.719L37.6597 33.4154L37.692 33.1957L37.7965 32.7885L37.7493 32.3269L37.7617 32.1615L37.7816 31.7024L37.6647 30.8187L37.4656 30.3004L37.0875 29.6364L36.7616 29.1699L36.3585 28.8391L35.9754 28.5528L35.1568 28.2837L34.6692 28.1899L34.2065 28.1258L33.2287 28.3208L32.8978 28.4985L32.5246 28.6416L32.1813 28.8786L31.8106 29.1008L31.5469 29.3846L31.2135 29.6314L30.9721 30.0289L30.9249 30.098L30.6761 29.8363L30.3974 29.629L29.9919 29.2513L29.1833 29.0785L28.7579 29.0687L27.8772 29.1477L27.3671 29.3599L27.0188 29.5574L26.7526 29.7104L26.2053 30.0955L26.0734 30.3127L25.5659 29.8709L24.7573 30.0017L24.4164 30.0338L23.6651 30.1547L22.7694 31.1692L22.6948 31.8752L22.6699 32.2158L22.6649 32.391L22.5604 32.6848L22.4958 33.3981L22.436 33.7881L22.4609 34.0325L22.3913 34.2719L22.4037 34.6965L22.3838 34.8742L22.3241 35.163L22.2694 35.474L22.1524 36.212L22.1325 36.6711L22.1425 36.8143L22.0852 37.0932L22.0753 37.3598L21.9733 37.7078V38.0658L21.9335 38.4064L21.9385 38.589L21.824 38.9371L21.8539 39.2752L21.7767 39.5986V39.8553L21.7195 40.0824L21.6548 40.5983L21.6747 40.7883L21.3389 41.6078L22.6674 42.684L23.7148 42.7161L24.0706 42.5606L24.1477 42.5483L24.8891 42.5557L25.8495 41.4079L25.8793 40.8895L25.9739 40.6328L26.0162 40.2404L26.1132 39.8281L26.1008 39.5097L26.1679 39.2506L26.1829 38.8951L26.2152 38.7223L26.3844 38.083L26.4391 37.8362L26.5984 37.3499L26.5735 37.0488L26.6232 36.8612L26.6655 36.6489L26.7825 36.3799L26.8571 36.0639L27.0263 35.6887L27.0661 35.3679L27.1581 35.1408L27.1805 35.0297L27.4044 34.7607L27.4642 34.4225L27.5985 34.2102L27.6756 34.0251L27.6856 34.0843L27.6707 34.341L27.6906 34.5508L27.601 34.8939L27.6483 35.1827L27.6134 35.3037L27.5686 35.7332L27.5438 36.0467L27.5363 36.212L27.4318 36.4984L27.4144 36.9525L27.3845 37.187L27.3373 37.503L27.2676 37.9053L27.3074 38.3076L27.3 38.4533L27.2776 38.6063L27.1631 39.0407V39.3221L27.1158 39.5369L27.0114 40.0034L27.0984 40.934L28.004 41.8596L29.3624 41.7781L30.385 41.4992L31.2707 40.6674L31.415 39.9269L31.4498 39.606L31.517 39.258L31.5245 39.0161L31.6115 38.7742L31.6663 38.2657L31.6737 38.0781L31.7583 37.8214L31.8031 37.4758L31.8927 37.2339L31.9698 36.8686L32.1042 36.4663L32.0917 36.0911L32.1017 36.0491L32.2261 35.7628L32.3131 35.4345L32.4276 35.1975L32.7037 34.3534L32.7087 34.2719L32.8082 34.1411L33.0272 33.5413L33.2362 33.2377L33.2586 33.1488L33.4451 32.9933L33.4576 32.9637L33.4029 33.334V33.5067L33.3058 33.7881L33.2785 34.151L33.2486 34.3065L33.1242 34.6841L33.0943 35.0741L33.072 35.2617L32.9899 35.5777L32.9451 36.0096L32.9351 36.1306L32.7336 36.5453L32.8182 37.0537L32.7809 37.3376L32.7958 37.8732L32.9675 38.5866L33.1267 39.1321L33.3929 39.5344L33.7014 40.033L34.1119 40.307L34.3955 40.544L34.8832 40.7883L35.428 40.9241L35.9704 41.0327L36.7914 40.8328L37.279 40.7192L37.7592 40.4477L38.0503 40.2478L38.4608 39.9244L38.6922 39.6603L38.9609 39.3913L39.0977 39.2111L39.1749 39.3147L39.6774 39.6554L40.1153 39.875L40.6651 40.0059L40.9463 40.038L41.4737 40.1293L42.4714 39.9293L42.7848 39.7738L43.1481 39.6208L43.6108 39.3715L43.8621 39.1074L44.1159 38.9321L44.4518 38.5816L44.7528 38.1892L44.9891 38.4508L45.5216 38.7248L45.7206 38.8186L45.5639 38.9815L45.3101 39.216L44.9742 39.6504L44.8623 39.9071L44.6856 40.1095L44.3871 40.7661L44.3298 41.3116L44.3149 41.593L44.2602 42.025L44.3945 42.8469L44.5936 43.506L44.8324 43.7701L44.9817 44.1774L45.5116 44.6143L45.7306 44.7772L46.1013 45.0906L46.5889 45.2338L47.0541 45.4214L47.6239 45.4016L47.8975 45.4091L48.7584 45.335L49.149 45.1721L49.5396 45.0487L49.9227 44.8043L50.2934 44.5624L50.6019 44.2662L50.8632 44.0046L51.1269 43.7405L51.4926 43.2122L51.5772 42.9259L51.7514 42.6223L51.831 42.3829L52.0375 42.0546L52.1295 41.6448L52.2191 41.3931L52.3236 41.1067L52.4529 40.7242L52.5151 40.3588L52.54 40.2626L52.7341 39.8528L52.8013 39.332L52.9306 39.2604L53.2864 38.9568L53.6422 38.6039L53.6944 38.5273L53.9805 38.3373L54.2866 37.9423L54.4582 37.7177L54.6796 37.4635L54.8215 37.2339L55.0877 36.9772L55.3489 36.4539L55.3589 36.4268L55.7271 36.1207L55.7868 35.8171L56.1401 36.1059L56.4983 36.407L56.7944 36.523L57.0556 36.7649L57.5756 36.9007L57.8816 37.0389L58.2747 37.108L58.6603 37.1944L59.2674 37.2068L60.6656 36.9797L61.0811 36.8217L61.4667 36.681L61.7902 36.4391L62.2803 36.1528L62.6535 35.8615L62.9744 35.5875L63.477 34.9976L63.6063 34.81L63.9049 34.4817L64.1213 34.0473L64.2681 33.7659L64.395 33.4228L64.4124 33.6055L64.3577 33.8375L64.2035 34.8569L65.5768 35.9578L66.3953 35.7579L66.6789 35.711L66.8556 35.6591L67.5547 35.7233L68.5076 34.5015L68.632 33.6647L68.7215 33.3907L68.8285 32.8773L68.8385 32.6502L68.9305 32.4009L68.9654 32.0751L69.1146 31.653L69.1022 31.3494L69.2241 31.0828L69.2365 30.7891L69.3361 30.5892L69.4455 30.0659L69.4729 29.9054L69.5998 29.5722L69.6769 29.2291L69.7117 29.0983L69.9058 28.7552L69.9556 28.459L70.1073 28.2171L70.1695 27.953L70.2939 27.7925L70.4531 27.3877L70.488 27.3211L70.6994 27.0718L70.896 26.6818L70.9681 26.6472L70.9632 26.6843V26.9805L70.9458 27.1656L70.8736 27.484L70.8587 27.8444L70.8363 27.99L70.799 28.1307L70.6323 28.4935L70.5427 29.0168L70.5128 29.3352L70.5004 29.5426L70.4307 29.8363L70.3511 30.2461L70.3287 30.641L70.3163 30.9372L70.2889 31.4087L70.3785 31.7838L70.4307 32.6231L70.677 33.0303L70.784 33.3117L71.0801 33.8326L71.5006 34.2077L71.926 34.5607L72.6201 34.7878L72.9311 34.8322L73.476 34.926L74.3467 34.7508L74.8543 34.6002L75.5534 34.225L75.9963 33.8548L76.255 33.5512L76.3719 33.4203L76.7625 33.0575L76.984 32.5959L77.0486 32.4676L77.2825 32.2232L77.4716 31.7641L77.6209 31.5222L77.7726 31.1742L77.902 30.9051L78.0239 30.6237L78.213 30.2461L78.305 29.8956L78.3424 29.8018L78.5688 29.4365L78.6459 29.0859L78.7728 28.8169L79.1559 27.7654L78.6484 26.4275H78.626ZM60.8348 30.4682L60.7626 30.7101L60.7676 30.9668L60.7228 31.0927L60.5114 31.7369L60.4815 31.8357L60.3422 32.0159L60.2103 32.3392L60.1805 32.3886L60.0212 32.5367L59.8695 32.6823L59.77 32.7712L59.663 32.823L59.5037 32.8921L59.342 32.9193L59.3122 32.9094L59.1231 32.8699L58.9265 32.6527L58.7947 32.5219L58.7499 32.3417L58.6031 32.0381L58.5633 31.9073L58.5011 31.5296L58.5384 31.2309L58.4762 30.8483L58.4912 30.7175L58.5359 30.4114L58.5534 30.0807L58.5708 29.898L58.6753 29.5821L58.8196 29.3747L59.0634 28.9329L59.0808 28.8786L59.1604 28.8021L59.2724 28.6416L59.4565 28.5182L59.6107 28.3825L59.7401 28.3109L59.7575 28.3035L60.076 28.264L60.1357 28.2714L60.1854 28.2813L60.2178 28.3479L60.5412 28.7206L60.5611 28.7404L60.5661 28.7626L60.7303 29.1946L60.7925 29.313L60.8398 29.6833L60.8472 29.8635L60.8 30.2387L60.8373 30.4657L60.8348 30.4682Z" fill="#0078C0"/>
<path d="M40.119 26.6469L40.3554 26.8987L40.736 26.837L41.3754 26.7802L41.6715 26.7308L41.9427 26.3952L42.0123 26.0249L42.087 25.6991L42.1044 25.4029L42.1591 25.0795L42.1517 24.7661L42.2736 24.455L42.3258 24.1095L42.0745 23.9046L41.674 23.9688L41.363 24.0626L41.1391 24.144L40.7609 24.228L40.4076 24.5785L40.4375 24.887L40.3977 25.1857L40.3529 25.4399L40.2185 25.8003L40.2633 26.0841L40.2235 26.3606L40.119 26.6469Z" fill="#D2E9F7"/>
<path d="M52.3204 25.0161L52.6289 24.9199L52.9324 24.9149L53.221 24.8236L53.639 24.4632L53.6091 24.1547L53.6862 23.8289L53.6987 23.5104L53.8007 23.2019L53.838 22.9057L53.9151 22.5774L53.9052 22.2639L53.7161 22.027L53.3205 22.1356L53.0294 22.2047L52.7931 22.2195L52.4025 22.3503L52.0915 22.6934L52.0094 22.9995L52.0542 23.2611L52.0218 23.6042L51.88 23.9177L51.8974 24.1621L51.8601 24.4608L51.7656 24.8137L52.0218 25.0408L52.3204 25.0161Z" fill="#D2E9F7"/>
<path d="M77.6667 27.3721L77.296 27.2289L76.9452 27.3301L76.8232 27.6411L76.659 27.9595L76.6217 28.2582L76.4103 28.5618L76.2983 28.8037L76.2361 29.0826L76.047 29.3838L75.9176 29.6528L75.7957 29.9638L75.6066 30.265L75.5096 30.46L75.2807 30.7882L75.1613 30.9882L74.9822 31.2202L74.7782 31.4325L74.5642 31.5806L74.3079 31.7336L73.7507 31.778L73.4123 31.5633L73.3277 30.9265L73.2779 30.6204L73.3501 30.2724L73.3675 29.9786L73.472 29.6923L73.5665 29.3393L73.6213 29.016V28.7691L73.6959 28.4211L73.7581 28.1422L73.8427 27.8583L73.8775 27.5374L73.9795 27.2289L73.9671 26.8932L74.0691 26.5847L74.0368 26.2539L74.099 25.975L74.0915 25.6615L73.9447 25.0345L73.8104 24.7408L73.7382 24.4372L73.5441 24.1756L73.4247 23.9707L73.1909 23.7387L72.9446 23.5535L72.6485 23.4672L72.345 23.3363L72.034 23.2968L71.7553 23.3191L71.1557 23.3709L70.9542 23.4696L70.6905 23.5807L70.3571 23.793L70.1879 23.9559L69.9143 24.1361L69.7774 24.3607L69.4814 24.5434L69.2823 24.7778L69.1355 25.0716L68.9788 25.2987L68.8295 25.5702L68.7424 25.8318L68.5932 26.1033L68.4812 26.3452L68.2648 26.6044L68.2473 26.8981L68.1155 27.145L68.0558 26.908L68.1329 26.5822L68.103 26.2737L68.1279 26.0219L68.1802 25.6763L68.1379 25.4147L68.1752 25.116L68.1503 24.8272L68.1802 24.4866L67.8791 24.2422L67.6254 24.2842L67.3343 24.3533L66.9685 24.3681L66.8541 24.5063L66.6227 24.6273L66.568 24.9506L66.4212 25.2444L66.2943 25.5332L66.1625 25.78L65.9933 26.0762L65.8813 26.3181L65.732 26.5896L65.5703 26.7945L65.4086 26.9993L64.9558 27.4091L64.7195 27.5597L64.3886 27.6584L63.8611 27.7448L63.3735 27.419L63.2093 27.0857L63.1023 26.834L62.8684 26.6019L62.7192 26.3576L62.5425 26.0713L62.229 25.8763L62.0275 25.7059L61.8061 25.5406L61.525 25.4073L61.2065 25.3233L60.8706 25.2666L60.3432 25.2172L59.9974 25.2295L59.4276 25.3209L59.1141 25.3949L58.8654 25.4591L58.5394 25.5801L58.328 25.7504L58.007 25.9133L57.813 26.0564L57.6089 26.2687L57.3776 26.4415L57.1114 26.6637L56.8949 26.9228L56.7805 27.1425L56.5391 27.3844L56.37 27.6806L56.2829 27.9422L56.1286 28.1916L55.9644 28.51L55.9196 28.7642L55.7928 29.053L55.7579 29.3739L55.6932 29.6306L55.6335 29.9317L55.5813 30.2773L55.5365 30.5315L55.442 30.8845V31.0869L55.437 31.1091L55.3698 31.3658L55.2056 31.6842L55.126 31.9903L54.9717 32.2396L54.8871 32.5235L54.8026 32.8073L54.6309 33.0813L54.3572 33.6639L54.2726 33.9477L54.096 34.202L53.984 34.4438L53.7925 34.7228L53.6208 34.9968L53.5063 35.2189L53.2924 35.5003L53.1406 35.7718L52.9789 35.9767L52.6978 36.2457L52.5161 36.4555L52.2997 36.7147L52.1106 36.8801L51.9439 36.7937L52.0285 36.5098L52.0161 36.1742L52.0584 35.8977L52.0882 35.5571L52.1504 35.2781L52.1877 34.9795L52.2052 34.6857L52.3171 34.3081L52.3345 34.0144L52.4191 33.7305L52.4117 33.417L52.4316 33.1455L52.546 32.7901V32.521L52.5958 32.1754L52.6754 31.8694L52.6679 31.5559L52.7525 31.272L52.7226 30.9635L52.7749 30.6179L52.852 30.2896L52.8943 30.0132L52.9739 29.7071L53.0038 29.3665L53.0461 29.09L53.0137 28.7593L53.0934 28.4557L53.1954 28.1471L53.2078 27.8312L53.2003 27.5177L53.2799 27.2116L53.3222 26.9352L53.0361 26.6439L52.7575 26.6661L52.4838 26.7105L52.1504 26.7871L51.8096 26.8192L51.4861 27.2314L51.4687 27.5251L51.3294 27.8633L51.2946 28.1841L51.2772 28.4779L51.2896 28.8136L51.1428 29.1073L51.1503 29.4208L51.098 29.7664L51.0309 30.0231L51.0035 30.3859L50.9189 30.6698L50.8816 30.9684L50.9313 31.2745L50.8393 31.5115L50.7995 31.5189L50.6726 31.8077L50.5955 32.1335L50.5258 32.3704L50.3641 32.7111L50.272 32.9505L50.1327 33.2887L50.0481 33.5725L49.874 33.8243L49.7222 34.0958L49.5903 34.3426L49.4859 34.629L49.2694 34.8881L49.1326 35.1128L48.936 35.3695L48.7668 35.5324L48.5205 35.7521L48.212 35.8483L47.9707 35.9545L47.4184 36.0211L47.1223 35.9347L46.9233 35.6533L46.7914 35.3818L46.6198 34.7351V34.4661L46.5924 34.1773L46.6198 33.8144L46.6322 33.4985L46.6695 33.1998L46.6198 32.8937L46.662 32.6173L46.7342 32.2692L46.7118 32.0027L46.7641 31.6571L46.7591 31.3658L46.7964 31.0672L46.8437 30.6994L46.8387 30.4081L46.9183 30.102L46.9108 29.7886L46.9307 29.5146L46.9482 29.2208L47.0626 28.8654L47.0402 28.5988L47.0527 28.2829L47.0875 27.962L47.1671 27.6559L47.1845 27.3622L47.2019 27.0685L47.2791 26.7426L47.3388 26.4415L47.3512 26.1256L47.3437 25.8121L47.4408 25.4813L47.401 25.2419L47.4781 24.9161L47.5502 24.568L47.5453 24.2768L47.5826 23.9781L47.6025 23.7041L47.692 23.3314L47.6721 23.087L47.6821 22.7489L47.7866 22.4625L47.7742 22.1269L47.8712 21.7961L47.8463 21.5073L47.5876 21.258L47.3089 21.2802L47.0203 21.3715L46.7043 21.4234L46.4058 21.4505L46.0998 21.8381L46.0401 22.1392L46.0052 22.4601L45.9953 22.7982L45.943 23.1438L45.9256 23.4375L45.8037 23.7485L45.8112 24.062L45.7564 24.3854L45.7291 24.7482L45.7166 25.0642L45.6121 25.3505L45.5574 25.6738L45.5524 26.0342L45.535 26.328L45.4803 26.6513L45.4629 26.945L45.4529 27.2832L45.3733 27.5893L45.2788 27.9422L45.3111 28.273L45.2589 28.6186L45.2389 28.8926L45.2041 29.2134L45.1917 29.5294L45.132 29.8305L45.0424 30.2032L45.025 30.497L45.0076 30.7907L45.02 31.1264L45.0076 31.4423L44.9479 31.7435L44.9379 32.0816L44.8309 32.3458L44.8459 32.7037V32.8419L44.8011 33.0912L44.6394 33.4318L44.5722 33.6885L44.4055 33.9847L44.2786 34.2735L44.1094 34.5697L44.0398 34.8067L43.8955 35.1226L43.7686 35.4114L43.5472 35.6484L43.3556 35.9273L43.1765 36.1593L42.96 36.4185L42.8157 36.5987L42.3057 36.9295L41.6812 36.964L41.4623 36.8209L41.216 36.6357L41.1065 36.3617L40.9199 35.7619L40.9721 35.4164L40.905 35.135L40.9597 34.8116L40.9398 34.5673L40.9697 34.2266L40.9821 33.9107L40.9995 33.617L41.0617 33.338L41.0791 33.0443L41.0916 32.7284L41.1762 32.4445L41.1612 32.0866L41.2209 31.7854L41.3254 31.4991L41.3652 31.2227L41.3354 30.9141L41.42 30.6303L41.4548 30.3094L41.4648 29.9712L41.5095 29.717L41.629 29.3838L41.6066 29.1172L41.6364 28.7765L41.42 28.5198L41.1065 28.5939L40.7607 28.6038L40.1262 28.7074L39.8426 29.09L39.7954 29.4578L39.6933 29.7664L39.6585 30.0872L39.6063 30.4328L39.5515 30.7562L39.5142 31.0548L39.5043 31.393L39.4023 31.7015L39.4595 32.052L39.3824 32.3778L39.3475 32.6987L39.3127 33.0196L39.2928 33.2936L39.2405 33.6392L39.1783 33.9181L39.1659 34.081L39.0888 34.2908L38.942 34.5845L38.7728 34.8807L38.6509 35.1918L38.5713 35.4954L38.4593 35.7373L38.2951 36.0557L38.1807 36.2778L37.9667 36.5592L37.7951 36.8332L37.591 37.0455L37.4343 37.2726L37.2776 37.4996L37.0586 37.6255L36.8049 37.8008L36.2476 37.8452L35.944 37.5811L35.7798 36.9788L35.8395 36.6777L35.8694 36.3371L35.9042 36.0162L36.0062 35.7076L36.0436 35.409L36.0809 35.1103L36.1854 34.824L36.1978 34.508L36.3421 34.1921L36.3595 33.8983L36.3968 33.5997L36.4093 33.2837L36.4615 32.9382L36.5262 32.6815L36.4889 32.3285L36.5088 32.0545L36.5212 31.7386L36.4366 31.1017L36.3222 30.8055L36.1704 30.5389L36.0187 30.2724L35.8196 29.991L35.5684 29.7836L35.3693 29.6355L35.0484 29.5294L34.8195 29.4553L34.4388 29.3813L34.2174 29.3492L33.6303 29.4677L33.3914 29.596L33.0854 29.712L32.8316 29.8873L32.5754 30.0403L32.354 30.2773L32.1226 30.4501L31.9857 30.6747L31.8116 30.9265L31.6125 31.161L31.4459 31.4572L31.309 31.6818L31.2219 31.9434L31.0503 32.2174L30.9035 32.5111L30.8413 32.7901L30.702 33.1282L30.6547 33.3602L30.6 33.6836L30.585 33.3257L30.5975 33.0097L30.5552 32.7481L30.5427 32.4124L30.4183 31.7805L30.3686 31.4744L30.2342 31.1807L30.0178 30.924L29.8337 30.729L29.5874 30.5439L29.3834 30.3538L29.0226 30.2773L28.7838 30.2724L28.1643 30.3267L27.9006 30.4377L27.6219 30.5957L27.403 30.7216L27.1119 30.9265L26.975 31.1511L26.6914 31.3979L26.5098 31.6077L26.3779 31.8546L26.2262 32.1261L26.0097 32.3853L25.8629 32.679L25.7759 32.9406L25.654 33.2516L25.5271 33.5404L25.4823 33.7947L25.3156 34.0909L25.3355 33.8169L25.328 33.5034L25.3529 33.2516L25.3454 32.9382L25.3554 32.6L25.3803 32.3482L25.3927 32.0323L25.4897 31.7015L25.4848 31.4103L25.1812 31.1462L24.9076 31.1906L24.5667 31.2227L24.2931 31.2671L23.9447 31.6596L23.9099 31.9804L23.89 32.2544L23.8801 32.5926L23.7606 32.9258L23.7358 33.1776L23.7059 33.5182L23.6636 33.7947L23.6959 34.1254L23.6114 34.4093L23.6188 34.7228L23.584 35.0437L23.5118 35.3917L23.4671 35.6459L23.3601 36.3148L23.3476 36.6308L23.3651 36.8752L23.2929 37.2232L23.2805 37.5391L23.1834 37.8699V38.1167L23.1461 38.4376L23.1536 38.7511L23.0516 39.0596L23.0765 39.3484L22.9869 39.7236V39.9927L22.9073 40.2963L22.87 40.5949L22.9073 40.9479L22.8003 41.212L23.1013 41.4564L23.4496 41.4663L23.6935 41.3601L24.0318 41.3058H24.2931L24.619 40.9183L24.6364 40.6246L24.7409 40.3382L24.7757 40.0173L24.8528 39.6915L24.8404 39.3558L24.92 39.0498L24.9325 38.7338L24.9922 38.4327L25.0718 38.1291L25.1663 37.7761L25.2285 37.4972L25.3305 37.1886L25.3081 36.9221L25.4027 36.5691L25.4624 36.2679L25.5893 35.9792L25.6664 35.6533L25.8107 35.3374L25.848 35.0387L25.9575 34.7746L26.0172 34.4735L26.2336 34.2143L26.2784 33.9601L26.4849 33.6342L26.5944 33.3701L26.6914 33.1751L26.8631 32.9011L27.0248 32.6963L27.2363 32.5284L27.49 32.3532L27.6542 32.3038L28.1792 32.1952L28.4006 32.3606L28.6718 32.563L28.7962 32.7901L28.8982 33.4022L28.8584 33.6787L28.9131 34.007L28.8957 34.3007L28.9281 34.6314L28.8485 34.935L28.8982 35.2411L28.8136 35.525L28.7788 35.8459L28.7589 36.1198L28.7465 36.4358L28.642 36.7221L28.6295 37.0381L28.5922 37.3367L28.54 37.6823L28.4952 37.9365L28.5275 38.2673L28.5101 38.561L28.4678 38.8375L28.3733 39.1905V39.4373L28.2986 39.7853L28.2364 40.0642L28.2663 40.3728L28.4753 40.5851L29.142 40.5456L29.7441 40.3802L30.1198 40.0272L30.1795 39.7261L30.2143 39.4052L30.274 39.1041L30.284 38.7659L30.3885 38.4796L30.4233 38.1587L30.4358 37.8427L30.5378 37.5342L30.585 37.1664L30.6895 36.8801L30.7617 36.5321L30.8488 36.2704L30.8363 35.9347L30.9159 35.6286L31.0428 35.3399L31.1374 34.9869L31.2667 34.7178L31.3687 34.4093L31.4707 34.1007L31.4882 33.807L31.7021 33.5256L31.8066 33.2393L31.9111 32.953L32.0853 32.7012L32.1524 32.4445L32.4186 32.2223L32.5132 32.0051L32.6923 31.7731L32.8864 31.6299L33.165 31.472L33.4213 31.3189L33.9313 31.2597L34.19 31.3757L34.4836 31.5756L34.5807 31.8965L34.7026 32.5062L34.7274 32.795L34.6727 33.1184L34.6304 33.3948L34.6354 33.6861L34.516 34.0193L34.4961 34.2933L34.4363 34.5944L34.3343 34.903L34.3144 35.1769L34.2771 35.4756L34.1975 35.7792L34.1627 36.1001L34.1328 36.4407L34.0034 36.7098L34.0532 37.0159L34.0059 37.3836L34.0134 37.6971L34.1502 38.2599L34.2498 38.603L34.4239 38.8671L34.6006 39.1534L34.8444 39.3163L35.0708 39.5039L35.3071 39.6224L35.6903 39.7162L35.9366 39.7656L36.4988 39.6298L36.8123 39.5558L37.091 39.3978L37.3049 39.2497L37.5935 39.0226L37.7752 38.8128L38.0165 38.5709L38.213 38.3142L38.325 38.0723L38.5464 37.8353L38.6982 37.5638L38.8027 37.2775L39.0166 36.9961L39.1485 36.7493L39.1983 36.5345L39.2032 36.5592L39.2729 37.1097L39.345 37.4133L39.4296 37.67L39.666 37.9242L39.86 38.1858L40.0267 38.4055L40.2954 38.5857L40.5318 38.7042L40.8701 38.7832L41.114 38.8103L41.4498 38.8696L42.0594 38.7486L42.2609 38.6499L42.6067 38.5043L42.8456 38.3759L43.0496 38.1636L43.3033 37.9884L43.5074 37.7761L43.883 37.2874L44.0373 37.0381L44.1517 36.8184L44.3682 36.5592L44.6294 36.0458L44.7314 35.7373L44.8956 35.446L44.9329 35.525L44.9603 36.0828L45.0399 36.4284L45.2315 36.6678L45.4131 36.9764L45.54 37.2257L45.7515 37.4602L46.0824 37.6305L46.3635 37.7638L46.5974 37.86L46.8909 37.9242L47.2791 37.9069L47.8538 37.8353L48.426 37.6305L48.6798 37.4552L48.8688 37.2898L49.1002 37.1171L49.3241 36.8998L49.548 36.6826L49.6799 36.4358L49.8541 36.1816L50.0332 35.9495L50.1775 35.6336L50.3293 35.3621L50.3467 35.3275V35.4707L50.287 35.7718L50.2671 36.0458L50.18 36.3074L50.2098 36.6185L50.068 37.2034L50.0307 37.5021L50.073 37.7638L49.6401 38.171L49.4436 38.292L49.1375 38.408L48.8042 38.4845L48.5678 38.6351L48.2543 38.7091L47.9931 38.84L47.6697 38.9831L47.4159 39.1584L47.1596 39.3114L46.9656 39.4546L46.6247 39.6224L46.4207 39.8347L46.2142 40.0248L46.0351 40.2568L45.9082 40.5456L45.7266 40.7554L45.5823 41.0713L45.5475 41.3922L45.53 41.6859L45.4927 41.9846L45.5873 42.5523L45.6843 42.8732L45.8958 43.1077L46.0127 43.4261L46.264 43.6335L46.4854 43.7988L46.6869 43.9692L46.983 44.0555L47.2616 44.1666L47.6075 44.1543L47.8463 44.1617L48.4459 44.1099L48.7096 43.9988L48.9982 43.9074L49.2346 43.7569L49.5082 43.5767L49.7322 43.3595L49.9735 43.1176L50.1601 42.93L50.3517 42.6511L50.4213 42.4141L50.6079 42.0907L50.695 41.8291L50.8667 41.5551L50.9289 41.2762L51.0483 40.943L51.1528 40.6566L51.2398 40.395L51.2946 40.0717L51.3617 39.8125L51.5235 39.4718L51.5608 39.1732L51.5782 38.8794L51.8693 38.4055L52.2076 38.2155L52.4365 38.0205L52.6779 37.7786L52.7998 37.6009L53.1133 37.3935L53.2924 37.1615L53.4889 36.9048L53.6705 36.695L53.8422 36.421L54.0661 36.2038L54.2129 35.91L54.3224 35.6459L54.5886 35.4238L54.6483 35.1226L54.8274 34.8906L54.9543 34.6018L55.1932 34.3377L55.2728 34.0316L55.427 33.7823L55.529 33.4738L55.7206 33.1949L55.7355 33.148L55.7679 33.3454L55.9371 33.5873L55.9918 33.9156L56.2281 34.1699L56.2879 34.4068L56.5068 34.6857L56.676 34.9276L56.9273 35.135L57.1288 35.3053L57.4547 35.4312L57.6587 35.6212L57.9772 35.7052L58.2359 35.8212L58.5046 35.8681L58.7982 35.9323L59.1689 35.9397L59.4849 35.8878L60.0347 35.799L60.3307 35.7521L60.6368 35.6361L60.8632 35.5546L61.0945 35.3818L61.5697 35.1029L61.8583 34.8758L62.0872 34.6808L62.4878 34.2118L62.6271 34.0094L62.8659 33.7453L63.0127 33.4516L63.1272 33.2319L63.2317 32.9456L63.3411 32.6815L63.5327 32.4025L63.5675 32.0816L63.672 31.7953L63.6919 31.5213L63.8114 31.1881L63.8039 30.8746L63.891 30.613L63.8412 30.3069L63.8785 30.0082L63.9059 29.6454L63.8338 29.3418L63.9781 29.0259L64.5105 28.9617L64.712 28.8605L65.0802 28.7321L65.319 28.6038L65.5181 28.3693L65.8092 28.1644L65.9236 27.9447L66.1948 27.7448L66.3416 27.4511L66.4212 27.2561L66.3938 27.5078L66.2669 27.7966L66.2296 28.0953L66.2869 28.4458L66.1998 28.7074L66.1898 29.0456L66.1475 29.3221L66.1426 29.6824L66.0331 29.9465L66.0231 30.2847L65.9933 30.8968L65.8962 31.2276L65.9186 31.4942L65.8241 31.8472L65.849 32.136L65.7719 32.4642L65.6873 32.7481L65.7196 33.0789L65.6151 33.3652L65.64 33.654L65.5504 34.0292L65.5081 34.3056L65.8589 34.587L66.1301 34.5204L66.3839 34.4784L66.7148 34.3797L66.9785 34.4044L67.3193 33.9675L67.3616 33.691L67.4139 33.3454L67.5159 33.0369L67.588 32.6889L67.6005 32.3729L67.705 32.0866L67.7398 31.7657L67.8592 31.4325L67.8443 31.0746L67.9886 30.7586L68.001 30.4427L68.1478 30.1489L68.22 29.8009L68.2648 29.5467L68.4016 29.1888L68.4638 28.9098L68.5434 28.6038L68.7126 28.3076L68.7673 27.9842L68.939 27.7102L69.0161 27.3844L69.1952 27.1524L69.3172 26.8414L69.449 26.5945L69.6481 26.36L69.7948 26.0663L69.9143 25.8664L70.1183 25.6541L70.3994 25.5183L70.5935 25.3752L70.8796 25.2616L71.3448 25.1876L71.7329 25.3036L71.917 25.4986L72.1609 25.7948L72.238 26.3897L72.1857 26.7352V27.0043L72.1534 27.3252L72.0912 27.6041L72.0788 27.92L72.0365 28.1965L71.9569 28.5026L71.8125 28.8185L71.7578 29.1419L71.7329 29.3936L71.7155 29.6874L71.626 30.0626L71.5662 30.3637L71.5488 30.6574L71.5364 30.9734L71.519 31.2671L71.5911 31.5707L71.6334 32.2149L71.7827 32.4593L71.8971 32.7555L72.0489 33.0221L72.3027 33.2516L72.5291 33.4392L72.8948 33.5602L73.1162 33.5923L73.4521 33.6515L74.0393 33.533L74.3701 33.4343L74.8478 33.1776L75.114 32.9554L75.3131 32.7209L75.4773 32.5383L75.741 32.2939L75.8704 32.0249L76.0172 31.7311L76.2212 31.5189L76.3605 31.1807L76.5147 30.9314L76.6416 30.6426L76.771 30.3736L76.8979 30.0848L77.0447 29.791L77.1243 29.485L77.2313 29.2208L77.4029 28.9469L77.4651 28.6679L77.6268 28.3273L77.7313 28.041L77.8358 27.7547L77.6841 27.3523L77.6667 27.3721ZM49.665 39.9951L49.5978 40.2518L49.451 40.5456L49.4336 40.8393L49.2694 41.1577L49.1599 41.4218L48.9858 41.6736L48.8141 41.9476L48.6275 42.1352L48.4583 42.2981L48.1125 42.4437L47.5378 42.5153L47.2616 42.4264L47.0377 42.1253L46.9407 41.5354L47.0178 41.2096L47.1273 40.9454L47.3413 40.6641L47.5229 40.4542L47.8438 40.2913L48.0802 40.1408L48.3787 39.9803L48.5902 39.8125L48.941 39.7113L49.2196 39.5533L49.4908 39.4867L49.7123 39.652L49.66 39.9976L49.665 39.9951ZM62.0001 30.8771L62.0051 31.1684L61.8857 31.5016L61.7837 31.8101L61.6817 32.1187L61.5971 32.4025L61.418 32.6346L61.311 32.8987L61.1393 33.1727L60.8756 33.417L60.7064 33.5799L60.4601 33.7996L60.179 33.9354L59.8555 34.0785L59.2634 34.1748L59.0121 34.1032L58.7658 34.0539L58.4648 33.9452L58.2359 33.7354L58.0244 33.5009L57.7906 33.2689L57.6413 33.0246L57.5766 32.7654L57.4447 32.4939L57.3527 32.1952L57.2482 31.5608L57.2855 31.2622L57.2233 30.8894L57.2581 30.5686L57.3004 30.2921L57.3179 29.9984L57.3477 29.6577L57.4497 29.3492L57.5517 29.0407L57.7632 28.7371L57.915 28.4655L57.9846 28.2286L58.2085 28.0114L58.3852 27.7596L58.6987 27.5523L58.8877 27.3869L59.2261 27.1968L59.4724 27.1129L60.067 27.0388L60.3108 27.066L60.5795 27.1129L60.903 27.2412L61.1244 27.4066L61.2563 27.6781L61.4429 27.8954L61.6767 28.1274L61.7439 28.4088L61.8583 28.705L61.9852 28.9543L62.0673 29.5911L62.0798 29.9268L62.0424 30.2255L62.0972 30.5537L62.0001 30.8845V30.8771Z" fill="#D2E9F7"/>
</svg>
