<svg width="60" height="60" viewBox="0 0 60 60" fill="none" xmlns="http://www.w3.org/2000/svg">
<path d="M30 59C46.0163 59 59 46.0163 59 30C59 13.9837 46.0163 1 30 1C13.9837 1 1 13.9837 1 30C1 46.0163 13.9837 59 30 59Z" fill="#004C6C" stroke="#0078C0" stroke-width="2"/>
<path d="M13.5558 46.3639C12.756 45.6015 12.6385 44.6682 13.4062 43.8631L14.3288 42.8959C15.0965 42.0908 16.0352 42.1709 16.8172 42.9155C17.1805 43.2628 17.4246 43.7063 17.5083 44.1392C17.5279 44.2104 17.5011 44.2567 17.4299 44.2674L16.7192 44.4384C16.6479 44.4491 16.6016 44.4242 16.5838 44.3529C16.5215 44.0822 16.3612 43.8221 16.1617 43.6315C15.7805 43.2682 15.3637 43.2949 15.0449 43.628L14.1792 44.5364C13.839 44.8926 13.8586 45.3005 14.2362 45.6603C14.4678 45.8812 14.7438 46.0201 15.0538 46.0682C15.1304 46.0789 15.1624 46.1181 15.1446 46.1911L15.0128 46.9125C15.0057 46.9837 14.9647 47.0176 14.9113 47.0105C14.4535 46.9535 13.9797 46.7682 13.5576 46.3657L13.5558 46.3639Z" fill="white"/>
<path d="M20.7917 45.9695C20.8291 45.9036 20.8808 45.8875 20.9467 45.925L21.6289 46.3133C21.6948 46.3507 21.7091 46.4023 21.6699 46.47L19.52 50.2426C19.4826 50.3103 19.4309 50.3245 19.365 50.2871L18.6828 49.8988C18.6169 49.8614 18.6044 49.8098 18.6418 49.7421L19.4897 48.253L18.2624 47.553L17.4146 49.0421C17.3772 49.108 17.3255 49.124 17.2596 49.0866L16.5774 48.6983C16.5115 48.6609 16.4973 48.6092 16.5364 48.5415L18.6864 44.769C18.7238 44.7013 18.7754 44.687 18.8413 44.7244L19.5235 45.1127C19.5894 45.1501 19.6019 45.2018 19.5645 45.2695L18.7344 46.7247L19.9617 47.4247L20.7917 45.9695Z" fill="white"/>
<path d="M21.6465 51.2675C21.561 51.2462 21.5431 51.1945 21.593 51.1215L24.1063 47.2759C24.1455 47.226 24.19 47.2046 24.2452 47.2189L25.1697 47.4593C25.2249 47.4736 25.2587 47.5163 25.2623 47.5769L25.5687 52.1599C25.5776 52.249 25.542 52.2846 25.4511 52.2614L24.6424 52.0495C24.5748 52.0317 24.5409 51.9907 24.5391 51.923L24.5124 51.109L23.0358 50.7225L22.6065 51.4172C22.5727 51.4742 22.521 51.4937 22.4605 51.4777L21.6465 51.2658V51.2675ZM24.4109 48.4194C24.1758 48.7952 23.816 49.4276 23.5096 49.9299L24.4875 50.1863C24.4519 49.6021 24.4412 48.8718 24.4358 48.4265L24.4109 48.4194Z" fill="white"/>
<path d="M28.0112 52.552C27.9364 52.5538 27.8972 52.5164 27.8954 52.4398L27.7886 48.0972C27.7868 48.0206 27.8242 47.9814 27.899 47.9796L28.7344 47.96C28.7914 47.96 28.8359 47.9832 28.8626 48.0331L29.7408 49.5418C30.024 50.0458 30.2929 50.5713 30.4461 50.8937L30.4639 50.8866C30.4052 50.3059 30.366 49.7181 30.3535 49.1802L30.325 48.0349C30.3232 47.9583 30.3606 47.9191 30.4354 47.9173L31.2138 47.8977C31.2833 47.8977 31.3225 47.9333 31.3243 48.0099L31.4311 52.3525C31.4329 52.4291 31.3955 52.4683 31.3278 52.4701L30.4924 52.4897C30.4354 52.4897 30.3909 52.4665 30.3589 52.4166L29.5092 51.0558C29.2153 50.5962 28.9036 49.9443 28.7451 49.5827L28.7273 49.5898C28.7985 50.1759 28.8591 50.8474 28.8715 51.4102L28.8965 52.4148C28.8983 52.4914 28.8609 52.5306 28.7932 52.5324L28.0148 52.552H28.0112Z" fill="white"/>
<path d="M35.4611 51.787C34.843 51.9563 34.3336 51.9028 33.7031 51.6178C33.6372 51.5893 33.6176 51.5412 33.639 51.4771L33.8883 50.7664C33.915 50.6987 33.9631 50.6791 34.029 50.7076C34.4654 50.8733 34.8769 50.9267 35.2723 50.8252C35.666 50.7183 35.9082 50.5064 35.8334 50.2338C35.7497 49.9257 35.356 49.9132 34.9161 49.9471C34.2695 49.9845 33.2774 49.931 33.0031 48.9246C32.7697 48.0679 33.3753 47.4498 34.2962 47.1987C34.8288 47.0526 35.2973 47.0722 35.8922 47.2735C35.9706 47.2984 35.9901 47.3465 35.9634 47.4142L35.7372 48.1124C35.7105 48.1801 35.6642 48.205 35.5947 48.1855C35.2242 48.0679 34.8448 48.059 34.5046 48.1516C34.0682 48.2709 33.9453 48.4633 34.0059 48.686C34.0807 48.9567 34.355 48.9621 34.9036 48.9442C35.8102 48.9282 36.5779 49.0173 36.8273 49.931C37.0624 50.7949 36.5316 51.4967 35.4665 51.787H35.4611Z" fill="white"/>
<path d="M39.7213 49.0321L41.3546 48.1326C41.4205 48.097 41.4722 48.1112 41.506 48.1736L41.8462 48.7899C41.8836 48.8576 41.8694 48.9092 41.8035 48.9448L39.3828 50.2772C39.3169 50.3128 39.2653 50.2985 39.2279 50.2309L37.1332 46.428C37.0958 46.3603 37.11 46.3086 37.1759 46.273L39.5093 44.9888C39.5752 44.9531 39.6269 44.9674 39.6643 45.0351L40.0045 45.6514C40.0383 45.7137 40.0241 45.7654 39.9582 45.801L38.4121 46.6524L38.8342 47.4201L40.1986 46.6702C40.2645 46.6346 40.3162 46.6489 40.35 46.7112L40.6831 47.3168C40.717 47.3792 40.7027 47.4308 40.6368 47.4664L39.2724 48.2181L39.723 49.0357L39.7213 49.0321Z" fill="white"/>
<path d="M43.9547 47.4118C43.8994 47.4635 43.846 47.4599 43.7926 47.4047L40.834 44.227C40.7823 44.1718 40.7823 44.1166 40.8376 44.065L41.4485 43.495C41.4895 43.4558 41.5393 43.4451 41.5928 43.4647L43.2493 44.0097C43.7961 44.2003 44.3465 44.4141 44.6743 44.553L44.6832 44.5352C44.2539 44.1398 43.8353 43.7247 43.4684 43.3329L42.6882 42.4939C42.6366 42.4369 42.6366 42.3835 42.6918 42.3318L43.2618 41.801C43.3116 41.7547 43.3651 41.7565 43.4185 41.8117L46.3771 44.9912C46.4288 45.0482 46.4288 45.1016 46.3771 45.1479L45.7661 45.7161C45.7252 45.7553 45.6753 45.766 45.6183 45.75L44.0793 45.2958C43.5539 45.1461 42.8895 44.8647 42.5315 44.7008L42.5226 44.7187C42.9643 45.1105 43.4541 45.5719 43.8371 45.9851L44.5211 46.7207C44.5727 46.7777 44.5727 46.8312 44.5211 46.8775L43.9511 47.4083L43.9547 47.4118Z" fill="white"/>
<path d="M18.8511 15.8249C18.7763 15.873 18.7247 15.8534 18.7068 15.7661L17.5989 11.2988C17.59 11.2365 17.6043 11.1884 17.6524 11.1581L18.4699 10.6327C18.518 10.6006 18.5733 10.6042 18.6213 10.6416L22.2265 13.5022C22.2978 13.5539 22.3013 13.6055 22.2212 13.6589L21.5051 14.1185C21.4463 14.1559 21.3911 14.1541 21.3395 14.1096L20.7178 13.5806L19.4104 14.4213L19.6277 15.2086C19.6455 15.2727 19.6259 15.3244 19.5725 15.3582L18.8511 15.8213V15.8249ZM18.6552 11.8439C18.771 12.2714 18.9901 12.9678 19.1486 13.5343L20.0142 12.9767C19.5565 12.6098 19.0096 12.1235 18.6748 11.8296L18.6534 11.8439H18.6552Z" fill="white"/>
<path d="M23.4538 13.1516C23.3808 13.1729 23.3327 13.1462 23.3113 13.0714L22.1268 8.89447C22.1055 8.81966 22.1322 8.77335 22.207 8.75198L23.0246 8.52042C23.0798 8.50439 23.1297 8.51686 23.1688 8.55961L24.4103 9.79576C24.8147 10.2126 25.2119 10.6525 25.4417 10.925L25.4577 10.9144C25.2564 10.3675 25.0712 9.80823 24.9251 9.29168L24.6134 8.1909C24.592 8.11609 24.6188 8.06978 24.6936 8.0484L25.4559 7.83288C25.5236 7.81328 25.5717 7.84 25.5913 7.91481L26.7758 12.0917C26.7972 12.1648 26.7704 12.2129 26.7028 12.2325L25.8852 12.464C25.83 12.48 25.7801 12.4676 25.7356 12.4266L24.56 11.324C24.1556 10.9535 23.6872 10.4014 23.4396 10.0932L23.4236 10.1039C23.6391 10.6543 23.8653 11.2884 24.0185 11.8299L24.2928 12.7953C24.3142 12.8701 24.2874 12.9164 24.2198 12.936L23.4574 13.1516H23.4538Z" fill="white"/>
<path d="M28.4947 12.0186C28.4181 12.0186 28.3807 11.9776 28.3807 11.901L28.4537 7.55846C28.4537 7.48186 28.4947 7.44446 28.5713 7.44446L30.1441 7.47118C31.1683 7.48899 31.9466 7.96101 31.9253 9.28622L31.9092 10.3033C31.8879 11.6339 31.0935 12.0613 30.0693 12.0453L28.4965 12.0186H28.4947ZM29.4245 11.0674L30.096 11.0781C30.5894 11.087 30.8423 10.8662 30.8512 10.33L30.869 9.21676C30.8779 8.67883 30.6321 8.43837 30.1405 8.43125L29.469 8.42056L29.4245 11.0692V11.0674Z" fill="white"/>
<path d="M35.6682 13.0743C35.613 13.0565 35.5774 13.0191 35.5685 12.9621L35.1534 11.3109L34.7634 11.188L34.3412 12.5364C34.3181 12.6094 34.27 12.6343 34.1969 12.6112L33.4346 12.3725C33.3616 12.3493 33.3366 12.3012 33.3598 12.2282L34.6565 8.08336C34.6796 8.01033 34.7277 7.98539 34.8008 8.00854L36.2845 8.47344C37.3283 8.7994 37.7308 9.54929 37.4476 10.4524C37.2481 11.0865 36.7939 11.4267 36.1652 11.4659L36.6799 13.2488C36.6995 13.3361 36.6586 13.3824 36.5659 13.3539L35.6682 13.0725V13.0743ZM35.3903 9.1877L35.0305 10.3348L35.6094 10.5165C36.0672 10.659 36.3112 10.5414 36.4359 10.146C36.5588 9.75591 36.427 9.51366 35.9692 9.36939L35.3903 9.1877Z" fill="white"/>
<path d="M37.5251 13.7877C37.4503 13.7378 37.4485 13.6826 37.5216 13.631L41.1713 10.8291C41.2247 10.7953 41.2746 10.79 41.3227 10.822L42.1313 11.3617C42.1794 11.3938 42.199 11.4454 42.183 11.5042L41.0038 15.9501C40.9842 16.0374 40.9379 16.0605 40.8578 16.0071L40.1506 15.5351C40.0919 15.4959 40.0723 15.4442 40.0919 15.3801L40.327 14.6L39.0338 13.7378L38.3997 14.2526C38.3481 14.2954 38.2928 14.2971 38.2394 14.2615L37.5269 13.7859L37.5251 13.7877ZM41.0947 12.0172C40.7491 12.2933 40.1987 12.7724 39.7445 13.1447L40.6013 13.7147C40.7562 13.1483 40.9807 12.4536 41.116 12.0297L41.0947 12.0154V12.0172Z" fill="white"/>
<path d="M37.2652 31.169L39.0357 18.2766C39.0357 18.2766 38.8291 16.3404 36.9767 16.2175C36.9767 16.2175 34.7519 15.7651 34.3815 18.7308C34.011 21.6965 33.1863 28.3689 33.1863 28.3689L31.1272 17.7013C31.1272 17.7013 30.9206 16.1766 28.45 16.4241C25.9795 16.6717 26.7615 19.8423 26.7615 19.8423L27.5024 24.4146C27.5024 24.4146 26.9253 23.2194 24.9892 23.3851C23.053 23.549 23.3415 26.3098 23.3415 26.3098C23.3415 26.3098 22.4759 25.1984 20.6234 25.6098C18.7692 26.0213 19.1824 28.4508 19.1824 28.4508L19.7186 32.1575L19.8005 37.6347C19.8005 37.6347 20.171 41.548 22.9711 43.3595C25.7711 45.171 27.0482 45.3367 28.7778 45.2957C30.5073 45.2547 33.555 44.8433 35.6141 41.9595C37.6731 39.0757 37.3846 36.1937 37.3846 36.1937L37.2617 31.169H37.2652Z" fill="#D2E9F7"/>
<path d="M36.972 15.7952C36.2292 15.7008 35.4989 15.9038 34.9111 16.3687C34.3251 16.8336 33.9582 17.498 33.8816 18.2426L33.0569 26.1244L31.7353 18.2283C31.6106 17.4855 31.2045 16.8354 30.5899 16.399C29.9754 15.9626 29.2273 15.7934 28.4846 15.9216C27.7454 16.0499 27.1006 16.456 26.6677 17.067C26.2349 17.6779 26.0657 18.4225 26.1904 19.1617L26.8939 23.3136C26.3542 22.9841 25.697 22.8398 25.0255 22.9574C23.7572 23.1783 22.8488 24.2559 22.79 25.4921C22.2218 25.1323 21.5503 24.9987 20.8824 25.1144C19.4147 25.3692 18.4297 26.771 18.6844 28.2387L19.2811 31.6675C19.2793 31.6853 19.2775 31.7013 19.2775 31.7192V36.5231C19.2775 37.7788 19.5233 38.9954 20.0078 40.1425C20.4763 41.2504 21.146 42.2443 21.9992 43.0975C22.8524 43.9507 23.8463 44.6222 24.9542 45.0889C26.1013 45.5734 27.3179 45.8192 28.5736 45.8192C29.8294 45.8192 31.0459 45.5734 32.193 45.0889C33.3009 44.6204 34.2948 43.9507 35.148 43.0975C36.0012 42.2443 36.6728 41.2504 37.1394 40.1425C37.6239 38.9954 37.8697 37.7788 37.8697 36.5231V32.2321L39.3588 18.8464C39.4425 18.1214 39.2395 17.4072 38.7906 16.8318C38.34 16.2583 37.6952 15.8914 36.972 15.7987V15.7952ZM28.6466 16.8586C29.1383 16.7731 29.6334 16.8853 30.0395 17.1738C30.4457 17.4624 30.7164 17.8917 30.7983 18.3833L32.649 29.4463H28.8978L27.1291 18.9996C26.9581 17.9914 27.6385 17.0296 28.6466 16.855V16.8586ZM25.1875 23.8943C26.1387 23.7287 27.0453 24.3681 27.211 25.3175L27.9413 29.5158C26.714 29.7937 25.7949 30.8927 25.7949 32.2019C25.7949 32.2125 25.7949 32.2232 25.7949 32.2321C25.1982 32.0344 24.7387 31.5214 24.6265 30.8713L23.7644 25.916C23.5987 24.9648 24.2382 24.0582 25.1875 23.8925V23.8943ZM21.0462 26.0514C21.1478 26.0335 21.2493 26.0246 21.3491 26.0246C21.7053 26.0246 22.0544 26.1333 22.3519 26.3435C22.7348 26.6124 22.9878 27.0132 23.0679 27.4745L23.6878 31.037C23.7679 31.4965 23.6646 31.9614 23.3957 32.3426C23.1267 32.7255 22.7259 32.9785 22.2646 33.0586C21.805 33.1388 21.3401 33.0355 20.959 32.7665C20.576 32.4975 20.3231 32.0968 20.2429 31.6354L19.6231 28.073C19.4574 27.1219 20.0969 26.2152 21.0462 26.0496V26.0514ZM36.9203 36.5213C36.9203 37.6488 36.6995 38.7407 36.2649 39.7702C35.8445 40.7641 35.2424 41.6565 34.4765 42.4224C33.7106 43.1883 32.8182 43.7904 31.8243 44.2107C30.7966 44.6454 29.7029 44.8662 28.5754 44.8662C27.4479 44.8662 26.356 44.6454 25.3265 44.2107C24.3326 43.7904 23.4402 43.1883 22.6743 42.4224C21.9083 41.6565 21.3063 40.7641 20.8859 39.7702C20.4513 38.7424 20.2305 37.6488 20.2305 36.5213V33.406C20.2892 33.454 20.348 33.5004 20.4121 33.5449C20.8717 33.8691 21.4096 34.0383 21.96 34.0383C22.115 34.0383 22.2717 34.024 22.4285 33.9973C23.1392 33.8744 23.759 33.4808 24.174 32.8912C24.2702 32.7558 24.3522 32.6115 24.4198 32.4637C24.484 32.5278 24.5499 32.5902 24.6211 32.6489C25.0166 32.9785 25.4975 33.1869 26.0033 33.2528C26.4166 34.252 27.4016 34.9574 28.5487 34.9574H30.5793C30.2212 35.1676 29.8739 35.4258 29.5551 35.7411C28.5879 36.6994 28.098 37.9872 28.098 39.5689C28.098 39.8325 28.3118 40.0445 28.5736 40.0445C28.8355 40.0445 29.0492 39.8308 29.0492 39.5689C29.0492 38.2526 29.4428 37.1946 30.2195 36.4215C31.6515 34.9984 33.9529 34.9592 34.0971 34.9574H34.1078C34.3697 34.9574 34.5816 34.7454 34.5834 34.4836C34.5834 34.2217 34.3732 34.008 34.1114 34.0062C34.106 34.0062 34.0971 34.0062 34.0811 34.0062H28.5433C27.5494 34.0062 26.7408 33.1976 26.7408 32.2036C26.7408 31.2097 27.5494 30.4011 28.5433 30.4011H33.2101H35.1106C36.1045 30.4011 36.9132 31.2097 36.9132 32.2036V36.5213H36.9203ZM38.4148 18.736L37.127 30.3209C36.6247 29.7848 35.9104 29.4481 35.1178 29.4481H33.6661L34.8274 18.3405C34.8791 17.8543 35.1178 17.4179 35.5025 17.1133C35.8872 16.8087 36.3664 16.6769 36.8509 16.7374C37.3247 16.798 37.7468 17.0385 38.0425 17.4143C38.3364 17.7901 38.47 18.2586 38.4148 18.7342V18.736Z" fill="#0078C0"/>
</svg>
