<svg width="83" height="60" viewBox="0 0 83 60" fill="none" xmlns="http://www.w3.org/2000/svg">
<path d="M41.0833 59C57.0996 59 70.0833 46.0163 70.0833 30C70.0833 13.9837 57.0996 1 41.0833 1C25.0671 1 12.0833 13.9837 12.0833 30C12.0833 46.0163 25.0671 59 41.0833 59Z" fill="#004C6C" stroke="#0078C0" stroke-width="2"/>
<path d="M18.997 27.8632L17.0289 31.1221L20.0632 40.2786L24.7169 31.4721C24.7169 31.4721 32.8237 34.3234 33.1705 34.0709C33.5172 33.8184 38.9906 32.8123 38.9906 32.8123L43.2374 26.9028L52.3924 27.9964L59.1565 23.4708L58.457 15.5273L51.0436 17.971L48.0614 17.0682L44.9089 19.5438L45.0872 22.6695L38.9986 26.1989L36.1547 24.4392L29.8616 26.1969L28.0999 25.2544V20.5479L22.5584 21.0947L18.995 27.8632H18.997Z" fill="#0078C0"/>
<path d="M82.4034 23.1031L82.3954 23.0434L82.4014 22.9937L82.4094 22.6657L82.3933 22.5603L82.4014 22.4708V22.1427L82.3432 21.745L81.8843 20.6375L80.7259 20.552L80.2549 20.5858L78.872 20.7846L78.6315 20.7926L78.1285 20.89L77.8058 20.9159L76.3207 21.1545L75.9179 21.2121H75.7555L73.8817 21.4826L73.7654 21.5164L73.6792 21.5124L72.8595 21.6297L72.2603 21.8047L72.104 21.9657L71.3223 21.9081L70.8513 21.9419L69.4685 22.1407L69.228 22.1487L68.7249 22.2461L68.4023 22.272L66.9172 22.5106L66.5143 22.5682H66.352L64.4781 22.8386L64.3639 22.8724L64.2777 22.8685L63.456 22.9878L62.8567 23.1627L62.1873 23.8527L61.9649 24.6123V24.6222L61.7063 24.4492L61.5079 24.3299L61.3095 24.153L60.9287 23.9859L60.4036 23.7374L59.8645 23.5763L59.5118 23.5127L59.3534 23.5167L59.161 23.4749L58.6299 23.4849L58.3834 23.4968L58.2191 23.4928L57.6359 23.5445L57.2892 23.6241L56.9124 23.7056L56.4955 23.8368L56.2069 23.9084L55.8381 24.0655L55.7039 24.1072L55.1868 24.326L54.7819 24.6043L54.4492 24.8688L54.3931 24.9225L54.2288 25.0119L53.7298 25.4732L53.355 26.0081L53.3349 26.0399L53.1365 26.2288L52.876 26.7737L52.7377 27.0938L52.5453 27.4974V27.5332L52.4972 27.4457L52.405 27.2429L52.1966 26.9228L52.0102 26.5848L51.7015 26.3183L51.5713 26.1891L51.3468 25.9803L50.8838 25.6781L50.3567 25.4872L50.2706 25.4653L50.016 25.336L49.5531 25.2744L49.0861 25.2545H48.583H48.1762L47.9818 25.2824L47.6351 25.2863L47.1821 25.352L46.9396 25.4037H46.8234L45.0918 25.6542L45.0096 25.68L44.7731 25.6959L44.4304 25.7735L42.9814 25.9823L42.318 26.4396L42.2559 26.3402L41.0494 26.2189L40.7488 26.2964L40.2658 26.3183L39.889 26.4277L39.418 26.4953L39.3739 26.5112L39.2817 26.5152L38.5462 26.6205L37.9329 26.6742L37.0791 27.0699L36.6302 27.915L36.6122 27.9985L36.522 28.1655L36.0891 27.4636L35.109 27.1415L34.4938 27.231L34.149 27.2568L33.9085 27.2906L33.5277 27.3662L33.2432 27.3861L32.676 27.4676L32.1609 27.5054L31.9625 27.5929L31.4955 27.6605L30.788 28.3644L30.6538 29.108L30.6478 29.6469L30.6397 30.0366L30.6478 30.0903L30.5275 29.9193L30.4373 29.7184L30.2529 29.4938L30.1768 29.3943L30.0004 29.0921L29.4092 28.6964L28.842 28.3803L28.1846 28.249H28.1405L28.0163 28.1794H27.5954L27.4451 28.1615L27.2266 28.1576H26.7737L26.6695 28.1735L26.5372 28.1496L25.7375 28.1695L25.2565 28.2391L24.8277 28.3246L24.4268 28.3823L24.1222 28.4717L23.8155 28.591L23.3225 28.7521L22.7052 29.1259L22.5629 29.2233L22.1521 29.4878L21.8695 29.8L21.5148 30.2712L21.3043 30.6251L21.2362 30.7584L20.9736 31.0546L20.8534 31.6293L20.7712 31.9395L20.687 32.2636L20.5908 32.7448L20.5427 33.0967L20.4766 33.5361L20.3744 34.0531L20.3524 34.3096L20.2922 34.5343V34.8584V34.9041L20.2682 35.0851V35.1169L20.2101 35.2919L20.2301 35.7174L20.2261 35.8506L20.2101 35.9719L20.1439 36.6281L20.168 36.7911L20.164 36.807L20.0978 36.3616L20.0056 36.0534L19.9615 35.7492V35.5424L19.8693 35.1129L19.8192 34.7749L19.695 34.2798L19.6449 34.0571L19.6068 33.7926L19.4625 32.9655L19.3743 32.359L19.3082 32.2298L19.2601 31.9077L18.9033 30.2752L18.0055 29.8159L17.4663 29.6886L16.7669 29.79L16.7549 29.794L16.6667 29.7821L16.2358 29.8437L15.8069 29.9292L15.4121 29.9869L15.2237 30.0326L14.8569 30.0664L14.4962 30.1181L13.458 30.4223L13.2516 31.4066L13.2155 31.5159L13.1714 31.683L13.0452 32.0608L12.8948 32.4684L12.8127 32.9237L12.7826 32.9873L12.6082 33.4526L12.5662 33.7549L12.508 33.9298L12.486 34.0929L12.3677 34.4448L12.2916 34.7272L12.2756 34.8365L12.2194 34.9519L12.1232 35.2402L11.9589 35.9659L11.7525 36.3636L11.7224 36.8209L11.6623 37.0218L11.6002 37.2783L11.5881 37.4155L11.4979 37.5904L11.4639 37.9981L11.3316 38.352L11.2735 38.7537L11.1753 39.0221L11.1031 39.3522L11.0971 39.2567L11.1011 38.9048L11.0791 38.7537V38.6841L11.1953 38.4415L11.1091 37.8589L11.1532 37.6919L11.1171 37.4473L11.1392 37.2822L11.1352 37.2484L11.1652 37.1709V36.5446L11.1372 36.1528L11.1292 36.0952L11.1412 35.96L11.2414 34.9638L11.2214 34.8286L11.2514 34.6119L11.2574 34.3553L11.2374 33.8225L11.2594 33.7052V33.4367L11.2635 33.2021L11.2374 33.0291V32.868L11.2314 32.8243L11.2695 32.5459L11.1272 32.1025L10.8025 31.1461L9.66413 30.8737H9.35548L9.19515 30.8578L8.03875 31.0248L7.76217 31.0407L6.69796 31.1938L6.49754 31.2455L5.17078 31.4364H5.10665L4.2649 31.4603L3.74983 31.6313L3.50331 31.6492L3.14056 31.7287L2.66557 31.7963L1.82583 32.1602L1.50316 32.7448L1.35485 33.1206L1.26867 33.5978L1.27468 33.9636L1.29873 34.242L1.21656 34.5502L1.26065 34.8505L1.25664 35.0155V35.2183L1.26266 35.9142L1.42499 36.463L2.11844 37.4513L3.03835 37.4334L3.3991 37.4155L5.10064 37.1709L5.11066 37.2345L5.10064 37.3697L5.05855 37.6779L5.09262 37.9066V38.0677L5.09863 38.1114L5.0846 38.1671L5.07458 38.6085V38.6781L5.05454 38.7815L5.03049 39.2329L5.06256 39.4536L5.09262 39.8771L5.07458 40.0083L5.08059 40.2728V40.3463L4.72185 40.3205L4.57755 40.2131L3.21271 40.3722L2.61346 40.4577L2.59142 40.4696L2.54733 40.4736L2.22866 40.4835L1.68353 40.6148L1.11234 40.6963L0.849797 40.9747L0.475018 41.1616L3.05176e-05 42.0623L0.0361055 42.7105L0.066168 43.0366L3.05176e-05 43.5258L0.0501347 44.0765L0.0822014 44.4643L0.174393 45.2358L0.178401 45.4386L0.264581 46.0272L0.348756 46.393L0.545164 47.1307L0.575226 47.1884L0.583243 47.2381L0.769631 47.7551L0.873847 47.9042L0.92796 48.0752L1.12036 48.455L1.58733 48.9839L1.88194 49.2563L2.09038 49.4293L2.35693 49.7037L2.99225 49.99L3.44319 50.153L3.77588 50.2286L3.86407 50.2584L4.19876 50.338L4.54949 50.3996L4.95834 50.4135L5.21487 50.4016H5.44736L6.19892 50.2922L6.65988 50.1968L7.22505 50.0278L7.68601 49.8409L7.88042 49.7434L8.17503 49.6241L8.42755 49.4333L8.60192 49.3378L9.12901 48.9342L9.28734 48.7512L9.54989 49.3835L10.7484 49.473L12.4639 49.2503H12.5902L13.1173 49.2106L13.3157 49.1549L14.2857 49.0495L14.9772 48.4291L15.1575 47.9738L15.2778 47.6914L15.3239 47.3236L15.376 47.1108L15.5544 46.6117L15.6125 46.2936L15.863 46.2638L15.871 46.4606L15.9532 46.7867L16.0474 47.254L16.334 48.0553L17.3 48.5763L18.0395 48.4689L18.4063 48.445L18.749 48.3595L18.8111 48.3436L18.9895 48.3337L19.2581 48.2959L19.7551 48.2005L19.9575 48.1706L20.2401 48.1647L20.4345 48.109C20.4726 48.105 20.5107 48.101 20.5488 48.0971C20.689 48.0772 20.8253 48.0394 20.9536 47.9877L21.144 47.9102L21.3043 47.7809C21.6751 47.4807 21.8695 47.0392 21.8675 46.562L21.9998 46.6853L22.5128 46.9716L22.6491 47.0353L22.8034 47.1247L23.0399 47.2222L23.3225 47.3952L23.8316 47.4866L24.2505 47.5801L24.4509 47.5841L24.6613 47.6119L24.9699 47.598H25.0922H25.3046L25.5692 47.5841H25.7937L25.972 47.5582L26.3168 47.5463L26.6615 47.425L26.8198 47.3892L27.2627 47.3256L27.6555 47.1744L27.9341 47.087L28.2367 46.9637L28.9101 46.7032L29.2549 46.4944L29.7479 46.0789L30.1888 45.5738L30.3932 45.2437L30.4373 45.7985L31.7621 46.5163L32.3653 46.3672L32.5036 46.3632L33.4235 46.23L33.6821 46.1743L33.9847 46.1564L34.2412 46.0908L34.9968 45.9814L36.0891 45.3988L36.2274 44.0447L36.1973 43.8459L36.2133 43.7723L36.2694 43.3528L36.4779 43.8101L36.7444 44.2913L36.9148 44.7228L37.5922 45.4684L38.6103 45.4903L39.1234 45.3929H39.2537L39.903 45.2994L40.0834 45.2537L40.6926 45.1861L41.334 45.0946L42.6427 44.848L42.7569 44.9176L43.5606 44.7566H43.6408L44.1057 44.7188L46.0618 44.4364L47.1982 44.1064L47.3264 42.8318L47.3204 42.5097L47.3585 42.3407V42.1538L47.3846 42.0126V41.8038L47.4747 41.6149L47.3886 41.0244L47.4066 40.6764L47.3946 40.5929L47.4146 40.5213V40.2509L47.4327 40.062L47.4607 39.8433L47.4667 39.5967L47.4988 39.4138L47.5349 38.869L47.5128 38.7199L47.5329 38.6045V38.3003L47.6752 38.2864L48.4347 38.1213L48.7514 38.0299L49.058 37.9603L49.4709 37.8291L49.984 37.5845L50.2525 37.4115L50.489 37.3021L51.1183 36.8687L51.2827 36.6022L51.5813 36.298L51.7156 36.0375V36.1807L51.7296 36.2682L51.6935 36.5346L51.7316 37.2266L51.7717 37.503L51.7476 37.66L51.8118 38.0975L51.7757 38.3659L52.0022 39.1116L52.0242 39.1831L52.1164 39.5987L52.2046 39.7717L52.2507 39.9268L52.397 40.2151L52.4431 40.3623L52.4731 40.412L52.5092 40.6526L53.0143 41.2511L53.1085 41.3485L53.2608 41.5672L53.4351 41.6965L53.4913 41.7641L54.0384 42.2274L54.6617 42.6071L55.1186 42.8139L55.4914 42.9591L56.1147 43.0307L56.275 43.0267L56.8322 43.1102L57.1469 43.1003H57.4375L57.7481 43.0307L58.3894 43.0128L59.131 42.802L59.3755 42.6966L59.4957 42.6608L59.8485 42.5316L60.0008 42.4699L60.2413 42.4003L61.0349 41.953L61.2213 41.768L61.4678 41.5473L61.8506 41.1656L61.9629 40.9826L62.041 40.8951L62.504 40.2787L62.5421 40.07L62.6303 39.885L62.7846 39.5788L62.9389 39.2826L63.0912 38.7477L63.2736 38.2009L63.2676 38.0836L63.3037 38.016L63.3878 37.3339L63.3638 37.1669L63.47 36.805L63.458 36.5664L63.6243 35.9242L63.5562 35.7114L63.6103 35.3177L63.6885 35.0831V34.6337L63.7225 34.3732L63.6804 34.0929V33.9955L63.7165 33.8901L63.7626 33.3274L63.7466 33.053L63.7686 32.7984V32.5479L63.8428 32.0806L63.8007 31.9037L63.8809 31.6273L63.7726 31.1978V31.0884L63.7987 30.8816L63.7566 30.3766L63.7346 30.0843V29.8298L63.7386 29.5952L63.6724 29.1537L63.6885 29.0404L63.6804 28.9092L63.8929 28.8793L64.1234 28.8694L64.4921 28.8157L64.5342 28.8038L64.5482 28.8972L64.5082 29.1438L64.4681 29.4341V29.786L64.4721 29.802L64.444 29.9213L64.4721 30.1141L64.3659 30.478L64.4601 30.7902V30.818L64.408 31.0944V31.1024L64.3418 31.5955L64.3699 31.7903L64.3338 32.025L64.3739 32.2954L64.2196 32.8959L64.3278 33.1325L64.3178 33.224L64.2516 33.5461L64.2115 33.8463V34.3315L64.1935 34.3872L64.2236 34.8047L64.2075 34.8922L64.2035 35.3893L64.1855 35.5166L64.1655 35.8884L64.1234 36.304L64.1514 36.4929L64.0993 37.0675L64.1474 37.2385L64.0793 37.5765L64.1294 37.9205L64.1374 38.0199L64.1113 38.1651L64.1394 38.5349L64.0232 39.1792L64.0833 39.7856L64.0953 40.7957L65.372 41.6289L65.8269 41.5632L66.2157 41.6328L66.6927 41.44L68.775 41.1397L69.8032 40.5293L69.9535 39.7021L69.9836 39.2547V38.9326L70.0216 38.344L70.0817 37.5944L70.0316 37.4095L70.0357 37.3359L70.0537 37.159L70.0998 36.6599L70.1299 36.3V36.1886L70.1719 35.9123L70.19 35.4828L70.2261 34.932L70.1699 34.7451L70.22 34.4647V34.3056L70.2421 34.1784L70.2481 33.8185L70.22 33.6316L70.2241 33.5719L70.2441 33.212L70.2762 32.7428L70.2681 32.6831L70.2842 32.5897L70.2701 32.4107L70.2922 32.3531L70.3523 31.7705L70.3303 31.4364L70.3383 31.4106L70.3683 30.9592L70.3984 30.7405L70.3944 30.476L70.4906 30.1002L70.4445 29.7821V29.7005L70.4245 29.3327L70.4365 29.2532L70.5988 28.4439L70.5347 28.3325L70.5587 28.0104V27.9448L70.8774 27.8991L71.0778 27.8474L71.2001 27.8295L71.4767 27.8195L72.615 27.5392L72.621 27.5153L72.9617 27.575L73.2964 27.5272L73.5269 27.5173L73.8957 27.4636L73.9378 27.4517L73.9518 27.5451L73.9117 27.7937L73.8716 28.082V28.4339L73.8756 28.4499L73.8476 28.5692L73.8756 28.762L73.7694 29.1259L73.8636 29.4381V29.4679L73.8115 29.7443V29.7522L73.7454 30.2434L73.7734 30.4382L73.7374 30.6729L73.7774 30.9433L73.6231 31.5438L73.7313 31.7824L73.7213 31.8738L73.6572 32.194L73.6171 32.4942V32.9774L73.5991 33.0351L73.6291 33.4506L73.6131 33.5381V34.0372L73.5931 34.1645L73.573 34.5343L73.5309 34.9499L73.559 35.1388L73.5069 35.7154L73.555 35.8864L73.4868 36.2244L73.5369 36.5684L73.545 36.6659L73.5189 36.811L73.549 37.1808L73.4327 37.8271L73.4928 38.4335L73.5049 39.4436L74.7815 40.2768L75.2365 40.2111L75.6253 40.2807L76.1003 40.0879L78.1826 39.7876L79.2107 39.1772L79.361 38.352L79.3911 37.9046V37.5825L79.4292 36.9959L79.4893 36.2443L79.4372 36.0594L79.4412 35.9878L79.4593 35.8089L79.5033 35.3098L79.5334 34.9499V34.8385L79.5755 34.5621L79.5935 34.1327L79.6296 33.5839L79.5735 33.397L79.6236 33.1166V32.9555L79.6456 32.8303L79.6537 32.4724L79.6256 32.2835L79.6296 32.2238L79.6497 31.8659L79.6817 31.3966L79.6737 31.337L79.6897 31.2435L79.6757 31.0626L79.6977 31.0069L79.7579 30.4243L79.7338 30.0903L79.7418 30.0664L79.7719 29.615L79.802 29.3963L79.798 29.1319L79.8942 28.7561L79.8481 28.4399V28.3584L79.826 27.9905L79.838 27.911L80.0024 27.1017L79.9362 26.9904L79.9603 26.6722V26.6046L80.279 26.5589L80.4794 26.5072L80.6016 26.4893L80.8782 26.4794L82.0186 26.197L82.3613 24.9881L82.3312 24.5725L82.4014 24.1231L82.3793 23.7533L82.4014 23.5902L82.4114 23.123L82.4034 23.1031ZM30.0886 37.7873L29.311 37.835L28.1165 37.9344L27.6235 38.006L26.9441 38.0776L26.1524 38.2943L25.942 38.6165V38.3261L25.9821 37.9424L25.978 37.7257L26.0201 36.9323L26.0422 36.805L26.423 37.2445L27.8139 37.2345L29.3911 37.0317L29.78 36.9482L30.5335 36.7752L30.5235 36.9681L30.5275 37.3439V37.5527L30.5455 37.7913L30.5135 38.0557V38.1054L30.0846 37.7893L30.0886 37.7873ZM41.2939 39.7816L41.2799 39.7638L41.1676 39.386L40.879 39.0678L40.7127 38.7377L40.6305 38.6105L40.5864 38.4614L40.4582 38.2585L40.4281 38.1651L40.3479 38.0199L40.2878 37.8032L40.0533 37.4334L39.9511 37.2763L39.8709 37.1073L39.8048 36.9462L39.5302 36.3417L39.3919 36.0077L39.2557 35.783L39.1995 35.6239L39.1635 35.5504L39.406 35.1089L39.5663 34.753L39.6264 34.594L39.7326 34.409L39.9311 33.9795L40.0734 33.7211L40.2277 33.4188L40.4822 32.8999L40.5944 32.6931L40.6846 32.5042L40.861 32.2198L40.9472 32.0528L41.1496 31.7367L41.2037 31.51L41.324 31.329L41.3761 31.1739L41.4402 31.0884L41.5284 30.9035L41.7268 30.6033L41.807 30.3647L41.7909 30.6092L41.7609 30.9015L41.803 31.3648V31.3867L41.7528 31.9733L41.815 32.1244L41.7869 32.3888L41.7809 32.6434L41.7909 32.7746L41.7829 32.8064L41.7288 33.1921L41.7629 33.6793L41.7869 33.8483L41.7729 34.0253L41.7549 34.4607L41.7629 34.9777L41.7428 35.276V35.3694L41.7188 35.5345V35.6736L41.6847 35.9023L41.7128 36.2881L41.6727 36.4372V37.151L41.6827 37.2703L41.6186 37.4612L41.6567 37.7197L41.6306 37.8609L41.6526 38.008L41.5725 38.2506L41.6266 38.6264L41.6366 38.7835L41.6065 38.9803L41.5625 39.2289V39.557L41.5685 39.6305L41.5404 39.7121L41.5244 40.2768L41.5184 40.2688L41.2899 39.7916L41.2939 39.7816Z" fill="#0078C0"/>
<path d="M5.1767 49.0381L4.94622 49.048L4.68968 49.0401L4.47524 49.0023L4.23474 48.9446L4.13653 48.9128L3.82388 48.8432L3.50522 48.7279L3.1585 48.5708L3.02222 48.4296L2.78372 48.2328L2.56927 48.0339L2.26264 47.686L2.1985 47.5567L2.11433 47.2923L1.99608 47.1253L1.91792 46.9065L1.89788 46.7713L1.83174 46.6421L1.67742 46.0655L1.61128 45.7751L1.54515 45.3238L1.54114 45.1409L1.44494 44.3256L1.41487 43.9617L1.3788 43.5521L1.44494 43.059L1.40085 42.6057L1.38682 42.3551L1.477 42.1802L1.67141 42.0827L1.77162 41.9753L1.92995 41.9515L2.40092 41.8382L2.60936 41.8322L2.95407 41.8063L3.01821 41.7745L3.35892 41.7248L4.18063 41.6294L4.20668 41.6493L4.41712 41.6652L4.50129 41.9296L4.53336 42.1543L4.57344 42.9079L4.56142 43.3016L4.57144 43.6913L4.6015 44.2163L4.62154 44.8346L4.67766 45.2184L4.7438 45.5087L4.844 45.7234L5.05645 45.9004L5.27691 45.9839L5.52743 45.9481L5.82003 45.8825L6.0425 45.6658L6.15273 45.465L6.24692 45.1528L6.26897 44.8267L6.31306 44.4986L6.34513 43.918L6.36116 43.7092L6.36717 43.4328L6.38922 43.1067L6.36918 42.9715L6.39122 42.8065V42.5062L6.42529 42.0867L6.3792 41.9316L6.40525 41.7904L6.43331 41.349L6.4293 41.005L6.43732 40.5894V40.2673L6.43331 40.0844L6.45536 39.9194L6.43531 39.6231L6.41126 39.305L6.39122 39.1697L6.40325 38.9371L6.4293 38.7959V38.6349L6.43531 38.3585L6.47941 38.1915L6.44734 37.9668V37.8057L6.4273 37.6705L6.44934 37.5055L6.47139 37.1794L6.45135 37.0442L6.47339 36.8791L6.45335 36.5829L6.47941 36.4417L6.4754 36.0977L6.49343 35.7497L6.47339 35.6145L5.92425 35.6702L3.24268 36.0559L2.99015 36.0699L2.80577 36.0738L2.65946 35.8651L2.61337 35.71L2.60936 35.2049V35.0438L2.61537 34.7675L2.59533 34.6323L2.63942 34.4652L2.66147 34.3002L2.62539 33.8906L2.62138 33.7077L2.65946 33.4949L2.7276 33.3239L2.78172 33.2245L3.02222 33.1211L3.36293 33.0714L3.67758 33.0038L3.99825 32.9799L4.48526 32.8169L5.08651 32.799H5.24885L6.74796 32.5822L6.94838 32.5305L7.88032 32.3953L8.15689 32.3794L9.20106 32.2283L9.29526 32.2382L9.31731 32.2343H9.47964L9.72014 32.2919L9.80231 32.5325L9.8444 32.6638L9.82236 32.8288L9.8424 32.964V33.1251L9.86645 33.2821V33.4213L9.86444 33.5824L9.83839 33.7236L9.86244 34.3638V34.503L9.81434 34.8311L9.83839 34.9882L9.75221 35.8293L9.72616 36.1315L9.75021 36.2886L9.77025 36.5848V36.907L9.70411 37.078L9.73417 37.2808L9.71213 37.4458L9.73618 37.6029L9.69209 37.7699L9.75822 38.2213L9.68808 38.3704V38.6925L9.68607 38.8317L9.71012 38.9888V39.289L9.72816 39.5853L9.67405 39.8458L9.69008 40.1202L9.63797 40.4045L9.66804 40.9295L9.6039 41.2834L9.58186 41.4484L9.60591 41.6055V41.7447L9.57985 41.9097L9.59989 42.206L9.55179 42.3512L9.51973 42.7707L9.53376 43.0212L9.56582 43.2459L9.52374 43.4368L9.53376 43.6655L9.46562 43.8365L9.53376 43.9876L9.48967 44.1546L9.49568 44.3614L9.52173 44.5424L9.47764 44.7094L9.50169 44.8665L9.43355 45.0375L9.4576 45.1945L9.39747 45.4113L9.32933 45.7433L9.29326 45.978L9.23514 46.2166L9.14495 46.3915L9.08081 46.5844L8.95455 46.833L8.89443 47.0497L8.76816 47.2982L8.46353 47.5945L8.16491 47.9365L7.83021 48.191L7.65786 48.2845L7.46946 48.4277L7.2951 48.4992L7.1007 48.5967L6.74997 48.7398L6.30504 48.873L5.94429 48.9486L5.33102 49.0361H5.16868L5.1767 49.0381Z" fill="#D2E9F7"/>
<path d="M12.5244 47.8923H12.362L10.7006 48.1091L10.4901 48.0931L10.418 47.9202L10.44 47.7551V47.6159L10.5402 47.3256L10.6785 47.0055L10.8068 46.2956L10.903 46.0053L10.9772 45.719L11.1475 45.1424L11.1956 44.8362L11.3179 44.4047L11.3439 44.2635L11.4341 44.0885L11.5083 43.8022L11.5343 43.661V43.5L11.5824 43.3548L11.6526 43.0446L11.6967 42.8776L11.8089 42.5396L11.8309 42.3746L11.847 42.1658L11.9331 41.9689L12.0293 41.6786L12.0514 41.5136L12.1416 41.1776V41.0384L12.1897 40.8713L12.2378 40.7262L12.3059 40.3941L12.354 40.249L12.4442 39.5908L12.4863 39.3999L12.6025 39.0838L12.6607 38.6841L12.7609 38.4157L12.809 38.2705L12.835 37.9683L12.9252 37.7933L12.9513 37.4911L12.9793 37.3718L13.0715 37.0596L13.0936 36.7335L13.1837 36.5585L13.2539 36.4094L13.3661 35.9103L13.4363 35.6001L13.4844 35.455L13.5906 35.2323L13.6267 34.9977L13.6708 34.8306L13.8151 34.3952L13.8371 34.2301L13.8852 34.085L13.9113 33.9438L13.9333 33.7788L14.0335 33.5103L14.1057 33.3612L14.1337 33.2419L14.2099 32.8164L14.3261 32.5002L14.4704 32.0648L14.5145 31.8978L14.5626 31.7526L14.6167 31.4921L14.7731 31.4464L14.9995 31.4146L15.4344 31.3748L15.6589 31.3192L16.0216 31.2675L16.4505 31.182L16.655 31.1521L16.8213 31.174L17.0217 31.1223L17.3845 31.0706L17.5047 31.0984L17.6811 31.1879L17.8915 32.1463L17.9637 32.6414L18.0298 32.7707L18.0899 33.1763L18.2322 33.9836L18.2783 34.2997L18.3445 34.59L18.4567 35.0354L18.5028 35.3516L18.575 35.6856V35.8467L18.6471 36.3418L18.7393 36.65L18.8054 37.1014L18.8736 37.4135V37.5527L18.9357 37.843L18.9557 37.9782L19.0319 38.3362L19.1141 38.5767L19.2423 39.4556L19.3045 39.7221L19.3526 39.899L19.4508 40.5751L19.6251 41.609L19.6492 41.7661L19.7213 42.1002L19.7474 42.4422L19.8155 42.7543V42.9154L19.9859 43.7664L20.0059 43.9016L20.0721 44.1919L20.1182 44.347L20.1683 44.6851L20.1923 45.0032L20.2404 45.1802L20.2705 45.383L20.3667 45.8761L20.4368 46.3493C20.4729 46.4368 20.525 46.6357 20.4208 46.7192C20.3326 46.755 20.2625 46.743 20.1703 46.755L20.0139 46.8007L19.8296 46.8047L19.5109 46.8504L19.0139 46.9458L18.8315 46.9717L18.5549 46.9876L18.3986 47.0333L18.1741 47.089L17.8755 47.1089L17.5348 47.1586L17.4346 47.1049L17.3564 46.8862L17.2743 46.4845L17.2181 46.2618L17.2081 46.0332L17.0538 44.9734L17.0037 44.7964L16.5006 44.8461L16.1299 44.8541L15.1278 44.9754L14.5145 45.0628L14.4384 45.3273L14.3221 45.6435L14.3001 45.8085L14.256 45.9755L14.2039 46.2599L14.0395 46.7212L13.9533 47.0791L13.9213 47.3376L13.8692 47.4608L13.801 47.6318L13.6788 47.7412L13.0394 47.8108L12.8611 47.8605L12.5164 47.8864L12.5244 47.8923ZM16.5026 41.7939L16.6229 41.6607L16.5988 41.3426L16.5507 41.1656L16.5467 40.9827L16.4606 40.3961V40.2351L16.4044 39.8513L16.4225 39.6644L16.3203 39.1275L16.2181 38.2685L16.1219 37.4533L16.0237 36.9383L15.8513 37.0318L15.8032 37.338L15.7431 37.7158L15.707 37.9504L15.6469 38.3282L15.5827 38.5211L15.5246 38.7597V38.9207L15.4565 39.0917L15.4184 39.3045L15.3743 39.4715L15.3362 39.6843L15.2721 40.1993V40.3603L15.208 40.7143L15.1398 40.8853L15.0817 41.2849L15.0596 41.45L15.0436 41.6587L14.9995 41.8258L15.1779 41.9391L15.3603 41.9133L15.6128 41.8993L15.8212 41.8914L16.5026 41.7939Z" fill="#D2E9F7"/>
<path d="M25.8454 46.1965L25.687 46.2204H25.5247L25.2722 46.2343L25.0878 46.2383H24.9475L24.717 46.2462L24.5507 46.2243H24.4104L24.0977 46.1508L23.8111 46.0991L23.6588 46.0056L23.4123 45.9022L23.2861 45.8286L23.1357 45.7591L22.8071 45.5761L22.6988 45.4767L22.5686 45.3813L22.3641 45.089L22.1176 44.8245L22.0074 44.5402L21.9433 44.4109L21.8551 44.1246L21.7869 43.9735L21.7248 43.546L21.6767 43.369L21.6466 43.1662V43.0051L21.5605 42.4186L21.5144 41.9414L21.5104 41.7584L21.4863 41.4403V41.1182L21.4623 40.9611V40.8219L21.4422 40.3427L21.4863 40.0146L21.4342 39.8158L21.4522 39.6289L21.4843 39.3704L21.4442 39.261L21.4522 38.8454L21.5224 38.6963L21.4763 38.3802L21.4883 38.3086L21.4743 38.2191L21.5064 37.9606L21.5164 37.7061L21.5525 37.4715L21.5364 37.1971L21.5164 37.0619L21.5645 36.9167L21.5184 36.6006L21.5665 36.1333L21.5885 35.9683L21.5985 35.7137L21.5885 35.4851L21.6366 35.3399V35.1789L21.6587 35.0138L21.6627 34.8746V34.7136L21.7068 34.5466L21.7328 34.2443L21.825 33.7711L21.8952 33.2999L21.9393 32.9718L22.0194 32.5681L22.0936 32.2818L22.1838 31.9458L22.2379 31.6853L22.3762 31.5282L22.5024 31.2797L22.6507 31.0271L22.9233 30.6652L23.0436 30.532L23.3181 30.3551L23.4444 30.2676L23.8913 29.9952L24.2681 29.8719L24.5527 29.7625L24.709 29.7168L25.0497 29.6671L25.4786 29.5816L25.8414 29.5299L26.4186 29.516L26.633 29.5537L26.8595 29.5219H27.1842L27.3245 29.5239L27.4908 29.5458H27.6531L27.7533 29.5995L28.0099 29.6074L28.3446 29.675L28.6733 29.858L28.9558 30.0469L29.018 30.1522L29.1623 30.3392L29.2464 30.4425L29.3146 30.5937L29.4609 30.8024L29.5431 31.043L29.6052 31.3095L29.6713 31.5998L29.7234 31.7986L29.7956 32.1327L29.8677 32.6278L29.8778 32.8564L29.8597 33.0434L29.8637 33.3873L29.8717 33.7552L29.8637 34.6539L29.8437 34.8408L29.8156 35.4433L29.7375 35.5467L29.4689 35.6084L29.1543 35.676L27.7193 35.8609L27.0479 35.8649L26.8535 35.6402L26.8074 35.324L26.8294 35.159L26.8615 34.7394V34.4173L26.9236 33.9023L26.9036 33.6061V33.2839L26.8535 32.9459L26.6571 32.5602L26.3865 32.4608L26.0558 32.417L25.8053 32.4528L25.5387 32.5363L25.3022 32.6616L25.1339 32.938L25.0858 33.0831L25.0417 33.2501L25.0076 33.6458L24.9375 33.956L24.8573 34.3597L24.8774 34.4949L24.8253 34.7792L24.8072 35.1272L24.7792 35.4075L24.7411 35.6203V35.7814L24.7391 35.9205L24.717 36.0856V36.4077L24.6529 36.7616L24.6028 37.6902L24.6068 37.8731L24.5687 38.2469V38.408L24.5667 38.7082L24.5487 38.8952L24.5306 39.2431L24.6008 39.7164L24.5567 39.8834V40.0444L24.5828 40.2254V40.3864L24.5607 40.5515L24.6068 40.7066V41.1898L24.6349 41.3707L24.6128 41.6968L24.6369 42.0149L24.6689 42.2396L24.711 42.3709L24.7351 42.5279L24.8754 42.852L25.0798 42.9833L25.4365 43.0469L25.7933 42.9495L26.134 42.8998L26.4226 42.6512L26.4967 42.5259L26.619 42.0945L26.6871 41.7624L26.7352 41.4562V41.317L26.7432 41.2017L26.7713 40.9213L26.7893 40.5734L26.8054 40.3646V40.2035L26.8755 39.8933L26.8875 39.6607L27.0198 39.4579L27.1982 39.4102L27.7914 39.3465L28.2684 39.2769L29.3908 39.1835L29.6673 39.1676L29.8497 39.3028L29.9639 39.4479L30 39.6965L29.974 39.8377L29.998 39.9947V40.295L30.01 40.5455L29.982 40.6648V40.8259L29.974 40.9193V41.4025L29.9499 41.5437L29.8958 42.1263L29.8677 42.4066V42.5677L29.8457 42.7327L29.7976 42.8779L29.7134 43.2577L29.6393 43.544L29.5952 43.711L29.525 43.8601L29.4308 44.0113L29.3827 44.1564L29.3567 44.2976L29.0761 44.7529L28.7775 45.0949L28.4468 45.3733L28.2985 45.4628L27.7273 45.6835L27.4647 45.7909L27.1982 45.8744L26.9136 45.9837L26.5729 46.0335L26.2803 46.0991L26.0598 46.1766L25.8514 46.1826L25.8454 46.1965Z" fill="#D2E9F7"/>
<path d="M31.7403 44.9581L31.7143 44.6161L31.6902 44.459L31.7343 44.292L31.6882 44.1369L31.7143 43.8347V43.6955L31.7644 43.3893L31.7403 43.2322L31.7363 43.0493L31.7123 42.8922L31.7383 42.59L31.7223 42.4766L31.7083 42.065L31.7524 41.898L31.7283 41.5799L31.7544 41.4387L31.7343 41.3035L31.7824 40.9973L31.7584 40.8402L31.8025 40.351L31.8245 40.025L31.8205 39.681V39.0367L31.8405 38.7106L31.8606 38.5237L31.8786 38.1758L31.9207 37.8238L31.8967 37.5057V37.3446L31.8926 37.0006L31.9167 36.5373L31.9387 36.2112L31.9347 36.0283V35.8672L31.9488 35.4974L31.9708 35.1713L31.9568 34.9208L31.9327 34.6026L31.9808 34.4575L31.9608 34.3223L31.9828 34.1572L31.9628 33.861L32.0109 33.7158V33.3937L31.9648 33.2386L31.9929 32.9582L32.0149 32.7932L31.9949 32.658L32.0169 32.493L31.9969 32.3578L31.9728 32.0396L31.9989 31.8984L31.9949 31.7155L31.9989 31.117L32.047 30.8108L32.0049 30.5185L32.0369 30.26L31.9949 29.9677L32.0009 29.6913L32.0069 29.2539L32.045 29.0411L32.1251 28.9616L32.3296 28.9318L32.4819 28.8642L32.8025 28.8403L33.3697 28.7588L33.6904 28.7349L34.1193 28.6494L34.2776 28.6256L34.6223 28.5997L34.963 28.55L35.1574 28.6136L35.2496 28.7608L35.2376 28.9934L35.2476 29.3831L35.2717 29.7013L35.2596 30.095L35.2416 30.4429V30.604L35.2617 31.0613L35.2436 31.2482L35.2276 31.457L35.2376 31.6857L35.2156 31.8507L35.2396 32.0078L35.2136 32.149L35.1895 32.7733L35.1614 33.0537L35.1534 33.4693L35.2216 33.6204L35.416 33.3619L35.5122 33.0716L35.7186 32.7435L35.8248 32.5208L35.9351 32.32L36.0934 32.1351L36.1735 31.8925L36.2016 31.7732L36.3499 31.5206L36.4762 31.2721L36.6285 31.0434L36.7127 30.8247L36.891 30.4529L37.0594 30.1765L37.0814 30.0115L37.1917 29.8106L37.3921 29.4368L37.5544 29.1147L37.7548 28.7409L37.8711 28.5858L37.9132 28.3949L38.0595 28.1205L38.2759 28.0211L38.6888 27.9853L39.3922 27.8839L39.6227 27.874L39.733 27.8342L40.1638 27.7725L40.4745 27.6811L40.9355 27.6612L41.1359 27.6095L41.4185 27.6373L41.5106 27.7845L41.3684 28.0807L41.3243 28.2478L41.176 28.5003L41.0076 28.7787L40.9174 28.9536L40.8192 29.0829V29.2221L40.741 29.3473L40.6148 29.5959L40.5466 29.7669L40.4665 30.0095L40.3142 30.2381L40.244 30.3873L40.1278 30.5424L40.0636 30.7352L39.9113 30.9639L39.8532 31.2025L39.739 31.3795L39.6488 31.5544L39.4604 31.8567L39.3542 32.0794L39.2439 32.2802L38.9754 32.825L38.8491 33.0736L38.6848 33.3738L38.4904 33.7934L38.3601 34.0181L38.2759 34.2368L38.1537 34.5072L37.825 35.1077L37.6647 35.5909L37.7428 35.8096L37.9092 36.1536L37.9873 36.3723L38.1416 36.6268L38.2499 36.8873L38.5244 37.4918L38.5966 37.6647L38.7309 37.9451L38.8812 38.1758L39.0014 38.3647L39.0495 38.5416L39.1437 38.7126L39.1858 38.8439L39.3061 39.0328L39.3522 39.1878L39.5025 39.4185L39.6327 39.675L39.7009 39.8261L39.9213 40.0707L39.9674 40.2258L39.9875 40.361L40.1017 40.5061L40.236 40.7865L40.256 40.9217L40.4785 41.1663L40.5306 41.3651L40.5767 41.5202L40.6649 41.6455L40.6909 41.8264L40.7831 41.9736L40.8673 42.077L40.9154 42.2539L41.0196 42.4925L41.218 42.7411L41.3463 42.9757L41.5387 43.3396L41.6008 43.445L41.6089 43.6518L41.0898 43.7492L40.5226 43.8307L39.8151 43.9103L39.6147 43.9619L39.1377 44.0315H38.9754L38.4783 44.127L38.1998 44.121L38.0895 43.9997L37.9793 43.7154L37.6947 43.2044L37.4201 42.5999L37.2899 42.3434L37.1736 42.1764L37.0634 41.894L36.9953 41.7429L36.9311 41.6137L36.7708 41.3134L36.6345 41.0112L36.5042 40.7547L36.3259 40.4823L36.2377 40.196L36.1956 40.0647L36.1034 39.9176L35.9531 39.6869L35.929 39.5298L35.7787 39.2992L35.7306 39.1222L35.6324 38.9294L35.5382 38.7584L35.2476 38.2016L35.0612 37.8835L34.9931 37.8934V38.0326L34.971 38.2195V38.3806L34.945 38.5217L34.969 39.0009V39.3012L34.961 39.5776V39.7386L34.9811 39.8738L34.959 40.1999L34.939 40.3868L34.963 40.705L34.967 40.8879L34.9871 41.1842L34.943 41.3512L34.9169 41.4924L34.941 41.9716L34.925 42.3414L34.8969 42.6218L34.8708 42.763V42.924L34.8909 43.2203L34.8468 43.5484L34.7927 43.8088L34.8328 44.0793L34.7847 44.5465L34.5482 44.6738L33.9569 44.7593L33.7565 44.811L33.48 44.8269L33.1653 44.8945L33.029 44.9144L32.9569 44.9025L32.8005 44.9482L32.3696 45.0098L32.1612 45.0178L31.9367 45.0735L31.7343 44.9641L31.7403 44.9581Z" fill="#D2E9F7"/>
<path d="M43.5733 43.3872H43.4109L43.0061 43.4687L42.8538 43.3753L42.7917 42.9478L42.8398 42.8026L42.7937 42.6475L42.8157 42.3214L42.7957 42.1862L42.8177 41.8601L42.8357 41.5121L42.8618 41.2099V41.0488L42.8899 40.7685V40.6074L42.8919 40.4682L42.9059 39.9373L42.954 39.7922L42.934 39.4959V39.3349L42.96 39.1937L43.0081 38.8875V38.7483L42.9941 38.4739L42.978 38.3606L43.0582 38.118L43.0221 37.8694L43.0482 37.7283L43.0241 37.5712L43.0722 37.426L43.0462 37.084V36.6008L43.0903 36.4338L43.0863 36.2509L43.0622 35.9327L43.0843 35.7677V35.6285L43.1103 35.4635V35.3243L43.1344 34.9982L43.1304 34.8153L43.1264 34.4713L43.1424 34.1014L43.1684 33.7992L43.1284 33.5288L43.1083 33.2325L43.1304 33.0675L43.1745 32.9005L43.1544 32.6042V32.465L43.1945 32.0912L43.1805 31.8407L43.1444 31.7532L43.1704 31.4509V31.3117L43.1364 30.9021L43.1564 30.7152L43.1785 30.3891L43.2165 30.1764L43.2005 29.902L43.2226 29.7369L43.1965 29.556L43.2185 29.391V29.2299L43.1985 29.0947L43.2205 28.9297L43.2586 28.5558V28.3948L43.2546 28.2119L43.2767 27.8858L43.2727 27.7028L43.3208 27.3966L43.4891 27.2813L44.6696 27.1103L44.9622 27.0447L45.2608 27.0248L45.3931 26.983L46.9162 26.7643H47.0786L47.4153 26.6927L47.7339 26.647L48.0807 26.643L48.263 26.6172H48.5657H49.0527L49.4255 26.6331L49.5918 26.655L49.7682 26.7444L49.9365 26.7882L50.2552 26.9035L50.4857 27.0546L50.5939 27.154L50.7562 27.3151L50.9166 27.4523L51.0107 27.6233L51.1891 27.8957L51.2573 28.0468L51.3835 28.2814L51.4437 28.526L51.4897 28.6811L51.594 28.9197L51.604 29.1484L51.6761 29.4824L51.7002 29.6395L51.7583 29.8841L51.7723 30.1346L51.7623 30.3891V30.5502L51.7904 31.0533V31.3754L51.7463 31.5424L51.7503 31.7253L51.7062 31.8923L51.7022 32.0315L51.6761 32.1727L51.6541 32.4988L51.612 32.6897L51.5439 33.0218L51.4256 33.4771L51.3474 33.7415L51.2272 34.0358L51.0729 34.4037L50.9566 34.5588L50.8364 34.8511L50.658 35.0618L50.5318 35.3104L50.4416 35.4854L50.179 35.7538L50.0848 35.9049L49.7902 36.1077L49.5718 36.2091L49.2972 36.3861L48.9505 36.5511L48.6839 36.6346L48.3913 36.7003L48.0807 36.7917L47.4513 36.9289L47.0164 36.9687L46.5174 37.0403L46.1727 37.0661L46.1787 37.1119V37.2729L46.1366 37.4638L46.1567 37.7601L46.1286 37.8794L46.1486 38.1756V38.3148L46.1466 38.4759L46.1206 38.6171V38.7781L46.1406 38.9133L46.1186 39.2394L46.0805 39.4522L46.0745 39.7286L46.0524 39.8936L46.0244 40.174V40.335L45.9803 40.502L46.0124 40.7267L45.9943 41.0747L46.0404 41.3909L45.9683 41.54L45.9943 41.7209V41.882L45.9683 42.0232V42.1842L45.9262 42.3751L45.9342 42.5819L45.9382 42.7648L45.9101 43.0452L45.7538 43.0909L43.936 43.3534L43.5693 43.3832L43.5733 43.3872ZM46.826 34.0796L47.0685 33.998L47.4934 33.8907L47.6417 33.7992L47.9664 33.4771L48.1829 33.2166L48.3051 32.9462L48.3753 32.7971L48.4434 32.465L48.4594 32.2562L48.5196 32.0395L48.5536 31.6438V30.9996L48.5116 30.407L48.4554 30.0233L48.3252 29.7668L48.1588 29.5838L47.8822 29.4387L47.6718 29.4228L47.0545 29.4884L46.5354 29.5858L46.3831 29.6534L46.309 29.9398L46.2809 30.0591L46.2909 30.2877L46.301 30.6774L46.2789 30.8425L46.2508 31.1228V31.5842L46.2368 31.8168L46.2208 32.1866L46.2368 32.461L46.2629 32.642L46.2468 32.8507L46.2168 33.4314L46.2468 33.6342L46.2248 33.9603L46.2308 34.1671L46.822 34.0816L46.826 34.0796Z" fill="#D2E9F7"/>
<path d="M57.5666 41.6748L57.274 41.7404H57.1116L56.9032 41.7484L56.358 41.6668L56.1737 41.6708L55.8189 41.629L55.6466 41.5614L55.2998 41.4044L54.8409 41.126L54.4701 40.8118L54.3859 40.7084L54.2557 40.613L54.1675 40.4877L54.0312 40.3465L53.8067 40.0801L53.7867 39.9449L53.6945 39.7978L53.6524 39.6665L53.5903 39.5611L53.5262 39.4319L53.4801 39.2768L53.4159 39.1475L53.3478 38.8354L53.3057 38.7041L53.1714 38.2627L53.1935 38.0977L53.1313 37.6702L53.1674 37.4356L53.1173 37.2586L53.0933 37.1015L53.0652 36.5984L53.1093 36.2704L53.0832 36.0894V35.7673L53.0592 35.6102L53.1033 35.2821L53.0412 35.1767V34.8765L53.0652 34.7115L53.0732 34.2959L53.1013 34.0155L53.0592 33.7232L53.0873 33.4429L53.0632 33.2858L53.1113 33.1406L53.1333 32.9756L53.1133 32.8404L53.1353 32.6754L53.0933 32.5441L53.1975 32.2996L53.2195 32.1345L53.1734 31.8184L53.1794 31.542L53.2235 31.375L53.2275 31.2358V30.9137L53.2356 30.337L53.3257 30.162V29.8618L53.4219 29.5496L53.466 29.3826L53.5181 29.0983L53.5863 28.7662L53.6825 28.4759L53.7506 28.3049L53.913 27.9828V27.8217L53.9831 27.6726L54.1214 27.3525L54.2637 27.0562L54.406 26.921L54.5002 26.7699L54.7687 26.3861L55.0353 26.1415L55.2077 26.0481L55.35 25.9129L55.5985 25.716L55.851 25.541L56.1777 25.4019L56.3099 25.3601L56.6366 25.2209L56.8611 25.1652L57.2599 25.038L57.5746 24.9704L57.8431 24.9087L58.256 24.873L58.3963 24.8769L58.6488 24.863L59.0196 24.8551L59.212 24.8968L59.3964 24.8928L59.5387 24.9187L59.9034 25.028L60.3524 25.2388L60.5508 25.3263L60.685 25.4456L60.9636 25.6126L61.2462 25.8015L61.3805 25.9208L61.4727 26.068L61.6511 26.3404L61.7392 26.4656L61.8034 26.5949L61.8715 26.746L61.9898 27.0741L62.098 27.4956L62.1461 27.6726L62.1701 27.8297L62.1902 28.1259L62.1862 28.2651L62.2523 28.5554L62.2764 28.7125L62.2964 29.0088L62.2744 29.1738L62.2703 29.313L62.3164 29.4681L62.3485 29.6928L62.3445 29.832V30.1541L62.3726 30.4961L62.4026 30.86L62.3806 31.025L62.3886 31.3929L62.4447 31.6156L62.3686 31.88L62.4307 32.1465L62.3826 32.4527V32.7529L62.3545 33.0551L62.3706 33.3295L62.3445 33.6318L62.2964 33.7769L62.2884 34.1925L62.3184 34.3953L62.2964 34.5603V34.8825L62.2483 35.0276L62.1361 35.8488L62.1782 35.9801L62.104 36.2664L62.0559 36.4115L62.0699 36.6621L61.9938 36.9265L61.9657 37.2069L61.9898 37.364L61.9577 37.6225L61.8675 37.7974L61.8775 38.0261L61.7653 38.3641L61.643 38.7956L61.5529 38.9706L61.3905 39.2927L61.3184 39.4418L61.2242 39.5929L61.1981 39.7341L60.9656 40.0443L60.8454 40.1775L60.7512 40.3286L60.5087 40.5712L60.2622 40.79L60.182 40.8715L59.689 41.1498L59.5326 41.1956L59.3583 41.2672L59.0496 41.3805L58.8933 41.4262L58.6528 41.5296L58.1638 41.6688L57.5626 41.6867L57.5666 41.6748ZM57.8311 38.5749L58.1357 38.4397L58.3261 38.3204L58.6107 38.05L58.723 37.7119L58.8132 37.3759L58.8352 37.2109L58.8091 37.0299L58.8272 36.682L58.8492 36.5169V36.1948L58.8893 36.0039L58.8653 35.6858L58.9094 35.5188L58.9354 35.2165L58.9314 35.0336L58.9795 34.8884L58.9534 34.7075L58.9214 34.6439L58.9595 34.4311L58.9775 34.0831L58.9474 33.5582L58.9855 33.3454L59.0276 33.1546L59.0096 32.7191L59.0577 32.574L58.9795 32.1942L59.0216 31.8422L59.0276 31.5658L59.0476 31.3789L59.0697 31.2139L59.0236 31.0588L59.0036 30.7625L59.0236 30.5756L59.0456 30.2495L59.0617 30.0408L59.0196 29.7485L59.0056 29.3369L58.9855 29.0406V28.7185L58.8272 28.281L58.717 28.1597L58.5286 27.9788L58.1418 27.8734L57.7129 27.9589L57.5385 28.0305L57.1958 28.2174L56.9974 28.452L56.8751 28.7225L56.823 29.0068L56.7549 29.1778L56.6607 29.49L56.6386 29.655L56.6186 29.8419L56.5525 30.335L56.5585 30.3808L56.5625 30.5637L56.5404 30.8898V31.029L56.4923 31.3571L56.4703 31.6832L56.4542 32.053V32.2141L56.4322 32.3791L56.4362 32.7231L56.3941 32.914L56.356 33.2878L56.334 33.4528V33.7749L56.358 33.932V34.0931L56.4082 34.27L56.3641 34.4371L56.2959 34.7691L56.344 34.9461L56.322 35.1111L56.358 35.1986L56.342 35.4074L56.3681 35.5883L56.346 35.7534L56.3721 35.9343L56.354 36.2823L56.3781 36.4394L56.334 36.6064L56.4262 36.7535L56.4422 37.0279L56.3841 37.2665L56.4763 37.4137L56.5685 38.044L56.6607 38.1911L56.7188 38.2746L56.8851 38.4576L57.0154 38.555L57.2078 38.5968L57.3962 38.6147H57.5365L57.8311 38.5749Z" fill="#D2E9F7"/>
<path d="M65.8355 40.1776L65.6771 40.2014L65.4466 40.0503L65.4426 39.7063L65.3965 39.2291L65.4867 38.732L65.5088 38.567L65.4827 38.225L65.5088 38.0838L65.4847 37.7657L65.4607 37.6086L65.5288 37.2765V37.1155L65.4787 36.9385L65.5228 36.4494L65.4968 36.2684L65.5248 35.988L65.5428 35.6401L65.5649 35.475V35.314V35.0137L65.5909 34.8726L65.5669 34.5544L65.6471 34.3118L65.5689 34.0931V33.9321L65.5909 33.767L65.6591 33.435L65.7012 33.083L65.7232 32.918L65.6551 32.7669L65.7292 32.4805L65.7553 32.3394L65.7092 32.0232L65.7453 31.7886L65.7152 31.5858L65.7372 31.4207L65.8074 31.2716L65.7833 31.1145L65.8094 30.9733L65.8274 30.6254L65.7813 30.4703L65.8595 30.2058L65.8274 29.9811L65.8555 29.8618L65.8294 29.6809V29.5198L65.8515 29.3548L65.9116 28.977V28.8378L65.8956 28.7026V28.5416L65.8755 28.4063L65.9016 28.1041L65.9236 27.9391L65.9196 27.5951L65.8896 27.2312L64.663 27.4082L64.3424 27.432L64.186 27.4778L63.9816 27.5076L63.7511 27.5175L63.5687 27.5434L63.3543 27.5056L63.2561 27.3127L63.2621 27.0364L63.3042 26.8455L63.2781 26.6645L63.232 26.5094L63.2761 26.1813L63.3022 26.0402L63.2781 25.722L63.3262 25.4158L63.3743 25.2707L63.3282 24.9545V24.8153L63.4084 24.5509L63.5908 24.364L63.7471 24.3182L64.3383 24.2327L64.4546 24.2387L64.6129 24.2148L64.7692 24.1691L66.4507 23.9265H66.6131L67.1121 23.8549L68.5631 23.6223L68.9078 23.5964L69.3808 23.505L69.5893 23.497L70.9982 23.2942L71.3189 23.2704L71.5293 23.2863L71.6014 23.4593L71.6215 23.5945V23.7555L71.6035 23.9424L71.6275 24.0995L71.6235 24.2387L71.6014 24.4037L71.6215 24.5389L71.6155 24.8153L71.5934 24.9804V25.1195L71.6075 25.3939L71.5594 25.7002L71.5373 25.8652L71.5614 26.1833L71.4992 26.4001L71.2748 26.4557L71.0663 26.4637L70.7938 26.5035L70.5933 26.5552L70.3669 26.587L69.4089 26.7023L69.2085 26.754L69.1864 26.919L69.2285 27.0503L69.1844 27.2173L69.2045 27.3525L69.1784 27.4937V27.7939L69.1764 27.955L69.1443 28.3745L69.0802 28.5674L69.1423 28.6728L69.0742 29.0049L69.0261 29.3111L69.0461 29.4463L69.0622 29.7207V29.8599L69.0822 30.0169L69.0081 30.3033L69.0121 30.6473L68.99 30.8123L68.968 31.1384L68.9199 31.2835L68.9439 31.4406L68.964 31.7369L68.9359 32.0172L68.8678 32.1882L68.8918 32.5064L68.8658 32.6476L68.8858 32.7828L68.8638 33.1089L68.8457 33.4568L68.8297 33.6656L68.8617 33.8903V34.0295L68.8337 34.1707V34.3317L68.7836 34.6161V34.7771L68.7816 34.9163L68.8277 35.0714L68.8056 35.3975L68.7896 35.7673L68.7415 36.0735V36.2346L68.7175 36.5368L68.6734 37.026L68.6553 37.2129L68.6333 37.539L68.6814 37.716L68.6413 38.229L68.5972 38.8792V39.2013L68.5752 39.5274L68.5491 39.6685L68.2926 39.8197L66.3165 40.104L66.0539 40.2114L65.8395 40.1736L65.8355 40.1776Z" fill="#D2E9F7"/>
<path d="M75.2414 38.8244L75.0831 38.8482L74.8526 38.6971L74.8486 38.3531L74.8025 37.8759L74.8927 37.3788L74.9147 37.2138L74.8887 36.8718L74.9147 36.7306L74.8907 36.4125L74.8666 36.2554L74.9348 35.9233V35.7623L74.8847 35.5853L74.9288 35.0962L74.9027 34.9152L74.9308 34.6349L74.9488 34.2869L74.9709 34.1219V33.9608V33.6606L74.9969 33.5194L74.9729 33.2012L75.053 32.9587L74.9749 32.7399V32.5789L74.9969 32.4138L75.0651 32.0818L75.1071 31.7298L75.1292 31.5648L75.0611 31.4137L75.1352 31.1274L75.1613 30.9862L75.1152 30.67L75.1512 30.4354L75.1212 30.2326L75.1432 30.0676L75.2134 29.9184L75.1893 29.7613L75.2154 29.6202L75.2334 29.2722L75.1873 29.1171L75.2655 28.8527L75.2334 28.628L75.2615 28.5087L75.2354 28.3277V28.1667L75.2575 28.0016L75.3176 27.6238V27.4846L75.3016 27.3494V27.1884L75.2815 27.0532L75.3076 26.7509L75.3296 26.5859L75.3256 26.2419L75.2955 25.878L74.069 26.055L73.7483 26.0789L73.592 26.1246L73.3876 26.1544L73.1571 26.1644L72.9747 26.1902L72.7603 26.1524L72.6621 25.9596L72.6681 25.6832L72.7102 25.4923L72.6841 25.3113L72.638 25.1563L72.6821 24.8282L72.7082 24.687L72.6841 24.3689L72.7322 24.0626L72.7803 23.9175L72.7342 23.6013V23.4621L72.8144 23.1977L72.9968 23.0108L73.1531 22.9651L73.7443 22.8796L73.8606 22.8855L74.0189 22.8617L74.1752 22.8159L75.8567 22.5733H76.019L76.5181 22.5018L77.9691 22.2691L78.3138 22.2433L78.7868 22.1518L78.9952 22.1439L80.4042 21.941L80.7248 21.9172L80.9353 21.9331L81.0074 22.1061L81.0275 22.2413V22.4023L81.0094 22.5892L81.0335 22.7463L81.0295 22.8855L81.0074 23.0506L81.0275 23.1858L81.0214 23.4621L80.9994 23.6272V23.7664L81.0134 24.0408L80.9653 24.347L80.9433 24.512L80.9673 24.8302L80.9052 25.0469L80.6807 25.1026L80.4723 25.1105L80.1997 25.1503L79.9993 25.202L79.7728 25.2338L78.8149 25.3491L78.6144 25.4008L78.5924 25.5659L78.6345 25.6971L78.5904 25.8641L78.6104 25.9993L78.5844 26.1405V26.4407L78.5824 26.6018L78.5503 27.0214L78.4862 27.2142L78.5483 27.3196L78.4802 27.6517L78.4321 27.9579L78.4521 28.0931L78.4681 28.3675V28.5067L78.4882 28.6638L78.414 28.9501L78.418 29.2941L78.396 29.4591L78.3739 29.7852L78.3258 29.9304L78.3499 30.0874L78.3699 30.3837L78.3419 30.6641L78.2737 30.8351L78.2978 31.1532L78.2717 31.2944L78.2918 31.4296L78.2697 31.7557L78.2517 32.1037L78.2357 32.3124L78.2677 32.5371V32.6763L78.2397 32.8175V32.9785L78.1896 33.2629V33.4239L78.1876 33.5631L78.2336 33.7182L78.2116 34.0443L78.1956 34.4142L78.1475 34.7204V34.8814L78.1234 35.1837L78.0793 35.6728L78.0613 35.8597L78.0392 36.1858L78.0873 36.3628L78.0473 36.8758L78.0032 37.526V37.8481L77.9811 38.1742L77.9551 38.3154L77.6985 38.4665L75.7224 38.7508L75.4599 38.8582L75.2454 38.8204L75.2414 38.8244Z" fill="#D2E9F7"/>
<path d="M63.3376 17.1777L62.3115 16.784L61.2353 17.0962L60.9787 17.7544L60.7903 18.1202L60.7683 18.2952L60.6861 18.4125L60.5158 18.7804L60.4797 18.9414L60.3875 19.0866L60.2993 19.2695V19.1701L60.3374 18.9951L60.3795 18.8023L60.4617 18.5219L60.4877 18.2793L60.5919 17.9632L60.5819 17.6927L60.6741 17.4144L60.642 17.0982L60.6841 16.9073L60.6721 16.4341L60.5098 15.7342L60.4015 15.4976L60.3194 15.1516L60.0728 14.8215L59.9386 14.5929L59.6099 14.2668L59.2111 13.9685L58.8583 13.8651L58.5397 13.7279L58.0466 13.6643L57.7139 13.6921L57.0425 13.7498L56.7399 13.9009L56.4814 14.0103L56.0565 14.2787L55.9142 14.4139L55.5835 14.6306L55.4813 14.7996L54.9542 14.3721L54.2708 14.4835L54.0944 14.5252L53.4531 14.5511L53.2066 14.8494L52.7616 15.08L52.6594 15.6805L52.5933 15.8117L52.4971 16.0324L52.4149 16.1855L52.2646 16.452L52.1724 16.6528L52.1063 16.7701L51.9459 16.9749L51.7475 17.1539L51.6614 16.9531L51.4209 16.7145L51.3587 16.613L51.0942 16.1875L50.7054 15.945L50.5751 15.8356L50.2925 15.6248L49.8917 15.4339L49.5049 15.3325L49.1541 15.2729L48.627 15.2232L48.2222 15.2371L47.665 15.3266L47.3805 15.3922L47.1099 15.4598L46.6449 15.6308L46.4265 15.8058L46.186 15.929L45.8974 16.1438L45.733 16.3148L45.5907 16.4202L45.2861 16.6747L44.9855 17.0346L44.9133 17.1718L44.7309 17.3547L44.4824 17.7941L44.4183 17.987L44.3341 18.1222L44.1157 18.5458L44.0736 18.7844L43.9593 19.0488L43.9233 19.3849L43.8812 19.5519L43.8251 19.8442L43.783 20.1305L43.7569 20.2816L43.6567 20.6554V20.8145L43.5284 21.069L43.4743 21.2778L43.4583 21.3036L43.4924 21.1883L43.4623 20.8682L43.4803 20.7469L43.5425 20.4844L43.5745 20.2756L43.6467 20.0012L43.6768 19.6732L43.7228 19.359L43.7008 19.1462L43.7128 19.0985L43.8271 18.7486L43.8451 18.325L43.8411 18.1799L43.8832 18.0168L43.9974 17.2573L43.4463 16.6985L44.2439 16.0126L44.1878 15.418L44.2339 15.2212L44.2419 15.0104L44.3101 14.8016L44.3461 14.5193L44.4243 14.1832L44.4063 13.4754L43.6367 12.515L42.7007 12.7735L42.5644 12.8053L42.33 12.8212L41.6465 13.0499L41.0573 13.6961L40.8789 14.3761L40.927 14.6624L40.7787 14.9865L40.8048 15.3345L40.7948 15.4121L40.5823 16.2114L41.1074 16.6826L40.4841 17.478L40.4621 17.8578L40.3599 18.1063L40.3158 18.5279L40.2977 18.8341V18.8997L40.1835 19.1323L40.1935 19.5439L40.1715 19.6871L40.1093 19.9297L40.0893 20.2041L40.0292 20.4069L39.971 20.8662L39.9831 20.9358L39.8608 21.2181L39.7867 21.5403L39.7606 21.6297L39.6464 21.8703L39.5642 22.0851L39.4379 22.3913L39.3999 22.5185L39.3197 22.6319L39.1694 22.9023L39.0291 23.1628L38.979 23.298L38.8668 23.4312L38.7465 23.63L38.6663 23.7354L38.5982 23.801L38.5761 23.8209L38.5601 23.8269L38.5401 23.7494V23.6161L38.522 23.4213L38.5381 23.2085L38.5481 22.962L38.5922 22.6219L38.5541 22.3853L38.5601 22.3416L38.6423 21.9499L38.6222 21.7073L38.6583 21.4607L38.6543 21.2142L38.7245 20.6813V20.5083L38.7866 20.2578L38.7786 19.9158L38.7926 19.7288L38.7986 19.6175L38.9128 19.2636L38.8848 18.9156L38.8908 18.7525L38.9068 18.5994L38.977 18.331L39.005 17.8419L39.0511 17.645L39.1153 17.311L39.1293 16.9491L39.1253 16.8179L39.2235 16.4858L39.1874 16.2631L39.2055 16.1895L39.2916 15.7799L39.2876 15.5055L39.3117 15.3087L39.3237 15.1436L39.4139 14.7698L39.3918 14.4696V14.4059L39.488 14.1455L39.478 13.8432L39.5642 13.5509L39.4941 12.7715L38.7004 12L37.9108 12.0656L37.6402 12.1511L37.4939 12.175L36.8606 12.2307L36.2012 13.0658L36.101 13.5828L36.0649 13.9208L36.0589 14.1733L36.0188 14.4378L36.0108 14.563L35.8966 14.8533L35.9066 15.2073L35.8705 15.42L35.8445 15.76L35.8385 15.8952L35.7763 16.0662L35.7042 16.4878L35.6982 16.8338L35.6881 16.9968L35.6441 17.2573L35.628 17.5496L35.622 17.7385L35.4657 18.327L35.4977 18.6491L35.4697 18.842L35.4516 19.0826L35.4236 19.357L35.4156 19.5698L35.3855 19.7189L35.2973 20.0848L35.2633 20.6912L35.2733 20.9696L35.2673 21.1128L35.2192 21.3613L35.2152 21.5363L35.115 21.7828L35.135 22.262L35.0248 22.4967L34.9807 22.6697L34.8845 22.8407L34.7843 23.0733L34.6199 23.3636L34.5518 23.5962L34.4656 23.7871L34.4235 23.8826L34.3133 24.0019L34.1329 24.2624L34.0247 24.4015V24.3836L33.9746 24.1669L34.0046 23.986L33.9866 23.7494L34.0066 23.5306L34.0167 23.2662L34.0247 23.1091L34.0748 22.8844L34.0928 22.5523L34.0988 22.4191L34.177 22.1507L34.163 21.8166L34.173 21.763L34.2652 21.5124L34.3313 21.073L34.3153 20.894L34.3554 20.7628L34.3955 20.379L34.4015 20.1404L34.4115 20.0867L34.5498 19.697L34.5217 19.357L34.5758 18.7605L34.167 18.2733L34.7241 17.5794L34.8203 17.0604L34.8965 16.7363L34.9125 16.4679L34.9626 16.1676L34.9586 16.0185L35.0248 15.8495L35.1651 14.913L34.185 14.1057L33.3473 14.2409L33.0086 14.3443L32.8643 14.396L32.3432 14.5113L31.5215 15.3226L31.5776 15.9271L31.5636 16.0364L31.5475 16.1279L31.3772 16.5773L31.4313 16.9034L31.1808 17.5893L31.7279 18.1759L31.1507 18.9534L31.0906 19.4107L31.0064 19.6712L30.9703 20.0112L30.9343 20.2597L30.8882 20.5321L30.8501 20.8403L30.8461 21.0173L30.7338 21.3573L30.788 21.6834L30.7579 21.8166L30.6958 22.3933L30.6797 22.608L30.6477 22.8168L30.5895 23.0773L30.5855 23.1409L30.5074 23.298L30.349 23.5764L30.2047 23.9462L30.1486 24.1649L30.1346 24.1967L30.1526 24.149L30.1606 23.9323L30.2729 23.6857L30.2949 23.298L30.327 23.0514L30.337 22.8069L30.3631 22.6299L30.4472 22.3018L30.4092 21.93L30.4192 21.7968L30.4352 21.4269L30.341 20.7151L30.1807 20.2975L29.8761 19.7626L29.6135 19.3868L29.2888 19.1204L28.9802 18.8897L28.3208 18.673L27.928 18.5975L27.5552 18.5458L26.7676 18.7028L26.501 18.846L26.2004 18.9613L25.9238 19.1522L25.6252 19.3312L25.4128 19.5598L25.1442 19.7587L24.9498 20.0788L24.9117 20.1345L24.7113 19.9237L24.4868 19.7567L24.1602 19.4525L23.5088 19.3133L23.1661 19.3053L22.4566 19.3689L22.0458 19.5399L21.7652 19.699L21.5507 19.8223L21.1098 20.1325L21.0036 20.3075L20.5948 19.9515L19.9434 20.0569L19.6688 20.0828L19.0636 20.1802L18.3421 20.9974L18.2819 21.5661L18.2619 21.8405L18.2579 21.9817L18.1737 22.2183L18.1216 22.7929L18.0735 23.1071L18.0936 23.304L18.0374 23.4968L18.0475 23.8388L18.0314 23.982L17.9833 24.2146L17.9392 24.4652L17.845 25.0597L17.829 25.4295L17.837 25.5449L17.7909 25.7695L17.7829 25.9843L17.7007 26.2647V26.553L17.6687 26.8274L17.6727 26.9745L17.5805 27.2549L17.6045 27.5273L17.5424 27.7878V27.9945L17.4963 28.1775L17.4442 28.593L17.4602 28.7462L17.1897 29.4063L18.2599 30.2732L19.1037 30.2991L19.3903 30.1738L19.4524 30.1639L20.0496 30.1698L20.8232 29.2452L20.8473 28.8277L20.9234 28.6209L20.9575 28.3047L21.0357 27.9727L21.0257 27.7162L21.0798 27.5074L21.0918 27.2211L21.1178 27.0819L21.2541 26.5669L21.2982 26.368L21.4265 25.9763L21.4064 25.7338L21.4465 25.5826L21.4806 25.4116L21.5748 25.1949L21.6349 24.9404L21.7712 24.6382L21.8033 24.3797L21.8774 24.1967L21.8955 24.1073L22.0758 23.8905L22.1239 23.6181L22.2322 23.4471L22.2943 23.298L22.3023 23.3457L22.2903 23.5525L22.3063 23.7215L22.2342 23.9979L22.2722 24.2305L22.2442 24.328L22.2081 24.6739L22.1881 24.9265L22.1821 25.0597L22.0979 25.2903L22.0839 25.6562L22.0598 25.8451L22.0217 26.0996L21.9656 26.4237L21.9977 26.7478L21.9917 26.8651L21.9736 26.9884L21.8814 27.3384V27.5651L21.8434 27.738L21.7592 28.1138L21.8293 28.8635L22.5588 29.6091L23.6531 29.5435L24.4768 29.3188L25.1903 28.6487L25.3066 28.0522L25.3346 27.7937L25.3887 27.5134L25.3947 27.3185L25.4649 27.1236L25.509 26.714L25.515 26.5629L25.5831 26.3561L25.6192 26.0777L25.6914 25.8829L25.7535 25.5886L25.8617 25.2645L25.8517 24.9623L25.8597 24.9285L25.9599 24.6978L26.0301 24.4334L26.1223 24.2425L26.3447 23.5624L26.3487 23.4968L26.4289 23.3914L26.6053 22.9083L26.7736 22.6637L26.7916 22.5921L26.942 22.4668L26.952 22.443L26.9079 22.7412V22.8804L26.8297 23.1071L26.8077 23.3994L26.7836 23.5247L26.6834 23.8289L26.6594 24.143L26.6413 24.2942L26.5752 24.5487L26.5391 24.8966L26.5311 24.9941L26.3688 25.3281L26.4369 25.7377L26.4068 25.9664L26.4189 26.3979L26.5572 26.9725L26.6854 27.4119L26.8999 27.7361L27.1484 28.1377L27.4791 28.3584L27.7075 28.5493L28.1004 28.7462L28.5393 28.8555L28.9762 28.943L29.6376 28.7819L30.0304 28.6905L30.4172 28.4718L30.6517 28.3107L30.9824 28.0502L31.1687 27.8375L31.3852 27.6207L31.4954 27.4756L31.5576 27.5591L31.9624 27.8335L32.3151 28.0105L32.758 28.1158L32.9845 28.1417L33.4094 28.2153L34.2131 28.0542L34.4656 27.9289L34.7582 27.8056L35.131 27.6048L35.3334 27.3921L35.5378 27.2509L35.8084 26.9685L36.0509 26.6524L36.2413 26.8632L36.6702 27.0839L36.8305 27.1594L36.7043 27.2907L36.4998 27.4796L36.2293 27.8295L36.1391 28.0363L35.9968 28.1993L35.7563 28.7283L35.7102 29.1677L35.6982 29.3944L35.6541 29.7423L35.7623 30.4045L35.9226 30.9354L36.115 31.1481L36.2353 31.4762L36.6622 31.8281L36.8385 31.9594L37.1372 32.2119L37.53 32.3272L37.9048 32.4783L38.3637 32.4624L38.5842 32.4684L39.2776 32.4088L39.5923 32.2775L39.9069 32.1781L40.2156 31.9813L40.5142 31.7864L40.7627 31.5478L40.9731 31.337L41.1856 31.1243L41.4802 30.6987L41.5483 30.4681L41.6886 30.2235L41.7528 30.0306L41.9191 29.7662L41.9933 29.4361L42.0654 29.2333L42.1496 29.0027L42.2538 28.6945L42.3039 28.4002L42.3239 28.3226L42.4803 27.9926L42.5344 27.573L42.6386 27.5153L42.9252 27.2708L43.2118 26.9864L43.2539 26.9248L43.4844 26.7717L43.7309 26.4535L43.8692 26.2726L44.0475 26.0678L44.1618 25.8829L44.3762 25.6761L44.5866 25.2546L44.5947 25.2327L44.8913 24.9861L44.9394 24.7416L45.224 24.9742L45.5126 25.2168L45.7511 25.3102L45.9615 25.5051L46.3804 25.6145L46.6269 25.7258L46.9435 25.7815L47.2542 25.8511L47.7432 25.861L48.8696 25.6781L49.2043 25.5508L49.5149 25.4375L49.7754 25.2426L50.1703 25.012L50.4709 24.7773L50.7294 24.5566L51.1343 24.0814L51.2385 23.9303L51.479 23.6658L51.6533 23.3159L51.7716 23.0892L51.8738 22.8128L51.8878 22.96L51.8437 23.1469L51.7195 23.9681L52.8258 24.8549L53.4851 24.6938L53.7136 24.6561L53.8559 24.6143L54.4191 24.666L55.1867 23.6817L55.2869 23.0077L55.359 22.787L55.4452 22.3734L55.4532 22.1905L55.5274 21.9896L55.5555 21.7272L55.6757 21.3872L55.6657 21.1426L55.7639 20.9278L55.7739 20.6912L55.8541 20.5302L55.9423 20.1086L55.9643 19.9794L56.0665 19.7109L56.1286 19.4346L56.1567 19.3292L56.313 19.0528L56.3531 18.8142L56.4754 18.6193L56.5255 18.4066L56.6257 18.2773L56.7539 17.9512L56.782 17.8975L56.9524 17.6967L57.1107 17.3826L57.1688 17.3547L57.1648 17.3845V17.6231L57.1508 17.7723L57.0927 18.0288L57.0806 18.3191L57.0626 18.4364L57.0325 18.5497L56.8982 18.842L56.8261 19.2636L56.802 19.5201L56.792 19.6871L56.7359 19.9237L56.6718 20.2538L56.6537 20.5719L56.6437 20.8105L56.6217 21.1903L56.6938 21.4925L56.7359 22.1686L56.9343 22.4967L57.0205 22.7233L57.259 23.1429L57.5977 23.4451L57.9404 23.7295L58.4996 23.9124L58.7501 23.9482L59.189 24.0237L59.8905 23.8826L60.2993 23.7613L60.8625 23.459L61.2192 23.1608L61.4277 22.9162L61.5219 22.8108L61.8365 22.5185L62.0149 22.1467L62.067 22.0433L62.2554 21.8465L62.4077 21.4766L62.528 21.2818L62.6502 21.0014L62.7544 20.7847L62.8526 20.558L63.0049 20.2538L63.0791 19.9714L63.1092 19.8959L63.2915 19.6016L63.3537 19.3192L63.4559 19.1025L63.7645 18.2554L63.3557 17.1777H63.3376ZM49.0058 20.4327L48.9477 20.6276L48.9517 20.8344L48.9156 20.9358L48.7453 21.4548L48.7212 21.5343L48.609 21.6794L48.5028 21.9399L48.4787 21.9797L48.3505 22.099L48.2282 22.2163L48.1481 22.2879L48.0619 22.3296L47.9336 22.3853L47.8033 22.4072L47.7793 22.3992L47.627 22.3674L47.4686 22.1924L47.3624 22.0871L47.3263 21.9419L47.2081 21.6973L47.176 21.592L47.1259 21.2877L47.156 21.0471L47.1059 20.7389L47.1179 20.6336L47.154 20.387L47.168 20.1206L47.182 19.9734L47.2662 19.7189L47.3825 19.5519L47.5789 19.196L47.5929 19.1522L47.657 19.0906L47.7472 18.9613L47.8955 18.8619L48.0198 18.7525L48.124 18.6949L48.138 18.6889L48.3946 18.6571L48.4427 18.6631L48.4827 18.671L48.5088 18.7247L48.7693 19.025L48.7854 19.0409L48.7894 19.0588L48.9217 19.4067L48.9718 19.5022L49.0098 19.8004L49.0159 19.9456L48.9778 20.2478L49.0078 20.4307L49.0058 20.4327Z" fill="#0078C0"/>
<path d="M32.3181 17.3544L32.5085 17.5572L32.8151 17.5075L33.3302 17.4618L33.5687 17.422L33.7872 17.1516L33.8433 16.8534L33.9034 16.5909L33.9174 16.3523L33.9615 16.0918L33.9555 15.8393L34.0537 15.5887L34.0958 15.3104L33.8934 15.1453L33.5707 15.197L33.3202 15.2726L33.1398 15.3382L32.8352 15.4058L32.5506 15.6882L32.5746 15.9367L32.5426 16.1773L32.5065 16.3821L32.3983 16.6724L32.4343 16.9011L32.4023 17.1238L32.3181 17.3544Z" fill="#D2E9F7"/>
<path d="M42.1469 16.0407L42.3954 15.9632L42.6399 15.9592L42.8724 15.8856L43.2091 15.5953L43.1851 15.3468L43.2472 15.0843L43.2572 14.8278L43.3394 14.5793L43.3695 14.3407L43.4316 14.0762L43.4236 13.8237L43.2713 13.6328L42.9526 13.7203L42.7181 13.776L42.5277 13.7879L42.2131 13.8933L41.9625 14.1697L41.8964 14.4162L41.9325 14.627L41.9064 14.9034L41.7922 15.1559L41.8062 15.3527L41.7761 15.5933L41.7 15.8777L41.9064 16.0606L42.1469 16.0407Z" fill="#D2E9F7"/>
<path d="M62.5648 17.9386L62.2662 17.8233L61.9836 17.9048L61.8854 18.1553L61.7531 18.4118L61.7231 18.6524L61.5527 18.897L61.4625 19.0919L61.4124 19.3165L61.2601 19.5591L61.1559 19.7759L61.0577 20.0264L60.9054 20.269L60.8272 20.4261L60.6428 20.6905L60.5466 20.8516L60.4023 21.0385L60.238 21.2095L60.0656 21.3288L59.8592 21.4521L59.4103 21.4879L59.1377 21.3149L59.0695 20.8019L59.0295 20.5553L59.0876 20.2749L59.1016 20.0383L59.1858 19.8077L59.262 19.5233L59.306 19.2629V19.064L59.3662 18.7837L59.4163 18.559L59.4844 18.3303L59.5125 18.0718L59.5946 17.8233L59.5846 17.5528L59.6668 17.3043L59.6407 17.0379L59.6908 16.8132L59.6848 16.5606L59.5666 16.0556L59.4584 15.819L59.4002 15.5744L59.2439 15.3636L59.1477 15.1986L58.9593 15.0117L58.7609 14.8626L58.5224 14.793L58.2779 14.6876L58.0274 14.6558L57.8029 14.6737L57.3199 14.7154L57.1576 14.795L56.9451 14.8844L56.6766 15.0554L56.5403 15.1867L56.3198 15.3318L56.2096 15.5128L55.9711 15.6599L55.8108 15.8488L55.6925 16.0854L55.5663 16.2683L55.446 16.4871L55.3759 16.6978L55.2556 16.9166L55.1654 17.1114L54.9911 17.3202L54.977 17.5568L54.8708 17.7557L54.8227 17.5648L54.8848 17.3023L54.8608 17.0538L54.8808 16.8509L54.9229 16.5726L54.8889 16.3618L54.9189 16.1212L54.8989 15.8886L54.9229 15.6142L54.6804 15.4173L54.476 15.4511L54.2415 15.5068L53.9469 15.5187L53.8547 15.6301L53.6683 15.7275L53.6242 15.988L53.506 16.2246L53.4038 16.4572L53.2975 16.6561L53.1613 16.8947L53.0711 17.0896L52.9508 17.3083L52.8206 17.4733L52.6903 17.6383L52.3255 17.9684L52.1351 18.0897L51.8686 18.1692L51.4437 18.2388L51.0509 17.9764L50.9186 17.7079L50.8324 17.5051L50.644 17.3182L50.5238 17.1214L50.3815 16.8907L50.129 16.7336L49.9666 16.5964L49.7882 16.4632L49.5618 16.3558L49.3052 16.2882L49.0347 16.2425L48.6098 16.2027L48.3312 16.2127L47.8723 16.2862L47.6197 16.3459L47.4193 16.3976L47.1568 16.495L46.9864 16.6322L46.7279 16.7635L46.5716 16.8788L46.4072 17.0498L46.2208 17.189L46.0064 17.3679L45.832 17.5767L45.7398 17.7537L45.5454 17.9485L45.4091 18.1871L45.339 18.3979L45.2147 18.5987L45.0825 18.8552L45.0464 19.06L44.9442 19.2927L44.9161 19.5512L44.864 19.758L44.8159 20.0005L44.7738 20.2789L44.7377 20.4837L44.6616 20.7681V20.9311L44.6576 20.949L44.6035 21.1558L44.4712 21.4123L44.4071 21.6589L44.2828 21.8597L44.2147 22.0883L44.1465 22.317L44.0082 22.5377L43.7878 23.007L43.7196 23.2356L43.5773 23.4404L43.4871 23.6353L43.3328 23.86L43.1945 24.0807L43.1023 24.2597L42.93 24.4863L42.8077 24.7051L42.6775 24.8701L42.451 25.0868L42.3047 25.2558L42.1303 25.4646L41.978 25.5978L41.8437 25.5282L41.9119 25.2996L41.9018 25.0292L41.9359 24.8065L41.96 24.5321L42.0101 24.3074L42.0401 24.0668L42.0542 23.8302L42.1444 23.5259L42.1584 23.2893L42.2265 23.0607L42.2205 22.8081L42.2365 22.5894L42.3287 22.3031V22.0864L42.3688 21.808L42.433 21.5614L42.4269 21.3089L42.4951 21.0802L42.471 20.8317L42.5131 20.5533L42.5753 20.2889L42.6093 20.0662L42.6735 19.8196L42.6975 19.5452L42.7316 19.3225L42.7055 19.0561L42.7697 18.8115L42.8518 18.5629L42.8618 18.3084L42.8558 18.0559L42.92 17.8093L42.954 17.5866L42.7236 17.352L42.4991 17.3699L42.2786 17.4057L42.0101 17.4673L41.7355 17.4932L41.475 17.8253L41.4609 18.0619L41.3487 18.3343L41.3206 18.5928L41.3066 18.8294L41.3166 19.0998L41.1984 19.3364L41.2044 19.5889L41.1623 19.8673L41.1082 20.0741L41.0862 20.3664L41.018 20.5951L40.9879 20.8357L41.028 21.0822L40.9539 21.2731L40.9218 21.2791L40.8196 21.5117L40.7575 21.7742L40.7014 21.9651L40.5711 22.2395L40.4969 22.4323L40.3847 22.7047L40.3166 22.9334L40.1763 23.1362L40.054 23.3549L39.9478 23.5538L39.8636 23.7844L39.6892 23.9932L39.579 24.1742L39.4207 24.3809L39.2844 24.5122L39.086 24.6891L38.8375 24.7667L38.6431 24.8522L38.1981 24.9059L37.9597 24.8363L37.7993 24.6096L37.6931 24.3909L37.5548 23.8699V23.6532L37.5328 23.4206L37.5548 23.1283L37.5648 22.8738L37.5949 22.6332L37.5548 22.3866L37.5889 22.1639L37.647 21.8835L37.629 21.6688L37.6711 21.3904L37.667 21.1558L37.6971 20.9152L37.7352 20.6189L37.7312 20.3843L37.7953 20.1377L37.7893 19.8852L37.8053 19.6645L37.8194 19.4279L37.9116 19.1416L37.8935 18.9268L37.9035 18.6723L37.9316 18.4138L37.9957 18.1673L38.0098 17.9306L38.0238 17.694L38.0859 17.4316L38.134 17.189L38.144 16.9345L38.138 16.6819L38.2162 16.4155L38.1841 16.2226L38.2462 15.9601L38.3044 15.6798L38.3004 15.4452L38.3304 15.2046L38.3465 14.9839L38.4186 14.6836L38.4026 14.4868L38.4106 14.2143L38.4948 13.9837L38.4847 13.7133L38.5629 13.4468L38.5429 13.2142L38.3344 13.0134L38.11 13.0313L37.8775 13.1048L37.623 13.1466L37.3825 13.1685L37.1359 13.4806L37.0878 13.7232L37.0598 13.9817L37.0518 14.2541L37.0097 14.5325L36.9956 14.7691L36.8974 15.0196L36.9035 15.2722L36.8594 15.5326L36.8373 15.8249L36.8273 16.0795L36.7431 16.3101L36.699 16.5706L36.695 16.8609L36.681 17.0975L36.6369 17.358L36.6229 17.5946L36.6149 17.867L36.5507 18.1136L36.4746 18.3979L36.5006 18.6643L36.4585 18.9427L36.4425 19.1634L36.4144 19.4219L36.4044 19.6764L36.3563 19.919L36.2842 20.2193L36.2701 20.4559L36.2561 20.6925L36.2661 20.9629L36.2561 21.2174L36.208 21.46L36.2 21.7324L36.1138 21.9452L36.1258 22.2335V22.3448L36.0898 22.5457L35.9595 22.8201L35.9054 23.0269L35.7711 23.2655L35.6689 23.4981L35.5326 23.7367L35.4765 23.9276L35.3602 24.1821L35.258 24.4147L35.0797 24.6056L34.9253 24.8303L34.781 25.0172L34.6067 25.226L34.4904 25.3712L34.0796 25.6376L33.5765 25.6654L33.4002 25.5501L33.2018 25.401L33.1136 25.1803L32.9633 24.6971L33.0054 24.4187L32.9512 24.1921L32.9953 23.9316L32.9793 23.7347L33.0033 23.4603L33.0134 23.2058L33.0274 22.9692L33.0775 22.7445L33.0915 22.5079L33.1016 22.2534L33.1697 22.0247L33.1577 21.7364L33.2058 21.4938L33.2899 21.2632L33.322 21.0405L33.298 20.7919L33.3661 20.5633L33.3942 20.3048L33.4022 20.0324L33.4383 19.8276L33.5345 19.5591L33.5164 19.3444L33.5405 19.07L33.3661 18.8632L33.1136 18.9228L32.835 18.9308L32.3239 19.0143L32.0955 19.3225L32.0574 19.6188L31.9752 19.8673L31.9472 20.1258L31.9051 20.4042L31.861 20.6647L31.8309 20.9053L31.8229 21.1777L31.7407 21.4262L31.7868 21.7086L31.7247 21.971L31.6966 22.2295L31.6686 22.488L31.6525 22.7087L31.6104 22.9871L31.5603 23.2118L31.5503 23.343L31.4882 23.512L31.3699 23.7486L31.2337 23.9872L31.1355 24.2378L31.0713 24.4824L30.9811 24.6772L30.8489 24.9337L30.7567 25.1127L30.5843 25.3393L30.446 25.5601L30.2817 25.7311L30.1554 25.914L30.0292 26.0969L29.8528 26.1983L29.6484 26.3395L29.1994 26.3753L28.9549 26.1625L28.8227 25.6774L28.8708 25.4348L28.8948 25.1604L28.9229 24.9019L29.005 24.6534L29.0351 24.4128L29.0652 24.1722L29.1493 23.9415L29.1594 23.687L29.2756 23.4325L29.2896 23.1959L29.3197 22.9553L29.3297 22.7008L29.3718 22.4224L29.4239 22.2156L29.3938 21.9313L29.4099 21.7105L29.4199 21.456L29.3518 20.943L29.2596 20.7044L29.1373 20.4897L29.0151 20.2749L28.8547 20.0483L28.6523 19.8812L28.492 19.7619L28.2334 19.6764L28.049 19.6168L27.7424 19.5571L27.564 19.5313L27.0911 19.6267L26.8987 19.7301L26.6521 19.8236L26.4477 19.9648L26.2413 20.088L26.0629 20.2789L25.8765 20.4181L25.7663 20.599L25.626 20.8019L25.4657 20.9908L25.3314 21.2294L25.2212 21.4103L25.151 21.6211L25.0127 21.8418L24.8945 22.0784L24.8444 22.3031L24.7321 22.5755L24.6941 22.7624L24.65 23.0229L24.638 22.7346L24.648 22.4801L24.6139 22.2693L24.6039 21.9989L24.5037 21.4898L24.4636 21.2433L24.3554 21.0067L24.181 20.7999L24.0327 20.6428L23.8343 20.4937L23.6699 20.3406L23.3793 20.2789L23.1869 20.2749L22.6879 20.3187L22.4755 20.4082L22.251 20.5354L22.0746 20.6368L21.8401 20.8019L21.7299 20.9828L21.5014 21.1816L21.3551 21.3507L21.2489 21.5495L21.1267 21.7682L20.9523 21.977L20.834 22.2136L20.7639 22.4244L20.6657 22.6749L20.5635 22.9076L20.5274 23.1124L20.3931 23.351L20.4092 23.1303L20.4031 22.8777L20.4232 22.6749L20.4172 22.4224L20.4252 22.15L20.4452 21.9472L20.4553 21.6927L20.5334 21.4262L20.5294 21.1916L20.2849 20.9788L20.0644 21.0146L19.7899 21.0405L19.5694 21.0763L19.2888 21.3924L19.2608 21.6509L19.2447 21.8716L19.2367 22.144L19.1405 22.4124L19.1205 22.6153L19.0964 22.8897L19.0624 23.1124L19.0884 23.3788L19.0203 23.6075L19.0263 23.86L18.9982 24.1185L18.9401 24.3988L18.904 24.6036L18.8179 25.1425L18.8078 25.397L18.8219 25.5939L18.7637 25.8742L18.7537 26.1287L18.6756 26.3952V26.594L18.6455 26.8525L18.6515 27.105L18.5693 27.3536L18.5894 27.5862L18.5172 27.8885V28.1052L18.4531 28.3498L18.423 28.5904L18.4531 28.8747L18.3669 29.0874L18.6094 29.2843L18.89 29.2922L19.0864 29.2067L19.359 29.163H19.5694L19.832 28.8508L19.846 28.6142L19.9302 28.3836L19.9582 28.1251L20.0204 27.8626L20.0103 27.5922L20.0745 27.3456L20.0845 27.0911L20.1326 26.8485L20.1967 26.604L20.2729 26.3196L20.323 26.0949L20.4052 25.8464L20.3871 25.6316L20.4633 25.3473L20.5114 25.1047L20.6136 24.8721L20.6757 24.6096L20.792 24.3551L20.822 24.1145L20.9102 23.9017L20.9583 23.6592L21.1327 23.4504L21.1687 23.2456L21.3351 22.9831L21.4233 22.7704L21.5014 22.6133L21.6397 22.3926L21.77 22.2275L21.9403 22.0923L22.1448 21.9511L22.277 21.9114L22.6999 21.8239L22.8783 21.9571L23.0967 22.1202L23.197 22.3031L23.2791 22.7962L23.2471 23.0189L23.2912 23.2834L23.2771 23.52L23.3032 23.7864L23.239 24.031L23.2791 24.2775L23.211 24.5062L23.1829 24.7647L23.1669 24.9854L23.1569 25.2399L23.0727 25.4706L23.0627 25.7251L23.0326 25.9657L22.9905 26.2441L22.9545 26.4489L22.9805 26.7153L22.9665 26.9519L22.9324 27.1746L22.8562 27.459V27.6578L22.7961 27.9382L22.746 28.1628L22.7701 28.4114L22.9384 28.5824L23.4755 28.5506L23.9605 28.4174L24.2632 28.133L24.3113 27.8904L24.3393 27.632L24.3874 27.3894L24.3954 27.117L24.4796 26.8863L24.5077 26.6278L24.5177 26.3733L24.5999 26.1248L24.638 25.8285L24.7221 25.5978L24.7802 25.3175L24.8504 25.1067L24.8404 24.8363L24.9045 24.5897L25.0067 24.3571L25.0829 24.0727L25.1871 23.856L25.2693 23.6075L25.3514 23.3589L25.3655 23.1223L25.5378 22.8956L25.622 22.665L25.7062 22.4343L25.8465 22.2315L25.9006 22.0247L26.115 21.8458L26.1912 21.6708L26.3355 21.4839L26.4918 21.3685L26.7163 21.2413L26.9227 21.118L27.3336 21.0703L27.542 21.1637L27.7785 21.3248L27.8566 21.5833L27.9549 22.0744L27.9749 22.3071L27.9308 22.5675L27.8967 22.7902L27.9007 23.0249L27.8045 23.2933L27.7885 23.514L27.7404 23.7566L27.6582 24.0051L27.6422 24.2259L27.6121 24.4664L27.548 24.711L27.5199 24.9695L27.4959 25.2439L27.3917 25.4606L27.4318 25.7072L27.3937 26.0035L27.3997 26.256L27.5099 26.7093L27.5901 26.9857L27.7304 27.1985L27.8727 27.4291L28.0691 27.5604L28.2515 27.7115L28.4419 27.8069L28.7505 27.8825L28.9489 27.9223L29.4019 27.8129L29.6544 27.7532L29.8788 27.626L30.0512 27.5067L30.2837 27.3238L30.43 27.1547L30.6244 26.9599L30.7827 26.7531L30.8729 26.5582L31.0513 26.3673L31.1735 26.1486L31.2577 25.918L31.4301 25.6913L31.5363 25.4925L31.5764 25.3195L31.5804 25.3393L31.6365 25.7828L31.6946 26.0273L31.7628 26.2341L31.9532 26.4389L32.1095 26.6497L32.2438 26.8267L32.4602 26.9718L32.6506 27.0673L32.9232 27.1309L33.1196 27.1528L33.3902 27.2005L33.8812 27.103L34.0435 27.0235L34.3221 26.9062L34.5145 26.8028L34.6788 26.6318L34.8833 26.4906L35.0476 26.3196L35.3502 25.9259L35.4745 25.7251L35.5667 25.5481L35.741 25.3393L35.9515 24.9258L36.0336 24.6772L36.1659 24.4426L36.196 24.5062L36.218 24.9556L36.2822 25.234L36.4365 25.4268L36.5828 25.6754L36.685 25.8762L36.8554 26.0651L37.1219 26.2023L37.3484 26.3097L37.5368 26.3872L37.7733 26.4389L38.0859 26.425L38.5489 26.3673L39.0098 26.2023L39.2143 26.0611L39.3666 25.9279L39.553 25.7887L39.7333 25.6137L39.9137 25.4388L40.0199 25.2399L40.1602 25.0351L40.3045 24.8482L40.4208 24.5937L40.543 24.375L40.5571 24.3471V24.4625L40.509 24.7051L40.4929 24.9258L40.4228 25.1365L40.4468 25.3871L40.3326 25.8583L40.3025 26.0989L40.3366 26.3097L39.9879 26.6378L39.8295 26.7352L39.583 26.8286L39.3145 26.8903L39.1241 27.0116L38.8715 27.0712L38.6611 27.1766L38.4006 27.2919L38.1961 27.4331L37.9897 27.5564L37.8334 27.6717L37.5588 27.8069L37.3945 27.9779L37.2281 28.131L37.0838 28.3179L36.9816 28.5506L36.8353 28.7196L36.7191 28.9741L36.691 29.2326L36.677 29.4692L36.6469 29.7098L36.7231 30.1671L36.8012 30.4256L36.9716 30.6145L37.0658 30.871L37.2682 31.038L37.4466 31.1713L37.6089 31.3085L37.8474 31.3781L38.0719 31.4675L38.3505 31.4576L38.5429 31.4636L39.0259 31.4218L39.2383 31.3323L39.4708 31.2588L39.6612 31.1375L39.8816 30.9923L40.062 30.8173L40.2564 30.6225L40.4067 30.4714L40.5611 30.2467L40.6172 30.0558L40.7675 29.7953L40.8376 29.5845L40.9759 29.3638L41.026 29.1391L41.1222 28.8707L41.2064 28.6401L41.2766 28.4293L41.3206 28.1688L41.3748 27.96L41.505 27.6856L41.5351 27.445L41.5491 27.2084L41.7836 26.8267L42.0562 26.6735L42.2406 26.5165L42.435 26.3216L42.5332 26.1784L42.7857 26.0114L42.93 25.8245L43.0883 25.6177L43.2346 25.4487L43.3729 25.228L43.5533 25.053L43.6715 24.8164L43.7597 24.6036L43.9742 24.4247L44.0223 24.1821L44.1666 23.9952L44.2688 23.7626L44.4612 23.5498L44.5253 23.3032L44.6496 23.1024L44.7317 22.8539L44.8861 22.6292L44.8981 22.5914L44.9241 22.7505L45.0604 22.9453L45.1045 23.2098L45.2949 23.4146L45.343 23.6055L45.5194 23.8302L45.6557 24.025L45.8581 24.1921L46.0204 24.3292L46.283 24.4307L46.4473 24.5838L46.7038 24.6514L46.9123 24.7448L47.1287 24.7826L47.3652 24.8343L47.6638 24.8403L47.9184 24.7985L48.3613 24.7269L48.5998 24.6891L48.8463 24.5957L49.0287 24.5301L49.2151 24.3909L49.5978 24.1662L49.8303 23.9833L50.0147 23.8262L50.3374 23.4484L50.4496 23.2853L50.642 23.0726L50.7603 22.836L50.8525 22.659L50.9366 22.4284L51.0248 22.2156L51.1791 21.9909L51.2072 21.7324L51.2914 21.5018L51.3074 21.2811L51.4036 21.0126L51.3976 20.7601L51.4677 20.5493L51.4277 20.3028L51.4577 20.0622L51.4798 19.7699L51.4216 19.5253L51.5379 19.2708L51.9668 19.2191L52.1291 19.1376L52.4257 19.0342L52.6181 18.9308L52.7785 18.7419L53.013 18.5769L53.1051 18.3999L53.3236 18.2388L53.4418 18.0022L53.506 17.8451L53.4839 18.048L53.3817 18.2806L53.3517 18.5212L53.3978 18.8035L53.3276 19.0143L53.3196 19.2867L53.2855 19.5094L53.2815 19.7997L53.1933 20.0125L53.1853 20.2849L53.1613 20.778L53.0831 21.0444L53.1011 21.2592L53.025 21.5435L53.045 21.7762L52.9829 22.0406L52.9147 22.2693L52.9408 22.5357L52.8566 22.7664L52.8767 22.999L52.8045 23.3013L52.7705 23.524L53.053 23.7506L53.2715 23.6969L53.4759 23.6631L53.7425 23.5836L53.9549 23.6035L54.2295 23.2515L54.2636 23.0288L54.3056 22.7505L54.3878 22.5019L54.4459 22.2216L54.456 21.9671L54.5401 21.7364L54.5682 21.4779L54.6644 21.2095L54.6524 20.9212L54.7686 20.6666L54.7786 20.4121L54.8969 20.1755L54.955 19.8952L54.9911 19.6904L55.1013 19.402L55.1514 19.1774L55.2155 18.9308L55.3518 18.6922L55.3959 18.4317L55.5342 18.211L55.5963 17.9485L55.7406 17.7616L55.8388 17.5111L55.945 17.3122L56.1054 17.1234L56.2236 16.8867L56.3198 16.7257L56.4842 16.5547L56.7106 16.4453L56.867 16.33L57.0974 16.2385L57.4722 16.1789L57.7849 16.2723L57.9332 16.4294L58.1296 16.668L58.1917 17.1472L58.1496 17.4256V17.6423L58.1236 17.9008L58.0735 18.1255L58.0635 18.38L58.0294 18.6027L57.9653 18.8493L57.849 19.1038L57.8049 19.3643L57.7849 19.5671L57.7708 19.8037L57.6987 20.1059L57.6506 20.3485L57.6366 20.5851L57.6265 20.8396L57.6125 21.0763L57.6706 21.3208L57.7047 21.8398L57.825 22.0366L57.9171 22.2752L58.0394 22.49L58.2438 22.6749L58.4262 22.826L58.7208 22.9235L58.8992 22.9493L59.1698 22.997L59.6427 22.9016L59.9093 22.8221L60.2941 22.6153L60.5085 22.4363L60.6689 22.2474L60.8011 22.1003L61.0136 21.9034L61.1178 21.6867L61.236 21.4501L61.4004 21.2791L61.5126 21.0067L61.6369 20.8058L61.7391 20.5732L61.8433 20.3565L61.9455 20.1238L62.0638 19.8872L62.1279 19.6406L62.2141 19.4279L62.3524 19.2072L62.4025 18.9825L62.5327 18.7081L62.6169 18.4774L62.7011 18.2468L62.5788 17.9227L62.5648 17.9386ZM40.0079 28.1072L39.9538 28.314L39.8356 28.5506L39.8215 28.7872L39.6892 29.0437L39.6011 29.2565L39.4608 29.4593L39.3225 29.68L39.1722 29.8311L39.0359 29.9623L38.7573 30.0796L38.2943 30.1373L38.0719 30.0657L37.8915 29.8231L37.8133 29.3479L37.8755 29.0855L37.9637 28.8727L38.136 28.646L38.2823 28.477L38.5409 28.3458L38.7313 28.2245L38.9718 28.0952L39.1421 27.96L39.4247 27.8785L39.6492 27.7513L39.8676 27.6976L40.046 27.8308L40.0039 28.1092L40.0079 28.1072ZM49.9446 20.7621L49.9486 20.9967L49.8524 21.2652L49.7702 21.5137L49.688 21.7622L49.6199 21.9909L49.4756 22.1778L49.3894 22.3906L49.2511 22.6113L49.0387 22.8081L48.9024 22.9394L48.704 23.1163L48.4775 23.2257L48.217 23.341L47.74 23.4186L47.5376 23.3609L47.3392 23.3211L47.0967 23.2336L46.9123 23.0646L46.7419 22.8757L46.5535 22.6888L46.4333 22.492L46.3812 22.2832L46.2749 22.0645L46.2008 21.8239L46.1166 21.3129L46.1467 21.0723L46.0966 20.772L46.1246 20.5135L46.1587 20.2908L46.1727 20.0542L46.1968 19.7798L46.2789 19.5313L46.3611 19.2827L46.5315 19.0382L46.6537 18.8194L46.7098 18.6286L46.8902 18.4536L47.0325 18.2508L47.285 18.0837L47.4374 17.9505L47.7099 17.7974L47.9083 17.7298L48.3873 17.6702L48.5837 17.692L48.8002 17.7298L49.0607 17.8332L49.2391 17.9664L49.3453 18.1851L49.4956 18.3601L49.684 18.547L49.7381 18.7737L49.8303 19.0123L49.9325 19.2131L49.9987 19.7261L50.0087 19.9966L49.9786 20.2372L50.0227 20.5016L49.9446 20.7681V20.7621Z" fill="#D2E9F7"/>
</svg>
