<?xml version="1.0" encoding="utf-8"?>
<!-- Generator: Adobe Illustrator 21.1.0, SVG Export Plug-In . SVG Version: 6.00 Build 0)  -->
<svg version="1.1" id="Lager_4" xmlns="http://www.w3.org/2000/svg" xmlns:xlink="http://www.w3.org/1999/xlink" x="0px" y="0px"
	 viewBox="0 0 339.5 339.5" style="enable-background:new 0 0 339.5 339.5;" xml:space="preserve">
<style type="text/css">
	.st0{fill:#FF7E0B;}
	.st1{fill:#FFB800;}
	.st2{fill:#E45E0E;}
	.st3{fill:#DD68AA;}
	.st4{fill:#006CB0;}
	.st5{fill:#5ECDD1;}
	.st6{fill:#00A0A8;}
	.st7{fill:#FFE771;}
	.st8{fill:#CE4B8C;}
	.st9{fill:#0090D2;}
	.st10{fill:#FFD72B;}
	.st11{fill:#FA640F;}
	.st12{fill:#DF4D9B;}
	.st13{fill:#00AFBA;}
	.st14{fill:#0078C0;}
	.st15{fill:#FFFFFF;}
	.st16{fill:#004673;}
	.st17{fill:#D2E9F7;}
	.st18{fill:#9FDDF1;}
	.st19{fill:#A4DFF2;}
	.st20{fill:#59B7E2;}
	.st21{fill:#50C2E6;}
</style>
<g>
	<g>
		<polygon class="st0" points="204.4,122 269.5,32.3 169.8,51.7 		"/>
		<polygon class="st1" points="169.8,51.7 70,32.4 70,32.4 135.1,122 		"/>
		<polygon class="st2" points="204.7,122.5 281,133.6 282,133.2 269.5,32.4 269.5,32.4 204.4,122 		"/>
		<polygon class="st3" points="282.4,134.1 226.9,188.3 331.2,222.2 331.2,222.2 331.2,222.2 331.2,222.2 331.2,222.1 		"/>
		<polygon class="st4" points="169.8,339.4 169.8,229.9 101.2,266 		"/>
		<polygon class="st5" points="112.6,188.3 8.3,222.2 8.3,222.2 100.2,265 113.3,188.9 		"/>
		<path class="st6" d="M112.6,188.3l-55.5-54.1l-48.8,88l0,0c0,0,0,0,0,0l0,0L112.6,188.3z"/>
		<polygon class="st7" points="134.8,122.5 135.1,122 70,32.4 57.6,133.2 58.6,133.6 		"/>
		<polygon class="st8" points="226.3,188.9 239.3,265 331.2,222.2 226.9,188.3 		"/>
		<polygon class="st9" points="238.3,266 169.8,229.9 169.8,339.4 169.8,339.5 169.8,339.5 169.8,339.5 169.8,339.5 		"/>
		<path class="st10" d="M169.8-0.1L169.8-0.1C132.5-0.1,98,12,70,32.3l0,0l99.8,19.4l0,0V-0.1z"/>
		<path class="st11" d="M269.5,32.4C241.5,12,207.1,0,169.8,0v51.8L269.5,32.4z"/>
		<path class="st12" d="M331.2,117.2l-49.3,16l0.3,0.5l0.5,0.1l-0.3,0.3l48.8,88l0,0l0,0c5.4-16.5,8.3-34.2,8.3-52.5
			C339.5,151.4,336.6,133.8,331.2,117.2z"/>
		<path class="st11" d="M269.5,32.4L282,133.2l0,0l49.3-16C320.1,82.8,298.2,53.2,269.5,32.4z"/>
		<path class="st13" d="M100.2,265L8.3,222.2l0,0l0,0c11.2,34.4,33.1,64,61.7,84.9l30.1-41.5L100.2,265z"/>
		<path class="st14" d="M99.9,266.7l0.2-1.1L70,307c28,20.4,62.5,32.4,99.8,32.4v0L101.2,266L99.9,266.7z"/>
		<path class="st13" d="M57.1,134.1l-0.3-0.3l0.5-0.1l0.3-0.5l0,0l-49.3-16C2.9,133.7,0,151.4,0,169.7c0,18.3,2.9,35.9,8.3,52.4l0,0
			L57.1,134.1z"/>
		<path class="st10" d="M70,32.4L70,32.4C41.3,53.2,19.5,82.8,8.3,117.2l49.3,16L70,32.4z"/>
		<path class="st14" d="M239.6,266.7l-1.3-0.7l-68.5,73.5v0c37.3,0,71.8-12,99.8-32.4l-30.1-41.5L239.6,266.7z"/>
		<path class="st12" d="M331.2,222.2L239.3,265l0.1,0.5l30.1,41.5C298.2,286.2,320.1,256.6,331.2,222.2L331.2,222.2L331.2,222.2z"/>
	</g>
	<circle class="st15" cx="169.9" cy="170.1" r="155"/>
	<circle class="st16" cx="169.9" cy="170.3" r="143.3"/>
	<g>
		<path class="st15" d="M87.8,266c-0.3-0.2-0.4-0.5-0.1-0.9l14-19.2c0.2-0.3,0.5-0.4,0.9-0.1l3.5,2.6c0.3,0.2,0.4,0.5,0.1,0.9
			l-5.2,7.1l10.8-3.4c0.3-0.1,0.6,0,0.8,0.1l4.5,3.3c0.4,0.3,0.4,0.7-0.1,0.8l-12.7,3.4l-0.3,16.3c0,0.5-0.3,0.7-0.7,0.4l-4.4-3.2
			c-0.3-0.2-0.4-0.4-0.3-0.8l0.4-11.3l-2.3,0.5l-4.3,6c-0.2,0.3-0.5,0.4-0.9,0.1L87.8,266z"/>
		<path class="st15" d="M135.5,281.2c-2.3,5.9-7.1,7.9-13.2,5.5c-6-2.4-8.1-7.1-5.8-13l2.2-5.6c2.3-5.8,7.1-7.8,13.1-5.5
			c6,2.4,8.2,7.1,5.9,13L135.5,281.2z M121.9,275.7c-1.2,2.9-0.4,4.9,2.4,6s4.7,0.2,5.9-2.8l2.1-5.4c1.1-2.9,0.4-4.9-2.4-6
			c-2.8-1.1-4.7-0.2-5.9,2.7L121.9,275.7z"/>
		<path class="st15" d="M147.7,293.6c-0.4,0-0.6-0.3-0.6-0.7l2.3-23.7c0-0.4,0.3-0.6,0.7-0.6l4.6,0.5c0.3,0,0.5,0.2,0.7,0.5l3.9,8.8
			c1.2,2.9,2.4,6,3,7.8l0.1,0c0.1-3.2,0.2-6.4,0.5-9.3l0.6-6.2c0-0.4,0.3-0.6,0.7-0.6l4.3,0.4c0.4,0,0.6,0.3,0.5,0.7l-2.3,23.7
			c0,0.4-0.3,0.6-0.7,0.6l-4.6-0.5c-0.3,0-0.5-0.2-0.7-0.5l-3.8-8c-1.3-2.7-2.6-6.4-3.3-8.5l-0.1,0c0,3.2-0.1,6.9-0.4,10l-0.5,5.5
			c0,0.4-0.3,0.6-0.7,0.6L147.7,293.6z"/>
		<path class="st15" d="M194.9,267.4c0.4-0.1,0.6,0.1,0.7,0.5l0.6,3.9c0.1,0.4-0.1,0.6-0.5,0.7l-6.3,1l3,18.9
			c0.1,0.4-0.1,0.7-0.5,0.7l-4.4,0.7c-0.4,0.1-0.6-0.1-0.7-0.5l-3-18.9l-6.3,1c-0.4,0.1-0.7-0.1-0.7-0.5l-0.6-3.9
			c-0.1-0.4,0.1-0.7,0.5-0.7L194.9,267.4z"/>
		<path class="st15" d="M225.9,271.8c2.5,5.8,0.5,10.6-5.4,13.2c-5.9,2.6-10.8,0.7-13.3-5.1l-2.4-5.6c-2.5-5.7-0.5-10.6,5.4-13.1
			c5.9-2.6,10.8-0.7,13.3,5L225.9,271.8z M212.4,277.6c1.3,2.9,3.2,3.8,6,2.6c2.7-1.2,3.5-3.2,2.2-6.1l-2.3-5.4
			c-1.2-2.9-3.2-3.7-5.9-2.5c-2.7,1.2-3.5,3.2-2.2,6.1L212.4,277.6z"/>
		<path class="st15" d="M239.6,243c0.3-0.2,0.6-0.2,0.9,0.1l2.4,3.2c0.2,0.3,0.2,0.6-0.1,0.8l-5.1,3.9l11.7,15.2
			c0.3,0.3,0.2,0.6-0.1,0.9l-3.5,2.7c-0.3,0.2-0.6,0.2-0.9-0.1l-11.7-15.2l-5.1,3.9c-0.3,0.3-0.6,0.2-0.9-0.1l-2.4-3.2
			c-0.3-0.3-0.2-0.6,0.1-0.9L239.6,243z"/>
	</g>
	<g>
		<path class="st15" d="M119.4,88.7c-0.3,0.2-0.6,0.1-0.8-0.1L99.6,72c-0.4-0.3-0.3-0.6,0.1-0.9l4.1-2.4c0.3-0.2,0.6-0.1,0.8,0.1
			l8.8,8c1.7,1.6,3.6,3.5,5.1,5l0.2-0.1c-0.5-2-1.2-4.6-1.7-6.8l-2.5-11.7c-0.1-0.4,0-0.6,0.3-0.8l4.1-2.4c0.5-0.3,0.7-0.1,0.8,0.4
			l4.8,24.8c0.1,0.3-0.1,0.6-0.3,0.8L119.4,88.7z"/>
		<path class="st15" d="M144.4,77.4c0.1,0.4,0,0.7-0.4,0.8l-4.2,1.2c-0.4,0.1-0.7,0-0.8-0.4l-6.6-22.8c-0.1-0.4,0-0.7,0.4-0.8
			l4.2-1.2c0.4-0.1,0.7,0,0.8,0.4L144.4,77.4z"/>
		<path class="st15" d="M154.8,75.6c-0.4,0-0.6-0.2-0.7-0.6l-0.9-23.7c0-0.4,0.2-0.6,0.6-0.7l4.7-0.2c0.3,0,0.6,0.1,0.7,0.4l5,8.2
			c1.6,2.7,3.1,5.6,4,7.3l0.1,0c-0.4-3.2-0.6-6.4-0.7-9.3l-0.2-6.3c0-0.4,0.2-0.6,0.6-0.7l4.3-0.2c0.4,0,0.6,0.2,0.6,0.6l0.9,23.7
			c0,0.4-0.2,0.6-0.6,0.7l-4.7,0.2c-0.3,0-0.6-0.1-0.7-0.4l-4.8-7.4c-1.7-2.5-3.4-6-4.4-8l-0.1,0c0.4,3.2,0.8,6.9,0.9,9.9l0.2,5.5
			c0,0.4-0.2,0.6-0.6,0.7L154.8,75.6z"/>
		<path class="st15" d="M190.4,78.5c-3.5-0.9-5.8-2.6-8-5.6c-0.2-0.3-0.2-0.6,0.1-0.8l3.2-2.7c0.3-0.2,0.6-0.2,0.8,0.1
			c1.7,2,3.5,3.4,5.7,4c2.2,0.6,4,0.2,4.3-1.3c0.4-1.7-1.4-2.8-3.7-3.9c-3.2-1.6-7.9-4.6-6.4-10.1c1.2-4.7,5.9-6,11-4.6
			c3,0.8,5.2,2.1,7.5,4.7c0.3,0.3,0.3,0.6,0,0.9l-3,2.7c-0.3,0.2-0.6,0.2-0.9-0.1c-1.5-1.6-3.3-2.7-5.2-3.2
			c-2.4-0.6-3.6-0.1-3.9,1.2c-0.4,1.5,0.9,2.3,3.6,3.7c4.4,2.4,7.9,5,6.6,10C200.8,78.2,196.3,80.1,190.4,78.5z"/>
		<path class="st15" d="M234.2,70.7c0.3,0.2,0.4,0.5,0.2,0.8l-2,3.4c-0.2,0.3-0.5,0.4-0.8,0.2l-5.5-3.2l-9.7,16.6
			c-0.2,0.4-0.5,0.4-0.8,0.2l-3.8-2.2c-0.3-0.2-0.4-0.5-0.2-0.8l9.7-16.6l-5.5-3.2c-0.4-0.2-0.4-0.5-0.2-0.8l2-3.4
			c0.2-0.4,0.5-0.4,0.9-0.2L234.2,70.7z"/>
		<path class="st15" d="M232,90.6c-0.3-0.3-0.3-0.6,0-0.9l2.4-2.6c0.3-0.3,0.6-0.3,0.9,0l6.5,6c0.3,0.3,0.3,0.6,0,0.9l-2.4,2.6
			c-0.3,0.3-0.6,0.3-0.9,0L232,90.6z"/>
	</g>
	<g id="XMLID_33_">
		<g id="XMLID_64_">
			<polygon class="st17" points="228.8,115.9 189.6,115.9 150.4,115.9 111.2,115.9 91.7,149.8 170,238.9 248.4,149.8 			"/>
		</g>
		<g id="XMLID_63_">
			<polygon class="st18" points="130.8,149.8 111.2,115.9 93.3,150.1 			"/>
		</g>
		<g id="XMLID_62_">
			<polygon class="st18" points="169.4,148.8 150.4,115.9 131.5,148.7 			"/>
		</g>
		<g id="XMLID_61_">
			<polygon class="st18" points="209.5,149.8 189.1,117.1 171.8,150.1 			"/>
		</g>
		<g id="XMLID_60_">
			<polygon class="st19" points="170,149.8 170,233 208.3,149.8 			"/>
		</g>
		<g id="XMLID_59_">
			<polygon class="st20" points="93.3,149.8 93.3,150.7 168.2,234.9 129.1,149.8 			"/>
		</g>
		<g id="XMLID_58_">
			<polygon class="st20" points="245.3,149.8 245.3,150.7 170.4,234.9 209.5,149.8 			"/>
		</g>
		<g id="XMLID_56_">
			<path id="XMLID_57_" class="st14" d="M167.7,243.8l-80.6-91.7c-0.9-1-1-2.4-0.4-3.6l20.8-36c0.6-1,1.6-1.5,2.7-1.5h83.5
				c1.7,0,3.1,1.4,3.1,3.1v3.7c0,1.7-1.4,3.1-3.1,3.1h-77.8c-1.1,0-2.1,0.6-2.7,1.5l-14.4,24.9c-0.7,1.2-0.5,2.6,0.4,3.6l68.5,77.9
				c1.2,1.4,3.4,1.4,4.7,0l68.5-77.9c0.9-1,1-2.4,0.4-3.6l-14.4-24.9c-0.6-1-1.6-1.5-2.7-1.5l0,0c-1.7,0-3.1-1.4-3.1-3.1v-3.7
				c0-1.7,1.4-3.1,3.1-3.1h5.7c1.1,0,2.1,0.6,2.7,1.5l20.8,36c0.7,1.2,0.5,2.6-0.4,3.6l-80.6,91.7
				C171.1,245.2,168.9,245.2,167.7,243.8z"/>
		</g>
		<g id="XMLID_54_">
			<path id="XMLID_55_" class="st14" d="M212.9,120.8h-9.1c-1,0-1.8-0.8-1.8-1.8v-6.2c0-1,0.8-1.8,1.8-1.8h9.1c1,0,1.8,0.8,1.8,1.8
				v6.2C214.7,120,213.9,120.8,212.9,120.8z"/>
		</g>
		<g id="XMLID_52_">
			<rect id="XMLID_53_" x="91.7" y="144.9" class="st14" width="156.7" height="9.9"/>
		</g>
		<g id="XMLID_50_">
			
				<rect id="XMLID_51_" x="145.5" y="145.7" transform="matrix(0.9155 -0.4024 0.4024 0.9155 -65.5039 76.9676)" class="st14" width="9.9" height="97.3"/>
		</g>
		<g id="XMLID_48_">
			
				<rect id="XMLID_49_" x="140.9" y="187.4" transform="matrix(0.4024 -0.9155 0.9155 0.4024 -62.7823 288.5199)" class="st14" width="97.3" height="9.9"/>
		</g>
		<g id="XMLID_46_">
			<rect id="XMLID_47_" x="165.1" y="149.8" class="st14" width="9.9" height="87.1"/>
		</g>
		<g id="XMLID_44_">
			
				<rect id="XMLID_45_" x="116.1" y="113.3" transform="matrix(0.866 -0.5001 0.5001 0.866 -50.2165 78.3337)" class="st14" width="9.9" height="39.2"/>
		</g>
		<g id="XMLID_42_">
			
				<rect id="XMLID_43_" x="155.3" y="113.3" transform="matrix(0.866 -0.5001 0.5001 0.866 -44.9669 97.928)" class="st14" width="9.9" height="39.2"/>
		</g>
		<g id="XMLID_40_">
			
				<rect id="XMLID_41_" x="194.5" y="113.3" transform="matrix(0.866 -0.5001 0.5001 0.866 -39.7168 117.5181)" class="st14" width="9.9" height="39.2"/>
		</g>
		<g id="XMLID_38_">
			
				<rect id="XMLID_39_" x="199.4" y="127.9" transform="matrix(0.5001 -0.866 0.866 0.5001 -5.5798 256.0528)" class="st14" width="39.2" height="9.9"/>
		</g>
		<g id="XMLID_36_">
			
				<rect id="XMLID_37_" x="160.2" y="127.9" transform="matrix(0.5001 -0.866 0.866 0.5001 -25.1627 222.1311)" class="st14" width="39.2" height="9.9"/>
		</g>
		<g id="XMLID_34_">
			
				<rect id="XMLID_35_" x="121" y="127.9" transform="matrix(0.5001 -0.866 0.866 0.5001 -44.7473 188.2064)" class="st14" width="39.2" height="9.9"/>
		</g>
	</g>
	<polygon class="st21" points="220,206.2 222.8,212.1 229.2,213.1 224.5,217.6 225.5,224.1 219.8,221 214,224 215.2,217.5 
		210.5,212.9 217,212.1 	"/>
	<polygon class="st21" points="258.6,186.9 261.4,192.8 267.8,193.8 263.1,198.4 264.1,204.8 258.4,201.7 252.6,204.7 253.8,198.3 
		249.1,193.6 255.6,192.8 	"/>
	<polygon class="st21" points="297,174.8 298.9,178.7 303.2,179.4 300,182.3 300.7,186.6 296.9,184.5 293.1,186.5 293.9,182.3 
		290.8,179.2 295.1,178.7 	"/>
	<polygon class="st21" points="50,121 51.9,124.9 56.1,125.6 53,128.6 53.7,132.8 49.9,130.8 46.1,132.7 46.8,128.5 43.8,125.4 
		48.1,124.9 	"/>
	<polygon class="st21" points="267.9,139.9 269.3,142.6 272.3,143.1 270.1,145.2 270.6,148.2 267.9,146.8 265.2,148.2 265.7,145.1 
		263.5,143 266.6,142.6 	"/>
	<polygon class="st21" points="65.1,143.1 66.4,145.8 69.4,146.3 67.2,148.4 67.7,151.4 65,150 62.3,151.4 62.8,148.4 60.7,146.2 
		63.7,145.8 	"/>
	<polygon class="st21" points="74.2,109 77.1,114.9 83.5,115.9 78.8,120.4 79.8,126.9 74.1,123.8 68.3,126.8 69.4,120.3 64.8,115.7 
		71.3,114.9 	"/>
</g>
</svg>
