<svg id="Lager_4" data-name="Lager 4" xmlns="http://www.w3.org/2000/svg" viewBox="0 0 338.607 338.607"><defs><style>.cls-1{fill:#003d50;}.cls-2{fill:#fff;}.cls-3{fill:#004673;}.cls-4{fill:#d2e9f7;}.cls-5{fill:#9fddf1;}.cls-6{fill:#a4dff2;}.cls-7{fill:#59b7e2;}.cls-8{fill:#0078c0;}.cls-9{fill:#50c2e6;}</style></defs><circle class="cls-1" cx="169.303" cy="169.303" r="169.303"/><circle class="cls-2" cx="169.213" cy="169.381" r="154.968"/><circle class="cls-3" cx="169.213" cy="169.563" r="143.334"/><path class="cls-2" d="M87.042,265.291a.556.556,0,0,1-.139-.879l13.971-19.225a.557.557,0,0,1,.88-.141l3.539,2.572a.558.558,0,0,1,.139.881l-5.185,7.135,10.766-3.383a.927.927,0,0,1,.849.141l4.474,3.252c.425.308.381.666-.12.821l-12.748,3.371-.307,16.26c.029.5-.319.677-.743.369L98.057,273.3a.825.825,0,0,1-.348-.772l.369-11.284-2.275.51-4.341,5.975a.557.557,0,0,1-.881.138Z"/><path class="cls-2" d="M134.8,280.429c-2.31,5.86-7.129,7.873-13.152,5.5-5.991-2.363-8.139-7.122-5.828-12.983l2.22-5.632c2.3-5.828,7.116-7.839,13.107-5.478,6.023,2.374,8.172,7.133,5.874,12.961Zm-13.6-5.476c-1.155,2.93-.365,4.935,2.4,6.026s4.713.165,5.868-2.766l2.144-5.437c1.142-2.9.353-4.9-2.415-5.993s-4.713-.165-5.855,2.733Z"/><path class="cls-2" d="M147,292.914a.556.556,0,0,1-.566-.688l2.3-23.653a.556.556,0,0,1,.688-.565l4.633.45a.735.735,0,0,1,.656.485l3.858,8.781c1.227,2.931,2.373,5.962,3,7.816l.108-.024c.064-3.195.236-6.412.521-9.338l.607-6.236a.557.557,0,0,1,.688-.566l4.319.421a.546.546,0,0,1,.531.684l-2.3,23.652a.547.547,0,0,1-.654.57l-4.633-.451a.822.822,0,0,1-.691-.488l-3.795-7.965a67.435,67.435,0,0,1-3.252-8.51l-.108.025c0,3.235-.11,6.916-.408,9.982l-.532,5.469a.546.546,0,0,1-.653.569Z"/><path class="cls-2" d="M194.179,266.642a.547.547,0,0,1,.688.527l.629,3.941a.536.536,0,0,1-.493.682l-6.327,1.011,3.027,18.941a.548.548,0,0,1-.489.716l-4.355.7a.547.547,0,0,1-.687-.529l-3.025-18.941-6.326,1.009a.545.545,0,0,1-.716-.488l-.629-3.939a.557.557,0,0,1,.523-.722Z"/><path class="cls-2" d="M225.181,271.1c2.507,5.782.519,10.612-5.423,13.188-5.91,2.563-10.794.712-13.3-5.069l-2.409-5.557c-2.493-5.749-.5-10.579,5.406-13.141,5.941-2.577,10.826-.726,13.319,5.022Zm-13.5,5.739c1.254,2.891,3.23,3.751,5.959,2.567s3.452-3.214,2.2-6.1l-2.326-5.364c-1.239-2.859-3.215-3.719-5.945-2.536s-3.452,3.214-2.213,6.073Z"/><path class="cls-2" d="M238.925,242.3a.546.546,0,0,1,.856.135l2.441,3.156a.536.536,0,0,1-.106.835l-5.069,3.919,11.735,15.177a.546.546,0,0,1-.086.863l-3.489,2.7a.547.547,0,0,1-.857-.134l-11.734-15.176-5.067,3.918a.548.548,0,0,1-.864-.085l-2.44-3.158a.555.555,0,0,1,.112-.883Z"/><path class="cls-2" d="M118.633,87.958a.672.672,0,0,1-.821-.094L98.85,71.26c-.378-.309-.348-.608.077-.852l4.13-2.368a.667.667,0,0,1,.838.125l8.829,8.011c1.722,1.595,3.635,3.523,5.065,4.963l.152-.087c-.519-1.962-1.2-4.557-1.707-6.849l-2.5-11.679a.653.653,0,0,1,.346-.8l4.1-2.351c.456-.261.7-.118.774.363L123.7,84.486a.672.672,0,0,1-.334.756Z"/><path class="cls-2" d="M143.649,76.683a.558.558,0,0,1-.431.78l-4.2,1.213a.558.558,0,0,1-.78-.431L131.645,55.41a.556.556,0,0,1,.43-.78l4.2-1.213a.556.556,0,0,1,.78.431Z"/><path class="cls-2" d="M154.045,74.871a.556.556,0,0,1-.653-.606l-.87-23.746a.557.557,0,0,1,.606-.654l4.651-.17a.736.736,0,0,1,.715.394l4.993,8.187c1.606,2.743,3.146,5.593,4.017,7.347l.1-.039c-.361-3.174-.619-6.386-.727-9.323L166.651,50a.556.556,0,0,1,.606-.652l4.337-.159c.384-.014.6.188.618.608l.87,23.746c.014.42-.187.638-.572.651l-4.651.171a.822.822,0,0,1-.75-.392l-4.823-7.388a67.374,67.374,0,0,1-4.356-8l-.1.038c.433,3.206.812,6.869.925,9.947l.2,5.492a.546.546,0,0,1-.571.651Z"/><path class="cls-2" d="M189.665,77.8a13.482,13.482,0,0,1-8.045-5.64.556.556,0,0,1,.076-.847l3.159-2.687a.529.529,0,0,1,.839.11,11.427,11.427,0,0,0,5.693,3.978c2.2.573,3.954.233,4.342-1.257.442-1.693-1.433-2.832-3.656-3.882-3.235-1.6-7.885-4.585-6.447-10.106,1.226-4.708,5.857-5.962,11.006-4.621a14.285,14.285,0,0,1,7.518,4.742c.312.334.275.614-.042.857l-3.015,2.688a.6.6,0,0,1-.891-.052,10.921,10.921,0,0,0-5.182-3.157c-2.439-.635-3.565-.061-3.883,1.159-.388,1.49.929,2.268,3.632,3.694,4.434,2.421,7.9,4.951,6.593,9.964C200.128,77.484,195.627,79.351,189.665,77.8Z"/><path class="cls-2" d="M233.457,69.924a.547.547,0,0,1,.2.845l-2.009,3.447a.536.536,0,0,1-.814.215L225.3,71.205l-9.659,16.573a.546.546,0,0,1-.831.245L211,85.8a.547.547,0,0,1-.2-.844l9.658-16.573-5.535-3.226a.547.547,0,0,1-.245-.831l2.01-3.448a.557.557,0,0,1,.862-.227Z"/><path class="cls-2" d="M231.246,89.876a.557.557,0,0,1-.036-.891l2.373-2.572a.557.557,0,0,1,.89-.036l6.534,6.026a.558.558,0,0,1,.037.891l-2.373,2.572a.557.557,0,0,1-.891.036Z"/><polygon class="cls-4" points="228.06 115.163 188.885 115.163 149.707 115.163 110.531 115.163 90.946 149.091 169.292 238.203 247.646 149.091 228.06 115.163"/><polygon class="cls-5" points="130.123 149.091 110.531 115.163 92.625 149.332 130.123 149.091"/><polygon class="cls-5" points="168.692 148.04 149.707 115.163 130.758 147.985 168.692 148.04"/><polygon class="cls-5" points="208.775 149.091 188.432 116.317 171.13 149.332 208.775 149.091"/><polygon class="cls-6" points="169.292 149.091 169.292 232.266 207.571 149.091 169.292 149.091"/><polygon class="cls-7" points="92.625 149.091 92.625 149.917 167.508 234.144 128.386 149.091 92.625 149.091"/><polygon class="cls-7" points="244.537 149.091 244.537 149.917 169.654 234.144 208.775 149.091 244.537 149.091"/><path class="cls-8" d="M166.967,243.017l-80.59-91.662a3.1,3.1,0,0,1-.356-3.594l20.769-35.979a3.1,3.1,0,0,1,2.683-1.55h83.508a3.1,3.1,0,0,1,3.1,3.1v3.661a3.1,3.1,0,0,1-3.1,3.1H115.165a3.1,3.1,0,0,0-2.683,1.55L98.091,146.567a3.1,3.1,0,0,0,.357,3.595l68.519,77.928a3.1,3.1,0,0,0,4.653,0l68.522-77.928a3.1,3.1,0,0,0,.357-3.595l-14.39-24.928a3.1,3.1,0,0,0-2.684-1.55h0a3.1,3.1,0,0,1-3.1-3.1V113.33a3.1,3.1,0,0,1,3.1-3.1h5.692a3.1,3.1,0,0,1,2.684,1.55l20.769,35.979a3.1,3.1,0,0,1-.357,3.594L171.62,243.017A3.1,3.1,0,0,1,166.967,243.017Z"/><path class="cls-8" d="M220.98,120.089H189.385c-3.468,0-6.28-.813-6.28-1.816v-6.225c0-1,2.812-1.816,6.28-1.816h31.6c3.469,0,6.281.813,6.281,1.816v6.225C227.261,119.276,224.449,120.089,220.98,120.089Z"/><rect class="cls-8" x="90.944" y="144.161" width="156.701" height="9.857"/><rect class="cls-8" x="144.78" y="144.974" width="9.856" height="97.341" transform="translate(-65.269 76.617) rotate(-23.729)"/><rect class="cls-8" x="140.209" y="186.686" width="97.345" height="9.856" transform="translate(-62.539 287.424) rotate(-66.272)"/><rect class="cls-8" x="164.365" y="149.089" width="9.857" height="87.083"/><rect class="cls-8" x="115.398" y="112.535" width="9.856" height="39.179" transform="translate(-49.946 77.876) rotate(-30.004)"/><rect class="cls-8" x="154.576" y="112.535" width="9.856" height="39.179" transform="translate(-44.696 97.471) rotate(-30.005)"/><rect class="cls-8" x="193.75" y="112.535" width="9.856" height="39.179" transform="translate(-39.446 117.061) rotate(-30.005)"/><rect class="cls-8" x="198.671" y="127.197" width="39.179" height="9.856" transform="matrix(0.5, -0.866, 0.866, 0.5, -5.303, 255.064)"/><rect class="cls-8" x="159.5" y="127.197" width="39.179" height="9.856" transform="matrix(0.5, -0.866, 0.866, 0.5, -24.886, 221.142)"/><rect class="cls-8" x="120.326" y="127.197" width="39.179" height="9.856" transform="translate(-44.47 187.218) rotate(-59.995)"/><polygon class="cls-9" points="219.232 205.504 222.06 211.391 228.512 212.4 223.787 216.908 224.822 223.356 219.074 220.255 213.261 223.232 214.434 216.807 209.807 212.199 216.279 211.329 219.232 205.504"/><polygon class="cls-9" points="257.842 186.215 260.669 192.102 267.121 193.11 262.396 197.618 263.431 204.067 257.683 200.966 251.87 203.942 253.043 197.518 248.416 192.909 254.889 192.04 257.842 186.215"/><polygon class="cls-9" points="296.303 174.069 298.171 177.958 302.433 178.624 299.311 181.602 299.995 185.861 296.198 183.813 292.358 185.779 293.133 181.536 290.077 178.491 294.352 177.917 296.303 174.069"/><polygon class="cls-9" points="49.292 120.285 51.16 124.173 55.422 124.84 52.301 127.817 52.984 132.077 49.188 130.029 45.348 131.995 46.123 127.751 43.066 124.707 47.342 124.132 49.292 120.285"/><polygon class="cls-9" points="267.227 139.123 268.55 141.878 271.57 142.349 269.359 144.459 269.843 147.476 267.153 146.025 264.433 147.418 264.982 144.412 262.817 142.255 265.845 141.848 267.227 139.123"/><polygon class="cls-9" points="64.364 142.328 65.687 145.082 68.706 145.554 66.495 147.664 66.979 150.681 64.289 149.23 61.569 150.623 62.118 147.617 59.953 145.46 62.982 145.053 64.364 142.328"/><polygon class="cls-9" points="73.521 108.292 76.348 114.179 82.801 115.188 78.075 119.696 79.11 126.144 73.362 123.043 67.55 126.02 68.723 119.595 64.095 114.987 70.568 114.117 73.521 108.292"/></svg>