<svg id="Lager_4" data-name="Lager 4" xmlns="http://www.w3.org/2000/svg" viewBox="0 0 338.607 338.607"><defs><style>.cls-1{fill:#003d50;}.cls-2{fill:#fff;}.cls-3{fill:#004673;}.cls-4{fill:#50c2e6;}.cls-5{fill:#9fddf1;}.cls-6{fill:#0078c0;}.cls-7{fill:#d2e9f7;}.cls-8{fill:#85bee1;}.cls-9{fill:#9ecfef;}</style></defs><circle class="cls-1" cx="169.303" cy="169.303" r="169.303"/><circle class="cls-2" cx="169.213" cy="169.381" r="154.968"/><circle class="cls-3" cx="169.213" cy="169.563" r="143.334"/><polygon class="cls-4" points="83.761 75.536 86.588 81.423 93.041 82.432 88.315 86.94 89.35 93.388 83.603 90.287 77.79 93.264 78.963 86.839 74.335 82.231 80.808 81.361 83.761 75.536"/><polygon class="cls-4" points="255.779 78.789 258.606 84.676 265.058 85.684 260.333 90.192 261.368 96.641 255.62 93.54 249.807 96.516 250.981 90.092 246.353 85.483 252.826 84.614 255.779 78.789"/><polygon class="cls-4" points="99.786 96.287 101.654 100.175 105.916 100.842 102.795 103.819 103.478 108.079 99.682 106.031 95.842 107.997 96.617 103.753 93.56 100.709 97.836 100.134 99.786 96.287"/><polygon class="cls-4" points="246.762 107.954 248.63 111.843 252.892 112.509 249.771 115.487 250.454 119.747 246.658 117.698 242.818 119.664 243.593 115.421 240.536 112.376 244.812 111.802 246.762 107.954"/><polygon class="cls-4" points="277.847 113.485 279.715 117.374 283.977 118.04 280.856 121.018 281.539 125.278 277.743 123.229 273.903 125.196 274.678 120.952 271.621 117.908 275.897 117.333 277.847 113.485"/><polygon class="cls-4" points="72.948 189.094 75.755 194.938 82.16 195.939 77.469 200.414 78.496 206.815 72.791 203.737 67.021 206.692 68.185 200.314 63.592 195.74 70.017 194.876 72.948 189.094"/><polygon class="cls-4" points="266.73 140.476 268.053 143.231 271.072 143.703 268.861 145.812 269.345 148.83 266.656 147.379 263.935 148.772 264.484 145.765 262.319 143.609 265.348 143.202 266.73 140.476"/><polygon class="cls-4" points="60.85 215.795 62.173 218.55 65.193 219.022 62.982 221.132 63.466 224.149 60.776 222.698 58.056 224.091 58.605 221.085 56.44 218.928 59.469 218.521 60.85 215.795"/><polygon class="cls-4" points="68.117 106.527 69.878 110.193 73.896 110.821 70.953 113.629 71.598 117.644 68.018 115.713 64.398 117.567 65.129 113.566 62.247 110.696 66.278 110.155 68.117 106.527"/><path class="cls-2" d="M97.964,239.943c4.02,3.861,4.168,8.78.331,12.774-3.862,4.018-8.782,4.067-12.8.206l-3.124-3L77.7,254.786a.554.554,0,0,1-.878.043l-3.226-3.1a.554.554,0,0,1,.008-.878l16.7-17.384a.553.553,0,0,1,.877-.043ZM88.6,248.567c1.921,1.844,3.754,1.882,5.476.091s1.61-3.623-.311-5.467l-2.56-2.46-5.164,5.376Z"/><path class="cls-2" d="M98.259,272.515a.565.565,0,0,1-.227-.875l12.218-20.787a.565.565,0,0,1,.875-.227l3.857,2.267a.555.555,0,0,1,.2.857l-9.861,16.776,8.358,4.912a.545.545,0,0,1,.214.828l-2.051,3.489a.555.555,0,0,1-.845.245Z"/><path class="cls-2" d="M121.527,284.931c-.477-.144-.576-.432-.274-.824L136.06,263.3a.711.711,0,0,1,.789-.282l5.17,1.543a.68.68,0,0,1,.5.669l.977,25.522c.038.493-.169.689-.68.537l-4.523-1.35a.7.7,0,0,1-.562-.723l-.02-4.527-8.266-2.466-2.531,3.763a.688.688,0,0,1-.833.308Zm16.062-15.212c-1.385,2.031-3.521,5.468-5.334,8.188l5.476,1.635c-.1-3.254-.04-7.312-.006-9.783Zm2.278-7.138c-2.891-.861-4.322-3.142-3.561-5.692s3.2-3.64,6.09-2.778c2.756.824,4.211,3.148,3.469,5.631C145.094,262.326,142.623,263.4,139.867,262.581Zm.8-2.686a1.549,1.549,0,0,0,2.1-1.077,1.533,1.533,0,0,0-1.186-1.985,1.61,1.61,0,1,0-.914,3.062Z"/><path class="cls-2" d="M157.616,293.321a.565.565,0,0,1-.628-.65l.433-24.1a.565.565,0,0,1,.65-.628l4.721.085a.747.747,0,0,1,.7.439l4.6,8.57c1.476,2.867,2.878,5.84,3.662,7.665l.108-.034c-.191-3.235-.275-6.5-.221-9.485l.113-6.354a.566.566,0,0,1,.651-.629l4.4.079a.556.556,0,0,1,.592.651l-.432,24.1c-.008.426-.224.635-.615.627l-4.722-.084a.833.833,0,0,1-.737-.438l-4.477-7.75a68.406,68.406,0,0,1-3.969-8.346l-.108.033c.261,3.272.443,7,.386,10.128l-.1,5.573c-.008.426-.225.636-.616.629Z"/><path class="cls-2" d="M204.709,274.7c2.507.348,4.119,1.916,4.814,4.633,1.223,4.782-1.083,8.377-6.484,9.759l-9.46,2.42a.566.566,0,0,1-.779-.46l-5.975-23.36a.565.565,0,0,1,.461-.778l9.392-2.4c4.712-1.206,8.108.6,9.243,5.038A5.018,5.018,0,0,1,204.709,274.7Zm-7.565-5.213-3.715.95,1.232,4.818,3.716-.95c1.616-.414,2.394-1.384,1.964-3.069C199.926,269.623,198.761,269.078,197.144,269.491Zm4.3,14.808c1.893-.485,2.911-1.661,2.392-3.691-.422-1.651-1.642-2.548-3.982-1.95L195.8,279.7l1.452,5.676Z"/><path class="cls-2" d="M237.663,263.1c3.157,5.556,1.679,10.644-4.03,13.891-5.681,3.229-10.809,1.9-13.967-3.661l-3.035-5.34c-3.141-5.526-1.665-10.613,4.016-13.842,5.711-3.246,10.839-1.914,13.981,3.613Zm-12.987,7.259c1.579,2.78,3.665,3.431,6.29,1.94s3.13-3.618,1.55-6.4l-2.929-5.155c-1.563-2.746-3.649-3.4-6.272-1.907s-3.132,3.616-1.57,6.364Z"/><path class="cls-2" d="M254.8,261.755a.564.564,0,0,1-.9,0l-16.95-17.138a.565.565,0,0,1,.005-.9l3.154-3.121a.565.565,0,0,1,.9.006l6.29,6.361-1.619-11.331a.943.943,0,0,1,.281-.827l3.988-3.945c.379-.374.73-.272.8.255l1.281,13.313,16.226,2.976c.5.053.625.43.247.8l-3.886,3.844a.838.838,0,0,1-.831.222l-11.234-2.221.138,2.36,5.268,5.326a.566.566,0,0,1-.006.9Z"/><path class="cls-2" d="M128.511,84.6a13.671,13.671,0,0,1-9.906,1.095.563.563,0,0,1-.509-.7l.606-4.162a.536.536,0,0,1,.713-.478,11.588,11.588,0,0,0,7-.784c2.061-1.039,3.168-2.472,2.465-3.867-.8-1.585-2.989-1.2-5.384-.507-3.538.948-9.076,1.791-11.681-3.377-2.221-4.407.466-8.464,5.284-10.893A14.507,14.507,0,0,1,126,59.5c.46.046.619.284.541.681l-.495,4.066a.6.6,0,0,1-.713.558,11.084,11.084,0,0,0-6.062,1.067c-2.283,1.151-2.756,2.343-2.18,3.485.7,1.395,2.226,1.1,5.241.38,5-1.127,9.331-1.522,11.7,3.171C136.267,77.347,134.091,81.784,128.511,84.6Z"/><path class="cls-2" d="M148.854,50.783c5.471-1.068,9.579,1.639,10.641,7.075,1.067,5.469-1.722,9.523-7.192,10.59l-4.25.83,1.291,6.62a.554.554,0,0,1-.47.743l-4.39.857a.554.554,0,0,1-.715-.512l-4.617-23.658a.554.554,0,0,1,.469-.743Zm1.668,12.624c2.615-.511,3.7-1.988,3.224-4.428s-2.038-3.4-4.651-2.89l-3.485.681,1.429,7.316Z"/><path class="cls-2" d="M174.9,69.138l10.523.7c.424.028.623.254.6.644l-.257,3.9a.564.564,0,0,1-.68.595l-15.588-1.035a.566.566,0,0,1-.6-.679l1.6-24.055a.565.565,0,0,1,.681-.595l15.02,1a.567.567,0,0,1,.6.681l-.26,3.9a.554.554,0,0,1-.677.56l-9.955-.662-.322,4.854,8.785.584c.426.028.625.254.6.644l-.255,3.826a.555.555,0,0,1-.678.56l-8.785-.583Z"/><path class="cls-2" d="M195,77.262a.565.565,0,0,1-.4-.812l7.887-22.786a.565.565,0,0,1,.813-.4l4.227,1.464a.555.555,0,0,1,.363.8L201.53,73.923l9.161,3.171a.544.544,0,0,1,.373.768l-1.324,3.825a.554.554,0,0,1-.779.407Z"/><path class="cls-2" d="M219.493,74.234a.565.565,0,0,1-.231-.874l1.789-3.066a.564.564,0,0,1,.873-.231l7.79,4.544a.564.564,0,0,1,.23.873l-1.789,3.067a.564.564,0,0,1-.873.23Z"/><path class="cls-5" d="M104.969,131.614c1.313-.34,76.465-40.507,76.465-40.507s9.625-5.021,13.848,3.69,6.132,12.821,6.132,12.821Z"/><path class="cls-6" d="M105.935,135.5l-1.972-7.753a2.79,2.79,0,0,0-.482.162c2.617-1.156,46.924-24.749,76.068-40.325.66-.345,6.3-3.15,11.982-1.272a12.573,12.573,0,0,1,7.351,6.744c4.189,8.642,6.141,12.841,6.16,12.882l2.039,4.4Zm81.582-41.829a10.272,10.272,0,0,0-4.257,1c-20.748,11.09-35.89,19.158-46.946,25.028l59.4-14.779c-.978-2.053-2.314-4.837-4.028-8.373a4.489,4.489,0,0,0-2.637-2.629A5.045,5.045,0,0,0,187.517,93.667Z"/><path class="cls-7" d="M134.419,124.261c1.355.05,72.464-18.348,72.464-18.348s10.66-2.05,12.208,7.506,2.2,14.041,2.2,14.041Z"/><path class="cls-6" d="M225.933,131.634l-91.661-3.375.294-7.995a2.7,2.7,0,0,0-.633.031c2.834-.468,44.579-11.173,71.947-18.254l.247-.056c.692-.133,6.9-1.2,11.8,2.226a12.566,12.566,0,0,1,5.108,8.568c1.536,9.48,2.2,14.064,2.207,14.109Zm-62.88-10.321,53.555,1.972c-.349-2.252-.832-5.318-1.465-9.226a4.484,4.484,0,0,0-1.795-3.291c-1.812-1.266-4.739-1.086-5.612-.944C187.954,114.942,173.556,118.64,163.053,121.313Z"/><path class="cls-8" d="M232.636,192.139v26.218a7.021,7.021,0,0,1-7,7H106.807a7.021,7.021,0,0,1-7-7v-87.1a7.021,7.021,0,0,1,7-7H225.636a7.021,7.021,0,0,1,7,7v23.5"/><path class="cls-6" d="M225.636,229.358H106.807a11.013,11.013,0,0,1-11-11v-87.1a11.013,11.013,0,0,1,11-11H225.636a11.012,11.012,0,0,1,11,11v23.5h-8v-23.5a3,3,0,0,0-3-3H106.807a3,3,0,0,0-3,3v87.1a3,3,0,0,0,3,3H225.636a3,3,0,0,0,3-3V192.139h8v26.219A11.012,11.012,0,0,1,225.636,229.358Z"/><rect class="cls-9" x="195.615" y="156.299" width="49.124" height="37.021" rx="7"/><path class="cls-6" d="M237.739,197.32H202.615a11.012,11.012,0,0,1-11-11V163.3a11.012,11.012,0,0,1,11-11h35.124a11.012,11.012,0,0,1,11,11V186.32A11.013,11.013,0,0,1,237.739,197.32ZM202.615,160.3a3,3,0,0,0-3,3V186.32a3,3,0,0,0,3,3h35.124a3,3,0,0,0,3-3V163.3a3,3,0,0,0-3-3Z"/><circle class="cls-6" cx="210.185" cy="174.809" r="5.689"/></svg>