<?xml version="1.0" encoding="utf-8"?>
<!-- Generator: Adobe Illustrator 21.1.0, SVG Export Plug-In . SVG Version: 6.00 Build 0)  -->
<svg version="1.1" id="Lager_4" xmlns="http://www.w3.org/2000/svg" xmlns:xlink="http://www.w3.org/1999/xlink" x="0px" y="0px"
	 viewBox="0 0 339.5 339.5" style="enable-background:new 0 0 339.5 339.5;" xml:space="preserve">
<style type="text/css">
	.st0{fill:#FF7E0B;}
	.st1{fill:#FFB800;}
	.st2{fill:#E45E0E;}
	.st3{fill:#DD68AA;}
	.st4{fill:#006CB0;}
	.st5{fill:#5ECDD1;}
	.st6{fill:#00A0A8;}
	.st7{fill:#FFE771;}
	.st8{fill:#CE4B8C;}
	.st9{fill:#0090D2;}
	.st10{fill:#FFD72B;}
	.st11{fill:#FA640F;}
	.st12{fill:#DF4D9B;}
	.st13{fill:#00AFBA;}
	.st14{fill:#0078C0;}
	.st15{fill:#FFFFFF;}
	.st16{fill:#004673;}
	.st17{fill:#50C2E6;}
	.st18{fill:#9ECFEF;stroke:#0078C0;stroke-width:8;stroke-miterlimit:10;}
	.st19{fill:#D1EFF8;stroke:#0078C0;stroke-width:8;stroke-miterlimit:10;}
</style>
<g>
	<polygon class="st0" points="204.4,122 269.5,32.3 169.8,51.7 	"/>
	<polygon class="st1" points="169.8,51.7 70,32.4 70,32.4 135.1,122 	"/>
	<polygon class="st2" points="204.7,122.5 281,133.6 282,133.2 269.5,32.4 269.5,32.4 204.4,122 	"/>
	<polygon class="st3" points="282.4,134.1 226.9,188.3 331.2,222.2 331.2,222.2 331.2,222.2 331.2,222.2 331.2,222.1 	"/>
	<polygon class="st4" points="169.8,339.4 169.8,229.9 101.2,266 	"/>
	<polygon class="st5" points="112.6,188.3 8.3,222.2 8.3,222.2 100.2,265 113.3,188.9 	"/>
	<path class="st6" d="M112.6,188.3l-55.5-54.1l-48.8,88l0,0c0,0,0,0,0,0l0,0L112.6,188.3z"/>
	<polygon class="st7" points="134.8,122.5 135.1,122 70,32.4 57.6,133.2 58.6,133.6 	"/>
	<polygon class="st8" points="226.3,188.9 239.3,265 331.2,222.2 226.9,188.3 	"/>
	<polygon class="st9" points="238.3,266 169.8,229.9 169.8,339.4 169.8,339.5 169.8,339.5 169.8,339.5 169.8,339.5 	"/>
	<path class="st10" d="M169.8-0.1L169.8-0.1C132.5-0.1,98,12,70,32.3l0,0l99.8,19.4l0,0V-0.1z"/>
	<path class="st11" d="M269.5,32.4C241.5,12,207.1,0,169.8,0v51.8L269.5,32.4z"/>
	<path class="st12" d="M331.2,117.2l-49.3,16l0.3,0.5l0.5,0.1l-0.3,0.3l48.8,88l0,0l0,0c5.4-16.5,8.3-34.2,8.3-52.5
		C339.5,151.4,336.6,133.8,331.2,117.2z"/>
	<path class="st11" d="M269.5,32.4L282,133.2l0,0l49.3-16C320.1,82.8,298.2,53.2,269.5,32.4z"/>
	<path class="st13" d="M100.2,265L8.3,222.2l0,0l0,0c11.2,34.4,33.1,64,61.7,84.9l30.1-41.5L100.2,265z"/>
	<path class="st14" d="M99.9,266.7l0.2-1.1L70,307c28,20.4,62.5,32.4,99.8,32.4v0L101.2,266L99.9,266.7z"/>
	<path class="st13" d="M57.1,134.1l-0.3-0.3l0.5-0.1l0.3-0.5l0,0l-49.3-16C2.9,133.7,0,151.4,0,169.7c0,18.3,2.9,35.9,8.3,52.4l0,0
		L57.1,134.1z"/>
	<path class="st10" d="M70,32.4L70,32.4C41.3,53.2,19.5,82.8,8.3,117.2l49.3,16L70,32.4z"/>
	<path class="st14" d="M239.6,266.7l-1.3-0.7l-68.5,73.5v0c37.3,0,71.8-12,99.8-32.4l-30.1-41.5L239.6,266.7z"/>
	<path class="st12" d="M331.2,222.2L239.3,265l0.1,0.5l30.1,41.5C298.2,286.2,320.1,256.6,331.2,222.2L331.2,222.2L331.2,222.2z"/>
</g>
<circle class="st15" cx="169.9" cy="170.1" r="155"/>
<circle class="st16" cx="169.9" cy="170.1" r="142.5"/>
<polygon class="st17" points="76,125.4 78.8,131.3 85.2,132.3 80.5,136.8 81.5,143.3 75.8,140.2 70,143.1 71.2,136.7 66.5,132.1 
	73,131.2 "/>
<polygon class="st17" points="269.2,188.3 272,194.1 278.5,195.2 273.8,199.7 274.8,206.1 269.1,203 263.2,206 264.4,199.6 
	259.8,195 266.3,194.1 "/>
<polygon class="st17" points="65.2,151.7 67.1,155.6 71.3,156.3 68.2,159.3 68.9,163.5 65.1,161.5 61.3,163.5 62,159.2 59,156.2 
	63.3,155.6 "/>
<polygon class="st17" points="292.1,137.4 293.9,141.2 298.2,141.9 295.1,144.9 295.8,149.2 292,147.1 288.1,149.1 288.9,144.8 
	285.9,141.8 290.1,141.2 "/>
<polygon class="st17" points="256.4,121.6 258.2,125.5 262.5,126.2 259.4,129.1 260.1,133.4 256.3,131.4 252.4,133.3 253.2,129.1 
	250.1,126 254.4,125.5 "/>
<polygon class="st17" points="83.3,172.3 85.2,176.1 89.5,176.8 86.3,179.8 87,184 83.2,182 79.4,184 80.2,179.7 77.1,176.7 
	81.4,176.1 "/>
<polygon class="st17" points="270.1,155.8 271.9,159.7 276.2,160.4 273.1,163.4 273.8,167.6 270,165.6 266.1,167.5 266.9,163.3 
	263.8,160.2 268.1,159.7 "/>
<polygon class="st17" points="48.9,179.9 50.3,182.6 53.3,183.1 51.1,185.2 51.6,188.2 48.9,186.8 46.1,188.2 46.7,185.2 44.5,183 
	47.6,182.6 "/>
<polygon class="st17" points="70,207.9 71.7,211.4 75.5,212 72.7,214.7 73.3,218.5 69.9,216.6 66.5,218.4 67.2,214.6 64.5,211.9 
	68.3,211.4 "/>
<polygon class="st17" points="298.6,187.6 299.9,190.4 303,190.8 300.7,193 301.2,196 298.5,194.5 295.8,195.9 296.4,192.9 
	294.2,190.7 297.2,190.3 "/>
<polygon class="st17" points="54.3,118.6 55.6,121.3 58.6,121.8 56.4,123.9 56.9,126.9 54.2,125.5 51.5,126.9 52,123.8 49.9,121.7 
	52.9,121.3 "/>
<polygon class="st17" points="270.3,94.1 271.6,96.8 274.6,97.3 272.4,99.4 272.9,102.4 270.2,101 267.5,102.4 268,99.4 265.9,97.2 
	268.9,96.8 "/>
<g>
	<path class="st15" d="M96.6,243c4.2,4,4.3,9.1,0.3,13.2c-4,4.2-9.1,4.2-13.3,0.2l-3.2-3.1l-4.9,5c-0.3,0.3-0.6,0.3-0.9,0l-3.3-3.2
		c-0.3-0.3-0.3-0.6,0-0.9l17.4-18c0.3-0.3,0.6-0.3,0.9,0L96.6,243z M86.8,251.9c2,1.9,3.9,2,5.7,0.1c1.8-1.9,1.7-3.8-0.3-5.7
		l-2.6-2.6l-5.4,5.6L86.8,251.9z"/>
	<path class="st15" d="M96.9,276.8c-0.4-0.2-0.5-0.5-0.2-0.9l12.7-21.5c0.2-0.4,0.5-0.5,0.9-0.2l4,2.4c0.3,0.2,0.4,0.5,0.2,0.9
		l-10.3,17.4l8.6,5.1c0.3,0.2,0.4,0.5,0.2,0.9l-2.1,3.6c-0.2,0.4-0.5,0.5-0.9,0.3L96.9,276.8z"/>
	<path class="st15" d="M121.1,289.8c-0.5-0.1-0.6-0.4-0.3-0.9l15.4-21.6c0.2-0.3,0.5-0.4,0.8-0.3l5.4,1.6c0.3,0.1,0.5,0.3,0.5,0.7
		l1,26.5c0,0.5-0.2,0.7-0.7,0.6l-4.7-1.4c-0.4-0.1-0.6-0.4-0.6-0.8l0-4.7l-8.6-2.6l-2.6,3.9c-0.2,0.3-0.5,0.4-0.9,0.3L121.1,289.8z
		 M137.8,274c-1.4,2.1-3.7,5.7-5.5,8.5l5.7,1.7c-0.1-3.4,0-7.6,0-10.1L137.8,274z M140.1,266.6c-3-0.9-4.5-3.3-3.7-5.9
		c0.8-2.6,3.3-3.8,6.3-2.9c2.9,0.9,4.4,3.3,3.6,5.8C145.6,266.4,143,267.5,140.1,266.6z M141,263.9c1,0.3,1.9-0.1,2.2-1.1
		c0.3-1-0.2-1.8-1.2-2.1c-1.1-0.3-2,0.1-2.3,1C139.4,262.7,139.8,263.5,141,263.9z"/>
	<path class="st15" d="M158.6,298.6c-0.4,0-0.7-0.2-0.7-0.7l0.5-25c0-0.4,0.2-0.7,0.7-0.7l4.9,0.1c0.3,0,0.6,0.2,0.7,0.5l4.8,8.9
		c1.5,3,3,6.1,3.8,7.9l0.1,0c-0.2-3.4-0.3-6.7-0.2-9.8l0.1-6.6c0-0.4,0.2-0.7,0.7-0.6l4.6,0.1c0.4,0,0.6,0.2,0.6,0.7l-0.5,25
		c0,0.4-0.2,0.7-0.6,0.7l-4.9-0.1c-0.3,0-0.6-0.2-0.8-0.5l-4.6-8c-1.6-2.7-3.3-6.5-4.1-8.7l-0.1,0c0.3,3.4,0.5,7.3,0.4,10.5
		l-0.1,5.8c0,0.4-0.2,0.7-0.6,0.7L158.6,298.6z"/>
	<path class="st15" d="M207.6,279.2c2.6,0.4,4.3,2,5,4.8c1.3,5-1.1,8.7-6.7,10.1l-9.8,2.5c-0.4,0.1-0.7,0-0.8-0.5l-6.2-24.2
		c-0.1-0.4,0-0.7,0.5-0.8l9.7-2.5c4.9-1.3,8.4,0.6,9.6,5.2C209.4,276.1,209,277.9,207.6,279.2z M199.8,273.8l-3.8,1l1.3,5l3.8-1
		c1.7-0.4,2.5-1.4,2-3.2C202.7,274,201.5,273.4,199.8,273.8z M204.3,289.2c2-0.5,3-1.7,2.5-3.8c-0.4-1.7-1.7-2.6-4.1-2l-4.2,1.1
		l1.5,5.9L204.3,289.2z"/>
	<path class="st15" d="M241.9,267.1c3.3,5.8,1.8,11-4.1,14.4c-5.9,3.4-11.2,2-14.5-3.8l-3.2-5.5c-3.3-5.7-1.8-11,4.1-14.4
		c5.9-3.4,11.2-2,14.5,3.7L241.9,267.1z M228.5,274.6c1.6,2.9,3.8,3.5,6.5,2c2.7-1.6,3.2-3.8,1.6-6.6l-3.1-5.3
		c-1.6-2.8-3.8-3.5-6.5-2c-2.7,1.6-3.2,3.8-1.6,6.6L228.5,274.6z"/>
	<path class="st15" d="M259.8,265.5c-0.3,0.3-0.6,0.3-0.9,0l-17.6-17.7c-0.3-0.3-0.3-0.6,0-0.9l3.3-3.2c0.3-0.3,0.6-0.3,0.9,0
		l6.5,6.6l-1.7-11.7c-0.1-0.3,0.1-0.6,0.3-0.9l4.1-4.1c0.4-0.4,0.8-0.3,0.8,0.3l1.4,13.8l16.8,3c0.5,0.1,0.6,0.4,0.3,0.8l-4,4
		c-0.2,0.2-0.5,0.3-0.9,0.2l-11.7-2.3l0.2,2.4l5.5,5.5c0.3,0.3,0.3,0.6,0,0.9L259.8,265.5z"/>
</g>
<g>
	<path class="st15" d="M130.5,74.4c-3.4,1.5-6.4,1.6-10.3,0.5c-0.4-0.1-0.6-0.4-0.5-0.8l0.9-4.3c0.1-0.4,0.4-0.6,0.8-0.5
		c2.7,0.6,5.1,0.5,7.3-0.4c2.2-0.9,3.4-2.4,2.8-3.8c-0.7-1.7-3-1.4-5.5-0.9c-3.7,0.8-9.5,1.3-11.9-4.2c-2-4.7,1-8.7,6.1-10.9
		c3-1.3,5.7-1.6,9.3-0.9c0.5,0.1,0.6,0.3,0.5,0.7l-0.8,4.2c-0.1,0.4-0.3,0.6-0.8,0.5c-2.2-0.4-4.4-0.1-6.3,0.7c-2.4,1-3,2.3-2.5,3.5
		c0.6,1.5,2.2,1.3,5.4,0.7c5.2-0.9,9.8-1,11.9,4C139,67.4,136.5,71.8,130.5,74.4z"/>
	<path class="st15" d="M154.7,40.6c5.7-0.7,9.8,2.4,10.5,8.1c0.7,5.7-2.5,9.7-8.2,10.4l-4.5,0.6l0.9,6.9c0.1,0.4-0.1,0.7-0.5,0.7
		l-4.6,0.6c-0.4,0-0.6-0.1-0.7-0.6l-3.1-24.8c-0.1-0.4,0.1-0.7,0.5-0.7L154.7,40.6z M155.5,53.7c2.7-0.3,4-1.8,3.6-4.3
		c-0.3-2.6-1.9-3.7-4.6-3.3l-3.7,0.5l1,7.7L155.5,53.7z"/>
	<path class="st15" d="M181.8,61.5l10.8,1.6c0.4,0.1,0.6,0.3,0.6,0.7l-0.6,4c-0.1,0.4-0.3,0.6-0.8,0.6l-16-2.4
		c-0.4-0.1-0.6-0.3-0.6-0.8l3.7-24.7c0.1-0.4,0.3-0.6,0.8-0.6l15.4,2.3c0.4,0.1,0.6,0.3,0.6,0.8l-0.6,4c-0.1,0.4-0.3,0.6-0.7,0.5
		l-10.2-1.5l-0.7,5l9,1.4c0.4,0.1,0.6,0.3,0.6,0.7l-0.6,3.9c-0.1,0.4-0.3,0.6-0.7,0.5l-9-1.4L181.8,61.5z"/>
	<path class="st15" d="M201.4,71.5c-0.4-0.2-0.5-0.5-0.3-0.9l10-22.9c0.2-0.4,0.5-0.5,0.9-0.3l4.3,1.9c0.4,0.2,0.5,0.5,0.3,0.9
		l-8.1,18.5l9.2,4c0.4,0.2,0.5,0.5,0.3,0.8l-1.7,3.8c-0.2,0.4-0.5,0.5-0.8,0.4L201.4,71.5z"/>
	<path class="st15" d="M226.5,74.7c-0.4-0.3-0.4-0.6-0.1-0.9l2.2-3c0.3-0.4,0.6-0.4,0.9-0.1l7.6,5.5c0.4,0.3,0.4,0.6,0.1,0.9l-2.2,3
		c-0.3,0.4-0.6,0.4-0.9,0.1L226.5,74.7z"/>
</g>
<g>
	<path class="st18" d="M106.4,130.1c1.3-0.4,75.7-41.8,75.7-41.8s9.5-5.2,13.9,3.4s6.4,12.7,6.4,12.7L106.4,130.1z"/>
	<path class="st18" d="M234.1,190.6v26.2c0,3.8-3.1,7-7,7H108.3c-3.8,0-7-3.2-7-7v-87.1c0-3.8,3.2-7,7-7h118.8c3.9,0,7,3.2,7,7v16.9
		"/>
	<path class="st18" d="M239.2,191.8h-35.1c-3.9,0-7-3.1-7-7v-23c0-3.9,3.1-7,7-7h35.1c3.9,0,7,3.1,7,7v23
		C246.2,188.6,243.1,191.8,239.2,191.8z"/>
	
		<ellipse transform="matrix(0.3688 -0.9295 0.9295 0.3688 -27.4629 306.1212)" class="st14" cx="211.7" cy="173.3" rx="5.7" ry="5.7"/>
	<path class="st19" d="M135.9,122.7c1.4,0,71.7-21,71.7-21s10.6-2.4,12.5,7.1c1.9,9.5,2.7,14,2.7,14H135.9z"/>
</g>
</svg>
