<?xml version="1.0" encoding="utf-8"?>
<!-- Generator: Adobe Illustrator 21.1.0, SVG Export Plug-In . SVG Version: 6.00 Build 0)  -->
<svg version="1.1" id="Lager_4" xmlns="http://www.w3.org/2000/svg" xmlns:xlink="http://www.w3.org/1999/xlink" x="0px" y="0px"
	 viewBox="0 0 565 454.9" style="enable-background:new 0 0 565 454.9;" xml:space="preserve">
<style type="text/css">
	.st0{fill:#FF7E0B;}
	.st1{fill:#FFB800;}
	.st2{fill:#E45E0E;}
	.st3{fill:#DD68AA;}
	.st4{fill:#006CB0;}
	.st5{fill:#5ECDD1;}
	.st6{fill:#00A0A8;}
	.st7{fill:#FFE771;}
	.st8{fill:#CE4B8C;}
	.st9{fill:#0090D2;}
	.st10{fill:#FFD72B;}
	.st11{fill:#FA640F;}
	.st12{fill:#DF4D9B;}
	.st13{fill:#00AFBA;}
	.st14{fill:#0078C0;}
	.st15{fill:#FFFFFF;}
	.st16{fill:#004673;}
	.st17{fill:#50C2E6;}
	.st18{fill:#9ECFEF;stroke:#0078C0;stroke-width:8;stroke-miterlimit:10;}
	.st19{fill:#D1EFF8;stroke:#0078C0;stroke-width:8;stroke-miterlimit:10;}
</style>
<g>
	<polygon class="st0" points="318.5,132.1 383.6,42.5 283.8,61.9 	"/>
	<polygon class="st1" points="283.8,61.9 184,42.5 184,42.5 249.1,132.1 	"/>
	<polygon class="st2" points="318.7,132.6 395,143.7 396,143.4 383.6,42.5 383.6,42.5 318.5,132.1 	"/>
	<polygon class="st3" points="396.5,144.3 340.9,198.4 445.2,232.3 445.2,232.3 445.2,232.3 445.3,232.3 445.2,232.3 	"/>
	<polygon class="st4" points="283.8,349.6 283.8,240.1 215.2,276.1 	"/>
	<polygon class="st5" points="226.6,198.4 122.3,232.3 122.3,232.3 214.2,275.2 227.3,199 	"/>
	<path class="st6" d="M226.6,198.4l-55.5-54.1l-48.8,88l0,0c0,0,0,0,0,0l0,0L226.6,198.4z"/>
	<polygon class="st7" points="248.9,132.6 249.1,132.1 184,42.5 171.6,143.4 172.6,143.7 	"/>
	<polygon class="st8" points="340.3,199 353.3,275.2 445.2,232.3 340.9,198.4 	"/>
	<polygon class="st9" points="352.3,276.1 283.8,240.1 283.8,349.6 283.8,349.6 283.8,349.6 283.8,349.6 283.8,349.6 	"/>
	<path class="st10" d="M283.8,10.1L283.8,10.1c-37.3,0-71.8,12-99.8,32.4l0,0l99.8,19.4l0,0V10.1z"/>
	<path class="st11" d="M383.6,42.6c-28-20.4-62.5-32.4-99.8-32.4v51.8L383.6,42.6z"/>
	<path class="st12" d="M445.3,127.4l-49.3,16l0.3,0.5l0.5,0.1l-0.3,0.3l48.8,88l0,0l0,0c5.4-16.5,8.3-34.2,8.3-52.5
		C453.5,161.5,450.6,143.9,445.3,127.4z"/>
	<path class="st11" d="M383.6,42.5L396,143.4l0,0l49.3-16C434.1,92.9,412.2,63.3,383.6,42.5z"/>
	<path class="st13" d="M214.2,275.2l-91.9-42.9l0,0l0,0c11.2,34.4,33.1,64,61.7,84.9l30.1-41.5L214.2,275.2z"/>
	<path class="st14" d="M214,276.8l0.2-1.1L184,317.2c28,20.4,62.5,32.4,99.8,32.4v0l-68.5-73.5L214,276.8z"/>
	<path class="st13" d="M171.1,144.3l-0.3-0.3l0.5-0.1l0.3-0.5l0,0l-49.3-16c-5.4,16.5-8.3,34.2-8.3,52.5c0,18.3,2.9,35.9,8.3,52.4
		l0,0L171.1,144.3z"/>
	<path class="st10" d="M184,42.5L184,42.5c-28.7,20.8-50.5,50.4-61.7,84.8l49.3,16L184,42.5z"/>
	<path class="st14" d="M353.6,276.8l-1.3-0.7l-68.5,73.5v0c37.3,0,71.8-12,99.8-32.4l-30.1-41.5L353.6,276.8z"/>
	<path class="st12" d="M445.2,232.3l-91.9,42.9l0.1,0.5l30.1,41.5C412.2,296.3,434.1,266.7,445.2,232.3L445.2,232.3L445.2,232.3z"/>
</g>
<circle class="st15" cx="284" cy="180.3" r="155"/>
<circle class="st16" cx="284" cy="180.3" r="142.5"/>
<polygon class="st17" points="190,135.5 192.8,141.4 199.3,142.4 194.5,146.9 195.6,153.4 189.8,150.3 184,153.3 185.2,146.8 
	180.6,142.2 187,141.4 "/>
<polygon class="st17" points="383.2,198.4 386.1,204.3 392.5,205.3 387.8,209.8 388.8,216.3 383.1,213.2 377.3,216.1 378.4,209.7 
	373.8,205.1 380.3,204.2 "/>
<polygon class="st17" points="179.2,161.9 181.1,165.8 185.4,166.4 182.2,169.4 182.9,173.7 179.1,171.6 175.3,173.6 176.1,169.3 
	173,166.3 177.3,165.7 "/>
<polygon class="st17" points="406.1,147.5 408,151.4 412.2,152.1 409.1,155 409.8,159.3 406,157.2 402.2,159.2 402.9,155 
	399.9,151.9 404.2,151.3 "/>
<polygon class="st17" points="370.4,131.8 372.3,135.6 376.5,136.3 373.4,139.3 374.1,143.5 370.3,141.5 366.5,143.5 367.2,139.2 
	364.2,136.2 368.5,135.6 "/>
<polygon class="st17" points="197.4,182.4 199.2,186.3 203.5,186.9 200.4,189.9 201.1,194.2 197.3,192.1 193.4,194.1 194.2,189.9 
	191.1,186.8 195.4,186.2 "/>
<polygon class="st17" points="384.1,166 386,169.8 390.2,170.5 387.1,173.5 387.8,177.8 384,175.7 380.2,177.7 380.9,173.4 
	377.9,170.4 382.2,169.8 "/>
<polygon class="st17" points="163,190 164.3,192.8 167.3,193.2 165.1,195.3 165.6,198.4 162.9,196.9 160.2,198.3 160.7,195.3 
	158.6,193.1 161.6,192.7 "/>
<polygon class="st17" points="184,218.1 185.7,221.6 189.5,222.2 186.7,224.8 187.3,228.6 184,226.8 180.5,228.5 181.2,224.7 
	178.5,222 182.3,221.5 "/>
<polygon class="st17" points="412.6,197.8 414,200.5 417,201 414.8,203.1 415.3,206.1 412.6,204.7 409.8,206 410.4,203 408.2,200.9 
	411.3,200.5 "/>
<polygon class="st17" points="168.3,128.7 169.6,131.5 172.6,131.9 170.4,134 170.9,137 168.2,135.6 165.5,137 166.1,134 
	163.9,131.8 166.9,131.4 "/>
<polygon class="st17" points="384.3,104.2 385.6,107 388.7,107.4 386.5,109.5 386.9,112.6 384.2,111.1 381.5,112.5 382.1,109.5 
	379.9,107.3 382.9,106.9 "/>
<g>
	<path class="st15" d="M210.6,253.1c4.2,4,4.3,9.1,0.3,13.2c-4,4.2-9.1,4.2-13.3,0.2l-3.2-3.1l-4.9,5c-0.3,0.3-0.6,0.3-0.9,0
		l-3.3-3.2c-0.3-0.3-0.3-0.6,0-0.9l17.4-18c0.3-0.3,0.6-0.3,0.9,0L210.6,253.1z M200.9,262c2,1.9,3.9,2,5.7,0.1
		c1.8-1.9,1.7-3.8-0.3-5.7l-2.6-2.6l-5.4,5.6L200.9,262z"/>
	<path class="st15" d="M210.9,286.9c-0.4-0.2-0.5-0.5-0.2-0.9l12.7-21.5c0.2-0.4,0.5-0.5,0.9-0.2l4,2.4c0.3,0.2,0.4,0.5,0.2,0.9
		l-10.3,17.4l8.6,5.1c0.3,0.2,0.4,0.5,0.2,0.9l-2.1,3.6c-0.2,0.4-0.5,0.5-0.9,0.3L210.9,286.9z"/>
	<path class="st15" d="M235.1,299.9c-0.5-0.1-0.6-0.4-0.3-0.9l15.4-21.6c0.2-0.3,0.5-0.4,0.8-0.3l5.4,1.6c0.3,0.1,0.5,0.3,0.5,0.7
		l1,26.5c0,0.5-0.2,0.7-0.7,0.6l-4.7-1.4c-0.4-0.1-0.6-0.4-0.6-0.8l0-4.7l-8.6-2.6l-2.6,3.9c-0.2,0.3-0.5,0.4-0.9,0.3L235.1,299.9z
		 M251.8,284.2c-1.4,2.1-3.7,5.7-5.5,8.5l5.7,1.7c-0.1-3.4,0-7.6,0-10.1L251.8,284.2z M254.2,276.8c-3-0.9-4.5-3.3-3.7-5.9
		c0.8-2.6,3.3-3.8,6.3-2.9c2.9,0.9,4.4,3.3,3.6,5.8C259.6,276.5,257,277.6,254.2,276.8z M255,274c1,0.3,1.9-0.1,2.2-1.1
		c0.3-1-0.2-1.8-1.2-2.1c-1.1-0.3-2,0.1-2.3,1C253.4,272.9,253.9,273.7,255,274z"/>
	<path class="st15" d="M272.6,308.7c-0.4,0-0.7-0.2-0.7-0.7l0.5-25c0-0.4,0.2-0.7,0.7-0.7l4.9,0.1c0.3,0,0.6,0.2,0.7,0.5l4.8,8.9
		c1.5,3,3,6.1,3.8,7.9l0.1,0c-0.2-3.4-0.3-6.7-0.2-9.8l0.1-6.6c0-0.4,0.2-0.7,0.7-0.6l4.6,0.1c0.4,0,0.6,0.2,0.6,0.7l-0.5,25
		c0,0.4-0.2,0.7-0.6,0.7l-4.9-0.1c-0.3,0-0.6-0.2-0.8-0.5l-4.6-8c-1.6-2.7-3.3-6.5-4.1-8.7l-0.1,0c0.3,3.4,0.5,7.3,0.4,10.5
		l-0.1,5.8c0,0.4-0.2,0.7-0.6,0.7L272.6,308.7z"/>
	<path class="st15" d="M321.7,289.4c2.6,0.4,4.3,2,5,4.8c1.3,5-1.1,8.7-6.7,10.1l-9.8,2.5c-0.4,0.1-0.7,0-0.8-0.5l-6.2-24.2
		c-0.1-0.4,0-0.7,0.5-0.8l9.7-2.5c4.9-1.3,8.4,0.6,9.6,5.2C323.5,286.2,323.1,288,321.7,289.4z M313.8,284l-3.8,1l1.3,5l3.8-1
		c1.7-0.4,2.5-1.4,2-3.2C316.7,284.1,315.5,283.6,313.8,284z M318.3,299.3c2-0.5,3-1.7,2.5-3.8c-0.4-1.7-1.7-2.6-4.1-2l-4.2,1.1
		l1.5,5.9L318.3,299.3z"/>
	<path class="st15" d="M355.9,277.2c3.3,5.8,1.8,11-4.1,14.4c-5.9,3.4-11.2,2-14.5-3.8l-3.2-5.5c-3.3-5.7-1.8-11,4.1-14.4
		c5.9-3.4,11.2-2,14.5,3.7L355.9,277.2z M342.5,284.8c1.6,2.9,3.8,3.5,6.5,2c2.7-1.6,3.2-3.8,1.6-6.6l-3.1-5.3
		c-1.6-2.8-3.8-3.5-6.5-2c-2.7,1.6-3.2,3.8-1.6,6.6L342.5,284.8z"/>
	<path class="st15" d="M373.8,275.7c-0.3,0.3-0.6,0.3-0.9,0L355.3,258c-0.3-0.3-0.3-0.6,0-0.9l3.3-3.2c0.3-0.3,0.6-0.3,0.9,0
		l6.5,6.6l-1.7-11.7c-0.1-0.3,0.1-0.6,0.3-0.9l4.1-4.1c0.4-0.4,0.8-0.3,0.8,0.3l1.4,13.8l16.8,3c0.5,0.1,0.6,0.4,0.3,0.8l-4,4
		c-0.2,0.2-0.5,0.3-0.9,0.2l-11.7-2.3l0.2,2.4l5.5,5.5c0.3,0.3,0.3,0.6,0,0.9L373.8,275.7z"/>
</g>
<g>
	<path class="st15" d="M244.5,84.5c-3.4,1.5-6.4,1.6-10.3,0.5c-0.4-0.1-0.6-0.4-0.5-0.8l0.9-4.3c0.1-0.4,0.4-0.6,0.8-0.5
		c2.7,0.6,5.1,0.5,7.3-0.4c2.2-0.9,3.4-2.4,2.8-3.8c-0.7-1.7-3-1.4-5.5-0.9c-3.7,0.8-9.5,1.3-11.9-4.2c-2-4.7,1-8.7,6.1-10.9
		c3-1.3,5.7-1.6,9.3-0.9c0.5,0.1,0.6,0.3,0.5,0.7l-0.8,4.2c-0.1,0.4-0.3,0.6-0.8,0.5c-2.2-0.4-4.4-0.1-6.3,0.7c-2.4,1-3,2.3-2.5,3.5
		c0.6,1.5,2.2,1.3,5.4,0.7c5.2-0.9,9.8-1,11.9,4C253,77.5,250.5,82,244.5,84.5z"/>
	<path class="st15" d="M268.7,50.7c5.7-0.7,9.8,2.4,10.5,8.1c0.7,5.7-2.5,9.7-8.2,10.4l-4.5,0.6l0.9,6.9c0.1,0.4-0.1,0.7-0.5,0.7
		l-4.6,0.6c-0.4,0-0.6-0.1-0.7-0.6l-3.1-24.8c-0.1-0.4,0.1-0.7,0.5-0.7L268.7,50.7z M269.6,63.9c2.7-0.3,4-1.8,3.6-4.3
		c-0.3-2.6-1.9-3.7-4.6-3.3l-3.7,0.5l1,7.7L269.6,63.9z"/>
	<path class="st15" d="M295.8,71.7l10.8,1.6c0.4,0.1,0.6,0.3,0.6,0.7l-0.6,4c-0.1,0.4-0.3,0.6-0.8,0.6l-16-2.4
		c-0.4-0.1-0.6-0.3-0.6-0.8l3.7-24.7c0.1-0.4,0.3-0.6,0.8-0.6l15.4,2.3c0.4,0.1,0.6,0.3,0.6,0.8l-0.6,4c-0.1,0.4-0.3,0.6-0.7,0.5
		l-10.2-1.5l-0.7,5l9,1.4c0.4,0.1,0.6,0.3,0.6,0.7l-0.6,3.9c-0.1,0.4-0.3,0.6-0.7,0.5l-9-1.4L295.8,71.7z"/>
	<path class="st15" d="M315.5,81.6c-0.4-0.2-0.5-0.5-0.3-0.9l10-22.9c0.2-0.4,0.5-0.5,0.9-0.3l4.3,1.9c0.4,0.2,0.5,0.5,0.3,0.9
		l-8.1,18.5l9.2,4c0.4,0.2,0.5,0.5,0.3,0.8l-1.7,3.8c-0.2,0.4-0.5,0.5-0.8,0.4L315.5,81.6z"/>
	<path class="st15" d="M340.6,84.9c-0.4-0.3-0.4-0.6-0.1-0.9l2.2-3c0.3-0.4,0.6-0.4,0.9-0.1l7.6,5.5c0.4,0.3,0.4,0.6,0.1,0.9l-2.2,3
		c-0.3,0.4-0.6,0.4-0.9,0.1L340.6,84.9z"/>
</g>
<g>
	<path class="st18" d="M220.5,140.3c1.3-0.4,75.7-41.8,75.7-41.8s9.5-5.2,13.9,3.4s6.4,12.7,6.4,12.7L220.5,140.3z"/>
	<path class="st18" d="M348.1,200.8V227c0,3.8-3.1,7-7,7H222.3c-3.8,0-7-3.2-7-7v-87.1c0-3.8,3.2-7,7-7h118.8c3.9,0,7,3.2,7,7v16.9"
		/>
	<path class="st18" d="M353.2,201.9h-35.1c-3.9,0-7-3.1-7-7v-23c0-3.9,3.1-7,7-7h35.1c3.9,0,7,3.1,7,7v23
		C360.2,198.8,357.1,201.9,353.2,201.9z"/>
	<ellipse transform="matrix(0.3688 -0.9295 0.9295 0.3688 35.0877 418.51)" class="st14" cx="325.7" cy="183.4" rx="5.7" ry="5.7"/>
	<path class="st19" d="M249.9,132.9c1.4,0,71.7-21,71.7-21s10.6-2.4,12.5,7.1s2.7,14,2.7,14H249.9z"/>
</g>
</svg>
